<svg xmlns="http://www.w3.org/2000/svg" preserveAspectRatio="xMaxYMid meet" viewBox="0 0 460 321" fill="none">
    <ellipse cx="230" cy="160.043" fill="#fff" fill-opacity=".08" rx="230" ry="160.043" />
    <rect width="251" height="38" x="104.5" y="211.5" stroke="#FDCB36" rx="19" />
    <path fill="#fff"
        d="M127.166 237.144c-.66 0-1.326-.024-1.998-.072a8.895 8.895 0 0 1-1.764-.252v-12.114c.264-.048.546-.09.846-.126.3-.048.606-.084.918-.108a25 25 0 0 1 1.8-.072c.756 0 1.458.06 2.106.18.648.108 1.206.294 1.674.558.48.264.852.612 1.116 1.044.264.432.396.966.396 1.602 0 .588-.144 1.092-.432 1.512-.276.42-.666.756-1.17 1.008.756.252 1.314.624 1.674 1.116.36.492.54 1.116.54 1.872 0 1.284-.468 2.25-1.404 2.898-.936.636-2.37.954-4.302.954Zm-1.53-5.76v3.798a19.143 19.143 0 0 0 1.602.072c.468 0 .9-.03 1.296-.09.408-.06.756-.162 1.044-.306.3-.156.534-.36.702-.612.18-.252.27-.576.27-.972 0-.708-.258-1.2-.774-1.476s-1.23-.414-2.142-.414h-1.998Zm0-1.782h1.602c.864 0 1.542-.12 2.034-.36.492-.252.738-.696.738-1.332 0-.6-.258-1.026-.774-1.278-.504-.252-1.164-.378-1.98-.378-.348 0-.66.006-.936.018-.264.012-.492.03-.684.054v3.276Zm18.184 2.682c0 .744-.108 1.422-.324 2.034a4.502 4.502 0 0 1-.918 1.566 4.108 4.108 0 0 1-1.44 1.008c-.552.24-1.164.36-1.836.36-.672 0-1.284-.12-1.836-.36a4.149 4.149 0 0 1-1.422-1.008 4.73 4.73 0 0 1-.936-1.566 6.078 6.078 0 0 1-.324-2.034c0-.744.108-1.416.324-2.016a4.73 4.73 0 0 1 .936-1.566 4.124 4.124 0 0 1 1.44-.99 4.51 4.51 0 0 1 1.818-.36c.66 0 1.266.12 1.818.36a3.915 3.915 0 0 1 1.44.99c.396.432.702.954.918 1.566.228.6.342 1.272.342 2.016Zm-2.232 0c0-.936-.204-1.674-.612-2.214-.396-.552-.954-.828-1.674-.828s-1.284.276-1.692.828c-.396.54-.594 1.278-.594 2.214 0 .948.198 1.698.594 2.25.408.552.972.828 1.692.828s1.278-.276 1.674-.828c.408-.552.612-1.302.612-2.25Zm13.17 0c0 .744-.108 1.422-.324 2.034a4.502 4.502 0 0 1-.918 1.566 4.108 4.108 0 0 1-1.44 1.008c-.552.24-1.164.36-1.836.36-.672 0-1.284-.12-1.836-.36a4.149 4.149 0 0 1-1.422-1.008 4.73 4.73 0 0 1-.936-1.566 6.078 6.078 0 0 1-.324-2.034c0-.744.108-1.416.324-2.016a4.73 4.73 0 0 1 .936-1.566 4.124 4.124 0 0 1 1.44-.99 4.51 4.51 0 0 1 1.818-.36c.66 0 1.266.12 1.818.36a3.915 3.915 0 0 1 1.44.99c.396.432.702.954.918 1.566.228.6.342 1.272.342 2.016Zm-2.232 0c0-.936-.204-1.674-.612-2.214-.396-.552-.954-.828-1.674-.828s-1.284.276-1.692.828c-.396.54-.594 1.278-.594 2.214 0 .948.198 1.698.594 2.25.408.552.972.828 1.692.828s1.278-.276 1.674-.828c.408-.552.612-1.302.612-2.25Zm6.833-1.026.882-.918.918-.99c.3-.336.582-.654.846-.954.276-.312.51-.582.702-.81h2.574c-.6.672-1.236 1.368-1.908 2.088a83.9 83.9 0 0 1-1.998 2.106c.36.3.738.666 1.134 1.098.396.42.78.87 1.152 1.35.372.48.72.96 1.044 1.44.324.48.594.924.81 1.332h-2.52a15.786 15.786 0 0 0-.756-1.17 14.046 14.046 0 0 0-.9-1.188 17.337 17.337 0 0 0-.99-1.08 8.062 8.062 0 0 0-.99-.882V237h-2.178v-13.608l2.178-.36v8.226Zm15.61 4.212c.672 0 1.182-.036 1.53-.108v-2.412a4.866 4.866 0 0 0-1.278-.162c-.24 0-.486.018-.738.054-.24.036-.462.102-.666.198a1.197 1.197 0 0 0-.468.414c-.12.168-.18.384-.18.648 0 .516.162.876.486 1.08.324.192.762.288 1.314.288Zm-.18-8.118c.72 0 1.326.09 1.818.27.492.18.882.432 1.17.756.3.324.51.72.63 1.188.132.456.198.96.198 1.512v5.706c-.336.072-.846.156-1.53.252a14.51 14.51 0 0 1-2.286.162c-.564 0-1.08-.054-1.548-.162a3.344 3.344 0 0 1-1.206-.522 2.577 2.577 0 0 1-.774-.936c-.18-.384-.27-.858-.27-1.422 0-.54.102-.996.306-1.368.216-.372.504-.672.864-.9.36-.24.774-.408 1.242-.504.48-.108.978-.162 1.494-.162.24 0 .492.018.756.054.264.024.546.072.846.144v-.36c0-.252-.03-.492-.09-.72a1.371 1.371 0 0 0-.324-.594 1.36 1.36 0 0 0-.594-.414c-.24-.096-.546-.144-.918-.144-.504 0-.966.036-1.386.108-.42.072-.762.156-1.026.252l-.27-1.764c.276-.096.678-.192 1.206-.288a9.457 9.457 0 0 1 1.692-.144Zm16.408 4.698c0-.984-.126-1.692-.378-2.124-.24-.444-.696-.666-1.368-.666-.24 0-.504.018-.792.054-.288.036-.504.066-.648.09V237h-2.178v-9.108c.42-.12.966-.234 1.638-.342a13.845 13.845 0 0 1 2.16-.162c.648 0 1.176.084 1.584.252.42.168.768.39 1.044.666a4.508 4.508 0 0 1 1.188-.594c.252-.096.516-.174.792-.234.288-.06.576-.09.864-.09.732 0 1.332.108 1.8.324.48.204.852.498 1.116.882.276.372.462.828.558 1.368.108.528.162 1.11.162 1.746V237h-2.178v-4.95c0-.984-.12-1.692-.36-2.124-.24-.444-.702-.666-1.386-.666-.348 0-.678.06-.99.18-.312.108-.546.216-.702.324.096.3.162.618.198.954.036.336.054.696.054 1.08V237h-2.178v-4.95Zm9.868.288c0-.828.12-1.554.36-2.178.252-.624.582-1.14.99-1.548a3.9 3.9 0 0 1 1.404-.936 4.242 4.242 0 0 1 1.62-.324c1.296 0 2.304.402 3.024 1.206.732.804 1.098 2.004 1.098 3.6 0 .12-.006.258-.018.414a4 4 0 0 1-.018.396h-6.21c.06.756.324 1.344.792 1.764.48.408 1.17.612 2.07.612a6.65 6.65 0 0 0 1.44-.144 5.94 5.94 0 0 0 1.044-.306l.288 1.782a4.02 4.02 0 0 1-.504.198c-.204.06-.444.114-.72.162a8.317 8.317 0 0 1-1.818.198c-.828 0-1.548-.12-2.16-.36-.612-.252-1.116-.594-1.512-1.026a4.303 4.303 0 0 1-.882-1.548 6.407 6.407 0 0 1-.288-1.962Zm6.318-.972c0-.3-.042-.582-.126-.846a1.882 1.882 0 0 0-.378-.702 1.52 1.52 0 0 0-.594-.468 1.758 1.758 0 0 0-.828-.18c-.336 0-.63.066-.882.198-.252.12-.468.282-.648.486-.168.204-.3.438-.396.702a3.803 3.803 0 0 0-.198.81h4.05Zm4.145.972c0-.828.12-1.554.36-2.178.252-.624.582-1.14.99-1.548a3.9 3.9 0 0 1 1.404-.936 4.242 4.242 0 0 1 1.62-.324c1.296 0 2.304.402 3.024 1.206.732.804 1.098 2.004 1.098 3.6 0 .12-.006.258-.018.414a4 4 0 0 1-.018.396h-6.21c.06.756.324 1.344.792 1.764.48.408 1.17.612 2.07.612a6.65 6.65 0 0 0 1.44-.144 5.94 5.94 0 0 0 1.044-.306l.288 1.782a4.02 4.02 0 0 1-.504.198c-.204.06-.444.114-.72.162a8.317 8.317 0 0 1-1.818.198c-.828 0-1.548-.12-2.16-.36-.612-.252-1.116-.594-1.512-1.026a4.303 4.303 0 0 1-.882-1.548 6.407 6.407 0 0 1-.288-1.962Zm6.318-.972c0-.3-.042-.582-.126-.846a1.882 1.882 0 0 0-.378-.702 1.52 1.52 0 0 0-.594-.468 1.758 1.758 0 0 0-.828-.18c-.336 0-.63.066-.882.198-.252.12-.468.282-.648.486-.168.204-.3.438-.396.702a3.803 3.803 0 0 0-.198.81h4.05Zm4.56-6.264 2.178-.36v2.844h3.348v1.818h-3.348v3.834c0 .756.12 1.296.36 1.62.24.324.648.486 1.224.486.396 0 .744-.042 1.044-.126.312-.084.558-.162.738-.234l.36 1.728a7.379 7.379 0 0 1-.99.324c-.408.12-.888.18-1.44.18-.672 0-1.236-.09-1.692-.27a2.522 2.522 0 0 1-1.062-.774 3.18 3.18 0 0 1-.558-1.242 7.843 7.843 0 0 1-.162-1.674v-8.154ZM232.413 237h-2.178v-9.414h2.178V237Zm.234-12.168c0 .408-.132.732-.396.972s-.576.36-.936.36c-.372 0-.69-.12-.954-.36s-.396-.564-.396-.972c0-.42.132-.75.396-.99s.582-.36.954-.36c.36 0 .672.12.936.36s.396.57.396.99Zm2.725 3.06c.42-.12.966-.234 1.638-.342a14.123 14.123 0 0 1 2.232-.162c.768 0 1.41.108 1.926.324.516.204.924.498 1.224.882.312.372.528.828.648 1.368.132.528.198 1.11.198 1.746V237h-2.178v-4.95c0-.504-.036-.93-.108-1.278-.06-.36-.168-.648-.324-.864a1.177 1.177 0 0 0-.612-.486c-.252-.108-.564-.162-.936-.162-.276 0-.564.018-.864.054-.3.036-.522.066-.666.09V237h-2.178v-9.108Zm12.419 4.158c0 .924.198 1.602.594 2.034.408.42.93.63 1.566.63.348 0 .672-.048.972-.144.312-.096.564-.21.756-.342v-4.878a4.897 4.897 0 0 0-.576-.09 5.702 5.702 0 0 0-.864-.054c-.792 0-1.398.264-1.818.792-.42.516-.63 1.2-.63 2.052Zm6.066 3.996c0 1.5-.384 2.598-1.152 3.294-.756.696-1.92 1.044-3.492 1.044-.576 0-1.14-.048-1.692-.144a9.445 9.445 0 0 1-1.476-.378l.396-1.854c.372.156.792.282 1.26.378.48.096.996.144 1.548.144.876 0 1.5-.18 1.872-.54.372-.36.558-.894.558-1.602v-.36a5.556 5.556 0 0 1-.864.324c-.348.108-.75.162-1.206.162-.6 0-1.152-.096-1.656-.288a3.554 3.554 0 0 1-1.278-.846 4.059 4.059 0 0 1-.828-1.386c-.192-.564-.288-1.212-.288-1.944 0-.684.102-1.314.306-1.89a4.212 4.212 0 0 1 .918-1.476c.408-.408.9-.726 1.476-.954.576-.228 1.23-.342 1.962-.342.708 0 1.38.054 2.016.162.636.108 1.176.222 1.62.342v8.154Zm12.948-4.968a58.253 58.253 0 0 1-.9 3.096 86.945 86.945 0 0 1-.936 2.826h-1.782a38.622 38.622 0 0 1-.756-1.89 60.738 60.738 0 0 1-.792-2.268 94.12 94.12 0 0 1-.792-2.538c-.264-.888-.522-1.794-.774-2.718h2.304c.108.504.234 1.05.378 1.638.144.576.294 1.17.45 1.782.156.6.318 1.188.486 1.764.168.576.336 1.104.504 1.584.18-.552.354-1.122.522-1.71.18-.588.348-1.176.504-1.764.156-.588.3-1.158.432-1.71.144-.564.27-1.092.378-1.584h1.674a117.974 117.974 0 0 0 .774 3.294c.156.588.318 1.176.486 1.764.18.588.36 1.158.54 1.71a62.192 62.192 0 0 0 .972-3.348 58.092 58.092 0 0 0 .846-3.42h2.25c-.252.924-.51 1.83-.774 2.718a94.12 94.12 0 0 1-.792 2.538c-.264.804-.528 1.56-.792 2.268a28.88 28.88 0 0 1-.774 1.89h-1.764a239.29 239.29 0 0 1-.972-2.826 58.253 58.253 0 0 1-.9-3.096ZM277.61 237h-2.178v-9.414h2.178V237Zm.234-12.168c0 .408-.132.732-.396.972s-.576.36-.936.36c-.372 0-.69-.12-.954-.36s-.396-.564-.396-.972c0-.42.132-.75.396-.99s.582-.36.954-.36c.36 0 .672.12.936.36s.396.57.396.99Zm2.617.27 2.178-.36v2.844h3.348v1.818h-3.348v3.834c0 .756.12 1.296.36 1.62.24.324.648.486 1.224.486.396 0 .744-.042 1.044-.126.312-.084.558-.162.738-.234l.36 1.728a7.379 7.379 0 0 1-.99.324c-.408.12-.888.18-1.44.18-.672 0-1.236-.09-1.692-.27a2.522 2.522 0 0 1-1.062-.774 3.18 3.18 0 0 1-.558-1.242 7.843 7.843 0 0 1-.162-1.674v-8.154ZM288.272 237v-13.608l2.178-.36v4.662c.24-.084.516-.156.828-.216.324-.06.642-.09.954-.09.756 0 1.38.108 1.872.324.504.204.906.498 1.206.882.3.372.51.822.63 1.35.132.528.198 1.116.198 1.764V237h-2.178v-4.95c0-.504-.036-.93-.108-1.278-.06-.36-.168-.648-.324-.864a1.183 1.183 0 0 0-.594-.486c-.252-.108-.564-.162-.936-.162-.288 0-.582.03-.882.09-.3.06-.522.114-.666.162V237h-2.178Zm20.69.27c-.936 0-1.776-.144-2.52-.432a5.033 5.033 0 0 1-1.89-1.26c-.516-.564-.912-1.248-1.188-2.052-.276-.804-.414-1.728-.414-2.772 0-1.044.156-1.968.468-2.772.324-.804.762-1.482 1.314-2.034a5.43 5.43 0 0 1 1.944-1.278 6.574 6.574 0 0 1 2.394-.432c.516 0 .984.042 1.404.126.42.072.786.156 1.098.252.312.096.57.198.774.306.204.108.348.186.432.234l-.666 1.854c-.288-.18-.702-.348-1.242-.504a5.673 5.673 0 0 0-1.728-.252c-.54 0-1.044.096-1.512.288a3.26 3.26 0 0 0-1.224.828c-.336.372-.6.84-.792 1.404-.192.564-.288 1.218-.288 1.962 0 .66.072 1.266.216 1.818.156.552.39 1.032.702 1.44.312.396.708.708 1.188.936.48.216 1.056.324 1.728.324.804 0 1.458-.078 1.962-.234a8.35 8.35 0 0 0 1.17-.468l.612 1.854a3.054 3.054 0 0 1-.594.288c-.24.096-.528.192-.864.288-.336.084-.714.15-1.134.198-.42.06-.87.09-1.35.09Zm15.072-12.744v1.962H320.2V237h-2.286v-10.512h-3.834v-1.962h9.954Zm3.324 6.228c0 .684.084 1.308.252 1.872.168.552.408 1.026.72 1.422a3.44 3.44 0 0 0 1.17.9c.456.216.972.324 1.548.324a3.53 3.53 0 0 0 1.53-.324c.456-.216.84-.516 1.152-.9.324-.396.57-.87.738-1.422a6.541 6.541 0 0 0 .252-1.872c0-.684-.084-1.302-.252-1.854-.168-.564-.414-1.038-.738-1.422a3.18 3.18 0 0 0-1.152-.918 3.53 3.53 0 0 0-1.53-.324c-.576 0-1.092.108-1.548.324a3.346 3.346 0 0 0-1.17.918c-.312.396-.552.87-.72 1.422a6.356 6.356 0 0 0-.252 1.854Zm9.738 0c0 1.068-.162 2.01-.486 2.826-.312.816-.744 1.5-1.296 2.052-.54.54-1.176.948-1.908 1.224a6.577 6.577 0 0 1-2.34.414 6.724 6.724 0 0 1-2.358-.414 5.495 5.495 0 0 1-1.926-1.224c-.54-.552-.972-1.236-1.296-2.052-.324-.816-.486-1.758-.486-2.826s.162-2.004.486-2.808c.324-.816.762-1.5 1.314-2.052a5.552 5.552 0 0 1 1.944-1.242 6.526 6.526 0 0 1 2.322-.414c.816 0 1.59.138 2.322.414.732.276 1.368.69 1.908 1.242.552.552.99 1.236 1.314 2.052.324.804.486 1.74.486 2.808Z" />
    <path fill="#FFE2B2"
        d="m218.48 200.186-25.957 11.458h76.354a.963.963 0 0 0 .605-.214 1.007 1.007 0 0 0 .276-1.2.972.972 0 0 0-.45-.465l-50.828-9.579Z" />
    <path fill="#FDCB36"
        d="M222.812 176.152c.26-1.896 4.357-15.546 6.057-24.968 1.058-5.867 6.2-7.858 12.052-7.858l11.539-2.269 13.077.714 18.918 2.535c7.468 1.009 14.925 7.213 16.205 14.783l.853 11.231-8.083 32.893-55.474-5.165-5.967-21.936-9.177-1.074v1.114Z" />
    <mask id="a" width="80" height="63" x="222" y="141" maskUnits="userSpaceOnUse" style="mask-type:luminance">
        <path fill="#fff"
            d="M222.812 176.152c.26-1.896 4.357-15.546 6.057-24.968 1.058-5.867 6.2-7.858 12.052-7.858l11.539-2.269 13.077.714 18.918 2.535c7.468 1.009 14.925 7.213 16.205 14.783l.853 11.231-8.083 32.893-55.474-5.165-5.967-21.936-9.177-1.074v1.114Z" />
    </mask>
    <g mask="url(#a)">
        <path fill="#FDFDFF"
            d="m221.447 157.713 15.965 10.019 15.966-10.019 15.964 10.019 15.966-10.019 15.968 10.019-1.064-9.863 4.391 8.839-6.389-7.443 8.699 4.354-9.525-1.896 9.525-1.896-8.699 4.353 6.389-7.443-4.391 8.839 1.064-9.863-15.966 10.019-15.965-10.019-15.966 10.019-15.966-10.019-15.966 10.019-1.687-9.773 3.818 9.109-6.851-7.005 8.406 4.921-9.625-1.261 9.625-1.262-8.406 4.921 6.851-7.004-3.82 9.109 1.689-9.774ZM216.887 171.296h79.83c.279 0 .546-.113.743-.314a1.084 1.084 0 0 0 0-1.516 1.04 1.04 0 0 0-.743-.314h-79.83a1.04 1.04 0 0 0-.743.314 1.084 1.084 0 0 0 0 1.516c.197.201.464.314.743.314ZM219.164 153.007h79.827c.561 0 1.026-.572 1.026-1.143 0-.572-.46-1.143-1.026-1.143h-79.827c-.561 0-1.027.571-1.027 1.143 0 .571.459 1.143 1.027 1.143Z"
            opacity=".79" />
    </g>
    <path fill="#ED9B09" d="m285.249 174.673-1.082-15.982-3.878 36.976 7.755 1.395-2.731-20.627-.064-1.762Z"
        opacity=".76" />
    <path fill="#FCC4AC" d="m237.956 167.059-3.097 19.602-15.148 2.142 5.72-23.336 12.525 1.592Z" />
    <path fill="#FE7D6B" d="m234.87 166.711-2.882 9.443h4.884l1.082-9.094-3.084-.349Z" opacity=".49" />
    <path fill="#0F3A8A"
        d="M250.582 123.181s-1.499-5.925 3.281-6.498c0 0 .841-2.581 5.132-.858 4.291 1.724 10.897 2.294 6.539 12.186l-2.215 5.715-12.737-10.545Z" />
    <mask id="b" width="17" height="19" x="250" y="115" maskUnits="userSpaceOnUse" style="mask-type:luminance">
        <path fill="#fff"
            d="M250.582 123.179s-1.499-5.925 3.281-6.498c0 0 .841-2.581 5.132-.858 4.291 1.724 10.897 2.294 6.539 12.186l-2.215 5.715-12.737-10.545Z" />
    </mask>
    <g mask="url(#b)">
        <path fill="#fff"
            d="M266.755 121.245a.066.066 0 0 1-.046-.019.068.068 0 0 1-.023-.044c-.298-2.352-4.948-4.012-7.446-4.904l-.553-.199c-2.308-.838-3.621-.015-3.634-.007a.076.076 0 0 1-.026.011.082.082 0 0 1-.027-.001.058.058 0 0 1-.025-.012.055.055 0 0 1-.019-.021.07.07 0 0 1-.009-.053.072.072 0 0 1 .03-.045c.056-.036 1.385-.869 3.756 0l.561.197c2.522.903 7.228 2.582 7.538 5.021a.067.067 0 0 1-.002.028.058.058 0 0 1-.012.025.05.05 0 0 1-.02.018.062.062 0 0 1-.026.009l-.017-.004ZM250.367 121.14h-.013a.071.071 0 0 1-.045-.029.078.078 0 0 1-.011-.054c.533-2.887 3.255-3.203 3.282-3.203a.07.07 0 0 1 .077.063.07.07 0 0 1-.015.052.066.066 0 0 1-.047.026c-.026 0-2.647.309-3.16 3.092a.065.065 0 0 1-.025.039.062.062 0 0 1-.043.014Z"
            opacity=".63" />
        <path fill="#fff"
            d="M265.534 128.077a.078.078 0 0 1-.03-.004.085.085 0 0 1-.025-.017.092.092 0 0 1-.016-.027c-.003-.01-.004-.02-.003-.03 0-.065.388-6.43-2.294-8.446-1.533-1.143-4.687-2.689-6.626-1.935-.768.299-1.261.936-1.456 1.892a.077.077 0 0 1-.03.045.077.077 0 0 1-.053.011.075.075 0 0 1-.044-.032.073.073 0 0 1-.01-.054c.208-1 .727-1.678 1.541-2.001 1.993-.775 5.203.786 6.759 1.952 2.744 2.058 2.368 8.306 2.351 8.573a.07.07 0 0 1-.064.073Z"
            opacity=".63" />
    </g>
    <path fill="#FCC4AC"
        d="M265.393 141.772a11.781 11.781 0 0 1-2.834 1.176l-.246.061c-5.476 1.325-9.997-1.953-9.997-1.953.159-.406.453-2.464.677-4.174v-.04c.17-1.294.299-2.38.299-2.38l9.711-3.191.181-.06c-.012.316-.022.623-.026.922-.114 7.404 2.235 9.639 2.235 9.639Z" />
    <path fill="#FE7D6B"
        d="M263.012 131.27c-3.257 6.944-9.024 5.858-10.016 5.611v-.04c.17-1.295.299-2.381.299-2.381l9.717-3.19Z"
        opacity=".49" />
    <path fill="#FCC4AC"
        d="M257.335 119.359s-6.561-.383-6.749 3.822c-.188 4.205-.938 12.431 5.811 11.661 0 0 5.25 0 7.313-4.397-.066-.354 1.822.932 2.952-1.791.299-.726-.092-1.429-.859-1.339-.291.035-.875.358-1.157.646 0 0 .188-9.367-7.311-8.602Z" />
    <path fill="#163259"
        d="M254.668 123.428h-2.243a.138.138 0 0 1-.099-.042.144.144 0 0 1 0-.202.14.14 0 0 1 .099-.041h2.243c.037 0 .072.015.099.041a.144.144 0 0 1 0 .202.14.14 0 0 1-.099.042ZM260.832 123.428h-2.243a.14.14 0 0 1-.099-.042.144.144 0 0 1 0-.202.143.143 0 0 1 .099-.041h2.243c.037 0 .072.015.099.041a.144.144 0 0 1 0 .202.14.14 0 0 1-.099.042Z" />
    <path fill="#fff" d="M255.467 125.628c-.06-.286-1.895-2.348-3.813-.446-.175.205.995 2.607 3.813.446Z" />
    <mask id="c" width="5" height="3" x="251" y="124" maskUnits="userSpaceOnUse" style="mask-type:luminance">
        <path fill="#fff" d="M255.467 125.628c-.06-.286-1.895-2.348-3.813-.446-.175.205.995 2.607 3.813.446Z" />
    </mask>
    <g mask="url(#c)">
        <path fill="#163259"
            d="M253.047 126.807c.756 0 1.368-.561 1.368-1.253 0-.692-.612-1.253-1.368-1.253-.755 0-1.367.561-1.367 1.253 0 .692.612 1.253 1.367 1.253Z" />
    </g>
    <path fill="#fff" d="M261.557 125.628c-.062-.286-1.896-2.348-3.813-.446-.176.205.99 2.607 3.813.446Z" />
    <mask id="d" width="5" height="3" x="257" y="124" maskUnits="userSpaceOnUse" style="mask-type:luminance">
        <path fill="#fff" d="M261.557 125.628c-.062-.286-1.896-2.348-3.813-.446-.176.205.99 2.607 3.813.446Z" />
    </mask>
    <g mask="url(#d)">
        <path fill="#163259"
            d="M258.856 126.807c.755 0 1.368-.561 1.368-1.253 0-.692-.613-1.253-1.368-1.253-.755 0-1.368.561-1.368 1.253 0 .692.613 1.253 1.368 1.253Z" />
    </g>
    <path fill="#FE7D6B" fill-opacity=".55"
        d="M260.11 129.873c.799 0 1.447-.62 1.447-1.385s-.648-1.384-1.447-1.384c-.798 0-1.446.619-1.446 1.384 0 .765.648 1.385 1.446 1.385ZM251.954 129.586c.799 0 1.446-.62 1.446-1.385s-.647-1.385-1.446-1.385c-.799 0-1.446.62-1.446 1.385s.647 1.385 1.446 1.385Z"
        opacity=".49" />
    <path fill="#FCD5C5"
        d="M265.397 141.77c-.118.067-.234.131-.352.194l-2.482.982-.23.09-.017-.029c-2.16-3.622.466-9.987.851-10.876-.119 7.404 2.23 9.639 2.23 9.639Z"
        opacity=".67" />
    <path fill="#FDFDFF"
        d="M260.797 126.884h-3.884a.628.628 0 0 1-.447-.189.652.652 0 0 1-.185-.455v-1.572a.65.65 0 0 1 .186-.455.629.629 0 0 1 .446-.19h3.884a.629.629 0 0 1 .446.19c.118.12.185.284.186.455v1.572a.648.648 0 0 1-.186.455.624.624 0 0 1-.446.189Zm-3.884-2.715a.49.49 0 0 0-.348.147.508.508 0 0 0-.144.355v1.571c0 .133.052.261.144.355a.49.49 0 0 0 .348.147h3.884c.13 0 .255-.053.347-.147a.504.504 0 0 0 .144-.355v-1.571a.504.504 0 0 0-.144-.355.486.486 0 0 0-.347-.147h-3.884ZM254.515 126.884h-3.883a.624.624 0 0 1-.446-.189.65.65 0 0 1-.186-.455v-1.572c0-.171.067-.335.186-.455a.629.629 0 0 1 .446-.19h3.883a.631.631 0 0 1 .447.19.65.65 0 0 1 .185.455v1.572a.647.647 0 0 1-.185.455.624.624 0 0 1-.447.189Zm-3.883-2.715a.494.494 0 0 0-.347.147.51.51 0 0 0-.145.355v1.571c0 .133.052.261.144.355a.488.488 0 0 0 .348.147h3.883a.487.487 0 0 0 .348-.147.508.508 0 0 0 .144-.355v-1.571a.508.508 0 0 0-.144-.355.487.487 0 0 0-.348-.147h-3.883Z" />
    <path fill="#FDFDFF"
        d="M264.634 127.6a.06.06 0 0 1-.042-.014l-3.279-2.502a.067.067 0 0 1-.027-.047.07.07 0 0 1 .111-.069l3.28 2.504a.07.07 0 0 1 .026.047.077.077 0 0 1-.012.053.072.072 0 0 1-.025.021.06.06 0 0 1-.032.007ZM256.35 125.143h-1.401a.073.073 0 0 1-.05-.021.073.073 0 0 1-.02-.051.07.07 0 0 1 .02-.05.073.073 0 0 1 .05-.021h1.401a.07.07 0 0 1 .07.071.073.073 0 0 1-.02.051.071.071 0 0 1-.05.021Z" />
    <path fill="#FFE2B2"
        d="M180.239 172.192a1.444 1.444 0 0 1-.033-.647 1.414 1.414 0 0 1 .742-1.008c.192-.098.403-.148.618-.148h52.531a3.54 3.54 0 0 1 2.152.731 3.66 3.66 0 0 1 1.29 1.902l9.669 33.95a3.706 3.706 0 0 1-.574 3.213 3.603 3.603 0 0 1-1.264 1.074 3.535 3.535 0 0 1-1.602.385h-49.595a3.534 3.534 0 0 1-2.15-.729 3.655 3.655 0 0 1-1.291-1.897l-10.493-36.826Z" />
    <path fill="#FFF6E6"
        d="M180.237 172.192c-.246-.902.39-1.803 1.274-1.803h50.391c.757.01 1.49.273 2.086.749a3.524 3.524 0 0 1 1.214 1.884l9.283 33.95c.639 2.337-1.012 4.672-3.301 4.672h-47.579a3.425 3.425 0 0 1-2.085-.746 3.544 3.544 0 0 1-1.217-1.88l-10.066-36.826Z" />
    <path fill="#FCC4AC"
        d="m301.617 170.346-16.274 1.091-.332 21.377-37.468.596.184 11.75c3.87.504 30.394 10.671 48.514 7.467a9.502 9.502 0 0 0 5.957-3.709 9.854 9.854 0 0 0 1.88-6.855l-2.461-31.717Z" />
    <mask id="e" width="58" height="44" x="247" y="170" maskUnits="userSpaceOnUse" style="mask-type:luminance">
        <path fill="#fff"
            d="m301.613 170.346-16.274 1.091-.332 21.377-37.468.596.184 11.75c3.87.504 30.394 10.671 48.514 7.467a9.507 9.507 0 0 0 5.958-3.709 9.858 9.858 0 0 0 1.879-6.855l-2.461-31.717Z" />
    </mask>
    <g mask="url(#e)">
        <path fill="#FE7D6B" d="M284.97 192.886s8.141 1.524 9.852 3.758c0 0-4.427-6.264-10.4-8.208l.548 4.45Z"
            opacity=".49" />
        <path fill="#FE8F7F" d="M293.626 212.985s17.135.285 9.97-17.13c0 0-12.495 6.81-9.97 17.13Z" opacity=".49" />
    </g>
    <path fill="#FCC4AC"
        d="M249.537 193.501s-7.372-.107-8.674.22c-1.302.327-10.125 6.52-10.125 6.52s-1.623 2.926 7.755-.874c0 0-7.127 3.493-9.001 5.778-1.874 2.285 3.887.21 3.887.21s-5.325 3.888.421 3.001l4.054-1.865s-3.307 4.572.996 2.356c4.304-2.216 6.933-4.612 10.068-3.399l.619-11.947Z" />
    <path fill="#ED9B09" d="m237.954 167.057 1.28-10.692-4.343 10.302 3.063.39Z" opacity=".76" />
    <mask id="f" width="61" height="63" x="157" y="64" maskUnits="userSpaceOnUse" style="mask-type:luminance">
        <path fill="#fff"
            d="M187.066 126.056C170.461 126.056 157 112.331 157 95.4c0-16.93 13.461-30.656 30.066-30.656 16.606 0 30.067 13.725 30.067 30.656 0 16.931-13.461 30.656-30.067 30.656Z" />
    </mask>
    <g mask="url(#f)">
        <path fill="#FDFDFF"
            d="M178.82 89.85s-2.453-9.676 2.591-15.514c5.044-5.837 7.266-2.792 11.22-2.792 4.155 0 8.276 10.147 1.187 19.043l-14.998-.737Z" />
        <path fill="#357DED"
            d="M181.683 96.849s-14.043 5.978-14.865 7.09c-.823 1.112-7.361 25.3-7.361 25.3h58.082l-3.006-21.877a9.103 9.103 0 0 0-2.133-4.733 8.823 8.823 0 0 0-4.344-2.741l-13.703-3.734-12.67.695Z" />
        <mask id="g" width="59" height="34" x="159" y="96" maskUnits="userSpaceOnUse" style="mask-type:luminance">
            <path fill="#fff"
                d="M181.683 96.85s-14.043 5.979-14.865 7.091c-.823 1.112-7.361 25.299-7.361 25.299h58.082l-3.006-21.876a9.103 9.103 0 0 0-2.133-4.733 8.824 8.824 0 0 0-4.344-2.741l-13.703-3.734-12.67.695Z" />
        </mask>
        <g fill="#FDFDFF" mask="url(#g)">
            <path
                d="M158.367 109.712c2.63 0 3.967-.56 5.26-1.094 1.293-.534 2.596-1.094 5.185-1.094 2.589 0 3.916.547 5.185 1.094 1.27.547 2.63 1.094 5.261 1.094 2.63 0 3.967-.56 5.26-1.094 1.293-.534 2.596-1.094 5.185-1.094 2.589 0 3.916.547 5.185 1.094 1.27.547 2.628 1.094 5.26 1.094 2.632 0 3.968-.56 5.261-1.094 1.292-.534 2.596-1.094 5.185-1.094 2.589 0 3.915.547 5.185 1.094 1.269.547 2.63 1.094 5.26 1.094v-.183c-2.596 0-3.916-.546-5.185-1.093-1.27-.547-2.63-1.094-5.26-1.094s-3.968.559-5.261 1.094c-1.292.534-2.597 1.093-5.185 1.093-2.587 0-3.915-.546-5.185-1.093-1.269-.547-2.63-1.094-5.26-1.094s-3.968.559-5.26 1.094c-1.293.534-2.596 1.093-5.185 1.093-2.589 0-3.916-.546-5.186-1.093-1.269-.547-2.628-1.094-5.26-1.094-2.632 0-3.966.559-5.258 1.094-1.293.534-2.598 1.093-5.185 1.093l-.002.183ZM158.636 102.763c2.632 0 3.968-.56 5.261-1.094 1.292-.534 2.596-1.094 5.185-1.094 2.589 0 3.915.547 5.185 1.094 1.269.547 2.628 1.094 5.258 1.094s3.968-.56 5.261-1.094c1.292-.534 2.598-1.094 5.185-1.094 2.587 0 3.915.547 5.185 1.094 1.269.547 2.63 1.094 5.26 1.094s3.968-.56 5.26-1.094c1.293-.534 2.598-1.094 5.185-1.094 2.588 0 3.916.547 5.186 1.094 1.269.547 2.63 1.094 5.262 1.094v-.183c-2.597 0-3.916-.547-5.186-1.094-1.269-.547-2.628-1.093-5.26-1.093-2.632 0-3.967.559-5.26 1.093-1.293.535-2.596 1.094-5.185 1.094-2.589 0-3.916-.547-5.185-1.094-1.27-.547-2.629-1.093-5.26-1.093-2.632 0-3.968.559-5.261 1.093-1.292.535-2.596 1.094-5.185 1.094-2.589 0-3.914-.547-5.185-1.094-1.271-.547-2.63-1.093-5.26-1.093s-3.968.559-5.26 1.093c-1.293.535-2.597 1.094-5.186 1.094v.183ZM157.824 119.444c2.63 0 3.967-.56 5.26-1.094 1.293-.534 2.596-1.093 5.185-1.093 2.589 0 3.916.546 5.185 1.093 1.27.547 2.631 1.094 5.261 1.094 2.63 0 3.967-.56 5.26-1.094 1.293-.534 2.596-1.093 5.185-1.093 2.589 0 3.916.546 5.185 1.093 1.27.547 2.628 1.094 5.26 1.094 2.632 0 3.968-.56 5.261-1.094 1.292-.534 2.596-1.093 5.185-1.093 2.589 0 3.915.546 5.185 1.093 1.269.547 2.63 1.094 5.26 1.094v-.182c-2.596 0-3.916-.547-5.185-1.094-1.27-.547-2.63-1.094-5.26-1.094s-3.968.56-5.26 1.094c-1.293.534-2.598 1.094-5.186 1.094-2.587 0-3.915-.547-5.185-1.094-1.269-.547-2.63-1.094-5.26-1.094s-3.968.56-5.26 1.094c-1.293.534-2.598 1.094-5.185 1.094-2.588 0-3.916-.547-5.185-1.094-1.27-.547-2.629-1.094-5.261-1.094s-3.965.56-5.258 1.094c-1.293.534-2.598 1.094-5.185 1.094l-.002.182ZM157.005 127.511c2.63 0 3.968-.56 5.261-1.094 1.292-.534 2.596-1.094 5.185-1.094 2.589 0 3.915.547 5.185 1.094 1.269.547 2.628 1.094 5.258 1.094s3.968-.56 5.261-1.094c1.292-.534 2.597-1.094 5.185-1.094 2.587 0 3.915.547 5.185 1.094 1.269.547 2.63 1.094 5.26 1.094s3.968-.56 5.26-1.094c1.293-.534 2.598-1.094 5.185-1.094 2.588 0 3.916.547 5.186 1.094 1.269.547 2.628 1.094 5.26 1.094v-.183c-2.596 0-3.916-.547-5.194-1.094-1.279-.546-2.629-1.093-5.261-1.093-2.631 0-3.967.559-5.26 1.093-1.292.535-2.596 1.094-5.185 1.094-2.589 0-3.916-.547-5.185-1.094-1.269-.546-2.628-1.093-5.26-1.093-2.632 0-3.968.559-5.26 1.093-1.293.535-2.597 1.094-5.186 1.094s-3.913-.547-5.185-1.094c-1.271-.546-2.63-1.093-5.26-1.093s-3.968.559-5.26 1.093c-1.293.535-2.596 1.094-5.185 1.094l.01.183Z" />
        </g>
        <path fill="#FCC4AC"
            d="M193.412 89.762s.125 1.054.29 2.31c.218 1.665.506 3.688.661 4.084 0 0-6.134 4.448-12.678.694 0 0 2.58-4.984 2.251-12.88l9.476 5.792Z" />
        <path fill="#FE7D6B" d="M193.82 92.07s-6.699-.319-10.157-7.773l10.157 3.106v4.667Z" opacity=".78" />
        <path fill="#FCC4AC"
            d="M183.941 81.022c.983.104-.275-5.412 5.702-5.91.526-.117 6.615-.795 6.544 3.706-.064 3.829.297 9.236-4.384 10.88a2.754 2.754 0 0 1-1.921-.056c-1.582-.63-4.748-2.223-6.216-5.351.064-.343-.894.972-1.967-1.67-.009.006-.894-5.039 2.242-1.599Z" />
        <path fill="#FDFDFF"
            d="M193.281 79.747h2.146c.047 0 .093-.019.126-.053a.182.182 0 0 0 .052-.129.182.182 0 0 0-.052-.129.176.176 0 0 0-.126-.053h-2.146a.183.183 0 0 0 0 .365ZM187.739 79.747h2.324c.048 0 .093-.019.127-.053a.186.186 0 0 0 0-.258.178.178 0 0 0-.127-.053h-2.324a.183.183 0 0 0 0 .365Z" />
        <path fill="#fff" d="M191.989 81.205c.059-.28 1.838-2.275 3.698-.432.169.19-.964 2.52-3.698.432Z" />
        <mask id="h" width="5" height="3" x="191" y="80" maskUnits="userSpaceOnUse" style="mask-type:luminance">
            <path fill="#fff" d="M191.981 81.207c.059-.28 1.838-2.275 3.698-.432.17.19-.964 2.52-3.698.432Z" />
        </mask>
        <g mask="url(#h)">
            <path fill="#071B40"
                d="M194.324 82.344c-.732 0-1.325-.544-1.325-1.216 0-.671.593-1.216 1.325-1.216.731 0 1.324.544 1.324 1.216 0 .672-.593 1.216-1.324 1.216Z" />
        </g>
        <path fill="#fff" d="M186.356 81.205c.059-.28 1.838-2.275 3.698-.432.17.19-.966 2.52-3.698.432Z" />
        <mask id="i" width="5" height="3" x="186" y="80" maskUnits="userSpaceOnUse" style="mask-type:luminance">
            <path fill="#fff" d="M186.368 81.207c.059-.28 1.838-2.275 3.698-.432.169.19-.966 2.52-3.698.432Z" />
        </mask>
        <g mask="url(#i)">
            <path fill="#071B40"
                d="M188.984 82.344c-.732 0-1.325-.544-1.325-1.216 0-.671.593-1.216 1.325-1.216.731 0 1.325.544 1.325 1.216 0 .672-.594 1.216-1.325 1.216Z" />
        </g>
        <path fill="#FE7D6B" fill-opacity=".78"
            d="M187.497 85.31c-.775 0-1.402-.6-1.402-1.341s.627-1.342 1.402-1.342c.774 0 1.401.6 1.401 1.342 0 .74-.627 1.341-1.401 1.341ZM194.575 85.31c-.774 0-1.402-.6-1.402-1.341s.628-1.342 1.402-1.342c.774 0 1.402.6 1.402 1.342 0 .74-.628 1.341-1.402 1.341Z"
            opacity=".49" />
        <path fill="#FDFDFF" d="M191.871 75.006s-.917 5.901-7.942 6.016c0 0 1.368-9.219 7.942-6.016Z" />
        <path fill="#275BAD"
            d="M173.083 115.295h.179v13.855h-.179v-13.855ZM204.188 115.295h.179v13.855h-.179v-13.855Z" />
    </g>
    <path stroke="#FC74AF" stroke-miterlimit="10" stroke-width="1.6"
        d="M186.5 125.028c17.397 0 31.5-14.41 31.5-32.186s-14.103-32.186-31.5-32.186S155 75.066 155 92.842s14.103 32.186 31.5 32.186Z" />
    <path fill="#FE7D6B"
        d="M265.859 128.932a.573.573 0 0 1-.528-.258.819.819 0 0 1 0-.756.055.055 0 0 1 .018-.022.07.07 0 0 1 .024-.013.082.082 0 0 1 .027-.002.082.082 0 0 1 .026.01.07.07 0 0 1 .025.098.682.682 0 0 0 0 .609c.086.143.244.203.47.188a.068.068 0 0 1 .051.018.07.07 0 0 1 .024.049.07.07 0 0 1-.065.076l-.072.003Z" />
    <path fill="#FE7D6B"
        d="M264.637 129.929a.066.066 0 0 1-.028 0 .064.064 0 0 1-.026-.01.076.076 0 0 1-.031-.046.07.07 0 0 1 0-.029.082.082 0 0 1 .01-.026.1.1 0 0 1 .02-.021.076.076 0 0 1 .026-.011c.016 0 1.709-.804 1.578-1.974a.072.072 0 0 1 .015-.053.07.07 0 0 1 .098-.011.068.068 0 0 1 .017.021.065.065 0 0 1 .008.027c.141 1.273-1.585 2.087-1.659 2.122a.057.057 0 0 1-.028.011ZM297.74 85.622h-.01c-.578-.08-.585-1.032-.585-1.072a.07.07 0 0 1 .119-.05.073.073 0 0 1 .021.05c0 .008 0 .867.465.929a.07.07 0 0 1 .046.028.068.068 0 0 1 .014.053.07.07 0 0 1-.024.044.07.07 0 0 1-.046.018Z" />
    <path fill="#FE7D6B"
        d="M297.07 86.585a.067.067 0 0 1-.049-.02.07.07 0 0 1-.021-.051.07.07 0 0 1 .021-.05.067.067 0 0 1 .049-.022c.642 0 .755-.96.823-1.534l.018-.154a.402.402 0 0 0 .002-.18.409.409 0 0 0-.072-.163.363.363 0 0 0-.245-.112.07.07 0 0 1-.07-.071.07.07 0 0 1 .07-.072.492.492 0 0 1 .35.16.558.558 0 0 1 .105.457c0 .046-.013.098-.02.152-.067.58-.194 1.66-.961 1.66Z" />
</svg>