<svg xmlns="http://www.w3.org/2000/svg" width="498" height="491" fill="none">
    <path fill="#fff" stroke="#000" stroke-miterlimit="10"
        d="M392.785 167.13s7.343 3.09 10.752 4.512c3.408 1.421 28.957 8.353 33.797 13.555.3.313.62.605.958.875 8.105 6.366 9.351 20.724-7.023 22.774a17.97 17.97 0 0 0-3.295.741c-19.69 5.913-61.788-12.782-70.799-21.836-9.268-9.27 19.288-30.066 19.288-30.066l16.322 9.445Z" />
    <path stroke="#22344E" stroke-miterlimit="10"
        d="m417.037 188.688 6.962 4.306s3.985 2.461 1.637 6.262l-.237.381a5.37 5.37 0 0 1-3.387 2.273 5.37 5.37 0 0 1-4.007-.759l-6.498-4.614" />
    <path stroke="#000" stroke-miterlimit="10" d="m404.072 173.135-10.092 33.754" />
    <path fill="#fff"
        d="m417.037 188.688 6.962 4.306s3.985 2.461 1.637 6.262l-.237.381a5.37 5.37 0 0 1-3.387 2.273 5.37 5.37 0 0 1-4.007-.759l-6.498-4.614" />
    <path fill="#fff" stroke="#000" stroke-miterlimit="10"
        d="M323.089 288.394s5.726-39.872 20.421-52.624c14.695-12.751 35.24-24.092 54.888-19.508 19.649 4.583 65.289 27.81 68.42 56.135 3.13 28.326-26.569 34.66-26.569 34.66s-17.589 1.401-26.682-9.27-9.526-13.318-9.526-13.318l-80.952 3.925Z" />
    <path stroke="#74B7F5" stroke-linecap="round" stroke-linejoin="round" stroke-width="2"
        d="m403.31 325.454 11.493-10.074-4.119-14.42 11.482-10.043" />
    <path fill="#74B7F5" d="m497.99 239.767-18.928-6.232-22.274 67.919 18.937 6.18 22.265-67.867Z" />
    <path stroke="#74B7F5" stroke-linecap="round" stroke-linejoin="round" stroke-width="2"
        d="m411.178 325.536 11.791-9.734-3.759-14.605 11.771-9.693" />
    <path fill="#fff"
        d="M357.515 47.216h.515V46.7c0-12.247-2.987-23.845-8.444-32.6C343.891 5.047 336.291 0 327.96 0c-8.331 0-16.014 5.047-21.626 14.111-5.52 8.755-8.506 20.353-8.506 32.6v.515h4.665v-.515c0-11.67 2.883-22.207 7.507-29.87 4.624-7.664 10.988-12.227 17.919-12.227 6.93 0 13.294 4.605 17.949 12.227 4.655 7.622 7.538 18.148 7.538 29.87v.515h4.119l-.01-.01Z" />
    <path fill="#fff" stroke="#000" stroke-miterlimit="10"
        d="M359.822 203.49s45.064 94.133 17.115 174.165c-13.614 24.72-37.145 16.48-37.145 16.48s-22.316-8.395-22.274-29.119c.041-20.724 11.163-61.636-2.132-102.764-13.295-41.129-24.633-59.926-24.633-59.926l69.069 1.164Z" />
    <path stroke="#74B7F5" stroke-linecap="round" stroke-linejoin="round" stroke-width="2"
        d="m303.605 347.558 10.679 10.928 14.242-4.975 10.648 10.918" />
    <path stroke="#74B7F5" stroke-linecap="round" stroke-linejoin="round" stroke-width="2"
        d="m304.274 340.121 11.009 10.609 14.067-5.346 10.967 10.589" />
    <path fill="#fff"
        d="M360.779 77.54c4.037-1.34 3.203-14.699-1.843-29.871-5.046-15.172-12.43-26.296-16.477-24.957-4.047 1.339-3.202 14.698 1.854 29.87s12.44 26.338 16.466 24.957Z" />
    <path fill="#22344E"
        d="M345.703 52.14a151.021 151.021 0 0 0 5.51 14.347 48.883 48.883 0 0 0 3.758 6.726 16.21 16.21 0 0 0 2.482 2.843c.451.417.961.764 1.514 1.03a2.06 2.06 0 0 0 2.976-.968 6.47 6.47 0 0 0 .67-1.751c.291-1.253.432-2.535.422-3.821a41.91 41.91 0 0 0-.67-7.746 78.637 78.637 0 0 0-1.637-7.57c-.669-2.483-1.39-4.965-2.245-7.448-.855-2.482-1.689-4.903-2.667-7.323-.979-2.42-2.06-4.79-3.203-7.087a46.987 46.987 0 0 0-4.119-6.602 15.915 15.915 0 0 0-2.667-2.781 7.219 7.219 0 0 0-1.638-.968 2.458 2.458 0 0 0-1.75-.124 2.51 2.51 0 0 0-1.277 1.216c-.29.55-.495 1.14-.608 1.75a16.226 16.226 0 0 0-.237 3.812c.166 2.565.51 5.115 1.03 7.632 1.256 5.037 2.78 9.94 4.356 14.832Zm-2.729.906a74.415 74.415 0 0 1-3.336-15.45 58.166 58.166 0 0 1-.237-7.942c.043-1.33.244-2.651.597-3.935a7.65 7.65 0 0 1 .793-1.874 2.77 2.77 0 0 1 1.576-1.329 2.973 2.973 0 0 1 2.059.175c.6.31 1.169.675 1.699 1.092a15.854 15.854 0 0 1 2.667 2.905 47.221 47.221 0 0 1 4.181 6.602 88.708 88.708 0 0 1 6.179 14.348 86.085 86.085 0 0 1 3.697 15.203 48.49 48.49 0 0 1 .608 7.808 17.65 17.65 0 0 1-.422 3.934 10.067 10.067 0 0 1-.67 1.875 2.842 2.842 0 0 1-1.514 1.4 3.242 3.242 0 0 1-2.121-.123 6.55 6.55 0 0 1-1.761-1.03 24.28 24.28 0 0 1-2.842-2.791 54.59 54.59 0 0 1-4.613-6.479 80.83 80.83 0 0 1-6.54-14.379v-.01Z" />
    <path fill="#22344E"
        d="M359.399 48.431c.155-1.03-3.243-2.38-7.579-3.018-4.335-.638-7.981-.33-8.125.7-.144 1.03 3.234 2.38 7.579 3.019 4.346.638 7.971.319 8.125-.7Z" />
    <path fill="#fff"
        d="M349.503 79.538c4.037-1.34 3.203-14.699-1.853-29.87-5.057-15.173-12.42-26.297-16.477-24.958-4.057 1.339-3.203 14.698 1.854 29.87 5.056 15.172 12.45 26.307 16.476 24.958Z" />
    <path fill="#22344E"
        d="M334.427 54.2a152.021 152.021 0 0 0 5.52 14.347 48.845 48.845 0 0 0 3.748 6.726 15.824 15.824 0 0 0 2.492 2.843c.449.42.96.767 1.514 1.03a2.398 2.398 0 0 0 1.699.186 2.338 2.338 0 0 0 1.267-1.154 6.181 6.181 0 0 0 .669-1.751c.291-1.253.433-2.535.422-3.821a40.974 40.974 0 0 0-.669-7.746 81.734 81.734 0 0 0-1.627-7.57 113.9 113.9 0 0 0-2.245-7.448c-.845-2.482-1.699-4.903-2.667-7.323a91.964 91.964 0 0 0-3.213-7.087 46.97 46.97 0 0 0-4.119-6.602 16.72 16.72 0 0 0-2.667-2.781 7.219 7.219 0 0 0-1.638-.968 2.49 2.49 0 0 0-1.761-.124 2.459 2.459 0 0 0-1.266 1.216 5.885 5.885 0 0 0-.608 1.75 15.609 15.609 0 0 0-.247 3.812c.166 2.565.51 5.115 1.03 7.632 1.276 4.975 2.79 9.878 4.366 14.832Zm-2.729.906a73.867 73.867 0 0 1-3.326-15.45 48.407 48.407 0 0 1-.186-7.932c.047-1.33.251-2.651.608-3.934.171-.659.435-1.29.783-1.875.337-.627.9-1.102 1.575-1.329a2.977 2.977 0 0 1 2.06.176c.6.308 1.169.674 1.699 1.091a15.517 15.517 0 0 1 2.667 2.905 47.227 47.227 0 0 1 4.181 6.602 87.865 87.865 0 0 1 6.179 14.348 86.175 86.175 0 0 1 3.697 15.203c.417 2.582.621 5.193.607 7.808a17.02 17.02 0 0 1-.422 3.935 9.663 9.663 0 0 1-.669 1.874 2.794 2.794 0 0 1-1.514 1.39 3.18 3.18 0 0 1-2.121-.113 6.467 6.467 0 0 1-1.751-1.03 25.273 25.273 0 0 1-2.853-2.79 53.374 53.374 0 0 1-4.603-6.48 77.05 77.05 0 0 1-6.611-14.45v.05Z" />
    <path fill="#22344E"
        d="M348.113 50.45c.154-1.03-3.244-2.38-7.58-3.018-4.335-.638-7.98-.33-8.125.7-.144 1.03 3.244 2.37 7.58 3.019 4.335.648 7.97.319 8.125-.7ZM309.393 65.777l23.149-9.57-1.997-4.778-23.15 9.558a2.597 2.597 0 0 0 .041 4.758 2.597 2.597 0 0 0 1.957.032Z" />
    <path fill="#0B1B32" stroke="#fff"
        d="M391.709 231.469h-.001l-84.226 24.565a16.283 16.283 0 0 1-12.458-1.424 16.305 16.305 0 0 1-7.764-9.848l-.001-.001-25.013-90.299a16.24 16.24 0 0 1 11.14-19.905l84.227-24.504.003-.001a16.2 16.2 0 0 1 12.468 1.368 16.197 16.197 0 0 1 7.751 9.863v.001l25.013 90.28a16.235 16.235 0 0 1-11.139 19.905Z" />
    <path fill="#fff" stroke="#0C0801" stroke-miterlimit="10"
        d="M319.526 177.09a23.065 23.065 0 0 0 13.572-6.983c3.563-3.811 6.323-9.219 3.955-15.914-4.912-14.132-19.01-13.122-19.01-13.122s-33.438 5.572-49.369 22.269c-15.931 16.696-19.288 29.963-19.288 29.963s-7.435 19.714-5.561 33.733c1.874 14.018 3.265 31.528 22.481 42.477 18.989 4.522 21.625-11.258 14.489-13.967.175-23.268-5.087-53.303 18.598-69.937a44.854 44.854 0 0 1 20.133-8.519Z" />
    <path stroke="#0C0801" stroke-miterlimit="10" stroke-width="1.02" d="m280.466 227.633-36.445.628" />
    <path fill="#112A49"
        d="M308.363 79.764c10.112 0 18.309-8.539 18.309-19.076s-8.238-19.076-18.309-19.076c-10.072 0-18.3 8.54-18.3 19.076 0 10.537 8.197 19.076 18.3 19.076Z" />
    <path fill="#fff"
        d="M310.669 48.699c.898.367 1.751.833 2.544 1.39a16.66 16.66 0 0 1 2.245 1.824 16.282 16.282 0 0 1 3.512 4.779c.451.92.776 1.898.968 2.905.122.495.184 1.003.185 1.514v1.514a10.387 10.387 0 0 1-2.059 5.51l-.546-.298c.582-1.695.847-3.483.782-5.274a12 12 0 0 0-1.328-4.965 23.226 23.226 0 0 0-2.915-4.418c-1.153-1.39-2.419-2.73-3.758-4.059l.37-.422Z" />
    <path fill="#FFB300"
        d="M390.582 426.179h-.577c-1.133 0-124.605-.433-204.188 0h-1.843c-79.295 0-95.215-28.068-96.801-31.292-1.37-2.823-.7-6.52 1.513-8.24 2.214-1.721 5.015-.907 6.406 1.823.401.69 15.714 26.183 90.622 25.75 79.655-.433 203.117 0 204.353 0 .381 0 26.291.443 38.36-20.744 1.524-2.678 4.459-3.276 6.56-1.319a7.141 7.141 0 0 1 1.03 8.384c-14.016 24.607-41.069 25.638-45.435 25.638ZM172.14 463.95c2.863-14.678-2.278-28.034-11.483-29.83-9.204-1.796-18.988 8.647-21.851 23.325-2.863 14.679 2.278 28.035 11.483 29.831 9.205 1.796 18.988-8.647 21.851-23.326Z" />
    <path fill="#fff"
        d="M153.883 476.134a6.54 6.54 0 0 1-3.09-.762c-5.056-2.616-7.074-11.33-4.51-19.416 2.564-8.085 8.764-12.556 13.82-9.939 2.513 1.297 4.346 4.12 5.149 7.859a22.67 22.67 0 0 1-.669 11.556 17.68 17.68 0 0 1-5.819 8.9 8.303 8.303 0 0 1-4.881 1.802Zm3.161-27.45c-3.192 0-6.601 3.369-8.238 8.56-2.008 6.345-.659 13.05 3.028 14.956 1.719.885 3.717.597 5.622-.835a14.293 14.293 0 0 0 4.696-7.21 18.449 18.449 0 0 0 .567-9.342c-.598-2.73-1.875-4.718-3.594-5.603a4.364 4.364 0 0 0-2.081-.515v-.011Z" />
    <path fill="#FFB300"
        d="M360.696 459.972c3.954-13.174.594-25.826-7.506-28.258-8.101-2.432-17.872 6.276-21.827 19.45-3.954 13.174-.593 25.826 7.507 28.258 8.1 2.432 17.872-6.276 21.826-19.45Z" />
    <path fill="#fff"
        d="M341.934 469.419a6.356 6.356 0 0 1-2.43-1.638c-3.739-3.945-3.79-12.577-.114-19.241 3.677-6.664 9.722-8.879 13.47-4.934 1.854 1.957 2.873 5.089 2.853 8.807a22.184 22.184 0 0 1-2.74 10.434 13.651 13.651 0 0 1-6.57 6.407 6.241 6.241 0 0 1-4.469.165Zm7.837-24.288c-2.678-1.03-6.179 1.03-8.537 5.346-2.884 5.222-3.007 11.814-.278 14.688a4.259 4.259 0 0 0 4.881.958 11.218 11.218 0 0 0 5.293-5.212 17.937 17.937 0 0 0 2.235-8.436 8.95 8.95 0 0 0-1.957-6.252 4.11 4.11 0 0 0-1.637-1.092Z" />
    <path fill="#74B7F5" d="M305.047 413.602h80.787v-21.187h-80.787v21.187Z" />
    <path fill="#fff" stroke="#000" stroke-miterlimit="10"
        d="M141.484 160.94s-7.672 2.152-11.235 3.09c-3.563.937-29.792 4.604-35.25 9.136-.328.271-.672.522-1.03.752-8.856 5.273-11.925 19.364 4.057 23.484 1.095.284 2.16.67 3.183 1.154 18.762 8.374 62.91-4.79 72.991-12.628 10.35-8.014-15.292-32.281-15.292-32.281l-17.424 7.293Z" />
    <path fill="#fff"
        d="m114.679 179.233-7.456 3.388s-4.264 1.927-2.42 5.995l.185.412a5.372 5.372 0 0 0 7.147 2.441l7.033-3.749" />
    <path stroke="#22344E" stroke-miterlimit="10"
        d="m114.679 179.233-7.456 3.388s-4.264 1.927-2.42 5.995l.185.412a5.372 5.372 0 0 0 7.147 2.441l7.033-3.749" />
    <path stroke="#000" stroke-miterlimit="10" d="m135.192 162.351 5.715 34.773" />
    <path fill="#fff" stroke="#000" stroke-miterlimit="10"
        d="M178.371 204.324s-45.064 94.133-17.105 174.165c13.604 24.72 37.135 16.48 37.135 16.48s22.326-8.384 22.285-29.108c-.042-20.724-11.174-61.636 2.131-102.765 13.305-41.128 24.623-59.915 24.623-59.915l-69.069 1.143Z" />
    <path stroke="#74B7F5" stroke-linecap="round" stroke-linejoin="round" stroke-width="2"
        d="m234.598 348.382-10.689 10.938-14.242-4.985-10.628 10.929" />
    <path stroke="#74B7F5" stroke-linecap="round" stroke-linejoin="round" stroke-width="2"
        d="m233.929 340.955-11.009 10.599-14.067-5.335-10.967 10.588" />
    <path fill="#74B7F5" d="M233.146 414.436h-80.787v-21.187h80.787v21.187Z" />
    <path fill="#fff" stroke="#000" stroke-miterlimit="10"
        d="M200.955 191.057s-104.34-.401-164.675 59.144c-16.477 22.897 1.03 40.634 1.03 40.634s17.136 16.583 35.847 7.663c18.711-8.92 50.893-36.493 93.712-42.086 42.819-5.593 64.692-3.42 64.692-3.42l-30.606-61.935Z" />
    <path stroke="#74B7F5" stroke-linecap="round" stroke-linejoin="round" stroke-width="2"
        d="m94.896 303.586-14.417-4.975-1.597-15.007-14.417-4.934" />
    <path stroke="#74B7F5" stroke-linecap="round" stroke-linejoin="round" stroke-width="2"
        d="m101.322 299.796-14.294-5.408-1.205-15.007-14.262-5.366" />
    <path fill="#74B7F5" d="M34.601 330.573 0 257.555l19.144-9.074 34.601 73.007-19.144 9.085Z" />
    <path fill="#74B7F5" stroke="#22344E"
        d="M180.678 48.02h-.515v-.516c0-12.247 2.987-23.855 8.445-32.61 5.694-9.054 13.294-14.1 21.625-14.1s16.014 5.046 21.626 14.1c5.51 8.755 8.496 20.363 8.496 32.61v.515h-4.665v-.515c0-11.67-2.873-22.217-7.507-29.87-4.634-7.653-10.978-12.226-17.919-12.226-6.941 0-13.295 4.604-17.949 12.226-4.655 7.622-7.538 18.159-7.538 29.87v.515h-4.12.021Z" />
    <path fill="#fff"
        d="M177.414 78.374c-4.027-1.35-3.203-14.699 1.853-29.87 5.057-15.173 12.42-26.307 16.477-24.958 4.058 1.35 3.203 14.698-1.853 29.87-5.057 15.173-12.44 26.297-16.477 24.958Z" />
    <path fill="#22344E"
        d="M196.867 38.152a55.568 55.568 0 0 0 1.029-7.633 15.608 15.608 0 0 0-.247-3.81 5.978 5.978 0 0 0-.607-1.762 2.4 2.4 0 0 0-1.267-1.205 2.544 2.544 0 0 0-1.761.113 7.561 7.561 0 0 0-1.637.968 17.21 17.21 0 0 0-2.668 2.792 46.449 46.449 0 0 0-4.119 6.602 91.754 91.754 0 0 0-3.213 7.076c-.968 2.42-1.874 4.852-2.667 7.334-.793 2.482-1.575 4.965-2.245 7.447a82.284 82.284 0 0 0-1.637 7.56 41.93 41.93 0 0 0-.659 7.756 15.67 15.67 0 0 0 .422 3.811c.131.619.356 1.213.669 1.762.259.53.713.94 1.267 1.143.569.153 1.174.09 1.699-.175a6.24 6.24 0 0 0 1.514-1.03 16.183 16.183 0 0 0 2.482-2.853 47.889 47.889 0 0 0 3.759-6.716 152.977 152.977 0 0 0 5.519-14.348c1.576-4.903 3.09-9.806 4.367-14.832ZM188.68 68.3a53.477 53.477 0 0 1-4.603 6.479 25.156 25.156 0 0 1-2.853 2.781 6.175 6.175 0 0 1-1.751 1.03c-.67.29-1.422.335-2.121.124a2.843 2.843 0 0 1-1.524-1.39 9.878 9.878 0 0 1-.659-1.876 17.135 17.135 0 0 1-.433-3.934 50.039 50.039 0 0 1 .608-7.818 92.853 92.853 0 0 1 9.886-29.54 45.814 45.814 0 0 1 4.181-6.603 14.881 14.881 0 0 1 2.667-2.905 10.316 10.316 0 0 1 1.689-1.092 3.088 3.088 0 0 1 2.059-.185 2.89 2.89 0 0 1 1.576 1.339 7.46 7.46 0 0 1 .783 1.875c.352 1.284.556 2.604.607 3.934a56.31 56.31 0 0 1-.247 7.931 74.676 74.676 0 0 1-3.326 15.45 81.208 81.208 0 0 1-6.539 14.4Z" />
    <path fill="#22344E"
        d="M178.793 49.255c-.144-1.03 3.244-2.369 7.59-3.007 4.346-.639 7.971-.33 8.125.7.155 1.03-3.244 2.37-7.579 3.008-4.336.638-7.981.33-8.136-.7Z" />
    <path fill="#fff"
        d="M188.741 80.372c-4.026-1.35-3.202-14.698 1.854-29.87s12.419-26.307 16.477-24.958c4.057 1.35 3.203 14.699-1.854 29.87-5.056 15.173-12.491 26.297-16.477 24.958Z" />
    <path fill="#22344E"
        d="M208.133 40.15a55.416 55.416 0 0 0 1.029-7.633 16.172 16.172 0 0 0-.236-3.81 6.284 6.284 0 0 0-.608-1.762 2.45 2.45 0 0 0-1.277-1.205 2.513 2.513 0 0 0-1.751.113 7.561 7.561 0 0 0-1.637.968 16.716 16.716 0 0 0-2.667 2.792 45.399 45.399 0 0 0-4.12 6.602 91.729 91.729 0 0 0-3.212 7.076c-.968 2.42-1.885 4.852-2.668 7.334-.782 2.483-1.575 4.965-2.245 7.447a78.432 78.432 0 0 0-1.637 7.56 41.933 41.933 0 0 0-.669 7.756 15.627 15.627 0 0 0 .432 3.811 6.1 6.1 0 0 0 .659 1.762 2.11 2.11 0 0 0 2.976.968 6.24 6.24 0 0 0 1.514-1.03 16.623 16.623 0 0 0 2.482-2.853 48.863 48.863 0 0 0 3.759-6.716 150.127 150.127 0 0 0 5.509-14.348c1.586-4.903 3.1-9.806 4.367-14.832Zm-8.239 30.148a56.694 56.694 0 0 1-4.603 6.48 25.156 25.156 0 0 1-2.853 2.78 6.286 6.286 0 0 1-1.761 1.03c-.67.291-1.421.335-2.121.124a2.854 2.854 0 0 1-1.514-1.39 10.652 10.652 0 0 1-.669-1.875 17.65 17.65 0 0 1-.422-3.935 48.731 48.731 0 0 1 .607-7.818 87.188 87.188 0 0 1 3.697-15.193 88.38 88.38 0 0 1 6.179-14.348 46.69 46.69 0 0 1 4.181-6.602 15.22 15.22 0 0 1 2.667-2.905 9.93 9.93 0 0 1 1.699-1.091 2.987 2.987 0 0 1 2.06-.186c.675.232 1.238.71 1.576 1.34a7.02 7.02 0 0 1 .793 1.874c.352 1.284.556 2.604.607 3.934.15 2.645.088 5.297-.185 7.932a74.684 74.684 0 0 1-3.337 15.45 76.617 76.617 0 0 1-6.601 14.4Z" />
    <path fill="#22344E"
        d="M190.08 51.274c-.144-1.03 3.244-2.369 7.579-3.008 4.336-.638 7.981-.33 8.136.69.154 1.02-3.244 2.38-7.58 3.019-4.335.638-7.98.33-8.135-.7ZM228.8 66.56l-23.149-9.57 1.998-4.779 23.149 9.57a2.594 2.594 0 0 1 1.591 2.398 2.591 2.591 0 0 1-3.589 2.38Z" />
    <path fill="#74B7F5"
        d="m229.532 252.24-85.154-21.136a16.739 16.739 0 0 1-12.358-20.034l21.337-91.248a16.715 16.715 0 0 1 13.773-12.733 16.695 16.695 0 0 1 6.587.321l85.154 21.074a16.734 16.734 0 0 1 10.262 7.492 16.744 16.744 0 0 1 2.044 12.542l-21.338 91.249a16.81 16.81 0 0 1-7.563 10.455 16.81 16.81 0 0 1-12.744 2.018Z" />
    <path fill="#fff" stroke="#0C0801" stroke-miterlimit="10"
        d="M219.337 174.577a22.95 22.95 0 0 1-13.573-6.983c-3.563-3.811-6.323-9.271-3.944-15.904 4.902-14.142 19.01-13.132 19.01-13.132s33.437 5.572 49.358 22.279 19.299 29.963 19.299 29.963 7.435 19.704 5.55 33.722c-1.884 14.019-3.264 31.529-22.481 42.488-18.979 4.512-21.625-11.258-14.489-13.977-.175-23.268 5.088-53.303-18.598-69.938a44.864 44.864 0 0 0-20.132-8.518Z" />
    <path stroke="#0C0801" stroke-miterlimit="10" stroke-width="1.02" d="m258.417 225.182 36.445.618" />
    <path fill="#74B7F5"
        d="M229.83 80.588c-10.102 0-18.299-8.538-18.299-19.065 0-10.527 8.238-19.076 18.299-19.076s18.31 8.539 18.31 19.076-8.197 19.065-18.31 19.065Z" />
    <path fill="#fff"
        d="M227.534 49.533c-.898.365-1.752.831-2.544 1.39a17.104 17.104 0 0 0-5.756 6.603 11.486 11.486 0 0 0-1.03 2.905 6.89 6.89 0 0 0-.175 1.514v1.524a10.302 10.302 0 0 0 2.059 5.511l.546-.309a14.6 14.6 0 0 1-.793-5.263 11.83 11.83 0 0 1 1.339-4.965 22.714 22.714 0 0 1 2.904-4.419c1.154-1.4 2.43-2.73 3.759-4.058l-.309-.433Z" />
</svg>