<svg  viewBox="0 0 176 98" fill="none" xmlns="http://www.w3.org/2000/svg">
<path d="M58.7388 40.3046H37.8609C37.4964 40.3046 37.1468 40.1629 36.889 39.9107C36.6312 39.6586 36.4863 39.3166 36.4863 38.96C36.4863 38.6033 36.6312 38.2613 36.889 38.0092C37.1468 37.757 37.4964 37.6154 37.8609 37.6154H57.6964L62.431 21.1308C62.4798 20.9611 62.5623 20.8025 62.6737 20.6641C62.7852 20.5256 62.9235 20.41 63.0806 20.3238C63.2378 20.2376 63.4107 20.1825 63.5896 20.1617C63.7686 20.1409 63.9499 20.1548 64.1234 20.2025C64.2968 20.2503 64.459 20.331 64.6005 20.44C64.7421 20.549 64.8603 20.6843 64.9484 20.838C65.0366 20.9917 65.0928 21.1609 65.1141 21.3359C65.1354 21.5109 65.1212 21.6883 65.0723 21.8579L60.0596 39.3256C59.9783 39.607 59.8053 39.8549 59.567 40.0316C59.3287 40.2083 59.0378 40.3041 58.7388 40.3046Z" fill="#74B7F5"/>
<path d="M27.872 69.4424H19.2461V86.6545H27.872V69.4424Z" fill="#74B7F5"/>
<path d="M13.4275 97.3784C12.2897 97.3809 11.1923 96.9563 10.3511 96.1884C9.50992 95.4204 8.98592 94.3646 8.88224 93.2288C8.77856 92.093 9.10273 90.9595 9.79089 90.0512C10.479 89.143 11.4814 88.5258 12.6007 88.3212C13.7199 88.1165 14.875 88.3393 15.8387 88.9455C16.8024 89.5518 17.5048 90.4977 17.8077 91.5971C18.1107 92.6964 17.9923 93.8697 17.4757 94.8858C16.9591 95.902 16.0817 96.6876 15.0164 97.0879C14.5083 97.2793 13.9702 97.3777 13.4275 97.3784ZM13.4275 91.5055C13.2626 91.5052 13.0989 91.5347 12.9445 91.5927C12.7008 91.6884 12.4907 91.8542 12.3407 92.0692C12.1906 92.2842 12.1073 92.5388 12.1012 92.8011C12.095 93.0635 12.1663 93.3218 12.3061 93.5436C12.4459 93.7654 12.6481 93.9409 12.8871 94.0479C13.126 94.155 13.3911 94.1889 13.6493 94.1454C13.9074 94.1018 14.147 93.9828 14.3379 93.8033C14.5287 93.6237 14.6624 93.3916 14.7222 93.1361C14.7819 92.8807 14.7649 92.6132 14.6735 92.3673C14.576 92.1139 14.4044 91.896 14.1812 91.7422C13.9579 91.5884 13.6935 91.5059 13.4226 91.5055H13.4275Z" fill="#74B7F5"/>
<path d="M33.3922 97.3784C32.2545 97.3809 31.1571 96.9563 30.3159 96.1884C29.4748 95.4204 28.9508 94.3646 28.8471 93.2288C28.7434 92.093 29.0675 90.9595 29.7556 90.0512C30.4438 89.143 31.4461 88.5258 32.5654 88.3212C33.6847 88.1165 34.8399 88.3393 35.8035 88.9455C36.7672 89.5518 37.4696 90.4977 37.7726 91.5971C38.0755 92.6964 37.957 93.8697 37.4404 94.8858C36.9238 95.902 36.0466 96.6876 34.9812 97.0879C34.4732 97.2793 33.9349 97.3777 33.3922 97.3784ZM33.4164 91.5055C33.2515 91.5052 33.0879 91.5347 32.9334 91.5927C32.6897 91.6884 32.4796 91.8542 32.3296 92.0692C32.1795 92.2842 32.0962 92.5388 32.0901 92.8011C32.0839 93.0635 32.1553 93.3218 32.2951 93.5436C32.4349 93.7654 32.637 93.9409 32.876 94.0479C33.1149 94.155 33.3802 94.1889 33.6383 94.1454C33.8964 94.1018 34.1359 93.9828 34.3268 93.8033C34.5177 93.6237 34.6513 93.3916 34.7111 93.1361C34.7708 92.8807 34.7539 92.6132 34.6625 92.3673C34.6026 92.2031 34.51 92.0528 34.3905 91.9255C34.2709 91.7981 34.1269 91.6965 33.967 91.6266C33.7944 91.5466 33.6065 91.5053 33.4164 91.5055Z" fill="#74B7F5"/>
<path d="M23.5213 90.0576C23.0982 90.0564 22.6928 89.8869 22.3941 89.5865C22.0953 89.2861 21.9275 88.8792 21.9275 88.4551V55.7739L14.0695 59.2938C13.6957 59.4119 13.2917 59.3882 12.9342 59.2273C12.5766 59.0664 12.2905 58.7794 12.1301 58.4209C11.9698 58.0624 11.9464 57.6574 12.0644 57.2827C12.1825 56.9081 12.4336 56.59 12.7703 56.3888L22.8741 51.8618C23.1165 51.7542 23.3818 51.7088 23.6461 51.7295C23.9103 51.7502 24.1654 51.8365 24.3881 51.9805C24.6108 52.1246 24.7942 52.3219 24.922 52.5548C25.0498 52.7876 25.1179 53.0486 25.12 53.3143V88.4647C25.1174 88.8881 24.9479 89.2932 24.6483 89.5917C24.3488 89.8901 23.9436 90.0576 23.5213 90.0576Z" fill="#74B7F5"/>
<path d="M32.07 90.0143H14.9775C14.7605 90.0262 14.5433 89.9937 14.3393 89.9187C14.1352 89.8437 13.9486 89.7278 13.7907 89.578C13.6329 89.4283 13.5072 89.2478 13.4213 89.0477C13.3354 88.8476 13.291 88.632 13.291 88.4141C13.291 88.1962 13.3354 87.9807 13.4213 87.7805C13.5072 87.5804 13.6329 87.4 13.7907 87.2502C13.9486 87.1004 14.1352 86.9845 14.3393 86.9095C14.5433 86.8345 14.7605 86.802 14.9775 86.8139H32.07C32.287 86.802 32.5042 86.8345 32.7083 86.9095C32.9123 86.9845 33.0989 87.1004 33.2568 87.2502C33.4146 87.4 33.5403 87.5804 33.6262 87.7805C33.7121 87.9807 33.7565 88.1962 33.7565 88.4141C33.7565 88.632 33.7121 88.8476 33.6262 89.0477C33.5403 89.2478 33.4146 89.4283 33.2568 89.578C33.0989 89.7278 32.9123 89.8437 32.7083 89.9187C32.5042 89.9937 32.287 90.0262 32.07 90.0143Z" fill="#74B7F5"/>
<path d="M27.8776 86.8522H19.2516C19.2252 86.8529 19.199 86.8482 19.1744 86.8385C19.1498 86.8288 19.1274 86.8143 19.1085 86.7958C19.0896 86.7773 19.0746 86.7552 19.0644 86.7308C19.0541 86.7064 19.0488 86.6802 19.0488 86.6537V69.4368C19.0501 69.3837 19.072 69.3332 19.1099 69.2961C19.1478 69.259 19.1987 69.2383 19.2516 69.2383H27.8776C27.9302 69.2383 27.9805 69.2592 28.0176 69.2964C28.0547 69.3337 28.0756 69.3841 28.0756 69.4368V86.6537C28.0756 86.7064 28.0547 86.7568 28.0176 86.7941C27.9805 86.8313 27.9302 86.8522 27.8776 86.8522ZM19.4497 86.4552H27.6603V69.6401H19.4497V86.4552Z" fill="#74B7F5"/>
<path d="M41.6953 53.266H10.4274C7.66346 53.2635 5.01352 52.162 3.05869 50.2033C1.10386 48.2445 0.00383581 45.5885 0 42.8177V11.1485C1.42958e-07 10.7235 0.168431 10.3158 0.468236 10.0153C0.768041 9.71474 1.17469 9.5459 1.59868 9.5459C2.02266 9.5459 2.42919 9.71474 2.729 10.0153C3.0288 10.3158 3.19724 10.7235 3.19724 11.1485V42.8177C3.19724 44.7439 3.96058 46.5911 5.31921 47.9531C6.67785 49.3151 8.52047 50.0802 10.4419 50.0802H41.7097C42.1337 50.0802 42.5403 50.2491 42.8401 50.5496C43.1399 50.8501 43.3084 51.2578 43.3084 51.6828C43.3084 52.1078 43.1399 52.5155 42.8401 52.816C42.5403 53.1165 42.1337 53.2854 41.7097 53.2854L41.6953 53.266Z" fill="#74B7F5"/>
<path d="M108.542 0H50.3376C49.0842 0.00360806 47.8832 0.50435 46.9969 1.39283C46.1106 2.28132 45.611 3.48532 45.6074 4.74182C45.611 5.99832 46.1106 7.20232 46.9969 8.09081C47.8832 8.97929 49.0842 9.48003 50.3376 9.48364H51.6676L48.8916 16.1194L56.0943 9.48364H108.542C109.795 9.48003 110.996 8.97976 111.882 8.09202C112.768 7.20427 113.268 6.00114 113.272 4.74524C113.27 3.48815 112.77 2.28326 111.884 1.39404C110.998 0.504824 109.796 0.00361203 108.542 0Z" fill="#F7AA00"/>
<path d="M71.3351 6.3211C72.2731 6.3211 73.0334 5.55885 73.0334 4.61856C73.0334 3.67827 72.2731 2.91602 71.3351 2.91602C70.3971 2.91602 69.6367 3.67827 69.6367 4.61856C69.6367 5.55885 70.3971 6.3211 71.3351 6.3211Z" fill="white"/>
<path d="M79.4405 6.3211C80.3785 6.3211 81.1389 5.55885 81.1389 4.61856C81.1389 3.67827 80.3785 2.91602 79.4405 2.91602C78.5026 2.91602 77.7422 3.67827 77.7422 4.61856C77.7422 5.55885 78.5026 6.3211 79.4405 6.3211Z" fill="white"/>
<path d="M87.5441 6.3211C88.482 6.3211 89.2424 5.55885 89.2424 4.61856C89.2424 3.67827 88.482 2.91602 87.5441 2.91602C86.6061 2.91602 85.8457 3.67827 85.8457 4.61856C85.8457 5.55885 86.6061 6.3211 87.5441 6.3211Z" fill="white"/>
<path d="M80.7302 22H138.935C140.191 22.0036 141.394 22.5062 142.28 23.3977C143.167 24.2891 143.665 25.4966 143.665 26.7555C143.66 28.0114 143.161 29.2145 142.274 30.1023C141.388 30.99 140.188 31.4903 138.935 31.4939H137.608L140.384 38.1297L133.178 31.4802H80.7302C79.4797 31.4766 78.2813 30.9783 77.3954 30.0935C76.5096 29.2087 76.0081 28.009 76 26.7555C76 25.4966 76.4979 24.2891 77.3846 23.3977C78.2713 22.5062 79.4744 22.0036 80.7302 22Z" fill="#F7AA00"/>
<path d="M117.937 28.3211C118.875 28.3211 119.635 27.5588 119.635 26.6186C119.635 25.6783 118.875 24.916 117.937 24.916C116.999 24.916 116.238 25.6783 116.238 26.6186C116.238 27.5588 116.999 28.3211 117.937 28.3211Z" fill="white"/>
<path d="M109.831 28.3211C110.769 28.3211 111.53 27.5588 111.53 26.6186C111.53 25.6783 110.769 24.916 109.831 24.916C108.893 24.916 108.133 25.6783 108.133 26.6186C108.133 27.5588 108.893 28.3211 109.831 28.3211Z" fill="white"/>
<path d="M101.724 28.3211C102.662 28.3211 103.422 27.5588 103.422 26.6186C103.422 25.6783 102.662 24.916 101.724 24.916C100.786 24.916 100.025 25.6783 100.025 26.6186C100.025 27.5588 100.786 28.3211 101.724 28.3211Z" fill="white"/>
<path d="M159.499 66C159.159 65.9983 158.822 66.0631 158.509 66.1904C158.197 66.3178 157.915 66.505 157.681 66.7405C157.447 66.976 157.267 67.2548 157.15 67.5596C157.034 67.8644 156.984 68.1888 157.004 68.5126C156.99 68.8341 157.044 69.1551 157.163 69.4563C157.282 69.7574 157.463 70.0325 157.696 70.2649C157.93 70.4972 158.21 70.6822 158.52 70.8085C158.83 70.9349 159.164 71 159.501 71C159.838 71 160.172 70.9349 160.482 70.8085C160.792 70.6822 161.072 70.4972 161.306 70.2649C161.539 70.0325 161.72 69.7574 161.839 69.4563C161.958 69.1551 162.012 68.8341 161.998 68.5126C161.998 67.0297 160.969 66 159.499 66Z" fill="#F7AA00"/>
<path d="M160.164 48.0005C158.436 47.9832 156.739 48.4351 155.273 49.303L155 49.4879L156.106 52.2325L156.565 51.9038C157.453 51.3338 158.502 51.0302 159.574 51.0327C161.283 51.0574 162.223 51.8545 162.223 53.2638C162.223 54.5416 161.43 55.6756 160.056 57.2123C158.456 59.0325 157.723 60.976 157.944 62.8208L158.044 64H161.473L161.374 62.7961C161.278 61.2882 161.807 60.0145 163.108 58.5395C164.747 56.6946 166 55.1127 166 52.9269C166.013 50.474 164.205 48.0005 160.164 48.0005Z" fill="#F7AA00"/>
<path d="M171.689 41H147.281C146.095 41.0542 144.977 41.5765 144.174 42.453C143.37 43.3295 142.944 44.4891 142.99 45.6788V90.3212C142.942 91.5116 143.366 92.6727 144.171 93.5498C144.975 94.4269 146.094 94.9484 147.281 95H171.689C172.877 94.9484 173.997 94.4272 174.803 93.5504C175.609 92.6736 176.036 91.5126 175.99 90.3212V45.6788C176.033 44.4881 175.605 43.3286 174.8 42.4524C173.995 41.5762 172.876 41.0542 171.689 41ZM145.368 87.3609V46.2748C145.344 45.6378 145.572 45.0171 146.003 44.5481C146.434 44.0791 147.032 43.7999 147.667 43.7715H171.303C171.938 43.7999 172.536 44.0791 172.967 44.5481C173.398 45.0171 173.626 45.6378 173.602 46.2748V87.3609C173.626 87.9979 173.398 88.6187 172.967 89.0877C172.536 89.5567 171.938 89.8358 171.303 89.8642H147.667C147.034 89.8333 146.438 89.553 146.009 89.0843C145.581 88.6156 145.354 87.9963 145.378 87.3609H145.368Z" fill="#F7AA00"/>
</svg>
