<svg viewBox="0 0 163 74" fill="none" xmlns="http://www.w3.org/2000/svg">
<path d="M119.866 2H6.03514C3.25431 2 1 4.25767 1 7.04265V67.6052C1 70.3902 3.25431 72.6479 6.03514 72.6479H119.866C122.647 72.6479 124.902 70.3902 124.902 67.6052V7.04265C124.902 4.25767 122.647 2 119.866 2Z" fill="#74B7F5"/>
<path d="M119.035 72.2052H7.16339C5.43948 72.1696 3.79976 71.4518 2.60288 70.2088C1.406 68.9657 0.749317 67.2985 0.776485 65.5718V7.42905C0.760811 6.57348 0.91361 5.72318 1.22612 4.92675C1.53863 4.13032 2.00482 3.40336 2.59793 2.78737C3.19103 2.17139 3.8994 1.6784 4.68276 1.33668C5.46612 0.994957 6.30908 0.811313 7.16339 0.795898H119.035C120.757 0.831458 122.395 1.5498 123.589 2.79336C124.784 4.03692 125.436 5.70401 125.405 7.42905V65.5718C125.436 67.2969 124.784 68.9642 123.589 70.2077C122.395 71.4513 120.757 72.1696 119.035 72.2052ZM7.16339 1.45566C5.61274 1.4912 4.13903 2.13891 3.06303 3.25772C1.98703 4.37652 1.39587 5.87585 1.41856 7.42905V65.5718C1.39587 67.125 1.98703 68.6244 3.06303 69.7432C4.13903 70.862 5.61274 71.5097 7.16339 71.5452H119.035C120.584 71.5097 122.056 70.8614 123.129 69.7421C124.203 68.6228 124.79 67.1234 124.763 65.5718V7.42905C124.79 5.87743 124.203 4.37805 123.129 3.25875C122.056 2.13945 120.584 1.4912 119.035 1.45566H7.16339Z" fill="#0B1B32"/>
<path d="M119.035 72.5269H7.16348C6.26007 72.5273 5.36586 72.3464 4.53351 71.9946C3.70117 71.6429 2.94759 71.1276 2.31751 70.4793C1.68742 69.8309 1.19357 69.0625 0.865055 68.2197C0.536546 67.3769 0.380056 66.4766 0.4049 65.5722V7.42938C0.380056 6.52497 0.536546 5.62468 0.865055 4.78186C1.19357 3.93905 1.68742 3.17085 2.31751 2.52248C2.94759 1.8741 3.70117 1.35887 4.53351 1.00713C5.36586 0.655392 6.26007 0.474268 7.16348 0.47461H119.035C119.938 0.474268 120.833 0.655392 121.665 1.00713C122.497 1.35887 123.251 1.8741 123.881 2.52248C124.511 3.17085 125.005 3.93905 125.333 4.78186C125.662 5.62468 125.818 6.52497 125.793 7.42938V65.5722C125.818 66.4766 125.662 67.3769 125.333 68.2197C125.005 69.0625 124.511 69.8309 123.881 70.4793C123.251 71.1276 122.497 71.6429 121.665 71.9946C120.833 72.3464 119.938 72.5273 119.035 72.5269ZM7.16348 1.11764C6.35132 1.13305 5.55018 1.30849 4.80577 1.63405C4.06136 1.95961 3.38819 2.429 2.82489 3.01513C2.2616 3.60126 1.81918 4.29276 1.5228 5.05019C1.22643 5.80762 1.08203 6.61603 1.09771 7.42938V65.5722C1.08203 66.3855 1.22643 67.1941 1.5228 67.9516C1.81918 68.709 2.2616 69.4005 2.82489 69.9866C3.38819 70.5727 4.06136 71.0419 4.80577 71.3675C5.55018 71.6931 6.35132 71.8685 7.16348 71.8839H119.035C120.672 71.8484 122.228 71.1639 123.362 69.9806C124.496 68.7974 125.116 67.2119 125.084 65.5722V7.42938C125.116 5.7896 124.496 4.20418 123.362 3.02091C122.228 1.83764 120.672 1.15318 119.035 1.11764H7.16348ZM119.035 71.8672H7.16348C5.52623 71.836 3.96822 71.1557 2.83108 69.9757C1.69394 68.7956 1.07057 67.2119 1.09771 65.5722V7.42938C1.07057 5.78963 1.69394 4.20616 2.83108 3.02608C3.96822 1.846 5.52623 1.16572 7.16348 1.13458H119.035C120.669 1.17014 122.223 1.85227 123.356 3.03186C124.49 4.21146 125.111 5.7925 125.084 7.42938V65.5722C125.111 67.209 124.49 68.7901 123.356 69.9697C122.223 71.1493 120.669 71.8316 119.035 71.8672ZM7.16348 1.77761C5.69652 1.80872 4.30179 2.42123 3.28505 3.48072C2.26831 4.54022 1.71262 5.96016 1.73978 7.42938V65.5722C1.71262 67.0414 2.26831 68.4615 3.28505 69.521C4.30179 70.5805 5.69652 71.193 7.16348 71.2241H119.035C119.76 71.2087 120.476 71.0503 121.14 70.7579C121.805 70.4655 122.405 70.0448 122.907 69.52C123.41 68.9951 123.804 68.3763 124.067 67.6989C124.33 67.0216 124.457 66.2989 124.442 65.5722V7.42938C124.457 6.70269 124.33 5.97998 124.067 5.30261C123.804 4.62524 123.41 4.00661 122.907 3.48176C122.405 2.9569 121.805 2.53622 121.14 2.24382C120.476 1.95143 119.76 1.793 119.035 1.77761H7.16348Z" fill="#0B1B32"/>
<path d="M119.034 73.0332H7.1631C5.23009 72.9976 3.39026 72.1955 2.04714 70.8028C0.704029 69.4101 -0.0326276 67.5406 -0.000973607 65.6046V7.46183C-0.0326276 5.52587 0.704029 3.65638 2.04714 2.26367C3.39026 0.870968 5.23009 0.0687996 7.1631 0.0332031H119.034C120.967 0.0687996 122.807 0.870968 124.151 2.26367C125.494 3.65638 126.23 5.52587 126.199 7.46183V65.6046C126.23 67.5406 125.494 69.4101 124.151 70.8028C122.807 72.1955 120.967 72.9976 119.034 73.0332ZM7.1631 2.28371C5.82161 2.31479 4.54724 2.87737 3.61922 3.84801C2.6912 4.81865 2.18536 6.11826 2.21256 7.46183V65.6046C2.18536 66.9482 2.6912 68.2478 3.61922 69.2184C4.54724 70.1891 5.82161 70.7517 7.1631 70.7827H119.034C120.376 70.7517 121.65 70.1891 122.578 69.2184C123.506 68.2478 124.012 66.9482 123.985 65.6046V7.46183C124.012 6.11826 123.506 4.81865 122.578 3.84801C121.65 2.87737 120.376 2.31479 119.034 2.28371H7.1631Z" fill="white"/>
<path d="M13.5341 11.6258C13.5374 11.2094 13.4169 10.8014 13.188 10.4537C12.959 10.1061 12.632 9.83466 12.2485 9.67375C11.865 9.51284 11.4422 9.46981 11.0343 9.55023C10.6263 9.63065 10.2514 9.83083 9.95739 10.1253C9.66336 10.4198 9.46348 10.7952 9.38318 11.2038C9.30287 11.6124 9.34585 12.0357 9.50652 12.4198C9.66719 12.8039 9.93842 13.1314 10.2855 13.3607C10.6327 13.59 11.04 13.7104 11.4558 13.7071C12.0057 13.7027 12.5317 13.4822 12.9205 13.0928C13.3093 12.7034 13.5297 12.1764 13.5341 11.6258Z" fill="#FF60A5"/>
<path d="M20.7977 11.6258C20.8011 11.2094 20.6806 10.8014 20.4516 10.4537C20.2227 10.1061 19.8957 9.83466 19.5121 9.67375C19.1286 9.51284 18.7059 9.46981 18.2979 9.55023C17.8899 9.63065 17.5151 9.83083 17.2211 10.1253C16.927 10.4198 16.7272 10.7952 16.6468 11.2038C16.5665 11.6124 16.6095 12.0357 16.7702 12.4198C16.9309 12.8039 17.2019 13.1314 17.549 13.3607C17.8961 13.59 18.3035 13.7104 18.7193 13.7071C19.2691 13.7027 19.7953 13.4822 20.1841 13.0928C20.5729 12.7034 20.7933 12.1764 20.7977 11.6258Z" fill="#FDDA14"/>
<path d="M28.098 11.6252C28.098 11.2136 27.9761 10.8112 27.7477 10.4689C27.5194 10.1266 27.1948 9.85985 26.8151 9.70232C26.4353 9.54479 26.0174 9.50365 25.6142 9.58396C25.2111 9.66427 24.8408 9.86237 24.5502 10.1535C24.2595 10.4445 24.0615 10.8156 23.9813 11.2193C23.9011 11.6231 23.9424 12.0414 24.0997 12.4217C24.257 12.802 24.5233 13.1271 24.8651 13.3558C25.2069 13.5845 25.6087 13.7065 26.0197 13.7065C26.5696 13.7021 27.0956 13.4816 27.4844 13.0922C27.8731 12.7029 28.0935 12.1759 28.098 11.6252Z" fill="#0092FF"/>
<path d="M115.964 27H24.0357C23.4637 27 23 27.5305 23 28.185C23 28.8395 23.4637 29.37 24.0357 29.37H115.964C116.536 29.37 117 28.8395 117 28.185C117 27.5305 116.536 27 115.964 27Z" fill="#FFB300"/>
<path d="M52.518 53.02C52.326 53.02 52.162 53.052 52.026 53.116C51.89 53.188 51.778 53.276 51.69 53.38C51.594 53.492 51.526 53.616 51.486 53.752C51.438 53.896 51.414 54.04 51.414 54.184L51.414 56.344C51.414 56.672 51.378 56.964 51.306 57.22C51.234 57.476 51.11 57.688 50.934 57.856C50.758 58.032 50.526 58.164 50.238 58.252C49.942 58.348 49.578 58.396 49.146 58.396L49.098 58.396L49.098 57.52C49.554 57.52 49.882 57.436 50.082 57.268C50.274 57.108 50.37 56.796 50.37 56.332L50.37 54.484C50.37 53.956 50.442 53.548 50.586 53.26C50.722 52.972 50.918 52.748 51.174 52.588C50.918 52.428 50.722 52.204 50.586 51.916C50.442 51.628 50.37 51.22 50.37 50.692L50.37 48.844C50.37 48.38 50.274 48.068 50.082 47.908C49.882 47.74 49.554 47.656 49.098 47.656L49.098 46.78L49.146 46.78C49.578 46.78 49.942 46.824 50.238 46.912C50.526 47 50.758 47.132 50.934 47.308C51.11 47.484 51.234 47.7 51.306 47.956C51.378 48.212 51.414 48.504 51.414 48.832L51.414 50.992C51.414 51.136 51.438 51.276 51.486 51.412C51.526 51.556 51.594 51.68 51.69 51.784C51.778 51.896 51.89 51.984 52.026 52.048C52.162 52.12 52.326 52.156 52.518 52.156L52.518 53.02Z" fill="white"/>
<path d="M17.482 25.98C17.674 25.98 17.838 25.948 17.974 25.884C18.11 25.812 18.222 25.724 18.31 25.62C18.406 25.508 18.474 25.384 18.514 25.248C18.562 25.104 18.586 24.96 18.586 24.816V22.656C18.586 22.328 18.622 22.036 18.694 21.78C18.766 21.524 18.89 21.312 19.066 21.144C19.242 20.968 19.474 20.836 19.762 20.748C20.058 20.652 20.422 20.604 20.854 20.604H20.902V21.48C20.446 21.48 20.118 21.564 19.918 21.732C19.726 21.892 19.63 22.204 19.63 22.668V24.516C19.63 25.044 19.558 25.452 19.414 25.74C19.278 26.028 19.082 26.252 18.826 26.412C19.082 26.572 19.278 26.796 19.414 27.084C19.558 27.372 19.63 27.78 19.63 28.308V30.156C19.63 30.62 19.726 30.932 19.918 31.092C20.118 31.26 20.446 31.344 20.902 31.344V32.22H20.854C20.422 32.22 20.058 32.176 19.762 32.088C19.474 32 19.242 31.868 19.066 31.692C18.89 31.516 18.766 31.3 18.694 31.044C18.622 30.788 18.586 30.496 18.586 30.168V28.008C18.586 27.864 18.562 27.724 18.514 27.588C18.474 27.444 18.406 27.32 18.31 27.216C18.222 27.104 18.11 27.016 17.974 26.952C17.838 26.88 17.674 26.844 17.482 26.844V25.98Z" fill="white"/>
<path d="M95.4983 34.584H10.6613C10.0081 34.584 9.47852 35.1143 9.47852 35.7685C9.47852 36.4227 10.0081 36.953 10.6613 36.953H95.4983C96.1515 36.953 96.6811 36.4227 96.6811 35.7685C96.6811 35.1143 96.1515 34.584 95.4983 34.584Z" fill="#FFB300"/>
<path d="M79.3622 41.8457H10.6613C10.0081 41.8457 9.47852 42.376 9.47852 43.0302C9.47852 43.6844 10.0081 44.2147 10.6613 44.2147H79.3622C80.0154 44.2147 80.545 43.6844 80.545 43.0302C80.545 42.376 80.0154 41.8457 79.3622 41.8457Z" fill="#FFB300"/>
<path d="M43.0953 50H9.90473C9.40506 50 9 50.5305 9 51.185C9 51.8395 9.40506 52.37 9.90473 52.37H43.0953C43.5949 52.37 44 51.8395 44 51.185C44 50.5305 43.5949 50 43.0953 50Z" fill="#FFB300"/>
<path d="M157.255 11.0674H136.54C133.367 11.0674 130.795 13.6432 130.795 16.8207V66.875C130.795 70.0525 133.367 72.6283 136.54 72.6283H157.255C160.427 72.6283 163 70.0525 163 66.875V16.8207C163 13.6432 160.427 11.0674 157.255 11.0674Z" fill="white"/>
<path d="M158.083 13.6221H136.033C134.139 13.6221 132.604 15.16 132.604 17.0572V64.6239C132.604 66.5211 134.139 68.059 136.033 68.059H158.083C159.978 68.059 161.513 66.5211 161.513 64.6239V17.0572C161.513 15.16 159.978 13.6221 158.083 13.6221Z" fill="#74B7F5"/>
<path d="M158.184 17.9375H135.526C134.966 17.9375 134.512 18.2705 134.512 18.6813V18.6937C134.512 19.1045 134.966 19.4375 135.526 19.4375H158.184C158.744 19.4375 159.197 19.1045 159.197 18.6937V18.6813C159.197 18.2705 158.744 17.9375 158.184 17.9375Z" fill="#FFB300"/>
<path d="M158.184 21.6777H135.526C134.966 21.6777 134.512 22.0107 134.512 22.4215V22.4339C134.512 22.8447 134.966 23.1777 135.526 23.1777H158.184C158.744 23.1777 159.197 22.8447 159.197 22.4339V22.4215C159.197 22.0107 158.744 21.6777 158.184 21.6777Z" fill="#FFB300"/>
<path d="M151.932 25.7217H135.526C134.966 25.7217 134.512 26.0547 134.512 26.4655V26.4779C134.512 26.8887 134.966 27.2217 135.526 27.2217H151.932C152.492 27.2217 152.946 26.8887 152.946 26.4779V26.4655C152.946 26.0547 152.492 25.7217 151.932 25.7217Z" fill="#FFB300"/>
<path d="M146.407 29.7832H135.526C134.966 29.7832 134.512 30.1162 134.512 30.527V30.5394C134.512 30.9502 134.966 31.2832 135.526 31.2832H146.407C146.967 31.2832 147.421 30.9502 147.421 30.5394V30.527C147.421 30.1162 146.967 29.7832 146.407 29.7832Z" fill="#FFB300"/>
<path d="M158.184 33.8945H135.526C134.966 33.8945 134.512 34.2275 134.512 34.6383V34.6507C134.512 35.0615 134.966 35.3945 135.526 35.3945H158.184C158.744 35.3945 159.197 35.0615 159.197 34.6507V34.6383C159.197 34.2275 158.744 33.8945 158.184 33.8945Z" fill="#FFB300"/>
</svg>
