<svg viewBox="0 0 106 97" fill="none" xmlns="http://www.w3.org/2000/svg">
<g clip-path="url(#clip0_945_2699)">
<path d="M44.8043 0H5.87258C2.62924 0 0 2.63202 0 5.87879V90.9829C0 94.2297 2.62924 96.8617 5.87258 96.8617H44.8043C48.0476 96.8617 50.6769 94.2297 50.6769 90.9829V5.87879C50.6769 2.63202 48.0476 0 44.8043 0Z" fill="#071628"/>
<path d="M45.4777 3.33691H5.69963C3.76317 3.33691 2.19336 4.90839 2.19336 6.8469V84.8446C2.19336 86.7831 3.76317 88.3546 5.69963 88.3546H45.4777C47.4142 88.3546 48.984 86.7831 48.984 84.8446V6.8469C48.984 4.90839 47.4142 3.33691 45.4777 3.33691Z" fill="#74B7F5"/>
<path d="M43.6642 10.8242H6.87423C6.30187 10.8242 5.83789 11.2887 5.83789 11.8617V12.3977C5.83789 12.9706 6.30187 13.4351 6.87423 13.4351H43.6642C44.2365 13.4351 44.7005 12.9706 44.7005 12.3977V11.8617C44.7005 11.2887 44.2365 10.8242 43.6642 10.8242Z" fill="#FFB300"/>
<path d="M43.6642 17.8438H6.87423C6.30187 17.8438 5.83789 18.3082 5.83789 18.8812V19.3999C5.83789 19.9729 6.30187 20.4373 6.87423 20.4373H43.6642C44.2365 20.4373 44.7005 19.9729 44.7005 19.3999V18.8812C44.7005 18.3082 44.2365 17.8438 43.6642 17.8438Z" fill="#FFB300"/>
<path d="M33.819 24.6738H6.87423C6.30187 24.6738 5.83789 25.1383 5.83789 25.7113V26.1435C5.83789 26.7165 6.30187 27.181 6.87423 27.181H33.819C34.3913 27.181 34.8553 26.7165 34.8553 26.1435V25.7113C34.8553 25.1383 34.3913 24.6738 33.819 24.6738Z" fill="#FFB300"/>
<path d="M25.1138 31.6934H6.87423C6.30187 31.6934 5.83789 32.1578 5.83789 32.7308V33.2495C5.83789 33.8225 6.30187 34.2869 6.87423 34.2869H25.1138C25.6861 34.2869 26.1501 33.8225 26.1501 33.2495V32.7308C26.1501 32.1578 25.6861 31.6934 25.1138 31.6934Z" fill="#FFB300"/>
<path d="M43.6642 38.541H6.87423C6.30187 38.541 5.83789 39.0055 5.83789 39.5784V40.1663C5.83789 40.7393 6.30187 41.2038 6.87423 41.2038H43.6642C44.2365 41.2038 44.7005 40.7393 44.7005 40.1663V39.5784C44.7005 39.0055 44.2365 38.541 43.6642 38.541Z" fill="#FFB300"/>
<path d="M79.7813 10.3047H46.1694C42.9261 10.3047 40.2969 12.9367 40.2969 16.1835V91.1207C40.2969 94.3675 42.9261 96.9995 46.1694 96.9995H79.7813C83.0246 96.9995 85.6539 94.3675 85.6539 91.1207V16.1835C85.6539 12.9367 83.0246 10.3047 79.7813 10.3047Z" fill="white"/>
<path d="M80.0404 13.0889H46.3422C44.4058 13.0889 42.8359 14.6603 42.8359 16.5989V87.3864C42.8359 89.3249 44.4058 90.8964 46.3422 90.8964H80.0404C81.9769 90.8964 83.5467 89.3249 83.5467 87.3864V16.5989C83.5467 14.6603 81.9769 13.0889 80.0404 13.0889Z" fill="#74B7F5"/>
<path d="M78.9003 16.9102H47.4993C46.5645 16.9102 45.8066 17.6688 45.8066 18.6046V23.3077C45.8066 24.2435 46.5645 25.0021 47.4993 25.0021H78.9003C79.8352 25.0021 80.593 24.2435 80.593 23.3077V18.6046C80.593 17.6688 79.8352 16.9102 78.9003 16.9102Z" fill="#22344E"/>
<path d="M49.7449 24.2067C51.5478 24.2067 53.0094 22.7436 53.0094 20.9388C53.0094 19.134 51.5478 17.6709 49.7449 17.6709C47.942 17.6709 46.4805 19.134 46.4805 20.9388C46.4805 22.7436 47.942 24.2067 49.7449 24.2067Z" fill="white"/>
<path d="M51.9209 22.2356L51.0054 21.5094C51.0054 21.5094 51.0054 21.5093 51.0054 21.4055C51.088 21.1965 51.1292 20.9733 51.1264 20.7485C51.1264 20.4065 51.025 20.0723 50.8353 19.7879C50.6455 19.5036 50.3756 19.282 50.06 19.1511C49.7444 19.0203 49.3971 18.986 49.0621 19.0528C48.727 19.1195 48.4193 19.2842 48.1778 19.526C47.9362 19.7678 47.7717 20.0758 47.7051 20.4112C47.6384 20.7466 47.6726 21.0942 47.8033 21.4102C47.9341 21.7261 48.1554 21.9963 48.4394 22.1863C48.7235 22.3762 49.0576 22.4775 49.3992 22.4775C49.8071 22.4687 50.1985 22.3155 50.5044 22.0453L51.4372 22.7888C51.5159 22.814 51.6004 22.814 51.679 22.7888C51.7354 22.7902 51.7913 22.7785 51.8422 22.7544C51.8932 22.7304 51.9379 22.6949 51.9728 22.6506C52.0056 22.5839 52.018 22.5091 52.0088 22.4353C51.9996 22.3616 51.9691 22.2922 51.9209 22.2356ZM49.4163 21.7688C49.146 21.7688 48.8869 21.6612 48.6958 21.4699C48.5047 21.2786 48.3973 21.019 48.3973 20.7485C48.4297 20.4986 48.5518 20.2691 48.7409 20.1028C48.9301 19.9365 49.1732 19.8447 49.4249 19.8447C49.6767 19.8447 49.9198 19.9365 50.1089 20.1028C50.298 20.2691 50.4204 20.4986 50.4528 20.7485C50.4511 20.8799 50.4216 21.0097 50.3663 21.129C50.2922 21.32 50.1615 21.4836 49.9917 21.598C49.8218 21.7124 49.6209 21.7721 49.4163 21.7688Z" fill="#22344E"/>
<path d="M78.9176 29.5322H47.4821C46.5567 29.5322 45.8066 30.2831 45.8066 31.2094V48.9322C45.8066 49.8585 46.5567 50.6094 47.4821 50.6094H78.9176C79.8429 50.6094 80.593 49.8585 80.593 48.9322V31.2094C80.593 30.2831 79.8429 29.5322 78.9176 29.5322Z" fill="#22344E"/>
<path d="M54.0801 50.6094H48.1556C46.1521 50.8687 45.8066 49.4856 45.8066 49.1743V46.7017L49.6237 42.431C49.9713 41.9967 50.4048 41.6389 50.8968 41.3799C51.3888 41.1209 51.9288 40.9662 52.4832 40.9256C53.0376 40.8851 53.5945 40.9595 54.1189 41.1441C54.6433 41.3287 55.124 41.6197 55.5309 41.9987L59.1408 45.9756C59.4974 46.3667 59.9415 46.6677 60.4366 46.8541C60.9317 47.0404 61.4639 47.1069 61.9895 47.0478C62.5151 46.9888 63.0192 46.806 63.4608 46.5145C63.9023 46.2229 64.2686 45.831 64.5297 45.3705L67.9842 39.0767C68.3426 38.5939 68.809 38.2017 69.3458 37.9315C69.8827 37.6612 70.4751 37.5205 71.076 37.5205C71.6769 37.5205 72.2695 37.6612 72.8064 37.9315C73.3432 38.2017 73.8094 38.5939 74.1678 39.0767L80.5066 45.6297C80.5066 46.0619 80.593 48.9669 80.5066 49.4164C80.4566 49.7193 80.3131 49.9989 80.0963 50.2159C79.8795 50.433 79.6002 50.5766 79.2976 50.6267C77.8295 50.6267 76.9141 50.6267 76.5341 50.6267H60.4362C60.2289 50.6267 56.2046 50.6267 55.9973 50.6267" fill="#FFB300"/>
<path d="M61.4728 39.2146C62.627 39.2146 63.5627 38.2779 63.5627 37.1224C63.5627 35.967 62.627 35.0303 61.4728 35.0303C60.3185 35.0303 59.3828 35.967 59.3828 37.1224C59.3828 38.2779 60.3185 39.2146 61.4728 39.2146Z" fill="#FFB300"/>
<path d="M104.342 59.1162H64.6676C63.7423 59.1162 62.9922 59.8671 62.9922 60.7934V72.3262C62.9922 73.2525 63.7423 74.0034 64.6676 74.0034H104.342C105.267 74.0034 106.017 73.2525 106.017 72.3262V60.7934C106.017 59.8671 105.267 59.1162 104.342 59.1162Z" fill="white"/>
<path d="M71.4208 72.2918C74.5019 72.2918 76.9997 69.7914 76.9997 66.7069C76.9997 63.6225 74.5019 61.1221 71.4208 61.1221C68.3396 61.1221 65.8418 63.6225 65.8418 66.7069C65.8418 69.7914 68.3396 72.2918 71.4208 72.2918Z" fill="#74B7F5"/>
<path d="M71.4213 65.3583C72.2321 65.3583 72.8894 64.7003 72.8894 63.8886C72.8894 63.077 72.2321 62.4189 71.4213 62.4189C70.6104 62.4189 69.9531 63.077 69.9531 63.8886C69.9531 64.7003 70.6104 65.3583 71.4213 65.3583Z" fill="#22344E"/>
<path d="M74.8405 68.4883C74.8405 70.0098 73.3206 70.321 71.3861 70.321C69.4516 70.321 67.9316 70.0098 67.9316 68.4883" fill="#22344E"/>
<path d="M68 68.5919C68 67.6747 68.364 66.7952 69.0118 66.1467C69.6597 65.4982 70.5383 65.1338 71.4545 65.1338C72.3706 65.1338 73.2495 65.4982 73.8973 66.1467C74.5451 66.7952 74.9089 67.6747 74.9089 68.5919" fill="#22344E"/>
</g>
<defs>
<clipPath id="clip0_945_2699">
<rect width="106" height="97" fill="white"/>
</clipPath>
</defs>
</svg>
