<svg viewBox="0 0 92 94" fill="none" xmlns="http://www.w3.org/2000/svg">
<g filter="url(#filter0_d_945_2576)">
<path d="M24.8654 27.3697C24.882 27.3155 24.9195 27.2701 24.9695 27.2435C25.0196 27.2169 25.0782 27.2113 25.1325 27.2279L30.5011 28.8724L30.3759 29.2814L25.0075 27.637C24.9533 27.6203 24.9079 27.5829 24.8813 27.5328C24.8547 27.4827 24.8491 27.4241 24.8657 27.3699L24.8654 27.3697Z" fill="white"/>
<path d="M39.2181 20.1281C39.2724 20.1447 39.3178 20.1821 39.3444 20.2322C39.371 20.2823 39.3766 20.3409 39.36 20.3952L37.7155 25.7638L37.3065 25.6386L38.9509 20.2702C38.9675 20.216 39.005 20.1706 39.0551 20.144C39.1052 20.1174 39.1638 20.1118 39.218 20.1284L39.2181 20.1281Z" fill="white"/>
<path d="M31.2025 49.4238L26.7052 51.5893L26.7092 51.5968L25.0762 56.1051C25.0676 56.129 25.0637 56.1543 25.0649 56.1796C25.066 56.2049 25.0721 56.2298 25.0829 56.2528C25.0937 56.2757 25.1089 56.2963 25.1276 56.3134C25.1463 56.3305 25.1683 56.3437 25.1921 56.3523C25.216 56.361 25.2413 56.3649 25.2666 56.3638C25.2919 56.3626 25.3168 56.3565 25.3398 56.3458C25.3627 56.3351 25.3834 56.3199 25.4005 56.3012C25.4176 56.2825 25.4308 56.2605 25.4395 56.2367L27.0235 51.8665L31.3707 49.7732L31.2025 49.4238Z" fill="white"/>
<path d="M38.156 55.2636L34.7831 59.8064L34.7909 59.812L35.5261 65.1959C35.5339 65.2534 35.5643 65.3054 35.6105 65.3405C35.6566 65.3756 35.7149 65.3909 35.7724 65.3831C35.8298 65.3753 35.8818 65.3449 35.9169 65.2987C35.9521 65.2525 35.9674 65.1943 35.9596 65.1368L35.2457 59.9167L38.5065 55.5254L38.156 55.2636Z" fill="white"/>
<path d="M30.1265 41.0987L25.9139 41.2817L25.914 41.2888L23.1447 44.2432C23.1152 44.2748 23.0994 44.3168 23.1008 44.36C23.1022 44.4032 23.1206 44.4441 23.1522 44.4738C23.1837 44.5033 23.2257 44.5191 23.2689 44.5177C23.3122 44.5163 23.3531 44.4979 23.3827 44.4664L26.0682 41.6012L30.1406 41.4246L30.1265 41.0987Z" fill="white"/>
<path d="M55.2602 38.2148L59.573 35.7018L59.577 35.7094L64.2257 36.8801C64.2719 36.8956 64.3105 36.928 64.3338 36.9708C64.3571 37.0136 64.3634 37.0636 64.3513 37.1109C64.3393 37.1581 64.3099 37.199 64.2689 37.2255C64.228 37.2519 64.1785 37.2619 64.1305 37.2534L59.6229 36.118L55.4537 38.5471L55.2602 38.2148Z" fill="white"/>
<path d="M56.2039 47.2454L61.8562 46.9957L61.8567 47.0051L65.9051 50.6293C65.9265 50.6485 65.9439 50.6717 65.9564 50.6976C65.9688 50.7235 65.9761 50.7516 65.9776 50.7803C65.9792 50.809 65.9751 50.8377 65.9656 50.8649C65.9561 50.892 65.9413 50.917 65.9222 50.9384C65.903 50.9598 65.8798 50.9773 65.8539 50.9897C65.8279 51.0022 65.7998 51.0094 65.7711 51.011C65.7424 51.0126 65.7137 51.0085 65.6866 50.9989C65.6594 50.9894 65.6344 50.9747 65.613 50.9555L61.6885 47.4407L56.2225 47.6831L56.2039 47.2454Z" fill="white"/>
<path d="M48.9662 32.6602L51.4771 29.2724L51.4828 29.277L55.4829 28.6367C55.5257 28.6301 55.5694 28.6407 55.6044 28.6662C55.6394 28.6918 55.6628 28.7302 55.6695 28.7729C55.6761 28.8157 55.6655 28.8594 55.64 28.8944C55.6144 28.9294 55.576 28.9528 55.5332 28.9595L51.6556 29.5796L49.2283 32.8543L48.9662 32.6602Z" fill="white"/>
<path d="M39.7852 38.3293C43.5538 36.3281 44.9865 31.6509 42.9853 27.8823C40.9842 24.1138 36.3069 22.6811 32.5384 24.6822C28.7698 26.6834 27.3371 31.3607 29.3383 35.1292C31.3394 38.8977 36.0167 40.3305 39.7852 38.3293Z" fill="white"/>
<path d="M49.3606 56.3641C56.0453 52.8144 58.5867 44.5178 55.037 37.8331C51.4873 31.1484 43.1907 28.607 36.506 32.1567C29.8214 35.7064 27.2799 44.003 30.8296 50.6877C34.3793 57.3724 42.6759 59.9138 49.3606 56.3641Z" fill="#74B7F5"/>
<path d="M37.6681 34.2322C37.6115 34.1256 37.4792 34.0851 37.3726 34.1417C37.2661 34.1983 37.2256 34.3305 37.2822 34.4371L48.5321 55.6226C48.5886 55.7291 48.7209 55.7697 48.8275 55.7131C48.9341 55.6565 48.9746 55.5242 48.918 55.4176L37.6681 34.2322Z" fill="#F7AA00"/>
<path d="M37.8048 34.0574C37.7482 33.9508 37.6159 33.9103 37.5094 33.9669C37.4028 34.0235 37.3623 34.1557 37.4189 34.2623L48.7285 55.5602C48.785 55.6667 48.9173 55.7072 49.0239 55.6506C49.1305 55.5941 49.171 55.4618 49.1144 55.3552L37.8048 34.0574Z" fill="#070707"/>
</g>
<circle cx="43" cy="43" r="41.7" stroke="#F7AA00" stroke-width="2.6"/>
<path d="M69.6992 74.75L73.2843 71.2647L89.8907 88.3463C90.8532 89.3363 90.8308 90.9191 89.8408 91.8815C88.8509 92.844 87.2681 92.8216 86.3057 91.8317L69.6992 74.75Z" fill="#F7AA00"/>
<defs>
<filter id="filter0_d_945_2576" x="16.1016" y="17.1191" width="56.877" height="59.2656" filterUnits="userSpaceOnUse" color-interpolation-filters="sRGB">
<feFlood flood-opacity="0" result="BackgroundImageFix"/>
<feColorMatrix in="SourceAlpha" type="matrix" values="0 0 0 0 0 0 0 0 0 0 0 0 0 0 0 0 0 0 127 0" result="hardAlpha"/>
<feOffset dy="4"/>
<feGaussianBlur stdDeviation="3.5"/>
<feComposite in2="hardAlpha" operator="out"/>
<feColorMatrix type="matrix" values="0 0 0 0 0.308333 0 0 0 0 0.308333 0 0 0 0 0.308333 0 0 0 0.16 0"/>
<feBlend mode="normal" in2="BackgroundImageFix" result="effect1_dropShadow_945_2576"/>
<feBlend mode="normal" in="SourceGraphic" in2="effect1_dropShadow_945_2576" result="shape"/>
</filter>
</defs>
</svg>
