<svg viewBox="0 0 270 108" fill="none" xmlns="http://www.w3.org/2000/svg">
<g clip-path="url(#clip0_945_2626)">
<path d="M243.609 51.8315C236.741 51.972 233.988 48.2544 229.428 42.1658C228.2 40.5136 226.798 38.6465 225.141 36.6307C220.598 31.6739 215.602 29.0799 210.3 28.9312C206.739 28.8781 203.23 29.7977 200.151 31.5913C201.685 28.8403 202.847 26.3537 203.861 24.1562C207.036 17.291 208.627 13.8378 216.228 13.8378V12.1855C207.538 12.1855 205.51 16.6715 202.336 23.4622C201.264 25.7754 200.052 28.419 198.411 31.2774C190.307 44.2063 174.106 45.6191 166.133 45.4704C155.489 44.1568 142.223 47.3126 141.465 47.5026C135.306 48.874 128.9 53.3351 122.7 57.6558C119.501 59.8863 116.483 61.993 113.63 63.5461C110.547 65.2479 106.21 66.1897 101.956 66.7101C106.243 64.6861 111.173 60.8694 115.469 53.7234C116.458 52.0711 117.39 50.4684 118.297 48.9153C126.484 34.8711 131.884 25.5441 155.283 25.5441V23.8918C130.936 23.8918 125.041 34.0449 116.871 48.0891C115.972 49.634 115.04 51.2285 114.059 52.8725C106.02 66.231 95.7887 67.3132 92.532 67.2967C90.3714 67.0877 88.1958 67.0877 86.0352 67.2967L86.233 68.9489C86.233 68.9489 87.1812 68.8415 88.7065 68.8333V68.9572C88.8714 68.9572 89.8937 69.0068 91.4684 69.0068H92.466C99.5607 69.6193 106.421 71.8549 112.517 75.5414C121.702 81.1343 127.292 82.1505 130.087 82.1505C130.835 82.1852 131.583 82.0873 132.297 81.8613L131.711 80.3248C131.654 80.3248 126.385 82.0844 113.375 74.1619C109.278 71.6693 104.831 69.8063 100.183 68.635C105.13 68.1558 110.596 67.148 114.397 65.0496C117.291 63.4552 120.342 61.3238 123.582 59.0684C129.642 54.8469 135.949 50.4767 141.77 49.1549C148.177 47.6935 154.722 46.9235 161.293 46.8582C161.755 46.916 163.503 47.1143 166.042 47.1639C170.165 47.6843 173.801 48.9153 175.936 51.3524C177.867 53.5872 179.428 56.1167 180.562 58.8454C182.45 63.0669 183.769 65.1488 192.871 66.3962L193.094 64.7439C184.486 63.5708 183.678 61.7616 182.062 58.1349C180.868 55.259 179.223 52.5928 177.189 50.2371C175.819 48.7422 174.103 47.6074 172.193 46.9325C179.943 46.2468 190.142 43.6941 197.101 35.7798C197.158 35.7302 202.715 30.41 210.193 30.6083C215.033 30.7487 219.634 33.1609 223.847 37.746C225.446 39.6956 226.831 41.5545 228.051 43.1902C232.693 49.3945 235.777 53.5169 243.263 53.5169H243.576L243.609 51.8315Z" fill="white"/>
<path d="M166.158 12.1113H157.872C156.323 12.1113 155.068 13.3889 155.068 14.9649V36.2577C155.068 37.8337 156.323 39.1113 157.872 39.1113H166.158C167.706 39.1113 168.961 37.8337 168.961 36.2577V14.9649C168.961 13.3889 167.706 12.1113 166.158 12.1113Z" fill="white"/>
<path d="M166.281 13H157.719C156.77 13 156 13.8061 156 14.8004V35.1996C156 36.1939 156.77 37 157.719 37H166.281C167.23 37 168 36.1939 168 35.1996V14.8004C168 13.8061 167.23 13 166.281 13Z" fill="#54ADFF"/>
<path d="M268.392 49.0967H242.701C241.814 49.0967 241.094 49.8179 241.094 50.7076V55.6809C241.094 56.5706 241.814 57.2919 242.701 57.2919H268.392C269.28 57.2919 270 56.5706 270 55.6809V50.7076C270 49.8179 269.28 49.0967 268.392 49.0967Z" fill="#74B7F5"/>
<path d="M268.392 58.8457H242.701C241.814 58.8457 241.094 59.5669 241.094 60.4567V65.43C241.094 66.3197 241.814 67.0409 242.701 67.0409H268.392C269.28 67.0409 270 66.3197 270 65.43V60.4567C270 59.5669 269.28 58.8457 268.392 58.8457Z" fill="#74B7F5"/>
<path d="M268.392 68.5938H242.701C241.814 68.5938 241.094 69.315 241.094 70.2047V75.178C241.094 76.0677 241.814 76.789 242.701 76.789H268.392C269.28 76.789 270 76.0677 270 75.178V70.2047C270 69.315 269.28 68.5938 268.392 68.5938Z" fill="#74B7F5"/>
<path d="M244.978 74.2526C245.729 74.2526 246.338 73.6423 246.338 72.8895C246.338 72.1367 245.729 71.5264 244.978 71.5264C244.226 71.5264 243.617 72.1367 243.617 72.8895C243.617 73.6423 244.226 74.2526 244.978 74.2526Z" fill="#FFB300"/>
<path d="M244.704 64.3063C245.455 64.3063 246.065 63.696 246.065 62.9432C246.065 62.1904 245.455 61.5801 244.704 61.5801C243.953 61.5801 243.344 62.1904 243.344 62.9432C243.344 63.696 243.953 64.3063 244.704 64.3063Z" fill="#0057FF"/>
<path d="M244.978 54.5573C245.729 54.5573 246.338 53.947 246.338 53.1942C246.338 52.4413 245.729 51.8311 244.978 51.8311C244.226 51.8311 243.617 52.4413 243.617 53.1942C243.617 53.947 244.226 54.5573 244.978 54.5573Z" fill="white"/>
<path d="M234.39 0H216.779C216.101 0 215.551 0.551108 215.551 1.23093V25.3622C215.551 26.042 216.101 26.5931 216.779 26.5931H234.39C235.069 26.5931 235.619 26.042 235.619 25.3622V1.23093C235.619 0.551108 235.069 0 234.39 0Z" fill="#74B7F5"/>
<path d="M233.022 1.75977H217.448C217.175 1.75977 216.953 1.98169 216.953 2.25544V2.52807C216.953 2.80182 217.175 3.02374 217.448 3.02374H233.022C233.295 3.02374 233.517 2.80182 233.517 2.52807V2.25544C233.517 1.98169 233.295 1.75977 233.022 1.75977Z" fill="#FFB300"/>
<path d="M233.022 4.30371H217.448C217.175 4.30371 216.953 4.52563 216.953 4.79939V5.07201C216.953 5.34577 217.175 5.56769 217.448 5.56769H233.022C233.295 5.56769 233.517 5.34577 233.517 5.07201V4.79939C233.517 4.52563 233.295 4.30371 233.022 4.30371Z" fill="#FFB300"/>
<path d="M224.53 6.87305H217.448C217.175 6.87305 216.953 7.09497 216.953 7.36873V7.64135C216.953 7.9151 217.175 8.13703 217.448 8.13703H224.53C224.803 8.13703 225.025 7.9151 225.025 7.64135V7.36873C225.025 7.09497 224.803 6.87305 224.53 6.87305Z" fill="#FFB300"/>
<path d="M229.65 9.52539H217.448C217.175 9.52539 216.953 9.74731 216.953 10.0211V10.2937C216.953 10.5674 217.175 10.7894 217.448 10.7894H229.65C229.923 10.7894 230.145 10.5674 230.145 10.2937V10.0211C230.145 9.74731 229.923 9.52539 229.65 9.52539Z" fill="#FFB300"/>
<path d="M232.701 12.0283H217.448C217.175 12.0283 216.953 12.2502 216.953 12.524V12.7966C216.953 13.0704 217.175 13.2923 217.448 13.2923H232.701C232.974 13.2923 233.195 13.0704 233.195 12.7966V12.524C233.195 12.2502 232.974 12.0283 232.701 12.0283Z" fill="#FFB300"/>
<path d="M233.261 14.5898H217.448C217.175 14.5898 216.953 14.8118 216.953 15.0855V15.3581C216.953 15.6319 217.175 15.8538 217.448 15.8538H233.261C233.535 15.8538 233.756 15.6319 233.756 15.3581V15.0855C233.756 14.8118 233.535 14.5898 233.261 14.5898Z" fill="#FFB300"/>
<path d="M233.261 17.0098H217.448C217.175 17.0098 216.953 17.2317 216.953 17.5054V17.7781C216.953 18.0518 217.175 18.2737 217.448 18.2737H233.261C233.535 18.2737 233.756 18.0518 233.756 17.7781V17.5054C233.756 17.2317 233.535 17.0098 233.261 17.0098Z" fill="#FFB300"/>
<path d="M169.059 72.9473H123.646C122.289 72.9473 121.189 74.0495 121.189 75.4091V99.1934C121.189 100.553 122.289 101.655 123.646 101.655H169.059C170.416 101.655 171.516 100.553 171.516 99.1934V75.4091C171.516 74.0495 170.416 72.9473 169.059 72.9473Z" fill="#74B7F5"/>
<path d="M169.059 101.581H123.631C122.929 101.565 122.263 101.273 121.776 100.767C121.289 100.26 121.022 99.5818 121.034 98.8791V75.2518C121.022 74.5498 121.29 73.8722 121.777 73.3674C122.263 72.8625 122.93 72.5716 123.631 72.5586H169.059C169.76 72.5716 170.427 72.8625 170.914 73.3674C171.4 73.8722 171.668 74.5498 171.657 75.2518V98.8791C171.668 99.5818 171.401 100.26 170.914 100.767C170.427 101.273 169.761 101.565 169.059 101.581ZM123.631 72.8313C123.002 72.8443 122.403 73.1061 121.966 73.5596C121.529 74.0131 121.289 74.6214 121.297 75.2518V98.8791C121.286 99.5109 121.526 100.121 121.963 100.577C122.4 101.032 123 101.295 123.631 101.308H169.059C169.69 101.295 170.29 101.032 170.727 100.577C171.164 100.121 171.404 99.5109 171.393 98.8791V75.2518C171.402 74.6214 171.161 74.0131 170.724 73.5596C170.287 73.1061 169.688 72.8443 169.059 72.8313H123.631Z" fill="#0B1B32"/>
<path d="M169.06 101.705H123.631C123.268 101.698 122.909 101.62 122.575 101.475C122.241 101.329 121.94 101.119 121.687 100.857C121.434 100.594 121.236 100.285 121.102 99.9455C120.969 99.6062 120.904 99.2439 120.911 98.8794V75.2521C120.904 74.8875 120.969 74.5253 121.102 74.186C121.236 73.8467 121.434 73.537 121.687 73.2747C121.94 73.0123 122.241 72.8024 122.575 72.6569C122.909 72.5114 123.268 72.4332 123.631 72.4268H169.06C169.424 72.4332 169.783 72.5114 170.117 72.6569C170.45 72.8024 170.752 73.0123 171.005 73.2747C171.257 73.537 171.456 73.8467 171.589 74.186C171.722 74.5253 171.788 74.8875 171.781 75.2521V98.8794C171.788 99.2439 171.722 99.6062 171.589 99.9455C171.456 100.285 171.257 100.594 171.005 100.857C170.752 101.119 170.45 101.329 170.117 101.475C169.783 101.62 169.424 101.698 169.06 101.705ZM123.631 72.6911C123.3 72.6909 122.971 72.7576 122.665 72.8873C122.36 73.017 122.083 73.2069 121.853 73.4459C121.622 73.6849 121.441 73.968 121.322 74.2783C121.203 74.5886 121.147 74.9197 121.158 75.2521V98.8794C121.151 99.211 121.21 99.5406 121.331 99.8494C121.452 100.158 121.633 100.44 121.862 100.679C122.092 100.917 122.367 101.108 122.67 101.24C122.974 101.373 123.3 101.443 123.631 101.449H169.06C169.391 101.443 169.718 101.373 170.021 101.24C170.325 101.108 170.599 100.917 170.829 100.679C171.059 100.44 171.24 100.158 171.36 99.8494C171.481 99.5406 171.54 99.211 171.534 98.8794V75.2521C171.545 74.9197 171.489 74.5886 171.37 74.2783C171.25 73.968 171.07 73.6849 170.839 73.4459C170.608 73.2069 170.332 73.017 170.026 72.8873C169.721 72.7576 169.392 72.6909 169.06 72.6911H123.631ZM169.06 101.44H123.631C123.3 101.441 122.971 101.374 122.665 101.244C122.36 101.115 122.083 100.924 121.853 100.686C121.622 100.447 121.441 100.164 121.322 99.8532C121.203 99.5429 121.147 99.2117 121.158 98.8794V75.2521C121.148 74.9204 121.205 74.5901 121.325 74.2808C121.444 73.9715 121.625 73.6894 121.856 73.4514C122.086 73.2133 122.362 73.0241 122.667 72.8949C122.972 72.7657 123.3 72.6992 123.631 72.6993H169.06C169.391 72.6992 169.719 72.7657 170.024 72.8949C170.329 73.0241 170.605 73.2133 170.836 73.4514C171.067 73.6894 171.247 73.9715 171.367 74.2808C171.487 74.5901 171.543 74.9204 171.534 75.2521V98.8794C171.545 99.2117 171.489 99.5429 171.37 99.8532C171.25 100.164 171.07 100.447 170.839 100.686C170.608 100.924 170.332 101.115 170.026 101.244C169.721 101.374 169.392 101.441 169.06 101.44ZM123.631 72.9554C123.036 72.9684 122.47 73.2175 122.057 73.648C121.645 74.0785 121.419 74.6553 121.43 75.2521V98.8794C121.423 99.1752 121.475 99.4693 121.583 99.745C121.69 100.021 121.85 100.272 122.055 100.486C122.259 100.699 122.504 100.87 122.774 100.989C123.045 101.107 123.336 101.171 123.631 101.176H169.06C169.656 101.163 170.222 100.914 170.634 100.484C171.047 100.053 171.273 99.4761 171.262 98.8794V75.2521C171.273 74.6553 171.047 74.0785 170.634 73.648C170.222 73.2175 169.656 72.9684 169.06 72.9554H123.631Z" fill="#0B1B32"/>
<path d="M169.059 101.903H123.63C122.843 101.887 122.095 101.561 121.548 100.994C121.001 100.428 120.7 99.6672 120.711 98.879V75.2517C120.7 74.4643 121.001 73.7048 121.548 73.1395C122.096 72.5742 122.844 72.2494 123.63 72.2363H169.059C169.447 72.2428 169.831 72.3259 170.188 72.481C170.544 72.636 170.867 72.86 171.137 73.14C171.408 73.42 171.62 73.7506 171.763 74.113C171.906 74.4753 171.976 74.8622 171.969 75.2517V98.879C171.982 99.6664 171.683 100.427 171.138 100.994C170.592 101.561 169.844 101.887 169.059 101.903ZM123.63 73.1452C123.085 73.1582 122.567 73.3871 122.19 73.782C121.813 74.1769 121.607 74.7053 121.618 75.2517V98.879C121.612 99.1499 121.659 99.4194 121.756 99.672C121.854 99.9246 122 100.155 122.187 100.351C122.374 100.547 122.598 100.704 122.845 100.813C123.093 100.922 123.36 100.98 123.63 100.986H169.059C169.329 100.98 169.596 100.922 169.843 100.813C170.091 100.704 170.314 100.547 170.501 100.351C170.688 100.155 170.835 99.9246 170.932 99.672C171.03 99.4194 171.077 99.1499 171.07 98.879V75.2517C171.081 74.7053 170.876 74.1769 170.499 73.782C170.122 73.3871 169.604 73.1582 169.059 73.1452H123.63Z" fill="white"/>
<path d="M126.558 77.1358C126.558 76.938 126.5 76.7446 126.39 76.5801C126.281 76.4157 126.125 76.2875 125.942 76.2118C125.76 76.1362 125.559 76.1164 125.366 76.155C125.172 76.1935 124.994 76.2888 124.855 76.4286C124.715 76.5685 124.62 76.7466 124.582 76.9406C124.543 77.1346 124.563 77.3357 124.639 77.5184C124.714 77.7012 124.842 77.8573 125.006 77.9672C125.17 78.077 125.363 78.1357 125.561 78.1357C125.825 78.1357 126.079 78.0303 126.266 77.8428C126.453 77.6553 126.558 77.401 126.558 77.1358Z" fill="#FF60A5"/>
<path d="M130.51 77.1358C130.51 76.938 130.451 76.7446 130.341 76.5801C130.232 76.4157 130.076 76.2875 129.894 76.2118C129.711 76.1362 129.51 76.1164 129.317 76.155C129.123 76.1935 128.946 76.2888 128.806 76.4286C128.666 76.5685 128.571 76.7466 128.533 76.9406C128.494 77.1346 128.514 77.3357 128.59 77.5184C128.665 77.7012 128.793 77.8573 128.957 77.9672C129.121 78.077 129.314 78.1357 129.512 78.1357C129.776 78.1357 130.03 78.0303 130.217 77.8428C130.404 77.6553 130.51 77.401 130.51 77.1358Z" fill="#0057FF"/>
<path d="M134.437 77.1358C134.437 76.938 134.379 76.7446 134.269 76.5801C134.159 76.4157 134.004 76.2875 133.821 76.2118C133.639 76.1362 133.438 76.1164 133.245 76.155C133.051 76.1935 132.873 76.2888 132.734 76.4286C132.594 76.5685 132.499 76.7466 132.461 76.9406C132.422 77.1346 132.442 77.3357 132.517 77.5184C132.593 77.7012 132.721 77.8573 132.885 77.9672C133.049 78.077 133.242 78.1357 133.439 78.1357C133.704 78.1357 133.958 78.0303 134.145 77.8428C134.332 77.6553 134.437 77.401 134.437 77.1358Z" fill="#FFB300"/>
<path d="M150.195 101.581H142.486V106.645H150.195V101.581Z" fill="white"/>
<path d="M153.166 106.422H139.516C139.08 106.422 138.727 106.775 138.727 107.211C138.727 107.647 139.08 108 139.516 108H153.166C153.601 108 153.955 107.647 153.955 107.211C153.955 106.775 153.601 106.422 153.166 106.422Z" fill="#FFB300"/>
<path d="M216.087 59.1592H194.173C192.725 59.1592 191.551 60.3354 191.551 61.7863V88.8007C191.551 90.2516 192.725 91.4278 194.173 91.4278H216.087C217.535 91.4278 218.709 90.2516 218.709 88.8007V61.7863C218.709 60.3354 217.535 59.1592 216.087 59.1592Z" fill="#74B7F5"/>
<path d="M216.096 91.9651H194.173C193.337 91.963 192.536 91.6287 191.945 91.0355C191.355 90.4424 191.023 89.6388 191.023 88.8011V61.7784C191.023 60.9407 191.355 60.1371 191.945 59.544C192.536 58.9508 193.337 58.6164 194.173 58.6143H216.096C216.932 58.6164 217.733 58.9508 218.323 59.544C218.914 60.1371 219.245 60.9407 219.245 61.7784V88.8011C219.245 89.6388 218.914 90.4424 218.323 91.0355C217.733 91.6287 216.932 91.963 216.096 91.9651ZM194.173 59.68C193.621 59.6822 193.093 59.9033 192.703 60.2951C192.314 60.6868 192.095 61.2172 192.095 61.7701V88.7928C192.095 89.3457 192.314 89.8762 192.703 90.2679C193.093 90.6596 193.621 90.8808 194.173 90.883H216.096C216.648 90.8808 217.176 90.6596 217.565 90.2679C217.955 89.8762 218.174 89.3457 218.174 88.7928V61.7701C218.174 61.2172 217.955 60.6868 217.565 60.2951C217.176 59.9033 216.648 59.6822 216.096 59.68H194.173Z" fill="white"/>
<path d="M195.023 62.0999C195.024 61.9897 194.993 61.8815 194.933 61.7892C194.873 61.697 194.787 61.6247 194.686 61.5818C194.584 61.5389 194.472 61.5272 194.365 61.5483C194.257 61.5694 194.158 61.6223 194.08 61.7002C194.002 61.7781 193.949 61.8775 193.928 61.9856C193.907 62.0937 193.919 62.2057 193.962 62.3072C194.004 62.4087 194.077 62.495 194.169 62.5552C194.261 62.6154 194.369 62.6467 194.479 62.645C194.622 62.6429 194.759 62.5848 194.861 62.483C194.963 62.3812 195.021 62.2438 195.023 62.0999Z" fill="#FF60A5"/>
<path d="M196.927 62.0999C196.929 61.9897 196.897 61.8815 196.837 61.7892C196.777 61.697 196.691 61.6247 196.59 61.5818C196.489 61.5389 196.377 61.5272 196.269 61.5483C196.161 61.5694 196.062 61.6223 195.984 61.7002C195.906 61.7781 195.854 61.8775 195.832 61.9856C195.811 62.0937 195.823 62.2057 195.866 62.3072C195.909 62.4087 195.981 62.495 196.073 62.5552C196.165 62.6154 196.273 62.6467 196.383 62.645C196.526 62.6429 196.664 62.5848 196.765 62.483C196.867 62.3812 196.925 62.2438 196.927 62.0999Z" fill="#0057FF"/>
<path d="M198.872 62.1C198.87 61.9546 198.811 61.8158 198.707 61.7138C198.604 61.6118 198.465 61.5547 198.319 61.5547C198.175 61.5547 198.037 61.6121 197.935 61.7143C197.833 61.8166 197.775 61.9554 197.775 62.1C197.775 62.2446 197.833 62.3832 197.935 62.4855C198.037 62.5877 198.175 62.6451 198.319 62.6451C198.465 62.6452 198.604 62.588 198.707 62.486C198.811 62.384 198.87 62.2453 198.872 62.1Z" fill="#FFB300"/>
<path d="M198.032 64.1904H194.726C194.284 64.1904 193.926 64.5492 193.926 64.9918V70.8738C193.926 71.3164 194.284 71.6752 194.726 71.6752H198.032C198.473 71.6752 198.831 71.3164 198.831 70.8738V64.9918C198.831 64.5492 198.473 64.1904 198.032 64.1904Z" fill="#FFB300"/>
<path d="M214.686 64.1904H201.024C200.583 64.1904 200.225 64.5492 200.225 64.9918V65.1487C200.225 65.5913 200.583 65.9501 201.024 65.9501H214.686C215.128 65.9501 215.486 65.5913 215.486 65.1487V64.9918C215.486 64.5492 215.128 64.1904 214.686 64.1904Z" fill="#FFB300"/>
<path d="M214.686 67.0566H201.024C200.583 67.0566 200.225 67.4154 200.225 67.858V68.015C200.225 68.4575 200.583 68.8163 201.024 68.8163H214.686C215.128 68.8163 215.486 68.4575 215.486 68.015V67.858C215.486 67.4154 215.128 67.0566 214.686 67.0566Z" fill="#FFB300"/>
<path d="M214.686 69.7666H201.024C200.583 69.7666 200.225 70.1254 200.225 70.568V70.7249C200.225 71.1675 200.583 71.5263 201.024 71.5263H214.686C215.128 71.5263 215.486 71.1675 215.486 70.7249V70.568C215.486 70.1254 215.128 69.7666 214.686 69.7666Z" fill="#FFB300"/>
<path d="M92.1605 64.6367C92.1583 61.64 90.9694 58.7667 88.8546 56.6478C86.7399 54.5288 83.8724 53.3374 80.8817 53.3352C80.5849 53.3352 80.288 53.3352 79.9995 53.3352C80.1185 52.6393 80.1793 51.9347 80.1809 51.2286C80.1804 49.1041 79.6312 47.016 78.5867 45.1672C77.5422 43.3184 76.0379 41.772 74.2202 40.6783C72.4024 39.5847 70.3331 38.981 68.2136 38.9261C66.0941 38.8712 63.9965 39.3669 62.1248 40.365C61.2301 37.5684 59.4953 35.1167 57.1576 33.3452C54.82 31.5737 51.9934 30.5687 49.0642 30.4675C46.135 30.3662 43.246 31.1737 40.7921 32.7797C38.3381 34.3856 36.439 36.7115 35.3541 39.4397C32.9941 38.0899 30.3212 37.3862 27.6039 37.3992C19.7467 37.3992 13.3734 43.0417 13.3734 50.006C13.3734 50.0721 13.3734 50.1299 13.3734 50.196C12.7297 50.0698 12.0754 50.0062 11.4194 50.006C5.11218 50.006 -0.0078125 55.6484 -0.0078125 62.6127C-0.0078125 69.4448 4.93899 75.0047 11.0566 75.2112H11.5349L80.791 75.8803H80.9971C83.9585 75.85 86.789 74.6539 88.8777 72.5502C90.9664 70.4465 92.1455 67.6041 92.1605 64.6367Z" fill="white"/>
<ellipse cx="27.5517" cy="51.3301" rx="10.4002" ry="12.1476" transform="rotate(-25.6858 27.5517 51.3301)" fill="#74B7F5" fill-opacity="0.07"/>
<ellipse cx="48.5" cy="48.5" rx="12.5" ry="15.5" fill="#74B7F5" fill-opacity="0.07"/>
<ellipse cx="67.0015" cy="51.9072" rx="10.5" ry="12.1124" transform="rotate(33.8263 67.0015 51.9072)" fill="#74B7F5" fill-opacity="0.07"/>
<ellipse cx="78.6668" cy="63.9077" rx="12.3425" ry="7.7379" transform="rotate(-0.790298 78.6668 63.9077)" fill="#74B7F5" fill-opacity="0.07"/>
<ellipse cx="14" cy="64" rx="12" ry="10" fill="#74B7F5" fill-opacity="0.07"/>
</g>
<defs>
<clipPath id="clip0_945_2626">
<rect width="270" height="108" fill="white"/>
</clipPath>
</defs>
</svg>
