<svg viewBox="0 0 173 96" fill="none" xmlns="http://www.w3.org/2000/svg">
<g clip-path="url(#clip0_945_2551)">
<path d="M163.603 95.3974H9.40114C7.0618 95.3906 4.82089 94.4594 3.17057 92.8084C1.52025 91.1574 0.595535 88.9216 0.599623 86.5921V9.39782C0.595537 7.06881 1.52035 4.83352 3.17082 3.18331C4.82129 1.53311 7.06227 0.603069 9.40114 0.597656H163.603C165.941 0.60442 168.181 1.53506 169.83 3.18512C171.479 4.83518 172.403 7.06969 172.399 9.39782V86.5921C172.405 88.9211 171.481 91.157 169.832 92.8082C168.182 94.4593 165.942 95.3906 163.603 95.3974ZM9.40114 1.48124C7.29928 1.49203 5.28721 2.33071 3.80432 3.81405C2.32143 5.29738 1.48828 7.3048 1.48695 9.39782V86.5921C1.48692 88.686 2.3194 90.6948 3.80244 92.1792C5.28548 93.6636 7.2984 94.503 9.40114 94.5138H163.603C165.706 94.503 167.719 93.6636 169.202 92.1792C170.685 90.6948 171.517 88.686 171.517 86.5921V9.39782C171.516 7.3048 170.683 5.29738 169.2 3.81405C167.717 2.33071 165.705 1.49203 163.603 1.48124H9.40114Z" fill="#F7AA00"/>
<path d="M163.603 96.0102H9.4016C6.9031 96.0034 4.50951 95.0093 2.74664 93.2462C0.983782 91.4832 -0.00407469 89.0953 1.26333e-05 86.6074V9.39773C-0.00271436 6.91065 0.985808 4.52414 2.74852 2.76216C4.51124 1.00018 6.90399 0.00676424 9.4016 0H163.603C166.1 0.0081145 168.492 1.00214 170.253 2.76397C172.015 4.5258 173.003 6.91153 173 9.39773V86.592C173.004 87.8248 172.764 89.0464 172.294 90.1868C171.824 91.3273 171.133 92.3645 170.261 93.239C169.388 94.1136 168.351 94.8084 167.209 95.2839C166.067 95.7594 164.841 96.0062 163.603 96.0102ZM9.4016 2.07874C7.45764 2.08551 5.59575 2.85991 4.22452 4.23206C2.8533 5.6042 2.08474 7.46196 2.08747 9.39773V86.592C2.08474 88.5283 2.85319 90.3866 4.22427 91.7595C5.59535 93.1325 7.45717 93.9081 9.4016 93.9162H163.603C165.548 93.9081 167.41 93.1325 168.781 91.7595C170.152 90.3866 170.92 88.5283 170.918 86.592V9.39773C170.92 7.46196 170.152 5.6042 168.781 4.23206C167.409 2.85991 165.547 2.08551 163.603 2.07874H9.4016Z" fill="#F7AA00"/>
<path d="M18.7322 12.9326C18.7352 12.3117 18.5531 11.7039 18.2089 11.1861C17.8647 10.6684 17.3739 10.2641 16.7987 10.0244C16.2236 9.78468 15.5898 9.72038 14.9779 9.83965C14.366 9.95892 13.8035 10.2564 13.3615 10.6943C12.9195 11.1323 12.618 11.691 12.4952 12.2998C12.3725 12.9085 12.434 13.5398 12.6719 14.1138C12.9098 14.6877 13.3134 15.1783 13.8316 15.5236C14.3498 15.8689 14.9593 16.0532 15.5828 16.0532C16.415 16.0519 17.2129 15.7232 17.8028 15.1386C18.3927 14.5541 18.7268 13.7612 18.7322 12.9326Z" fill="#FC74AF"/>
<path d="M29.7086 12.9326C29.7117 12.3117 29.5295 11.7039 29.1853 11.1861C28.8412 10.6684 28.3504 10.2641 27.7752 10.0244C27.2 9.78468 26.5664 9.72038 25.9545 9.83965C25.3426 9.95892 24.78 10.2564 24.338 10.6943C23.896 11.1323 23.5946 11.691 23.4718 12.2998C23.349 12.9085 23.4105 13.5398 23.6484 14.1138C23.8863 14.6877 24.29 15.1783 24.8082 15.5236C25.3264 15.8689 25.9358 16.0532 26.5593 16.0532C27.3915 16.0519 28.1895 15.7232 28.7794 15.1386C29.3692 14.5541 29.7032 13.7612 29.7086 12.9326Z" fill="#FDDA14"/>
<path d="M40.7243 12.9326C40.7273 12.3115 40.5451 11.7034 40.2007 11.1856C39.8563 10.6678 39.3652 10.2634 38.7897 10.0239C38.2142 9.78433 37.5803 9.72034 36.9682 9.84002C36.3562 9.9597 35.7936 10.2577 35.3518 10.6961C34.9101 11.1346 34.609 11.6938 34.4868 12.3029C34.3646 12.912 34.4268 13.5434 34.6655 14.1173C34.9042 14.6911 35.3085 15.1814 35.8274 15.5261C36.3463 15.8708 36.9564 16.0542 37.5802 16.0532C38.4115 16.0505 39.208 15.7212 39.7967 15.1368C40.3855 14.5525 40.7189 13.7603 40.7243 12.9326Z" fill="#74B7F5"/>
<path d="M11.7758 28.112L5.51317 45.0024C5.46453 45.1341 5.45389 45.2767 5.48249 45.414C5.51108 45.5514 5.57765 45.678 5.67483 45.7796C5.77201 45.8811 5.89581 45.9535 6.03221 45.9886C6.16862 46.0236 6.31217 46.02 6.44658 45.978L29.184 38.7662C29.3217 38.7217 29.4437 38.6386 29.5352 38.5269C29.6268 38.4152 29.6841 38.2795 29.7003 38.1363C29.7165 37.993 29.6911 37.8481 29.6268 37.7188C29.5625 37.5896 29.4622 37.4816 29.3379 37.4076L12.8631 27.7034C12.7667 27.6486 12.6594 27.6156 12.5487 27.6068C12.438 27.5981 12.3267 27.6138 12.2228 27.6529C12.119 27.6919 12.025 27.7533 11.9477 27.8327C11.8704 27.912 11.8118 28.0074 11.7758 28.112Z" fill="#74B7F5"/>
<path d="M41.7972 58.0783C41.8593 58.2573 41.9584 58.4214 42.088 58.56C42.2175 58.6986 42.3747 58.8088 42.5495 58.8833C42.7244 58.9578 42.913 58.9951 43.1031 58.9928C43.2933 58.9905 43.4809 58.9487 43.6539 58.87C47.2499 57.2747 50.1205 54.4031 51.7059 50.815C53.2914 47.2268 53.4781 43.1794 52.2297 39.4616C50.976 35.7423 48.3757 32.6215 44.936 30.7083C41.4964 28.7951 37.4642 28.2266 33.6264 29.1138C33.4409 29.1549 33.2662 29.2343 33.1134 29.3469C32.9606 29.4594 32.8332 29.6026 32.7395 29.7672C32.6457 29.9318 32.5876 30.1142 32.569 30.3025C32.5504 30.4908 32.5716 30.6809 32.6314 30.8606L41.7972 58.0783Z" fill="#F7AA00"/>
<path fill-rule="evenodd" clip-rule="evenodd" d="M71.0997 59.0215V68.1128C71.0997 68.3556 71.1477 68.596 71.241 68.8203C71.3344 69.0446 71.4711 69.2484 71.6435 69.4201C71.8159 69.5918 72.0206 69.728 72.2458 69.8209C72.4711 69.9138 72.7126 69.9617 72.9565 69.9617C73.2003 69.9617 73.4417 69.9138 73.667 69.8209C73.8922 69.728 74.0969 69.5918 74.2693 69.4201C74.4417 69.2484 74.5785 69.0446 74.6718 68.8203C74.7651 68.596 74.8131 68.3556 74.8131 68.1128V59.0215H76.3007V73.5369C76.2348 74.3724 75.8549 75.1524 75.2369 75.7214C74.6189 76.2903 73.8084 76.6063 72.9667 76.6063C72.1251 76.6063 71.3144 76.2903 70.6965 75.7214C70.0785 75.1524 69.6987 74.3724 69.6328 73.5369V59.0215H71.0997Z" fill="#F7AA00"/>
<path fill-rule="evenodd" clip-rule="evenodd" d="M80.7571 59.0215V73.5369C80.7571 75.5972 79.9353 77.5732 78.4722 79.03C77.0092 80.4869 75.0248 81.3054 72.9558 81.3054C70.8867 81.3054 68.9024 80.4869 67.4394 79.03C65.9763 77.5732 65.1543 75.5972 65.1543 73.5369V59.0215H66.6418V73.5369C66.6418 74.3626 66.8051 75.1801 67.1224 75.9429C67.4397 76.7057 67.9048 77.3989 68.4911 77.9827C69.0774 78.5665 69.7734 79.0297 70.5395 79.3456C71.3055 79.6616 72.1266 79.8242 72.9558 79.8242C73.7849 79.8242 74.6059 79.6616 75.372 79.3456C76.138 79.0297 76.834 78.5665 77.4203 77.9827C78.0066 77.3989 78.4717 76.7057 78.789 75.9429C79.1063 75.1801 79.2696 74.3626 79.2696 73.5369V59.0215H80.7571Z" fill="white"/>
<path fill-rule="evenodd" clip-rule="evenodd" d="M141.625 63.2616L144.164 60.7334L150.406 66.9441L156.643 60.7334L159.187 63.2616L152.945 69.4723L159.187 75.6881L156.643 78.2163L150.406 72.0005L144.164 78.2163L141.625 75.6881L147.867 69.4723L141.625 63.2616Z" fill="#74B7F5"/>
<path fill-rule="evenodd" clip-rule="evenodd" d="M142.898 58.6895C143.554 58.6905 144.195 58.8851 144.74 59.2489C145.285 59.6126 145.71 60.129 145.96 60.7329C146.211 61.3369 146.276 62.0011 146.147 62.6418C146.018 63.2825 145.702 63.8708 145.238 64.3325C144.773 64.7941 144.182 65.1083 143.538 65.2354C142.895 65.3625 142.228 65.2968 141.622 65.0465C141.016 64.7962 140.498 64.3727 140.133 63.8293C139.769 63.286 139.574 62.6474 139.574 61.994C139.574 61.5596 139.66 61.1295 139.827 60.7282C139.994 60.327 140.239 59.9624 140.548 59.6555C140.857 59.3486 141.223 59.1053 141.626 58.9395C142.03 58.7738 142.462 58.6888 142.898 58.6895Z" fill="white"/>
<path fill-rule="evenodd" clip-rule="evenodd" d="M157.916 58.6895C158.573 58.6895 159.214 58.8833 159.76 59.2464C160.306 59.6095 160.731 60.1256 160.982 60.7294C161.233 61.3332 161.299 61.9977 161.171 62.6387C161.043 63.2797 160.727 63.8685 160.263 64.3306C159.799 64.7928 159.207 65.1075 158.564 65.235C157.92 65.3625 157.253 65.2971 156.646 65.047C156.04 64.7969 155.522 64.3733 155.157 63.8299C154.792 63.2865 154.598 62.6476 154.598 61.994C154.597 61.5599 154.682 61.1298 154.849 60.7286C155.015 60.3274 155.26 59.9628 155.568 59.6558C155.876 59.3488 156.242 59.1055 156.645 58.9396C157.048 58.7738 157.48 58.6888 157.916 58.6895Z" fill="white"/>
<path fill-rule="evenodd" clip-rule="evenodd" d="M157.916 73.6445C158.573 73.6445 159.214 73.8383 159.76 74.2014C160.306 74.5646 160.731 75.0806 160.982 75.6845C161.233 76.2883 161.299 76.9527 161.171 77.5938C161.043 78.2348 160.727 78.8236 160.263 79.2857C159.799 79.7479 159.207 80.0626 158.564 80.1901C157.92 80.3176 157.253 80.2521 156.646 80.002C156.04 79.7519 155.522 79.3284 155.157 78.785C154.792 78.2415 154.598 77.6026 154.598 76.9491C154.598 76.0726 154.947 75.2321 155.57 74.6124C156.192 73.9927 157.036 73.6445 157.916 73.6445Z" fill="white"/>
<path fill-rule="evenodd" clip-rule="evenodd" d="M142.898 73.6445C143.554 73.6455 144.195 73.8402 144.74 74.2039C145.285 74.5676 145.71 75.0841 145.96 75.688C146.211 76.2919 146.276 76.9562 146.147 77.5969C146.018 78.2376 145.702 78.8259 145.238 79.2875C144.773 79.7491 144.182 80.0634 143.538 80.1905C142.895 80.3176 142.228 80.2518 141.622 80.0016C141.016 79.7513 140.498 79.3277 140.133 78.7844C139.769 78.2411 139.574 77.6024 139.574 76.9491C139.574 76.5147 139.66 76.0845 139.827 75.6833C139.994 75.282 140.239 74.9175 140.548 74.6106C140.857 74.3037 141.223 74.0604 141.626 73.8946C142.03 73.7288 142.462 73.6439 142.898 73.6445Z" fill="white"/>
<path fill-rule="evenodd" clip-rule="evenodd" d="M126.94 59.0215V68.1128C126.965 68.587 127.171 69.0336 127.517 69.3604C127.863 69.6873 128.322 69.8695 128.799 69.8695C129.276 69.8695 129.735 69.6873 130.08 69.3604C130.426 69.0336 130.633 68.587 130.658 68.1128V59.0215H132.141V73.5369C132.075 74.3724 131.695 75.1524 131.077 75.7214C130.459 76.2903 129.648 76.6063 128.807 76.6063C127.965 76.6063 127.154 76.2903 126.536 75.7214C125.918 75.1524 125.539 74.3724 125.473 73.5369V59.0215H126.94Z" fill="#F7AA00"/>
<path fill-rule="evenodd" clip-rule="evenodd" d="M136.605 59.0215V73.5369C136.605 75.5972 135.783 77.5732 134.32 79.03C132.857 80.4869 130.872 81.3054 128.803 81.3054C126.734 81.3054 124.75 80.4869 123.287 79.03C121.824 77.5732 121.002 75.5972 121.002 73.5369V59.0215H122.484V73.5369C122.531 75.174 123.217 76.7285 124.397 77.87C125.576 79.0115 127.156 79.6501 128.801 79.6501C130.446 79.6501 132.025 79.0115 133.205 77.87C134.384 76.7285 135.07 75.174 135.117 73.5369V59.0215H136.605Z" fill="white"/>
<path fill-rule="evenodd" clip-rule="evenodd" d="M88.3791 69.8397C87.5132 70.4726 86.5832 71.0136 85.6043 71.4536L84.4502 71.9899L83.373 69.6915L84.5322 69.1553C87.4661 67.7916 88.8202 66.3257 89.9999 63.3532L90.4615 62.1836L92.8158 63.0825L92.3798 64.2623C91.2411 67.2962 90.4565 70.948 90.9129 74.1963C91.1284 75.7286 91.7951 78.0065 93.4108 78.6194C95.3803 79.3651 97.7397 77.1842 98.904 75.8818L99.7504 74.9369L101.653 76.6224L100.802 77.5724C98.8117 79.7992 95.6727 82.1946 92.5029 80.9893C89.8973 80.0035 88.7484 77.0974 88.3996 74.5436C88.1969 72.9821 88.1969 71.4012 88.3996 69.8397H88.3791Z" fill="#74B7F5"/>
<path fill-rule="evenodd" clip-rule="evenodd" d="M93.6634 51.8311C94.5042 51.8321 95.3258 52.0812 96.0244 52.5471C96.723 53.013 97.2671 53.6746 97.5882 54.4484C97.9092 55.2221 97.9927 56.0733 97.8281 56.8943C97.6634 57.7153 97.258 58.4693 96.6631 59.0609C96.0683 59.6525 95.3107 60.0553 94.486 60.2183C93.6614 60.3812 92.8066 60.2971 92.0299 59.9764C91.2533 59.6558 90.5895 59.1131 90.1225 58.417C89.6555 57.7208 89.4063 56.9023 89.4062 56.0651C89.4076 54.9417 89.8567 53.8648 90.655 53.0709C91.4532 52.277 92.5353 51.8311 93.6634 51.8311Z" fill="white"/>
<path d="M118.355 53.6853C118.595 53.168 118.368 52.555 117.849 52.3162C117.329 52.0774 116.714 52.3032 116.474 52.8205L100.864 86.4912C100.624 87.0085 100.851 87.6215 101.371 87.8603C101.89 88.0991 102.506 87.8734 102.746 87.356L118.355 53.6853Z" fill="#F7AA00"/>
<path d="M21.1343 56.9949L15.9016 61.6724C14.901 62.5669 14.8147 64.0986 15.7087 65.0935L20.3843 70.2967C21.2784 71.2917 22.8143 71.3732 23.8149 70.4787L29.0477 65.8012C30.0483 64.9067 30.1346 63.3751 29.2406 62.3801L24.565 57.1769C23.6709 56.182 22.1349 56.1005 21.1343 56.9949Z" fill="white"/>
</g>
<defs>
<clipPath id="clip0_945_2551">
<rect width="173" height="96" fill="white"/>
</clipPath>
</defs>
</svg>
