<svg width="16" height="12" viewBox="0 0 16 12" fill="none" xmlns="http://www.w3.org/2000/svg">
    <path fill-rule="evenodd" clip-rule="evenodd"
        d="M15.4836 0.780067C15.6629 0.959448 15.7637 1.20271 15.7637 1.45635C15.7637 1.71 15.6629 1.95326 15.4836 2.13264L6.3963 11.2199C6.21692 11.3993 5.97366 11.5 5.72001 11.5C5.46637 11.5 5.22311 11.3993 5.04373 11.2199L0.73922 6.91543C0.564976 6.73502 0.46856 6.49339 0.470739 6.24258C0.472919 5.99178 0.573519 5.75186 0.750873 5.57451C0.928226 5.39715 1.16814 5.29655 1.41895 5.29437C1.66975 5.29219 1.91138 5.38861 2.09179 5.56285L5.72001 9.19108L14.131 0.780067C14.3104 0.60074 14.5537 0.5 14.8073 0.5C15.061 0.5 15.3042 0.60074 15.4836 0.780067Z"
        fill="#3D7A3F" />
</svg>