<svg width="67" height="15" viewBox="0 0 67 15" fill="transparent" xmlns="http://www.w3.org/2000/svg">
    <path
        d="M14.9241 7.46699C14.9204 5.74153 14.3185 4.07073 13.2212 2.73906C12.1238 1.40738 10.5987 0.497183 8.90557 0.163403C7.21244 -0.170377 5.45597 0.0929009 3.93517 0.908433C2.41437 1.72396 1.22326 3.04133 0.564704 4.63621C-0.0938561 6.23109 -0.179162 8.00488 0.323274 9.65559C0.82571 11.3063 1.88483 12.7319 3.32033 13.6896C4.75584 14.6473 6.47897 15.0779 8.19632 14.9081C9.91367 14.7383 11.5191 13.9786 12.7392 12.7584C14.1387 11.3529 14.9244 9.45029 14.9241 7.46699Z"
        fill="white" />
    <path
        d="M40.9167 7.46723C40.9165 6.3635 40.6716 5.27354 40.1997 4.27575C39.7278 3.27797 39.0406 2.39716 38.1875 1.69671C37.3344 0.996253 36.3366 0.493562 35.2659 0.224803C34.1952 -0.0439571 33.0783 -0.0721115 31.9954 0.142378C30.5493 0.433971 29.2216 1.14636 28.1792 2.19001C27.1367 3.23366 26.4259 4.56205 26.1361 6.00831C25.9328 7.02969 25.9455 8.08233 26.1735 9.09849C26.4015 10.1147 26.8397 11.0718 27.46 11.9084C28.0803 12.745 28.869 13.4425 29.7751 13.956C30.6813 14.4696 31.6849 14.7877 32.7215 14.89C33.758 14.9923 34.8045 14.8766 35.7936 14.5501C36.7827 14.2237 37.6925 13.6938 38.4644 12.9946C39.2364 12.2954 39.8534 11.4424 40.2757 10.4905C40.6981 9.5385 40.9164 8.50865 40.9167 7.46723Z"
        fill="white" />
    <path
        d="M67 7.46699C66.9962 5.74153 66.3944 4.07073 65.297 2.73906C64.1996 1.40738 62.6745 0.497183 60.9814 0.163403C59.2883 -0.170377 57.5318 0.0929009 56.011 0.908433C54.4902 1.72396 53.2991 3.04133 52.6405 4.63621C51.982 6.23109 51.8967 8.00488 52.3991 9.65559C52.9015 11.3063 53.9607 12.7319 55.3962 13.6896C56.8317 14.6473 58.5548 15.0779 60.2722 14.9081C61.9895 14.7383 63.5949 13.9786 64.815 12.7584C66.2145 11.3529 67.0002 9.45029 67 7.46699Z"
        fill="white" />
</svg>