<svg xmlns="http://www.w3.org/2000/svg" width="48" height="12" fill="transparent" stroke="#fff">
    <path stroke-miterlimit="10"
        d="M10.877 5.935a4.727 4.727 0 0 0-.793-2.638 4.758 4.758 0 0 0-8.62 1.707 4.729 4.729 0 0 0 .843 3.747 4.748 4.748 0 0 0 3.349 1.895 4.764 4.764 0 0 0 3.657-1.201 4.74 4.74 0 0 0 1.564-3.51ZM29.156 5.936a4.732 4.732 0 0 0-1.084-3.004 4.763 4.763 0 0 0-5.914-1.163 4.745 4.745 0 0 0-2.146 2.368 4.729 4.729 0 0 0 1.755 5.752 4.761 4.761 0 0 0 5.998-.591 4.75 4.75 0 0 0 1.391-3.362ZM47.508 5.936a4.732 4.732 0 0 0-1.085-3.004 4.762 4.762 0 0 0-5.913-1.163 4.744 4.744 0 0 0-2.147 2.368 4.73 4.73 0 0 0 1.755 5.752 4.761 4.761 0 0 0 5.998-.591 4.75 4.75 0 0 0 1.392-3.362Z" />
</svg>