<svg width="33" height="32" viewBox="0 0 33 32" fill="none" xmlns="http://www.w3.org/2000/svg">
<path fill-rule="evenodd" clip-rule="evenodd" d="M24.5954 13.786L27.1177 11.2637C27.8832 10.4983 28.2666 10.1148 28.4716 9.70194C28.6637 9.31427 28.7637 8.88746 28.7637 8.4548C28.7637 8.02214 28.6637 7.59533 28.4716 7.20766C28.2666 6.79476 27.8832 6.41135 27.1177 5.64593C26.3523 4.88051 25.9689 4.4971 25.556 4.29205C25.1683 4.09995 24.7415 4 24.3089 4C23.8762 4 23.4494 4.09995 23.0617 4.29205C22.6488 4.4971 22.2654 4.88051 21.5 5.64593L18.9453 8.2006C20.3043 10.5272 22.2533 12.4539 24.5954 13.786ZM16.9033 10.2427L7.25478 19.8911C6.65649 20.4894 6.35875 20.7872 6.16213 21.1551C5.96551 21.5203 5.88264 21.9346 5.71832 22.7632L4.85319 27.0847C4.7605 27.5509 4.71275 27.7841 4.84617 27.9175C4.97959 28.0509 5.21132 28.0032 5.679 27.9105L10.0005 27.0453C10.8291 26.881 11.2434 26.7982 11.6099 26.6015C11.9751 26.4049 12.2742 26.1072 12.8711 25.5103L22.5477 15.8337C20.2754 14.4111 18.3471 12.502 16.9019 10.2441" fill="#0B1B32" fill-opacity="0.64"/>
</svg>
