<svg width="12" height="6" viewBox="0 0 12 6" fill="none" xmlns="http://www.w3.org/2000/svg">
    <path
        d="M11.7363 4.5637C11.6838 4.59364 11.6259 4.61293 11.566 4.62046C11.506 4.628 11.4452 4.62364 11.3869 4.60763C11.3286 4.59162 11.2741 4.56428 11.2264 4.52717C11.1787 4.49005 11.1388 4.4439 11.109 4.39135L10.0174 2.48394C9.38275 2.91304 8.68269 3.23629 7.9445 3.44109L8.28174 5.46455C8.29169 5.52412 8.28981 5.58506 8.27619 5.6439C8.26258 5.70274 8.2375 5.75832 8.20239 5.80746C8.16728 5.8566 8.12283 5.89834 8.07158 5.93029C8.02033 5.96225 7.96329 5.98379 7.90371 5.99368C7.87921 5.99769 7.85443 5.9998 7.8296 6C7.72087 5.99984 7.61571 5.96113 7.53282 5.89076C7.44994 5.82039 7.39468 5.72291 7.37688 5.61565L7.04538 3.62896C6.3463 3.72624 5.63712 3.72624 4.93804 3.62896L4.60654 5.61565C4.5887 5.7231 4.53328 5.82074 4.45015 5.89113C4.36703 5.96153 4.2616 6.00011 4.15267 6C4.12726 5.99989 4.10191 5.99778 4.07683 5.99368C4.01726 5.98379 3.96021 5.96225 3.90896 5.93029C3.85771 5.89834 3.81327 5.8566 3.77816 5.80746C3.74305 5.75832 3.71797 5.70274 3.70435 5.6439C3.69074 5.58506 3.68885 5.52412 3.6988 5.46455L4.03777 3.44109C3.29987 3.23564 2.6002 2.91181 1.96605 2.48222L0.877909 4.39135C0.84773 4.44393 0.807489 4.49006 0.759483 4.52709C0.711478 4.56413 0.656648 4.59134 0.598124 4.60719C0.5396 4.62303 0.478528 4.6272 0.418395 4.61944C0.358263 4.61168 0.300247 4.59216 0.247661 4.56198C0.195074 4.5318 0.148947 4.49156 0.111912 4.44355C0.0748771 4.39555 0.0476604 4.34072 0.0318158 4.28219C0.0159711 4.22367 0.0118087 4.1626 0.0195663 4.10246C0.0273238 4.04233 0.0468494 3.98432 0.0770282 3.93173L1.22607 1.92091C0.822467 1.57222 0.451338 1.18763 0.117245 0.771871C0.0755798 0.725352 0.0438323 0.670829 0.0239401 0.611631C0.00404783 0.552434 -0.00357192 0.489803 0.00154611 0.427563C0.00666414 0.365323 0.0244126 0.304779 0.0537078 0.249626C0.0830031 0.194473 0.123231 0.145869 0.171935 0.10678C0.22064 0.0676917 0.276799 0.0389387 0.336986 0.0222763C0.397172 0.00561394 0.460123 0.0013916 0.521995 0.0098674C0.583868 0.0183432 0.643364 0.0393393 0.696852 0.0715737C0.75034 0.103808 0.796698 0.146605 0.833096 0.197352C1.7868 1.37741 3.4552 2.78269 5.99113 2.78269C8.52706 2.78269 10.1955 1.37569 11.1492 0.197352C11.1852 0.145566 11.2314 0.101739 11.2851 0.0685971C11.3387 0.035455 11.3986 0.013707 11.461 0.00470614C11.5234 -0.00429473 11.587 -0.000355943 11.6479 0.0162774C11.7087 0.0329108 11.7654 0.0618831 11.8146 0.101392C11.8637 0.1409 11.9042 0.1901 11.9335 0.245929C11.9629 0.301759 11.9804 0.363024 11.985 0.425914C11.9896 0.488803 11.9813 0.551972 11.9604 0.611489C11.9396 0.671006 11.9067 0.725599 11.8639 0.771871C11.5298 1.18763 11.1587 1.57222 10.7551 1.92091L11.9041 3.93173C11.9349 3.98415 11.9551 4.04216 11.9633 4.10242C11.9716 4.16267 11.9678 4.22397 11.9522 4.28275C11.9366 4.34154 11.9095 4.39664 11.8724 4.44486C11.8354 4.49309 11.7891 4.53348 11.7363 4.5637Z"
        fill="#1A1A1A" fill-opacity="0.88" />
</svg>