<svg xmlns="http://www.w3.org/2000/svg" width="20" height="20" fill="#1A1A1A">
    <path fill-rule="evenodd"
        d="M17.437 0H2.563A2.573 2.573 0 0 0 0 2.563v14.874A2.573 2.573 0 0 0 2.563 20h14.873A2.573 2.573 0 0 0 20 17.437V2.563A2.573 2.573 0 0 0 17.437 0ZM6.875 9.659v6.174H4.167V8.042h2.708v1.617ZM5.515 6.88a1.365 1.365 0 1 1 0-2.73 1.365 1.365 0 0 1 0 2.73Zm10.318 4.703v4.25H13.5V12.05c0-.907-.098-2.072-1.34-2.072-1.261 0-1.452.986-1.452 2.006v3.85h-2.25V8.042h2.167v1.041h.023c.323-.583 1.115-1.042 2.294-1.042 1.986 0 2.661.94 2.846 2.409a9 9 0 0 1 .06 1.133h-.015Z"
        clip-rule="evenodd" />
</svg>