<svg xmlns="http://www.w3.org/2000/svg" viewBox="0 0 32 24" fill="none">
    <path fill="#0B1B32"
        d="m.605 2.223 13.757 13.314c.407.394.95.628 1.525.657.575.028 1.14-.15 1.587-.502l.177-.155L31.398 2.232c.045.165.074.333.09.505L31.5 3v18c0 .757-.295 1.486-.827 2.04a3.142 3.142 0 0 1-2.04.953L28.4 24H3.6a3.158 3.158 0 0 1-2.109-.8 2.963 2.963 0 0 1-.983-1.975L.5 21V3c0-.18.015-.354.046-.525l.06-.252ZM28.4 0c.188 0 .372.015.55.047l.264.058-13.206 12.78L2.798.102c.17-.045.346-.075.526-.09L3.6 0h24.8Z" />
</svg>