<svg xmlns="http://www.w3.org/2000/svg" viewBox="0 0 124 121" fill="none">
    <path stroke="#FDCB36"
        d="M123.5 60.5c0 33.126-27.523 60-61.5 60-33.977 0-61.5-26.874-61.5-60C.5 27.374 28.023.5 62 .5c33.977 0 61.5 26.874 61.5 60Z" />
    <path fill="#fff"
        d="M62 40c-4.977 0-9.008 3.924-9.008 8.79v.23h6.142a.821.821 0 0 1 0 1.64h-6.142v1.64h6.142a.821.821 0 0 1 0 1.64h-6.142v1.64h6.142a.821.821 0 0 1 0 1.64h-6.142v1.87c0 4.866 4.03 8.79 9.008 8.79 4.977 0 9.008-3.924 9.008-8.79v-1.87h-6.142a.819.819 0 0 1 0-1.64h6.142v-1.64h-6.142a.819.819 0 0 1 0-1.64h6.142v-1.64h-6.142a.819.819 0 0 1 0-1.64h6.142v-.23c0-4.866-4.03-8.79-9.008-8.79ZM49.563 54.042a.713.713 0 0 0-.563.718v4.1c0 6.326 4.555 11.63 10.544 12.787v4.433h4.913v-4.433C70.445 70.49 75 65.187 75 58.86v-4.1a.716.716 0 1 0-1.433 0v4.1c0 6.397-5.179 11.582-11.567 11.582S50.433 65.257 50.433 58.86v-4.1a.715.715 0 0 0-.233-.538.705.705 0 0 0-.56-.18h-.077Zm4.658 23.678a2.848 2.848 0 0 0-2.84 2.844l-.026.436 21.188-.051.026-.385a2.848 2.848 0 0 0-2.84-2.844H54.22Z" />
</svg>