<svg viewBox="0 0 106 106" fill="none" xmlns="http://www.w3.org/2000/svg">
    <path
        d="M53.0008 105.388C81.9336 105.388 105.388 81.9336 105.388 53.0008C105.388 24.068 81.9336 0.613281 53.0008 0.613281C24.068 0.613281 0.613281 24.068 0.613281 53.0008C0.613281 81.9336 24.068 105.388 53.0008 105.388Z"
        fill="#FDCB36" />
    <path
        d="M75.9148 48.6886L45.9148 32.7136C45.1688 32.321 44.3342 32.127 43.4915 32.1503C42.6488 32.1736 41.8262 32.4134 41.103 32.8466C40.3797 33.2798 39.7802 33.8918 39.3619 34.6238C38.9437 35.3558 38.7208 36.1831 38.7148 37.0261V68.9761C38.7208 69.8191 38.9437 70.6464 39.3619 71.3784C39.7802 72.1104 40.3797 72.7224 41.103 73.1556C41.8262 73.5888 42.6488 73.8286 43.4915 73.8519C44.3342 73.8752 45.1688 73.6812 45.9148 73.2886L75.9148 57.3136C76.7 56.8997 77.3573 56.2793 77.8157 55.5193C78.2742 54.7594 78.5165 53.8887 78.5165 53.0011C78.5165 52.1135 78.2742 51.2428 77.8157 50.4828C77.3573 49.7229 76.7 49.1025 75.9148 48.6886Z"
        fill="#0B1B32" />
</svg>