<svg width="12" height="8" viewBox="0 0 12 8" fill="none" xmlns="http://www.w3.org/2000/svg">
<path fill-rule="evenodd" clip-rule="evenodd" d="M0.420305 1.37988C0.360246 1.38672 0.302629 1.40625 0.249895 1.43652C0.19716 1.4668 0.150774 1.50684 0.113664 1.55469C0.0765548 1.60352 0.0496993 1.6582 0.0340743 1.7168C0.0184493 1.77637 0.014543 1.83691 0.0228438 1.89746C0.0311446 1.95801 0.0511641 2.01562 0.0819259 2.06836L1.23134 4.0791C0.827531 4.42773 0.456438 4.8125 0.122453 5.22852C0.0794845 5.27441 0.0467696 5.3291 0.0257735 5.38867C0.00477742 5.44824 -0.00352336 5.51074 0.00135945 5.57422C0.00575399 5.63672 0.0233321 5.69824 0.052629 5.75391C0.0819259 5.80957 0.122453 5.85938 0.17177 5.89844C0.220598 5.93848 0.277727 5.9668 0.338274 5.9834C0.399309 6 0.462785 6.00391 0.525285 5.99512C0.587785 5.98633 0.647356 5.96484 0.701066 5.93164C0.754777 5.89844 0.801164 5.85449 0.836809 5.80273C1.79091 4.62402 3.45937 3.21777 5.99501 3.21777C8.53114 3.21777 10.1996 4.62305 11.1532 5.80273C11.1893 5.85352 11.2357 5.89648 11.2894 5.92871C11.3427 5.96094 11.4022 5.98145 11.4642 5.99023C11.5263 5.99902 11.5892 5.99414 11.6493 5.97754C11.7094 5.96094 11.7655 5.93262 11.8143 5.89355C11.8632 5.85449 11.9032 5.80566 11.9325 5.75C11.9618 5.69531 11.9794 5.63477 11.9848 5.57227C11.9872 5.54004 11.9862 5.50781 11.9823 5.47656C11.9789 5.44629 11.9721 5.41699 11.9623 5.38867C11.9423 5.3291 11.9105 5.27441 11.869 5.22852C11.5351 4.8125 11.164 4.42773 10.7601 4.0791L11.9091 2.06836C11.9213 2.04688 11.9315 2.02441 11.9403 2.00195C11.953 1.96875 11.9618 1.93359 11.9667 1.89746C11.9711 1.86328 11.9716 1.82812 11.9682 1.79395C11.9657 1.76855 11.9613 1.74316 11.9545 1.71777C11.9384 1.65918 11.9115 1.60449 11.8744 1.55664C11.8461 1.52051 11.8124 1.4873 11.7748 1.46094L11.7387 1.43848C11.6859 1.4082 11.6278 1.38867 11.5678 1.38086C11.5077 1.37305 11.4467 1.37695 11.3881 1.39258C11.3422 1.40527 11.2982 1.4248 11.2587 1.4502L11.2269 1.47266C11.1786 1.50977 11.1386 1.55566 11.1083 1.6084L10.0204 3.51758C9.38612 3.08789 8.68642 2.76465 7.94863 2.55859L8.28749 0.535156C8.29482 0.491211 8.2953 0.447266 8.29042 0.40332L8.28163 0.356445C8.26845 0.296875 8.24306 0.241211 8.2079 0.192383C8.17275 0.143555 8.12831 0.101562 8.07704 0.0693359C8.02577 0.0380859 7.96913 0.0166016 7.90956 0.00585938C7.88417 0.00195312 7.85878 0 7.83339 0C7.7245 0 7.61904 0.0380859 7.53603 0.108398C7.45302 0.179688 7.39736 0.277344 7.37978 0.384766L7.04823 2.37109C6.34902 2.27344 5.64003 2.27344 4.94081 2.37109L4.60927 0.384766C4.59169 0.277344 4.53652 0.179688 4.45351 0.109375C4.3705 0.0390625 4.26552 0 4.15663 0L4.12734 0.000976562L4.08241 0.00585938C4.02284 0.0166016 3.96571 0.0380859 3.91445 0.0693359C3.86318 0.101562 3.81874 0.143555 3.78407 0.192383C3.74892 0.241211 3.72353 0.296875 3.70986 0.356445C3.70204 0.389648 3.69814 0.423828 3.69814 0.458008C3.69814 0.483398 3.70009 0.509766 3.70448 0.535156L4.04189 2.55859C3.30361 2.76367 2.60341 3.08691 1.96864 3.51562L0.877336 1.6084C0.862688 1.58203 0.845109 1.55762 0.825578 1.53516C0.805559 1.5127 0.783586 1.49121 0.75966 1.47266C0.712297 1.43555 0.657609 1.4082 0.599504 1.39258C0.54091 1.37598 0.480363 1.37207 0.420305 1.37988ZM5.99989 8C7.10439 8 7.99989 7.10449 7.99989 6C7.99989 4.89551 7.10439 4 5.99989 4C4.8954 4 3.99989 4.89551 3.99989 6C3.99989 7.10449 4.8954 8 5.99989 8Z" fill="#1A1A1A" fill-opacity="0.88"/>
</svg>
