<svg width="33" height="32" viewBox="0 0 33 32" fill="none" xmlns="http://www.w3.org/2000/svg">
    <path
        d="M8.76351 25.3333C8.76351 26.8 9.96351 28 11.4302 28H22.0968C23.5635 28 24.7635 26.8 24.7635 25.3333V12C24.7635 10.5333 23.5635 9.33333 22.0968 9.33333H11.4302C9.96351 9.33333 8.76351 10.5333 8.76351 12V25.3333ZM24.7635 5.33333H21.4302L20.4835 4.38667C20.2435 4.14667 19.8968 4 19.5502 4H13.9768C13.6302 4 13.2835 4.14667 13.0435 4.38667L12.0968 5.33333H8.76351C8.03018 5.33333 7.43018 5.93333 7.43018 6.66667C7.43018 7.4 8.03018 8 8.76351 8H24.7635C25.4968 8 26.0968 7.4 26.0968 6.66667C26.0968 5.93333 25.4968 5.33333 24.7635 5.33333Z"
        fill="#0B1B32" fill-opacity="0.64" />
</svg>