<svg xmlns="http://www.w3.org/2000/svg" width="245" height="49" fill="none">
    <path fill="#FDCB36"
        d="M10.78 8.82c-.539 0-.98.44-.98.98v15.68h1.96V9.8c0-.54-.44-.98-.98-.98Zm-3.92 2.94c-.539 0-.98.44-.98.98v12.74h1.96V12.74c0-.54-.44-.98-.98-.98Zm7.84 0c-.539 0-.98.44-.98.98v12.74h1.96V12.74c0-.54-.44-.98-.98-.98Zm-11.76 4.9c-.539 0-.98.44-.98.98v7.84h1.96v-7.84c0-.54-.44-.98-.98-.98Zm15.68 0c-.539 0-.98.44-.98.98v7.84h1.96v-7.84c0-.54-.44-.98-.98-.98Zm3.92 4.9c-.539 0-.98.44-.98.98v2.94h1.96v-2.94c0-.54-.44-.98-.98-.98Zm2.94 4.9v2.94c0 .54.441.98.98.98.54 0 .98-.44.98-.98v-2.94h-1.96Zm3.92 0v7.84c0 .54.441.98.98.98.54 0 .98-.44.98-.98v-7.84H29.4Zm3.92 0v13.72c0 .54.441.98.98.98.54 0 .98-.44.98-.98V26.46h-1.96Zm3.92 0v15.68c0 .54.441.98.98.98.54 0 .98-.44.98-.98V26.46h-1.96Zm3.92 0v13.72c0 .54.441.98.98.98.54 0 .98-.44.98-.98V26.46h-1.96Zm3.92 0v7.84c0 .54.441.98.98.98.54 0 .98-.44.98-.98v-7.84h-1.96ZM59.78 8.82c-.539 0-.98.44-.98.98v15.68h1.96V9.8c0-.54-.44-.98-.98-.98Zm-3.92 2.94c-.539 0-.98.44-.98.98v12.74h1.96V12.74c0-.54-.44-.98-.98-.98Zm7.84 0c-.539 0-.98.44-.98.98v12.74h1.96V12.74c0-.54-.44-.98-.98-.98Zm-11.76 4.9c-.539 0-.98.44-.98.98v7.84h1.96v-7.84c0-.54-.44-.98-.98-.98Zm15.68 0c-.539 0-.98.44-.98.98v7.84h1.96v-7.84c0-.54-.44-.98-.98-.98Zm3.92 4.9c-.539 0-.98.44-.98.98v2.94h1.96v-2.94c0-.54-.44-.98-.98-.98Zm2.94 4.9v2.94c0 .54.441.98.98.98.54 0 .98-.44.98-.98v-2.94h-1.96Zm3.92 0v7.84c0 .54.441.98.98.98.54 0 .98-.44.98-.98v-7.84H78.4Zm3.92 0v13.72c0 .54.441.98.98.98.54 0 .98-.44.98-.98V26.46h-1.96Zm3.92 0v15.68c0 .54.441.98.98.98.54 0 .98-.44.98-.98V26.46h-1.96Zm3.92 0v13.72c0 .54.441.98.98.98.54 0 .98-.44.98-.98V26.46h-1.96Zm3.92 0v7.84c0 .54.441.98.98.98.54 0 .98-.44.98-.98v-7.84h-1.96ZM108.781 8.82c-.54 0-.98.44-.98.98v15.68h1.96V9.8c0-.54-.44-.98-.98-.98Zm-3.92 2.94c-.54 0-.98.44-.98.98v12.74h1.96V12.74c0-.54-.44-.98-.98-.98Zm7.84 0c-.54 0-.98.44-.98.98v12.74h1.96V12.74c0-.54-.44-.98-.98-.98Zm-11.76 4.9c-.54 0-.98.44-.98.98v7.84h1.96v-7.84c0-.54-.44-.98-.98-.98Zm15.68 0c-.54 0-.98.44-.98.98v7.84h1.96v-7.84c0-.54-.44-.98-.98-.98Zm3.92 4.9c-.54 0-.98.44-.98.98v2.94h1.96v-2.94c0-.54-.44-.98-.98-.98Zm2.94 4.9v2.94c0 .54.44.98.98.98s.98-.44.98-.98v-2.94h-1.96Zm3.92 0v7.84c0 .54.44.98.98.98s.98-.44.98-.98v-7.84h-1.96Zm3.92 0v13.72c0 .54.44.98.98.98s.98-.44.98-.98V26.46h-1.96Zm3.92 0v15.68c0 .54.44.98.98.98s.98-.44.98-.98V26.46h-1.96Zm3.92 0v13.72c0 .54.44.98.98.98s.98-.44.98-.98V26.46h-1.96Zm3.92 0v7.84c0 .54.44.98.98.98s.98-.44.98-.98v-7.84h-1.96ZM157.781 8.82c-.54 0-.98.44-.98.98v15.68h1.96V9.8c0-.54-.44-.98-.98-.98Zm-3.92 2.94c-.54 0-.98.44-.98.98v12.74h1.96V12.74c0-.54-.44-.98-.98-.98Zm7.84 0c-.54 0-.98.44-.98.98v12.74h1.96V12.74c0-.54-.44-.98-.98-.98Zm-11.76 4.9c-.54 0-.98.44-.98.98v7.84h1.96v-7.84c0-.54-.44-.98-.98-.98Zm15.68 0c-.54 0-.98.44-.98.98v7.84h1.96v-7.84c0-.54-.44-.98-.98-.98Zm3.92 4.9c-.54 0-.98.44-.98.98v2.94h1.96v-2.94c0-.54-.44-.98-.98-.98Zm2.94 4.9v2.94c0 .54.44.98.98.98s.98-.44.98-.98v-2.94h-1.96Zm3.92 0v7.84c0 .54.44.98.98.98s.98-.44.98-.98v-7.84h-1.96Zm3.92 0v13.72c0 .54.44.98.98.98s.98-.44.98-.98V26.46h-1.96Zm3.92 0v15.68c0 .54.44.98.98.98s.98-.44.98-.98V26.46h-1.96Zm3.92 0v13.72c0 .54.44.98.98.98s.98-.44.98-.98V26.46h-1.96Zm3.92 0v7.84c0 .54.44.98.98.98s.98-.44.98-.98v-7.84h-1.96ZM206.781 8.82c-.54 0-.98.44-.98.98v15.68h1.96V9.8c0-.54-.44-.98-.98-.98Zm-3.92 2.94c-.54 0-.98.44-.98.98v12.74h1.96V12.74c0-.54-.44-.98-.98-.98Zm7.84 0c-.54 0-.98.44-.98.98v12.74h1.96V12.74c0-.54-.44-.98-.98-.98Zm-11.76 4.9c-.54 0-.98.44-.98.98v7.84h1.96v-7.84c0-.54-.44-.98-.98-.98Zm15.68 0c-.54 0-.98.44-.98.98v7.84h1.96v-7.84c0-.54-.44-.98-.98-.98Zm3.92 4.9c-.54 0-.98.44-.98.98v2.94h1.96v-2.94c0-.54-.44-.98-.98-.98Zm2.94 4.9v2.94c0 .54.44.98.98.98s.98-.44.98-.98v-2.94h-1.96Zm3.92 0v7.84c0 .54.44.98.98.98s.98-.44.98-.98v-7.84h-1.96Zm3.92 0v13.72c0 .54.44.98.98.98s.98-.44.98-.98V26.46h-1.96Zm3.92 0v15.68c0 .54.44.98.98.98s.98-.44.98-.98V26.46h-1.96Zm3.92 0v13.72c0 .54.44.98.98.98s.98-.44.98-.98V26.46h-1.96Zm3.92 0v7.84c0 .54.44.98.98.98s.98-.44.98-.98v-7.84h-1.96Z" />
</svg>