<svg xmlns="http://www.w3.org/2000/svg" width="64" height="37" fill="#FFB401">
    <path fill-rule="evenodd"
        d="M.037 1.43v5.58c0 .637.557 1.258 1.193 1.258h2.211c.653 0 1.193-.637 1.193-1.165V4.585h6.92c3.038 0 3.69 4.227.557 5.051-.923.264-10.054-.093-10.976.093C-.25 10.087.02 11.082.02 12.698c0 1.616 2.482 1.166 3.5 1.166 1.575 0 8.574-.094 9.496.093.732.093 1.194.357 1.575.808 1.575 1.539.27 4.228-1.654 4.228H4.634v-2.518c0-.715-.652-1.26-1.384-1.26H1.405c-.827 0-1.384.638-1.384 1.353v5.58c0 .45.27.808.557 1.088.366.264.827.186 1.48.186 1.113 0 2.21.093 3.324.093h7c2.576 0 4.883-1.088 6.171-3.248 1.384-2.347 1.384-5.222-.19-7.383-.367-.543-.923-1.165-1.48-1.538.095-.093.19-.264.366-.45.556-.638.556-.81.922-1.54 1.193-2.517.366-5.58-1.384-7.289C15.674.901 14.02 0 12.174 0H1.405C.578.078.037.622.037 1.43ZM44.784 1.585v20.33c0 .839.78 1.585 1.559 1.585h16.05c.684 0 1.257-.653 1.257-1.399v-1.865c0-.373-.096-.746-.382-1.026-.191-.186-.589-.466-.97-.466H49.746V4.663h12.646c.78 0 1.368-.653 1.368-1.4V1.493C63.665.652 63.379 0 62.504 0H46.247c-.19 0-.382.093-.588.187-.096.093-.382.28-.493.373a1.619 1.619 0 0 0-.382 1.025ZM22.816 1.868v19.8c0 1.027.684 1.866 1.543 1.866h15.986c.684 0 1.257-.653 1.257-1.212v-2.238c0-.653-.684-1.213-1.256-1.213H27.747V4.666H40.25c.78 0 1.448-.56 1.448-1.213V1.231c0-.28-.191-.653-.382-.84-.096-.093-.589-.372-.78-.372H24.36c-.875 0-1.543.839-1.543 1.85Z"
        clip-rule="evenodd" />
    <path fill-rule="evenodd"
        d="M30.181 14.05h9.036c.652 0 1.193-.637 1.193-1.165v-2.176c0-.638-.652-1.166-1.193-1.166H30.18v4.507ZM52.117 14.05h9.035c.732 0 1.289-.637 1.289-1.352 0-.995.27-3.155-1.193-3.155h-9.035l-.096 4.507ZM37.975 28.551v1.897c0 .543.652.45 1.114.45.652 0 .461-.637.461-1.259.732 0 2.482-.093 2.863.187.557.45.366 1.445-.365 1.538-1.114.094-4.057-.357-4.057.358 0 1.352-.19 1.088 3.69 1.088.732 0 1.194 0 1.48.544.19.544-.19 1.166-.652 1.166h-2.863c0-1.353.095-1.166-1.193-1.166-.191 0-.366.264-.366.45v1.99c0 .187.27.358.556.358h3.69c.733 0 1.29-.265 1.655-.638a2.304 2.304 0 0 0 .462-2.704c-.191-.358-.366-.544-.653-.808.27-.45.557-.808.557-1.539 0-1.259-1.113-2.347-2.402-2.347h-3.595c-.207-.015-.382.156-.382.435ZM20.844 35.25c0 .854 1.272.947 1.654.481.19-.186.588-1.523.684-1.818.095-.389.286-.762.398-1.244.095-.481.286-.854.397-1.243l1.368 3.808c.398.855.287.855 1.464.855.78 0 .875-.762 1.081-1.43l1.178-3.808c.095-.389.588-1.71.588-2.005 0-.668-.97-.855-1.463-.389-.191.187-1.56 4.383-1.655 4.772-.19-.187-.397-1.057-.493-1.337l-.875-2.58c-.397-1.057-.397-1.057-1.368-1.057-.588 0-.78.855-.97 1.524-.19.668-.493 1.336-.684 1.911-.19.668-.493 1.244-.684 1.912-.048-.062-.62 1.554-.62 1.647ZM30.817 28.817v6.76c0 .358.27.544.557.544h5.075c.652 0 .556-.637.556-1.165 0-.264-.19-.45-.46-.45h-4.153v-4.772h4.152c.557 0 .461-.638.461-1.166 0-.264-.19-.45-.46-.45h-5.25c-.287.155-.478.341-.478.699Z"
        clip-rule="evenodd" />
    <path fill-rule="evenodd"
        d="M32.95 33.058h3.133c.557 0 .461-.638.461-1.088 0-.358-.27-.544-.652-.544h-2.943v1.632ZM18.203 28.77c0 .093.287 1.616.589 1.818.397.482 1.463.388 1.75-.093.19-.389-.191-1.43-.287-1.819-.19-.668-.588-.575-1.272-.575-.494 0-.78.28-.78.668Z"
        clip-rule="evenodd" />
</svg>