<svg  viewBox="0 0 866 497" preserveAspectRatio="xMidYMid" fill="none" xmlns="http://www.w3.org/2000/svg">
<path d="M819.852 495.225H46.1483C21.7855 495.225 2 474.7 2 449.426V47.7995C2 22.5255 21.7855 2 46.1483 2H819.852C844.214 2 864 22.5255 864 47.7995V449.426C864 474.7 844.214 495.225 819.852 495.225ZM46.1483 6.59526C24.2956 6.59526 6.4296 25.1295 6.4296 47.7995V449.426C6.4296 472.096 24.2956 490.63 46.1483 490.63H819.852C841.704 490.63 859.57 472.096 859.57 449.426V47.7995C859.57 25.1295 841.704 6.59526 819.852 6.59526H46.1483Z" fill="#F7AA00" stroke="#F7AA00" stroke-width="3" stroke-miterlimit="10"/>
<path d="M81.986 58.6992C81.986 53.0814 77.3585 48.4321 71.6705 48.4321C65.9825 48.4321 61.355 52.9845 61.355 58.6992C61.355 64.3171 65.9825 68.9663 71.6705 68.9663C77.3585 68.9663 81.986 64.4139 81.986 58.6992Z" fill="#FC74AF"/>
<path d="M117.946 58.6987C117.946 53.0809 113.318 48.4316 107.63 48.4316C101.942 48.4316 97.3149 52.984 97.3149 58.6987C97.3149 64.3166 101.942 68.9658 107.63 68.9658C113.318 68.9658 117.946 64.4134 117.946 58.6987Z" fill="#FDDA14"/>
<path d="M154 58.6987C154 53.0809 149.373 48.4316 143.685 48.4316C137.997 48.4316 133.369 52.984 133.369 58.6987C133.369 64.3166 137.997 68.9658 143.685 68.9658C149.373 68.9658 154 64.4134 154 58.6987Z" fill="#74B7F5"/>
</svg>
