<svg xmlns="http://www.w3.org/2000/svg" width="292" height="204" fill="none">
    <g clip-path="url(#a)">
        <path fill="#fff" fill-opacity=".3"
            d="M101.56 202.69c-66.034-2.631-74.181-86.428-39.018-138.517C92.25 20.091 109.935 1.403 142.418.052c54.885-2.267 98.091 62.77 109.853 118.55 17.114 81.072-7.481 89.589-150.711 84.088Z" />
        <circle cx="68" cy="26" r="26" fill="#FFBB1C" />
        <path fill="#fff"
            d="M68 24a4 4 0 1 0 0-8 4 4 0 0 0 0 8Zm2.667-4a2.667 2.667 0 1 1-5.334 0 2.667 2.667 0 0 1 5.334 0ZM76 30.667C76 32 74.667 32 74.667 32H61.333S60 32 60 30.667c0-1.334 1.333-5.334 8-5.334s8 4 8 5.334Zm-1.333-.006c-.002-.328-.206-1.314-1.11-2.218-.869-.87-2.505-1.776-5.557-1.776-3.053 0-4.688.906-5.557 1.776-.904.904-1.107 1.89-1.11 2.218h13.334Z" />
    </g>
    <g clip-path="url(#b)">
        <path fill="#fff" fill-opacity=".07"
            d="M96.852 199.761c-60.851-2.364-68.325-79.187-35.97-126.936 27.368-40.408 43.655-57.538 73.569-58.768 50.545-2.088 90.334 57.529 101.167 108.671 15.789 74.306-6.871 82.113-138.766 77.033Z" />
        <path fill="#FFB300"
            d="M109.215 61.844a26.095 26.095 0 0 1 7.688-18.49 26.301 26.301 0 0 1 18.561-7.658 26.299 26.299 0 0 1 18.56 7.659 26.095 26.095 0 0 1 7.688 18.489" />
        <path fill="#0B1B32"
            d="M161.953 61.844h-.565a25.823 25.823 0 0 0-7.779-17.972 26.023 26.023 0 0 0-18.187-7.403 26.025 26.025 0 0 0-18.188 7.403 25.827 25.827 0 0 0-7.779 17.972h-.564a26.386 26.386 0 0 1 7.946-18.366 26.589 26.589 0 0 1 18.585-7.566c6.95 0 13.623 2.717 18.584 7.566a26.382 26.382 0 0 1 7.947 18.366Z" />
        <path fill="#FFB300" d="M161.732 61.92h-52.517v52.305h52.564l-.047-52.305Z" />
        <path fill="#0B1B32"
            d="M162.02 114.511h-53.129V61.634h53.129v52.877Zm-52.565-.562h51.991V62.206h-51.991v51.743Z" />
        <path fill="#0B1B32" d="M161.846 87.648h-52.842v.563h52.842v-.563Z" />
        <path fill="#0B1B32" d="M135.733 61.853h-.565v52.534h.565V61.853Z" />
        <path fill="#FFB300"
            d="M132.641 109.526c-1.436-.324-1.196 1.515-1.196 1.515a40.162 40.162 0 0 1 5.741-.162s-3.091-1.039-4.545-1.353Z" />
        <path fill="#FFB300"
            d="M130.087 112.395c.957 0 1.215-.496 1.598-2.393.163-.8 2.66-.257 4 .639 1.34.896 4.584-.82 5.837-.877 3.196-.162 8.613.477 18.182-.162-.144.248-1.598 2.231-1.282 2.707 18.717 3.032 29.272 11.487 29.272 11.487 4-11.163 5.541-22.878-3.923-38.35-7.512-12.278-21.742-18.178-28.306-18.178-7.656 0-11.914 12.335-5.598 20.733 5.741 7.626 8.794 11.153 11.483 11.792 0 0-2.239-.477-7.359 1.115-5.119 1.592-14.354 5.148-21.11 6.063-3.435.477-3.273 4.309-2.794 5.424Z" />
        <path fill="#FFB300"
            d="M128.01 112.548s-.641.638-1.119.486c-.766-.258.296-2.793.631-3.356.488-.791 1.608-1.43 3.78-2.097" />
        <path fill="#0B1B32"
            d="M126.813 113.253a.587.587 0 0 1-.23-.143.524.524 0 0 1-.143-.229c-.316-.848.65-2.936.88-3.327.517-.858 1.694-1.525 3.904-2.202a.238.238 0 0 1 .182 0 .245.245 0 0 1 .125.134.258.258 0 0 1-.163.305c-2.067.629-3.187 1.248-3.636 1.992-.354.591-1.043 2.374-.843 2.917a.148.148 0 0 0 .029.052.15.15 0 0 0 .048.034c.249.086.699-.248.871-.42a.24.24 0 0 1 .172-.076.263.263 0 0 1 .162.077.26.26 0 0 1 .077.161.23.23 0 0 1-.076.172 1.921 1.921 0 0 1-1.12.572.665.665 0 0 1-.239-.019Z" />
        <path fill="#FFB300" d="M129.828 110.794c-.076.781-1.665 2.716-1.818 1.601-.153-1.115.794-3.67 3.512-4.947" />
        <path fill="#0B1B32"
            d="M127.77 112.424c-.162-1.135.737-3.813 3.646-5.196a.265.265 0 0 1 .192 0 .243.243 0 0 1 .134.124.266.266 0 0 1-.125.324c-2.651 1.24-3.521 3.709-3.387 4.69a.501.501 0 0 0 0 .134.49.49 0 0 0 .268-.143c.496-.41.859-.957 1.043-1.573a.241.241 0 0 1 .086-.162.317.317 0 0 1 .182-.057.268.268 0 0 1 .162.095.21.21 0 0 1 0 .172c-.067.667-1.11 2.135-1.78 2.144-.048-.009-.354-.104-.421-.552Z" />
        <path fill="#fff"
            d="M173.962 104.292c.765 4.366-6.355 4.767-6.355 4.767 5.627-1.592 3.981-10.686 3.254-15.72 2.794 7.312 2.325 6.54 3.101 10.953ZM157.062 100.136c-2.134.334-14.067 4.433-20.679 6.206 3.407-.62 3.311 0 7.148-.172 3.837-.171 13.235-3.327 13.235-3.327a5.986 5.986 0 0 1 .296-2.707ZM174.468 133.195c-13.129.2-19.837-1.592-25.234-3.413-5.397-1.82-7.952-1.601-7.952-1.601 2.392 8.131 14.555 23.593 14.555 23.593s-7.196 5.262-9.761 6.854c-9.435-7.626-27.062-36.948-18.555-42.725 3.522-2.393 15.837-3.985 27.349-3.813 8.833.124 27.273 6.94 32.795 11.715-3.761 7.007-2.326 9.237-13.197 9.39Z" />
        <path fill="#FFB300"
            d="M134.65 79.298c.345 1.401-.354 1.954.345 2.517.698.562 1.473.295 2.871-.2a10.554 10.554 0 0 0 9.148-.067l3.608-12.393c.153-2.774-1.522-6.958-10.201-7.626-8.68-.667-10.632 5.024-10.632 8.37.029 1.983 1.589 6.282 4.861 9.399Z" />
        <path fill="#fff"
            d="M154.191 67.392c-5.799 1.906-5.876 5.3-6.996 8.808.957-1.44 2.565-3.508 7.197-5.424 4.631-1.916 13.894.639 13.894.639s-9.971-5.339-14.095-4.023Z" />
        <path fill="#FFB300"
            d="M146.057 112.281c-5.378.438-15.417 1.468-18.814 3.813-3.397 2.345-1.521 8.941-1.521 8.941-.125-9.895 9.875-10.19 12.114-9.714 2.24.477 2.24-.162 5.924-1.277s6.698-.152 11.033 1.277c4.335 1.43 6.077 0 9.302-1.649-5.579-1.954-12.66-1.839-18.038-1.391ZM146.718 177.76c2.402.638 6.698-6.054 8.478-7.626 1.78-1.573 5.12-2.546 6.393-3.813 1.272-1.268 1.157-3.661 0-5.262a14.595 14.595 0 0 0-5.914-4.309l-2.335-3.136-5.397 3.813 1.081 1.001a4.755 4.755 0 0 1 1.32 2.068c.249.797.288 1.643.115 2.46a61.135 61.135 0 0 0-.545 2.859 17.027 17.027 0 0 1-4 8.58c-.794.819-1.598 2.726.804 3.365Z" />
        <path fill="#0B1B32"
            d="m152.881 131.269-.861-.286c-4.718-1.63-9.57-3.317-14.354-2.573a.244.244 0 0 1-.162-.054.238.238 0 0 1 .085-.413c4.9-.763 9.837.953 14.622 2.583l.852.295c5.971 2.05 15.311 2.164 20.383 2.059h2.076c6.325 0 8.689-.057 12.258-10.018 4.144-11.554 5.024-22.306-4.133-37.263a40.054 40.054 0 0 0-14.422-13.603c-4.851-2.755-10.095-4.452-13.684-4.452-2.871 0-5.406 1.792-6.976 4.91a15.037 15.037 0 0 0 1.57 15.433c5.598 7.435 8.727 11.086 11.378 11.706a.261.261 0 0 1 .153.105.217.217 0 0 1 0 .18.233.233 0 0 1-.036.089.213.213 0 0 1-.07.064.127.127 0 0 1-.086 0h-.095s-2.259-.438-7.235 1.116c-1.215.371-2.689.877-4.258 1.401-5.235 1.763-11.742 3.965-16.89 4.661a3.126 3.126 0 0 0-1.399.473 3.091 3.091 0 0 0-1.022 1.062 4.671 4.671 0 0 0-.326 3.403c.613-.048.842-.4 1.197-2.192a.642.642 0 0 1 .421-.448c.957-.382 3.54.133 4.784.953.842.553 2.067.076 3.149-.343a5.933 5.933 0 0 1 1.665-.496c1.091-.057 2.689 0 4.708 0 3.981.048 9.426.114 15.761-.305 9.244-.62 11.167-1.668 11.779-3.661.316-1.01-.325-5.814-2.65-11.439-2.077-4.966-6.058-11.906-13.244-16.71a.252.252 0 0 1-.096-.153.237.237 0 0 1 0-.18.258.258 0 0 1 .153-.096.24.24 0 0 1 .182 0c7.282 4.871 11.321 11.897 13.397 16.93 2.412 5.767 3.014 10.619 2.67 11.725-.689 2.24-2.622 3.355-12.211 3.994-6.354.419-11.808.353-15.789.305h-4.679a5.901 5.901 0 0 0-1.522.457c-1.187.468-2.536.954-3.589.305a6.87 6.87 0 0 0-4.296-.896c-.077 0-.125.067-.125.105-.373 1.831-.641 2.584-1.837 2.584a.336.336 0 0 1-.134 0 .302.302 0 0 1-.086-.105 5.038 5.038 0 0 1 .297-3.985 3.537 3.537 0 0 1 2.765-1.773c5.101-.696 11.589-2.86 16.804-4.642 1.569-.525 3.053-1.03 4.268-1.411a23.715 23.715 0 0 1 6.019-1.182c-2.488-1.354-5.426-4.88-10.297-11.353a15.521 15.521 0 0 1-1.617-15.929c1.656-3.299 4.354-5.186 7.407-5.186 3.665 0 8.995 1.735 13.914 4.519a40.399 40.399 0 0 1 14.603 13.774c9.253 15.119 8.363 25.995 4.172 37.673-3.675 10.276-6.325 10.295-12.708 10.342h-4.641c-5.263.058-12.823-.295-17.962-2.059Z" />
        <path fill="#0B1B32"
            d="M146.077 158.866a.24.24 0 0 1-.153-.057c-7.99-6.473-21.32-27.74-20.88-38.083.096-2.345.89-4.032 2.344-5.023 3.436-2.336 15.512-4.042 27.493-3.87 4.201.057 10.679 1.496 17.321 3.813 6.803 2.421 12.44 5.3 15.617 7.912.045.044.075.1.086.162a.302.302 0 0 1-.057.181.315.315 0 0 1-.163.086.313.313 0 0 1-.182-.058c-6.354-5.319-23.732-11.534-32.631-11.658-11.895-.162-23.847 1.497-27.206 3.813-1.33.953-2.048 2.469-2.144 4.661-.43 10.162 12.641 31.029 20.574 37.578 2.393-1.506 8.24-5.767 9.398-6.606-1.417-1.821-12.201-15.891-14.441-23.479a.17.17 0 0 1 0-.095.174.174 0 0 1 0-.096.125.125 0 0 1 .058-.066.235.235 0 0 1 .086-.048h.182c.027.017.05.04.067.067a.242.242 0 0 1 0 .076c2.354 7.998 14.354 23.364 14.507 23.517a.412.412 0 0 1 0 .086.378.378 0 0 1 0 .095.303.303 0 0 1 0 .095l-.057.067c-.077.057-7.235 5.291-9.78 6.863a.191.191 0 0 1-.125 0l.086.067Z" />
        <path fill="#0B1B32"
            d="M147.052 178.046a1.852 1.852 0 0 1-.392-.048c-1.196-.324-1.598-.953-1.723-1.411a2.594 2.594 0 0 1 .814-2.345 16.715 16.715 0 0 0 3.933-8.474c.182-1.106.364-2.088.536-2.908a4.537 4.537 0 0 0-1.359-4.299l-1.081-.953a.239.239 0 0 1-.077-.172.243.243 0 0 1 .067-.171.33.33 0 0 1 .163-.077.231.231 0 0 1 .172.067l1.081.953a5.077 5.077 0 0 1 1.503 4.767c-.173.81-.354 1.782-.536 2.859a17.28 17.28 0 0 1-4.067 8.742 2.167 2.167 0 0 0-.689 1.906c.134.506.603.858 1.378 1.068 1.569.419 4.373-3.003 6.22-5.272a24.457 24.457 0 0 1 2.038-2.326 15.444 15.444 0 0 1 3.541-2.125c1.032-.429 1.998-1 2.871-1.697 1.138-1.134 1.129-3.356 0-4.947a14.354 14.354 0 0 0-5.809-4.223.302.302 0 0 1-.105-.086l-2.335-3.136a.179.179 0 0 1 0-.086.31.31 0 0 1 0-.096v-.085l.067-.067.086-.048h.182a.13.13 0 0 1 .067.058l2.296 3.088a14.579 14.579 0 0 1 5.962 4.356c1.282 1.783 1.273 4.281 0 5.577a11.843 11.843 0 0 1-2.976 1.783 14.98 14.98 0 0 0-3.426 2.049 23.671 23.671 0 0 0-1.99 2.278c-2.01 2.46-4.479 5.482-6.316 5.482l-.096.019ZM142.306 82.863a10.162 10.162 0 0 1-5.196-1.401c-5.254-3.06-7.531-9.19-7.531-11.649a8.745 8.745 0 0 1 .666-3.457 8.793 8.793 0 0 1 1.975-2.92c1.914-1.764 4.689-2.517 8.249-2.23 3.923.314 6.803 1.372 8.564 3.126a6.271 6.271 0 0 1 1.914 4.766.255.255 0 0 1 0 .095.203.203 0 0 1-.057.077l-.077.047h-.182l-.076-.057a.41.41 0 0 1 0-.086.247.247 0 0 1 0-.085c.105-1.983-.651-6.673-9.981-7.417-3.426-.267-6.077.439-7.885 2.107a8.251 8.251 0 0 0-2.488 6.024c0 2.517 2.44 8.408 7.292 11.24a10.325 10.325 0 0 0 9.569.285.24.24 0 0 1 .182 0 .22.22 0 0 1 .143.115.218.218 0 0 1 0 .181.273.273 0 0 1-.114.143 10.994 10.994 0 0 1-4.852 1.106l-.115-.01Z" />
        <path fill="#0B1B32"
            d="M144.372 74.103a.237.237 0 0 1-.228-.168.245.245 0 0 1-.001-.147.224.224 0 0 1 .086-.124 1.652 1.652 0 0 0 .746-2.087 2.048 2.048 0 0 0-.777-.992 2.065 2.065 0 0 0-1.213-.352c-.737.104-1.206.905-1.321 2.25a.2.2 0 0 1-.077.161.208.208 0 0 1-.181.057.24.24 0 0 1-.163-.076.288.288 0 0 1-.057-.18c.172-2.136 1.157-2.603 1.732-2.69a2.56 2.56 0 0 1 2.507 1.64 2.163 2.163 0 0 1-.957 2.66.242.242 0 0 1-.144.048h.048Z" />
        <path fill="#0B1B32"
            d="M130.67 73.845a.2.2 0 0 1-.076-.057.195.195 0 0 1 0-.076.305.305 0 0 1 0-.096.308.308 0 0 1 0-.085c.01-.031.03-.058.057-.077l.077-.047h.191c1.244.62 1.493.152 1.914-.706a3.063 3.063 0 0 1 2.096-1.906c2.564-.572 6.469.886 6.631.953.056.03.1.076.125.134a.265.265 0 0 1 0 .171.238.238 0 0 1-.125.134.21.21 0 0 1-.172 0s-3.933-1.468-6.354-.954a2.606 2.606 0 0 0-1.77 1.63c-.335.62-.67 1.25-1.455 1.25-.395-.001-.785-.093-1.139-.268Z" />
        <path fill="#fff"
            d="M135.417 78.602c.698.143 1.119-.276 1.818-1.115.699-.84.957-1.907.699-2.23-.259-.325-.957-.21-1.914.838-.603.553-1.302 2.374-.603 2.507Z" />
        <path fill="#0B1B32"
            d="M145.206 73.407a.248.248 0 0 1-.239-.229.244.244 0 0 1 .015-.093.244.244 0 0 1 .052-.078.202.202 0 0 1 .153-.077 5.024 5.024 0 0 0 2.871-1.372.198.198 0 0 1 .163-.077.234.234 0 0 1 .172.067.201.201 0 0 1 .076.162.23.23 0 0 1-.067.172 5.337 5.337 0 0 1-3.205 1.525h.009ZM135.675 78.869c-.102.01-.204.01-.306 0a.56.56 0 0 1-.45-.42 3.455 3.455 0 0 1 .881-2.497c1.368-1.363 2.028-1.106 2.306-.839.44.448 0 1.745-.689 2.555s-1.081 1.23-1.742 1.23v-.029Zm.469-2.602a3.04 3.04 0 0 0-.765 2.011c0 .076.057.086.086.095.526.105.861-.171 1.588-1.039a2.411 2.411 0 0 0 .708-1.906.198.198 0 0 0-.095-.057h-.106c-.277-.02-.765.247-1.416.896Z" />
        <path fill="#0B1B32"
            d="M135.244 77.43c1.224-.61 1.339.772 1.339.772-1.531.858-1.416.038-1.339-.772ZM139.235 82.367a.238.238 0 0 1-.153-.057.273.273 0 0 1-.086-.143.25.25 0 0 1 0-.162.266.266 0 0 1 .124-.105.729.729 0 0 0 .268-.143.801.801 0 0 0 .182-.257 1.075 1.075 0 0 0-.125-.782.237.237 0 0 1 0-.18.229.229 0 0 1 .038-.083.214.214 0 0 1 .068-.06.304.304 0 0 1 .181 0c.061.018.113.059.144.114a1.507 1.507 0 0 1 .163 1.172c-.057.163-.152.31-.278.429a1.194 1.194 0 0 1-.45.267h-.086l.01-.01ZM135.896 82.367a1.632 1.632 0 0 1-1.053-.371 1.178 1.178 0 0 1-.373-1.268c.07-.457.054-.922-.048-1.373a.305.305 0 0 1 0-.095v-.086l.067-.067a.174.174 0 0 1 .086 0h.182l.067.058a.178.178 0 0 1 0 .085c.125.506.144 1.031.057 1.545-.057.457-.057.629.201.838.584.468 1.206.277 2.68-.238a.24.24 0 0 1 .182 0 .24.24 0 0 1 .124.134.261.261 0 0 1 0 .19.236.236 0 0 1-.134.115 7.027 7.027 0 0 1-2.086.533h.048ZM133.666 76.162c.278 0 1.541-.954.957-1.259a1.16 1.16 0 0 0-1.33.353c-.603.63.096.906.373.906ZM131.331 111.289a.2.2 0 0 1-.077-.162.24.24 0 0 1 .057-.162.252.252 0 0 1 .154-.086c1.55-.162 5.952-.162 6.134-.162a.28.28 0 0 1 .172.067.252.252 0 0 1 .067.172.223.223 0 0 1-.016.092.22.22 0 0 1-.13.13.231.231 0 0 1-.093.016s-4.555 0-6.077.162a.229.229 0 0 1-.191-.067Z" />
        <path fill="#FFB300"
            d="m122.613 113.825 20.661-3.699c.129-.024.262-.024.392 0 .13.036.253.094.364.172.103.085.191.189.258.305a.885.885 0 0 1 .115.381.96.96 0 0 1-.804 1.03l-20.66 3.393" />
        <path fill="#0B1B32"
            d="M122.889 115.665a.223.223 0 0 1-.088-.018.217.217 0 0 1-.074-.049.195.195 0 0 1-.077-.153.226.226 0 0 1 0-.171.25.25 0 0 1 .153-.086l20.661-3.403a.706.706 0 0 0 .602-.772.7.7 0 0 0-.086-.286.877.877 0 0 0-.191-.229.7.7 0 0 0-.574-.124l-20.603 3.689a.249.249 0 0 1-.182 0 .263.263 0 0 1-.096-.152.237.237 0 0 1 0-.181.25.25 0 0 1 .153-.105l20.661-3.699a1.32 1.32 0 0 1 .469 0 1.257 1.257 0 0 1 .765.534c.086.132.142.282.163.438.033.157.033.32 0 .477a1.255 1.255 0 0 1-.191.429c-.092.131-.21.242-.347.325a1.155 1.155 0 0 1-.448.161l-20.66 3.394-.01-.019Z" />
        <path fill="#FFB300"
            d="m120.171 114.626-13.55-15.939a.842.842 0 0 1-.191-.352.89.89 0 0 1 0-.391.863.863 0 0 1 .124-.372.959.959 0 0 1 .957-.458c.244.03.467.154.622.344l13.33 16.119" />
        <path fill="#0B1B32"
            d="M120.173 114.864h-.105a.26.26 0 0 1-.077-.067l-13.56-15.938a1.21 1.21 0 0 1-.134-1.326c.074-.139.175-.262.297-.362a1.163 1.163 0 0 1 .88-.276 1.195 1.195 0 0 1 .814.429l13.368 16.1a.3.3 0 0 1 .058.182.31.31 0 0 1-.087.162.26.26 0 0 1-.344 0L107.915 97.62a.685.685 0 0 0-.46-.258.717.717 0 0 0-.717.343.765.765 0 0 0-.106.277.774.774 0 0 0 0 .295.736.736 0 0 0 .144.267l13.55 15.939a.171.171 0 0 1 0 .114.202.202 0 0 1 0 .133.221.221 0 0 1-.086.105.202.202 0 0 1-.124 0l.057.029Z" />
        <path fill="#FFB300"
            d="M123.052 114.94a1.442 1.442 0 0 0-1.727-1.412 1.443 1.443 0 0 0-1.053 1.963 1.441 1.441 0 0 0 1.335.889c.383 0 .751-.152 1.022-.422s.423-.636.423-1.018Z" />
        <path fill="#0B1B32"
            d="M121.655 116.618a1.691 1.691 0 0 1-1.551-1.037 1.622 1.622 0 0 1-.123-.641 1.69 1.69 0 0 1 .277-.953 1.68 1.68 0 0 1 3.043.6c.06.321.027.652-.095.954-.127.302-.34.561-.613.743a1.646 1.646 0 0 1-.957.286l.019.048Zm0-2.86c-.22.004-.436.067-.623.184a1.196 1.196 0 0 0-.334 1.723c.129.197.317.35.536.438.221.094.465.117.699.067a1.13 1.13 0 0 0 .612-.324c.163-.17.276-.381.326-.61a1.245 1.245 0 0 0-.067-.696 1.274 1.274 0 0 0-.441-.534 1.196 1.196 0 0 0-.669-.2l-.039-.048ZM144.106 72.578h-.086a.216.216 0 0 1-.067-.067.41.41 0 0 1 0-.086v-.095a.46.46 0 0 0 0-.315.487.487 0 0 0-.22-.22.785.785 0 0 0-.89.106.133.133 0 0 1-.076 0 .174.174 0 0 1-.096 0h-.096l-.067-.057a.45.45 0 0 1-.048-.086.14.14 0 0 1 0-.086.305.305 0 0 1 0-.095l.058-.077a1.33 1.33 0 0 1 .689-.305c.257-.03.518.02.746.143a.955.955 0 0 1 .431.43c.086.187.116.395.086.6a.234.234 0 0 1-.086.143.222.222 0 0 1-.153.057l-.125.01ZM164.095 109.592h-.076c-3.484-1.172-8.948-4.509-7.292-9.532a.233.233 0 0 1 .046-.085.234.234 0 0 1 .078-.058.24.24 0 0 1 .182 0 .25.25 0 0 1 .144.114.246.246 0 0 1 0 .181c-1.914 5.825 6.622 8.789 6.985 8.913a.21.21 0 0 1 .072.035.222.222 0 0 1 .053.061.28.28 0 0 1 0 .162.217.217 0 0 1-.028.081.217.217 0 0 1-.059.062.219.219 0 0 1-.153.057l.048.009Z" />
        <path fill="#0B1B32"
            d="M159.694 105.417c-2.173-1.506-1.656-5.376-1.637-5.538a.258.258 0 0 1 .096-.162.219.219 0 0 1 .172 0 .25.25 0 0 1 .163.085.237.237 0 0 1 0 .182s-.507 3.736 1.435 5.071c.04.033.069.076.086.124a.2.2 0 0 1 0 .152.169.169 0 0 1-.086.115.238.238 0 0 1-.143.047.21.21 0 0 1-.086-.076Z" />
        <path fill="#FFB300" d="M166.066 139.658v14.347h3.359v-14.347" />
        <path fill="#0B1B32"
            d="M166.067 154.243a.25.25 0 0 1-.172-.067.277.277 0 0 1-.067-.171v-14.347a.28.28 0 0 1 .067-.172.249.249 0 0 1 .172-.066.225.225 0 0 1 .173.067.224.224 0 0 1 .067.171v14.108h2.87v-14.108a.28.28 0 0 1 .067-.172.251.251 0 0 1 .173-.066.23.23 0 0 1 .172.067.224.224 0 0 1 .067.171v14.347a.223.223 0 0 1-.016.092.22.22 0 0 1-.13.13.231.231 0 0 1-.093.016h-3.35ZM167.025 109.287a15.217 15.217 0 0 1-5.216-2.116.222.222 0 0 1-.066-.067.137.137 0 0 1 0-.085.31.31 0 0 1 0-.096.31.31 0 0 1 0-.086l.066-.066h.268a15.125 15.125 0 0 0 5.015 2.03.258.258 0 0 1 .153.096.237.237 0 0 1 0 .162.204.204 0 0 1-.021.084.185.185 0 0 1-.056.068.236.236 0 0 1-.074.05.242.242 0 0 1-.088.017l.019.009Z" />
        <path fill="#FFB300" d="M158.23 137.265c3.828.801 4.297 3.032 9.57 3.032 5.273 0 5.741-2.231 9.569-3.032" />
        <path fill="#0B1B32"
            d="M161.646 138.895a11.417 11.417 0 0 0-3.464-1.401.256.256 0 0 1-.153-.095.246.246 0 0 1 0-.181.225.225 0 0 1 .105-.153.231.231 0 0 1 .172 0c1.273.279 2.489.769 3.599 1.449a11.978 11.978 0 0 0 11.904 0 11.899 11.899 0 0 1 3.598-1.449h.182l.067.067a.31.31 0 0 1 0 .086.17.17 0 0 1 0 .095.157.157 0 0 1 0 .086l-.067.067a.157.157 0 0 1-.086 0 11.398 11.398 0 0 0-3.465 1.401 12.482 12.482 0 0 1-12.363 0l-.029.028ZM150.049 164.347a.24.24 0 0 1-.071-.106.238.238 0 0 1 .166-.304c2.613-.648 3.321-2.859 3.953-4.766.392-1.172.727-2.192 1.445-2.659a.295.295 0 0 1 .181 0 .221.221 0 0 1 .154.104.209.209 0 0 1 0 .182.246.246 0 0 1-.106.152 4.576 4.576 0 0 0-1.244 2.402c-.631 1.907-1.426 4.376-4.287 5.081h-.067a.217.217 0 0 1-.124-.086Z" />
        <path fill="#0B1B32"
            d="M147.674 135.187a2.075 2.075 0 0 0 1.288 1.92c.253.105.524.158.798.158h36.144a2.089 2.089 0 0 0 1.383-.654 2.074 2.074 0 0 0-1.383-3.492H149.76c-.552 0-1.081.217-1.472.605a2.072 2.072 0 0 0-.614 1.463Z" />
        <path fill="#0B1B32"
            d="M149.762 137.504a2.339 2.339 0 0 1-1.74-.622 2.32 2.32 0 0 1-.735-1.69 2.32 2.32 0 0 1 2.475-2.312h36.143a2.33 2.33 0 0 1 1.547.727 2.314 2.314 0 0 1-1.547 3.897h-36.143Zm0-4.147a1.825 1.825 0 0 0-.704.138 1.82 1.82 0 0 0-.598.396 1.828 1.828 0 0 0-.544 1.296 1.827 1.827 0 0 0 .544 1.297 1.802 1.802 0 0 0 1.302.543h36.143a1.799 1.799 0 0 0 1.292-.543 1.827 1.827 0 0 0-.272-2.816 1.844 1.844 0 0 0-1.02-.311h-36.143ZM132.258 63.722c2.153-2.183 6.23-3.108 12.44-1.516 6.211 1.592 5.943 6.778 5.943 6.778a7.306 7.306 0 0 0-1.79 2.269c-1.129 1.858-4.086 2.049-4.086 2.049s1.684-1.535-.507-2.955c-2.191-1.42-2.794 1.668-2.794 1.668s-3.972-1.496-6.488-.953c-2.517.543-1.579 3.87-4.22 2.564-1.819-4.404-.661-7.712 1.502-9.904ZM158.517 112.624a.245.245 0 0 1-.153-.057.289.289 0 0 1-.076-.153c-.211-1.382 1.311-2.86 1.377-2.936a.242.242 0 0 1 .173-.076.257.257 0 0 1 .162.076.195.195 0 0 1 .055.078c.012.03.016.062.012.094a.204.204 0 0 1-.014.088.215.215 0 0 1-.053.074s-1.406 1.391-1.244 2.535a.246.246 0 0 1 0 .181.202.202 0 0 1-.162.086l-.077.01ZM141.196 127.933c.163 1.277 3.522 7.979 3.522 7.979-.402-.725-2.555-3.508-4.153-4.147-3.321-1.325-5.263-3.527-3.043-3.813l3.674-.019ZM157.838 77.601l5.589 4.147 4.966 6.54s3.828 7.33 4.479 10.037c-1.283-6.053-1.914-9.704-6.163-13.946-.957-.953 0-2.078-1.282-3.194-1.283-1.115-2.632-1.668-2.795-3.107-.162-1.44-2.564-3.66-4.784-2.86-2.221.8-.651 1.859-.01 2.383ZM147.063 81.633a11.93 11.93 0 0 1 .21-6.873c-1.913 6.263-1.76 7.388-1.76 7.388s.497-.152 1.55-.514ZM158.631 100.031c3.196-.476 6.478 1.84 6.478-.076 0-1.916-6.698-2.307-9.904-5.52M146.718 177.76c2.402.638 6.698-6.054 8.478-7.626 1.78-1.573 5.12-2.546 6.393-3.813 1.272-1.268 1.157-3.661 0-5.262a10.427 10.427 0 0 0-5.914-4.309c-1.359 1.363-2 7.102-5.522 7.578-.153.734 0 .305-.239 1.516a17.028 17.028 0 0 1-4 8.579c-.794.791-1.598 2.698.804 3.337Z" />
        <path fill="#0B1B32"
            d="M146.929 168.952a1.066 1.066 0 0 1-.297-.048 1.597 1.597 0 0 1-1.013-.853 1.58 1.58 0 0 1-.011-1.321 4.42 4.42 0 0 1 2.366-2.181 4.437 4.437 0 0 1 3.223-.001l-.163.448a3.93 3.93 0 0 0-4.966 1.906 1.08 1.08 0 0 0-.114.476 1.097 1.097 0 0 0 .851 1.078c.43.162.957-.601 1.435-1.411.478-.81 1.225-1.906 2.105-2.107l.096.477c-.68.133-1.273 1.058-1.799 1.906-.527.849-1.062 1.659-1.713 1.659v-.028Z" />
        <path fill="#0B1B32"
            d="M146.947 170.829h-.096a.553.553 0 0 1-.316-.133.632.632 0 0 1-.181-.286c-.278-.801.449-2.86 1.779-4.185a3.21 3.21 0 0 1 3.378-1.039l-.153.458a2.8 2.8 0 0 0-2.871.953c-1.205 1.211-1.913 3.098-1.655 3.689 0 .095.067.095.096.105.459.057 1.024-1.058 1.531-2.04.641-1.258 1.301-2.555 2.229-2.745l.096.467c-.699.143-1.34 1.391-1.914 2.497-.574 1.106-1.167 2.298-1.914 2.298l-.009-.039ZM147.339 151.593a.458.458 0 0 1-.086-.057c-.718-.801-17.56-19.723-16.039-27.025a3.128 3.128 0 0 1 .651-1.421c.326-.415.75-.742 1.234-.953 4.374-2.011 11.637-.8 18.651.362 6.507 1.078 12.651 2.098 15.972.515h.191l.077.048a.16.16 0 0 1 .057.076.303.303 0 0 1 0 .095.14.14 0 0 1 0 .086.248.248 0 0 1 0 .086l-.077.057c-3.464 1.64-9.674.61-16.268-.486-6.947-1.153-14.134-2.345-18.373-.391a2.692 2.692 0 0 0-1.062.811 2.61 2.61 0 0 0-.545 1.22c-1.474 7.073 15.751 26.414 15.923 26.605a.35.35 0 0 1 .057.124.202.202 0 0 1 0 .133.183.183 0 0 1-.086.105.219.219 0 0 1-.134 0l-.143.01ZM153.435 153.69a55.678 55.678 0 0 0-5.435 3.813c1.435-.639 6.545-2.316 6.545-2.316l-1.11-1.497ZM187.685 123.71l-1.273 3.031c-3.684-4.623-22.01-13.622-27.435-14.108 17.588 3.022 28.708 11.077 28.708 11.077Z" />
        <path fill="#FFB300"
            d="M143.664 189.37a.598.598 0 0 1-.191-.448v-4.242a8.117 8.117 0 0 1 .804-3.517 7.981 7.981 0 0 1 2.267-2.803l15.465-12.24a5.01 5.01 0 0 0 1.263-1.525 4.805 4.805 0 0 0 .516-1.906l3.359.19a8.098 8.098 0 0 1-3.052 5.872l-15.464 12.24c-.563.44-1.017 1-1.331 1.64a4.75 4.75 0 0 0-.468 2.059v4.242a.626.626 0 0 1-.393.589.644.644 0 0 1-.249.05h-2.076a.603.603 0 0 1-.45-.201ZM192.028 189.37a.587.587 0 0 0 .192-.448v-4.242a8.132 8.132 0 0 0-.804-3.517 7.948 7.948 0 0 0-2.259-2.803l-15.473-12.24a4.824 4.824 0 0 1-1.254-1.525 4.66 4.66 0 0 1-.526-1.906l-3.359.19a8.098 8.098 0 0 0 3.052 5.872l15.465 12.24c.562.44 1.017 1 1.33 1.64.309.643.469 1.346.469 2.059v4.242a.633.633 0 0 0 .641.639h2.076a.603.603 0 0 0 .45-.201Z" />
        <path fill="#0B1B32"
            d="M192.22 188.999a.624.624 0 0 1-.191.457.64.64 0 0 1-.45.181h-2.076a.623.623 0 0 1-.641-.638v-1.268h3.358v1.268ZM143.454 189.542a.885.885 0 0 1-.259-.62v-4.242a8.284 8.284 0 0 1 3.158-6.51l15.493-12.24a4.386 4.386 0 0 0 1.196-1.449 4.449 4.449 0 0 0 .498-1.811.174.174 0 0 1 0-.096v-.066a.179.179 0 0 1 .086 0h.096l3.349.19h.086l.077.057a.248.248 0 0 1 0 .086.31.31 0 0 1 0 .086 8.327 8.327 0 0 1-.957 3.365 8.263 8.263 0 0 1-2.22 2.688l-15.465 12.23a4.546 4.546 0 0 0-1.253 1.564 4.47 4.47 0 0 0-.45 1.954v4.242a.842.842 0 0 1-.258.62.915.915 0 0 1-.285.191.887.887 0 0 1-.337.066h-2.077a.89.89 0 0 1-.478-.305Zm20.516-26.605a4.951 4.951 0 0 1-1.856 3.374l-15.464 12.23a7.823 7.823 0 0 0-2.976 6.139v4.242a.41.41 0 0 0 .124.286c.076.07.174.111.278.115h2.076a.435.435 0 0 0 .287-.115.392.392 0 0 0 .115-.286v-4.242a4.98 4.98 0 0 1 .498-2.164 5.062 5.062 0 0 1 1.387-1.725l15.464-12.23a7.868 7.868 0 0 0 2.04-2.434c.507-.94.816-1.974.908-3.038l-2.881-.152Z" />
        <path fill="#0B1B32"
            d="M188.881 189.542a.843.843 0 0 1-.258-.62v-4.242a4.47 4.47 0 0 0-.45-1.954 4.534 4.534 0 0 0-1.254-1.563l-15.502-12.23a8.241 8.241 0 0 1-2.22-2.689 8.287 8.287 0 0 1-.957-3.365.378.378 0 0 1 0-.095.194.194 0 0 1 0-.076l.076-.057h.086l3.35-.191a.154.154 0 0 1 .095 0 .183.183 0 0 1 .087 0l.057.067a.378.378 0 0 1 0 .095c.035.632.205 1.249.498 1.811a4.364 4.364 0 0 0 1.196 1.449l15.464 12.24a8.21 8.21 0 0 1 3.158 6.511v4.242a.875.875 0 0 1-.544.81.885.885 0 0 1-.337.067h-2.076a.878.878 0 0 1-.469-.21Zm-20.096-26.453a7.894 7.894 0 0 0 .957 3.041 7.779 7.779 0 0 0 2.038 2.421l15.465 12.24a4.947 4.947 0 0 1 1.913 3.889v4.242a.41.41 0 0 0 .115.286.45.45 0 0 0 .287.115h2.077a.408.408 0 0 0 .402-.401v-4.242a7.824 7.824 0 0 0-2.976-6.139l-15.464-12.23a5.092 5.092 0 0 1-1.273-1.506 4.908 4.908 0 0 1-.584-1.907l-2.957.191Z" />
        <path fill="#FFB300"
            d="M166.066 159.429v29.493a.648.648 0 0 0 .641.639h2.077a.643.643 0 0 0 .459-.191.631.631 0 0 0 .182-.448v-29.493" />
        <path fill="#0B1B32"
            d="M164.775 109.354c-3.302.4-12.536.563-22.613.248 5.914.315 19.033-1.573 19.033-1.573a10.864 10.864 0 0 0 3.58 1.325ZM169.425 188.999a.616.616 0 0 1-.641.638h-2.077a.639.639 0 0 1-.641-.638v-1.268h3.359v1.268Z" />
        <path fill="#0B1B32"
            d="M166.708 189.799a.879.879 0 0 1-.88-.877v-29.493a.277.277 0 0 1 .067-.172.254.254 0 0 1 .172-.067.233.233 0 0 1 .173.067.22.22 0 0 1 .051.079.225.225 0 0 1 .016.093v29.493a.406.406 0 0 0 .401.401h2.077a.45.45 0 0 0 .287-.115.392.392 0 0 0 .115-.286v-29.493a.277.277 0 0 1 .067-.172.254.254 0 0 1 .172-.067.225.225 0 0 1 .093.016.22.22 0 0 1 .079.051.222.222 0 0 1 .067.172v29.493a.843.843 0 0 1-.258.62.86.86 0 0 1-.622.257h-2.077ZM149.512 155.997a28.256 28.256 0 0 1-3.359 2.555c-4.316-2.86-13.397-17.159-13.397-17.159l5.617 7.092c2.392 3.032 3.828 2.555 6.23 5.1 3.253 3.46 2.718 2.555 4.957 2.393l-.048.019Z" />
        <path fill="#FFB300"
            d="M163.674 154.481v9.533a.476.476 0 0 0 .478.476h7.35a.478.478 0 0 0 .488-.476v-9.533a.484.484 0 0 0-.147-.337.48.48 0 0 0-.341-.139h-7.35a.48.48 0 0 0-.478.476Z" />
        <path fill="#0B1B32"
            d="M164.153 164.767a.718.718 0 0 1-.507-.21.68.68 0 0 1-.22-.505v-9.533c0-.189.076-.371.21-.505a.76.76 0 0 1 .517-.21h7.349a.717.717 0 0 1 .728.715v9.533a.717.717 0 0 1-.728.715h-7.349Zm0-10.486a.24.24 0 0 0-.172.076.226.226 0 0 0-.052.074.22.22 0 0 0-.015.088v9.533a.241.241 0 0 0 .067.171.274.274 0 0 0 .172.067h7.349a.274.274 0 0 0 .173-.067.255.255 0 0 0 .076-.171v-9.533a.22.22 0 0 0-.076-.162.244.244 0 0 0-.173-.076h-7.349ZM135.387 81.3a1.538 1.538 0 0 1-.613-.162 5.937 5.937 0 0 1-2.268-1.964c-.354-.562-.268-.858-.134-1.01.134-.153.412-.267 1.015 0a5.882 5.882 0 0 1 2.277 1.963c.345.563.259.858.134 1.01a.667.667 0 0 1-.191.125.566.566 0 0 1-.22 0v.038Zm.048-.486c0-.134-.259-.734-1.101-1.459-.842-.724-1.464-.953-1.598-.867-.134.085.249.734 1.091 1.458.842.725 1.464.953 1.608.868Z" />
        <path fill="#0B1B32"
            d="M132.88 79.508a.239.239 0 0 1-.21-.134.3.3 0 0 1 0-.133.287.287 0 0 1 .057-.124c.201-.229 4.852-5.777 8.612-7.321a.24.24 0 0 1 .259.05.217.217 0 0 1 .05.076.228.228 0 0 1-.002.179.238.238 0 0 1-.125.133c-3.684 1.487-8.402 7.121-8.45 7.178l-.086.067a.191.191 0 0 1-.105 0v.029ZM169.425 140.22a14.74 14.74 0 0 1-3.359 0v1.907c1.283-1.03 3.359.334 3.359.334v-2.241Z" />
        <path fill="#0B1B32"
            d="M169.292 142.67s-1.914-1.258-3.072-.343h-.124a.336.336 0 0 1-.134 0 .3.3 0 0 1-.096-.095.188.188 0 0 1 0-.124v-1.907a.362.362 0 0 1 0-.104l.057-.077h.096a.157.157 0 0 1 .096 0c1.087.122 2.185.122 3.272 0h.106a.215.215 0 0 1 .105.048.21.21 0 0 1 .067.086.37.37 0 0 1 0 .105v2.249a.242.242 0 0 1-.015.093.254.254 0 0 1-.13.135.237.237 0 0 1-.094.02.228.228 0 0 1-.134-.086Zm-2.986-2.211v1.249a3.487 3.487 0 0 1 2.871.352v-1.544c-.957.069-1.918.05-2.871-.057Z" />
        <path fill="#fff"
            d="M172.068 154.882c.162-.954-.814-.877-.814-.877s-5.426-.077-6.699 0c-1.272.076-.861.638-.861 1.601 2.756-.482 5.58-.43 8.316.153 0 0-.105.076.058-.877Z" />
        <path fill="#0B1B32"
            d="M164.153 164.767a.718.718 0 0 1-.507-.21.68.68 0 0 1-.22-.505v-9.533c0-.189.076-.371.21-.505a.76.76 0 0 1 .517-.21h7.349a.717.717 0 0 1 .728.715v9.533a.717.717 0 0 1-.728.715h-7.349Zm0-10.486a.24.24 0 0 0-.172.076.226.226 0 0 0-.052.074.22.22 0 0 0-.015.088v9.533a.241.241 0 0 0 .067.171.274.274 0 0 0 .172.067h7.349a.274.274 0 0 0 .173-.067.255.255 0 0 0 .076-.171v-9.533a.22.22 0 0 0-.076-.162.244.244 0 0 0-.173-.076h-7.349Z" />
        <path fill="#fff"
            d="M185.023 114.063a1.719 1.719 0 0 1-.842-.21 1.808 1.808 0 0 1-.641-.591 1.886 1.886 0 0 1-.277-.81c-.022-.294.03-.589.153-.858 2.373-5.29 0-11.668 0-11.725a1.768 1.768 0 0 1 .38-1.918 1.73 1.73 0 0 1 .577-.38 1.745 1.745 0 0 1 2.268 1.011c.124.305 2.947 7.769 0 14.414a1.719 1.719 0 0 1-1.598 1.039l-.02.028ZM182.621 94.931c-.34 0-.673-.099-.957-.286a1.769 1.769 0 0 1-.65-.772 24.58 24.58 0 0 0-2.058-3.813 1.773 1.773 0 0 1-.287-1.296c.077-.454.332-.858.708-1.125a1.734 1.734 0 0 1 1.302-.305 1.702 1.702 0 0 1 1.139.686 28.295 28.295 0 0 1 2.43 4.48 1.72 1.72 0 0 1-.153 1.65 1.607 1.607 0 0 1-.632.581c-.255.14-.541.212-.832.21l-.01-.01Z" />
        <path fill="#0B1B32"
            d="M146.794 188.999a.616.616 0 0 1-.641.638h-2.076a.64.64 0 0 1-.592-.39.624.624 0 0 1-.049-.248v-1.268h3.358v1.268Z" />
        <g clip-path="url(#c)">
            <path stroke="#0B1B32" stroke-miterlimit="10" stroke-width="3"
                d="M184.57 28.5h-69.46a7.61 7.61 0 0 0-7.61 7.61V184.7a7.61 7.61 0 0 0 7.61 7.61h69.46a7.61 7.61 0 0 0 7.61-7.61V36.11a7.61 7.61 0 0 0-7.61-7.61Z" />
            <rect width="72" height="45" x="114" y="111" fill="#fff" stroke="#0B1B32" stroke-width="2" rx="2" />
            <path fill="#FFB300"
                d="M126.284 126.382c1.872 0 3.306.336 4.302 1.008.996.66 1.494 1.692 1.494 3.096 0 .876-.204 1.59-.612 2.142-.396.54-.972.966-1.728 1.278.252.312.516.672.792 1.08.276.396.546.816.81 1.26.276.432.54.888.792 1.368.252.468.486.93.702 1.386h-3.15c-.228-.408-.462-.822-.702-1.242-.228-.42-.468-.828-.72-1.224-.24-.396-.48-.768-.72-1.116-.24-.36-.48-.684-.72-.972h-1.386V139h-2.808v-12.294c.612-.12 1.242-.204 1.89-.252.66-.048 1.248-.072 1.764-.072Zm.162 2.394c-.204 0-.39.006-.558.018a70.96 70.96 0 0 0-.45.036v3.384h.792c1.056 0 1.812-.132 2.268-.396.456-.264.684-.714.684-1.35 0-.612-.234-1.044-.702-1.296-.456-.264-1.134-.396-2.034-.396Zm8.55 10.224v-12.474h8.424v2.358h-5.616v2.448h4.986v2.304h-4.986v3.006h6.03V139h-8.838Zm11.276 0v-12.474h8.352v2.358h-5.544v2.61h4.932v2.358h-4.932V139h-2.808Zm10.696 0v-12.474h8.424v2.358h-5.616v2.448h4.986v2.304h-4.986v3.006h6.03V139h-8.838Zm14.93-12.618c1.872 0 3.306.336 4.302 1.008.996.66 1.494 1.692 1.494 3.096 0 .876-.204 1.59-.612 2.142-.396.54-.972.966-1.728 1.278.252.312.516.672.792 1.08.276.396.546.816.81 1.26.276.432.54.888.792 1.368.252.468.486.93.702 1.386h-3.15c-.228-.408-.462-.822-.702-1.242-.228-.42-.468-.828-.72-1.224-.24-.396-.48-.768-.72-1.116-.24-.36-.48-.684-.72-.972h-1.386V139h-2.808v-12.294c.612-.12 1.242-.204 1.89-.252.66-.048 1.248-.072 1.764-.072Zm.162 2.394c-.204 0-.39.006-.558.018a70.96 70.96 0 0 0-.45.036v3.384h.792c1.056 0 1.812-.132 2.268-.396.456-.264.684-.714.684-1.35 0-.612-.234-1.044-.702-1.296-.456-.264-1.134-.396-2.034-.396Z" />
        </g>
    </g>
    <circle cx="26" cy="70" r="26" fill="#FFBB1C" />
    <circle cx="245.5" cy="169.5" r="24.5" fill="#FFBB1C" />
    <circle cx="261.5" cy="92.5" r="30.5" fill="#FFBB1C" />
    <path fill="#fff" fill-opacity=".7"
        d="M245.5 169.5a4.25 4.25 0 1 0 0-8.5 4.25 4.25 0 0 0 0 8.5Zm2.833-4.25a2.83 2.83 0 0 1-2.833 2.833 2.83 2.83 0 0 1-2.833-2.833 2.83 2.83 0 0 1 2.833-2.833 2.83 2.83 0 0 1 2.833 2.833ZM254 176.583c0 1.417-1.417 1.417-1.417 1.417h-14.166S237 178 237 176.583c0-1.416 1.417-5.666 8.5-5.666s8.5 4.25 8.5 5.666Zm-1.417-.005c-.001-.349-.218-1.397-1.178-2.358-.924-.923-2.662-1.887-5.905-1.887-3.244 0-4.981.964-5.905 1.887-.96.961-1.176 2.009-1.178 2.358h14.166Z" />
    <path fill="#fff" fill-opacity=".9"
        d="M262 90a3.998 3.998 0 0 0 2.828-6.828A3.998 3.998 0 0 0 258 86a3.997 3.997 0 0 0 4 4Zm2.667-4a2.667 2.667 0 1 1-5.334 0 2.667 2.667 0 0 1 5.334 0ZM270 96.667C270 98 268.667 98 268.667 98h-13.334S254 98 254 96.667c0-1.334 1.333-5.334 8-5.334s8 4 8 5.334Zm-1.333-.006c-.002-.328-.206-1.314-1.11-2.218-.869-.87-2.505-1.776-5.557-1.776-3.053 0-4.688.906-5.557 1.776-.904.904-1.107 1.89-1.11 2.218h13.334Z" />
    <path fill="#fff" fill-opacity=".55"
        d="M26 69a4 4 0 1 0 0-8 4 4 0 0 0 0 8Zm2.667-4a2.667 2.667 0 1 1-5.334 0 2.667 2.667 0 0 1 5.334 0ZM34 75.667C34 77 32.667 77 32.667 77H19.333S18 77 18 75.667c0-1.334 1.333-5.334 8-5.334s8 4 8 5.334Zm-1.333-.006c-.002-.328-.206-1.314-1.11-2.218-.869-.87-2.505-1.776-5.557-1.776-3.053 0-4.688.906-5.557 1.776-.904.904-1.107 1.89-1.11 2.218h13.334Z" />
    <defs>
        <clipPath id="a">
            <path fill="#fff" d="M42 0h215v204H42z" />
        </clipPath>
        <clipPath id="b">
            <path fill="#fff" d="M42 14h198v187H42z" />
        </clipPath>
        <clipPath id="c">
            <path fill="#fff" d="M106 27h87.68v166.81H106z" />
        </clipPath>
    </defs>
</svg>