<svg xmlns="http://www.w3.org/2000/svg" width="223" height="211" fill="none">
    <path fill="#fff" fill-opacity=".3"
        d="M61.782 209.604c-68.536-2.67-76.948-89.349-40.508-143.23 30.82-45.59 49.16-64.92 82.849-66.314 56.933-2.351 101.746 64.92 113.946 122.586 17.782 83.889-7.734 92.697-156.287 86.958Z" />
    <g clip-path="url(#a)">
        <path fill="#fff" fill-opacity=".3"
            d="M85.494 55.861a31.539 31.539 0 0 1 9.243-22.295 31.514 31.514 0 0 1 22.296-9.224 31.518 31.518 0 0 1 22.3 9.223 31.532 31.532 0 0 1 9.249 22.296" />
        <path fill="#0B1B32"
            d="M148.925 55.861h-.695a31.237 31.237 0 0 0-9.155-22.04 31.21 31.21 0 0 0-22.042-9.136 31.213 31.213 0 0 0-22.042 9.135 31.236 31.236 0 0 0-9.154 22.041h-.685a31.92 31.92 0 0 1 9.356-22.525A31.895 31.895 0 0 1 117.033 24a31.897 31.897 0 0 1 22.533 9.333 31.92 31.92 0 0 1 9.359 22.528Z" />
        <path fill="#fff" fill-opacity=".3" d="M148.657 55.957H85.494v63.102h63.163V55.957Z" />
        <path fill="#0B1B32" d="M149 119.422H85.152V55.594H149v63.828Zm-63.163-.727h62.478V56.3H85.837v62.395Z" />
        <path fill="#0B1B32" d="M148.775 87.005H85.269v.674h63.506v-.674Z" />
        <path fill="#0B1B32" d="M117.419 55.882h-.685v63.391h.685v-63.39Z" />
        <path fill="#fff"
            d="m131.756 187.882-.342.129a4.16 4.16 0 0 1-.856-1.177 6.093 6.093 0 0 1-.566-1.978 9.35 9.35 0 0 1 .631-4.589c.3-.724.719-1.393 1.24-1.978a.656.656 0 0 0 .089-.827.655.655 0 0 0-.795-.243.509.509 0 0 0-.048-.217.51.51 0 0 0-.134-.178 7.41 7.41 0 0 1-1.496-2.407 11.818 11.818 0 0 1-.738-3.112 13.201 13.201 0 0 1-.053-1.722c.012-.527.066-1.053.16-1.572a9.444 9.444 0 0 1 .417-1.551c.066-.192.149-.378.246-.556.106-.225.228-.443.363-.653.125-.21.272-.408.439-.588a3.9 3.9 0 0 1 .534-.502l.075-.065.192-.128.3-.171.16-.086h.086l.406-.139a.619.619 0 0 0 .428-.77.664.664 0 0 0-.717-.973l-.502.107a5.041 5.041 0 0 1-.984-1.305 6.097 6.097 0 0 1-.47-1.155 10.226 10.226 0 0 1-.332-1.369 13.06 13.06 0 0 1 .278-5.262c.112-.419.251-.83.417-1.23 0 0 .086-.192.097-.235l.128-.236c.086-.162.182-.32.288-.47a.638.638 0 0 0 0-.663.664.664 0 0 0 0-.909 6.427 6.427 0 0 1-2.138-3.605.238.238 0 0 0 .021-.153.239.239 0 0 0-.074-.135 10.882 10.882 0 0 1 .983-6.364 11.33 11.33 0 0 1 1.786-2.727.67.67 0 0 0 .182-.642.649.649 0 0 0-.45-.791 787.003 787.003 0 0 0-8.264-1.583c-3.357-.628-6.721-1.245-10.092-1.851a842.03 842.03 0 0 0-10.616-1.839 782.142 782.142 0 0 0-9.847-1.583c-2.63-.396-5.26-.77-7.9-1.07h-.225a.608.608 0 0 0-.278-.064h-.278a.447.447 0 0 0-.235 0c-4.106.3-8.208.656-12.306 1.07a340 340 0 0 0-11.396 1.422c-1.968.278-3.935.578-5.902.899a.573.573 0 0 0-.417.363 7.656 7.656 0 0 0-3.442 1.391 8.31 8.31 0 0 0-2.363 2.898 10.142 10.142 0 0 0-.695 7.358 8.124 8.124 0 0 0 1.454 2.835l-.866-.097a4.384 4.384 0 0 0-1.892.193c-1.957.631-2.951 2.374-3.55 4.214-.951 2.898-1.069 6.791 1.796 8.652a5.896 5.896 0 0 0 1.572.706 9.935 9.935 0 0 0-3.849 6.021 11.439 11.439 0 0 0 1.54 8.995 9.954 9.954 0 0 0 3.207 3.005 5.413 5.413 0 0 0-2.95 2.439 6.861 6.861 0 0 0-.354 5.54 7.866 7.866 0 0 0 1.818 2.909.41.41 0 0 0 .139.107.62.62 0 0 0 .427.449c6.415 2.075 12.937 3.861 19.501 5.444 6.746 1.626 13.546 3.048 20.313 4.342 3.421.663 6.842 1.273 10.264 1.883a.189.189 0 0 0 .128 0l1.208.214a.67.67 0 0 0 .706-.268.58.58 0 0 0 .684.268 335.194 335.194 0 0 0 13.481-3.893 459.634 459.634 0 0 0 13.289-4.364 307.49 307.49 0 0 0 6.287-2.267.666.666 0 0 0 .791-.279h.096a.648.648 0 0 0 .438-.78.64.64 0 0 0-.673-.482Zm-2.064-37.957v-.064h.054l-.054.064Zm-.299-.321a.629.629 0 0 0-.203 0h.203Zm-82.407 9.487s.075 0 0 0Z" />
        <path fill="#0B1B32"
            d="M45.296 188.064c6.415 2.075 12.936 3.861 19.5 5.444 6.747 1.626 13.546 3.048 20.314 4.342 3.856.713 7.722 1.426 11.6 2.139a.64.64 0 0 0 .78-.449.64.64 0 0 0-.438-.781c-6.896-1.208-13.77-2.481-20.624-3.914-6.853-1.433-13.417-2.973-20.035-4.781a249.464 249.464 0 0 1-10.798-3.208c-.79-.257-1.122.973-.342 1.23l.043-.022Z" />
        <path fill="#0B1B32"
            d="M45.595 186.61a6.42 6.42 0 0 1-1.87-4.45 4.997 4.997 0 0 1 .106-1.069c0-.182.086-.364.14-.546l.106-.288v-.193c0-.021.182-.353.278-.513l.16-.235.075-.097c0-.085 0 0 .064-.085.065-.086.257-.289.385-.417.132-.12.271-.231.417-.332a5.115 5.115 0 0 1 2.801-.856c.824 0 .824-1.304 0-1.272a5.89 5.89 0 0 0-5.11 2.834 6.86 6.86 0 0 0-.353 5.54 7.865 7.865 0 0 0 1.818 2.909.644.644 0 0 0 .864-.034.644.644 0 0 0 .044-.864l.075-.032Z" />
        <path fill="#0B1B32"
            d="M100.623 167.636a3.988 3.988 0 0 0-.77-.235l-1.464-.31a365.24 365.24 0 0 0-4.993-1.016l-7.056-1.358-8.339-1.583-8.713-1.605-8.296-1.497c-2.353-.413-4.708-.82-7.067-1.219-1.647-.267-3.304-.546-4.961-.77-.524-.075-1.07-.15-1.572-.193a1.786 1.786 0 0 0-.951.097 9.413 9.413 0 0 0-5.025 6.673 11.439 11.439 0 0 0 1.54 8.995 10.038 10.038 0 0 0 3.784 3.294 3.76 3.76 0 0 0 1.07.374l3.207.685 5.784 1.23 7.483 1.604 8.371 1.797 8.414 1.797 7.484 1.615 5.859 1.251 3.325.706.427.096a.635.635 0 0 0 .62-.17.64.64 0 0 0 .16-.621 21.988 21.988 0 0 1-1.068-7.209c-.011-2.496.48-4.97 1.443-7.273a11.035 11.035 0 0 1 2.138-3.208c.567-.588-.342-1.497-.908-.898a14.207 14.207 0 0 0-3.39 6.738 23.321 23.321 0 0 0-.352 8.032c.171 1.423.48 2.827.92 4.192l.79-.781-1.742-.374-4.662-.995-6.746-1.443-8.008-1.712-8.392-1.796-8.029-1.722-6.735-1.434-4.683-1.005-1.764-.374c.182 0-.075 0-.14-.075l-.277-.128-.599-.343a7.832 7.832 0 0 1-.962-.652 9.232 9.232 0 0 1-1.56-1.615 9.234 9.234 0 0 1-1.69-4.075 7.992 7.992 0 0 1-.107-.973 9.843 9.843 0 0 1 0-1.07 9.176 9.176 0 0 1 .278-2.139c.078-.362.178-.719.3-1.069.128-.385.224-.61.352-.909.128-.3.32-.631.503-.942.085-.139.17-.278.267-.417l.139-.192s.17-.246.117-.171c.205-.271.43-.525.674-.76.107-.117.224-.224.342-.331l.182-.15.085-.075s.097-.075 0 0c.267-.204.55-.386.845-.545l.417-.214c.107 0 .171 0 0 0h-.064.62l.673.075H48.44c-.075 0 .15 0 0 0l.46.064 2.234.342c2.064.321 4.127.674 6.19 1.07 2.598.449 5.186.919 7.784 1.379 2.85.514 5.701 1.038 8.552 1.572l8.553 1.583 7.72 1.476 6.018 1.166c1.187.246 2.385.481 3.571.759l.406.097c.118 0 .311.117 0 0a.664.664 0 0 0 .877-.225.648.648 0 0 0 .064-.487.632.632 0 0 0-.299-.39l.053-.011Z" />
        <path fill="#0B1B32"
            d="M46.666 157.583a5.475 5.475 0 0 1-2.47-.877c-.107-.086-.192-.15-.353-.3a3.519 3.519 0 0 1-.385-.417c-.075-.085.086.118 0 0l-.075-.096-.128-.203a3.89 3.89 0 0 1-.267-.513c0-.107 0 0 0 0a.445.445 0 0 0 0-.107l-.096-.279a4.452 4.452 0 0 1-.129-.513l-.064-.289v-.706a7.993 7.993 0 0 1 0-1.133V151.711c0-.192.054-.385.086-.577.138-.692.331-1.371.577-2.032l.096-.246s.096-.225 0-.086a3.64 3.64 0 0 1 .193-.417c.213-.482.514-.921.887-1.294a3.336 3.336 0 0 1 2.566-.931c.428 0 .855.086 1.294.139l.972.129.578.075H50.429l6.415.909 8.392 1.23 9.419 1.401 9.365 1.433 8.371 1.294 6.351 1.07c1.07.181 2.245.352 3.346.598.087.017.173.038.257.065a.644.644 0 0 0 .78-.45.64.64 0 0 0-.449-.78 3.823 3.823 0 0 0-.791-.171c-.577-.118-1.165-.214-1.753-.321a541.239 541.239 0 0 0-5.859-.952l-8.19-1.284-9.407-1.433-9.622-1.444-8.767-1.283a737.649 737.649 0 0 0-6.874-.973 106.602 106.602 0 0 0-4.106-.524 4.368 4.368 0 0 0-1.892.192c-1.957.631-2.951 2.374-3.55 4.214-.951 2.898-1.069 6.792 1.796 8.653a6.68 6.68 0 0 0 2.641.93.672.672 0 0 0 .791-.449.653.653 0 0 0-.449-.792l.022-.021Z" />
        <path fill="#0B1B32"
            d="M49.723 144.695a6.54 6.54 0 0 1-1.614-2.534 9.381 9.381 0 0 1-.396-1.615c0-.075 0 0 0 0v-.107a1.594 1.594 0 0 1 0-.225v-1.262a7.129 7.129 0 0 1 .203-1.583c.064-.278.14-.556.225-.834l.128-.375c.02-.065.045-.13.075-.192a1.222 1.222 0 0 1 0-.118 7.191 7.191 0 0 1 1.882-2.663 6.411 6.411 0 0 1 3.314-1.486.667.667 0 0 0 .641-.642.655.655 0 0 0-.641-.642 7.787 7.787 0 0 0-3.667 1.444 8.313 8.313 0 0 0-2.427 2.877 10.142 10.142 0 0 0-.695 7.358 7.963 7.963 0 0 0 2.053 3.508c.598.567 1.496-.342.908-.909h.011ZM102.664 153.85a25.93 25.93 0 0 1-2.138 2.439 7.487 7.487 0 0 0-1.475 2.545 8.89 8.89 0 0 0 0 6.064 24.397 24.397 0 0 0 1.838 3.936c.396.717 1.508.075 1.07-.641a14.01 14.01 0 0 1-2.139-6.054 7.125 7.125 0 0 1 .417-2.716c.172-.47.376-.927.61-1.369.159-.308.365-.589.609-.835a29.244 29.244 0 0 0 2.406-2.727.629.629 0 0 0-.04-.702.618.618 0 0 0-.185-.164.65.65 0 0 0-.877.224h-.096ZM97.864 187.893a13.504 13.504 0 0 0-2.577 5.572 8.558 8.558 0 0 0 1.07 5.861.638.638 0 0 0 .786.1.64.64 0 0 0 .282-.741 7.18 7.18 0 0 1-.92-5.081 12.753 12.753 0 0 1 2.417-5.058.643.643 0 0 0-.224-.877.648.648 0 0 0-.877.224h.043Z" />
        <path fill="#0B1B32"
            d="M98.142 199.979a335.194 335.194 0 0 0 13.481-3.893 459.634 459.634 0 0 0 13.289-4.364c2.395-.845 4.79-1.701 7.185-2.599a.654.654 0 0 0 .438-.781.641.641 0 0 0-.78-.449 382.88 382.88 0 0 1-12.894 4.546 382.22 382.22 0 0 1-13.449 4.181 441.937 441.937 0 0 1-7.612 2.139.642.642 0 0 0 .342 1.23v-.01ZM98.837 188.064c4.33-1.155 8.606-2.502 12.829-3.85 4.437-1.412 8.852-2.856 13.289-4.278 1.893-.588 3.785-1.177 5.699-1.711a.644.644 0 0 0 .109-1.14.64.64 0 0 0-.451-.09c-3.764 1.069-7.484 2.267-11.194 3.465-4.587 1.465-9.162 2.952-13.759 4.342a188.37 188.37 0 0 1-6.907 2 .642.642 0 0 0 .342 1.23l.043.032ZM100.944 169.85c4.276-1.24 8.67-2.139 13.021-3.091 4.64-.994 9.28-1.925 13.899-2.855 1.422-.289 2.833-.556 4.276-.867.802-.171.46-1.401-.342-1.229-3.207.705-6.511 1.315-9.761 1.967-4.961 1.07-9.921 2.033-14.85 3.209-2.202.513-4.415 1.07-6.596 1.668a.642.642 0 0 0 .342 1.23l.011-.032ZM104.087 154.759l19.64-3.101 5.538-.877a.651.651 0 0 0 .389-.302.655.655 0 0 0 .06-.49.652.652 0 0 0-.791-.438l-19.64 3.102-5.538.877a.641.641 0 0 0-.449.78.663.663 0 0 0 .791.449ZM102.686 140.086c3.624-.685 7.291-1.155 10.947-1.594 3.849-.46 7.698-.877 11.536-1.38a133.95 133.95 0 0 0 5.87-.877.619.619 0 0 0 .223-.109.617.617 0 0 0 .244-.423.647.647 0 0 0-.018-.248.65.65 0 0 0-.781-.45c-3.539.61-7.099 1.07-10.691 1.455-3.892.46-7.794.898-11.685 1.433-2.01.278-4.02.588-6.009.963a.63.63 0 0 0-.389.302.655.655 0 0 0-.06.489.651.651 0 0 0 .781.439h.032ZM54.032 131.337c3.517-.567 7.024-1.07 10.552-1.519 3.934-.499 7.854-.93 11.76-1.294 2.47-.224 4.95-.428 7.42-.599a.661.661 0 0 0 .641-.641.64.64 0 0 0-.642-.642c-4.276.314-8.552.695-12.829 1.144-3.806.407-7.601.888-11.397 1.423a279.52 279.52 0 0 0-5.901.898.641.641 0 0 0-.45.781.653.653 0 0 0 .781.449h.065Z" />
        <path fill="#0B1B32"
            d="M83.538 127.925c1.133.118 2.256.246 3.378.396l1.86.257 2.139.31c3.207.47 6.414.994 9.622 1.519 3.514.584 7.031 1.194 10.552 1.828 3.385.599 6.778 1.216 10.178 1.851a886.79 886.79 0 0 1 8.553 1.625l.876.182a.652.652 0 0 0 .781-.449.652.652 0 0 0-.449-.791 791.971 791.971 0 0 0-8.264-1.583c-3.357-.628-6.722-1.245-10.093-1.851a842.03 842.03 0 0 0-10.616-1.839 780.927 780.927 0 0 0-9.847-1.583c-2.63-.396-5.26-.77-7.9-1.07l-.78-.085a.642.642 0 0 0-.632.642.654.654 0 0 0 .631.641h.011ZM101.467 139.647a12.063 12.063 0 0 0-2.588 5.669 10.699 10.699 0 0 0 .802 5.957 12.503 12.503 0 0 0 1.967 3.069.65.65 0 0 0 .909 0 .652.652 0 0 0 0-.898 10.427 10.427 0 0 1-2.437-4.963 9.438 9.438 0 0 1 .588-5.155 11.185 11.185 0 0 1 1.635-2.78.665.665 0 0 0 0-.899.641.641 0 0 0-.908 0h.032Z" />
        <path fill="#0B1B32"
            d="M130.42 135.166a13.083 13.083 0 0 0-2.972 5.754 10.34 10.34 0 0 0 .331 6.235 7.42 7.42 0 0 0 2.021 2.834.661.661 0 0 0 .908 0 .661.661 0 0 0 0-.909c-2.961-2.502-2.736-6.994-1.186-10.256.464-1 1.073-1.927 1.807-2.749.545-.61-.353-1.519-.909-.909Z" />
        <path fill="#0B1B32"
            d="M129.617 150.011a10.44 10.44 0 0 0-1.465 5.048 11.554 11.554 0 0 0 .973 6 6.186 6.186 0 0 0 2.138 2.417c.695.449 1.326-.652.642-1.07a4.685 4.685 0 0 1-1.572-1.775 6.032 6.032 0 0 1-.47-1.155 10.226 10.226 0 0 1-.332-1.369 13.06 13.06 0 0 1 .278-5.262c.112-.426.251-.844.417-1.251.037-.069.069-.141.096-.214l.129-.236c.086-.162.182-.32.288-.47a.649.649 0 0 0-.235-.877.66.66 0 0 0-.877.235l-.01-.021Z" />
        <path fill="#0B1B32"
            d="M131.755 162.321a6.227 6.227 0 0 0-4.031 4.866 13.143 13.143 0 0 0 .385 7.241 8.71 8.71 0 0 0 1.967 3.315c.578.589 1.476-.32.898-.898a7.415 7.415 0 0 1-1.497-2.406c-.385-1-.633-2.047-.737-3.113a13.374 13.374 0 0 1-.054-1.722c.013-.527.066-1.053.161-1.572a9.47 9.47 0 0 1 .417-1.551c.066-.192.148-.378.246-.556a5.61 5.61 0 0 1 .363-.652c.125-.211.272-.408.438-.588.173-.189.358-.364.556-.525l.193-.128.299-.171.16-.086h.107c-.064 0-.053 0 0 0l.407-.139a.642.642 0 0 0-.342-1.23l.064-.085Z" />
        <path fill="#0B1B32"
            d="M130.964 177.39a8.812 8.812 0 0 0-2.139 4.631 9.134 9.134 0 0 0 .546 5.262 5.116 5.116 0 0 0 1.753 2.14.653.653 0 0 0 .877-.236.645.645 0 0 0-.236-.866 3.97 3.97 0 0 1-1.197-1.465 6.107 6.107 0 0 1-.567-1.979 9.367 9.367 0 0 1 .631-4.588c.3-.724.719-1.393 1.24-1.979.567-.599-.342-1.508-.898-.898l-.01-.022ZM52.01 132.385c6.414.898 12.925 1.722 19.393 2.578 6.821.898 13.631 1.829 20.42 2.887 3.443.546 6.885 1.07 10.307 1.776.481.096.684-.642.203-.738-6.33-1.209-12.701-2.139-19.084-3.08-6.832-.963-13.663-1.851-20.495-2.749-3.517-.46-7.035-.92-10.541-1.412a.386.386 0 0 0-.438.56.378.378 0 0 0 .235.178ZM91.407 148.107l-15.726-2.139a3.07 3.07 0 0 1-2.62-3.455 3.068 3.068 0 0 1 3.453-2.62l15.727 2.139a3.064 3.064 0 0 1 2.023 1.179 3.066 3.066 0 0 1 .596 2.265 3.057 3.057 0 0 1-3.453 2.631ZM66.273 158.267 50.59 155.84a3.068 3.068 0 0 1-2.566-3.498 3.069 3.069 0 0 1 3.496-2.556l15.695 2.417a3.072 3.072 0 0 1 1.34 5.508 3.042 3.042 0 0 1-2.28.556ZM100.879 142.289a30.503 30.503 0 0 1 3.389-.663c2.01-.353 4.02-.663 6.041-.963a521.917 521.917 0 0 1 13.898-1.957c1.679-.214 3.368-.439 5.057-.578.321 0 .331-.545 0-.513-3.656.31-7.313.866-10.948 1.369-4.501.631-9.012 1.283-13.503 2.043a36.33 36.33 0 0 0-4.019.77.253.253 0 0 0-.155.309.257.257 0 0 0 .294.183h-.054ZM100.601 143.69a27.488 27.488 0 0 1 3.389-.674 286.22 286.22 0 0 1 6.04-.962 530.362 530.362 0 0 1 13.845-1.958c1.679-.214 3.368-.438 5.057-.577.321 0 .331-.546 0-.514-3.656.311-7.313.867-10.948 1.38-4.501.62-9.012 1.273-13.503 2.032-1.354.18-2.696.441-4.019.781a.256.256 0 0 0-.044.458c.055.033.12.046.183.034ZM100.312 145.358c1.085-.279 2.184-.5 3.293-.663 1.967-.342 3.923-.652 5.891-.952a566.872 566.872 0 0 1 13.428-1.914c1.646-.214 3.303-.439 4.96-.578.321 0 .332-.534 0-.513-3.571.31-7.131.856-10.691 1.358-4.372.621-8.745 1.262-13.096 2a35.098 35.098 0 0 0-3.924.77c-.32.086-.182.589.128.492h.011ZM99.756 147.027a30.484 30.484 0 0 1 3.4-.674c2.01-.342 4.02-.652 6.041-.963a504.95 504.95 0 0 1 13.834-1.946c1.689-.214 3.378-.439 5.067-.588.321 0 .321-.535 0-.503-3.667.299-7.312.866-10.947 1.369-4.501.631-9.013 1.283-13.503 2.032a33.684 33.684 0 0 0-4.02.781c-.32.096-.182.588.128.492ZM99.756 148.417a30.221 30.221 0 0 1 3.4-.663c2.01-.353 4.02-.663 6.041-.963a533.784 533.784 0 0 1 13.834-1.957c1.689-.214 3.378-.438 5.067-.577.321 0 .321-.546 0-.514-3.667.311-7.312.867-10.947 1.369-4.501.631-9.013 1.284-13.503 2.043-1.354.18-2.696.438-4.02.77-.32.096-.182.588.128.492ZM100.034 149.818a28.31 28.31 0 0 1 3.4-.674c2.01-.342 4.024-.663 6.041-.962a538.692 538.692 0 0 1 13.834-1.957c1.689-.214 3.378-.439 5.068-.578.32 0 .32-.545 0-.513-3.657.31-7.313.866-10.948 1.379-4.501.631-9.013 1.273-13.503 2.033a33.709 33.709 0 0 0-4.02.78.257.257 0 0 0 .128.492ZM100.036 150.931a29.994 29.994 0 0 1 3.399-.674c2.01-.343 4.02-.653 6.041-.963a606.034 606.034 0 0 1 13.834-1.946c1.689-.225 3.379-.45 5.068-.589.32 0 .32-.534 0-.513-3.657.31-7.313.866-10.948 1.38-4.501.631-9.013 1.283-13.503 2.032a33.706 33.706 0 0 0-4.02.781c-.32.085-.181.588.129.492ZM100.601 152.321a29.781 29.781 0 0 1 3.389-.674c2.01-.342 4.019-.652 6.04-.962a593.058 593.058 0 0 1 13.845-1.947c1.679-.214 3.368-.438 5.057-.588.321 0 .331-.535 0-.514-3.656.311-7.313.877-10.948 1.38-4.501.631-9.012 1.284-13.503 2.032-1.354.18-2.696.441-4.019.781a.256.256 0 0 0-.044.458c.055.033.12.046.183.034ZM100.879 153.711a30.734 30.734 0 0 1 3.389-.663c2.01-.353 4.02-.663 6.041-.973a494.633 494.633 0 0 1 13.898-1.947c1.679-.214 3.368-.438 5.057-.588.321 0 .331-.535 0-.503-3.656.3-7.313.867-10.948 1.369-4.501.631-9.012 1.284-13.503 2.043a32.083 32.083 0 0 0-4.019.77.26.26 0 0 0-.138.125.258.258 0 0 0 .094.333c.055.034.12.046.183.034h-.054ZM101.018 157.198a33.885 33.885 0 0 1 3.411-.706c2.02-.374 4.041-.717 6.072-1.069 4.63-.771 9.27-1.498 13.899-2.139 1.689-.236 3.378-.492 5.067-.632.321 0 .332-.534 0-.513-1.464.128-2.918.332-4.372.535-2.213.299-4.416.631-6.618.962-4.533.696-9.066 1.423-13.578 2.236-1.36.204-2.709.479-4.041.823-.31.097-.171.589.139.492l.021.011ZM100.579 159.209c1.069-.321 2.235-.514 3.357-.738 1.978-.396 3.956-.76 5.945-1.123 4.565-.824 9.14-1.626 13.727-2.321 1.668-.257 3.336-.524 5.014-.674.321 0 .321-.535 0-.503-1.443.118-2.887.343-4.276.556-2.139.321-4.33.674-6.49 1.07-4.479.749-8.938 1.54-13.396 2.406-1.326.257-2.683.482-3.977.867a.259.259 0 0 0-.155.309.258.258 0 0 0 .294.183l-.043-.032ZM99.991 161.412c1.069-.321 2.256-.546 3.379-.792a381.3 381.3 0 0 1 6.083-1.283c4.618-.941 9.248-1.85 13.898-2.642 1.657-.289 3.336-.599 5.025-.738.321 0 .321-.545 0-.513-1.454.118-2.908.374-4.341.62-2.202.364-4.383.77-6.564 1.177-2.423.463-4.85.941-7.281 1.433-2.138.413-4.24.852-6.307 1.315-1.273.268-2.555.535-3.806.867l-.225.064a.257.257 0 0 0 .14.492ZM99.842 162.738c1.069-.332 2.277-.524 3.421-.759 2.042-.417 4.095-.803 6.147-1.188a605.38 605.38 0 0 1 7.324-1.326 432.93 432.93 0 0 1 6.821-1.144c1.582-.246 3.154-.503 4.736-.663h.363c.321 0 .332-.546 0-.514-1.464.129-2.929.364-4.383.589-2.234.342-4.469.716-6.693 1.069-2.459.428-4.91.866-7.355 1.316a658.22 658.22 0 0 0-6.415 1.23c-1.293.256-2.598.502-3.87.834l-.225.064a.255.255 0 0 0-.154.309.258.258 0 0 0 .294.183h-.011ZM100.28 164.364c1.069-.332 2.266-.535 3.4-.77a530.29 530.29 0 0 1 6.051-1.177c4.618-.866 9.237-1.69 13.898-2.428 1.679-.267 3.368-.556 5.057-.695.321 0 .331-.535 0-.513-1.465.128-2.919.363-4.362.588-2.202.342-4.405.717-6.596 1.07a517.786 517.786 0 0 0-13.525 2.524c-1.347.267-2.715.492-4.019.887a.258.258 0 0 0 .128.492l-.032.022Z" />
        <path fill="#400705"
            d="M100.58 165.979c1.069-.332 2.267-.546 3.4-.781 2.01-.428 4.023-.838 6.04-1.23 4.608-.909 9.227-1.786 13.899-2.556 1.668-.278 3.357-.578 5.046-.727.321 0 .331-.535 0-.503-1.465.118-2.919.364-4.362.599-2.202.363-4.394.748-6.596 1.155-4.512.823-9.024 1.69-13.514 2.631-1.336.289-2.705.535-4.02.92a.258.258 0 0 0-.155.309.258.258 0 0 0 .294.183h-.032ZM101.018 167.305c1.07-.332 2.246-.556 3.357-.802 2.01-.45 4.031-.867 6.041-1.284 4.586-.952 9.173-1.871 13.781-2.674 1.668-.288 3.335-.598 5.014-.748.321 0 .331-.535 0-.503-1.465.118-2.93.385-4.383.631-2.139.374-4.352.781-6.522 1.198-4.49.866-8.981 1.775-13.439 2.749-1.325.288-2.683.556-3.988.941-.31.096-.171.588.139.492Z" />
        <path fill="#0B1B32"
            d="M99.693 171.722c1.154-.342 2.33-.61 3.496-.898l6.35-1.519c2.512-.588 5.025-1.177 7.484-1.743a688.567 688.567 0 0 1 7.024-1.573c1.604-.342 3.207-.695 4.822-.984l.352-.053c.321-.054.193-.545-.139-.492-1.486.235-2.961.567-4.436.877-2.278.492-4.555 1.005-6.843 1.519l-7.558 1.743c-2.192.524-4.394 1.07-6.586 1.572-1.315.321-2.63.631-3.934.995l-.214.064c-.32.086-.182.588.128.492h.054ZM98.816 173.337c1.144-.342 2.32-.61 3.486-.888 2.138-.524 4.276-1.069 6.414-1.529l7.484-1.743a578.616 578.616 0 0 1 7.024-1.562c1.604-.353 3.208-.706 4.822-.984l.363-.064c.321-.054.182-.546-.139-.492-1.486.246-2.961.567-4.436.888a473.12 473.12 0 0 0-6.843 1.508 839.009 839.009 0 0 0-7.558 1.754 659.235 659.235 0 0 0-6.597 1.572c-1.315.321-2.63.631-3.934.984l-.214.064a.255.255 0 0 0-.155.309.258.258 0 0 0 .294.183h-.01ZM97.981 176.727c1.155-.342 2.331-.609 3.496-.898l6.351-1.519a974.985 974.985 0 0 1 7.537-1.743 701.926 701.926 0 0 1 7.013-1.572c1.604-.343 3.208-.695 4.833-.984l.353-.054c.32-.053.181-.545-.139-.492-1.486.236-2.962.567-4.437.877a807.427 807.427 0 0 0-6.843 1.519l-7.558 1.743c-2.202.524-4.394 1.07-6.586 1.573-1.315.32-2.63.631-3.934.994l-.225.064c-.31.097-.17.589.14.492ZM97.49 178.342c1.144-.331 2.32-.599 3.486-.887 2.138-.524 4.276-1.07 6.414-1.53l7.484-1.743a598.192 598.192 0 0 1 7.024-1.562c1.604-.353 3.207-.705 4.822-.984l.363-.064c.321-.053.182-.545-.139-.492-1.486.246-2.961.567-4.437.888-2.287.481-4.565.995-6.842 1.508l-7.559 1.754c-2.202.513-4.394 1.07-6.596 1.572-1.315.321-2.63.631-3.934.984l-.214.064a.258.258 0 0 0-.155.31.26.26 0 0 0 .112.148c.054.034.119.046.182.034h-.01ZM97.778 179.658c1.155-.342 2.331-.61 3.496-.888 2.139-.524 4.277-1.069 6.351-1.529l7.484-1.744c2.341-.534 4.672-1.069 7.024-1.561 1.603-.353 3.207-.706 4.822-.984l.352-.064c.321-.054.193-.546-.128-.492-1.497.235-2.972.567-4.447.877-2.278.492-4.555 1.005-6.843 1.519-2.512.577-5.035 1.155-7.558 1.754-2.139.513-4.394 1.069-6.586 1.572-1.315.31-2.63.62-3.934.984l-.214.064c-.321.096-.182.588.128.492h.053ZM98.079 180.995c1.176-.343 2.373-.621 3.56-.92 2.138-.546 4.351-1.07 6.532-1.594 2.577-.62 5.164-1.23 7.741-1.829 2.405-.556 4.8-1.069 7.206-1.647 1.635-.353 3.271-.727 4.918-1.016l.363-.064c.321-.053.182-.545-.139-.492-1.518.246-3.015.588-4.512.92-2.341.503-4.682 1.069-7.013 1.583a810.272 810.272 0 0 0-7.772 1.829l-6.779 1.647c-1.347.331-2.694.652-4.02 1.069l-.224.064a.258.258 0 0 0-.155.31.256.256 0 0 0 .294.182v-.042ZM97.64 182.759c1.197-.353 2.416-.631 3.635-.93 2.223-.556 4.468-1.07 6.703-1.626 2.651-.641 5.345-1.262 7.954-1.882a568.503 568.503 0 0 1 7.388-1.669c1.667-.374 3.325-.748 5.003-1.069l.364-.064c.32-.054.192-.546-.139-.492-1.529.246-3.058.588-4.576.92a603.542 603.542 0 0 0-7.195 1.625l-7.987 1.872-6.949 1.679c-1.379.342-2.758.674-4.116 1.07l-.224.064a.257.257 0 0 0 .139.492v.01ZM97.981 184.385c1.209-.364 2.417-.674 3.635-.995a642.852 642.852 0 0 1 6.693-1.764l7.986-2.054c2.459-.62 4.918-1.24 7.377-1.829 1.657-.385 3.325-.791 5.004-1.069l.363-.064c.321-.054.182-.546-.139-.492-1.539.246-3.058.631-4.576.984-2.402.57-4.796 1.158-7.184 1.764l-8.018 2.043-6.95 1.829a293.39 293.39 0 0 1-4.105 1.07l-.225.064a.257.257 0 0 0 .14.492v.021ZM98.079 189.679c1.24-.363 2.48-.791 3.71-1.198l6.928-2.256c2.737-.888 5.463-1.776 8.2-2.642a386.494 386.494 0 0 1 7.623-2.342c1.689-.492 3.378-1.07 5.11-1.359l.363-.064c.321 0 .182-.545-.139-.492a41.358 41.358 0 0 0-4.65 1.187 334.077 334.077 0 0 0-7.42 2.257c-2.747.866-5.484 1.743-8.232 2.631l-7.195 2.353c-1.401.46-2.801.931-4.212 1.369l-.225.064a.258.258 0 0 0-.155.31.259.259 0 0 0 .294.182ZM97.49 191.594c1.25-.375 2.491-.781 3.742-1.177l6.949-2.203 8.2-2.588a630.687 630.687 0 0 1 7.612-2.343c1.689-.513 3.368-1.069 5.068-1.465l.363-.085c.321-.075.182-.567-.139-.492-1.55.363-3.089.845-4.618 1.305a231.188 231.188 0 0 0-7.398 2.267c-2.748.856-5.485 1.722-8.233 2.599l-7.216 2.289-4.276 1.336-.225.065a.257.257 0 0 0 .139.492h.032ZM97.052 193.07c1.24-.375 2.47-.792 3.71-1.198l6.927-2.268c2.73-.884 5.464-1.761 8.2-2.631a373.023 373.023 0 0 1 7.623-2.342c1.679-.503 3.379-1.016 5.1-1.358.128 0 .246-.054.374-.064.321-.054.182-.546-.139-.492a41.28 41.28 0 0 0-4.661 1.176 234.222 234.222 0 0 0-7.42 2.267c-2.737.867-5.484 1.744-8.221 2.632l-7.195 2.352c-1.401.46-2.801.931-4.213 1.359l-.224.075a.257.257 0 0 0-.155.309.26.26 0 0 0 .294.183ZM96.752 194.685c1.25-.364 2.48-.792 3.709-1.198l6.928-2.257c2.737-.888 5.463-1.775 8.2-2.642a395.504 395.504 0 0 1 7.623-2.342c1.689-.492 3.379-1.069 5.11-1.358l.364-.064c.321-.054.192-.546-.139-.492a41.16 41.16 0 0 0-4.651 1.187c-2.491.716-4.96 1.486-7.419 2.256-2.751.863-5.492 1.74-8.222 2.631l-7.195 2.353c-1.411.46-2.812.931-4.276 1.369l-.225.065a.257.257 0 0 0 .14.492h.053ZM96.913 195.861c1.24-.364 2.48-.791 3.71-1.187l6.928-2.268c2.726-.887 5.463-1.775 8.2-2.641a364.91 364.91 0 0 1 7.622-2.342c1.69-.492 3.379-1.017 5.1-1.359l.374-.064c.321-.053.182-.545-.139-.492a42.035 42.035 0 0 0-4.661 1.187 351.93 351.93 0 0 0-7.409 2.257 646.216 646.216 0 0 0-8.232 2.642l-7.217 2.342c-1.4.46-2.8.93-4.212 1.369l-.224.064a.257.257 0 0 0 .139.492h.02ZM97.052 197.187c1.24-.363 2.47-.791 3.71-1.198l6.927-2.256a1043.89 1043.89 0 0 1 8.2-2.642 366.853 366.853 0 0 1 7.623-2.342c1.679-.492 3.379-1.016 5.1-1.359l.374-.064c.321-.053.182-.545-.139-.492a41.541 41.541 0 0 0-4.661 1.187c-2.481.717-4.95 1.487-7.42 2.257a1185.3 1185.3 0 0 0-8.221 2.631l-7.195 2.353c-1.401.46-2.801.931-4.213 1.369l-.224.064a.259.259 0 0 0-.155.31.259.259 0 0 0 .111.148c.055.034.12.046.183.034ZM97.64 198.225c1.24-.375 2.469-.792 3.709-1.198l6.928-2.268a747.374 747.374 0 0 1 8.2-2.631 457.977 457.977 0 0 1 7.623-2.353c1.689-.492 3.378-1.005 5.1-1.347l.374-.075c.321-.053.182-.545-.139-.492a41.272 41.272 0 0 0-4.661 1.187 311.51 311.51 0 0 0-7.42 2.268 782.613 782.613 0 0 0-8.221 2.631l-7.196 2.342c-1.4.46-2.8.93-4.212 1.369l-.224.075a.257.257 0 0 0 .139.492Z" />
        <path fill="#0B1B32"
            d="M98.228 185.711c1.24-.395 2.502-.727 3.753-1.069l6.778-1.883 7.997-2.224c2.459-.685 4.918-1.369 7.377-2.075 1.646-.471 3.303-.941 4.939-1.465l.353-.107c.31-.107.182-.599-.139-.492-1.486.492-3.004.92-4.522 1.347-2.385.696-4.779 1.359-7.174 2.032L109.582 182l-7.035 1.936c-1.4.396-2.822.781-4.276 1.208l-.235.075a.258.258 0 0 0-.155.31.259.259 0 0 0 .111.148c.055.034.12.046.183.034h.053ZM98.666 174.963c1.155-.343 2.32-.61 3.485-.899l6.415-1.519c2.512-.588 5.014-1.176 7.484-1.743a549.18 549.18 0 0 1 7.024-1.572c1.603-.342 3.207-.695 4.821-.984l.364-.064c.321 0 .182-.535-.139-.492-1.486.246-2.961.567-4.437.888-2.288.492-4.568.998-6.842 1.518a846.955 846.955 0 0 0-7.559 1.744c-2.202.513-4.394 1.069-6.596 1.572-1.304.321-2.63.631-3.924.994l-.224.065a.257.257 0 0 0-.155.309.26.26 0 0 0 .294.183h-.011ZM52.952 159.69a19.112 19.112 0 0 0-2.705 14.524 6.623 6.623 0 0 0 1.817 3.519c.246.224.61-.139.364-.353a5.865 5.865 0 0 1-1.625-3.07 17.106 17.106 0 0 1-.47-3.604 18.84 18.84 0 0 1 1.175-7.091 19.04 19.04 0 0 1 1.882-3.69c.182-.267-.257-.524-.438-.256v.021Z" />
        <path fill="#0B1B32"
            d="M54.993 159.989a22.115 22.115 0 0 0-2.78 14.107c.19 1.38.517 2.738.974 4.054.107.31.598.182.491-.139a21.635 21.635 0 0 1 0-14.086 20.915 20.915 0 0 1 1.711-3.679c.16-.289-.278-.545-.438-.257h.042ZM87.163 166.128a25.241 25.241 0 0 0-2.278 18.45.26.26 0 0 0 .31.155.261.261 0 0 0 .148-.112.255.255 0 0 0 .034-.182 24.747 24.747 0 0 1 .556-14.289 23.177 23.177 0 0 1 1.668-3.765c.16-.289-.289-.545-.438-.257Z" />
        <path fill="#0B1B32"
            d="M88.83 166.353a35.607 35.607 0 0 0-2.47 6.845 23.416 23.416 0 0 0-.588 6.791 31.09 31.09 0 0 0 .567 4.193c.064.321.556.182.492-.139a26.59 26.59 0 0 1-.535-7.07 25.13 25.13 0 0 1 1.39-6.502 41.774 41.774 0 0 1 1.593-3.861c.139-.289-.31-.556-.45-.257ZM100.429 138.738a12.089 12.089 0 0 0-2.448 11.369c.288.98.71 1.915 1.251 2.781.158.203.294.421.406.652.107.332-.15.61-.331.856-.276.38-.515.784-.716 1.208a11.964 11.964 0 0 0-1.07 5.819c.12 2.24.669 4.436 1.615 6.47l.16-.374a3.68 3.68 0 0 0-2.138 2.139 21.51 21.51 0 0 0-1.165 3.636 24.995 24.995 0 0 0-.567 8.866 26.62 26.62 0 0 0 1.144 5.156l.182-.321c-1.7.492-2.384 2.299-2.694 3.882a15.062 15.062 0 0 0-.129 5.829 6.738 6.738 0 0 0 1.38 2.93c.213.246.577-.117.363-.363a7.619 7.619 0 0 1-1.443-5.113c.023-.913.105-1.824.246-2.727a8.247 8.247 0 0 1 .641-2.256 2.915 2.915 0 0 1 1.796-1.648.253.253 0 0 0 .154-.117.258.258 0 0 0 .028-.193 24.795 24.795 0 0 1-1.251-8.631 25.5 25.5 0 0 1 1.54-7.936 3.917 3.917 0 0 1 2.074-2.663.26.26 0 0 0 .166-.15.265.265 0 0 0-.006-.224 16.452 16.452 0 0 1-1.454-5.604c-.224-1.964.029-3.952.738-5.797.178-.429.397-.841.652-1.23.256-.396.663-.791.673-1.294.011-.503-.417-.92-.652-1.326a9.733 9.733 0 0 1-.695-1.369c-.738-1.841-1-3.839-.759-5.808a11.114 11.114 0 0 1 2.705-6.107c.214-.246-.139-.609-.363-.363l-.033.021ZM54.335 183.773c.31-1.739-.954-3.42-2.825-3.755-1.872-.335-3.641.802-3.953 2.541-.31 1.738.954 3.419 2.826 3.755 1.871.335 3.64-.803 3.952-2.541ZM39.513 161.872c.213-.343-.332-.663-.546-.321a13.054 13.054 0 0 0-1.838 5.144 13.672 13.672 0 0 0 .352 5.508c.275 1.003.67 1.969 1.176 2.877a.322.322 0 0 0 .549-.1.322.322 0 0 0-.004-.221 12.417 12.417 0 0 1-1.528-4.994 12.957 12.957 0 0 1 .577-5.198c.306-.948.73-1.853 1.262-2.695ZM38.571 179.091a4.278 4.278 0 0 0-.353 3.476c.118.385.727.214.599-.171a3.714 3.714 0 0 1 .3-2.995.313.313 0 1 0-.546-.31Z" />
        <path fill="#fff" fill-opacity=".3"
            d="M74.697 108.856c.25.758.674 1.447 1.24 2.01 0 0 1.72-1.283 1.881-1.422.16-.139 1.647.92 1.647.92l2.245 1.775a3.584 3.584 0 0 0 .289 2.834c.833 1.305 2.726.845 2.726.845a15.858 15.858 0 0 0-.406-3.208 10.271 10.271 0 0 0-2.31-3.54s-2.138-2.696-3.442-3.273c-1.305-.578-3.454.877-3.454.877a3.585 3.585 0 0 0-.416 2.182Z" />
        <path fill="#fff"
            d="M77.338 105.636a4.06 4.06 0 0 1 1.443.621 22.152 22.152 0 0 1 4.64 6.096c.306 1.132.486 2.294.535 3.465l-.054.064c.27-.002.538-.03.802-.085a15.12 15.12 0 0 0-.406-3.209 10.306 10.306 0 0 0-2.299-3.518s-2.138-2.696-3.453-3.273a2.215 2.215 0 0 0-1.208-.161Z" />
        <path fill="#fff" fill-opacity=".3"
            d="M66.25 99.177c-1.817 3.144-3.891 11.187-4.511 13.903-.62 2.717-1.722 10.695-1.722 10.695l-.385 5.755a15.957 15.957 0 0 1-4.276-3.209c-2.042-2.214-3.068-6.845-3.068-6.845s1.186.545 2.608-1.626c1.422-2.171-1.582-7.283-5.345-5.722-3.764 1.562-3.208 7.487-1.829 11.252 1.38 3.764 3.817 5.829 8.831 7.829a15.372 15.372 0 0 0 8.917.941c1.005 1.23 6.083.642 6.083.642l3.485.064h1.625l3.272.075s3.025.31 3.346-.717c.32-1.027-.759-1.893-1.946-2.578-1.186-.684-3.806.92-3.806.92l-2.876-1.187c.61-.503 3.133-2.61 3.208-5.412a4.846 4.846 0 0 0-.556-2.31 4.737 4.737 0 0 0-1.593-1.754c-.62-1.123-.845-4.749-.845-4.749.669.216 1.313.499 1.925.845a4.997 4.997 0 0 1 1.571 2.375c.16.567-.62.641-.427 2.321.192 1.679 2.565 1.828 2.565 1.828s.364.097.246-3.604c-.117-3.7-4.148-7.358-4.148-7.358-2.844-2.856-1.465-4.931-1.465-4.931 0-.941.727-1.925 2.588-3.208 1.86-1.284 7.12-2.813 7.12-2.813s3.774-1.733 4.373-5.294c.598-3.562-1.24-4.086-1.465-4.203-3.004-1.006-10.231.3-10.231.3a15.927 15.927 0 0 0-11.269 7.775Z" />
        <path fill="#fff"
            d="M60.937 117.326a67.236 67.236 0 0 0-.94 8.268c.298-2.61 1.164-1.947 2.137-2.311 1.668-.598-.32-5.636.503-6.417.823-.78 2.138 1.123 3.11.663 1.316-.663-.93-2.577-2.073-4.524a7.296 7.296 0 0 1-.556-4.588s-1.4 4.62-2.181 8.909ZM76.6 123.423a6.9 6.9 0 0 1-1.07 4.727l.374-.139a6.418 6.418 0 0 0 1.828-4.129 4.846 4.846 0 0 0-.555-2.31 4.824 4.824 0 0 0-1.594-1.754 1.631 1.631 0 0 1-.117-.235l-.32.139a4.768 4.768 0 0 0-3.753-.567s4.682.909 5.206 4.268ZM74.6 108.171s-.651 1.476.054 2.321c.706.845 2.491 2.856 3.55 4.278a7.308 7.308 0 0 1 1.71 4.653c-.15 1.486-.449 2.855.481 2.994.086-.064.321-.503.225-3.604-.096-3.722-4.073-7.305-4.073-7.305a9.667 9.667 0 0 1-.984-1.187 4.01 4.01 0 0 1-.962-2.15ZM53.08 114.856a4.524 4.524 0 0 1 .138 4.363l.118.064a4.387 4.387 0 0 0 1.55-1.529c1.422-2.192-1.582-7.283-5.346-5.722-.422.172-.81.418-1.143.727a4.557 4.557 0 0 1 4.682 2.097ZM77.497 91.369a15.211 15.211 0 0 0-7.997 3.797l6.254-2.417a45.037 45.037 0 0 1 12.274-.888c.085 0-.075-.706-.3-.824-3.004-1.005-10.231.3-10.231.3v.032Z" />
        <path fill="#0B1B32"
            d="M73.296 90.888a.492.492 0 0 1-.225-.054.502.502 0 0 1-.224-.267.47.47 0 0 1 0-.342 2.598 2.598 0 0 1 3.293-1.476.437.437 0 0 1 .245.577.685.685 0 0 1-.085.15.481.481 0 0 1-.15.107h-.17a.482.482 0 0 1-.172 0 1.645 1.645 0 0 0-2.138 1.005.439.439 0 0 1-.16.182.406.406 0 0 1-.236.075l.022.043ZM84.586 97.968h.054a.235.235 0 0 1 .15 0c.045.026.079.068.096.118a.202.202 0 0 1 0 .085c.01.028.01.058 0 .086a.172.172 0 0 1 0 .075l-.086.053c-.112.055-.23.095-.353.118l-.363.064a4.496 4.496 0 0 1-.76 0 2.447 2.447 0 0 1-.77-.225 1.86 1.86 0 0 1-.62-.502.214.214 0 0 1 0-.14.192.192 0 0 1 0-.138.224.224 0 0 1 .161-.075.225.225 0 0 1 .16.053c.144.141.315.25.503.321.19.068.388.114.588.14.213.02.428.02.642 0 .106.01.214.01.32 0 .107.015.215.015.321 0l-.043-.033Z" />
        <path fill="#0B1B32"
            d="M48.729 125.915a15.968 15.968 0 0 0 7.623 5.433c1.043.376 2.116.665 3.207.866.351.079.71.126 1.07.139.707.1 1.422.147 2.137.139a13.6 13.6 0 0 0 2.641-.235c.407.398.94.64 1.507.684.78.075 2.48.054 4.277 0 1.796-.053 3.87-.085 5.174 0 0 0 1.486.075 3.047.075 1.561 0 3.368-.096 3.85-.481a.805.805 0 0 0 .266-.407.92.92 0 0 0 0-.481 3.47 3.47 0 0 0-2.223-2.374 2.537 2.537 0 0 0-1.166-.054 2.034 2.034 0 0 0-.748-.727 2.035 2.035 0 0 0-.994-.257c-.488.033-.952.22-1.326.535a1.28 1.28 0 0 1-.567.31h-1.379a8.115 8.115 0 0 0 2.33-3.123 5.07 5.07 0 0 0-.405-5.005 5.004 5.004 0 0 0-1.305-1.294 17.046 17.046 0 0 1-.78-4.278l1.069.481a4.354 4.354 0 0 1 1.903 2.449c-.02.183-.075.361-.16.524a2.519 2.519 0 0 0-.182 2.139 3.071 3.071 0 0 0 2.694 1.69.26.26 0 0 0 .139-.053.204.204 0 0 0 .075-.129c.172-1.208.261-2.426.267-3.647.14-2.609-2.812-5.936-4.394-7.7l-.246-.268c.475-.431.99-.814 1.54-1.144h.085a.214.214 0 0 1 .118 0c.225.044.437.139.62.278l.502.342c.849.6 1.666 1.243 2.449 1.925-.097.503-.407 2.236.46 3.145.253.255.555.459.887.599a2.58 2.58 0 0 0 1.069.203c.311-.003.62-.05.92-.139a.292.292 0 0 0 .106-.086.539.539 0 0 0 0-.139 12.642 12.642 0 0 0-.663-3.978c-.641-1.294-3.335-5.07-4.939-6a3.33 3.33 0 0 0-2.983-.054 6.31 6.31 0 0 0-.93.46s0-.085.064-.117c.984-2.439 3.87-3.508 8.553-4.974a8.239 8.239 0 0 0 3.207-1.925 8.321 8.321 0 0 0 2.021-3.208 5.35 5.35 0 0 0 .075-3.626 2.137 2.137 0 0 0 1.069-.406 2.14 2.14 0 0 0 .716-.835 2.14 2.14 0 0 0 .246-1.294 2.332 2.332 0 0 0-.502-1.208 2.139 2.139 0 0 0-.663-.567 1.924 1.924 0 0 0-.845-.236c-.327 0-.65.077-.94.225a2.074 2.074 0 0 0-.76.599c-.243.257-.429.564-.545.898a2.844 2.844 0 0 0-.16 1.07 26.845 26.845 0 0 0-7.377.203c-2.556.33-5.094.794-7.602 1.39a13.447 13.447 0 0 0-.48-6.887c-1.07-2.631-3.208-1.572-3.325.085-.204 2.877 1.56 6.107 2.298 7.359-.122.086-.24.18-.353.278-.363-.696-2.138-4-2.651-4.182a3.206 3.206 0 0 0-2.138.139c-.257.267-1.176 1.347-1.4 4.588-.225 3.24 1.282 4.01 2.244 3.583.962-.428 1.347-4.642 1.347-4.642l1.476 1.69a27.088 27.088 0 0 0-2.908 4.91 65.42 65.42 0 0 0-4.597 14.16 81.079 81.079 0 0 0-1.946 15.786 10.363 10.363 0 0 1-5.42-5.412 19.365 19.365 0 0 1-1.444-4.064 3.538 3.538 0 0 0 2.01-1.006 3.698 3.698 0 0 0 .235-4.566 4.45 4.45 0 0 0-5.11-2.268 4.506 4.506 0 0 0-2.865 3.134c-1.166 3.219-.342 7.85 1.828 10.963Zm27.166-15.391a2.834 2.834 0 0 0-.192-.235 3.07 3.07 0 0 1-.567-3.348 6.2 6.2 0 0 1 1.326-.748 2.802 2.802 0 0 1 2.587 0c1.486.845 4.105 4.524 4.768 5.818.394 1.164.596 2.385.599 3.615-.39.101-.798.101-1.187 0a2.412 2.412 0 0 1-1.07-.599c-.822-.845-.32-2.824-.32-2.845a.215.215 0 0 0 0-.118.276.276 0 0 0 0-.096s-.844-.749-1.732-1.433c-.32-.235-.577-.439-.823-.599a.574.574 0 0 1-.257-.631.45.45 0 0 0-.181-.524c-.342-.171-1.005.267-1.38.567-.548.357-1.073.75-1.571 1.176Zm-28.727 4.695a4.16 4.16 0 0 1 2.566-2.845 4.034 4.034 0 0 1 4.586 2.043 3.21 3.21 0 0 1-.16 4 2.99 2.99 0 0 1-3.207.749 4.811 4.811 0 0 1-1.508-.824h-.16s-.096 1.166 1.422 2.139a8.784 8.784 0 0 1 2.95 3.337c.14.278.236.482.257.503a10.143 10.143 0 0 0 5.741 5.273.22.22 0 0 0 .14 0 .141.141 0 0 0 .063-.075.172.172 0 0 0 0-.107c-.085-1.786.225-7.423 1.989-15.968a64.475 64.475 0 0 1 4.062-12.931 8.549 8.549 0 0 0 9.195.075c4.34-2.716 3.11-7.882 2.769-9.037.545-.096 1.069-.16 1.668-.235a25.285 25.285 0 0 1 7.483-.16c.158.365.423.674.76.887a2.62 2.62 0 0 0 1.069.417 4.718 4.718 0 0 1 0 3.465 7.776 7.776 0 0 1-1.914 2.974 7.846 7.846 0 0 1-3.036 1.828c-4.79 1.508-7.762 2.621-8.82 5.23-1.059 2.61-.364 3.765.32 4.631.16.225.438.503.76.888 1.55 1.733 4.415 4.952 4.276 7.38-.107 2.139-.182 3.016-.225 3.379a2.5 2.5 0 0 1-2.138-1.39 2.14 2.14 0 0 1 .182-1.743 1.53 1.53 0 0 0 .181-.802 4.92 4.92 0 0 0-2.138-2.76 23.56 23.56 0 0 0-1.24-.524l-.203-.085h-.064a7.585 7.585 0 0 1-2.47-1.327.29.29 0 0 0-.128-.096.212.212 0 0 0-.16 0 .205.205 0 0 0-.108.107.236.236 0 0 0 0 .15c0 .096.065.203.086.299l.075.449a7.471 7.471 0 0 1-1.24-1.818.375.375 0 0 0-.107-.117.274.274 0 0 0-.16 0 .213.213 0 0 0-.129.085.183.183 0 0 0 0 .161c.023.356.023.713 0 1.069l-.641-1.069a10.807 10.807 0 0 1-1.262-4.888.181.181 0 0 0 0-.16.195.195 0 0 0-.15-.086.223.223 0 0 0-.213.12.203.203 0 0 0-.022.083 10.033 10.033 0 0 0 .952 4.385c.042.126.096.248.16.364.029.81.268 1.599.695 2.289a7.717 7.717 0 0 0 4.96 3.347c.065.353.14.706.236 1.07a5.814 5.814 0 0 0-2.48-.524 9.132 9.132 0 0 0-3.069.566h-.064a.26.26 0 0 0-.128.075.259.259 0 0 0 0 .15c0 .056.024.11.064.15a.217.217 0 0 0 .16.064h.16c1.444-.513 4.972-1.39 6.982 1.422a4.603 4.603 0 0 1 .353 4.567 7.772 7.772 0 0 1-3.1 3.583l-.642.364a6.716 6.716 0 0 1-1.69.567h-.096v.181h.097c.577 0 5.709.139 6.34 0 .232-.074.451-.182.652-.32a3.419 3.419 0 0 1 2.566-.642 3.08 3.08 0 0 1 1.935 2.011.632.632 0 0 1 0 .246.575.575 0 0 1-.107.213c-.503.428-3.806.482-6.575.3-1.326-.075-3.293 0-5.218 0-1.924 0-3.464.064-4.223 0a1.77 1.77 0 0 1-1.528-.973 1.971 1.971 0 0 1 .641-1.947.321.321 0 0 0 .054-.171.292.292 0 0 0-.075-.15.217.217 0 0 0-.16-.064 2.744 2.744 0 0 0-1.882 1.412 3.735 3.735 0 0 1-3.325 1.326h-.268a20.357 20.357 0 0 1-3.891-.962 15.5 15.5 0 0 1-7.398-5.273c-2.245-2.877-3.047-7.326-2.085-10.3Z" />
        <path fill="#0B1B32"
            d="M88.146 93.027a.257.257 0 0 0-.257-.268.267.267 0 0 0-.256.268.257.257 0 1 0 .513 0ZM88.851 93.765a.278.278 0 1 0-.556 0 .28.28 0 0 0 .278.288.288.288 0 0 0 .278-.288ZM87.975 94.492a.214.214 0 0 0-.203-.203.203.203 0 0 0-.144.347c.038.038.09.06.144.06a.214.214 0 0 0 .203-.204ZM85.71 93.904a.29.29 0 0 0-.29-.278.278.278 0 0 0-.277.278.289.289 0 0 0 .278.289.289.289 0 0 0 .288-.29ZM86.52 92.76a.278.278 0 0 0-.555 0 .279.279 0 0 0 .256.267.268.268 0 0 0 .3-.268ZM87.174 93.626a.288.288 0 0 0-.289-.278.278.278 0 0 0 0 .556.278.278 0 0 0 .289-.278ZM86.681 94.898a.256.256 0 0 0-.256-.267.267.267 0 0 0-.257.267.257.257 0 1 0 .513 0ZM85.708 95.433a.236.236 0 0 0-.246-.235.235.235 0 0 0-.235.235.237.237 0 0 0 .142.227c.03.013.061.02.093.02a.245.245 0 0 0 .246-.247ZM87.986 95.658a.244.244 0 0 0-.157-.24.246.246 0 0 0-.1-.017.257.257 0 0 0 0 .514.247.247 0 0 0 .24-.157.244.244 0 0 0 .017-.1ZM84.405 93.102a.267.267 0 0 0-.268-.257.256.256 0 0 0-.256.257.267.267 0 0 0 .256.267.267.267 0 0 0 .268-.267ZM84.725 94.877a.267.267 0 0 0-.267-.267.267.267 0 0 0-.237.365.258.258 0 0 0 .422.084.267.267 0 0 0 .082-.182Z" />
        <path fill="#fff"
            d="M75.53 95.455a2.011 2.011 0 0 0-2.01-2.011 2.01 2.01 0 0 0-1.414 3.429c.375.376.884.59 1.415.592a2.01 2.01 0 0 0 2.01-2.01Z" />
        <path fill="#0B1B32"
            d="M75.177 94.15c-.263-.36-.64-.62-1.07-.738a1.988 1.988 0 0 0-1.335.15c.022.326.125.642.299.92.172.275.406.505.684.673.285.16.604.248.93.257.321.012.64-.054.93-.193a1.924 1.924 0 0 0-.395-1.07h-.043Z" />
        <path fill="#fff"
            d="M90.497 89.294c.129-.182-.064-.535-.427-.791-.364-.257-.76-.31-.888-.129-.128.182.064.535.428.792s.716.31.887.128Z" />
    </g>
    <defs>
        <clipPath id="a">
            <path fill="#fff" d="M37 24h112v176H37z" />
        </clipPath>
    </defs>
</svg>