<svg xmlns="http://www.w3.org/2000/svg" width="237" height="237" fill="none">
    <path fill="#fff" fill-opacity=".3"
        d="M75.552 206.956c-63.59-2.482-71.395-83.068-37.584-133.16C66.563 31.41 83.58 13.44 114.838 12.144c52.826-2.186 94.405 60.355 105.725 113.967 16.498 77.992-7.177 86.18-145.01 80.845Z" />
    <path fill="#FFB300" d="M167.647 127.147h-3.922v57.869h3.922v-57.869Z" />
    <path fill="#0B1B32"
        d="M167.65 185.26h-3.913a.246.246 0 0 1-.172-.07.245.245 0 0 1-.071-.172v-57.871a.243.243 0 0 1 .243-.242h3.925a.243.243 0 0 1 .243.242v57.871a.243.243 0 0 1-.255.242Zm-3.683-.484h3.44v-57.387h-3.427l-.013 57.387Z" />
    <path fill="#FFB300"
        d="M168.028 183.72h-4.692l-25.153 9.412c-4.153 1.059 11.513 4.376 27.274 4.548 16.196.184 32.493-2.811 27.476-4.555l-24.905-9.405Z" />
    <path fill="#fff"
        d="M162.569 183.979s-15.123 6.926-14.565 8.841c.559 1.915 2.171 3.526 6.198 4.267-7.622-.485-16.98-2.536-16.732-3.71 1.796-.618 25.099-9.398 25.099-9.398Z" />
    <path fill="#0B1B32"
        d="M166.871 197.939h-1.417a136.552 136.552 0 0 1-19.177-1.613c-3.308-.542-8.879-1.6-9-2.714-.056-.472.607-.652.844-.712l25.129-9.407a.245.245 0 0 1 .085-.015h4.692c.029 0 .058.005.085.015l24.907 9.412c.286.101 1.18.411 1.071 1.034-.243 1.331-5.904 2.327-9.263 2.801a133.283 133.283 0 0 1-17.956 1.199Zm-29.109-4.376c.461 1.03 12.996 3.71 27.706 3.875 15.028.169 27.915-2.272 28.158-3.591.014-.08-.129-.274-.76-.485l-24.885-9.399h-4.612l-25.102 9.395h-.024a1.164 1.164 0 0 0-.481.205ZM163.654 128.927s2.721.462 3.884 4.729c.078-2.134.243-4.916.243-4.916l-4.127.187Z" />
    <path fill="#0B1B32"
        d="m167.434 183.856 18.406 12.427 5.95-1.33-23.487-11.22-.869.123ZM166.991 183.825l15.875 12.768-4.462.525-12.156-13.293h.743ZM204.243 125.251v-3.119H182.64c-5.112-.242-10.858-.37-16.931-.37s-11.829.128-16.941.37h-21.686v3.409h.066c.759 1.954 17.719 3.519 38.551 3.519 21.308 0 38.581-1.637 38.581-3.657a.386.386 0 0 0-.037-.152Z" />
    <path fill="#0B1B32"
        d="M165.7 129.302c-17.742 0-37.074-1.237-38.702-3.538a.24.24 0 0 1-.158-.223v-3.409c0-.064.025-.126.071-.171a.24.24 0 0 1 .172-.071h21.686a372.65 372.65 0 0 1 16.931-.371c5.944 0 11.651.126 16.94.371h21.604a.243.243 0 0 1 .243.242v3.073a.583.583 0 0 1 .036.198c0 .431 0 1.737-11.52 2.826-7.294.683-16.992 1.073-27.303 1.073Zm-38.375-3.928a.237.237 0 0 1 .049.08c.631 1.623 16.181 3.364 38.326 3.364 10.297 0 19.977-.381 27.257-1.071 10.77-1.014 11.073-2.21 11.073-2.344a.122.122 0 0 0-.017-.055.27.27 0 0 1-.019-.097v-2.877h-21.361a373.393 373.393 0 0 0-16.931-.37c-5.937 0-11.629.126-16.919.37h-21.458v3Z" />
    <path fill="#FFB300"
        d="M165.68 126.05c21.308 0 38.581-1.636 38.581-3.654s-17.273-3.654-38.581-3.654c-21.307 0-38.58 1.636-38.58 3.654s17.273 3.654 38.58 3.654Z" />
    <path fill="#0B1B32"
        d="M165.678 126.292c-10.311 0-20.008-.38-27.303-1.07-11.518-1.092-11.518-2.397-11.518-2.826 0-.429 0-1.734 11.521-2.826 7.294-.69 16.991-1.07 27.3-1.07 10.31 0 20.014.38 27.308 1.07 11.53 1.092 11.53 2.397 11.53 2.826 0 .429 0 1.734-11.517 2.826-7.307.69-17.004 1.07-27.321 1.07Zm0-7.308c-10.294 0-19.974.38-27.254 1.071-10.768 1.019-11.081 2.208-11.081 2.341s.313 1.322 11.081 2.344c7.282.688 16.96 1.068 27.257 1.068s19.98-.38 27.259-1.068c10.768-1.022 11.091-2.211 11.091-2.344s-.311-1.322-11.079-2.341c-7.291-.691-16.972-1.071-27.274-1.071Z" />
    <path fill="#fff"
        d="M150.986 113.805c-.26 4.164-2.651 7.415-4.854 9.095a1.05 1.05 0 0 0-.418.841.65.65 0 0 1-.184.454.62.62 0 0 1-.445.188h-5.405a.624.624 0 0 1-.445-.188.65.65 0 0 1-.184-.453v-.13a1.062 1.062 0 0 0-.399-.826c-2.122-1.699-4.298-4.921-4.534-9a.71.71 0 0 1 .188-.515.675.675 0 0 1 .495-.215h15.503a.674.674 0 0 1 .501.224.696.696 0 0 1 .181.525Z" />
    <path fill="#fff"
        d="M152.891 114.276c-.652 0-1.405.465-2.038.691.134-.813.073-1.127.073-1.127s.231-.871-.909-.784c-1.141.087-11.904.087-11.904.087s-1.025-.174-1.033.841c-.01 1.284.66 3.399 1.546 4.561 1.196 1.569 1.879 3.66 1.879 4.182 0 1.395.513 1.569.513 1.569l3.858.087s.776.257.85-.787c.075-1.043.581-.644 1.011-1.192.197-.251.769-.788 1.413-1.548 4.401 1.189 6.962-1.781 6.962-3.792 0-1.917-.855-2.788-2.221-2.788Zm-3.071 5.559a5.358 5.358 0 0 1-.829-.067 9.503 9.503 0 0 0 1.252-2.443c.125-.381.227-.725.311-1.035a4.895 4.895 0 0 0 1.388-.46c.316-.141.748-.334.949-.334.408 0 1.025 0 1.025 1.568 0 1.118-1.446 2.771-4.096 2.771Z" />
    <path fill="#0B1B32"
        d="M152.89 114.014c-.506 0-1.027.234-1.531.459l-.185.082c.03-.241.053-.485.068-.732a.995.995 0 0 0-.254-.726.924.924 0 0 0-.684-.302h-15.502a.926.926 0 0 0-.687.302.936.936 0 0 0-.252.704c.245 4.239 2.553 7.527 4.632 9.191a.786.786 0 0 1 .301.62v.13c0 .239.093.468.259.638a.877.877 0 0 0 .626.264h5.404c.235 0 .46-.095.626-.264a.913.913 0 0 0 .259-.638.806.806 0 0 1 .084-.355.77.77 0 0 1 .232-.277 12.224 12.224 0 0 0 1.998-1.947l.086.02a.827.827 0 0 0 .147.035 7.434 7.434 0 0 0 1.573.175 5.728 5.728 0 0 0 3.152-.89c1.271-.824 2.125-2.206 2.125-3.438 0-2.655-1.552-3.051-2.477-3.051Zm-7.805 10.108h-5.404a.376.376 0 0 1-.373-.38v-.13c0-.063-.005-.125-.014-.187h6.204a1.35 1.35 0 0 0-.04.317c0 .1-.039.197-.109.268a.368.368 0 0 1-.264.112Zm.894-1.431a1.244 1.244 0 0 0-.218.211H139.1a1.325 1.325 0 0 0-.289-.322c-1.991-1.593-4.202-4.744-4.437-8.81a.423.423 0 0 1 .257-.417.437.437 0 0 1 .171-.036h15.503a.414.414 0 0 1 .309.137.441.441 0 0 1 .117.335c-.255 4.086-2.622 7.278-4.752 8.902Zm4.784-6.169c.443-.1.873-.252 1.282-.453.225-.101.697-.312.844-.312.36 0 .768 0 .768 1.307 0 .901-1.283 2.509-3.838 2.509-.132 0-.264-.007-.399-.017a12.974 12.974 0 0 0 1.344-3.034h-.001Zm2.204 3.539a5.315 5.315 0 0 1-3.192.798c.228-.221.41-.487.535-.782 2.491-.194 3.861-1.848 3.861-3.013 0-1.612-.648-1.83-1.282-1.83-.235 0-.599.153-1.05.356l-.099.043c.159-.429.444-.798.818-1.054.108-.026.22-.04.332-.042 1.303 0 1.964.85 1.964 2.527 0 .883-.584 2.152-1.887 2.997Z" />
    <path fill="#FFB300"
        d="M117.587 181.002s-2.024-1.411-3.315-.851c-1.291.561-3.315 3.151-3.315 3.151s-1.811 1.855-2.216 3.479a14.958 14.958 0 0 0-.386 3.054s1.812.445 2.621-.812c.791-1.256.27-2.725.27-2.725l2.159-1.701s1.426-1.005 1.58-.889c.154.135 1.811 1.372 1.811 1.372s1.118-1.179 1.195-1.933c.135-1.353-.404-2.145-.404-2.145Z" />
    <path fill="#fff"
        d="M114.291 180.151c-1.291.561-3.314 3.151-3.314 3.151s-1.812 1.855-2.217 3.479a14.957 14.957 0 0 0-.385 3.054 3.7 3.7 0 0 0 .771.077l-.058-.058s.135-2.435.52-3.324c.945-2.088 3.643-5.335 4.452-5.857.42-.288.891-.491 1.388-.599v-.02a2.114 2.114 0 0 0-1.157.097Z" />
    <path fill="#FFB300"
        d="M115.294 166.35s-6.938-1.256-9.828-.29c-.212.116-1.985.619-1.407 4.04.578 3.421 4.201 5.083 4.201 5.083s5.03 1.45 6.841 2.707c1.793 1.256 2.486 2.203 2.486 3.112 0 0 1.33 1.99-1.406 4.735 0 0-3.816 3.441-3.913 7.017-.115 3.556.232 3.46.232 3.46s2.274-.136 2.466-1.759c.193-1.605-.558-1.682-.404-2.223.154-.542.771-1.817 1.503-2.281a9.405 9.405 0 0 1 1.85-.812s-.212 3.479-.809 4.562a4.564 4.564 0 0 0-2.062 3.904c.019 2.687 2.447 4.717 3.025 5.2l-2.756 1.14s-2.544-1.546-3.661-.889c-1.137.657-2.178 1.488-1.87 2.474.309.986 3.219.696 3.219.696l3.141-.077 1.561-.02 3.353-.058s4.876.561 5.84-.618c0 0 3.758 1.005 8.575-.909 4.818-1.913 7.131-3.904 8.48-7.519 1.349-3.614 1.889-9.297-1.754-10.805-3.642-1.507-6.533 3.383-5.165 5.49 1.369 2.087 2.506 1.565 2.506 1.565s-.983 4.446-2.949 6.572a15.307 15.307 0 0 1-4.124 3.132l-.366-5.528s-1.06-7.597-1.657-10.226c-.598-2.628-2.583-10.36-4.337-13.375-1.753-3.054-5.511-6.785-10.811-7.5Z" />
    <path fill="#fff"
        d="M129.15 182.741s.559 2.532-.539 4.407c-1.099 1.875-3.257 3.711-1.985 4.349.886.445 2.197-1.391 2.987-.638.79.735-1.118 5.567.482 6.147.905.348 1.734-.29 2.023 2.223a64.382 64.382 0 0 0-.906-7.944c-.751-4.117-2.062-8.544-2.062-8.544ZM121.134 193.044c-2.197-.503-3.604.541-3.604.541l-.309-.136c-.034.08-.073.157-.115.232a4.57 4.57 0 0 0-2.062 3.905c.019 1.643.905 3.015 1.753 3.962l.367.136c-.906-1.083-1.176-3.248-.983-4.543.481-3.228 4.953-4.097 4.953-4.097ZM117.143 184.577a9.12 9.12 0 0 1-.944 1.141s-3.816 3.44-3.912 7.016c-.097 2.977.135 3.402.212 3.46h.019c.887-.135.597-1.449.463-2.88-.135-1.45.616-3.073 1.638-4.465 1.021-1.392 2.736-3.324 3.411-4.136.674-.812.058-2.223.058-2.223.057.676-.598 1.643-.945 2.087ZM143.295 186.897a3.547 3.547 0 0 0-1.099-.696c-3.642-1.508-6.533 3.383-5.165 5.49.559.85 1.08 1.256 1.484 1.469l.116-.058s-1.195-2.223.135-4.195c1.387-2.029 3.083-2.165 4.529-2.01ZM115.294 166.35s-6.938-1.256-9.829-.29c-.212.116-.366.793-.289.793 5.955-.503 11.795.85 11.795.85l6.012 2.32a14.588 14.588 0 0 0-7.689-3.673Z" />
    <path fill="#0B1B32"
        d="M119.341 165.886a.44.44 0 0 1-.385-.251c-.675-1.43-1.908-1.025-2.043-.967a.399.399 0 0 1-.167.03.422.422 0 0 1-.392-.281.439.439 0 0 1 .251-.56c.019 0 2.081-.793 3.141 1.391a.441.441 0 0 1-.193.58.49.49 0 0 1-.212.058ZM108.492 172.709c.101.024.204.037.308.039.102.015.205.022.308.019.206.014.413.007.617-.019.191-.025.378-.07.559-.135.182-.066.346-.172.482-.31a.236.236 0 0 1 .308.02.232.232 0 0 1 0 .27 1.615 1.615 0 0 1-.597.484c-.232.108-.479.18-.733.212-.243.02-.488.02-.732 0l-.347-.058a1.223 1.223 0 0 1-.347-.116.206.206 0 0 1-.124-.118.215.215 0 0 1 .009-.172.208.208 0 0 1 .231-.135h.058v.019Z" />
    <path fill="#0B1B32"
        d="M144.76 189.004c-.539-1.585-1.484-2.629-2.756-3.016-2.139-.657-4.008.619-4.914 2.185-.925 1.604-.829 3.363.231 4.387a3.394 3.394 0 0 0 1.928.967 19.042 19.042 0 0 1-1.388 3.904c-.925 1.875-2.563 4.253-5.203 5.2 0-1.257-.097-6.244-1.927-15.135-1.022-4.967-2.602-9.838-4.433-13.704-.944-1.972-1.908-3.595-2.794-4.717l1.426-1.623s.366 4.059 1.291 4.465c.925.406 2.37-.348 2.158-3.441-.212-3.112-1.098-4.155-1.349-4.407-.231-.232-1.484-.348-2.042-.135-.501.174-2.197 3.344-2.544 4.02a4.3 4.3 0 0 0-.347-.27c.713-1.199 2.409-4.311 2.216-7.075-.116-1.585-2.178-2.609-3.199-.077-1.079 2.667-.617 5.799-.463 6.611a72.902 72.902 0 0 0-7.304-1.334c-3.179-.406-5.55-.464-7.091-.193a2.575 2.575 0 0 0-.675-1.856 2.116 2.116 0 0 0-1.638-.793 1.925 1.925 0 0 0-1.445.774 2.178 2.178 0 0 0-.251 2.396 2.201 2.201 0 0 0 1.677 1.199c-.367 1.005-.367 2.223.077 3.479a7.88 7.88 0 0 0 5.03 4.89c4.49 1.411 7.265 2.436 8.209 4.775.02.038.02.077.058.116a6.272 6.272 0 0 0-.886-.445c-1.08-.425-2.062-.406-2.872.058-1.542.889-4.124 4.523-4.741 5.76-.578 1.141-.636 3.731-.636 3.827a.235.235 0 0 0 .135.213c.288.087.586.133.887.135a2.56 2.56 0 0 0 1.869-.773c.829-.87.54-2.532.443-3.015.925-.793 1.735-1.431 2.352-1.856l.481-.329c.18-.128.383-.22.598-.27h.019a.267.267 0 0 1 .116.039l.077.038h.019c.491.314.95.677 1.368 1.083-.077.077-.154.174-.231.251-1.522 1.701-4.355 4.89-4.22 7.403.134 2.919.231 3.479.25 3.499a.223.223 0 0 0 .077.122c.038.032.086.05.135.051.077 0 1.908-.038 2.582-1.623.347-.793.058-1.508-.173-2.01a1.538 1.538 0 0 1-.154-.503c.077-.367.771-1.875 1.831-2.358.289-.135.674-.29 1.079-.464-.116 1.198-.386 3.499-.752 4.098-.49.33-.915.75-1.252 1.237-.964 1.353-1.099 3.073-.386 4.813a7.796 7.796 0 0 0 2.236 2.996c-.444.019-1.06.058-1.33.038a1.235 1.235 0 0 1-.54-.289c-.327-.232-.732-.522-1.272-.522h-.019a1.966 1.966 0 0 0-1.676.947 2.443 2.443 0 0 0-1.118.058c-1.079.309-1.985 1.449-2.139 2.281a.807.807 0 0 0 .25.85c.463.367 2.159.464 3.7.464 1.503 0 2.891-.077 2.93-.077 1.252-.078 3.141-.039 4.972 0 1.734.038 3.372.058 4.124-.02a2.297 2.297 0 0 0 1.445-.657c.839.158 1.691.236 2.544.232.683.002 1.366-.043 2.043-.135h.038a6.155 6.155 0 0 0 1.003-.136c.01.002.021.001.031-.003a.054.054 0 0 0 .026-.016 19.469 19.469 0 0 0 3.065-.831c3.141-1.14 5.742-2.996 7.323-5.219 2.081-2.996 2.871-7.442 1.811-10.534Zm-29.428-5.374c-.366-.29-1.002-.715-1.329-.541a.436.436 0 0 0-.174.503c.02.174.058.348-.25.599-.232.154-.482.348-.79.58-.848.657-1.658 1.353-1.658 1.372a.219.219 0 0 0-.057.099.21.21 0 0 0-.001.114c0 .019.482 1.913-.308 2.725a2.228 2.228 0 0 1-2.139.58c.019-.599.135-2.59.578-3.479.636-1.237 3.161-4.775 4.587-5.586.694-.406 1.541-.406 2.486-.02.45.188.877.428 1.272.715.005 0 .01.002.013.006a.02.02 0 0 1 .006.014c.54 1.797.019 2.493-.54 3.208-.057.058-.115.136-.192.232-.289-.212-.964-.831-1.504-1.121Zm27.212 15.676c-1.542 2.165-4.066 3.963-7.111 5.064a18.883 18.883 0 0 1-3.739.928c-.077 0-.173.02-.25.02-1.388.058-2.679-.426-3.2-1.276-.751-1.218-1.753-1.353-1.811-1.353h-.039a.215.215 0 0 0-.154.058.237.237 0 0 0-.068.151.236.236 0 0 0 .049.158c.597.677.829 1.353.617 1.875-.193.503-.752.85-1.465.928-.732.077-2.351.058-4.066.019-1.85-.039-3.739-.077-5.011 0-2.659.174-5.839.116-6.321-.29a.499.499 0 0 1-.096-.444c.134-.696.944-1.663 1.85-1.933.905-.271 1.811.251 2.466.618.196.135.41.239.636.309h.02c.597.136 5.531.02 6.09 0h.077c.005 0 .01-.002.013-.005a.02.02 0 0 0 .006-.014h.019a.02.02 0 0 0 .014-.006.019.019 0 0 0 .005-.013l.02-.02c0-.005.002-.01.005-.013a.02.02 0 0 1 .014-.006v-.019a.02.02 0 0 1 .006-.014.02.02 0 0 1 .013-.006v-.173a.02.02 0 0 0-.005-.014.02.02 0 0 0-.014-.006l-.019-.019a.02.02 0 0 0-.006-.014.022.022 0 0 0-.014-.005.016.016 0 0 1-.013-.006.02.02 0 0 1-.006-.014l-.019-.019h-.077a6.136 6.136 0 0 1-1.619-.541l-.617-.348a7.498 7.498 0 0 1-2.987-3.441c-.655-1.585-.539-3.15.347-4.388 1.927-2.706 5.319-1.855 6.707-1.372.047.025.1.039.154.039a.215.215 0 0 0 .212-.213.224.224 0 0 0-.174-.212c-.019 0-.019-.02-.057-.02a8.686 8.686 0 0 0-2.949-.541 5.49 5.49 0 0 0-2.39.503c.095-.338.172-.68.232-1.025 2.813-.734 4.143-2.165 4.76-3.209a4.51 4.51 0 0 0 .674-2.203c.059-.112.111-.229.154-.348.482-1.082 1.022-2.667.945-4.233a.213.213 0 1 0-.424.039c.077 1.681-.617 3.498-1.214 4.697l-.617 1.043v-.038a8.766 8.766 0 0 1 .019-.986.214.214 0 0 0-.173-.232.218.218 0 0 0-.15.022.219.219 0 0 0-.101.113c-.154.464-.771 1.257-1.195 1.74l.077-.425c.02-.097.058-.194.077-.29a.223.223 0 0 0-.115-.252.216.216 0 0 0-.15-.012.216.216 0 0 0-.12.09c-.251.367-1.388.85-2.351 1.237-.019 0-.039.019-.058.019a2.28 2.28 0 0 0-.193.077c-.443.174-.867.348-1.195.503-1.214.561-1.965 2.223-2.062 2.648-.057.232.058.464.174.773.193.464.443 1.044.173 1.682-.462 1.044-1.561 1.295-2.023 1.334-.039-.348-.116-1.199-.212-3.248-.116-2.339 2.64-5.431 4.124-7.093.308-.368.578-.638.732-.851.656-.831 1.388-1.798.309-4.446-1.022-2.512-3.874-3.576-8.48-5.025a7.55 7.55 0 0 1-4.76-4.62c-.424-1.218-.424-2.397-.019-3.324.374-.052.73-.191 1.04-.406a1.88 1.88 0 0 0 .733-.851c1.484-.309 3.912-.251 7.149.155.54.077 1.08.135 1.6.232-.328 1.101-1.503 6.069 2.66 8.678 4.259 2.687 8.151.368 8.845-.077a62.906 62.906 0 0 1 3.893 12.506c1.696 8.215 1.985 13.627 1.908 15.347a.183.183 0 0 0 .015.098c.014.03.035.057.062.076a.268.268 0 0 0 .135.039h.058c2.216-.677 4.105-2.435 5.511-5.064.02-.02.116-.213.251-.483.829-1.489 1.715-2.494 2.833-3.209 1.465-.947 1.368-2.03 1.368-2.068v-.02c0-.019 0-.019-.019-.038l-.019-.02-.02-.019a.016.016 0 0 1-.013-.006.016.016 0 0 1-.006-.013h-.135a.019.019 0 0 0-.013.005.02.02 0 0 0-.006.014l-.019.019a.02.02 0 0 0-.014.006.02.02 0 0 0-.006.014c-.429.35-.919.618-1.445.792-1.137.367-2.158.116-3.045-.715-1.06-1.005-.848-2.648-.154-3.846.809-1.411 2.505-2.571 4.413-1.991 1.426.425 2.12 1.72 2.467 2.725.925 2.861.154 7.132-1.908 10.051Z" />
    <path fill="#0B1B32"
        d="M105.311 168.186a.251.251 0 0 0 0-.502.25.25 0 0 0-.25.251.25.25 0 0 0 .25.251ZM104.657 168.921a.27.27 0 0 0 .269-.271.27.27 0 1 0-.539 0c0 .15.121.271.27.271ZM105.427 169.539a.192.192 0 0 0 .193-.193.193.193 0 1 0-.193.193ZM107.682 169.056a.27.27 0 1 0 0-.54.27.27 0 0 0 0 .54ZM106.891 167.954a.27.27 0 1 0 0-.54.27.27 0 0 0 0 .54ZM106.276 168.786a.27.27 0 0 0 .269-.271.27.27 0 1 0-.539 0c0 .149.121.271.27.271ZM106.717 169.984a.251.251 0 0 0 0-.503.251.251 0 0 0 0 .503ZM107.643 170.486a.231.231 0 1 0 .001-.463.231.231 0 0 0-.001.463ZM105.465 170.718a.25.25 0 1 0 .001-.501.25.25 0 0 0-.001.501ZM108.915 168.264a.251.251 0 0 0 0-.503.251.251 0 0 0 0 .503ZM108.606 169.965a.252.252 0 0 0 0-.503.252.252 0 0 0 0 .503Z" />
    <path fill="#fff"
        d="M119.148 172.207a1.93 1.93 0 0 0 1.927-1.933 1.93 1.93 0 0 0-1.927-1.933 1.93 1.93 0 0 0-1.927 1.933 1.93 1.93 0 0 0 1.927 1.933Z" />
    <path fill="#0B1B32"
        d="M117.53 169.017a1.919 1.919 0 0 0-.385 1.025 1.9 1.9 0 0 0 2.451-.706 1.92 1.92 0 0 0 .285-.879 1.866 1.866 0 0 0-2.351.56Z" />
    <path fill="#fff"
        d="M103.698 164.23c.35-.243.535-.583.414-.758-.122-.176-.504-.121-.854.123-.349.243-.535.582-.413.758.121.175.503.12.853-.123Z" />
    <path fill="#0B1B32"
        d="M202.85 130.35h-76.532c-1.794 0-2.99-1.229-2.99-3.072 0-1.844 1.196-3.072 2.99-3.072h76.532c1.793 0 2.989 1.228 2.989 3.072 0 1.843-1.495 3.072-2.989 3.072Z" />
    <path fill="#FFB300"
        d="M90.44 118.219a42.112 42.112 0 0 1 6.016.167s.25-1.924-1.253-1.589c-1.505.334-4.764 1.422-4.764 1.422Z" />
    <path fill="#FFB300"
        d="M94.87 114.121c-7.026-.959-16.714-4.683-22.062-6.356-5.348-1.673-7.688-1.171-7.688-1.171 2.842-.669 6.017-4.349 12.034-12.377 6.597-8.804 2.172-21.743-5.85-21.743-6.86 0-21.727 6.188-29.582 19.067-9.891 16.218-8.272 28.517-4.094 40.225 0 0 11.03-8.864 30.584-12.042.334-.502-1.19-2.58-1.337-2.843 10.028.669 15.71 0 19.053.167 1.31.065 4.596 1.923 6.1.92 1.397-.933 4.011-1.506 4.178-.669.399 1.995.669 2.509 1.671 2.509.502-1.171.669-5.185-3.008-5.687Z" />
    <path fill="#FFB300"
        d="M96.607 114.758c2.273.701 3.443 1.37 3.945 2.206.354.591 1.461 3.248.668 3.512-.501.168-1.17-.501-1.17-.501" />
    <path fill="#0B1B32"
        d="M101.05 120.754c-.557 0-1.108-.533-1.177-.602a.252.252 0 0 1 .355-.355c.183.182.647.532.913.441.015-.004.046-.015.073-.088.21-.57-.507-2.439-.877-3.057-.47-.783-1.642-1.429-3.803-2.095a.25.25 0 0 1-.163-.313.251.251 0 0 1 .311-.167c2.318.715 3.54 1.408 4.085 2.317.241.401 1.248 2.592.917 3.489a.604.604 0 0 1-.384.39.788.788 0 0 1-.25.04Z" />
    <path fill="#FFB300" d="M96.375 114.619c2.839 1.342 3.842 4.018 3.675 5.189-.168 1.17-1.822-.861-1.906-1.673" />
    <path fill="#0B1B32"
        d="M99.765 120.413h-.01c-.703-.013-1.79-1.555-1.861-2.252a.25.25 0 1 1 .499-.051c.042.411.614 1.276 1.093 1.653a.564.564 0 0 0 .279.149.668.668 0 0 0 .035-.14c.147-1.03-.763-3.617-3.533-4.926a.252.252 0 0 1 .214-.454c3.041 1.437 3.986 4.26 3.815 5.451-.072.511-.388.57-.531.57Z" />
    <path fill="#fff"
        d="M55.266 99.723c-.758 5.282-2.475 14.82 3.397 16.49 0 0-7.442-.371-6.635-4.953.807-4.582.32-3.774 3.238-11.537ZM70.006 109.795s9.822 3.322 13.833 3.49c4.011.167 3.906-.477 7.468.18-6.914-1.866-19.377-6.168-21.612-6.519.21 1.137.517 1.534.311 2.849ZM37.71 131.759c5.768-5.01 25.034-12.158 34.263-12.286 12.033-.167 24.902 1.505 28.579 4.014 8.89 6.066-9.526 36.797-19.387 44.825-2.674-1.672-10.195-7.192-10.195-7.192s12.702-16.224 15.209-24.754c0 0-2.674-.221-8.315 1.687-5.64 1.909-12.652 3.784-26.364 3.582-11.365-.168-9.86-2.509-13.79-9.876Z" />
    <path fill="#FFB300"
        d="M98.158 75.145c0-3.513-2.047-9.511-11.112-8.78-9.065.732-10.82 5.122-10.664 8.035l3.777 13.048s4.554 2.529 9.553.07c1.496.52 2.305.796 3.036.21.731-.585 0-1.17.358-2.634l-.002.001c3.42-3.278 5.054-7.816 5.054-9.95Z" />
    <path fill="#fff"
        d="M57.953 76.822s9.673-2.676 14.52-.669c4.847 2.007 6.518 4.182 7.52 5.687-1.17-3.68-1.25-7.282-7.313-9.235-4.302-1.386-14.727 4.217-14.727 4.217Z" />
    <path fill="#FFB300"
        d="M62.338 121.168c3.368 1.734 5.206 3.239 9.718 1.734 4.513-1.506 7.688-2.509 11.532-1.338 3.844 1.171 3.844 1.84 6.184 1.338 2.34-.502 12.798-.189 12.666 10.191 0 0 1.961-6.91-1.592-9.387-3.553-2.477-14.039-3.552-19.66-4.018-5.62-.466-13.024-.588-18.848 1.48ZM81.33 184.871c-.747-.748-3.342-4.014-4.178-9.032a67.359 67.359 0 0 0-.567-3.031 5.028 5.028 0 0 1 1.5-4.752l1.127-1.041-5.64-4.001-2.436 3.291s-4.011 1.505-6.184 4.516c-1.21 1.677-1.337 4.182 0 5.52 1.337 1.338 4.847 2.341 6.685 4.014 1.838 1.672 6.35 8.697 8.858 8.028 2.507-.669 1.671-2.676.835-3.512Z" />
    <path fill="#0B1B32"
        d="M55.273 141.831c-.984 0-1.89-.012-2.694-.029-.763-.017-1.47-.021-2.156-.026-6.673-.045-9.435-.063-13.283-10.845-4.373-12.254-5.304-23.664 4.367-39.52 4.463-7.316 10.758-11.897 15.254-14.452 5.142-2.921 10.715-4.736 14.542-4.736 3.192 0 6.014 1.981 7.74 5.436 2.156 4.316 2.47 11.157-1.69 16.709-5.09 6.791-8.157 10.498-10.756 11.912 1.254.049 3.307.314 6.284 1.245 1.276.4 2.826.925 4.468 1.481 5.446 1.844 12.223 4.139 17.552 4.867 1.327.181 2.302.805 2.896 1.856.815 1.441.666 3.345.31 4.178a.247.247 0 0 1-.231.152c-1.251 0-1.532-.784-1.917-2.71-.007-.034-.058-.073-.136-.105-.753-.313-3.295.134-4.493.933-1.092.729-2.503.175-3.748-.314-.602-.236-1.171-.459-1.585-.48-1.124-.056-2.787-.036-4.89-.011-4.164.05-9.867.119-16.506-.324-10.019-.669-12.033-1.833-12.758-4.191-.355-1.154.273-6.25 2.787-12.296 2.195-5.28 6.41-12.647 14.026-17.758a.25.25 0 0 1 .28.417c-7.512 5.041-11.675 12.318-13.843 17.534-2.433 5.852-3.097 10.894-2.77 11.956.64 2.086 2.647 3.193 12.311 3.838 6.62.441 12.31.373 16.466.322 2.113-.025 3.782-.045 4.922.012.495.024 1.101.262 1.743.514 1.13.444 2.413.947 3.287.364 1.26-.84 3.996-1.38 4.963-.98a.652.652 0 0 1 .435.471c.375 1.876.615 2.253 1.253 2.301.24-.737.36-2.334-.343-3.575-.513-.907-1.363-1.448-2.527-1.606-5.377-.734-12.18-3.038-17.645-4.888a209.464 209.464 0 0 0-4.457-1.477c-5.199-1.626-7.537-1.169-7.56-1.165a.248.248 0 0 1-.3-.19.25.25 0 0 1 .19-.299c2.772-.653 6.042-4.481 11.89-12.284 4.032-5.38 3.73-12.005 1.643-16.183-1.638-3.279-4.296-5.159-7.292-5.159-3.746 0-9.223 1.79-14.294 4.672-4.446 2.525-10.668 7.052-15.074 14.275-9.566 15.686-8.647 26.971-4.322 39.089 3.73 10.451 6.203 10.468 12.814 10.512.687.005 1.397.009 2.164.026 5.278.115 15.063-.013 21.305-2.161l.892-.307c4.995-1.727 10.16-3.512 15.273-2.714a.251.251 0 0 1-.077.496c-4.99-.781-10.095.985-15.033 2.693l-.892.308c-5.36 1.843-13.269 2.216-18.786 2.216Z" />
    <path fill="#0B1B32"
        d="M81.164 168.563a.252.252 0 0 1-.134-.038c-2.651-1.658-10.135-7.147-10.21-7.202a.251.251 0 0 1-.049-.358c.127-.161 12.7-16.283 15.165-24.67a.251.251 0 0 1 .491.043.249.249 0 0 1-.01.098c-2.34 7.96-13.615 22.722-15.092 24.634 1.206.882 7.325 5.347 9.819 6.933 8.293-6.87 21.953-28.765 21.503-39.425-.097-2.294-.85-3.937-2.237-4.884-3.517-2.4-16.006-4.146-28.434-3.971-9.296.129-27.464 6.643-34.105 12.227a.252.252 0 0 1-.323-.385c3.263-2.743 9.21-5.768 16.318-8.3 6.938-2.472 13.705-3.984 18.103-4.045 12.519-.175 25.134 1.609 28.723 4.058 1.526 1.041 2.352 2.816 2.456 5.277.458 10.846-13.477 33.153-21.826 39.95a.247.247 0 0 1-.158.058Z" />
    <path fill="#0B1B32"
        d="M80.147 188.678c-1.922 0-4.503-3.169-6.604-5.751-.841-1.033-1.568-1.925-2.075-2.387-.92-.838-2.276-1.505-3.588-2.15-1.248-.614-2.428-1.194-3.105-1.873-1.359-1.359-1.37-3.981-.026-5.844 2.06-2.854 5.663-4.354 6.229-4.576l2.392-3.233a.244.244 0 0 1 .072-.068.255.255 0 0 1 .192-.032.252.252 0 0 1 .138.399l-2.435 3.291a.255.255 0 0 1-.113.085c-.04.015-3.967 1.516-6.069 4.428-1.206 1.672-1.218 4.002-.026 5.195.619.619 1.762 1.182 2.972 1.777 1.343.661 2.731 1.344 3.705 2.229.535.487 1.272 1.392 2.125 2.441 1.935 2.377 4.86 5.969 6.5 5.531.816-.217 1.302-.593 1.442-1.115.182-.681-.245-1.503-.72-1.978-.032-.032-3.277-3.335-4.248-9.168a67.854 67.854 0 0 0-.565-3.019 5.304 5.304 0 0 1 1.575-4.989l1.127-1.041a.25.25 0 0 1 .18-.066c.067.003.13.032.175.08a.252.252 0 0 1-.015.355l-1.127 1.041a4.796 4.796 0 0 0-1.424 4.515c.184.859.375 1.883.568 3.043.945 5.675 4.077 8.864 4.108 8.895.593.593 1.085 1.585.85 2.462-.131.487-.549 1.138-1.798 1.471a1.59 1.59 0 0 1-.412.052ZM85.11 88.833a11.524 11.524 0 0 1-5.072-1.166.25.25 0 0 1 .243-.439c.049.027 4.928 2.66 10.001-.3 5.077-2.964 7.625-9.152 7.625-11.783 0-1.181-.253-4.163-2.598-6.328-1.894-1.75-4.667-2.49-8.243-2.202-9.751.787-10.545 5.697-10.434 7.772a.253.253 0 0 1-.237.264.252.252 0 0 1-.264-.237 6.55 6.55 0 0 1 1.947-5.027c1.84-1.84 4.85-2.941 8.947-3.272 3.719-.3 6.622.485 8.623 2.333 2.49 2.3 2.76 5.45 2.76 6.697 0 2.573-2.378 9.007-7.874 12.215a10.633 10.633 0 0 1-5.424 1.473Z" />
    <path fill="#0B1B32"
        d="M82.951 79.64a.25.25 0 0 1-.143-.046c-1.014-.706-1.372-1.75-.957-2.792.438-1.102 1.614-1.872 2.615-1.723.599.09 1.629.578 1.805 2.827a.251.251 0 0 1-.23.27.253.253 0 0 1-.27-.23c-.11-1.41-.601-2.252-1.38-2.37-.775-.12-1.724.53-2.075 1.412-.192.484-.347 1.412.778 2.195a.251.251 0 0 1-.143.457Z" />
    <path fill="#0B1B32"
        d="M96.064 79.72c-.816 0-1.17-.66-1.514-1.305-.387-.724-.787-1.472-1.856-1.71-2.53-.561-6.597.962-6.638.977a.25.25 0 0 1-.177-.468c.172-.066 4.25-1.592 6.923-.997 1.294.287 1.791 1.216 2.19 1.961.481.9.746 1.394 2.05.747a.25.25 0 0 1 .222.45c-.368.205-.779.323-1.2.344Z" />
    <path fill="#fff"
        d="M91.723 81.73c-1.099-1.1-1.754-1.171-2.047-.879-.292.293 0 1.464.732 2.342.73.879 1.17 1.317 1.9 1.171.731-.146 0-2.05-.585-2.635Z" />
    <path fill="#0B1B32"
        d="M82.074 78.907a.16.16 0 0 1-.02 0c-1.974-.151-3.294-1.537-3.35-1.595a.252.252 0 0 1 .191-.423.25.25 0 0 1 .175.079c.012.013 1.247 1.302 3.023 1.44a.25.25 0 0 1-.019.5ZM92.038 84.643c-.694 0-1.17-.506-1.823-1.29-.713-.856-1.181-2.213-.716-2.679.284-.284.975-.55 2.401.878.508.508 1.135 1.912.922 2.617a.6.6 0 0 1-.465.44 1.643 1.643 0 0 1-.32.034Zm-1.976-3.688a.286.286 0 0 0-.209.074c-.123.127.006 1.113.747 2.003.759.912 1.103 1.197 1.659 1.086.026-.006.058-.012.084-.094.139-.46-.371-1.691-.797-2.117-.678-.68-1.19-.952-1.484-.952Z" />
    <path fill="#0B1B32"
        d="M91.09 83.944s.112-1.453 1.396-.81c.084.849.163 1.707-1.396.81ZM88.313 88.337a.252.252 0 0 1-.091-.017 1.214 1.214 0 0 1-.762-.726c-.203-.588.157-1.21.173-1.235a.25.25 0 0 1 .432.254c-.006.01-.257.454-.13.82a.73.73 0 0 0 .47.42.25.25 0 0 1-.092.485v-.001ZM91.81 88.309c-.588 0-1.278-.24-2.18-.554a.25.25 0 0 1 .164-.474c1.544.536 2.194.735 2.797.252.279-.223.272-.401.212-.884a4.125 4.125 0 0 1 .06-1.614.25.25 0 0 1 .303-.188.252.252 0 0 1 .184.307c-.111.47-.128.957-.05 1.433.06.477.116.929-.395 1.338-.307.255-.695.39-1.094.384ZM94.502 80.852c-.292-.293-.804-.659-1.389-.366-.585.292.731 1.317 1.023 1.317.293 0 1.024-.293.366-.951ZM96.407 118.72l-.026-.001c-1.59-.164-6.311-.166-6.359-.166a.25.25 0 1 1 0-.502c.195 0 4.795.002 6.41.169a.251.251 0 0 1-.025.5Z" />
    <path fill="#FFB300"
        d="m105.398 122.985-21.594-3.562a1.012 1.012 0 0 1-.449-1.799 1.012 1.012 0 0 1 .792-.192l21.585 3.881" />
    <path fill="#0B1B32"
        d="M105.398 123.236a.293.293 0 0 1-.041-.003l-21.594-3.563a1.249 1.249 0 0 1-.825-.512 1.254 1.254 0 0 1-.217-.947 1.264 1.264 0 0 1 .975-1.018 1.25 1.25 0 0 1 .495-.008l21.586 3.88a.25.25 0 0 1-.089.494l-21.586-3.88a.75.75 0 0 0-.595.144.754.754 0 0 0-.294.537.763.763 0 0 0 .632.815l21.594 3.563a.25.25 0 0 1-.041.498Z" />
    <path fill="#FFB300"
        d="m106.918 121.053 13.931-16.913a1.005 1.005 0 0 1 1.359-.187 1.006 1.006 0 0 1 .389 1.112 1.02 1.02 0 0 1-.197.367l-14.162 16.717" />
    <path fill="#0B1B32"
        d="M108.238 122.4a.261.261 0 0 1-.135-.039.255.255 0 0 1-.113-.246.245.245 0 0 1 .057-.128l14.161-16.717a.764.764 0 0 0-.144-1.112.761.761 0 0 0-1.022.141l-13.931 16.914a.252.252 0 0 1-.442-.136.251.251 0 0 1 .055-.183l13.931-16.914a1.26 1.26 0 1 1 1.936 1.614l-14.161 16.717a.264.264 0 0 1-.086.066.256.256 0 0 1-.106.023Z" />
    <path fill="#FFB300" d="M106.735 123.989a1.505 1.505 0 1 0-.002-3.01 1.505 1.505 0 0 0 .002 3.01Z" />
    <path fill="#0B1B32"
        d="M106.735 124.24a1.755 1.755 0 0 1-1.241-2.998 1.76 1.76 0 0 1 1.913-.381 1.756 1.756 0 0 1-.672 3.379Zm0-3.011a1.25 1.25 0 0 0-1.158.775 1.255 1.255 0 1 0 2.412.48 1.26 1.26 0 0 0-1.254-1.255ZM83.228 78.043a.25.25 0 0 1-.248-.213 1.022 1.022 0 0 1 .536-1.083 1.324 1.324 0 0 1 1.498.179.25.25 0 0 1-.146.44.25.25 0 0 1-.182-.061.819.819 0 0 0-.928-.117.525.525 0 0 0-.282.567.25.25 0 0 1-.248.288ZM62.337 116.875a.25.25 0 0 1-.08-.489c.38-.129 9.31-3.236 7.298-9.341a.253.253 0 0 1 .16-.317.25.25 0 0 1 .316.16c1.73 5.247-3.972 8.738-7.614 9.974a.274.274 0 0 1-.08.013Z" />
    <path fill="#0B1B32"
        d="M66.792 112.532a.249.249 0 0 1-.24-.176.253.253 0 0 1 .097-.281c2.022-1.401 1.505-5.289 1.5-5.328a.25.25 0 0 1 .497-.07c.023.173.562 4.235-1.712 5.81a.25.25 0 0 1-.142.045Z" />
    <path fill="#FFB300" d="M56.764 148.409v15.053h3.51v-15.053" />
    <path fill="#0B1B32"
        d="M60.274 163.713h-3.51a.251.251 0 0 1-.25-.251v-15.053a.252.252 0 0 1 .428-.178.252.252 0 0 1 .073.178v14.802h3.008v-14.802a.252.252 0 0 1 .428-.178.252.252 0 0 1 .074.178v15.053a.25.25 0 0 1-.251.251ZM59.27 116.546a.25.25 0 0 1-.25-.226.252.252 0 0 1 .201-.271c.034-.006 3.311-.676 5.247-2.129a.243.243 0 0 1 .088-.042.267.267 0 0 1 .098-.006.254.254 0 0 1 .213.284.243.243 0 0 1-.098.165c-2.028 1.523-5.31 2.192-5.45 2.22a.273.273 0 0 1-.049.005Z" />
    <path fill="#FFB300" d="M48.408 145.9c4.011.836 4.49 3.178 10.028 3.178s6.016-2.342 10.027-3.178" />
    <path fill="#0B1B32"
        d="M58.435 149.329c-3.376 0-4.946-.875-6.465-1.72-1.002-.558-2.038-1.135-3.614-1.464a.23.23 0 0 1-.09-.038.238.238 0 0 1-.069-.07.244.244 0 0 1-.036-.188.254.254 0 0 1 .109-.159.25.25 0 0 1 .188-.036c1.651.344 2.721.94 3.756 1.516 1.53.852 2.975 1.656 6.22 1.656 3.247 0 4.69-.805 6.221-1.656 1.035-.576 2.105-1.172 3.756-1.516a.247.247 0 0 1 .189.036.249.249 0 0 1-.086.455c-1.577.329-2.613.906-3.615 1.464-1.519.845-3.088 1.72-6.464 1.72ZM76.852 174.38a.248.248 0 0 1-.06-.007c-2.992-.747-3.82-3.29-4.487-5.334-.373-1.146-.695-2.136-1.302-2.522a.25.25 0 0 1 .27-.424c.758.484 1.106 1.553 1.51 2.791.66 2.026 1.408 4.323 4.13 5.002a.253.253 0 0 1 .188.274.248.248 0 0 1-.083.157.248.248 0 0 1-.166.063Z" />
    <path fill="#0B1B32" d="M77.32 141.551H39.55a2.174 2.174 0 0 0 0 4.349h37.77a2.174 2.174 0 0 0 0-4.349Z" />
    <path fill="#0B1B32"
        d="M77.321 146.151h-37.77a2.422 2.422 0 0 1-2.424-2.426 2.427 2.427 0 0 1 2.423-2.425h37.771a2.426 2.426 0 0 1 0 4.851Zm-37.77-4.349a1.924 1.924 0 0 0 0 3.847h37.77a1.92 1.92 0 0 0 1.922-1.924 1.925 1.925 0 0 0-1.922-1.923h-37.77ZM97.152 79.15c-2.76 1.372-1.773-2.103-4.405-2.688-2.632-.586-6.78.986-6.78.986s-.625-3.24-2.918-1.747c-2.292 1.492-.537 3.102-.537 3.102s-3.086-.2-4.269-2.15c-1.183-1.948-1.872-2.386-1.872-2.386s-.296-5.438 6.212-7.109c6.509-1.67 10.767-.697 13.024 1.597 2.258 2.293 3.464 5.767 1.545 10.395ZM68.161 120.048a.248.248 0 0 1-.248-.287c.178-1.204-1.281-2.641-1.296-2.656a.249.249 0 0 1-.005-.354.25.25 0 0 1 .355-.005c.067.065 1.657 1.63 1.442 3.088a.25.25 0 0 1-.248.214ZM90.105 136.115c2.317.316.294 2.625-3.176 4.014-1.671.669-3.923 3.587-4.345 4.349 0 0 3.51-7.025 3.677-8.363h3.844ZM68.88 80.753c-2.34-.836-4.847 1.505-5.014 3.01-.167 1.506-1.588 2.091-2.925 3.262-1.337 1.17-.334 2.342-1.337 3.345-4.448 4.452-5.097 8.28-6.434 14.635.668-2.843 4.68-10.537 4.68-10.537l5.18-6.858 5.85-4.348c.668-.502 2.34-1.673 0-2.51ZM81.756 88.086s.163-1.188-1.836-7.76c.77 2.333.846 4.84.216 7.214a89.58 89.58 0 0 0 1.62.546ZM71.62 100.97c-3.34 3.366-10.345 3.784-10.345 5.791 0 2.008 3.426-.418 6.77.084M81.33 184.871c-.747-.748-3.342-4.014-4.178-9.032-.211-1.268-.085-.817-.25-1.589-3.677-.502-4.346-6.523-5.766-7.945-1.922.586-4.011 1.505-6.184 4.516-1.21 1.677-1.337 4.182 0 5.52 1.337 1.338 4.847 2.341 6.685 4.014 1.838 1.672 6.35 8.697 8.858 8.028 2.507-.669 1.671-2.676.835-3.512Z" />
    <path fill="#0B1B32"
        d="M80.274 179.142c-.682 0-1.222-.851-1.789-1.746-.546-.861-1.165-1.837-1.882-1.98l.098-.492c.927.185 1.607 1.258 2.207 2.203.54.85 1.046 1.653 1.502 1.487 1.048-.383.933-1.186.77-1.631-.52-1.433-2.75-2.885-5.194-1.996l-.172-.471c2.738-.995 5.245.665 5.838 2.295.373 1.025-.037 1.897-1.07 2.275a.9.9 0 0 1-.308.056Z" />
    <path fill="#0B1B32"
        d="M80.256 181.112c-.78 0-1.35-1.122-2.005-2.412-.588-1.158-1.254-2.469-1.982-2.615l.098-.492c.966.193 1.66 1.559 2.33 2.879.523 1.029 1.12 2.194 1.6 2.136.026-.004.067-.009.102-.111.214-.618-.478-2.597-1.735-3.87-.67-.678-1.737-1.397-3.019-.968l-.159-.476c1.21-.404 2.43-.026 3.534 1.091 1.383 1.4 2.145 3.545 1.853 4.388a.617.617 0 0 1-.617.45ZM79.743 160.953a.251.251 0 0 1-.187-.418c.182-.204 18.184-20.499 16.643-27.917a2.844 2.844 0 0 0-1.687-2.129c-4.428-2.047-11.937-.794-19.197.416-6.876 1.147-13.37 2.23-16.988.502a.252.252 0 0 1 .12-.479.245.245 0 0 1 .095.026c3.475 1.659 9.894.589 16.691-.544 7.335-1.223 14.92-2.488 19.49-.377a3.35 3.35 0 0 1 1.967 2.483c1.591 7.665-16.01 27.512-16.76 28.353a.25.25 0 0 1-.187.084ZM72.316 164.71s5.338 1.762 6.842 2.431c-2.172-1.839-5.682-4.014-5.682-4.014l-1.16 1.583ZM67.71 120.058c-5.658.512-24.818 9.952-28.662 14.803l-1.337-3.178s11.59-8.457 30-11.625Z" />
    <path fill="#FFB300"
        d="M83.254 200.76H81.08a.666.666 0 0 1-.669-.669v-4.452a4.932 4.932 0 0 0-1.873-3.881l-16.161-12.836a8.478 8.478 0 0 1-3.188-6.164l3.503-.194a4.963 4.963 0 0 0 1.866 3.606l16.162 12.836a8.426 8.426 0 0 1 3.201 6.633v4.452a.667.667 0 0 1-.668.669ZM33.616 200.76h2.172a.666.666 0 0 0 .669-.669v-4.452a4.93 4.93 0 0 1 1.873-3.881l16.162-12.836a8.476 8.476 0 0 0 3.188-6.164l-3.504-.194a4.963 4.963 0 0 1-1.866 3.606l-16.161 12.836a8.427 8.427 0 0 0-3.202 6.633v4.452a.667.667 0 0 0 .669.669Z" />
    <path fill="#0B1B32"
        d="M32.947 198.837h3.51v1.338a.67.67 0 0 1-.669.669h-2.172a.67.67 0 0 1-.669-.669v-1.338ZM83.254 201.011H81.08a.917.917 0 0 1-.92-.92v-4.452a4.68 4.68 0 0 0-1.778-3.685l-16.16-12.835a8.732 8.732 0 0 1-3.283-6.346.251.251 0 0 1 .236-.264l3.504-.195a.247.247 0 0 1 .264.237 4.711 4.711 0 0 0 1.772 3.424l16.161 12.836a8.667 8.667 0 0 1 3.296 6.828v4.452a.92.92 0 0 1-.92.92Zm-23.796-28.016a8.226 8.226 0 0 0 3.076 5.731l16.161 12.836a5.18 5.18 0 0 1 1.968 4.077v4.452a.42.42 0 0 0 .418.418h2.173a.42.42 0 0 0 .417-.418v-4.452a8.178 8.178 0 0 0-3.106-6.436l-16.161-12.836a5.206 5.206 0 0 1-1.94-3.539l-3.006.167Z" />
    <path fill="#0B1B32"
        d="M35.79 201.011h-2.173a.92.92 0 0 1-.92-.92v-4.452a8.676 8.676 0 0 1 3.297-6.829l16.16-12.836a4.706 4.706 0 0 0 1.772-3.424.245.245 0 0 1 .083-.174.253.253 0 0 1 .182-.063l3.504.195c.032.002.065.01.094.024a.24.24 0 0 1 .078.059.245.245 0 0 1 .064.181 8.73 8.73 0 0 1-3.283 6.347l-16.162 12.836a4.678 4.678 0 0 0-1.778 3.684v4.452a.92.92 0 0 1-.919.92Zm18.617-28.183a5.206 5.206 0 0 1-1.94 3.539l-16.162 12.836a8.17 8.17 0 0 0-3.106 6.436v4.452a.42.42 0 0 0 .418.418h2.172a.419.419 0 0 0 .418-.418v-4.452a5.186 5.186 0 0 1 1.968-4.078l16.162-12.836a8.226 8.226 0 0 0 3.076-5.73l-3.006-.167Z" />
    <path fill="#FFB300" d="M56.764 169.149v30.942a.667.667 0 0 0 .668.669h2.173a.666.666 0 0 0 .668-.669v-30.942" />
    <path fill="#0B1B32"
        d="M65.365 115.227s13.71 1.988 19.894 1.654c-10.53.334-20.188.155-23.632-.257 1.638-.156 3.738-1.397 3.738-1.397ZM56.764 198.837h3.51v1.338a.67.67 0 0 1-.67.669h-2.172a.67.67 0 0 1-.668-.669v-1.338Z" />
    <path fill="#0B1B32"
        d="M59.605 201.011h-2.172a.917.917 0 0 1-.92-.92v-30.942a.252.252 0 0 1 .429-.178.252.252 0 0 1 .073.178v30.942a.42.42 0 0 0 .418.418h2.172a.42.42 0 0 0 .418-.418v-30.942a.252.252 0 0 1 .428-.178.252.252 0 0 1 .074.178v30.942a.92.92 0 0 1-.92.92ZM77.57 165.552c2.34.168 1.783 1.12 5.181-2.508 2.507-2.677 4.011-2.175 6.518-5.353l5.869-7.443s-9.546 14.97-14.058 17.981a30.605 30.605 0 0 1-3.51-2.677Z" />
    <path fill="#FFB300"
        d="M62.28 163.462H54.59a.501.501 0 0 0-.501.502v10.035c0 .277.224.502.501.502h7.688a.502.502 0 0 0 .502-.502v-10.035a.501.501 0 0 0-.502-.502Z" />
    <path fill="#0B1B32"
        d="M62.28 174.752h-7.688a.757.757 0 0 1-.752-.753v-10.035a.754.754 0 0 1 .752-.753h7.688a.752.752 0 0 1 .752.753v10.035a.753.753 0 0 1-.752.753Zm-7.688-11.039a.25.25 0 0 0-.25.251v10.035a.251.251 0 0 0 .25.251h7.688a.251.251 0 0 0 .25-.251v-10.035a.251.251 0 0 0-.25-.251h-7.688ZM92.334 87.188a.532.532 0 0 1-.427-.172c-.137-.157-.223-.468.14-1.055a6.17 6.17 0 0 1 2.377-2.065c.632-.278.927-.148 1.064.01.136.157.223.468-.14 1.055a6.168 6.168 0 0 1-2.377 2.065 1.619 1.619 0 0 1-.637.162Zm-.045-.504c.143.042.8-.154 1.675-.915.877-.761 1.163-1.384 1.142-1.532-.143-.044-.8.155-1.675.916-.877.761-1.163 1.384-1.142 1.531Z" />
    <path fill="#0B1B32"
        d="M94.953 85.345a.251.251 0 0 1-.193-.09c-.05-.06-4.988-5.97-8.832-7.537a.25.25 0 0 1 .19-.464c3.96 1.614 8.823 7.433 9.028 7.68a.25.25 0 0 1-.193.411ZM56.764 151.365s2.172-1.431 3.51-.354v-2.034s-2.508.272-3.51.019v2.369Z" />
    <path fill="#0B1B32"
        d="M56.764 151.616a.25.25 0 0 1-.25-.251v-2.369a.25.25 0 0 1 .311-.244c.948.239 3.397-.022 3.422-.024a.26.26 0 0 1 .104.01.262.262 0 0 1 .09.052.258.258 0 0 1 .084.187v2.033a.25.25 0 0 1-.408.196c-1.181-.952-3.194.355-3.215.368a.25.25 0 0 1-.138.042Zm.251-2.318v1.633c.64-.334 1.943-.871 3.008-.371v-1.306c-.614.057-2.095.169-3.008.044Z" />
    <path fill="#fff"
        d="M54.09 165.297s4.764-1.073 8.691-.158c0-1.013.438-1.594-.91-1.677-1.346-.084-7.019 0-7.019 0s-1.012-.084-.845.92c.167 1.003.084.915.084.915Z" />
    <path fill="#0B1B32"
        d="M62.28 174.752h-7.688a.757.757 0 0 1-.752-.753v-10.035a.754.754 0 0 1 .752-.753h7.688a.752.752 0 0 1 .752.753v10.035a.753.753 0 0 1-.752.753Zm-7.688-11.039a.25.25 0 0 0-.25.251v10.035a.251.251 0 0 0 .25.251h7.688a.251.251 0 0 0 .25-.251v-10.035a.251.251 0 0 0-.25-.251h-7.688Z" />
    <path fill="#fff"
        d="M40.469 121.564a1.832 1.832 0 0 1-1.68-1.089c-3.117-6.974-.163-14.8-.036-15.129a1.839 1.839 0 1 1 3.431 1.322c-.026.067-2.522 6.749-.038 12.305a1.842 1.842 0 0 1-1.677 2.592v-.001ZM42.975 101.493a1.835 1.835 0 0 1-1.829-1.677 1.841 1.841 0 0 1 .14-.888c.424-.989 1.499-3.242 2.534-4.693a1.838 1.838 0 0 1 2.992 2.139c-.7.981-1.628 2.795-2.146 4.004a1.833 1.833 0 0 1-1.691 1.115Z" />
    <path fill="#0B1B32" d="M80.412 198.837h3.51v1.338a.67.67 0 0 1-.669.669h-2.172a.67.67 0 0 1-.669-.669v-1.338Z" />
    <path fill="#FFB300"
        d="M174.967 122.303c6.082 0 11.013-4.917 11.013-10.984 0-6.066-4.931-10.984-11.013-10.984-6.083 0-11.014 4.918-11.014 10.984 0 6.067 4.931 10.984 11.014 10.984Z" />
    <path fill="#FFB300"
        d="M192.839 104.013a.589.589 0 0 1-.404.36 2.056 2.056 0 0 0-1.619 1.773 9.493 9.493 0 0 0-.027 1.012c0 2.49-.012 8.326-4.525 9.838a5.787 5.787 0 0 1-1.829.325h-.291l-.124-.011c.088-.135.179-.271.251-.41.177-.3.339-.61.484-.927l.022-.047.057-.129.076-.18c.524-1.243.811-2.574.845-3.924v-.679a2.4 2.4 0 0 0 .126-.306l.028-.088.026-.084.113-.388c1.138-3.892 2.551-7.613 5.666-7.906a.611.611 0 0 1 .598.314l.5.917a.625.625 0 0 1 .027.54ZM166.298 104.881l-.107.144a10.837 10.837 0 0 0-1.657 3.405l-.033.011a2.61 2.61 0 0 0-.1-.212c-.033-.059-.072-.13-.121-.203a2.548 2.548 0 0 0-2.075-1.179c-.854-.036-1.836.625-2.231 1.518-.36.818-.15 1.628.633 2.408a6.324 6.324 0 0 0 3.197 1.696l.163.034h.018l.18.033c.036 0 .07.012.106.016.025.065.05.131.077.194-.054 0-.107-.014-.163-.023.104.845.307 1.675.606 2.472a11.763 11.763 0 0 0 .446 1.042h-.408c-1.923-.109-4.595-.718-6.779-2.9-1.831-1.827-2.338-4.222-1.38-6.404 1.002-2.264 3.345-3.773 5.693-3.654a6.051 6.051 0 0 1 3.652 1.385c.045.038.09.075.133.115.043.039.105.059.15.102Z" />
    <path fill="#0B1B32"
        d="M164.349 107.816a2.712 2.712 0 0 0-2.136-1.147c-.932-.038-1.978.676-2.405 1.617-.395.899-.17 1.77.669 2.609a6.54 6.54 0 0 0 3.345 1.754l.167.032h.016c0-.063-.014-.124-.02-.179h-.017l-.164-.034c0-.062-.013-.124-.016-.18a6.134 6.134 0 0 1-3.057-1.617c-.719-.719-.924-1.466-.595-2.21.359-.825 1.267-1.449 2.059-1.411a2.366 2.366 0 0 1 2.012 1.233c.021-.079.046-.157.07-.234.048.074.088.144.12.203.022-.077.047-.154.072-.232a.988.988 0 0 0-.12-.204Zm-2.158-.787a2.373 2.373 0 0 1 2.012 1.232c.022-.079.047-.156.07-.233.049.073.088.143.121.203a3.88 3.88 0 0 1 .072-.232 1.86 1.86 0 0 0-.123-.18 2.697 2.697 0 0 0-2.136-1.146c-.931-.038-1.978.675-2.404 1.617-.395.898-.171 1.77.669 2.609a6.54 6.54 0 0 0 3.35 1.75l.167.032h.016l.18.033c.056.009.11.018.164.023-.027-.063-.052-.129-.078-.194-.036 0-.07-.009-.106-.016l-.18-.032h-.017l-.164-.035c0-.061-.013-.124-.016-.179a6.134 6.134 0 0 1-3.057-1.617c-.719-.719-.924-1.467-.595-2.211.367-.835 1.269-1.462 2.06-1.424h-.005Zm2.285.97c-.036-.058-.075-.121-.122-.18a2.697 2.697 0 0 0-2.136-1.146c-.931-.038-1.978.675-2.404 1.617-.396.898-.171 1.77.669 2.609a6.542 6.542 0 0 0 3.339 1.75l.167.032h.016l.18.033c.056.009.11.018.164.023-.027-.063-.052-.129-.078-.194a7.686 7.686 0 0 1-.07-.19l-.054-.009-.179-.035h-.018a2.683 2.683 0 0 1-.164-.035 6.14 6.14 0 0 1-3.057-1.618c-.719-.718-.924-1.466-.595-2.21.36-.824 1.268-1.448 2.059-1.41a2.373 2.373 0 0 1 2.012 1.232c.043.075.081.151.115.23l.016.04.169-.061v.021l.016-.059.063-.212a1.154 1.154 0 0 0-.108-.228Zm1.798-3.384a6.24 6.24 0 0 0-3.887-1.536c-2.42-.113-4.833 1.438-5.864 3.761-1.001 2.253-.473 4.731 1.412 6.603 2.228 2.228 4.934 2.861 6.996 2.96H165.339l-.091-.18c-.029-.059-.06-.12-.087-.18h-.406c-1.978-.126-4.495-.763-6.568-2.842-1.772-1.785-2.273-4.104-1.338-6.216.935-2.111 3.084-3.552 5.277-3.552h.241a5.87 5.87 0 0 1 3.681 1.47l.138.124.106-.144c.038-.048.074-.093.11-.142a1.522 1.522 0 0 0-.128-.126Zm-4.078 2.414a2.376 2.376 0 0 1 2.012 1.232c.044.074.082.151.116.23l.016.04.169-.061v.021l.016-.059c.02-.07.041-.142.063-.212-.033-.063-.072-.139-.124-.221a1.844 1.844 0 0 0-.122-.18 2.71 2.71 0 0 0-2.137-1.146c-.931-.038-1.978.675-2.404 1.617-.395.898-.171 1.77.669 2.609a6.55 6.55 0 0 0 3.352 1.75l.167.032h.016l.18.033c.056.009.11.018.164.023-.027-.063-.052-.129-.078-.194-.036 0-.07-.009-.106-.016l-.18-.032h-.017l-.017-.18a3.423 3.423 0 0 1-.163-.036 6.134 6.134 0 0 1-3.057-1.617c-.719-.719-.924-1.466-.595-2.21.367-.834 1.269-1.461 2.06-1.423Zm2.158.787a2.7 2.7 0 0 0-2.136-1.147c-.931-.038-1.978.676-2.404 1.617-.396.899-.171 1.77.669 2.609.916.9 2.078 1.51 3.339 1.754l.167.032h.016c0-.063-.014-.124-.02-.179h-.017l-.164-.034c0-.062-.013-.124-.016-.18a6.134 6.134 0 0 1-3.057-1.617c-.719-.719-.924-1.466-.595-2.21.359-.825 1.267-1.449 2.059-1.411a2.366 2.366 0 0 1 2.012 1.233c.021-.079.046-.157.07-.234.048.074.088.144.12.203.022-.077.047-.154.072-.232a.988.988 0 0 0-.12-.204h.005Z" />
    <path fill="#FFB300"
        d="M164.139 112.148c0 .066.009.133.016.199l.054.009a3.17 3.17 0 0 1-.07-.208Zm13.435-9.775h.06-.06Zm0 0h.06-.06Zm-13.435 9.775c0 .066.009.133.016.199l.054.009a3.17 3.17 0 0 1-.07-.208Zm13.435-9.775h.06-.06Zm0 0h.06-.06Zm-13.065 6.097-.169.061-.016-.04a10.88 10.88 0 0 0-.386 2.791c0 .343-.001.686.037 1.031 0 .063 0 .124.016.18l.18.032c.036 0 .07.013.106.016a4.855 4.855 0 0 1-.07-.19c-.021-.063-.048-.139-.07-.209a10.78 10.78 0 0 1 .378-3.654l-.006-.018Zm21.398 2.145a10.739 10.739 0 0 0-.14-1.123 11.31 11.31 0 0 0-.527-1.921 10.964 10.964 0 0 0-4.084-5.23c-.016-.011-.032-.024-.048-.033-.07-.05-.144-.097-.216-.143l-.063-.042-.225-.138-.219-.13-.18-.104c-.063-.034-.126-.068-.191-.1a10.963 10.963 0 0 0-8.927-.556 11.037 11.037 0 0 0-2.135 1.07l-.179.118a10.942 10.942 0 0 0-2.498 2.332c-.038.047-.074.096-.11.144l-.108.144a11.037 11.037 0 0 0-2.119 6.379c0 .343-.001.686.037 1.031 0 .063 0 .124.016.18.017.055.013.124.02.179a11.123 11.123 0 0 0 1.041 3.538l.092.18a10.906 10.906 0 0 0 3.361 3.924l.205.144.196.133.179.117.103.063c.257.158.523.305.793.442.119.061.237.118.36.179.278.13.564.247.854.351.118.045.239.086.359.124a10.987 10.987 0 0 0 2.428.496c.284.027.568.041.854.043h.359c.285 0 .57-.025.855-.054a10.188 10.188 0 0 0 1.213-.192 11.077 11.077 0 0 0 1.527-.446l.047-.018c.293-.11.577-.232.854-.359a12.015 12.015 0 0 0 1.023-.557 12.279 12.279 0 0 0 .548-.36 10.91 10.91 0 0 0 3.194-3.471 11.028 11.028 0 0 0 1.481-5.446 8.647 8.647 0 0 0-.027-.888h-.003Zm-1.633 6.276a7.275 7.275 0 0 1-.252.41 10.563 10.563 0 0 1-2.99 3.065c-4.125-.025-8.69-1.053-12.08-2.973 3.001 1.725 6.939 2.79 10.661 3.033h-10.659a10.711 10.711 0 0 1-3.612-4.004l-.092-.179c-.029-.06-.059-.121-.086-.18a9.904 9.904 0 0 1-.36-.862 10.863 10.863 0 0 1-.606-2.473c.056.009.11.018.164.023-.027-.062-.052-.129-.077-.194a4.037 4.037 0 0 1-.071-.19c-.021-.063-.048-.138-.07-.208a10.787 10.787 0 0 1 .378-3.655l.016-.06.063-.212c.351-1.145.89-2.224 1.595-3.193.036-.048.07-.097.106-.143l.11-.142a10.803 10.803 0 0 1 2.276-2.192c.094-.065.18-.13.286-.193l.034-.023h.036c.811 0 8.34.029 8.358.027l.39-.014-.126.012.753-.025h2.421a10.781 10.781 0 0 1 4.227 5.29c.403 1.078.633 2.212.682 3.362v.692a10.792 10.792 0 0 1-.846 3.924l-.075.179c-.018.044-.038.087-.058.13l-.021.047c-.142.315-.299.622-.471.921h-.004Zm-6.692-14.513h.059-.067.008Zm-13.443 9.768a10.789 10.789 0 0 1 .377-3.655v-.021l-.169.061-.016-.04a10.92 10.92 0 0 0-.393 2.791c0 .343-.001.686.037 1.031l.18.034.054.009a4.235 4.235 0 0 1-.07-.208v-.002Zm13.435-9.773h.06-.06Zm0 0h.06-.06Zm-13.435 9.775c0 .066.009.133.016.199l.054.009a3.17 3.17 0 0 1-.07-.208Zm13.435-9.775h.06-.06Zm0 0h.06-.06Z" />
    <path fill="#fff"
        d="m169.008 102.344-.035.024v-.024h.035ZM185.875 111.571a11.075 11.075 0 0 1-.39 2.406 20.953 20.953 0 0 1-1.009 2.914c0 .015-.013.029-.018.042a6.22 6.22 0 0 1-.18.373c-.577 1.156-1.061 1.544-1.347 1.671a.484.484 0 0 1-.277.06.936.936 0 0 0 .063-.092c.489-.504.925-1.056 1.304-1.648.088-.134.18-.271.252-.409.177-.301.338-.61.483-.927l.022-.047c.02-.043.04-.086.058-.129l.075-.18a10.77 10.77 0 0 0 .845-3.924v-.685a10.896 10.896 0 0 0-.681-3.362 10.782 10.782 0 0 0-4.235-5.29h-2.415l-.753.025.126-.012h.011l.377-.013c.426-.012.978-.029 1.575-.043h.022c.083-.012.343-.047.597-.075l.226-.026c.106 0 .202-.018.267-.018.077.042.154.083.231.13a.186.186 0 0 1 .049.029c2.176 1.272 4.123 3.911 4.61 7.155a10.447 10.447 0 0 1 .112 1.211c.018.284.016.573 0 .864Z" />
    <path fill="#0B1B32"
        d="M164.477 107.999c-.025.077-.051.154-.072.232a2.618 2.618 0 0 0-.121-.203c-.023.077-.048.154-.07.233a11.106 11.106 0 0 0-.421 4.012c0 .063 0 .126.017.18l.163.034h.018c0 .063.013.124.02.18l.18.032c0-.063-.015-.124-.02-.179l-.018-.18a10.783 10.783 0 0 1 .361-3.854l.017-.06a5.67 5.67 0 0 1 .063-.212c-.031-.057-.071-.133-.117-.215Zm0 0c-.025.077-.051.154-.072.232a2.618 2.618 0 0 0-.121-.203c-.023.077-.048.154-.07.233a11.106 11.106 0 0 0-.421 4.012c0 .063 0 .126.017.18l.163.034h.018l.18.033c0-.061-.013-.123-.018-.18a10.783 10.783 0 0 1 .361-3.854l.017-.06a5.67 5.67 0 0 1 .063-.212c-.031-.057-.071-.133-.117-.215Zm0 0c-.025.077-.051.154-.072.232a2.618 2.618 0 0 0-.121-.203c-.023.077-.048.154-.07.233a11.106 11.106 0 0 0-.421 4.012c0 .063 0 .126.017.18l.163.034h.018l.18.033c0-.061-.013-.123-.018-.18a10.783 10.783 0 0 1 .361-3.854l.017-.06a5.67 5.67 0 0 1 .063-.212c-.031-.057-.071-.133-.117-.215Zm-.333 4.149a10.79 10.79 0 0 1 .378-3.655v-.022l-.169.061-.017-.039a10.91 10.91 0 0 0-.361 3.82h-.018l.016.18h.018l.18.032c0-.061-.013-.122-.018-.18l-.014-.197h.005Zm21.982-.956v-.191a11.257 11.257 0 0 0-.705-3.487 11.11 11.11 0 0 0-4.242-5.382l-.179-.111c-.06-.042-.121-.079-.18-.115-.144-.09-.29-.18-.437-.257l-.194-.104-.2-.105a11.929 11.929 0 0 0-1.057-.469 11.091 11.091 0 0 0-7.898-.036c-.659.246-1.293.553-1.895.917l-.18.113-.179.115a11.075 11.075 0 0 0-2.752 2.564l-.107.146a11.232 11.232 0 0 0-1.572 3.026l-.07.212c-.023.077-.049.154-.07.233a11.084 11.084 0 0 0-.421 4.012c0 .063 0 .126.016.18.016.054.013.128.018.191a11.205 11.205 0 0 0 1.02 3.563c.029.055.059.124.09.179a11.083 11.083 0 0 0 3.955 4.413c.062.038.121.078.18.114a12.62 12.62 0 0 0 1.232.657l.041.018a10.735 10.735 0 0 0 1.214.466 11.59 11.59 0 0 0 2.068.456 10.61 10.61 0 0 0 1.214.077h.359a8.4 8.4 0 0 0 .854-.052 10.735 10.735 0 0 0 1.214-.19c.121-.025.239-.052.36-.081a11.382 11.382 0 0 0 1.213-.376h.017c.286-.106.564-.224.838-.359.122-.056.24-.115.359-.18a11.471 11.471 0 0 0 1.124-.657c.059-.042.12-.081.18-.123a11.012 11.012 0 0 0 3.751-4.501l.027-.061.079-.179c.025-.06.052-.119.075-.18.557-1.357.84-2.811.831-4.278.007-.063.005-.121.004-.178h.005Zm-2.095 6.109a10.563 10.563 0 0 1-2.99 3.065l-.088.06-.072.046a7.65 7.65 0 0 1-.507.311l-.313.18a4.165 4.165 0 0 1-.36.18 8.108 8.108 0 0 1-.854.359c-.036.016-.072.029-.109.043a13.298 13.298 0 0 1-1.105.347c-.12.03-.239.059-.359.084a10.067 10.067 0 0 1-1.214.198 10.2 10.2 0 0 1-.854.056h-.36c-.285 0-.57-.016-.854-.042-.12-.01-.241-.025-.359-.039a9.88 9.88 0 0 1-.854-.144 7.2 7.2 0 0 1-.36-.079 11.55 11.55 0 0 1-1.214-.374c-.251-.091-.5-.196-.746-.307l-.108-.05a8.586 8.586 0 0 1-.359-.18 9.486 9.486 0 0 1-.443-.241c-.041-.023-.083-.046-.124-.073l-.18-.106c-.095-.058-.18-.117-.28-.18a10.709 10.709 0 0 1-3.623-3.993l-.092-.179c-.029-.06-.059-.121-.086-.18a9.795 9.795 0 0 1-.36-.863 10.79 10.79 0 0 1-.606-2.472c0-.063-.014-.124-.02-.18a18.676 18.676 0 0 1-.034-.379 10.79 10.79 0 0 1 .378-3.655l.016-.059a10.815 10.815 0 0 1 1.658-3.405c.036-.048.07-.097.106-.144.038-.048.074-.093.109-.142a10.806 10.806 0 0 1 2.277-2.202c.093-.065.18-.13.286-.193l.034-.023c.093-.063.18-.122.286-.18.106-.057.199-.12.302-.179a10.94 10.94 0 0 1 1.554-.719 10.743 10.743 0 0 1 8.871.6c.063.032.124.066.18.101a1.954 1.954 0 0 1 .178.102l.128.074.036.025.054.032.234.148a10.784 10.784 0 0 1 4.227 5.289c.403 1.078.633 2.213.681 3.362v.692a10.765 10.765 0 0 1-.845 3.924l-.075.18a3.656 3.656 0 0 1-.058.129l-.021.047a10.32 10.32 0 0 1-.484.927c-.058.13-.142.266-.23.401h.005Zm-19.892-5.153a10.789 10.789 0 0 1 .377-3.655v-.022l-.169.061-.016-.039a1.974 1.974 0 0 0-.115-.23 11.1 11.1 0 0 0-.421 4.012c0 .063 0 .126.016.18l.164.034h.018l.18.032c0-.061-.013-.122-.018-.179-.006-.058-.011-.128-.016-.194Zm.338-4.149c-.025.077-.051.154-.072.232a2.618 2.618 0 0 0-.121-.203c-.023.077-.048.154-.07.233a11.106 11.106 0 0 0-.421 4.012c0 .063 0 .126.017.18l.163.034h.018l.18.033c0-.061-.013-.123-.018-.18a10.783 10.783 0 0 1 .361-3.854l.017-.06a5.67 5.67 0 0 1 .063-.212c-.031-.057-.071-.133-.117-.215Zm0 0c-.025.077-.051.154-.072.232a2.618 2.618 0 0 0-.121-.203c-.023.077-.048.154-.07.233a11.106 11.106 0 0 0-.421 4.012c0 .063 0 .126.017.18l.163.034h.018c0 .063.013.124.02.18l.18.032c0-.063-.015-.124-.02-.179l-.018-.18a10.783 10.783 0 0 1 .361-3.854l.017-.06a5.67 5.67 0 0 1 .063-.212c-.031-.057-.071-.133-.117-.215Z" />
    <path fill="#fff"
        d="M185.762 111.179V110.996a10.868 10.868 0 0 0-.682-3.362 10.78 10.78 0 0 0-4.241-5.29h-2.415l-.754.025.126-.012-.39.014c-.018 0-7.552-.027-8.357-.027h-.036l-.035.024c-.007.294-.268 2.195 5.179 1.836 4.315-.293 6.736 1.883 7.998 4.672.204.452.38.918.527 1.392.618 2.101.819 4.303.59 6.481a9.57 9.57 0 0 1-.053.423c-.12.833-.303 1.469-.503 1.796.488-.504.925-1.056 1.304-1.647.088-.135.179-.272.251-.41.177-.301.339-.61.484-.927l.022-.047.057-.129.076-.18a10.79 10.79 0 0 0 .845-3.924v-.329c.009-.074.007-.135.007-.196Zm-8.181-8.804h.066-.066Z" />
    <path fill="#FFB300" d="M175.556 97.088a1.426 1.426 0 1 0-.997-2.673 1.426 1.426 0 0 0 .997 2.673Z" />
    <path fill="#fff"
        d="M176.495 95.04a.504.504 0 0 1-.106.207.492.492 0 0 1-.147.13.902.902 0 0 1-.871 0 .847.847 0 0 1-.521-.867.51.51 0 0 1 .075-.19.546.546 0 0 1 .18-.18 1.622 1.622 0 0 1 1.385.898l.005.002Z" />
    <path fill="#0B1B32"
        d="M176.559 95.19a1.615 1.615 0 0 0-1.449-1.047 1.608 1.608 0 0 0-.107 3.216 1.606 1.606 0 0 0 .709-.141 1.608 1.608 0 0 0 .847-2.029Zm-1.068 1.728a1.25 1.25 0 0 1-1.286-2.083 1.223 1.223 0 0 1 .644-.316 1.247 1.247 0 0 1 .723.097 1.244 1.244 0 0 1 .649.699 1.236 1.236 0 0 1-.046.982c-.139.287-.384.51-.684.62Z" />
    <path fill="#FFB300"
        d="M168.883 120.611h12.286v3.717a.36.36 0 0 1-.359.36h-11.568a.362.362 0 0 1-.254-.105.363.363 0 0 1-.105-.255v-3.717Z" />
    <path fill="#0B1B32"
        d="M168.703 120.431v3.897a.539.539 0 0 0 .54.539h11.567a.538.538 0 0 0 .539-.539v-3.897h-12.646Zm12.287 3.897a.18.18 0 0 1-.18.18h-11.567a.18.18 0 0 1-.18-.18v-3.538h11.927v3.538Z" />
    <path fill="#FFB300"
        d="M180.212 102.014v.151h-11.265v-.151c0-2.397 2.518-4.342 5.634-4.342 3.116 0 5.631 1.945 5.631 4.342Z" />
    <path fill="#0B1B32"
        d="M180.388 101.855c0-.071-.005-.143-.016-.215-.214-2.022-2.147-3.671-4.657-4.061a7.622 7.622 0 0 0-1.138-.086c-.617-.001-1.232.077-1.829.232h-.01a6.284 6.284 0 0 0-.675.21c-1.721.648-2.97 1.939-3.236 3.466a1.25 1.25 0 0 0-.024.149c0 .052-.012.106-.016.16-.004.054 0 .108-.011.162-.011.054 0 .082 0 .124v.341h11.607v-.279a.45.45 0 0 0 0-.052v-.028c.009-.036.007-.079.005-.123Zm-11.265.13v-.142c.088-1.671 1.477-3.093 3.417-3.689a6.892 6.892 0 0 1 2.033-.3c2.75 0 5.035 1.558 5.395 3.579.014.072.025.146.032.219.009.071.015.142.016.212v.123l-10.893-.002Z" />
    <path fill="#FFB300"
        d="M180.991 102.003v.162h-12.042v-.162c0-2.563 2.697-4.641 6.024-4.641 3.326 0 6.018 2.079 6.018 4.641Z" />
    <path fill="#fff"
        d="M179.126 102.168s.275-1.928-2.181-3.157c-2.269-1.134-3.657-.916-5.191-.796.27-.27 1.304-.686 2.158-.708.854-.022 6.27-.719 7.102 4.604-.989.068-1.888.057-1.888.057Z" />
    <path fill="#0B1B32"
        d="M179.611 120.431h-10.658a10.71 10.71 0 0 1-3.612-4.009l-.092-.179c-.029-.06-.059-.121-.086-.18a9.904 9.904 0 0 1-.36-.862 10.863 10.863 0 0 1-.606-2.473c.056.009.11.018.164.023.514 1.22 1.393 2.302 2.517 3.235.063.054.126.106.191.156l.194.153a18.7 18.7 0 0 0 1.02.719c.215.136.435.269.661.397 3.007 1.707 6.945 2.785 10.667 3.02Z" />
    <path fill="#0B1B32"
        d="M168.953 120.431h10.087l-1.42.043h-.36l-.854.027-.36.011-.854.025-.359.011-.854.025-.36.011-.624.018h-.23l-.36.011-.854.025-.359.01-.855.026-.359.01-.567.017-.329.01h-.138l-.059-.054-.18-.159-.205-.18-1.716-1.533-.402-.359a8.535 8.535 0 0 1-1.32-2.034l-.085-.18c-.028-.059-.055-.122-.082-.18a11.428 11.428 0 0 1-.899-3.356c0-.063-.015-.126-.022-.18l-.016-.179a11.817 11.817 0 0 1-.043-1.161c0 .045.014.088.023.133a5.81 5.81 0 0 0 .277 1.072c.025.071.045.128.07.191.025.063.05.131.077.194-.054 0-.108-.014-.163-.023.104.845.307 1.675.606 2.472a11.763 11.763 0 0 0 .446 1.042l.091.18a10.712 10.712 0 0 0 3.611 4.014Z" />
    <path fill="#0B1B32"
        d="m180.14 120.46-1.101-.029h.572c.178.011.352.022.529.029ZM181.065 120.483h-.199c-.238 0-.477-.009-.72-.02l.72.018.199.002Z" />
    <path fill="#fff"
        d="M180 102.301c-.597.014-1.149.031-1.575.043l-.753.025.126-.012h.011l.147-.013c.685-.052 1.37-.056 1.827-.047l.217.004Z" />
    <path fill="#0B1B32"
        d="M170.336 120.462h-.359v4.267h.359v-4.267ZM171.551 120.462h-.36v4.267h.36v-4.267ZM172.764 120.462h-.36v4.267h.36v-4.267ZM173.977 120.462h-.36v4.267h.36v-4.267ZM175.192 120.462h-.36v4.267h.36v-4.267ZM176.405 120.462h-.36v4.267h.36v-4.267ZM177.619 120.462h-.359v4.267h.359v-4.267ZM178.832 120.462h-.359v4.267h.359v-4.267ZM180.047 120.462h-.359v4.267h.359v-4.267ZM175.705 97.218a7.18 7.18 0 0 0-.741-.036c-.197 0-.395 0-.588.022-2.891.212-5.214 1.976-5.561 4.204a1.247 1.247 0 0 0-.023.149c0 .052-.013.106-.017.16-.003.054 0 .108-.01.162-.011.054 0 .082 0 .124v.341h12.385v-.334c.02-2.478-2.37-4.508-5.445-4.792Zm-6.583 4.767v-.14c.071-1.538 1.166-2.875 2.777-3.642l.235-.108a7.24 7.24 0 0 1 2.83-.56c.251-.001.501.011.75.037 2.827.276 5.026 2.1 5.094 4.312v.088l-11.686.013ZM192.812 103.458l-.5-.916a.612.612 0 0 0-.599-.315c-3.114.302-4.527 4.023-5.66 7.915l-.113.389-.026.084a2.4 2.4 0 0 1-.154.394v.679c.04-.037.078-.076.113-.117l.065-.085c.069-.092.13-.192.18-.296.085-.173.153-.353.205-.539.776-2.708 1.663-5.382 3.128-6.857a3.683 3.683 0 0 1 2.302-1.153.206.206 0 0 1 .207.106l.118.217.38.701a.215.215 0 0 1 0 .18.187.187 0 0 1-.05.074.185.185 0 0 1-.08.041 2.47 2.47 0 0 0-1.927 2.109 8.43 8.43 0 0 0-.034 1.078c0 2.401-.013 8.027-4.246 9.446a5.52 5.52 0 0 1-1.438.293h-.416a8.337 8.337 0 0 1-.251.41l.124.01h.295a5.798 5.798 0 0 0 1.816-.33c4.513-1.511 4.52-7.347 4.526-9.838a9.218 9.218 0 0 1 .026-1.011 2.064 2.064 0 0 1 1.619-1.774.6.6 0 0 0 .404-.359.641.641 0 0 0-.014-.536Z" />
    <path fill="#FFB300" d="M102.777 46.572c0-15.135 12.281-27.403 27.43-27.403s27.43 12.268 27.43 27.403" />
    <path fill="#0B1B32"
        d="M157.934 46.572h-.594c0-14.947-12.172-27.107-27.133-27.107-14.961 0-27.133 12.16-27.133 27.107h-.594c0-15.274 12.439-27.7 27.727-27.7 15.289 0 27.727 12.426 27.727 27.7Z" />
    <path fill="#FFB300" d="M157.703 46.654h-54.926v54.872h54.926V46.654Z" />
    <path fill="#0B1B32" d="M158 101.822h-55.52V46.357H158v55.465Zm-54.926-.593h54.332V46.951h-54.332v54.278Z" />
    <path fill="#0B1B32" d="M157.803 73.645H102.58v.593h55.223v-.593Z" />
    <path fill="#0B1B32" d="M130.537 46.588h-.594v55.102h.594V46.588Z" />
</svg>