<svg xmlns="http://www.w3.org/2000/svg" width="245" height="232" fill="none">
    <path fill="#fff" fill-opacity=".3"
        d="M67.876 230.465C-7.42 227.529-16.663 132.223 23.373 72.98 57.233 22.852 77.382 1.6 114.395.066c62.55-2.585 111.784 71.38 125.188 134.786 19.536 92.239-8.498 101.923-171.707 95.613Z" />
    <g clip-path="url(#a)">
        <path fill="#FFB300"
            d="M98.723 82.365a38.058 38.058 0 0 1 11.437-26.231 37.837 37.837 0 0 1 26.445-10.784c9.879 0 19.368 3.87 26.444 10.783a38.057 38.057 0 0 1 11.437 26.232" />
        <path fill="#0B1B32"
            d="M174.91 82.365h-.822a37.645 37.645 0 0 0-11.219-26.131 37.426 37.426 0 0 0-26.258-10.766 37.43 37.43 0 0 0-26.259 10.766 37.648 37.648 0 0 0-11.218 26.131h-.822a38.473 38.473 0 0 1 11.462-26.71 38.247 38.247 0 0 1 26.837-11.004 38.249 38.249 0 0 1 26.837 11.005 38.474 38.474 0 0 1 11.462 26.71Z" />
        <path fill="#FFB300" d="M174.589 82.481H98.723v75.985h75.866V82.481Z" />
        <path fill="#0B1B32" d="M175 158.904H98.312V82.069H175v76.835Zm-75.866-.825h75.044V82.894H99.134v75.185Z" />
        <path fill="#0B1B32" d="M174.756 119.868H98.479v.824h76.277v-.824Z" />
        <path fill="#0B1B32" d="M137.067 82.392h-.835v76.332h.822l.013-76.332Z" />
        <path fill="#FFB300"
            d="M74.671 142.702c.063.907.33 1.788.784 2.576 0 0 2.298-.927 2.568-1.03.27-.103 1.554 1.506 1.554 1.506l1.977 2.576a4.08 4.08 0 0 0-.514 3.233c.553 1.7 2.774 1.738 2.774 1.738.285-1.199.448-2.425.488-3.657a11.858 11.858 0 0 0-1.515-4.701s-1.541-3.619-2.864-4.662c-1.322-1.043-4.083 0-4.083 0a3.997 3.997 0 0 0-1.169 2.421Z" />
        <path fill="#fff"
            d="M78.536 139.946c.54.272 1.02.649 1.413 1.108a25.425 25.425 0 0 1 3.377 8.139c.01 1.346-.127 2.69-.41 4.005h-.09c.303.078.612.13.924.155.279-1.2.438-2.426.475-3.658a11.833 11.833 0 0 0-1.502-4.7s-1.554-3.619-2.877-4.662a2.564 2.564 0 0 0-1.31-.387Z" />
        <path fill="#FFB300"
            d="M68.174 129.476c-2.941 2.949-7.577 11.307-8.99 14.166-1.412 2.859-5.02 11.346-5.02 11.346l-2.093 6.285a18.27 18.27 0 0 1-3.853-4.881c-1.63-3.052-1.412-8.5-1.412-8.5s1.155.94 3.364-1.056c2.209-1.996.36-8.564-4.302-7.933-4.661.631-5.753 7.392-5.29 11.99.462 4.598 2.568 7.598 7.512 11.282a17.571 17.571 0 0 0 9.618 3.657c.758 1.662 6.562 2.486 6.562 2.486l3.852 1.095 1.798.489 3.608 1.043s3.275 1.288 3.93.18c.655-1.107-.296-2.331-1.413-3.438-1.117-1.108-4.494-.078-4.494-.078l-2.838-2.163c.809-.386 4.225-1.996 5.06-5.152a5.32 5.32 0 0 0 0-2.73 5.415 5.415 0 0 0-1.285-2.421 20.918 20.918 0 0 1 .45-5.525c.681.428 1.314.929 1.887 1.494a5.91 5.91 0 0 1 1.053 3.104c0 .669-.886.541-1.143 2.447-.256 1.906 2.312 2.794 2.312 2.794s.372.219 1.284-3.941c.912-4.159-2.401-9.311-2.401-9.311-2.325-4.018-.18-5.911-.18-5.911.27-1.056 1.361-1.945 3.852-2.846 2.492-.902 8.72-1.056 8.72-1.056s4.686-.825 6.42-4.611c1.734-3.786-.193-4.907-.398-5.151-3.043-1.997-11.429-2.653-11.429-2.653a18.204 18.204 0 0 0-14.742 5.499Z" />
        <path fill="#fff"
            d="M56.937 148.112a76.667 76.667 0 0 0-3.454 8.924c1.092-2.82 1.85-1.828 3.005-1.957 2.029-.193 1.284-6.362 2.414-6.98 1.13-.619 2.106 1.893 3.262 1.648 1.656-.348-.27-3.129-.976-5.641a8.392 8.392 0 0 1 .719-5.267s-2.864 4.726-4.97 9.273ZM72.514 159.457a7.963 7.963 0 0 1-2.568 4.971h.462a7.488 7.488 0 0 0 3.223-4.056 5.49 5.49 0 0 0-1.194-5.152 2.003 2.003 0 0 1 0-.296h-.398a5.494 5.494 0 0 0-4.007-1.726s4.906 2.383 4.482 6.259ZM74.748 141.917s-1.13 1.442-.603 2.576c.526 1.133 1.926 3.863 2.684 5.834a8.353 8.353 0 0 1 .539 5.666c-.59 1.61-1.284 3.053-.334 3.478.103 0 .5-.464 1.284-3.941.976-4.173-2.388-9.312-2.388-9.312a10.742 10.742 0 0 1-.745-1.609 4.624 4.624 0 0 1-.437-2.692ZM48.912 143.062a5.168 5.168 0 0 1-1.117 4.894l.128.103a4.936 4.936 0 0 0 2.157-1.288c2.209-2.022.36-8.564-4.301-7.92a4.274 4.274 0 0 0-1.49.464 5.216 5.216 0 0 1 2.894 1.15 5.247 5.247 0 0 1 1.729 2.597ZM82.877 124.067a17.399 17.399 0 0 0-10.003 1.918l7.704-.862a52.136 52.136 0 0 1 13.882 2.575 1.287 1.287 0 0 0-.103-1.004c-3.043-1.996-11.429-2.653-11.429-2.653l-.051.026Z" />
        <path fill="#0B1B32"
            d="M78.344 122.303a.518.518 0 0 1-.231-.129.483.483 0 0 1-.167-.361.5.5 0 0 1 .115-.373 2.988 2.988 0 0 1 4.058-.657.565.565 0 0 1 .206.335.567.567 0 0 1-.09.386.324.324 0 0 1-.154.142.44.44 0 0 1-.18.077.545.545 0 0 1-.206 0l-.18-.09a1.883 1.883 0 0 0-2.658.502.572.572 0 0 1-.23.155.521.521 0 0 1-.283 0v.013ZM88.81 133.507c.056.013.11.039.153.078a.217.217 0 0 1 0 .154.283.283 0 0 1 0 .103v.103a.199.199 0 0 1-.076 0h-.103c-.145.02-.292.02-.437 0h-.41a4.53 4.53 0 0 1-.848-.232 2.992 2.992 0 0 1-.784-.463 1.966 1.966 0 0 1-.539-.747.246.246 0 0 1 0-.168.33.33 0 0 1 .09-.141.267.267 0 0 1 .193 0 .277.277 0 0 1 .166.103c.116.203.273.378.463.515.191.125.393.233.603.322.228.092.465.161.707.206.12.038.246.064.372.077h.36l.09.09Z" />
        <path fill="#0B1B32"
            d="M40.873 154.112a18.377 18.377 0 0 0 6.883 8.268 23.058 23.058 0 0 0 3.287 1.894c.36.182.733.333 1.117.45a16.91 16.91 0 0 0 5.33 1.288c.327.564.847.99 1.463 1.198.848.322 2.749.798 4.752 1.288 2.003.489 4.327 1.043 5.753 1.507 0 0 1.618.528 3.351.978 1.734.451 3.776.876 4.418.593a.952.952 0 0 0 .41-.374c.092-.161.14-.343.142-.528a4.03 4.03 0 0 0-1.785-3.297 2.97 2.97 0 0 0-1.284-.412 2.435 2.435 0 0 0-.617-1.017c-.29-.281-.649-.48-1.04-.58a2.567 2.567 0 0 0-1.63.219 1.36 1.36 0 0 1-.707.168c-.321 0-1.027-.284-1.528-.438a9.486 9.486 0 0 0 3.493-2.795 5.88 5.88 0 0 0 1.014-5.692 5.767 5.767 0 0 0-1.078-1.816 19.266 19.266 0 0 1 .372-4.971c.424.322.822.618 1.104.862a5.071 5.071 0 0 1 1.4 3.285c-.071.199-.18.383-.321.54a2.794 2.794 0 0 0-.81 2.28 3.527 3.527 0 0 0 2.492 2.666.265.265 0 0 0 .167 0 .369.369 0 0 0 .129-.116 32.96 32.96 0 0 0 1.284-3.98c.911-2.872-1.387-7.418-2.569-9.852l-.192-.36a9.3 9.3 0 0 1 1.913-.837h.116a.215.215 0 0 1 .154 0c.233.13.441.3.616.502l.45.528a34.133 34.133 0 0 1 2.157 2.859c-.257.528-1.091 2.37-.398 3.632.205.36.48.675.809.927a3.25 3.25 0 0 0 1.104.528c.348.089.707.128 1.066.116a.345.345 0 0 0 .231-.206c.387-1.509.53-3.07.424-4.624-.347-1.622-2.221-6.619-3.737-8.113a3.846 3.846 0 0 0-3.3-.94c-.391.05-.778.132-1.156.244a.806.806 0 0 0 .103-.116c1.798-2.421 5.316-2.768 10.928-3.039a9.353 9.353 0 0 0 4.133-1.204 9.393 9.393 0 0 0 3.16-2.93 6.234 6.234 0 0 0 1.144-4.005 2.64 2.64 0 0 0 1.284-.155 2.64 2.64 0 0 0 1.477-3.567 2.348 2.348 0 0 0-.566-.837 2.395 2.395 0 0 0-.873-.503 2.567 2.567 0 0 0-1.117 0 2.409 2.409 0 0 0-1.014.451c-.338.221-.63.505-.86.837a2.853 2.853 0 0 0-.476 1.108 30.547 30.547 0 0 0-8.257-1.932 84.514 84.514 0 0 0-8.835-.683 15.337 15.337 0 0 0 1.464-7.791c-.41-3.246-3.094-2.692-3.71-.889-1.067 3.143 0 7.264.41 8.874a3.055 3.055 0 0 0-.475.206c-.206-.889-1.194-5.074-1.72-5.435a3.703 3.703 0 0 0-2.402-.464c-.373.219-1.708 1.159-2.89 4.701-1.18 3.542.257 4.83 1.439 4.636 1.181-.193 2.85-4.778 2.85-4.778l1.156 2.319a31.434 31.434 0 0 0-4.661 4.61 74.36 74.36 0 0 0-9.271 14.527 92.89 92.89 0 0 0-6.806 16.936 11.947 11.947 0 0 1-4.43-7.599 22.78 22.78 0 0 1-.424-4.945 4.089 4.089 0 0 0 2.568-.528 4.253 4.253 0 0 0 1.592-5.023 5.153 5.153 0 0 0-1.801-2.889 5.131 5.131 0 0 0-3.207-1.129 5.214 5.214 0 0 0-4.096 2.653 15.412 15.412 0 0 0-1.066 12.711Zm34.671-9.182c0-.142-.102-.245-.154-.335a3.5 3.5 0 0 1 .347-3.864 7.539 7.539 0 0 1 1.682-.45 3.25 3.25 0 0 1 2.864.785c1.412 1.365 3.249 6.233 3.608 7.856a13.556 13.556 0 0 1-.385 4.211 2.697 2.697 0 0 1-2.26-1.326c-.655-1.172.475-3.22.475-3.245a.245.245 0 0 0 0-.129.3.3 0 0 0 0-.142s-.72-1.069-1.502-2.086c-.283-.361-.514-.657-.732-.915a.656.656 0 0 1-.116-.772.52.52 0 0 0 0-.631c-.334-.297-1.194 0-1.708.219a15.52 15.52 0 0 0-2.144.811l.025.013Zm-33.258-3.181a4.804 4.804 0 0 1 3.673-2.409 4.633 4.633 0 0 1 2.882 1.034 4.651 4.651 0 0 1 1.611 2.611 3.784 3.784 0 0 1-1.284 4.417 3.445 3.445 0 0 1-3.723-.103 5.532 5.532 0 0 1-1.439-1.287h-.154a2.866 2.866 0 0 0 .95 2.807 10.031 10.031 0 0 1 2.299 4.572c.077.361.128.605.141.644a11.721 11.721 0 0 0 1.667 4.249 11.674 11.674 0 0 0 3.162 3.285.362.362 0 0 0 .166 0h.103a.46.46 0 0 0 0-.116c.424-2.009 2.402-8.191 6.845-17.193a76.063 76.063 0 0 1 8.282-13.304 9.77 9.77 0 0 0 10.196 2.782c5.599-1.751 5.753-7.869 5.702-9.247.629 0 1.284.142 1.913.219 2.852.253 5.652.925 8.308 1.996.066.456.273.879.591 1.211.293.344.662.613 1.079.786a5.573 5.573 0 0 1-1.028 3.863 9 9 0 0 1-3.004 2.756 9.04 9.04 0 0 1-3.853 1.159c-5.766.271-9.374.644-11.326 3.233s-1.49 4.082-.989 5.242c.116.296.347.695.591 1.21 1.207 2.383 3.454 6.8 2.568 9.466-.732 2.344-1.078 3.31-1.284 3.709a2.915 2.915 0 0 1-1.939-2.164 2.469 2.469 0 0 1 .72-1.893 1.7 1.7 0 0 0 .423-.85 5.648 5.648 0 0 0-1.58-3.696c-.32-.27-.757-.605-1.284-.94a1.156 1.156 0 0 0-.205-.142 8.593 8.593 0 0 1-2.35-2.138.196.196 0 0 0-.103-.141.216.216 0 0 0-.18 0 .304.304 0 0 0-.154.09.283.283 0 0 0 0 .167c-.006.12-.006.241 0 .361v.515a8.324 8.324 0 0 1-.86-2.37.257.257 0 0 0-.077-.167.386.386 0 0 0-.167-.077.302.302 0 0 0-.18.064.245.245 0 0 0-.09.155 11.5 11.5 0 0 1-.282 1.146l-.398-1.404a12.503 12.503 0 0 1 0-5.808.207.207 0 0 0 0-.193.232.232 0 0 0-.141-.129.203.203 0 0 0-.193 0 .228.228 0 0 0-.128.141 11.625 11.625 0 0 0-.193 5.152c.013.152.039.303.077.451a5.424 5.424 0 0 0 .103 2.756 8.87 8.87 0 0 0 1.748 3.034 8.835 8.835 0 0 0 2.785 2.117v1.288a6.56 6.56 0 0 0-2.569-1.288 10.417 10.417 0 0 0-3.57-.27.23.23 0 0 0-.166 0 .269.269 0 0 0-.103.141.25.25 0 0 0 0 .194.232.232 0 0 0 .154.115.23.23 0 0 0 .096.02.228.228 0 0 0 .097-.02c1.746-.128 5.92-.09 7.332 3.632a5.306 5.306 0 0 1-.937 5.152 8.901 8.901 0 0 1-4.495 3.078l-.809.219a7.726 7.726 0 0 1-2.042.128h-.09v.129h.103c.642.193 6.305 1.829 7.037 1.855.284-.024.564-.08.835-.168a3.942 3.942 0 0 1 3.03 0 3.565 3.565 0 0 1 1.554 2.808.698.698 0 0 1-.064.27.547.547 0 0 1-.18.206c-.68.335-4.366-.566-7.383-1.584-1.451-.476-3.647-1.004-5.792-1.519-2.144-.515-3.852-.94-4.687-1.288a1.966 1.966 0 0 1-1.412-1.52c-.09-.67.385-1.378 1.284-1.983a.284.284 0 0 0 .102-.168.27.27 0 0 0 0-.193.289.289 0 0 0-.154-.116 3.172 3.172 0 0 0-2.504 1.018 4.283 4.283 0 0 1-4.07.515l-.283-.103a22.856 22.856 0 0 1-4.045-2.215 17.865 17.865 0 0 1-6.677-8.024c-1.952-3.735-1.554-8.925.385-11.951l.026.013Z" />
        <path fill="#0B1B32"
            d="M94.203 129.012a.284.284 0 0 0-.206-.36.31.31 0 0 0-.372.206.31.31 0 0 0 .218.373.284.284 0 0 0 .226-.034.288.288 0 0 0 .134-.185ZM94.768 130.056a.313.313 0 0 0-.026-.252.31.31 0 0 0-.205-.148.312.312 0 0 0-.385.232.323.323 0 0 0 .218.399.333.333 0 0 0 .398-.231ZM93.573 130.596a.232.232 0 0 0-.344-.257.232.232 0 0 0 .075.425.238.238 0 0 0 .088.005.224.224 0 0 0 .147-.092.217.217 0 0 0 .034-.081ZM91.288 129.283a.324.324 0 0 0-.118-.336.323.323 0 0 0-.355-.021.321.321 0 0 0-.082.489.32.32 0 0 0 .555-.132ZM92.482 128.252a.335.335 0 0 0-.231-.399.344.344 0 0 0-.398.231.328.328 0 0 0 .231.4c.083.022.172.01.247-.034a.323.323 0 0 0 .151-.198ZM92.944 129.399a.35.35 0 0 0-.23-.4.334.334 0 0 0-.398.232.335.335 0 0 0 .23.399.321.321 0 0 0 .398-.231ZM92.032 130.674a.296.296 0 0 0-.321-.381.295.295 0 0 0-.25.22.297.297 0 0 0 .03.227.302.302 0 0 0 .182.14.297.297 0 0 0 .115.011.28.28 0 0 0 .245-.217ZM90.787 130.931a.285.285 0 0 0-.193-.335.28.28 0 0 0-.3.21.286.286 0 0 0 .159.331.266.266 0 0 0 .211-.031.266.266 0 0 0 .123-.175ZM93.265 131.897a.298.298 0 1 0-.578-.141.283.283 0 0 0 .206.36.305.305 0 0 0 .372-.219ZM90.004 128.008a.29.29 0 0 0-.025-.226.288.288 0 0 0-.18-.135c-.039-.012-.079-.016-.118-.012a.295.295 0 0 0-.255.218.31.31 0 0 0 .218.374.302.302 0 0 0 .225-.035.298.298 0 0 0 .135-.184ZM89.862 130.069a.3.3 0 0 0-.113-.308.295.295 0 0 0-.393.438.297.297 0 0 0 .263.094.302.302 0 0 0 .11-.039.3.3 0 0 0 .134-.185Z" />
        <path fill="#fff"
            d="M79.461 128.033a2.312 2.312 0 0 0-.837-2.418 2.293 2.293 0 0 0-3.454.828 2.312 2.312 0 0 0 .344 2.536c.3.342.696.586 1.135.702a2.315 2.315 0 0 0 2.812-1.648Z" />
        <path fill="#0B1B32"
            d="M79.487 126.475c-.2-.49-.564-.895-1.028-1.146a2.221 2.221 0 0 0-1.528-.206c-.083.36-.083.734 0 1.094.114.36.312.687.578.953.265.259.586.453.938.567.363.083.74.083 1.104 0 .075-.433.03-.878-.129-1.288l.065.026Z" />
        <path fill="#fff"
            d="M97.85 125.535c.192-.168.09-.606-.244-.992-.334-.386-.758-.58-.95-.412-.193.167-.078.618.243 1.004.321.387.81.567.95.4Z" />
        <path fill="#FFB300" stroke="#0B1B32" stroke-miterlimit="10" d="M58.684 183.45h45.959v35.417h-45.96V183.45Z" />
        <path fill="#FFB300" stroke="#0B1B32" stroke-miterlimit="10"
            d="M107.224 187.185H56.013a1.397 1.397 0 0 1-1.284-1.493v-15.455a1.406 1.406 0 0 1 1.284-1.494h17.978l7.383 2.009 8.026-2.009h17.85c.365.033.704.207.943.486.24.279.362.641.341 1.008v15.455c.021.371-.105.736-.35 1.016a1.41 1.41 0 0 1-.96.477Z" />
        <path fill="#0B1B32" d="M76.687 168.717h9.952v50.149h-9.952v-50.149Z" />
        <path fill="#0B1B32"
            d="M58.684 187.186h45.959v6.851h-45.96v-6.851ZM77.869 169.464c-2.569 0-4.957-.361-6.716-2.486a4.928 4.928 0 0 1-.9-4.263 3.43 3.43 0 0 1 2.325-2.576c1.978-.605 3.852.516 5.368 3.233a12.75 12.75 0 0 0 3.968 4.559.812.812 0 0 1 .36.979.672.672 0 0 1-.604.463h-3.801v.091Zm-4.276-7.985a2.544 2.544 0 0 0-.694.103 2.042 2.042 0 0 0-1.387 1.558 3.254 3.254 0 0 0 .591 2.808c1.785 2.15 4.572 2.086 7.512 1.983a18.695 18.695 0 0 1-2.76-3.748c-1.015-1.803-2.12-2.704-3.262-2.704Z" />
        <path fill="#0B1B32"
            d="M85.458 169.464H81.67a.684.684 0 0 1-.485-.235.7.7 0 0 1-.17-.512.737.737 0 0 1 .398-.683 12.86 12.86 0 0 0 3.968-4.572c1.528-2.717 3.39-3.863 5.38-3.232a3.408 3.408 0 0 1 2.311 2.576 4.931 4.931 0 0 1-.898 4.262c-1.76 2.035-4.2 2.396-6.716 2.396Zm-1.747-1.533c2.954.103 5.728.168 7.513-1.983a3.216 3.216 0 0 0 .59-2.808 1.997 1.997 0 0 0-1.374-1.545c-1.412-.438-2.748.438-3.968 2.576a18.721 18.721 0 0 1-2.76 3.747v.013Z" />
        <path fill="#fff" d="M119.179 143.424h33.837v31.797h-33.837v-31.797Z" />
        <path fill="#0B1B32" d="M119.179 143.424h33.837v5.151h-33.837v-5.151Z" />
        <path fill="#fff"
            d="M116.752 124.492h38.742a1.543 1.543 0 0 1 1.073.52 1.554 1.554 0 0 1 .391 1.129v16.549c.025.415-.116.822-.39 1.134a1.564 1.564 0 0 1-1.074.527h-38.691a1.564 1.564 0 0 1-1.065-.532 1.576 1.576 0 0 1-.386-1.129v-16.614a1.562 1.562 0 0 1 1.4-1.584Z" />
        <path fill="#0B1B32" d="M137.516 175.221h-2.953l.128-50.793h2.941l-.116 50.793Z" />
        <path fill="#0B1B32"
            d="M131.866 125.355c-2.799 0-5.509-.399-7.473-2.769a5.445 5.445 0 0 1-1.002-4.726 3.864 3.864 0 0 1 2.568-2.859c2.209-.657 4.276.579 5.984 3.593 1.117 1.97 3.056 4.417 4.418 5.061a.878.878 0 0 1 .398 1.082.732.732 0 0 1-.668.515h-2.132c-.693 0-1.387.103-2.093.103Zm-4.764-8.86c-.257 0-.512.039-.757.115a2.28 2.28 0 0 0-1.554 1.713 3.638 3.638 0 0 0 .655 3.13c1.99 2.395 5.136 2.305 8.372 2.202a21.566 21.566 0 0 1-3.082-4.16c-1.13-1.996-2.35-3-3.634-3Z" />
        <path fill="#0B1B32"
            d="M140.328 125.355h-4.224a.783.783 0 0 1-.732-.824.85.85 0 0 1 .449-.773c1.374-.644 3.3-3.091 4.418-5.061 1.707-3.014 3.775-4.263 5.996-3.581a3.856 3.856 0 0 1 2.569 2.847 5.446 5.446 0 0 1-.989 4.726c-1.978 2.37-4.687 2.769-7.487 2.769v-.103Zm-1.951-1.7c3.287.103 6.42.193 8.372-2.202a3.602 3.602 0 0 0 .655-3.13 2.241 2.241 0 0 0-1.528-1.713c-1.584-.48-3.056.481-4.418 2.885a21.02 21.02 0 0 1-3.081 4.16Z" />
        <path fill="#FFBB1C" d="M103.962 186.695h49.246v32.467h-49.246v-32.467Z" />
        <path fill="#FFBB1C"
            d="M103.628 175.697h49.914a1.584 1.584 0 0 1 1.464 1.674v9.222a1.573 1.573 0 0 1-1.464 1.661h-49.914a1.567 1.567 0 0 1-1.464-1.661v-9.222a1.588 1.588 0 0 1 .389-1.138 1.578 1.578 0 0 1 1.075-.536Z" />
        <path fill="#F4A403"
            d="M109.728 177.204a5.16 5.16 0 0 1-1.275 3.727 5.129 5.129 0 0 1-3.528 1.734 4.38 4.38 0 0 1-2.465-.76v-6.208h7.088c.131.491.191.999.18 1.507ZM137.709 178.209a4.867 4.867 0 0 1-1.174 3.83 4.837 4.837 0 0 1-1.644 1.218 4.834 4.834 0 0 1-3.996 0 4.858 4.858 0 0 1-2.641-3.006 4.867 4.867 0 0 1-.176-2.042 5.968 5.968 0 0 1 .539-2.576h8.552c.37.807.554 1.687.54 2.576ZM147.212 175.697h7.794v6.44a4.456 4.456 0 0 1-3.098 2.146 4.443 4.443 0 0 1-3.631-1 5.962 5.962 0 0 1-1.065-7.586Z" />
        <path fill="#00E6B3" d="M155.083 175.697h-.077v-.116l.077.116Z" />
        <path fill="#F4A403"
            d="M114.543 206.954c2.66 0 4.816-2.444 4.816-5.46s-2.156-5.461-4.816-5.461c-2.659 0-4.815 2.445-4.815 5.461 0 3.016 2.156 5.46 4.815 5.46ZM109.728 215.57a5.835 5.835 0 0 1-1.066 3.439h-4.7v-8.796a4.861 4.861 0 0 1 5.067 2.391c.329.58.536 1.221.609 1.884.062.358.092.72.09 1.082ZM125.304 219.008h-9.348a4.84 4.84 0 0 1 2.042-3.28 4.803 4.803 0 0 1 3.788-.725 5.129 5.129 0 0 1 2.317 1.51 5.16 5.16 0 0 1 1.201 2.495ZM149.138 215.57a5.851 5.851 0 0 1-1.079 3.438h-7.474a5.997 5.997 0 0 1 .707-7.727 4.449 4.449 0 0 1 6.78.811 5.929 5.929 0 0 1 1.066 3.439v.039ZM153.221 192.272v9.878a4.406 4.406 0 0 1-2.067.528 5.492 5.492 0 0 1-3.426-1.826 5.527 5.527 0 0 1 0-7.281 5.489 5.489 0 0 1 3.426-1.827 4.406 4.406 0 0 1 2.067.528ZM130.017 210.084c3.163 0 5.727-2.912 5.727-6.504 0-3.592-2.564-6.504-5.727-6.504-3.163 0-5.727 2.912-5.727 6.504 0 3.592 2.564 6.504 5.727 6.504ZM144.322 189.142a4.865 4.865 0 0 1-2.8 5.093 4.837 4.837 0 0 1-4.018 0 4.862 4.862 0 0 1-2.641-3.037 4.878 4.878 0 0 1-.159-2.056 6.723 6.723 0 0 1 0-.875h9.502c.026.291.026.584 0 .875h.116ZM123.25 187.455c.013.211.013.421 0 .632h-9.567a5.126 5.126 0 0 1 0-.632 4.858 4.858 0 0 1 2.828-4.988 4.832 4.832 0 0 1 5.596 1.2 4.868 4.868 0 0 1 1.194 3.788h-.051ZM108.148 191.254a5.268 5.268 0 0 1-1.094 3.483 5.233 5.233 0 0 1-3.092 1.926v-8.396h3.403c.521.908.791 1.939.783 2.987Z" />
        <path fill="#0B1B32"
            d="M153.208 220h-49.246a.78.78 0 0 1-.692-.532.79.79 0 0 1-.04-.305v-30.909a.784.784 0 0 1 .732-.824.782.782 0 0 1 .732.824v30.072h47.782v-30.072a.782.782 0 0 1 .732-.824.782.782 0 0 1 .732.824v30.909a.79.79 0 0 1-.192.571.783.783 0 0 1-.54.266ZM123.815 176.535c-3.146 0-6.177-.438-8.386-3.091a6.036 6.036 0 0 1-1.104-5.229 4.171 4.171 0 0 1 2.851-3.142c2.453-.747 4.764.631 6.664 3.992 1.285 2.241 3.468 5.023 5.034 5.757a.848.848 0 0 1 .385 1.082.708.708 0 0 1-.667.515c-.796 0-1.618 0-2.414.064-.797.065-1.58 0-2.363 0v.052Zm-5.381-9.994c-.3.003-.599.051-.886.142a2.565 2.565 0 0 0-1.81 2.009 4.207 4.207 0 0 0 .757 3.619c2.299 2.756 5.869 2.64 9.644 2.498h.103a23.03 23.03 0 0 1-3.634-4.842c-1.284-2.28-2.697-3.426-4.174-3.426Z" />
        <path fill="#142664"
            d="M133.356 176.534h-2.363c-.783 0-1.605-.064-2.401-.064a.787.787 0 0 1-.732-.825.835.835 0 0 1 .115-.45.841.841 0 0 1 .334-.322c1.567-.734 3.762-3.516 5.021-5.757 1.913-3.361 4.225-4.739 6.677-3.993a4.168 4.168 0 0 1 2.838 3.143 6.042 6.042 0 0 1-1.104 5.229c-2.196 2.601-5.239 3.039-8.385 3.039Zm-2.427-1.726h.115c3.775.142 7.333.258 9.631-2.498a4.214 4.214 0 0 0 .771-3.619 2.656 2.656 0 0 0-1.811-2.009c-1.811-.554-3.518.554-5.136 3.284a23.043 23.043 0 0 1-3.635 4.842h.065Z" />
        <path fill="#0B1B32"
            d="M153.542 189.091h-49.914a2.358 2.358 0 0 1-1.609-.797 2.376 2.376 0 0 1-.587-1.701v-9.221a2.377 2.377 0 0 1 .587-1.702 2.358 2.358 0 0 1 1.609-.797h49.914a2.374 2.374 0 0 1 1.614.796c.413.468.627 1.079.595 1.703v9.221a2.386 2.386 0 0 1-.595 1.702 2.374 2.374 0 0 1-1.614.796Zm-49.914-12.557a.798.798 0 0 0-.732.838v9.221a.801.801 0 0 0 .732.837h49.914a.798.798 0 0 0 .54-.266.79.79 0 0 0 .192-.571v-9.221a.787.787 0 0 0-.732-.838h-49.914Z" />
        <path fill="#0B1B32" d="M130.004 219.163h-2.966l.128-43.079h2.967l-.129 43.079Z" />
        <path fill="#00E6B3" d="M155.083 175.697h-.077v-.116l.077.116Z" />
        <path fill="#00E6B3" d="M155.083 175.697h-.077v-.116l.077.116Z" />
    </g>
    <defs>
        <clipPath id="a">
            <path fill="#fff" d="M40 44h135v176H40z" />
        </clipPath>
    </defs>
</svg>