<svg xmlns="http://www.w3.org/2000/svg" width="228" height="216" fill="none">
    <path fill="#fff" fill-opacity=".3"
        d="M63.12 214.571c-70.02-2.734-78.615-91.467-41.385-146.624C53.221 21.276 71.96 1.49 106.378.061c58.166-2.407 103.949 66.458 116.414 125.491 18.166 85.877-7.903 94.893-159.673 89.019Z" />
    <path fill="#FFB300"
        d="M79.574 41.243a26.95 26.95 0 0 1 7.918-19.077 27.06 27.06 0 0 1 19.115-7.902c7.17 0 14.046 2.843 19.115 7.902a26.95 26.95 0 0 1 7.918 19.077" />
    <path fill="#0B1B32"
        d="M133.929 41.243h-.588a26.663 26.663 0 0 0-8.025-18.514 26.771 26.771 0 0 0-18.714-7.623 26.773 26.773 0 0 0-18.714 7.623 26.665 26.665 0 0 0-8.025 18.514h-.588a27.25 27.25 0 0 1 8.2-18.925 27.361 27.361 0 0 1 19.127-7.793 27.362 27.362 0 0 1 19.128 7.793 27.25 27.25 0 0 1 8.199 18.925Z" />
    <path fill="#FFB300" d="M133.699 41.38H79.541v53.97h54.158V41.38Z" />
    <path fill="#0B1B32"
        d="M133.998 95.58H79.275V41.023h54.723V95.58Zm-54.158-.587h53.548V41.61H79.863l-.023 53.382Z" />
    <path fill="#0B1B32" d="M133.802 67.83H79.379v.587h54.423v-.587Z" />
    <path fill="#0B1B32"
        d="M106.931 41.254h-.587V95.43h.587V41.254ZM175.941 172.787l-51.841 2.186.186 4.412 51.842-2.186-.187-4.412ZM177.049 163.577l-49.561-15.237 1.302-4.22 49.503 16.249-1.244 3.208Z" />
    <path fill="#FFB300" stroke="#0B1B32" stroke-miterlimit="10" stroke-width=".5"
        d="M144.024 164.428c0 .288-.081.564-.127.84a19.329 19.329 0 0 1-1.901 5.681 19.163 19.163 0 0 1-6.775 7.317 19.22 19.22 0 0 1-12.538 2.802 18.735 18.735 0 0 1-2.927-.598 19.15 19.15 0 0 1-8.562-5.148 19.1 19.1 0 0 1-4.793-8.755 13.4 13.4 0 0 1-.207-1.023 17.925 17.925 0 0 1-.3-2.519 19.079 19.079 0 0 1 0-2.415c0-.276 0-.552.081-.828a19.068 19.068 0 0 1 6.069-11.761 19.145 19.145 0 0 1 12.276-4.994c.996-.037 1.994.005 2.984.127 2.238.277 4.41.943 6.418 1.966a18.912 18.912 0 0 1 3.457 2.3 19.141 19.141 0 0 1 5.596 7.633 19.1 19.1 0 0 1 1.249 9.375Z" />
    <path fill="#0B1B32"
        d="M141.097 164.118c0 .23-.058.471-.104.701a15.396 15.396 0 0 1-1.302 4.163c-.092.219-.196.426-.3.633a15.406 15.406 0 0 1-.945 1.575c-.252.401-.529.785-.829 1.15a16.246 16.246 0 0 1-5.376 4.301 16.283 16.283 0 0 1-6.677 1.691c-.843.03-1.687-.009-2.524-.116a14.862 14.862 0 0 1-2.489-.505 16.234 16.234 0 0 1-5.936-3.149 16.195 16.195 0 0 1-4.147-5.281 15.293 15.293 0 0 1-1.152-3.346c0-.092 0-.196-.081-.299-.08-.104 0 0 0 0a15.539 15.539 0 0 1-.311-4.692v-.702a15.92 15.92 0 0 1 1.89-5.75.092.092 0 0 1 0-.057c.265-.425.473-.782.611-1.012l.138-.207a.266.266 0 0 0 0-.069 16.25 16.25 0 0 1 12.906-7.118c.842-.029 1.686.006 2.523.103.842.107 1.675.28 2.489.518.986.286 1.939.671 2.847 1.15a16.177 16.177 0 0 1 6.959 6.781 16.135 16.135 0 0 1 1.81 9.537Z" />
    <path fill="#260E38"
        d="M141.097 164.118c0 .23-.057.471-.103.701a15.396 15.396 0 0 1-1.302 4.163l-6.396-3.691s3.353-.288 4.967-4.6c1.613-4.312-5.612-12.65-5.923-12.96a16.178 16.178 0 0 1 6.974 6.812 16.126 16.126 0 0 1 1.783 9.575ZM114.397 165.291c-2.651 1.15-4.218 1-5.22.322a15.541 15.541 0 0 1-.311-4.692v-.702a15.918 15.918 0 0 1 1.889-5.75.092.092 0 0 1 0-.057c.266-.426.473-.782.611-1.012l.138-.207c-2.189 3.45-1.336 10.649-1.152 10.729.184.081 6.58-1.15 6.626-2.07.046-.92 2.443-2.944 2.443-2.944 1.544 3.554.392 4.071-5.024 6.383ZM138.447 171.202c-.252.4-.529.784-.83 1.15a16.24 16.24 0 0 1-5.375 4.3 16.276 16.276 0 0 1-6.678 1.691c-.843.03-1.687-.008-2.524-.115a14.986 14.986 0 0 1-2.489-.506 16.24 16.24 0 0 1-5.936-3.148 16.179 16.179 0 0 1-4.146-5.281l1.82-.345c1.222 4.979 14.9 7.831 18.437 6.9 3.538-.932-1.786-7.878-2.039-8.223.311.058 7.063 2.553 9.76 3.577Z"
        opacity=".5" />
    <path fill="#FFB300" stroke="#0B1B32" stroke-miterlimit="10" stroke-width=".5"
        d="m129.367 143.66-3.066 24.874a5.708 5.708 0 0 1-1.083.126 7.46 7.46 0 0 1-1.014 0 7.119 7.119 0 0 1-.991-.207 6.358 6.358 0 0 1-1.014-.391l3.065-24.874a9.725 9.725 0 0 1 2.075 0 9.07 9.07 0 0 1 2.028.472Z" />
    <path fill="#FFB300" stroke="#0B1B32" stroke-miterlimit="10" stroke-width=".5"
        d="m126.761 164.888-1.705.472-15.349 4.278a16.532 16.532 0 0 1-1.267-3.531 3.299 3.299 0 0 1-.092-.368l17.169-4.784h.081a8.87 8.87 0 0 1 .76 1.875c.21.669.346 1.359.403 2.058Z" />
    <path fill="#FFB300" stroke="#0B1B32" stroke-miterlimit="10" stroke-width=".5"
        d="M140.462 169.362a16.49 16.49 0 0 1-.322.655 17.385 17.385 0 0 1-1.879 2.841l-13.205-7.498-1.533-.874c.192-.663.463-1.3.807-1.898a9.03 9.03 0 0 1 1.152-1.633h.069l14.911 8.407Z" />
    <path fill="#FFB300" stroke="#0B1B32" stroke-miterlimit="10" stroke-width=".5"
        d="M131.428 162.991v.287a6.627 6.627 0 0 1-.645 1.921 6.463 6.463 0 0 1-4.437 3.335 5.718 5.718 0 0 1-1.083.126 7.46 7.46 0 0 1-1.014 0 7.119 7.119 0 0 1-.991-.207 6.358 6.358 0 0 1-1.014-.391 6.398 6.398 0 0 1-3.653-6.325 2.747 2.747 0 0 1 0-.287 6.46 6.46 0 0 1 1.673-3.589 6.48 6.48 0 0 1 3.455-1.942 6.589 6.589 0 0 1 1.083-.138 7.299 7.299 0 0 1 1.003 0c.335.044.666.113.991.207.347.1.686.227 1.014.379a6.435 6.435 0 0 1 3.618 6.624Z" />
    <path fill="#0B1B32"
        d="M128.674 162.657a.722.722 0 0 1 0 .161c-.064.4-.189.788-.369 1.15a3.654 3.654 0 0 1-2.535 1.898 3.589 3.589 0 0 1-.61.08 3.27 3.27 0 0 1-.577 0 3.018 3.018 0 0 1-.564-.115 3.217 3.217 0 0 1-.588-.218 3.688 3.688 0 0 1-1.993-2.461 3.428 3.428 0 0 1-.093-1.15.722.722 0 0 1 0-.161 3.685 3.685 0 0 1 2.927-3.163c.201-.044.405-.071.611-.08.192-.012.384-.012.576 0 .192.02.381.059.565.115a3.696 3.696 0 0 1 2.209 1.751c.371.668.526 1.434.441 2.193Z" />
    <path fill="#fff" stroke="#0B1B32" stroke-miterlimit="10" stroke-width=".5"
        d="m140.544 144.212-32.403 47.08-.576.839-.426.61-1.947 2.84-5.393.012 2.397-3.462 10.451-15.156 24.371-35.316 3.526 2.553Z" />
    <path fill="#0B1B32"
        d="M196.476 133.08a2.174 2.174 0 0 1-2.178 2.185h-10.97l-16.95 24.023-1.095 1.575-3.56-2.507 2.638-3.749 16.709-23.689h13.217a2.204 2.204 0 0 1 2.178 2.162h.011Z" />
    <path fill="#fff" stroke="#0B1B32" stroke-miterlimit="10" stroke-width=".5"
        d="M209.393 192.43h-8.977l-.507-.391-63.976-48.816-.057-.058-9.576-7.256a9.843 9.843 0 0 1-3.844-6.325 9.825 9.825 0 0 1 1.655-7.21l.357-.483 1.659-2.082 1.061-1.334 7.847-9.855 4.885 3.864-2.719 3.45-6.222 7.808a6.168 6.168 0 0 0 1.152 8.809l70.544 54.762 6.718 5.117Z" />
    <path fill="#FFB300" stroke="#0B1B32" stroke-miterlimit="10" stroke-width=".5"
        d="M161.826 104.963a7.067 7.067 0 0 1-2.428 4.331 7.1 7.1 0 0 1-4.682 1.672h-4.782v-1.863h4.794a5.223 5.223 0 0 0 3.502-1.267 5.203 5.203 0 0 0 1.764-3.275 5.063 5.063 0 0 0-1.286-3.89 5.074 5.074 0 0 0-3.75-1.665h-12.675a3.808 3.808 0 0 1-3.457-2.22l-.518-1.15-.173-.39-2.374-5.21a.932.932 0 0 1 1.357-1.173.91.91 0 0 1 .337.403l.277.586 2.777 6.095a2.074 2.074 0 0 0 1.889 1.219h12.676a6.928 6.928 0 0 1 5.128 2.387 6.89 6.89 0 0 1 1.624 5.41Z" />
    <path fill="#0B1B32"
        d="M152.493 110.253c0 .915-.364 1.792-1.012 2.439a3.461 3.461 0 0 1-2.445 1.011h-30.731a5.57 5.57 0 0 1-4.99-3.082l-6.084-12.144a2.145 2.145 0 0 1-.15-.333v-.115a5.543 5.543 0 0 1 .573-5.173 5.567 5.567 0 0 1 4.613-2.429h12.675v6.831H114.26l4.828 9.614h29.96c.394-.001.786.073 1.152.219a3.447 3.447 0 0 1 2.293 3.162Z" />
    <path fill="#260E38"
        d="M152.492 110.253c0 .915-.364 1.792-1.012 2.439a3.463 3.463 0 0 1-2.445 1.011h-30.732a5.569 5.569 0 0 1-4.989-3.082l-6.084-12.144a1.701 1.701 0 0 1-.15-.333c.784 1.46 7.548 13.132 21.894 13.799 15.348.702 21.225-4.853 21.225-4.853a3.455 3.455 0 0 1 2.293 3.163Z"
        opacity=".5" />
    <path fill="#0B1B32"
        d="M209.394 192.43h-8.976l-1.152-.908c1.849.208 3.72.095 5.531-.334 2.304-.736-1.602-3.542-2.005-3.898l6.602 5.14ZM102.195 192.12h5.324l4.92-7.084s-4.955 6.992-10.244 7.084Z" />
    <path fill="#FFB300" stroke="#0B1B32" stroke-miterlimit="10" stroke-width=".5"
        d="m182.925 169.373-.069.426a9.31 9.31 0 0 1-.968 2.875 9.688 9.688 0 0 1-3.428 3.712 9.715 9.715 0 0 1-4.834 1.486c-.504.01-1.008-.013-1.51-.069a10.132 10.132 0 0 1-1.474-.299 9.761 9.761 0 0 1-4.332-2.617 9.665 9.665 0 0 1-2.674-7.446v-.425a9.66 9.66 0 0 1 3.078-5.958 9.702 9.702 0 0 1 6.221-2.529 8.367 8.367 0 0 1 1.509.069c.499.057.993.157 1.475.299.81.223 1.585.556 2.305.989a9.69 9.69 0 0 1 3.764 4.046 9.658 9.658 0 0 1 .937 5.441Z" />
    <path fill="#0B1B32"
        d="M180.782 169.109v.333a7.834 7.834 0 0 1-.599 1.944c0 .092-.093.195-.15.287a7.146 7.146 0 0 1-.818 1.254 7.538 7.538 0 0 1-5.601 2.783 6.828 6.828 0 0 1-1.152-.058 7.468 7.468 0 0 1-6.395-5.704.866.866 0 0 1 0-.161 7.257 7.257 0 0 1-.138-2.185 2.882 2.882 0 0 1 0-.322 7.514 7.514 0 0 1 2.394-4.624 7.544 7.544 0 0 1 4.831-1.965 6.715 6.715 0 0 1 1.152 0c.389.048.774.125 1.152.23a7.555 7.555 0 0 1 4.168 3.119 7.534 7.534 0 0 1 1.156 5.069Z" />
    <path fill="#ED8D18"
        d="M177.74 168.741v.195a4.337 4.337 0 0 1-.357 1.15l-.081.173a4.701 4.701 0 0 1-.496.747 4.449 4.449 0 0 1-3.318 1.645c-.23.017-.461.017-.692 0a6.256 6.256 0 0 1-.691-.138 4.472 4.472 0 0 1-2.777-2.3 3.688 3.688 0 0 1-.334-.92.284.284 0 0 1 0-.092 4.402 4.402 0 0 1-.092-1.3v-.195a4.453 4.453 0 0 1 1.42-2.744 4.476 4.476 0 0 1 2.866-1.166 4.75 4.75 0 0 1 1.383.172 4.474 4.474 0 0 1 3.169 4.773Z" />
    <path fill="#0B1B32"
        d="M173.385 167.154h-.161a.748.748 0 0 0-.749.747v14.915c0 .413.335.748.749.748h.161a.748.748 0 0 0 .749-.748v-14.915a.748.748 0 0 0-.749-.747Z" />
    <path fill="#FFB300" stroke="#0B1B32" stroke-miterlimit="10" stroke-width=".5"
        d="M178.189 181.896h-9.771v2.093h9.771v-2.093ZM129.63 103.48l-1.821.402-2.108.483-3.814-16.905-2.305-10.096 3.941-.886.207.943 5.9 26.059Z" />
    <path fill="#FAF4DD"
        d="M123.744 77.375a11.72 11.72 0 0 0-1.89.104c-.761.103-1.464.345-1.406.816.104 1.012 1.348 8.625 1.429 9.096l-2.305-10.096 3.941-.886.231.966ZM138.078 95.223l-2.373-5.21a.914.914 0 0 1-.03-.717.937.937 0 0 1 .49-.525.927.927 0 0 1 .392-.08.91.91 0 0 1 .841.552l.277.586s-1.037-.943-1.337 0c-.299.943 1.222 4.21 1.74 5.394ZM135.864 143.165l-9.564-7.256a9.843 9.843 0 0 1-3.844-6.325 9.825 9.825 0 0 1 1.655-7.21s-1.498 6.164.253 9.119c1.752 2.955 10.671 10.925 11.5 11.672Z"
        opacity=".3" />
    <path fill="#0B1B32" d="M184.827 119.66h-3.86v13.11h3.86v-13.11Z" />
    <path fill="#051A33" d="M184.827 119.66v4.37s-1.74-.782-3.86 1.219v-5.589h3.86Z" />
    <path fill="#FFB300" stroke="#0B1B32" stroke-miterlimit="10" stroke-width=".5"
        d="M193.319 121.592a12.46 12.46 0 0 1-8.838-.092 33.685 33.685 0 0 0-14.726-2.208 2.43 2.43 0 0 1-2.662-2.496 2.301 2.301 0 0 1 1.302-2.07 2.497 2.497 0 0 1 1.153-.276h8.757s8.412.161 13.828-2.219a3.542 3.542 0 0 1 3.687.494c.133.091.257.195.369.311 2.189 2.07 2.558 6.474-2.87 8.556Z" />
    <path fill="#0B1B32"
        d="M112.058 196.628H95.453c.01-.813.24-1.609.668-2.3.182-.314.407-.6.669-.851a4.614 4.614 0 0 1 3.215-1.334h7.559a4.61 4.61 0 0 1 4.494 4.485Z" />
    <path fill="#0B1B32"
        d="M102.194 192.12a15.406 15.406 0 0 0-4.46 1.644c-1.428 1.15-.472 1.691-.887 2.898h-1.394c.01-.813.24-1.608.668-2.3.182-.313.407-.6.669-.851a4.614 4.614 0 0 1 3.215-1.334l2.189-.057ZM212.989 196.628h-16.604c.009-.813.24-1.609.668-2.3.186-.311.41-.597.668-.851a4.615 4.615 0 0 1 3.215-1.334h7.559a4.614 4.614 0 0 1 3.146 1.346 4.593 4.593 0 0 1 1.348 3.139Z" />
    <path fill="#FFB300"
        d="M177.418 91.98s-1.867-1.3-3.065-.782a12.943 12.943 0 0 0-3.112 2.852 9.104 9.104 0 0 0-2.039 3.208c-.189.912-.278 1.841-.265 2.772 0 0 1.671.414 2.419-.748a3.198 3.198 0 0 0 .254-2.518l1.994-1.564s1.313-.932 1.463-.828c.15.103 1.671 1.265 1.671 1.265a4.601 4.601 0 0 0 1.152-1.783 3.127 3.127 0 0 0-.472-1.874Z" />
    <path fill="#fff"
        d="M174.374 91.14a12.673 12.673 0 0 0-3.065 2.91 9.199 9.199 0 0 0-2.051 3.208c-.202.91-.31 1.84-.322 2.772.235.045.474.068.714.069l-.058-.058c.045-1.034.207-2.06.484-3.059a19.566 19.566 0 0 1 4.114-5.405 3.562 3.562 0 0 1 1.291-.552 2.011 2.011 0 0 0-1.107.115Z" />
    <path fill="#FFB300"
        d="M175.298 78.41s-6.407-1.15-9.081-.276c-.195.115-1.843.575-1.302 3.726.542 3.151 3.884 4.692 3.884 4.692a32.31 32.31 0 0 1 6.326 2.495c1.659 1.15 2.304 2.036 2.304 2.875 0 0 1.233 1.84-1.29 4.37 0 0-3.538 3.174-3.618 6.475-.081 3.3.207 3.197.207 3.197s2.109-.127 2.305-1.622c.195-1.495-.519-1.552-.369-2.058a4.378 4.378 0 0 1 1.383-2.105 8.428 8.428 0 0 1 1.716-.747 15.988 15.988 0 0 1-.748 4.209 4.226 4.226 0 0 0-1.913 3.599c0 2.484 2.304 4.358 2.8 4.807l-2.547 1.046s-2.304-1.426-3.388-.816c-1.083.609-2.016 1.368-1.728 2.3.288.931 2.973.644 2.973.644l2.904-.069h4.551s4.506.517 5.393-.575c2.667.515 5.428.222 7.928-.84 4.459-1.759 6.591-3.599 7.847-6.899 1.256-3.301 1.74-8.58-1.625-9.97-3.364-1.392-6.038 3.116-4.77 5.059 1.267 1.944 2.304 1.449 2.304 1.449s-.91 4.105-2.731 6.06a14.207 14.207 0 0 1-3.814 2.898l-.334-5.105s-.979-7.015-1.532-9.43-2.386-9.568-4.01-12.351a14.119 14.119 0 0 0-10.025-7.038Z" />
    <path fill="#fff"
        d="M188.109 93.532a6.38 6.38 0 0 1-.495 4.06c-1.014 1.736-3.008 3.45-1.832 4.013.818.414 2.028-1.276 2.754-.586.726.69-1.026 5.14.449 5.669.841.322 1.602-.264 1.867 2.058a60.432 60.432 0 0 0-.83-7.336c-.703-3.795-1.913-7.878-1.913-7.878ZM180.702 103.031a4.272 4.272 0 0 0-3.331.506l-.288-.126-.103.218a4.09 4.09 0 0 0-1.418 1.553 4.227 4.227 0 0 0-.495 2.047 5.738 5.738 0 0 0 1.625 3.656l.334.127a6.214 6.214 0 0 1-.911-4.197c.45-2.979 4.587-3.784 4.587-3.784ZM177.003 95.223c-.263.375-.556.73-.876 1.058 0 0-3.526 3.174-3.618 6.463-.093 2.748.126 3.139.196 3.197.818-.127.553-1.334.426-2.657a6.42 6.42 0 0 1 1.509-4.117c.945-1.288 2.535-3.07 3.158-3.818.622-.747 0-2.047 0-2.047a3.616 3.616 0 0 1-.795 1.92ZM201.201 97.362a3.245 3.245 0 0 0-1.014-.644c-3.365-1.392-6.038 3.128-4.77 5.071a3.71 3.71 0 0 0 1.371 1.357h.104a3.994 3.994 0 0 1 .126-3.875 4.055 4.055 0 0 1 4.183-1.91ZM175.298 78.41s-6.407-1.15-9.081-.276c-.195.115-.345.736-.276.736a40.408 40.408 0 0 1 10.912.782l5.554 2.139a13.454 13.454 0 0 0-7.109-3.38Z" />
    <path fill="#0B1B32"
        d="M179.041 77.973a.378.378 0 0 1-.357-.23 1.447 1.447 0 0 0-1.319-.979 1.458 1.458 0 0 0-.571.094h-.149a.325.325 0 0 1-.15 0 .355.355 0 0 1-.127-.092.282.282 0 0 1-.092-.138.388.388 0 0 1 0-.3.449.449 0 0 1 .219-.218 2.31 2.31 0 0 1 2.915 1.288.451.451 0 0 1 0 .3.448.448 0 0 1-.196.24.543.543 0 0 1-.196 0l.023.035ZM169.006 84.275h.288c.096.012.192.012.288 0a2.312 2.312 0 0 0 1.083-.127c.17-.059.324-.157.45-.287a.228.228 0 0 1 .149 0 .387.387 0 0 1 .139.069.226.226 0 0 1 0 .126.205.205 0 0 1 0 .115 1.493 1.493 0 0 1-.553.449c-.214.103-.444.17-.68.195a3.36 3.36 0 0 1-.68 0h-.323a1.02 1.02 0 0 1-.311-.114.103.103 0 0 1-.069 0 .266.266 0 0 1 0-.07.217.217 0 0 1 0-.08v-.08a.206.206 0 0 1 .092-.104.23.23 0 0 1 .127 0v-.092Z" />
    <path fill="#0B1B32"
        d="M202.548 99.305a4.03 4.03 0 0 0-2.5-2.725 3.96 3.96 0 0 0-4.54 2.024 3.28 3.28 0 0 0 .219 4.048c.478.48 1.102.791 1.774.885a17.405 17.405 0 0 1-1.279 3.599 9.206 9.206 0 0 1-4.805 4.807 71.951 71.951 0 0 0-1.786-13.972 57.547 57.547 0 0 0-4.102-12.65 23.296 23.296 0 0 0-2.581-4.358l1.325-1.495s.334 3.749 1.152 4.117c.818.368 2.189-.322 1.993-3.174-.195-2.852-1.013-3.83-1.244-4.07a2.899 2.899 0 0 0-1.89-.116c-.461.161-2.028 3.082-2.304 3.703a3.45 3.45 0 0 0-.323-.241c.657-1.15 2.224-3.98 2.051-6.532-.104-1.46-2.016-2.404-2.961-.07a11.975 11.975 0 0 0-.427 6.096 70.386 70.386 0 0 0-6.752-1.23 24.042 24.042 0 0 0-6.557-.173 2.44 2.44 0 0 0-.138-.92 2.302 2.302 0 0 0-.484-.794 1.937 1.937 0 0 0-.68-.54 1.872 1.872 0 0 0-.83-.196 1.778 1.778 0 0 0-1.336.713 1.969 1.969 0 0 0-.45 1.07c-.045.395.027.795.208 1.15.146.3.369.558.645.747.268.197.581.324.91.368a4.807 4.807 0 0 0 .07 3.209 7.47 7.47 0 0 0 1.797 2.805 7.313 7.313 0 0 0 2.858 1.702c4.148 1.3 6.718 2.3 7.582 4.405a1.103 1.103 0 0 0 0 .115c-.261-.16-.534-.3-.818-.414a2.957 2.957 0 0 0-2.65.057c-1.429.817-3.815 4.163-4.391 5.313a11.186 11.186 0 0 0-.587 3.531.204.204 0 0 0 0 .115c.025.032.056.06.092.08.265.082.54.125.818.127a2.39 2.39 0 0 0 1.728-.713 3.446 3.446 0 0 0 .415-2.783 27.303 27.303 0 0 1 2.167-1.714l.449-.299c.164-.123.353-.21.553-.253a.196.196 0 0 1 .115 0h.069c.454.288.875.623 1.256 1l-.207.23c-1.406 1.565-4.033 4.509-3.906 6.832.016 1.08.093 2.159.23 3.231a.247.247 0 0 0 .069.115.248.248 0 0 0 .127 0 2.712 2.712 0 0 0 2.385-1.506 2.129 2.129 0 0 0-.161-1.852 1.618 1.618 0 0 1-.138-.46 3.838 3.838 0 0 1 1.694-2.173l1.002-.437a14.994 14.994 0 0 1-.703 3.783 4.43 4.43 0 0 0-1.509 5.589 7.185 7.185 0 0 0 2.062 2.76c-.403 0-.979.057-1.221 0a1.142 1.142 0 0 1-.507-.265 1.998 1.998 0 0 0-1.152-.483 1.919 1.919 0 0 0-.899.23c-.267.16-.492.381-.657.644-.346-.059-.7-.04-1.037.058a3.067 3.067 0 0 0-1.971 2.104.689.689 0 0 0 0 .426.662.662 0 0 0 .231.356 8.434 8.434 0 0 0 3.457.426c1.383 0 2.673-.069 2.708-.069 1.152-.069 2.904 0 4.609 0h3.814c.501-.04.973-.252 1.337-.598a13.391 13.391 0 0 0 4.194.08c.311-.013.619-.055.922-.126.964-.183 1.911-.44 2.835-.771a14.128 14.128 0 0 0 6.764-4.818 11.798 11.798 0 0 0 1.797-9.66Zm-27.217-4.956c-.334-.265-.922-.656-1.222-.495a.335.335 0 0 0-.161.196.352.352 0 0 0 0 .264.528.528 0 0 1-.23.552c-.219.138-.45.322-.738.54-.783.599-1.532 1.243-1.532 1.266a.204.204 0 0 0 0 .092.153.153 0 0 0 0 .103s.437 1.76-.288 2.507a2.067 2.067 0 0 1-.922.53 1.951 1.951 0 0 1-1.06 0 10.33 10.33 0 0 1 .541-3.21c.588-1.15 2.915-4.404 4.241-5.151a2.503 2.503 0 0 1 2.304 0 5.6 5.6 0 0 1 1.153.655 2.695 2.695 0 0 1-.508 2.956l-.172.218c-.442-.377-.912-.719-1.406-1.023Zm25.166 14.466a13.712 13.712 0 0 1-6.58 4.669c-1.12.403-2.278.692-3.456.863h-.231a3.33 3.33 0 0 1-2.961-1.15 2.423 2.423 0 0 0-1.671-1.254.204.204 0 0 0-.138 0 .156.156 0 0 0-.053.061.17.17 0 0 0-.017.077.24.24 0 0 0 0 .15 1.743 1.743 0 0 1 .577 1.725 1.582 1.582 0 0 1-1.36.862c-.68.069-2.178 0-3.757 0-1.578 0-3.456-.069-4.609 0-2.466.161-5.404.104-5.842-.264a.637.637 0 0 1-.104-.196.472.472 0 0 1 0-.218 2.73 2.73 0 0 1 .641-1.094 2.757 2.757 0 0 1 1.065-.689 3.002 3.002 0 0 1 2.304.575c.181.124.379.22.588.288.553.115 5.116 0 5.623 0h.185v-.161h-.127a5.78 5.78 0 0 1-1.498-.506l-.565-.322a6.905 6.905 0 0 1-2.765-3.174 4.059 4.059 0 0 1 .322-4.048c1.775-2.495 4.921-1.713 6.2-1.265h.138a.196.196 0 0 0 .196-.195.174.174 0 0 0 0-.127.197.197 0 0 0-.115-.069 8.184 8.184 0 0 0-2.731-.494 5.221 5.221 0 0 0-2.213.46c.091-.31.164-.625.219-.943a6.85 6.85 0 0 0 4.402-2.956 4.128 4.128 0 0 0 .622-2.035c.056-.103.102-.211.139-.322a8.95 8.95 0 0 0 .875-3.91.192.192 0 0 0-.069-.127.16.16 0 0 0-.138 0 .16.16 0 0 0-.138.07.193.193 0 0 0 0 .137 9.466 9.466 0 0 1-1.153 4.336l-.576.966a8.098 8.098 0 0 1 0-.909.193.193 0 0 0 0-.138.16.16 0 0 0-.115-.08.184.184 0 0 0-.138 0 .163.163 0 0 0-.093.103 6.818 6.818 0 0 1-1.152 1.61l.069-.39c.029-.091.052-.183.069-.277a.153.153 0 0 0 .013-.063.153.153 0 0 0-.013-.063.206.206 0 0 0-.092-.104.195.195 0 0 0-.138 0 .262.262 0 0 0-.115.08 6.585 6.585 0 0 1-2.167 1.15l-.184.07c-.403.16-.795.322-1.095.471a4.357 4.357 0 0 0-1.913 2.438c-.011.248.044.494.162.713a1.876 1.876 0 0 1 .161 1.553 2.231 2.231 0 0 1-1.867 1.23c0-.322-.115-1.15-.195-3.001-.116-2.151 2.442-5.003 3.814-6.544.276-.333.53-.586.668-.782.611-.77 1.291-1.656.288-4.105-1.002-2.45-3.584-3.29-7.836-4.6a6.9 6.9 0 0 1-4.401-4.266 4.236 4.236 0 0 1 0-3.06c.347-.05.678-.18.968-.379.298-.186.531-.459.668-.782 2.2-.276 4.428-.23 6.614.138.496.08 1.003.127 1.475.219-.3 1.012-1.383 5.6 2.466 8.05a7.596 7.596 0 0 0 8.181-.07 58.568 58.568 0 0 1 3.596 11.5 69.024 69.024 0 0 1 1.763 14.156.237.237 0 0 0 0 .092l.057.069a.249.249 0 0 0 .127 0h.058a8.965 8.965 0 0 0 5.093-4.669s.103-.195.23-.448a7.963 7.963 0 0 1 2.616-2.967c1.36-.874 1.267-1.863 1.267-1.897h-.219c-.393.32-.842.566-1.325.724a2.665 2.665 0 0 1-2.823-.655 2.898 2.898 0 0 1-.138-3.554 3.572 3.572 0 0 1 4.079-1.828 3.711 3.711 0 0 1 2.305 2.507 11.482 11.482 0 0 1-2.017 9.038Z" />
    <path fill="#0B1B32"
        d="M166.066 80.1a.227.227 0 0 0 .128-.038.227.227 0 0 0 .098-.236.229.229 0 0 0-.314-.168.228.228 0 0 0-.142.213.23.23 0 0 0 .23.23ZM165.48 80.78a.253.253 0 1 0 0-.507.253.253 0 0 0 0 .506ZM166.182 81.343a.173.173 0 0 0 .173-.172.184.184 0 0 0-.173-.184.18.18 0 0 0-.13.053.18.18 0 0 0-.054.13.186.186 0 0 0 .184.172ZM168.267 80.906a.253.253 0 1 0 0-.506.253.253 0 0 0 0 .506ZM167.529 79.882a.248.248 0 0 0 .097-.015.25.25 0 0 0 .082-.052.24.24 0 0 0 .056-.272.259.259 0 0 0-.235-.156.243.243 0 0 0-.242.254.243.243 0 0 0 .242.241ZM166.966 80.653a.255.255 0 0 0 .18-.432.255.255 0 0 0-.359 0 .255.255 0 0 0 0 .358.255.255 0 0 0 .179.074ZM167.369 81.757a.23.23 0 1 0 0-.461.23.23 0 0 0 0 .46ZM168.221 82.216a.21.21 0 0 0 .154-.056.21.21 0 0 0 .065-.15.214.214 0 0 0 0-.098.209.209 0 0 0-.042-.088.22.22 0 0 0-.385.088.214.214 0 0 0 .001.097.206.206 0 0 0 .207.207ZM166.217 82.435a.232.232 0 0 0 .213-.142.232.232 0 0 0-.05-.25.233.233 0 0 0-.251-.05.233.233 0 0 0-.143.212.231.231 0 0 0 .231.23ZM169.408 80.17a.23.23 0 0 0 .163-.393.23.23 0 0 0-.326.325.23.23 0 0 0 .163.068ZM169.121 81.745a.224.224 0 0 0 .167-.071.227.227 0 0 0 .064-.17.231.231 0 0 0-.461 0 .22.22 0 0 0 .014.091.24.24 0 0 0 .049.079.231.231 0 0 0 .167.071Z" />
    <path fill="#fff"
        d="M178.868 83.803a1.787 1.787 0 0 0 1.752-2.13 1.78 1.78 0 0 0-1.403-1.4 1.789 1.789 0 0 0-2.002 2.432 1.77 1.77 0 0 0 1.653 1.099Z" />
    <path fill="#0B1B32"
        d="M177.371 80.871c-.211.272-.335.6-.357.943.257.126.543.186.829.173.287-.012.568-.09.818-.23.25-.148.459-.353.611-.599.161-.238.253-.517.265-.804a1.673 1.673 0 0 0-1.152-.15 1.75 1.75 0 0 0-.991.667h-.023Z" />
    <path fill="#fff"
        d="M164.581 76.444c.323-.219.495-.53.38-.69-.115-.161-.461-.115-.783.103-.323.219-.496.54-.392.702.104.16.472.115.795-.115Z" />
    <path fill="#FB3"
        d="M56.286 171.869c20.352 0 36.85-3.862 36.85-8.625 0-4.764-16.498-8.625-36.85-8.625s-36.85 3.861-36.85 8.625c0 4.763 16.498 8.625 36.85 8.625Z" />
    <path fill="#FFB300" stroke="#0B1B32" stroke-miterlimit="10" stroke-width=".5"
        d="M89.865 130.768v1.15a37.167 37.167 0 0 1-7.378 20.311 37.286 37.286 0 0 1-17.44 12.797 37.355 37.355 0 0 1-21.627.971 37.3 37.3 0 0 1-18.522-11.183 36.489 36.489 0 0 1-6.913-10.878l-.45-1.15a37.636 37.636 0 0 1-1.855-7.084 35.303 35.303 0 0 1-.15-1.093 37.117 37.117 0 0 1 .23-11.143 37.183 37.183 0 0 1 8.255-17.602 37.29 37.29 0 0 1 16.021-11.048 37.36 37.36 0 0 1 19.417-1.482 37.316 37.316 0 0 1 17.518 8.49 37.623 37.623 0 0 1 6.441 7.256 36.764 36.764 0 0 1 5.612 13.351c.08.357.15.725.207 1.081 0 .173.058.334.093.506.378 2.23.559 4.489.541 6.75Z" />
    <path fill="#FAF4DD"
        d="M83.24 109.045c-.864-.575-48.397-32.199-67.64 14.387a37.191 37.191 0 0 1 9.885-19.405c5.16-5.34 11.8-9.02 19.07-10.565a37.36 37.36 0 0 1 21.73 1.888 37.277 37.277 0 0 1 16.955 13.695Z"
        opacity=".3" />
    <path fill="#fff"
        d="M89.865 130.769v1.15a150.495 150.495 0 0 1-36.977 10.97 129.56 129.56 0 0 1-34.776 1.001c-.15-.38-.3-.759-.438-1.15 11.834 1.518 39.49 2.541 72.191-11.971ZM89.312 123.489a150.288 150.288 0 0 1-37.772 11.327 127.672 127.672 0 0 1-35.79.874 25.828 25.828 0 0 1-.15-1.15c11.523 1.518 39.858 2.898 73.505-12.178.08.403.15.771.207 1.127Z" />
    <path fill="#E26100"
        d="M89.427 123.984c.352 2.243.507 4.514.461 6.784v1.15a37.168 37.168 0 0 1-7.378 20.323 37.286 37.286 0 0 1-17.45 12.802 37.36 37.36 0 0 1-21.638.962 37.302 37.302 0 0 1-18.524-11.202c52.027 16.341 52.13-53.014 52.13-53.014a36.921 36.921 0 0 1 12.054 20.619c.08.357.15.725.207 1.081.058.173.138.334.138.495Z"
        opacity=".09" />
    <path fill="#F0D7B4"
        d="M70.99 206c5.588 0 10.118-.613 10.118-1.369 0-.755-4.53-1.368-10.118-1.368-5.587 0-10.117.613-10.117 1.368 0 .756 4.53 1.369 10.117 1.369Z"
        opacity=".49" />
    <path fill="#FFB300" stroke="#0B1B32" stroke-miterlimit="10" stroke-width=".5"
        d="M71.233 187.922a9.084 9.084 0 0 1-4.73-2.319 9.058 9.058 0 0 1-2.643-4.552 9.043 9.043 0 0 1 .336-5.249 9.069 9.069 0 0 1 3.2-4.179 9.095 9.095 0 0 1 10.083-.348 9.046 9.046 0 0 1 4.183 9.161 9.072 9.072 0 0 1-3.663 5.896 9.109 9.109 0 0 1-6.766 1.59Zm2.627-16.042a7.202 7.202 0 0 0-7.285 3.308 7.178 7.178 0 0 0 3.6 10.517 7.216 7.216 0 0 0 7.79-1.832 7.179 7.179 0 0 0 1.841-3.748 7.186 7.186 0 0 0-1.267-5.347 7.216 7.216 0 0 0-4.679-2.898Z" />
    <path fill="#FFB300" stroke="#0B1B32" stroke-miterlimit="10" stroke-width=".5"
        d="M83.85 191.062a13.178 13.178 0 0 1-3.971 9.934 13.245 13.245 0 0 1-19.562-1.173 13.193 13.193 0 0 1-2.751-10.337 13.366 13.366 0 0 1 1.152-3.68 13.226 13.226 0 0 1 5.04-5.493 13.254 13.254 0 0 1 7.217-1.9c2.538.07 5.002.867 7.1 2.296a13.223 13.223 0 0 1 4.726 5.764 12.873 12.873 0 0 1 1.049 4.589Z" />
    <path fill="#FAF4DD"
        d="M82.826 186.473s-13.598-11.706-24.072-.667a13.226 13.226 0 0 1 5.04-5.493 13.254 13.254 0 0 1 7.216-1.9c2.539.07 5.003.867 7.1 2.296a13.223 13.223 0 0 1 4.727 5.764h-.011Z"
        opacity=".3" />
    <path fill="#260E38"
        d="M83.665 193.741a13.2 13.2 0 0 1-3.375 6.859 13.262 13.262 0 0 1-20.374-1.201 23.189 23.189 0 0 0 13.199-.616 23.147 23.147 0 0 0 10.711-7.721c.038.896-.016 1.794-.161 2.679Z"
        opacity=".08" />
</svg>