<svg xmlns="http://www.w3.org/2000/svg" width="252" height="239" fill="none">
    <g clip-path="url(#a)">
        <path fill="#fff" fill-opacity=".3"
            d="M69.817 237.42c-77.453-3.023-87-101.207-45.79-162.23C58.85 23.543 79.582 1.648 117.656.068c64.333-2.657 114.976 73.54 128.758 138.858 20.113 95.023-8.745 104.997-176.596 98.493Z" />
        <path fill="#FFB300"
            d="M68.064 128.804c.31.931.831 1.778 1.523 2.474 0 0 2.13-1.581 2.29-1.752.16-.172 2.014 1.145 2.014 1.145l2.77 2.175a4.344 4.344 0 0 0 .344 3.436c1.03 1.615 3.354 1.042 3.354 1.042a18.704 18.704 0 0 0-.504-3.905 12.601 12.601 0 0 0-2.827-4.455s-2.587-3.309-4.247-4.03c-1.66-.722-4.236 1.088-4.236 1.088a4.407 4.407 0 0 0-.48 2.782Z" />
        <path fill="#fff"
            d="M71.316 124.842a5.218 5.218 0 0 1 1.775.767 27.376 27.376 0 0 1 5.723 7.501c.382 1.386.604 2.812.664 4.248l-.08.08c.331.001.661-.034.985-.103a18.72 18.72 0 0 0-.493-3.905 12.598 12.598 0 0 0-2.827-4.454s-2.587-3.31-4.247-4.031c-.48-.175-1-.211-1.5-.103Z" />
        <path fill="#FFB300"
            d="M57.682 116.906c-2.289 3.859-4.773 13.742-5.54 17.177-.767 3.436-2.118 13.078-2.118 13.078l-.47 7.077a19.655 19.655 0 0 1-5.276-4.008c-2.519-2.726-3.778-8.406-3.778-8.406s1.454.664 3.205-2.004c1.752-2.668-1.946-8.955-6.605-7.031-4.659 1.924-3.96 9.161-2.29 13.822 1.672 4.661 4.694 7.18 10.853 9.63a18.975 18.975 0 0 0 10.966 1.146c1.237 1.511 7.475.79 7.475.79l4.282.08h2.003l4.018.103s3.72.366 4.11-.893c.389-1.26-.94-2.29-2.393-3.172-1.454-.882-4.682 1.145-4.682 1.145l-3.526-1.466c.744-.618 3.847-3.206 3.87-6.653a5.867 5.867 0 0 0-.676-2.84 5.81 5.81 0 0 0-1.957-2.153c-.767-1.385-1.042-5.84-1.042-5.84.824.264 1.618.614 2.37 1.042a6.104 6.104 0 0 1 1.923 2.92c.194.687-.767.79-.516 2.84.252 2.05 3.16 2.29 3.16 2.29s.435.126.286-4.431c-.149-4.558-5.002-8.978-5.002-8.978-3.492-3.504-1.798-6.058-1.798-6.058 0-1.145.893-2.37 3.183-3.985 2.29-1.615 8.746-3.435 8.746-3.435s4.578-2.13 5.38-6.505c.801-4.374-1.534-5.015-1.809-5.164-3.686-1.237-12.592.366-12.592.366a19.54 19.54 0 0 0-13.76 9.516Z" />
        <path fill="#fff"
            d="M51.158 139.202a84.296 84.296 0 0 0-1.144 10.169c.377-3.218 1.43-2.405 2.598-2.852 2.038-.733-.4-6.87.607-7.855 1.007-.985 2.69 1.385 3.823.813 1.626-.813-1.144-3.172-2.541-5.566a8.978 8.978 0 0 1-.687-5.645s-1.694 5.68-2.656 10.936ZM70.377 146.703a8.443 8.443 0 0 1-1.259 5.817l.47-.172a7.914 7.914 0 0 0 2.289-5.073 5.869 5.869 0 0 0-.676-2.84 5.81 5.81 0 0 0-1.957-2.153l-.149-.297-.39.171a5.867 5.867 0 0 0-4.578-.687s5.632 1.168 6.25 5.234ZM67.94 127.957s-.79 1.809.08 2.851 3.056 3.516 4.361 5.291a8.968 8.968 0 0 1 2.095 5.725c-.171 1.832-.55 3.516.584 3.688.092-.081.39-.619.263-4.432-.126-4.581-5.002-8.978-5.002-8.978a11.28 11.28 0 0 1-1.202-1.454 4.983 4.983 0 0 1-1.18-2.691ZM41.495 136.167a5.582 5.582 0 0 1 .172 5.371l.149.08a5.311 5.311 0 0 0 1.889-1.889c1.751-2.691-1.946-8.944-6.605-7.02-.517.208-.991.511-1.397.893a5.62 5.62 0 0 1 5.792 2.565ZM71.51 107.31a18.714 18.714 0 0 0-9.832 4.695l7.692-2.966a55.481 55.481 0 0 1 15.088-1.145c.091 0-.103-.859-.367-1.008-3.697-1.236-12.591.367-12.591.367l.01.057Z" />
        <path fill="#0B1B32"
            d="M66.337 106.715a.56.56 0 0 1-.538-.39.538.538 0 0 1 0-.423 3.193 3.193 0 0 1 4.018-1.787c.139.055.25.162.31.298a.597.597 0 0 1 0 .424.509.509 0 0 1-.115.183.455.455 0 0 1-.172.126.78.78 0 0 1-.217.057.499.499 0 0 1-.218 0 2.02 2.02 0 0 0-1.564.072 2.024 2.024 0 0 0-1.046 1.165.633.633 0 0 1-.194.229.572.572 0 0 1-.298.091l.034-.045ZM80.211 115.418h.08a.512.512 0 0 1 .184 0 .33.33 0 0 1 .114.137.514.514 0 0 1 0 .115.389.389 0 0 1 0 .114.282.282 0 0 1-.069.092h-.091c-.14.073-.29.123-.447.148l-.446.069a4.208 4.208 0 0 1-.939 0 2.941 2.941 0 0 1-.927-.263 2.13 2.13 0 0 1-.767-.619.342.342 0 0 1 0-.183.343.343 0 0 1 0-.172.285.285 0 0 1 .195-.08.249.249 0 0 1 .195.058c.173.177.385.314.617.4.234.082.476.139.722.172.262.029.527.029.79 0 .129.012.26.012.389 0 .13.012.26.012.389 0l.011.012Z" />
        <path fill="#0B1B32"
            d="M36.196 149.771a19.632 19.632 0 0 0 9.375 6.677c1.271.469 2.581.826 3.915 1.065.422.09.85.148 1.282.171a19.81 19.81 0 0 0 2.61.172 18.274 18.274 0 0 0 3.251-.298 2.918 2.918 0 0 0 1.854.836c.962.103 3.057.081 5.266 0 2.21-.08 4.762-.091 6.365 0 0 0 1.82.103 3.743.103 1.923 0 4.144-.126 4.74-.595a1.035 1.035 0 0 0 .32-1.088 4.29 4.29 0 0 0-2.736-2.92 3.027 3.027 0 0 0-1.431-.069 2.638 2.638 0 0 0-.916-.893 2.585 2.585 0 0 0-1.225-.321 2.805 2.805 0 0 0-1.625.665c-.195.18-.43.309-.687.377h-1.706a9.831 9.831 0 0 0 2.862-3.824 6.234 6.234 0 0 0-.492-6.161 6.009 6.009 0 0 0-1.603-1.58 20.785 20.785 0 0 1-.961-5.245l1.385.595a5.373 5.373 0 0 1 2.29 3.012 1.734 1.734 0 0 1-.195.641 3.005 3.005 0 0 0-.218 2.577 3.746 3.746 0 0 0 3.297 2.073.229.229 0 0 0 .172-.069.232.232 0 0 0 .103-.149c.201-1.484.308-2.98.32-4.477.172-3.218-3.434-7.295-5.403-9.471l-.286-.32c.53-.522 1.113-.986 1.74-1.386l.092-.057h.148c.275.066.535.183.767.343l.619.424c.79.538 1.82 1.363 3.01 2.371-.126.618-.504 2.748.561 3.859.325.325.715.579 1.145.744.41.169.85.255 1.293.252.388-.01.772-.067 1.145-.172a.596.596 0 0 0 .126-.114.266.266 0 0 0 0-.161 15.327 15.327 0 0 0-.813-4.901c-.79-1.58-4.086-6.229-6.067-7.363a4.147 4.147 0 0 0-3.674-.08 8.736 8.736 0 0 0-1.145.572.375.375 0 0 0 .08-.148c1.145-3.001 4.75-4.306 10.497-6.115a9.903 9.903 0 0 0 3.95-2.371 10.046 10.046 0 0 0 2.484-3.882 6.574 6.574 0 0 0 .103-4.454 2.797 2.797 0 0 0 1.259-.493c.373-.271.676-.629.881-1.042a2.817 2.817 0 0 0-.32-3.069 2.466 2.466 0 0 0-1.843-.985 2.63 2.63 0 0 0-1.145.275 2.653 2.653 0 0 0-.927.744c-.306.329-.536.72-.676 1.146-.144.407-.21.839-.194 1.271-3.02-.335-6.07-.25-9.067.252-3.141.401-6.26.971-9.34 1.706a16.496 16.496 0 0 0-.596-8.463c-1.305-3.24-3.938-1.935-4.086.103-.252 3.527 1.923 7.512 2.827 9.047l-.446.343c-.435-.858-2.61-4.924-3.251-5.141a3.875 3.875 0 0 0-2.61.172c-.32.32-1.454 1.66-1.729 5.645-.275 3.985 1.58 4.913 2.759 4.397 1.179-.515 1.66-5.725 1.66-5.725l1.82 2.084a32.473 32.473 0 0 0-3.572 6.035 80.178 80.178 0 0 0-5.723 17.532c-2.29 11.371-2.462 17.749-2.462 19.364-3.377-1.214-5.471-4.26-6.65-6.653a23.592 23.592 0 0 1-1.775-4.993 4.408 4.408 0 0 0 2.462-1.237c1.362-1.317 1.476-3.561.297-5.622a5.474 5.474 0 0 0-6.285-2.795 5.606 5.606 0 0 0-3.525 3.859c-1.19 3.882-.183 9.574 2.53 13.398Zm33.403-18.917-.24-.298a3.746 3.746 0 0 1-.699-4.099 7.821 7.821 0 0 1 1.626-.916 3.431 3.431 0 0 1 3.182 0c1.831 1.03 5.06 5.565 5.872 7.145.477 1.437.724 2.941.733 4.455-.48.126-.985.126-1.465 0a2.797 2.797 0 0 1-1.27-.733c-1.008-1.042-.39-3.436-.39-3.493a.274.274 0 0 0 0-.137.237.237 0 0 0-.08-.126s-1.03-.916-2.118-1.764c-.39-.297-.71-.538-1.007-.744a.698.698 0 0 1-.32-.756.662.662 0 0 0 0-.366.613.613 0 0 0-.218-.287c-.424-.217-1.237.321-1.706.699-.687.424-1.341.898-1.957 1.42h.057Zm-35.327 5.726a5.129 5.129 0 0 1 3.16-3.436 4.944 4.944 0 0 1 5.643 2.542c.893 1.535 1.145 3.642-.194 4.924a3.693 3.693 0 0 1-3.892.917 5.737 5.737 0 0 1-1.855-1.02h-.206s-.126 1.432 1.752 2.646a10.735 10.735 0 0 1 3.617 4.111c.183.343.298.584.32.607 1.81 3.366 4.225 5.622 7.052 6.481h.08a.313.313 0 0 0 .172 0 .252.252 0 0 0 .08-.103.196.196 0 0 0 0-.115c-.092-2.21.275-9.161 2.45-19.639a80.075 80.075 0 0 1 4.98-16.031 10.479 10.479 0 0 0 11.31.103c5.322-3.344 3.823-9.7 3.433-11.108.664-.126 1.363-.195 2.05-.298a31.62 31.62 0 0 1 9.157-.194c.188.454.517.835.939 1.087.395.278.85.459 1.328.527a5.901 5.901 0 0 1 0 4.249 9.828 9.828 0 0 1-2.37 3.664 9.682 9.682 0 0 1-3.72 2.29c-5.896 1.855-9.547 3.218-10.852 6.436-1.305 3.218-.435 4.58.4 5.726.195.274.538.618.94 1.087 1.888 2.13 5.414 6.093 5.265 9.081-.115 2.623-.218 3.711-.263 4.157a3.073 3.073 0 0 1-2.588-1.706 2.603 2.603 0 0 1 .218-2.153c.17-.299.245-.642.218-.985a5.919 5.919 0 0 0-2.633-3.435 21.02 21.02 0 0 0-1.523-.641l-.252-.103h-.08a9.318 9.318 0 0 1-3.25-1.627.246.246 0 0 0-.161-.114.208.208 0 0 0-.092-.022.208.208 0 0 0-.091.022.317.317 0 0 0-.138.137.254.254 0 0 0 0 .184c0 .126.07.251.092.366l.103.55a9.424 9.424 0 0 1-1.534-2.233.288.288 0 0 0-.126-.138.295.295 0 0 0-.194 0 .325.325 0 0 0-.16.115.251.251 0 0 0-.058.183c.029.419.029.84 0 1.26v.057l-.79-1.34a13.193 13.193 0 0 1-1.545-6.012.312.312 0 0 0-.069-.195.3.3 0 0 0-.183-.103c-.07 0-.14.025-.195.069a.3.3 0 0 0-.103.183 12.52 12.52 0 0 0 1.214 5.417c.055.153.12.302.194.446.036.998.332 1.969.859 2.817a9.416 9.416 0 0 0 6.067 4.077c.08.435.183.87.298 1.306a7.05 7.05 0 0 0-3.057-.642c-1.285.01-2.56.242-3.766.687h-.08a.335.335 0 0 0-.16.092.308.308 0 0 0-.04.278.237.237 0 0 0 .063.088.226.226 0 0 0 .183.081.448.448 0 0 0 .206 0c1.774-.619 6.113-1.707 8.574 1.752a5.655 5.655 0 0 1 .446 5.611 9.62 9.62 0 0 1-3.812 4.489l-.79.446a7.732 7.732 0 0 1-2.072.687h-.091v.241h.114c.722 0 7.029.172 7.796 0 .288-.09.562-.221.813-.39a4.182 4.182 0 0 1 3.16-.79 3.762 3.762 0 0 1 2.357 2.474c.029.097.029.2 0 .298a.805.805 0 0 1-.126.263c-.618.527-4.693.595-8.093.378-1.625-.103-4.04-.057-6.41 0-2.187 0-4.259.069-5.197 0a2.18 2.18 0 0 1-1.878-1.145 2.488 2.488 0 0 1 .79-2.405.31.31 0 0 0 .069-.195.284.284 0 0 0-.092-.194.25.25 0 0 0-.194-.081 3.366 3.366 0 0 0-2.29 1.741 4.58 4.58 0 0 1-4.087 1.626h-.32a23.773 23.773 0 0 1-4.785-1.145 19.028 19.028 0 0 1-9.09-6.482c-2.666-3.675-3.65-9.138-2.472-12.802l.057-.034Z" />
        <path fill="#0B1B32"
            d="M84.606 109.337a.334.334 0 0 0-.32-.321.321.321 0 0 0-.32.321.312.312 0 0 0 .09.23.312.312 0 0 0 .23.091.321.321 0 0 0 .32-.321ZM85.42 110.253a.345.345 0 0 0-.213-.317.346.346 0 0 0-.374.074.343.343 0 0 0 .243.587.34.34 0 0 0 .32-.211.328.328 0 0 0 .023-.133ZM84.377 111.146a.239.239 0 0 0-.146-.232.238.238 0 0 0-.094-.02.253.253 0 0 0-.252.252.24.24 0 0 0 .156.226c.03.011.063.016.096.015a.241.241 0 0 0 .24-.241ZM81.597 110.425a.343.343 0 1 0-.343.343.32.32 0 0 0 .133-.023.324.324 0 0 0 .21-.32ZM82.603 109.016a.33.33 0 0 0-.344-.343.345.345 0 0 0-.343.343.343.343 0 0 0 .343.344.337.337 0 0 0 .247-.097.334.334 0 0 0 .097-.247ZM83.394 110.081a.345.345 0 0 0-.212-.317.346.346 0 0 0-.374.074.347.347 0 0 0-.075.375.343.343 0 0 0 .317.212.337.337 0 0 0 .247-.097.332.332 0 0 0 .097-.247ZM82.809 111.639a.321.321 0 1 0-.641 0 .319.319 0 0 0 .32.32.319.319 0 0 0 .32-.32ZM81.595 112.303a.3.3 0 0 0-.297-.298.297.297 0 0 0-.21.508.298.298 0 0 0 .21.088.287.287 0 0 0 .297-.298ZM84.412 112.578a.321.321 0 1 0-.642 0 .321.321 0 0 0 .642 0ZM79.993 109.429a.312.312 0 0 0-.196-.3.311.311 0 0 0-.125-.021.321.321 0 0 0-.32.321.33.33 0 0 0 .32.32.321.321 0 0 0 .32-.32ZM80.393 111.616a.321.321 0 0 0-.32-.321.316.316 0 0 0-.3.196.312.312 0 0 0-.02.125c0 .085.033.166.093.227a.32.32 0 0 0 .227.093.33.33 0 0 0 .32-.32Z" />
        <path fill="#fff" d="M69.05 112.326a2.475 2.475 0 0 0-1.528-2.287 2.473 2.473 0 1 0 1.529 2.287Z" />
        <path fill="#0B1B32"
            d="M68.661 110.723a2.377 2.377 0 0 0-3.01-.722c.021.407.147.801.366 1.145.21.337.502.616.847.813.345.21.74.325 1.144.332.396.011.788-.072 1.145-.24a2.474 2.474 0 0 0-.492-1.317v-.011Z" />
        <path fill="#fff"
            d="M87.435 104.756c.16-.229-.08-.664-.527-.973-.446-.309-.939-.378-1.145-.16-.206.217.08.664.527.973.446.309.996.378 1.145.16Z" />
        <path fill="#FFB300"
            d="M95.894 56.226c0-8.33 3.309-16.32 9.197-22.211a31.393 31.393 0 0 1 44.406 0 31.415 31.415 0 0 1 9.197 22.21" />
        <path fill="#0B1B32"
            d="M159.037 56.226h-.687c0-8.24-3.272-16.142-9.096-21.968a31.05 31.05 0 0 0-43.92 0 31.072 31.072 0 0 0-9.096 21.968h-.687a31.76 31.76 0 0 1 9.297-22.454 31.738 31.738 0 0 1 44.892 0 31.76 31.76 0 0 1 9.297 22.454Z" />
        <path fill="#FFB300" d="M158.763 56.317H95.894v62.834h62.869V56.317Z" />
        <path fill="#0B1B32"
            d="M159.106 119.494H95.551v-63.52h63.555v63.52Zm-62.868-.675h62.193V56.661H96.238v62.158Z" />
        <path fill="#0B1B32" d="M158.877 87.225H95.723v.675h63.211l-.057-.675Z" />
        <path fill="#0B1B32" d="M127.671 56.237h-.687v63.108h.687V56.237Z" />
        <path fill="#FFB300" d="M64.39 164.189v14.886h3.435v-14.886" />
        <path fill="#0B1B32"
            d="M67.872 179.385h-3.434a.234.234 0 0 1-.184-.081.23.23 0 0 1-.068-.171v-14.887a.227.227 0 0 1 .068-.172.275.275 0 0 1 .183-.08.261.261 0 0 1 .225.159.225.225 0 0 1 .016.093v14.692h2.988v-14.749a.225.225 0 0 1 .068-.172.27.27 0 0 1 .184-.08.235.235 0 0 1 .171.08.225.225 0 0 1 .069.172v14.886a.227.227 0 0 1-.069.172.208.208 0 0 1-.171.08l-.046.058Z" />
        <path fill="#FFB300" d="M56.092 161.704c3.983.824 4.453 3.149 9.948 3.149 5.494 0 5.975-2.29 9.959-3.149" />
        <path fill="#0B1B32"
            d="M66.04 165.105a11.373 11.373 0 0 1-6.411-1.706 11.434 11.434 0 0 0-3.583-1.455h-.092l-.069-.069a.146.146 0 0 1 0-.091.16.16 0 0 1 0-.103v-.092h.264a12.2 12.2 0 0 1 3.72 1.512 12.467 12.467 0 0 0 12.352 0 12.082 12.082 0 0 1 3.72-1.512.25.25 0 0 1 .195 0c.05.037.086.089.103.149a.288.288 0 0 1 0 .195.263.263 0 0 1-.16.103c-1.27.277-2.48.768-3.584 1.454a11.446 11.446 0 0 1-6.456 1.615Z" />
        <path fill="#0B1B32"
            d="M84.789 157.387h-37.49a2.16 2.16 0 0 0-2.006 2.158 2.166 2.166 0 0 0 2.006 2.159h37.49a2.167 2.167 0 0 0 1.427-3.633 2.16 2.16 0 0 0-1.427-.684Z" />
        <path fill="#FFB300"
            d="M90.673 216.155H88.52a.662.662 0 0 1-.664-.665v-4.42a4.926 4.926 0 0 0-.492-2.13 4.787 4.787 0 0 0-1.374-1.717l-16.026-12.746a8.248 8.248 0 0 1-2.29-2.714 8.37 8.37 0 0 1-.927-3.435l3.434-.195a4.84 4.84 0 0 0 .538 1.993c.32.615.765 1.157 1.305 1.592l16.026 12.733a8.354 8.354 0 0 1 2.347 2.932 8.442 8.442 0 0 1 .836 3.653v4.42a.624.624 0 0 1-.195.47.667.667 0 0 1-.366.229ZM41.416 216.155h2.152a.664.664 0 0 0 .47-.195.622.622 0 0 0 .194-.47v-4.42a4.93 4.93 0 0 1 .492-2.13 4.787 4.787 0 0 1 1.374-1.717l16.026-12.746a8.392 8.392 0 0 0 3.16-6.115l-3.434-.194a4.83 4.83 0 0 1-.538 1.992 4.904 4.904 0 0 1-1.317 1.592L43.97 204.486a8.34 8.34 0 0 0-2.29 2.931 8.443 8.443 0 0 0-.835 3.653v4.42a.633.633 0 0 0 .194.47.663.663 0 0 0 .378.195Z" />
        <path fill="#0B1B32"
            d="M40.774 214.254h3.434v1.328a.667.667 0 0 1-.663.664h-2.153a.666.666 0 0 1-.664-.664l.046-1.328ZM90.675 216.407h-2.152a.924.924 0 0 1-.651-.265.91.91 0 0 1-.265-.652v-4.42a4.719 4.719 0 0 0-1.763-3.653l-16.026-12.745a8.482 8.482 0 0 1-2.29-2.794 8.701 8.701 0 0 1-.961-3.504.254.254 0 0 1 0-.092.207.207 0 0 1 0-.08l.068-.069h.103l3.435-.194h.183a.2.2 0 0 1 .057.08.215.215 0 0 1 0 .091c.043.659.218 1.301.515 1.89a4.817 4.817 0 0 0 1.248 1.511l16.026 12.746a8.616 8.616 0 0 1 2.415 3.011 8.72 8.72 0 0 1 .859 3.756v4.421a.92.92 0 0 1-.275.652.906.906 0 0 1-.526.31Zm-23.57-27.804a8.147 8.147 0 0 0 3.056 5.726l16.026 12.745a5.086 5.086 0 0 1 1.946 4.042v4.42a.436.436 0 0 0 .424.424h2.152a.383.383 0 0 0 .286-.126.417.417 0 0 0 .126-.298v-4.42a8.297 8.297 0 0 0-.801-3.55 8.159 8.159 0 0 0-2.29-2.828l-16.026-12.746a5.256 5.256 0 0 1-1.316-1.568 5.036 5.036 0 0 1-.607-1.947l-2.976.126Z" />
        <path fill="#0B1B32"
            d="M43.568 216.407h-2.152a.916.916 0 0 1-.916-.917v-4.42a8.668 8.668 0 0 1 3.274-6.779L59.8 191.557c.515-.413.94-.927 1.248-1.511a4.95 4.95 0 0 0 .515-1.89.124.124 0 0 1 0-.091.21.21 0 0 1 .057-.081.122.122 0 0 1 .08 0h.092l3.434.195h.092c.031.016.059.04.08.069a.207.207 0 0 1 0 .08v.092a8.712 8.712 0 0 1-.962 3.504 8.482 8.482 0 0 1-2.29 2.794l-16.025 12.745a4.58 4.58 0 0 0-1.763 3.653v4.42a.901.901 0 0 1-.264.653.931.931 0 0 1-.526.218Zm18.476-27.965a5.024 5.024 0 0 1-.607 1.947 5.27 5.27 0 0 1-1.316 1.569l-16.027 12.745a8.015 8.015 0 0 0-3.079 6.379v4.42a.46.46 0 0 0 .115.298.416.416 0 0 0 .297.126h2.152a.409.409 0 0 0 .298-.126.402.402 0 0 0 .114-.298v-4.42a5.155 5.155 0 0 1 1.958-4.043l16.026-12.745a8.071 8.071 0 0 0 2.118-2.531 8.431 8.431 0 0 0 .938-3.149l-2.987-.172Z" />
        <path fill="#FFB300"
            d="M64.391 184.778v30.712a.646.646 0 0 0 .183.473.642.642 0 0 0 .47.192h2.163c.176 0 .345-.07.47-.195a.622.622 0 0 0 .194-.47v-30.712" />
        <path fill="#0B1B32"
            d="M64.39 214.254h3.435v1.328a.666.666 0 0 1-.664.664h-2.118a.665.665 0 0 1-.47-.194.711.711 0 0 1-.182-.47v-1.328Z" />
        <path fill="#0B1B32"
            d="M67.207 216.407h-2.164a.908.908 0 0 1-.904-.917v-30.712a.23.23 0 0 1 .069-.172.28.28 0 0 1 .183-.08.266.266 0 0 1 .224.159c.012.03.017.061.016.093v30.712a.413.413 0 0 0 .126.298.413.413 0 0 0 .286.126h2.164a.383.383 0 0 0 .286-.126.408.408 0 0 0 .126-.298v-30.712a.23.23 0 0 1 .069-.172.28.28 0 0 1 .183-.08.237.237 0 0 1 .094.023c.03.013.056.033.077.057a.234.234 0 0 1 .069.172v30.712a.907.907 0 0 1-.904.917Z" />
        <path fill="#FFB300"
            d="M69.862 179.133h-7.635a.504.504 0 0 0-.493.503v9.952a.492.492 0 0 0 .493.492h7.635a.493.493 0 0 0 .492-.492v-9.963a.504.504 0 0 0-.492-.492Z" />
        <path fill="#0B1B32"
            d="M69.862 190.343h-7.635a.757.757 0 0 1-.527-.217.78.78 0 0 1-.218-.527v-9.963c0-.2.079-.393.218-.538a.757.757 0 0 1 .526-.217h7.636a.745.745 0 0 1 .69.467c.037.092.055.19.054.288v9.952a.745.745 0 0 1-.744.744v.011Zm-7.635-10.958a.213.213 0 0 0-.094.016.242.242 0 0 0-.078.052.276.276 0 0 0-.08.183v9.952a.26.26 0 0 0 .08.171.23.23 0 0 0 .172.069h7.635a.242.242 0 0 0 .222-.148.242.242 0 0 0 .018-.092v-9.963a.262.262 0 0 0-.069-.183.25.25 0 0 0-.171-.069l-7.635.012ZM64.39 167.12s2.153-1.42 3.435-.343v-2.027c-1.141.131-2.293.131-3.434 0v2.37Z" />
        <path fill="#0B1B32"
            d="M64.39 167.372a.236.236 0 0 1-.181-.07.245.245 0 0 1-.07-.182v-2.29a.33.33 0 0 1 0-.103.282.282 0 0 1 .069-.092.224.224 0 0 1 .103 0h.114c1.14.133 2.293.133 3.434 0h.195c.029.026.052.057.068.092a.215.215 0 0 1 0 .091v2.027a.41.41 0 0 1 0 .126.163.163 0 0 1-.04.058.163.163 0 0 1-.063.034.191.191 0 0 1-.137 0 .244.244 0 0 1-.126 0c-1.145-.951-3.17.343-3.194.366a.22.22 0 0 1-.091-.011.213.213 0 0 1-.08-.046Zm.241-2.29v1.603a3.58 3.58 0 0 1 2.988-.366v-1.306c-.992.114-1.993.133-2.988.057v.012Z" />
        <path fill="#fff"
            d="M61.736 180.953a22.564 22.564 0 0 1 8.62-.148c0-1.008.435-1.592-.905-1.672-1.34-.081-6.96 0-6.96 0s-1.007-.081-.847.916c.16.996.092.904.092.904Z" />
        <path fill="#0B1B32"
            d="M69.862 190.343h-7.635a.757.757 0 0 1-.527-.217.78.78 0 0 1-.218-.527v-9.963c0-.2.079-.393.218-.538a.757.757 0 0 1 .526-.217h7.636a.745.745 0 0 1 .69.467c.037.092.055.19.054.288v9.952a.745.745 0 0 1-.744.744v.011Zm-7.635-10.958a.213.213 0 0 0-.094.016.242.242 0 0 0-.078.052.276.276 0 0 0-.08.183v9.952a.26.26 0 0 0 .08.171.23.23 0 0 0 .172.069h7.635a.242.242 0 0 0 .222-.148.242.242 0 0 0 .018-.092v-9.963a.262.262 0 0 0-.069-.183.25.25 0 0 0-.171-.069l-7.635.012Z" />
        <path fill="#FFB300" d="M128.919 136.603h-4.579v66.268h4.579v-66.268Z" />
        <path fill="#0B1B32"
            d="M128.92 203.146h-4.579a.256.256 0 0 1-.109-.018.268.268 0 0 1-.155-.149.268.268 0 0 1-.022-.108v-66.268a.295.295 0 0 1 .08-.195.27.27 0 0 1 .206-.08h4.579a.226.226 0 0 1 .106.017.241.241 0 0 1 .088.063.256.256 0 0 1 .062.088.26.26 0 0 1 .019.107v66.268c.01.038.01.077 0 .115a.391.391 0 0 1-.058.091l-.091.058a.202.202 0 0 1-.126.011Zm-4.213-.55h3.938v-65.684h-3.926l-.012 65.684Z" />
        <path fill="#FFB300"
            d="M129.296 201.382h-5.369L95.126 212.17c-4.75 1.145 13.187 5.004 31.228 5.198 18.533.218 37.192-3.217 31.446-5.21l-28.504-10.776Z" />
        <path fill="#fff"
            d="M123.046 201.68s-17.308 7.936-16.679 10.123c.63 2.187 2.484 4.042 7.097 4.89-8.722-.55-19.46-2.909-19.15-4.249 2.06-.709 28.732-10.764 28.732-10.764Z" />
        <path fill="#0B1B32"
            d="M127.969 217.666h-1.614a154.784 154.784 0 0 1-21.956-1.843c-3.789-.619-10.165-1.833-10.303-3.104-.069-.549.687-.756.962-.824l28.767-10.764h5.563l28.515 10.775c.332.115 1.351.47 1.225 1.145-.275 1.523-6.754 2.668-10.6 3.207a150.586 150.586 0 0 1-20.605 1.374l.046.034Zm-33.323-5.004c.526 1.145 14.881 4.248 31.72 4.432 17.171.194 31.949-2.6 32.235-4.111 0-.092-.148-.31-.869-.55l-28.493-10.764h-5.277l-28.733 10.753a1.299 1.299 0 0 0-.583.24ZM124.34 138.641s3.113.527 4.453 5.416c.091-2.439.275-5.634.275-5.634l-4.728.218Z" />
        <path fill="#0B1B32"
            d="m128.609 201.543 21.075 14.234 6.811-1.523-26.89-12.849-.996.138ZM128.107 201.508l18.178 14.624-5.105.595-13.92-15.219h.847ZM170.747 134.427v-3.562h-24.726c-5.85-.286-12.432-.423-19.38-.423-6.949 0-13.542.137-19.392.423h-24.83v3.894h.081c.87 2.29 20.285 4.031 44.129 4.031 24.394 0 44.164-1.867 44.164-4.18a.335.335 0 0 0 0-.183h-.046Z" />
        <path fill="#0B1B32"
            d="M126.63 139.076c-20.307 0-42.434-1.42-44.3-4.054a.301.301 0 0 1-.138-.103.375.375 0 0 1 0-.16v-3.894a.335.335 0 0 1 .08-.206.32.32 0 0 1 .195-.08h24.829a430.225 430.225 0 0 1 19.38-.424c6.788 0 13.336.149 19.392.424h24.726a.263.263 0 0 1 .111.019.274.274 0 0 1 .175.267v3.516a.733.733 0 0 1 0 .229c0 .492 0 1.981-13.187 3.229-8.368.79-19.46 1.237-31.263 1.237Zm-43.923-4.455a.23.23 0 0 1 0 .092c.733 1.855 18.533 3.848 43.878 3.848 11.79 0 22.894-.436 31.205-1.226 12.329-1.145 12.672-2.53 12.672-2.679a.16.16 0 0 0 0-.069.363.363 0 0 1 0-.114v-3.287h-24.451a430.603 430.603 0 0 0-19.381-.424c-6.788 0-13.313.138-19.368.424H82.707v3.435Z" />
        <path fill="#FFB300"
            d="M126.63 135.343c24.394 0 44.163-1.867 44.163-4.18 0-2.313-19.769-4.18-44.163-4.18s-44.187 1.913-44.187 4.203 19.77 4.157 44.187 4.157Z" />
        <path fill="#0B1B32"
            d="M126.63 135.629c-11.802 0-22.895-.435-31.251-1.225-13.188-1.26-13.188-2.748-13.188-3.241 0-.492 0-1.981 13.188-3.241 8.345-.79 19.46-1.225 31.251-1.225 11.79 0 22.894.435 31.262 1.225 13.199 1.26 13.199 2.749 13.199 3.241 0 .493 0 1.981-13.187 3.241-8.38.79-19.484 1.225-31.274 1.225Zm0-8.371c-11.791 0-22.895.435-31.206 1.226-12.317 1.145-12.683 2.53-12.683 2.679 0 .149.366 1.512 12.683 2.68 8.346.79 19.461 1.225 31.206 1.225 11.745 0 22.894-.435 31.205-1.225 12.329-1.145 12.695-2.531 12.695-2.68 0-.149-.355-1.511-12.684-2.679-8.322-.733-19.449-1.226-31.216-1.226Z" />
        <path fill="#fff"
            d="M109.79 121.326a14.561 14.561 0 0 1-5.563 10.41 1.217 1.217 0 0 0-.47.962.78.78 0 0 1-.057.286.683.683 0 0 1-.16.24.748.748 0 0 1-.229.161.814.814 0 0 1-.275.057h-6.17a.743.743 0 0 1-.721-.733v-.149a1.146 1.146 0 0 0-.115-.527 1.145 1.145 0 0 0-.343-.423 14.57 14.57 0 0 1-5.186-10.306.988.988 0 0 1 0-.321.698.698 0 0 1 .172-.275c.074-.074.16-.135.252-.183a.96.96 0 0 1 .309-.057h17.755c.106 0 .212.024.309.068a.833.833 0 0 1 .263.184.867.867 0 0 1 .16.286c.046.1.07.21.069.32Z" />
        <path fill="#fff"
            d="M111.966 121.865a7.986 7.986 0 0 0-2.29.79c.097-.424.128-.861.092-1.294 0 0 .263-.996-1.042-.893-1.305.103-13.633.103-13.633.103a.945.945 0 0 0-1.063.543.95.95 0 0 0-.082.419 10.122 10.122 0 0 0 1.774 5.221 11.731 11.731 0 0 1 2.152 4.787c0 1.603.584 1.798.584 1.798l4.419.103s.881.286.973-.905c.091-1.191.664-.733 1.144-1.362.218-.287.882-.905 1.614-1.775 5.037 1.362 8.014-2.039 8.014-4.34 0-2.302-1.088-3.195-2.656-3.195Zm-3.515 6.367a5.314 5.314 0 0 1-.95-.081 10.717 10.717 0 0 0 1.431-2.794c.149-.435.264-.836.355-1.145a5.175 5.175 0 0 0 1.591-.527 4.106 4.106 0 0 1 1.088-.377c.469 0 1.145 0 1.145 1.797.034 1.237-1.626 3.127-4.66 3.127Z" />
        <path fill="#0B1B32"
            d="M111.966 121.567a4.457 4.457 0 0 0-1.751.527l-.206.091c0-.275.057-.561.068-.836.03-.147.03-.299 0-.446a1.021 1.021 0 0 0-.229-.39.957.957 0 0 0-.354-.252.958.958 0 0 0-.424-.091H91.258c-.146.003-.29.034-.423.091a1 1 0 0 0-.355.252.904.904 0 0 0-.23.378 1.15 1.15 0 0 0-.068.424 14.972 14.972 0 0 0 5.312 10.535.84.84 0 0 1 .252.309c.058.126.09.263.091.401v.149a1.014 1.014 0 0 0 .298.721.981.981 0 0 0 .71.31h6.192a.988.988 0 0 0 .699-.264 1.025 1.025 0 0 0 .297-.721.856.856 0 0 1 .103-.412.876.876 0 0 1 .264-.321 14.986 14.986 0 0 0 2.289-2.222h.263a8.637 8.637 0 0 0 1.798.207 6.68 6.68 0 0 0 3.605-1.02 5.1 5.1 0 0 0 2.439-3.939c.011-3.023-1.763-3.481-2.828-3.481Zm-8.929 11.577h-6.17a.417.417 0 0 1-.297-.137.417.417 0 0 1-.126-.298v-.366h7.097a1.247 1.247 0 0 0 0 .366.408.408 0 0 1-.126.298.385.385 0 0 1-.298.137h-.08Zm1.019-1.649a2.724 2.724 0 0 0-.252.252H96.18a1.325 1.325 0 0 0-.332-.378 14.242 14.242 0 0 1-5.07-10.088.402.402 0 0 1 0-.195.526.526 0 0 1 .263-.275.4.4 0 0 1 .194 0h17.755a.428.428 0 0 1 .195 0 .38.38 0 0 1 .16.115.44.44 0 0 1 .103.171.426.426 0 0 1 0 .207 14.246 14.246 0 0 1-5.438 10.191h.046Zm5.472-7.054a6.686 6.686 0 0 0 1.477-.527c.305-.155.628-.274.961-.355.412 0 .882 0 .882 1.501 0 1.03-1.466 2.874-4.396 2.874h-.458a14.885 14.885 0 0 0 1.545-3.436l-.011-.057Zm2.53 4.043a6.063 6.063 0 0 1-3.652.916 2.69 2.69 0 0 0 .607-.894c2.85-.217 4.418-2.118 4.418-3.435 0-1.844-.744-2.096-1.465-2.096a3.707 3.707 0 0 0-1.202.401l-.114.058a2.6 2.6 0 0 1 .938-1.214c.126-.012.253-.012.378 0 1.488 0 2.29.973 2.29 2.897a4.431 4.431 0 0 1-2.198 3.367Z" />
        <path fill="#0B1B32"
            d="M169.155 140.267H81.549a3.515 3.515 0 0 1 0-7.031h87.606a3.285 3.285 0 0 1 3.435 3.515 3.449 3.449 0 0 1-.978 2.482 3.446 3.446 0 0 1-2.457 1.034Z" />
        <path fill="#FFB300"
            d="M138.707 114.227a12.599 12.599 0 0 0-7.773-11.638 12.591 12.591 0 0 0-17.169 9.18 12.609 12.609 0 0 0 .717 7.278 12.592 12.592 0 0 0 24.225-4.82Z" />
        <path fill="#FFB300"
            d="M105.647 105.856a.732.732 0 0 1 0-.309.7.7 0 0 1 .08-.31l.573-1.053a.686.686 0 0 1 .297-.275.652.652 0 0 1 .389-.08c3.572.332 5.186 4.58 6.491 9.046l.126.447v.195c.034.122.08.241.137.355v.778c.041 1.544.371 3.067.973 4.489l.08.206.069.149c.176.367.359.722.55 1.065.091.161.194.309.297.47h-.481a6.558 6.558 0 0 1-2.094-.378c-5.163-1.729-5.175-8.417-5.175-11.268a9.509 9.509 0 0 0 0-1.145 2.288 2.288 0 0 0-.595-1.306 2.377 2.377 0 0 0-1.259-.721.649.649 0 0 1-.275-.149.613.613 0 0 1-.183-.263v.057ZM136.2 106.738l.148-.138a6.875 6.875 0 0 1 6.004-1.387 6.868 6.868 0 0 1 4.7 3.987 6.463 6.463 0 0 1-1.58 7.328 11.739 11.739 0 0 1-7.761 3.321h-.47l.103-.206a12.68 12.68 0 0 0 1.099-3.813h-.183c0-.069.057-.149.092-.218h.503a7.371 7.371 0 0 0 3.663-1.946 2.363 2.363 0 0 0 .722-2.76 2.936 2.936 0 0 0-2.553-1.741 3.11 3.11 0 0 0-1.351.378 2.975 2.975 0 0 0-1.019.973l-.137.241a1.035 1.035 0 0 0-.114.24l-.069-.252a12.611 12.611 0 0 0-1.82-3.653l-.126-.16c.023-.137.103-.16.149-.194Z" />
        <path fill="#0B1B32"
            d="M138.076 110.448c0 .08.057.172.08.263.04-.08.086-.156.138-.229 0 .08.057.172.08.263.227-.413.559-.761.961-1.007a2.504 2.504 0 0 1 3.086.294c.27.257.479.571.612.92a2.166 2.166 0 0 1-.675 2.53 7.048 7.048 0 0 1-3.503 1.844v.206h-.183v.206h.183a7.552 7.552 0 0 0 3.834-2.015c.437-.346.748-.826.886-1.366a2.547 2.547 0 0 0-.119-1.623 3.146 3.146 0 0 0-2.758-1.844 3.04 3.04 0 0 0-1.374.367 3.12 3.12 0 0 0-1.065.939.832.832 0 0 0-.183.252Zm2.599-1.145a2.706 2.706 0 0 1 2.358 1.637 2.167 2.167 0 0 1-.675 2.531 7.147 7.147 0 0 1-3.503 1.855v.206h-.504c0 .069-.057.149-.092.218h.573a7.549 7.549 0 0 0 3.835-2.004 2.536 2.536 0 0 0 .767-2.989 3.125 3.125 0 0 0-2.748-1.855c-.48.011-.951.137-1.373.366a3.172 3.172 0 0 0-1.076.951l-.138.206c.034.085.06.174.08.263.051-.077.097-.157.138-.24.032.09.058.182.08.275a2.67 2.67 0 0 1 .973-1.02 2.85 2.85 0 0 1 1.339-.4h-.034Zm-2.736 1.374.08.252.195.068.126-.263c.23-.412.561-.758.961-1.008a2.513 2.513 0 0 1 2.138-.273c.354.116.678.31.947.567.27.258.479.572.613.92a2.167 2.167 0 0 1-.676 2.531 7.002 7.002 0 0 1-3.503 1.855h-.446c-.034.07-.06.143-.08.218 0 .068-.057.148-.092.217h.573a7.543 7.543 0 0 0 3.823-2.004 2.533 2.533 0 0 0 .767-2.989 3.13 3.13 0 0 0-2.747-1.855 3.028 3.028 0 0 0-1.374.367c-.431.224-.801.55-1.076.95l-.138.206c-.024.078-.04.159-.045.241h-.046Zm-2.084-3.985c.046.05.088.104.126.16l.126.16.161-.137.148-.126a6.71 6.71 0 0 1 4.064-1.557h.275a6.86 6.86 0 0 1 6.044 4.065 6.29 6.29 0 0 1-1.534 7.123 11.448 11.448 0 0 1-7.521 3.252h-.458l-.103.206-.103.206h.47a11.903 11.903 0 0 0 8.013-3.435 6.611 6.611 0 0 0 1.614-7.558 7.177 7.177 0 0 0-6.708-4.306 7.04 7.04 0 0 0-4.293 1.626l-.16.126a1.916 1.916 0 0 0-.115.195h-.046Zm7.178 4.248a2.167 2.167 0 0 1-.675 2.531 7.147 7.147 0 0 1-3.503 1.855h-.183v.206h-.321c0 .069-.057.149-.092.218h.573a7.582 7.582 0 0 0 3.846-2.004 2.554 2.554 0 0 0 .767-2.989 3.158 3.158 0 0 0-2.759-1.855 3.068 3.068 0 0 0-2.438 1.317 1.162 1.162 0 0 0-.149.206c-.052.08-.098.164-.137.252l.068.24v.069l.195.069.137-.264c.227-.417.558-.768.962-1.019a2.905 2.905 0 0 1 1.339-.401 2.711 2.711 0 0 1 2.416 1.569h-.046Zm-4.819-.733a.825.825 0 0 0-.138.241c0 .08.057.172.08.263.04-.08.086-.156.138-.229 0 .08.057.172.08.263.227-.413.559-.761.961-1.007a2.504 2.504 0 0 1 3.086.294c.27.257.479.571.612.92a2.166 2.166 0 0 1-.675 2.53 7.048 7.048 0 0 1-3.503 1.844v.206h-.183v.206h.183a7.465 7.465 0 0 0 3.823-2.015c.439-.344.753-.824.892-1.364a2.54 2.54 0 0 0-.125-1.625 3.137 3.137 0 0 0-2.747-1.844 3.157 3.157 0 0 0-2.45 1.306l-.034.011Z" />
        <path fill="#FFB300"
            d="M138.421 115.406a1.459 1.459 0 0 0 0-.229v.229Zm.08-.263-.08.24a1.459 1.459 0 0 0 0-.229l.08-.011Zm-.424-4.169c.384 1.362.532 2.78.435 4.192 0 .08-.057.16-.08.24-.023.08 0 .138-.08.218H138.684a1.181 1.181 0 0 0 0-.206c.021-.382.021-.764 0-1.146a12.585 12.585 0 0 0-.446-3.194l-.195-.069.034-.035Zm-24.485 2.44a7.22 7.22 0 0 0 0 1.019c.015 2.171.59 4.301 1.671 6.183v.058l.263.423a12.514 12.514 0 0 0 3.434 3.55l.309.206.321.207.767.423c.137.069.263.149.412.206.149.058.641.287.973.413h.057l.355.126c.321.114.653.206.973.286l.412.103c.332.069.653.126.985.172h.412c.324.017.649.017.973 0h.412a9.5 9.5 0 0 0 .984 0h.413c.326-.037.651-.09.973-.161l.412-.091c.329-.074.654-.166.973-.275l.412-.137c.335-.117.663-.251.984-.401l.412-.206c.309-.161.607-.321.905-.504l.114-.08.206-.126.229-.161.229-.16a12.599 12.599 0 0 0 3.846-4.489l.103-.206.103-.206a13.013 13.013 0 0 0 1.099-3.848.594.594 0 0 1 0-.206 1.181 1.181 0 0 0 0-.206 9.94 9.94 0 0 0 0-1.145c-.01-1.08-.16-2.154-.446-3.195 0-.092-.069-.218-.092-.298a1.597 1.597 0 0 0-.08-.263 12.519 12.519 0 0 0-1.808-3.55l-.126-.16-.126-.172a12.406 12.406 0 0 0-2.862-2.668l-.206-.138-.321-.206a13.383 13.383 0 0 0-2.117-1.019 12.587 12.587 0 0 0-10.223.641l-.217.115-.206.114-.252.149-.252.16h-.069l-.252.161h-.057a12.517 12.517 0 0 0-4.67 5.989 13.06 13.06 0 0 0-.607 2.198v.069c-.069.401-.114.813-.149 1.214l.012.092Zm1.866 7.191a12.91 12.91 0 0 1-.538-1.054l-.069-.148-.092-.207a12.302 12.302 0 0 1-.961-4.488v-.802c.057-1.315.319-2.614.778-3.848a12.367 12.367 0 0 1 4.842-6.057h13.497c.116.063.227.136.332.217a12.343 12.343 0 0 1 2.61 2.508c.038.056.08.11.125.16l.115.172a12.313 12.313 0 0 1 1.832 3.653l.068.241v.068c.381 1.363.524 2.78.424 4.191 0 .081-.057.161-.08.229-.02.075-.047.148-.081.218 0 .08-.057.16-.08.229h.184a12.14 12.14 0 0 1-.699 2.84 8.002 8.002 0 0 1-.412.985 1.718 1.718 0 0 1-.091.206l-.103.206a12.287 12.287 0 0 1-4.144 4.581h-12.134a29.206 29.206 0 0 0 12.202-3.436 29.59 29.59 0 0 1-13.817 3.436 11.457 11.457 0 0 1-1.934-1.615 12.48 12.48 0 0 1-1.5-1.89l-.286-.469.012-.126Zm23.043-5.451c0 .08-.057.161-.08.241h.206c.021-.382.021-.764 0-1.145a12.498 12.498 0 0 0-.447-3.195l-.194-.069a12.6 12.6 0 0 1 .435 4.18l.08-.012Zm0 0-.08.241a1.459 1.459 0 0 0 0-.229l.08-.012Z" />
        <path fill="#0B1B32"
            d="M137.974 110.665c0 .08.057.161.08.241v.068c.384 1.362.531 2.78.435 4.192v.435a1.013 1.013 0 0 0 0 .206h.206v-.206h.194a1.013 1.013 0 0 0 0-.206 12.468 12.468 0 0 0-.48-4.581 2.626 2.626 0 0 0-.081-.275l-.137.241a1.867 1.867 0 0 0-.08-.264l-.137.149Zm0 0c0 .08.057.161.08.241v.068c.384 1.362.531 2.78.435 4.192v.435h.4a1.013 1.013 0 0 0 0-.206 12.468 12.468 0 0 0-.48-4.581 2.626 2.626 0 0 0-.081-.275l-.137.241a1.867 1.867 0 0 0-.08-.264l-.137.149Zm0 0c0 .08.057.161.08.241v.068c.384 1.362.531 2.78.435 4.192v.435h.4a1.013 1.013 0 0 0 0-.206 12.468 12.468 0 0 0-.48-4.581 2.626 2.626 0 0 0-.081-.275l-.137.241a1.867 1.867 0 0 0-.08-.264l-.137.149Zm.526 4.501v.435h.206v-.206c.021-.382.021-.764 0-1.145a12.593 12.593 0 0 0-.458-3.195l-.183-.069c.381 1.358.524 2.772.424 4.18h.011Zm-25.184-1.088a.647.647 0 0 0 0 .206 12.599 12.599 0 0 0 .95 4.89c.024.071.055.14.092.206.026.07.056.139.091.206v.069c.149.332.31.641.481.95.172.309.183.332.286.492a12.707 12.707 0 0 0 3.526 3.722l.206.138.206.137c.355.217.71.424 1.145.618l.412.206c.31.151.627.284.95.401l.412.149c.321.115.653.206.973.286l.412.092c.332.069.653.126.985.172h.412c.323.036.648.055.973.057h.412c.328.017.657.017.985 0h.412c.32 0 .652-.092.973-.16l.412-.092c.332-.08.652-.172.973-.275l.412-.137c.335-.117.663-.251.984-.401l.367-.172a18.32 18.32 0 0 0 1.041-.584l.206-.126.207-.137a12.838 12.838 0 0 0 4.327-4.924l.103-.206.091-.206c.126-.264.229-.539.344-.825a12.61 12.61 0 0 0 .721-3.046v-.218a.594.594 0 0 0 0-.206 12.706 12.706 0 0 0-.481-4.58c0-.092-.057-.183-.08-.275l-.08-.24a13.086 13.086 0 0 0-1.797-3.436l-.126-.172-.126-.16a12.65 12.65 0 0 0-3.022-2.771l-.206-.138-.206-.126a12.764 12.764 0 0 0-11.207-1.007l-.756.309-.458.229-.229.114-.229.126a5.487 5.487 0 0 0-.492.287l-.206.137-.206.126a12.605 12.605 0 0 0-4.854 6.161 12.482 12.482 0 0 0-.732 3.012c0 .332-.069.652-.08.984v.206l.091-.068Zm2.393 6.997a4.012 4.012 0 0 1-.264-.459 9.31 9.31 0 0 1-.549-1.065l-.069-.148-.091-.206a12.333 12.333 0 0 1-.962-4.489v-.779c.057-1.315.32-2.614.778-3.848a12.264 12.264 0 0 1 4.843-6.057l.263-.172h.057l.149-.08.16-.092.206-.126c.218-.114.447-.229.687-.332.133-.07.271-.131.412-.183a12.302 12.302 0 0 1 9.055-.172c.611.23 1.204.506 1.774.824.115.069.229.149.344.207l.332.206c.116.063.227.136.332.217.986.71 1.865 1.559 2.61 2.52.038.056.08.109.126.16l.114.172a12.421 12.421 0 0 1 1.832 3.653l.068.24v.069c.381 1.362.524 2.78.424 4.191v.229c-.006.065-.006.13 0 .195a1.181 1.181 0 0 0 0 .206 12.137 12.137 0 0 1-.698 2.84 8.325 8.325 0 0 1-.412.985c-.026.07-.057.139-.092.206l-.103.206a12.259 12.259 0 0 1-4.155 4.58l-.321.206-.206.126-.137.081-.504.274-.412.206-.126.058c-.286.126-.572.252-.859.355l-.412.149c-.32.103-.641.194-.973.274l-.412.092c-.32.069-.652.126-.984.172h-.412a9.304 9.304 0 0 1-.973.057h-.413c-.32 0-.652 0-.973-.069h-.412a9.678 9.678 0 0 1-.984-.183l-.412-.091c-.321-.092-.653-.184-.973-.298l-.286-.103h-.126a9.04 9.04 0 0 1-.973-.413l-.412-.206-.367-.206-.343-.206-.229-.149h-.092l-.091-.068a11.872 11.872 0 0 1-3.423-3.505l.069-.251Zm22.745-5.726v.206h.401a1.181 1.181 0 0 0 0-.206 12.447 12.447 0 0 0-.481-4.581 1.877 1.877 0 0 0-.126.264l-.194-.069a12.6 12.6 0 0 1 .435 4.18c0 .103 0 .183-.012.252l-.023-.046Zm-.503-4.73c0 .081.057.161.08.241v.069a12.35 12.35 0 0 1 .435 4.191v.435h.4a1.013 1.013 0 0 0 0-.206 12.468 12.468 0 0 0-.48-4.581 2.603 2.603 0 0 0-.08-.274l-.138.24a1.7 1.7 0 0 0-.08-.263l-.137.148Zm0 0c0 .081.057.161.08.241v.069a12.35 12.35 0 0 1 .435 4.191v.435a1.013 1.013 0 0 0 0 .206h.206v-.206h.194a1.013 1.013 0 0 0 0-.206 12.468 12.468 0 0 0-.48-4.581 2.603 2.603 0 0 0-.08-.274l-.138.24a1.7 1.7 0 0 0-.08-.263l-.137.148Z" />
        <path fill="#fff"
            d="M113.752 114.284v.378c.04 1.544.371 3.067.973 4.489l.08.206.069.149v.057c.175.366.358.721.549 1.065.092.16.195.309.298.469.434.677.932 1.31 1.488 1.89a6.143 6.143 0 0 1-.572-2.061l-.069-.481a19.638 19.638 0 0 1 .675-7.432c.174-.541.376-1.073.607-1.592a8.648 8.648 0 0 1 9.158-5.348c6.239.413 5.941-1.763 5.93-2.107h-10.017.149-3.629a12.503 12.503 0 0 0-5.643 9.906v.217c-.02.064-.035.129-.046.195Z" />
        <path fill="#FFB300"
            d="M127.534 96.97a1.639 1.639 0 0 0-.961-2.107 1.636 1.636 0 0 0-2.106.962 1.639 1.639 0 0 0 .961 2.106 1.636 1.636 0 0 0 2.106-.961Z" />
        <path fill="#0B1B32"
            d="M124.34 95.756a1.786 1.786 0 0 0 0 1.351c.179.428.515.772.938.962h.103c.226.089.468.128.71.114.245-.002.487-.057.71-.16a1.91 1.91 0 0 0 .584-.424 2.08 2.08 0 0 0 .377-.606 1.877 1.877 0 0 0-.474-1.994 1.814 1.814 0 0 0-.613-.377 1.6 1.6 0 0 0-.698-.115 1.82 1.82 0 0 0-.939.298 1.917 1.917 0 0 0-.653.733l-.068.172.023.046Zm1.225 1.97a1.416 1.416 0 0 1-.79-.71 1.395 1.395 0 0 1-.069-1.054.16.16 0 0 1 0-.069c.062-.175.159-.335.286-.47a1.42 1.42 0 0 1 .447-.331c.188-.082.39-.124.595-.126a.854.854 0 0 1 .24 0c.09.012.179.035.264.068.174.062.334.16.469.287.139.127.249.283.32.458.123.252.164.536.115.813-.043.28-.171.54-.366.744-.186.213-.435.36-.71.424a1.35 1.35 0 0 1-.824-.058l.023.023Z" />
        <path fill="#FFB300"
            d="M133.064 129.113a.39.39 0 0 1-.412.413h-13.233a.39.39 0 0 1-.412-.413v-4.248h14.057v4.248Z" />
        <path fill="#0B1B32"
            d="M118.8 124.659v4.454a.574.574 0 0 0 .17.449.576.576 0 0 0 .448.17h13.233a.593.593 0 0 0 .435-.172.614.614 0 0 0 .183-.447v-4.454H118.8Zm.412.412h13.645v4.042a.215.215 0 0 1-.057.149.174.174 0 0 1-.067.047c-.026.01-.054.014-.082.01h-13.233a.16.16 0 0 1-.081-.01.177.177 0 0 1-.068-.047.224.224 0 0 1 0-.149l-.057-4.042Z" />
        <path fill="#FFB300"
            d="M126.55 98.596c3.56 0 6.445 2.221 6.445 4.97v.137h-12.89v-.172c0-2.714 2.874-4.935 6.445-4.935Z" />
        <path fill="#0B1B32"
            d="M119.898 103.52v.412h13.291v-.389a.637.637 0 0 0 0-.138.933.933 0 0 1 0-.183v-.183a.988.988 0 0 0 0-.172 5.497 5.497 0 0 0-1.331-2.476 5.5 5.5 0 0 0-2.378-1.498 8.571 8.571 0 0 0-.767-.24 8.366 8.366 0 0 0-3.4-.16c-2.873.446-5.083 2.29-5.323 4.649a.877.877 0 0 0 0 .24l-.092.138Zm.424 0v-.138a1.602 1.602 0 0 1 0-.24 1.766 1.766 0 0 1 0-.252c.412-2.29 3.022-4.1 6.17-4.1a8.016 8.016 0 0 1 2.29.344 5.033 5.033 0 0 1 3.903 4.225v.161h-12.363Z" />
        <path fill="#FFB300"
            d="M126.091 98.24c3.812 0 6.868 2.383 6.868 5.314v.149h-13.736v-.183c-.012-2.897 3.068-5.28 6.868-5.28Z" />
        <path fill="#fff"
            d="M119.178 103.703c.961-6.104 7.154-5.302 8.139-5.28.88.038 1.732.32 2.461.814a9.372 9.372 0 0 0-5.941.916c-2.805 1.409-2.496 3.607-2.496 3.607s-1.03 0-2.163-.057Z" />
        <path fill="#0B1B32"
            d="M132.994 121.201c.263-.149.515-.298.755-.459.412-.274.802-.538 1.145-.824l.229-.172.217-.183a9.953 9.953 0 0 0 2.885-3.699h.183a12.076 12.076 0 0 1-.698 2.84 8.16 8.16 0 0 1-.412.985c-.026.071-.056.14-.092.206l-.103.206a12.384 12.384 0 0 1-4.144 4.581h-12.168a29.591 29.591 0 0 0 12.203-3.481Z" />
        <path fill="#0B1B32"
            d="M132.982 124.659a12.2 12.2 0 0 0 4.132-4.581l.115-.206.091-.206a12.814 12.814 0 0 0 1.111-3.813h-.195c.036-.071.066-.143.092-.218.033-.07.06-.142.08-.217a1.89 1.89 0 0 0 .08-.241c.103-.322.183-.651.24-.985a.713.713 0 0 0 0-.16c.024.442.024.886 0 1.328v.206a1.43 1.43 0 0 0 0 .207 13.174 13.174 0 0 1-1.03 3.847l-.091.206-.103.206a9.48 9.48 0 0 1-1.511 2.291l-.458.412-2.038 1.786-.24.206-.206.184-.069.068H121.432l11.55-.32Z" />
        <path fill="#0B1B32"
            d="M131.402 129.583h.412v-4.89h-.412v4.89ZM130.064 129.583h.413v-4.89h-.413v4.89ZM128.621 129.583h.412v-4.89h-.412v4.89ZM127.236 129.583h.412v-4.89h-.412v4.89ZM125.852 129.583h.4v-4.89h-.4v4.89ZM124.455 129.583h.412v-4.89h-.412v4.89ZM123.07 129.583h.412v-4.89h-.412v4.89ZM121.673 129.583h.378v-4.89h-.412l.034 4.89ZM120.287 129.583h.412v-4.89h-.412v4.89ZM119.029 103.566v.377h14.172v-.389a.524.524 0 0 0 0-.137 1.27 1.27 0 0 1 0-.195v-.183a.824.824 0 0 0 0-.172c-.401-2.542-3.056-4.58-6.365-4.81a6.55 6.55 0 0 0-.675 0h-.847c-3.572.344-6.307 2.669-6.285 5.509Zm.39 0v-.104c.08-2.53 2.598-4.58 5.826-4.935.286-.017.573-.017.859 0 1.111 0 2.212.217 3.239.641l.275.126a5.074 5.074 0 0 1 3.171 4.168v.161l-13.37-.057ZM105.669 105.214a.757.757 0 0 0-.069.31.714.714 0 0 0 .057.309c.037.102.1.193.184.263a.63.63 0 0 0 .274.149 2.36 2.36 0 0 1 1.855 2.038c.022.382.022.764 0 1.146 0 2.851 0 9.538 5.185 11.268.665.24 1.365.367 2.072.378h.481c-.103-.149-.194-.31-.286-.47h-.481a6.267 6.267 0 0 1-1.648-.332c-4.842-1.626-4.854-8.016-4.854-10.822.023-.408.023-.817 0-1.225a2.96 2.96 0 0 0-.721-1.569c-.4-.425-.918-.72-1.488-.847h-.092a.471.471 0 0 1 0-.092.242.242 0 0 1 0-.206l.435-.801.138-.252a.346.346 0 0 1 .091-.092.193.193 0 0 1 .138 0 4.164 4.164 0 0 1 2.632 1.317c1.683 1.695 2.702 4.752 3.583 7.856.06.213.141.42.241.618.057.117.126.228.206.332l.068.103.138.126v-.779a3.063 3.063 0 0 1-.149-.343v-.195l-.137-.446c-1.294-4.455-2.908-8.715-6.479-9.07a.72.72 0 0 0-.687.367l-.573 1.042-.114-.081Z" />
        <path fill="#FFC94C"
            d="M162.459 121.075a14.576 14.576 0 0 1-5.552 10.409 1.271 1.271 0 0 0-.355.423c-.082.172-.125.36-.126.55a.794.794 0 0 1 0 .275.84.84 0 0 1-.149.24.74.74 0 0 1-.515.218h-6.239a.718.718 0 0 1-.721-.733v-.126a1.137 1.137 0 0 0-.126-.527 1.202 1.202 0 0 0-.332-.423 14.576 14.576 0 0 1-5.197-10.306.789.789 0 0 1 0-.321.802.802 0 0 1 .733-.515h17.743a.714.714 0 0 1 .309.068.716.716 0 0 1 .264.184c.07.086.128.182.171.286a.74.74 0 0 1 .092.298Z" />
        <path fill="#FFBB1C"
            d="M164.647 121.613a8.163 8.163 0 0 0-2.29.79c.091-.425.118-.861.081-1.294 0 0 .263-.996-1.042-.893-1.305.103-13.622.103-13.622.103s-1.145-.206-1.145.962a10.123 10.123 0 0 0 1.774 5.221 11.566 11.566 0 0 1 2.152 4.787c0 1.603.584 1.798.584 1.798l4.419.103s.893.286.973-.905c.08-1.191.664-.733 1.145-1.362.228-.287.881-.905 1.614-1.775 5.048 1.362 8.013-2.039 8.013-4.34 0-2.302-1.099-3.195-2.656-3.195Zm-3.526 6.367a5.505 5.505 0 0 1-.95-.08 10.605 10.605 0 0 0 1.442-2.795c.138-.435.252-.836.355-1.145a5.319 5.319 0 0 0 1.591-.526c.342-.18.709-.308 1.088-.378.458 0 1.145 0 1.145 1.797.023 1.237-1.637 3.127-4.671 3.127Z" />
        <path fill="#0B1B32"
            d="M164.646 121.315a4.522 4.522 0 0 0-1.763.527l-.206.091c0-.274.058-.561.08-.836a.984.984 0 0 0-.068-.446 1.048 1.048 0 0 0-.584-.641 1.125 1.125 0 0 0-.424-.092h-17.743a1.146 1.146 0 0 0-.435.092 1.264 1.264 0 0 0-.355.251c-.1.11-.178.239-.229.378a1.142 1.142 0 0 0 0 .436 14.894 14.894 0 0 0 5.3 10.523.84.84 0 0 1 .252.309.98.98 0 0 1 .092.401v.149a1.009 1.009 0 0 0 .297.722 1.027 1.027 0 0 0 .722.309h6.181a1.036 1.036 0 0 0 .721-.309c.188-.194.295-.452.298-.722a.83.83 0 0 1 .092-.412.89.89 0 0 1 .263-.321 13.554 13.554 0 0 0 2.289-2.221h.103a.722.722 0 0 0 .161 0 8.028 8.028 0 0 0 1.808.206 6.617 6.617 0 0 0 3.606-1.019 5.084 5.084 0 0 0 2.427-3.94c-.057-2.988-1.832-3.435-2.885-3.435Zm-8.94 11.577h-6.182a.41.41 0 0 1-.309-.137.422.422 0 0 1-.126-.298v-.126a1.31 1.31 0 0 0 0-.217h7.098a1.865 1.865 0 0 0 0 .366.408.408 0 0 1-.126.298.385.385 0 0 1-.298.137l-.057-.023Zm1.019-1.637a1.142 1.142 0 0 0-.241.24h-7.624a1.73 1.73 0 0 0-.332-.378 14.24 14.24 0 0 1-5.082-10.088.512.512 0 0 1 0-.183.457.457 0 0 1 .275-.287.375.375 0 0 1 .194 0h17.743a.38.38 0 0 1 .195 0c.06.028.115.067.16.115.045.05.08.108.103.172a.647.647 0 0 1 0 .206 14.356 14.356 0 0 1-5.449 10.203h.058Zm5.483-7.066a6.741 6.741 0 0 0 1.465-.526c.307-.152.63-.271.962-.355.412 0 .881 0 .881 1.5 0 1.03-1.465 2.874-4.396 2.874h-.446a15.397 15.397 0 0 0 1.534-3.435v-.058Zm2.518 4.054a6.11 6.11 0 0 1-3.651.905c.264-.251.471-.556.606-.893 2.862-.218 4.43-2.119 4.43-3.436 0-1.844-.744-2.095-1.476-2.095-.421.065-.827.2-1.202.4l-.103.058a2.5 2.5 0 0 1 .927-1.214c.129-.012.26-.012.389 0 1.488 0 2.29.973 2.29 2.897a4.436 4.436 0 0 1-2.21 3.378Z" />
        <path fill="#FFB300" d="M185.01 163.101v14.887h3.434v-14.887" />
        <path fill="#0B1B32"
            d="M188.444 178.297h-3.434a.277.277 0 0 1-.183-.08.228.228 0 0 1-.069-.172v-14.887a.287.287 0 0 1 .069-.183.263.263 0 0 1 .354 0 .281.281 0 0 1 .069.183v14.635h2.988v-14.692a.287.287 0 0 1 .069-.183.258.258 0 0 1 .183-.069.228.228 0 0 1 .171.069c.048.05.076.114.081.183v14.886a.273.273 0 0 1-.252.252l-.046.058Z" />
        <path fill="#FFB300" d="M176.688 160.604c3.983.836 4.452 3.161 9.947 3.161 5.495 0 5.976-2.29 9.959-3.161" />
        <path fill="#0B1B32"
            d="M186.637 164.017a11.37 11.37 0 0 1-6.41-1.706 11.443 11.443 0 0 0-3.583-1.455h-.092a.195.195 0 0 1-.069-.068.132.132 0 0 1 0-.092.132.132 0 0 1 0-.092v-.091l.069-.069h.195c1.312.297 2.569.803 3.72 1.5a12.393 12.393 0 0 0 12.351 0 12.371 12.371 0 0 1 3.721-1.5.281.281 0 0 1 .194 0 .26.26 0 0 1 .103.16.235.235 0 0 1 0 .184.25.25 0 0 1-.067.074.248.248 0 0 1-.093.04c-1.268.277-2.48.769-3.583 1.454a11.448 11.448 0 0 1-6.456 1.661Z" />
        <path fill="#0B1B32"
            d="M205.387 156.287h-37.49a2.166 2.166 0 0 0-1.427 3.633c.372.4.882.645 1.427.684h37.49a2.16 2.16 0 0 0 2.006-2.158 2.167 2.167 0 0 0-2.006-2.159Z" />
        <path fill="#FFB300"
            d="M211.27 215.067h-2.152a.632.632 0 0 1-.47-.195.64.64 0 0 1-.144-.215.636.636 0 0 1-.05-.254v-4.421a5.024 5.024 0 0 0-.492-2.141 4.848 4.848 0 0 0-1.374-1.706l-16.026-12.745a8.183 8.183 0 0 1-2.232-2.726 8.376 8.376 0 0 1-.928-3.435l3.435-.195c.034.692.217 1.367.538 1.981.317.617.762 1.16 1.305 1.592l16.026 12.745a8.407 8.407 0 0 1 3.182 6.585v4.42a.633.633 0 0 1-.05.254.628.628 0 0 1-.145.215.665.665 0 0 1-.423.241ZM162.013 215.067h2.152a.66.66 0 0 0 .469-.195.66.66 0 0 0 .195-.469v-4.421a4.995 4.995 0 0 1 .492-2.141 4.837 4.837 0 0 1 1.374-1.706l16.026-12.745a8.45 8.45 0 0 0 3.159-6.116l-3.434-.194a4.783 4.783 0 0 1-.538 1.981 4.901 4.901 0 0 1-1.305 1.592l-16.026 12.745a8.41 8.41 0 0 0-3.182 6.584v4.421a.653.653 0 0 0 .194.469.667.667 0 0 0 .424.195Z" />
        <path fill="#0B1B32"
            d="M161.349 213.154h3.434v1.329a.655.655 0 0 1-.195.469.65.65 0 0 1-.469.195h-2.152a.665.665 0 0 1-.664-.664l.046-1.329ZM211.271 215.319h-2.152a.914.914 0 0 1-.653-.275.884.884 0 0 1-.263-.641v-4.421a4.762 4.762 0 0 0-.458-2.026 4.631 4.631 0 0 0-1.305-1.627l-16.026-12.745a8.608 8.608 0 0 1-2.289-2.794 8.702 8.702 0 0 1-.962-3.504.237.237 0 0 1 0-.092.255.255 0 0 1 .057-.091l.069-.057h.103l3.434-.195h.103a.215.215 0 0 1 .08 0l.058.069a.355.355 0 0 1 0 .103c.045.657.22 1.299.515 1.889a4.82 4.82 0 0 0 1.247 1.512l16.027 12.733a8.633 8.633 0 0 1 3.274 6.78v4.42a.889.889 0 0 1-.275.641.92.92 0 0 1-.584.321Zm-23.616-27.815a8.146 8.146 0 0 0 3.057 5.725l16.026 12.745a5.105 5.105 0 0 1 1.946 4.043v4.42a.408.408 0 0 0 .126.298.413.413 0 0 0 .137.088c.051.02.106.029.16.026h2.153a.39.39 0 0 0 .155-.026.422.422 0 0 0 .257-.386v-4.42a8.083 8.083 0 0 0-3.08-6.39l-16.026-12.734a5.274 5.274 0 0 1-1.316-1.569 5.16 5.16 0 0 1-.607-1.946l-2.988.126Z" />
        <path fill="#0B1B32"
            d="M164.166 215.319h-2.153a.923.923 0 0 1-.641-.275.899.899 0 0 1-.274-.641v-4.421a8.616 8.616 0 0 1 3.274-6.779l16.026-12.745a4.67 4.67 0 0 0 1.248-1.5c.294-.59.469-1.232.515-1.89a.165.165 0 0 1 0-.103.156.156 0 0 1 0-.068.18.18 0 0 1 .08 0h.091l3.435.194h.091a.202.202 0 0 1 .08.058l.057.08v.103a8.734 8.734 0 0 1-3.262 6.298l-16.026 12.745a4.636 4.636 0 0 0-1.156 1.535 4.752 4.752 0 0 0-.458 2.027v4.42a.867.867 0 0 1-.264.641.942.942 0 0 1-.663.321Zm18.475-28.022a5.077 5.077 0 0 1-.606 1.947 5.277 5.277 0 0 1-1.317 1.569l-16.026 12.734a8.297 8.297 0 0 0-2.289 2.84 8.135 8.135 0 0 0-.802 3.55v4.42c.002.11.042.215.115.298a.413.413 0 0 0 .137.088.417.417 0 0 0 .16.026h2.153a.417.417 0 0 0 .16-.026.413.413 0 0 0 .263-.386v-4.42a5.059 5.059 0 0 1 .504-2.291 5.236 5.236 0 0 1 1.442-1.797l16.026-12.746a8.053 8.053 0 0 0 2.118-2.531 8.426 8.426 0 0 0 .939-3.16l-2.977-.115Z" />
        <path fill="#FFB300"
            d="M185.01 183.69v30.713a.636.636 0 0 0 .05.254.64.64 0 0 0 .144.215.622.622 0 0 0 .458.195h2.164a.66.66 0 0 0 .614-.41.672.672 0 0 0 .05-.254V183.69" />
        <path fill="#0B1B32"
            d="M185.011 213.154h3.434v1.329a.65.65 0 0 1-.195.469.66.66 0 0 1-.469.195h-2.164a.628.628 0 0 1-.458-.195.64.64 0 0 1-.144-.215.633.633 0 0 1-.05-.254l.046-1.329Z" />
        <path fill="#0B1B32"
            d="M187.804 215.319h-2.163a.92.92 0 0 1-.641-.275.884.884 0 0 1-.263-.641V183.69a.234.234 0 0 1 .07-.181.232.232 0 0 1 .181-.071.254.254 0 0 1 .172.069c.046.05.07.116.069.183v30.713a.404.404 0 0 0 .126.297.392.392 0 0 0 .286.115h2.163a.378.378 0 0 0 .287-.115.407.407 0 0 0 .126-.297V183.69a.234.234 0 0 1 .07-.181.232.232 0 0 1 .181-.071.226.226 0 0 1 .093.017.21.21 0 0 1 .079.052.274.274 0 0 1 .08.183v30.713a.942.942 0 0 1-.916.916Z" />
        <path fill="#FFB300"
            d="M190.46 178.045h-7.636a.495.495 0 0 0-.492.492v9.963a.504.504 0 0 0 .492.504h7.636a.504.504 0 0 0 .492-.504v-9.963a.494.494 0 0 0-.492-.492Z" />
        <path fill="#0B1B32"
            d="M190.46 189.256h-7.636a.772.772 0 0 1-.688-.471.714.714 0 0 1-.056-.285v-9.963a.742.742 0 0 1 .744-.744h7.636a.743.743 0 0 1 .744.744v9.963a.75.75 0 0 1-.218.527.795.795 0 0 1-.526.229Zm-7.636-10.959a.228.228 0 0 0-.172.068.269.269 0 0 0-.08.172v9.963a.28.28 0 0 0 .08.183.218.218 0 0 0 .079.052.23.23 0 0 0 .093.017h7.636a.254.254 0 0 0 .171-.069.264.264 0 0 0 .069-.183v-9.963a.243.243 0 0 0-.018-.092.245.245 0 0 0-.222-.148h-7.636ZM185.01 166.032s2.152-1.42 3.434-.355v-2.015a14.939 14.939 0 0 1-3.434 0v2.37Z" />
        <path fill="#0B1B32"
            d="M185.011 166.284a.238.238 0 0 1-.252-.252v-2.29a.312.312 0 0 1 0-.114l.068-.081.103-.057h.115c1.141.126 2.293.126 3.434 0h.103l.092.057.068.081a.297.297 0 0 1 0 .103v2.015a.229.229 0 0 1 0 .137.269.269 0 0 1-.103.092.289.289 0 0 1-.137 0 .183.183 0 0 1-.126-.057c-1.145-.939-3.171.355-3.194.366a.17.17 0 0 1-.171 0Zm.24-2.29v1.626a3.627 3.627 0 0 1 2.988-.378v-1.305c-1 .111-2.008.126-3.011.046l.023.011Z" />
        <path fill="#fff"
            d="M182.332 179.866a22.701 22.701 0 0 1 8.619-.161c0-1.008.435-1.58-.904-1.66-1.339-.08-6.96 0-6.96 0s-1.007-.08-.847.916c.16.996.092.905.092.905Z" />
        <path fill="#0B1B32"
            d="M190.46 189.256h-7.636a.772.772 0 0 1-.688-.471.714.714 0 0 1-.056-.285v-9.963a.742.742 0 0 1 .744-.744h7.636a.743.743 0 0 1 .744.744v9.963a.75.75 0 0 1-.218.527.795.795 0 0 1-.526.229Zm-7.636-10.959a.228.228 0 0 0-.172.068.269.269 0 0 0-.08.172v9.963a.28.28 0 0 0 .08.183.218.218 0 0 0 .079.052.23.23 0 0 0 .093.017h7.636a.254.254 0 0 0 .171-.069.264.264 0 0 0 .069-.183v-9.963a.243.243 0 0 0-.018-.092.245.245 0 0 0-.222-.148h-7.636Z" />
        <path fill="#FFB300"
            d="M181.003 125.46s-2.587-1.809-4.235-1.145c-1.649.664-4.247 4.031-4.247 4.031a12.614 12.614 0 0 0-2.828 4.455 18.67 18.67 0 0 0-.492 3.905s2.29.572 3.343-1.043a4.36 4.36 0 0 0 .355-3.435l2.758-2.176s1.821-1.294 2.015-1.145l2.29 1.764a6.367 6.367 0 0 0 1.522-2.474 4.41 4.41 0 0 0-.481-2.737Z" />
        <path fill="#fff"
            d="M176.791 124.418c-1.648.722-4.247 4.031-4.247 4.031a12.598 12.598 0 0 0-2.827 4.455 18.67 18.67 0 0 0-.492 3.905c.323.068.653.103.984.103l-.08-.08c.059-1.438.286-2.864.675-4.249a27.218 27.218 0 0 1 5.724-7.501 5.02 5.02 0 0 1 1.774-.767 2.712 2.712 0 0 0-1.511.103Z" />
        <path fill="#fff"
            d="M178.073 106.76s-8.872-1.603-12.592-.366c-.275.149-2.541.79-1.809 5.165.733 4.374 5.381 6.504 5.381 6.504s6.433 1.855 8.745 3.435c2.313 1.581 3.206 2.817 3.206 3.962 0 0 1.705 2.554-1.798 6.058 0 0-4.876 4.409-5.002 8.978-.126 4.569.298 4.432.298 4.432s2.907-.172 3.148-2.291c.24-2.118-.71-2.152-.516-2.84a6.103 6.103 0 0 1 1.924-2.885 11.794 11.794 0 0 1 2.369-1.042s-.275 4.454-1.042 5.84a5.804 5.804 0 0 0-1.957 2.153 5.858 5.858 0 0 0-.675 2.84c0 3.435 3.125 6.034 3.869 6.653l-3.48 1.511s-3.251-1.981-4.682-1.145c-1.431.836-2.782 1.913-2.393 3.172.39 1.26 4.121.893 4.121.893l4.018-.103h1.992l4.293-.08s6.227.722 7.464-.79c3.688.712 7.504.314 10.966-1.145 6.17-2.451 9.158-5.004 10.852-9.631 1.694-4.626 2.415-11.886-2.289-13.821-4.705-1.936-8.357 4.328-6.606 7.031 1.752 2.702 3.206 2.004 3.206 2.004s-1.259 5.725-3.778 8.405a19.452 19.452 0 0 1-5.277 4.008l-.458-7.077s-1.362-9.722-2.129-13.077c-.767-3.356-3.274-13.295-5.564-17.154a19.537 19.537 0 0 0-13.805-9.597Z" />
        <path fill="#FFBB1C"
            d="M195.794 127.751a8.973 8.973 0 0 1-.687 5.645c-1.408 2.393-4.167 4.741-2.541 5.565 1.145.562 2.804-1.786 3.823-.824 1.019.962-1.431 7.134.618 7.867 1.145.447 2.21-.366 2.587 2.851a84.06 84.06 0 0 0-1.144-10.168c-.985-5.291-2.656-10.936-2.656-10.936Z" />
        <path fill="#fff"
            d="M185.538 140.92a5.817 5.817 0 0 0-4.579.687l-.401-.172-.149.298a5.84 5.84 0 0 0-2.633 4.992 7.913 7.913 0 0 0 2.29 5.073l.469.172a8.5 8.5 0 0 1-1.259-5.817c.549-4.123 6.262-5.233 6.262-5.233ZM180.432 130.041c-.37.513-.775.999-1.213 1.454 0 0-4.877 4.409-5.003 8.978-.126 3.813.172 4.352.275 4.432 1.145-.184.755-1.855.584-3.688a8.968 8.968 0 0 1 2.094-5.725c1.317-1.787 3.503-4.26 4.373-5.291.87-1.03.069-2.851.069-2.851a5.052 5.052 0 0 1-1.179 2.691Z" />
        <path fill="#FFBB1C"
            d="M213.892 133.053a4.466 4.466 0 0 0-1.408-.894c-4.659-1.923-8.357 4.329-6.605 7.02a5.233 5.233 0 0 0 1.9 1.89l.137-.081a5.518 5.518 0 0 1 .502-5.841 5.512 5.512 0 0 1 5.474-2.094ZM178.073 106.76s-8.872-1.603-12.592-.366c-.275.149-.47 1.008-.378 1.008a55.46 55.46 0 0 1 15.087 1.088l7.693 2.965a18.687 18.687 0 0 0-9.833-4.695h.023Z" />
        <path fill="#0B1B32"
            d="M183.248 106.165a.507.507 0 0 1-.286-.092.563.563 0 0 1-.206-.229 2.019 2.019 0 0 0-2.61-1.236.497.497 0 0 1-.217 0 .501.501 0 0 1-.218 0 .454.454 0 0 1-.171-.126.561.561 0 0 1 .206-.905 3.193 3.193 0 0 1 4.018 1.786.519.519 0 0 1 0 .424.564.564 0 0 1-.538.389l.022-.011ZM169.374 114.891c.127.036.257.055.389.057.133.012.267.012.401 0 .258.029.519.029.778 0a3.64 3.64 0 0 0 .721-.172c.233-.086.444-.223.619-.4a.239.239 0 0 1 .091-.05.274.274 0 0 1 .103-.008.287.287 0 0 1 .195.08.357.357 0 0 1 0 .172.355.355 0 0 1 0 .183 2.043 2.043 0 0 1-.767.619 2.887 2.887 0 0 1-.927.263 4.212 4.212 0 0 1-.939 0l-.447-.069a2.334 2.334 0 0 1-.446-.148l-.092-.058-.068-.091a.37.37 0 0 1 0-.115.363.363 0 0 1 0-.114.282.282 0 0 1 .126-.138.23.23 0 0 1 .171 0h.08l.012-.011Z" />
        <path fill="#0B1B32"
            d="M215.757 135.767a5.573 5.573 0 0 0-3.526-3.86 5.473 5.473 0 0 0-6.284 2.795c-1.145 2.061-1.053 4.305.298 5.622a4.398 4.398 0 0 0 2.461 1.168 23.58 23.58 0 0 1-1.775 4.993c-1.144 2.393-3.274 5.439-6.65 6.653 0-1.614-.126-8.016-2.462-19.364a80.257 80.257 0 0 0-5.723-17.543 32.708 32.708 0 0 0-3.572-6.024l1.82-2.084s.47 5.199 1.66 5.726c1.191.527 3.034-.447 2.759-4.398-.275-3.95-1.408-5.324-1.729-5.645a3.88 3.88 0 0 0-2.61-.172c-.641.218-2.816 4.283-3.251 5.142l-.446-.344c.916-1.534 3.079-5.519 2.839-9.058-.149-2.026-2.793-3.332-4.098-.091a16.62 16.62 0 0 0-.595 8.462 88.888 88.888 0 0 0-9.341-1.706 32.909 32.909 0 0 0-9.067-.252 3.183 3.183 0 0 0-.194-1.271 3.267 3.267 0 0 0-.664-1.145 2.745 2.745 0 0 0-2.095-1.019 2.463 2.463 0 0 0-1.855.984c-.346.426-.56.943-.618 1.489a2.782 2.782 0 0 0 .298 1.58 2.76 2.76 0 0 0 2.141 1.535 6.567 6.567 0 0 0 .103 4.454 10.082 10.082 0 0 0 6.433 6.253c5.724 1.809 9.295 3.115 10.497 6.115a.385.385 0 0 0 .08.149 8.727 8.727 0 0 0-1.144-.573 4.2 4.2 0 0 0-3.675.069c-1.969 1.145-5.277 5.794-6.067 7.375a15.674 15.674 0 0 0-.813 4.901.392.392 0 0 0 0 .16.358.358 0 0 0 .126.103 4.24 4.24 0 0 0 1.145.183c.447.002.89-.083 1.305-.252a3.327 3.327 0 0 0 1.087-.744c1.065-1.145.687-3.241.573-3.859.959-.84 1.96-1.631 2.999-2.37l.618-.424c.232-.161.492-.278.767-.344a.34.34 0 0 1 .149 0l.103.058c.63.399 1.217.864 1.751 1.385a3.763 3.763 0 0 0-.297.321c-1.946 2.176-5.575 6.252-5.404 9.47.013 1.498.12 2.993.321 4.477.017.06.053.113.103.149a.224.224 0 0 0 .172.069 3.745 3.745 0 0 0 3.297-2.073 2.995 2.995 0 0 0-.218-2.576 1.742 1.742 0 0 1-.195-.641 5.373 5.373 0 0 1 2.29-3.012c.378-.183.87-.378 1.385-.596a20.755 20.755 0 0 1-.962 5.245 6.02 6.02 0 0 0-1.602 1.58 6.23 6.23 0 0 0-.492 6.161 9.931 9.931 0 0 0 2.861 3.825c-.572 0-1.362.08-1.705.057a1.625 1.625 0 0 1-.687-.378 2.813 2.813 0 0 0-1.626-.664 2.584 2.584 0 0 0-1.236.321 2.53 2.53 0 0 0-.916.893 3.028 3.028 0 0 0-1.431.069 4.312 4.312 0 0 0-2.735 2.92 1.04 1.04 0 0 0 .32 1.088c.595.469 2.77.595 4.739.595 1.969 0 3.698-.103 3.743-.103 1.603-.092 4.018 0 6.365 0 2.347 0 4.304.08 5.266 0a2.917 2.917 0 0 0 1.854-.836 18.28 18.28 0 0 0 3.251.298c.873 0 1.745-.057 2.61-.172h.058c.431-.027.86-.089 1.282-.183a23.485 23.485 0 0 0 3.926-1.065 19.603 19.603 0 0 0 9.364-6.676c2.885-3.756 3.903-9.436 2.541-13.375Zm-37.615-6.871c-.47-.378-1.283-.916-1.695-.699a.552.552 0 0 0-.229.642.683.683 0 0 1-.32.767c-.298.206-.618.446-1.007.744-1.088.847-2.118 1.729-2.118 1.764a.23.23 0 0 0-.08.126.265.265 0 0 0 0 .137s.618 2.451-.39 3.493c-.35.353-.789.606-1.27.733-.48.126-.985.126-1.465 0a14.41 14.41 0 0 1 .732-4.455c.813-1.58 4.052-6.115 5.873-7.146a3.443 3.443 0 0 1 3.182 0 7.625 7.625 0 0 1 1.625.916 3.766 3.766 0 0 1-.686 4.1c-.081.08-.149.172-.252.298a16.106 16.106 0 0 0-1.9-1.42Zm34.811 20.051a19.111 19.111 0 0 1-9.101 6.481 23.561 23.561 0 0 1-4.785 1.146h-.32a4.574 4.574 0 0 1-4.087-1.638 3.369 3.369 0 0 0-2.29-1.729.252.252 0 0 0-.105.02.246.246 0 0 0-.089.06.285.285 0 0 0-.092.195c0 .071.024.139.069.194a2.479 2.479 0 0 1 .79 2.405c-.18.343-.45.631-.781.832-.33.202-.709.31-1.097.313-.938.103-3.01.08-5.197 0-2.369-.057-4.785-.103-6.41 0-3.434.218-7.475.149-8.093-.378a.78.78 0 0 1-.126-.263.652.652 0 0 1 0-.298 3.75 3.75 0 0 1 2.358-2.473 4.183 4.183 0 0 1 3.159.79c.251.168.525.299.813.389.767.172 7.075 0 7.796 0h.114v-.24h-.091a8.125 8.125 0 0 1-2.072-.687l-.79-.447a9.675 9.675 0 0 1-3.824-4.409 5.662 5.662 0 0 1 .447-5.611c2.461-3.435 6.8-2.37 8.574-1.752a.647.647 0 0 0 .206 0 .274.274 0 0 0 .183-.08.236.236 0 0 0 .061-.089.238.238 0 0 0 .019-.106.302.302 0 0 0-.057-.171.336.336 0 0 0-.16-.092h-.069a11.196 11.196 0 0 0-3.778-.687 7.05 7.05 0 0 0-3.056.641c.126-.435.218-.87.298-1.305a9.438 9.438 0 0 0 3.462-1.437 9.44 9.44 0 0 0 2.628-2.674 5.737 5.737 0 0 0 .858-2.817c.079-.143.144-.292.195-.447a12.348 12.348 0 0 0 1.213-5.416.298.298 0 0 0-.103-.184.286.286 0 0 0-.194-.068.298.298 0 0 0-.184.103.257.257 0 0 0-.057.194 13.186 13.186 0 0 1-1.557 6.012l-.79 1.34c-.022-.419-.022-.84 0-1.259a.244.244 0 0 0-.057-.195.262.262 0 0 0-.16-.103.284.284 0 0 0-.195 0 .29.29 0 0 0-.126.137 9.047 9.047 0 0 1-1.533 2.233l.103-.549c0-.115.068-.241.091-.367a.251.251 0 0 0 0-.183.22.22 0 0 0-.126-.138.265.265 0 0 0-.355.104 9.558 9.558 0 0 1-2.999 1.58h-.08l-.24.091c-.573.229-1.145.447-1.534.653a5.98 5.98 0 0 0-2.633 3.436c-.028.342.048.685.217.984.189.323.306.682.344 1.053.037.372-.006.747-.126 1.1a3.099 3.099 0 0 1-2.587 1.706c0-.446-.149-1.534-.264-4.156-.148-2.989 3.435-6.951 5.278-9.081.389-.47.732-.813.927-1.145.847-1.054 1.774-2.291.401-5.726-1.374-3.435-4.957-4.581-10.853-6.436a9.686 9.686 0 0 1-3.72-2.29 9.829 9.829 0 0 1-2.369-3.664 5.926 5.926 0 0 1 0-4.26c.481-.061.94-.238 1.339-.516.413-.259.736-.639.927-1.087a31.62 31.62 0 0 1 9.158.194c.698.103 1.385.172 2.049.298-.424 1.409-1.923 7.764 3.434 11.108a10.505 10.505 0 0 0 11.321-.103 80.797 80.797 0 0 1 4.98 16.032c2.164 10.512 2.53 17.428 2.438 19.627a.245.245 0 0 0 0 .126.262.262 0 0 0 .08.103.314.314 0 0 0 .172 0h.08c2.828-.859 5.255-3.115 7.052-6.481.117-.201.224-.407.32-.619a10.79 10.79 0 0 1 3.618-4.099c1.877-1.214 1.751-2.6 1.751-2.646v-.057h-.217a5.994 5.994 0 0 1-1.855 1.019 3.695 3.695 0 0 1-3.892-.916c-1.351-1.282-1.087-3.435-.195-4.924a4.945 4.945 0 0 1 5.644-2.542 5.128 5.128 0 0 1 3.159 3.435c.939 3.688-.045 9.15-2.678 12.883l.023.023Z" />
        <path fill="#0B1B32"
            d="M165.299 109.108a.313.313 0 0 0 .23-.09.314.314 0 0 0 .091-.231.32.32 0 0 0-.321-.32.328.328 0 0 0-.223.097.324.324 0 0 0-.097.223.32.32 0 0 0 .32.321ZM164.463 110.047a.339.339 0 0 0 .242-.101.343.343 0 1 0-.242.101ZM165.448 110.837a.22.22 0 0 0 .095-.015.232.232 0 0 0 .137-.131.237.237 0 0 0 0-.191.26.26 0 0 0-.054-.082.266.266 0 0 0-.082-.054.242.242 0 0 0-.191 0 .244.244 0 0 0-.146.233.243.243 0 0 0 .241.24ZM168.332 110.219a.343.343 0 1 0 0-.686.343.343 0 0 0 0 .686ZM167.324 108.81a.343.343 0 1 0-.343-.343.32.32 0 0 0 .023.133.312.312 0 0 0 .074.113c.032.032.07.058.113.074a.32.32 0 0 0 .133.023ZM166.535 109.875a.343.343 0 1 0-.343-.343.329.329 0 0 0 .21.32.317.317 0 0 0 .133.023ZM167.108 111.41a.333.333 0 0 0 .32-.321.32.32 0 0 0-.32-.321.314.314 0 0 0-.3.196.335.335 0 0 0-.021.125.322.322 0 0 0 .321.321ZM168.286 112.051a.3.3 0 0 0 .298-.298.297.297 0 0 0-.088-.21.295.295 0 0 0-.421 0 .3.3 0 0 0 0 .421.298.298 0 0 0 .211.087ZM165.551 112.349a.322.322 0 1 0 0-.644.322.322 0 0 0 0 .644ZM169.912 109.211a.337.337 0 0 0 .224-.097.337.337 0 0 0 .097-.224.32.32 0 0 0-.321-.32.32.32 0 0 0-.32.32.333.333 0 0 0 .32.321ZM169.522 111.387a.333.333 0 0 0 .32-.321.323.323 0 0 0-.093-.227.324.324 0 0 0-.227-.094.314.314 0 0 0-.23.091.31.31 0 0 0-.091.23.322.322 0 0 0 .321.321Z" />
        <path fill="#fff"
            d="M182.996 114.25a2.47 2.47 0 0 0 2.293-1.519 2.475 2.475 0 0 0-3.225-3.241 2.474 2.474 0 0 0 .932 4.76Z" />
        <path fill="#0B1B32"
            d="M180.936 110.173a2.479 2.479 0 0 0-.493 1.305 2.364 2.364 0 0 0 2.29-.08c.345-.197.636-.476.847-.813.218-.344.345-.738.366-1.145a2.439 2.439 0 0 0-1.637-.195c-.548.135-1.03.46-1.362.916l-.011.012Z" />
        <path fill="#fff"
            d="M163.26 104.046c.447-.309.687-.744.527-.973-.16-.229-.641-.149-1.088.16-.446.31-.686.745-.526.974.16.229.618.149 1.087-.161Z" />
        <path fill="#FCF7FD"
            d="M192.394 99.122a3.998 3.998 0 0 0-.904 1.569 5.455 5.455 0 0 0-.218 1.718c.017.51.063 1.018.138 1.523 0 0 .08.057 0 0a11.98 11.98 0 0 1-.722-.538c-.469-.355-.915-.745-1.408-1.077a4.188 4.188 0 0 0-3.285-.824 1.968 1.968 0 0 0-1.385 1.088 1.729 1.729 0 0 0-.126.801c.037.28.122.551.252.802a3.328 3.328 0 0 0 2.862 1.477 11.41 11.41 0 0 0 3.125-.149l-1.282.974a9.68 9.68 0 0 0-1.695 1.591 4.586 4.586 0 0 0-.938 1.913 3.18 3.18 0 0 0 .286 2.175 2.414 2.414 0 0 0 1.603 1.226c.331.075.675.075 1.007 0 .33-.084.633-.249.881-.481a2.919 2.919 0 0 0 .767-1.718c.073-.65.1-1.304.08-1.958v-.985a1.922 1.922 0 0 1 0-.24V107.722a.363.363 0 0 0 0-.114v-.252c.031-.298.084-.593.161-.882 0 .172 0 .355.068.527.14.718.328 1.426.561 2.118.225.7.549 1.363.962 1.97.381.551.892.999 1.488 1.305a3.107 3.107 0 0 0 1.809.355 2.028 2.028 0 0 0 1.682-1.145 2.218 2.218 0 0 0-.331-2.072 4.478 4.478 0 0 0-1.592-1.329c-.618-.332-1.27-.572-1.9-.881l-.458-.252-.103-.069h-.057a1.227 1.227 0 0 1-.195-.149 2.51 2.51 0 0 1-.377-.321l-.081-.08a2.005 2.005 0 0 1-.148-.183 1.756 1.756 0 0 1-.229-.366 1.268 1.268 0 0 1-.08-.195c.215.156.441.297.675.424.492.275 1.014.49 1.557.641a8.051 8.051 0 0 0 1.637.298 6.38 6.38 0 0 0 1.808-.126 2.521 2.521 0 0 0 1.592-.962c.183-.253.297-.549.332-.859a2.294 2.294 0 0 0-.138-1.008 4.18 4.18 0 0 0-.446-.87 2.041 2.041 0 0 0-.699-.63 2.523 2.523 0 0 0-1.637-.172 4.166 4.166 0 0 0-1.579.779c-.504.366-.973.79-1.511 1.145l-.344.195a3.167 3.167 0 0 1-.744.263 2.227 2.227 0 0 1-.4 0h-.241a2.23 2.23 0 0 1 .206-.366l.069-.08.126-.172.297-.309h.069l.16-.138c.458-.366.951-.664 1.408-1.007a4.774 4.774 0 0 0 1.294-1.329 2.511 2.511 0 0 0 .332-1.592 1.887 1.887 0 0 0-.286-.801 1.503 1.503 0 0 0-.63-.561 2.164 2.164 0 0 0-1.671 0 3.742 3.742 0 0 0-1.454.652Z" />
        <path fill="#0B1B32"
            d="M191.169 106.531a.526.526 0 1 0 .002-1.052.526.526 0 0 0-.002 1.052ZM190.585 104.722a.435.435 0 1 0 0-.87.435.435 0 0 0 0 .87ZM193.013 105.535a.526.526 0 1 0 0-1.052.526.526 0 0 0 0 1.052ZM191.33 105.226a.32.32 0 1 0 .001-.641.32.32 0 0 0-.001.641ZM192.051 105.535a.32.32 0 1 0 0-.641.32.32 0 0 0 0 .641ZM192.326 106.325a.32.32 0 1 0 .001-.641.32.32 0 0 0-.001.641ZM190.276 105.65a.32.32 0 1 0-.001-.641.32.32 0 0 0 .001.641ZM192.291 104.493a.32.32 0 1 0 0-.641.32.32 0 0 0 0 .641ZM191.479 104.115a.32.32 0 1 0-.321-.32c0 .177.144.32.321.32Z" />
    </g>
    <defs>
        <clipPath id="a">
            <path fill="#fff" d="M0 0h252v239H0z" />
        </clipPath>
    </defs>
</svg>