<svg xmlns="http://www.w3.org/2000/svg" viewBox="0 0 164 156" fill="none">
    <g clip-path="url(#a)">
        <path fill="#fff" fill-opacity=".3"
            d="M45.26 154.1c-50.2-2-56.39-65.71-29.66-105.31C38.19 15.28 51.63 1.08 76.32.05c41.73-1.72 74.57 47.72 83.51 90.16 13.01 61.59-5.64 68.07-114.57 63.89Z" />
        <path fill="#10253E"
            d="M126.75 113.1c-5.24 5.78-12.56 11.59-21.52 12.92a26.686 26.686 0 0 1-4.51.27l-.31-.46c-11.93-17.74 2.78-43.3 2.78-43.3a33.003 33.003 0 0 0 10.74 1.92 19.09 19.09 0 0 1 14.39 7.76 33.576 33.576 0 0 0 7.58 8 66.038 66.038 0 0 1-9.15 12.89Z" />
        <path fill="#fff"
            d="m102.5 122.95-.08-.12a23.21 23.21 0 0 1-4-11.84 37.593 37.593 0 0 1 1.18-11.68 54.312 54.312 0 0 1 4.85-12.49l.12-.22.23.1a26.63 26.63 0 0 0 8.65 1.51 15.722 15.722 0 0 1 12 6.42 27.145 27.145 0 0 0 6.11 6.41l.21.14-.11.22a55.259 55.259 0 0 1-7.76 10.92 38.021 38.021 0 0 1-9.11 7.42 23.266 23.266 0 0 1-12.1 3.17l-.19.04Zm2.3-35.64a54.721 54.721 0 0 0-4.68 12.15c-1.59 6.39-2.41 15.55 2.68 22.93 9 .18 16.17-5.55 20.63-10.4A54.419 54.419 0 0 0 131 101.4a28 28 0 0 1-6-6.4 15.206 15.206 0 0 0-11.54-6.19 27.64 27.64 0 0 1-8.66-1.5Z" />
        <path fill="#fff"
            d="M118.99 108.81a1.949 1.949 0 0 1-1.149.946 1.928 1.928 0 0 1-1.481-.146l-3.11-1.67-1.67 3.1a2.003 2.003 0 0 1-2.63.8 2 2 0 0 1-.76-2.63l1.67-3.11-3.1-1.67a1.998 1.998 0 0 1-.8-2.63 2 2 0 0 1 2.64-.79l3.11 1.67 1.75-3.34a2.001 2.001 0 0 1 2.64-.81 2 2 0 0 1 .8 2.62l-1.81 3.36 3.1 1.7a1.94 1.94 0 0 1 .8 2.6Z" />
        <path fill="#FFB300"
            d="M68.19 63.08a5.39 5.39 0 0 0 1.26 2s1.74-1.3 1.91-1.44c.17-.14 1.64.93 1.64.93l2.28 1.8c-.158.47-.212.968-.16 1.46.05.492.2.968.44 1.4.82 1.32 2.76.83 2.76.83a16.694 16.694 0 0 0-.41-3.22c-.53-1.364-1.34-2.6-2.38-3.63 0 0-2.12-2.72-3.48-3.29-1.36-.57-3.48.89-3.48.89a3.56 3.56 0 0 0-.38 2.27Z" />
        <path fill="#fff"
            d="M70.83 59.85a4 4 0 0 1 1.46.63 22.573 22.573 0 0 1 4.69 6.16 16 16 0 0 1 .54 3.51l-.06.06c.28 0 .557-.03.83-.09a15.767 15.767 0 0 0-.41-3.21 10.469 10.469 0 0 0-2.33-3.7s-2.12-2.73-3.48-3.3a2.29 2.29 0 0 0-1.24-.06ZM71 45.43a15.23 15.23 0 0 0-8.09 3.86l6.28-2.47a45.336 45.336 0 0 1 12.41-.9c.08 0-.08-.71-.31-.82-3-1-10.33.3-10.33.3l.04.03Z" />
        <path fill="#0B1B32"
            d="M78.19 52.1h.21a.27.27 0 0 1 .09.12c.01.029.01.06 0 .09.01.029.01.06 0 .09l-.06.08a.1.1 0 0 1-.07 0 1.63 1.63 0 0 1-.37.13l-.36.06c-.256.02-.514.02-.77 0a2.54 2.54 0 0 1-.77-.23 1.57 1.57 0 0 1-.63-.51.22.22 0 0 1 0-.28.24.24 0 0 1 .16-.07.201.201 0 0 1 .16.05c.142.148.317.26.51.33.193.062.39.108.59.14.216.02.434.02.65 0h.66ZM81.76 47.09a.23.23 0 0 0-.08-.18.25.25 0 0 0-.18-.08.27.27 0 0 0-.19.08.23.23 0 0 0-.08.18.27.27 0 0 0 .27.27.251.251 0 0 0 .18-.08.27.27 0 0 0 .08-.19ZM82.47 47.85a.31.31 0 0 0-.29-.29.33.33 0 0 0-.2.09.28.28 0 0 0-.08.2.3.3 0 0 0 .08.2.32.32 0 0 0 .2.08.28.28 0 0 0 .2-.08.27.27 0 0 0 .09-.2ZM81.58 48.58a.17.17 0 0 0 0-.12.16.16 0 0 0-.09-.07.251.251 0 0 0-.12 0 .21.21 0 0 0-.1.06.24.24 0 0 0-.06.22c.02.038.048.071.08.1a.22.22 0 0 0 .26 0 .2.2 0 0 0 .03-.19ZM79.28 47.99a.3.3 0 0 0-.08-.2.28.28 0 0 0-.2-.08.32.32 0 0 0-.2.08.29.29 0 0 0 0 .4.32.32 0 0 0 .2.08.28.28 0 0 0 .19-.06.299.299 0 0 0 .09-.22ZM80.11 46.83a.27.27 0 0 0-.28-.28.32.32 0 0 0-.2.08.28.28 0 0 0-.08.2.3.3 0 0 0 .17.266.27.27 0 0 0 .11.024.34.34 0 0 0 .2-.09.32.32 0 0 0 .08-.2ZM80.76 47.7a.32.32 0 0 0-.08-.2.28.28 0 0 0-.2-.08.27.27 0 0 0-.28.28.32.32 0 0 0 .08.21.3.3 0 0 0 .2.08.25.25 0 0 0 .2-.09.281.281 0 0 0 .08-.2ZM80.28 48.99a.271.271 0 0 0 0-.15.348.348 0 0 0-.11-.1.29.29 0 0 0-.16 0 .24.24 0 0 0-.13.07.27.27 0 0 0-.07.14.259.259 0 0 0 0 .15.29.29 0 0 0 .1.12.23.23 0 0 0 .14 0 .27.27 0 0 0 .14-.01.25.25 0 0 0 .09-.22ZM79.28 49.54a.277.277 0 0 0 0-.09.24.24 0 0 0-.06-.08.13.13 0 0 0-.07-.06h-.2a.19.19 0 0 0-.1 0 .271.271 0 0 0-.07.08.362.362 0 0 0 0 .11.364.364 0 0 0 0 .1l.07.09c.033.01.068.01.1 0h.1a.24.24 0 0 0 .17-.07.23.23 0 0 0 .06-.08ZM81.6 49.76a.248.248 0 0 0-.08-.18.27.27 0 0 0-.19-.08.27.27 0 0 0-.26.26c0 .071.03.14.08.19a.251.251 0 0 0 .18.08.27.27 0 0 0 .27-.27ZM77.96 47.21a.238.238 0 0 0-.07-.18.27.27 0 0 0-.38 0 .24.24 0 0 0-.07.18.26.26 0 0 0 .07.19.27.27 0 0 0 .38 0 .262.262 0 0 0 .07-.19ZM78.29 48.96a.238.238 0 0 0-.07-.18.27.27 0 0 0-.38 0 .24.24 0 0 0-.07.18.259.259 0 0 0 .07.19.27.27 0 0 0 .38 0 .26.26 0 0 0 .07-.19Z" />
        <path fill="#FFB300"
            d="M59.62 53.32c-1.84 3.18-3.94 11.31-4.56 14.08-.62 2.77-1.75 10.81-1.75 10.81l-.39 5.82a16.001 16.001 0 0 1-4.33-3.3c-2-2.23-3.1-6.89-3.1-6.89s1.19.54 2.63-1.65-1.55-7.42-5.43-5.77c-3.88 1.65-3.3 7.57-1.85 11.38 1.45 3.81 3.86 5.9 8.93 7.91a15.54 15.54 0 0 0 9.06 1c1 1.24 6.15.65 6.15.65l3.52.06h1.69l3.29.09s3.06.3 3.39-.74c.33-1.04-.78-1.91-2-2.6-1.22-.69-3.86.94-3.86.94l-2.9-1.21c.61-.51 3.17-2.64 3.19-5.47a4.9 4.9 0 0 0-.56-2.34 4.72 4.72 0 0 0-1.65-1.88c-.63-1.14-.83-4.8-.83-4.8a9.814 9.814 0 0 1 1.95.82 5 5 0 0 1 1.58 2.41c.16.57-.63.64-.42 2.33.21 1.69 2.59 1.86 2.59 1.86s.36.1.24-3.65-4.12-7.41-4.12-7.41c-2.87-2.89-1.47-5-1.47-5 0-1 .72-2 2.61-3.3 1.89-1.3 7.2-2.85 7.2-2.85s3.81-1.75 4.42-5.35c.61-3.6-1.26-4.12-1.48-4.25-3-1-10.34.3-10.34.3a16.19 16.19 0 0 0-11.4 8Z" />
        <path fill="#fff"
            d="M54.25 71.68a67.036 67.036 0 0 0-.95 8.36c.3-2.65 1.17-2 2.12-2.34 1.65-.61-.32-5.7.51-6.47.83-.77 2.21 1.14 3.14.67 1.34-.67-.93-2.6-2.08-4.58a7.21 7.21 0 0 1-.57-4.64s-1.39 4.67-2.17 9ZM70.06 77.85a7 7 0 0 1-1 4.78l.38-.15a6.58 6.58 0 0 0 1.85-4.17 4.77 4.77 0 0 0-2.24-4.1c0-.08-.08-.16-.11-.24l-.33.14a4.88 4.88 0 0 0-1.84-.68 4.761 4.761 0 0 0-1.95.11s4.73.9 5.24 4.31ZM68.06 62.42s-.65 1.48.05 2.34c.7.86 2.47 2.89 3.59 4.35a7.16 7.16 0 0 1 1.73 4.71c-.14 1.52-.45 2.88.48 3 .08-.07.32-.51.22-3.64-.1-3.77-4.11-7.42-4.11-7.42a9.58 9.58 0 0 1-1-1.21 4 4 0 0 1-.96-2.13ZM46.3 69.21a4.57 4.57 0 0 1 .14 4.42l.13.06a4.27 4.27 0 0 0 1.55-1.55c1.44-2.22-1.6-7.36-5.43-5.77a3.79 3.79 0 0 0-1.16.73 4.63 4.63 0 0 1 4.77 2.11Z" />
        <path fill="#0B1B32"
            d="M66.74 44.95a.52.52 0 0 1-.22-.07.51.51 0 0 1-.24-.26.53.53 0 0 1 0-.35 2.64 2.64 0 0 1 1.36-1.39 2.6 2.6 0 0 1 1.94-.07.47.47 0 0 1 .25.23.43.43 0 0 1 0 .36.24.24 0 0 1-.09.15.45.45 0 0 1-.14.1.28.28 0 0 1-.18 0 .25.25 0 0 1-.17 0 1.67 1.67 0 0 0-1.26.08 1.64 1.64 0 0 0-.83.94.44.44 0 0 1-.17.19.62.62 0 0 1-.24.08l-.01.01Z" />
        <path fill="#0B1B32"
            d="M41.9 80.39a16.13 16.13 0 0 0 7.71 5.49c1.045.389 2.123.683 3.22.88.346.072.697.118 1.05.14.712.097 1.43.143 2.15.14a15.1 15.1 0 0 0 2.68-.24c.41.402.948.647 1.52.69.82.08 2.51.06 4.34 0s3.91-.08 5.23 0c0 0 1.5.08 3.08.08s3.4-.1 3.9-.48a.9.9 0 0 0 .26-.41.82.82 0 0 0 0-.49 3.55 3.55 0 0 0-.85-1.48 3.46 3.46 0 0 0-1.43-.92 2.57 2.57 0 0 0-1.17-.06 2 2 0 0 0-.75-.73 2.13 2.13 0 0 0-1-.27 2.38 2.38 0 0 0-1.34.55 1.22 1.22 0 0 1-.56.3h-1.4a8.281 8.281 0 0 0 2.35-3.14 5.11 5.11 0 0 0-.41-5.07 5 5 0 0 0-1.29-1.31 18.499 18.499 0 0 1-.83-4.31l1.14.49a4.48 4.48 0 0 1 1.93 2.47 2 2 0 0 1-.17.53 2.538 2.538 0 0 0-.33 1c-.03.367.021.735.15 1.08a3.08 3.08 0 0 0 1.11 1.27 3 3 0 0 0 1.6.47.19.19 0 0 0 .14 0 .22.22 0 0 0 .08-.13c.166-1.22.253-2.45.26-3.68.14-2.65-2.84-6-4.44-7.79-.08-.08-.16-.19-.24-.27.439-.43.921-.811 1.44-1.14h.2c.231.05.45.15.64.29l.5.34a30.688 30.688 0 0 1 2.47 2c-.1.51-.41 2.25.46 3.17.257.26.563.468.9.61.337.148.702.22 1.07.21.315-.001.629-.048.93-.14a.31.31 0 0 0 .11-.09.33.33 0 0 0 0-.14 12.582 12.582 0 0 0-.67-4c-.61-1.2-3.36-5.14-4.94-6.07a3.4 3.4 0 0 0-3.02-.05c-.325.12-.637.275-.93.46l.06-.12c1-2.47 3.91-3.54 8.64-5a8.361 8.361 0 0 0 3.24-2 8.202 8.202 0 0 0 2-3.2 5.36 5.36 0 0 0 .09-3.66 2.26 2.26 0 0 0 1-.41 2.3 2.3 0 0 0 .77-.95c.173-.375.246-.789.21-1.2a2.27 2.27 0 0 0-.52-1.22 1.87 1.87 0 0 0-.66-.59 1.998 1.998 0 0 0-.83-.23 2.239 2.239 0 0 0-.95.22 2.417 2.417 0 0 0-.77.61 2.84 2.84 0 0 0-.55.91c-.112.321-.166.66-.16 1a26.997 26.997 0 0 0-7.46.2c-2.58.34-5.15.83-7.68 1.4.458-2.336.29-4.751-.49-7-1.07-2.67-3.24-1.59-3.36.08-.21 2.91 1.58 6.18 2.33 7.42-.13.088-.254.185-.37.29-.36-.72-2.15-4.06-2.68-4.24a3.21 3.21 0 0 0-2.14.14c-.26.27-1.2 1.37-1.42 4.64-.22 3.27 1.3 4.06 2.27 3.63.97-.43 1.47-4.73 1.47-4.73l1.5 1.7a26.59 26.59 0 0 0-2.87 4.88 65.397 65.397 0 0 0-4.67 14.43 82.232 82.232 0 0 0-2 15.94c-2.78-1-4.51-3.51-5.48-5.48a20.597 20.597 0 0 1-1.46-4.12 3.59 3.59 0 0 0 2-1c1.12-1.07 1.22-2.93.25-4.62a4.54 4.54 0 0 0-5.18-2.3c-.705.257-1.34.68-1.85 1.23a4.53 4.53 0 0 0-1.06 2c-1.09 3.24-.26 7.92 1.93 11.1Zm27.47-15.57-.2-.24a3.091 3.091 0 0 1-.57-3.38c.413-.3.86-.552 1.33-.75a2.869 2.869 0 0 1 1.31-.31c.455-.005.905.102 1.31.31 1.5.83 4.12 4.59 4.83 5.89a12 12 0 0 1 .6 3.66 2.332 2.332 0 0 1-1.2 0 2.35 2.35 0 0 1-1-.6c-.82-.83-.32-2.85-.32-2.87.01-.04.01-.08 0-.12a.33.33 0 0 0-.06-.1s-.83-.75-1.74-1.44c-.33-.25-.6-.46-.83-.61a.58.58 0 0 1-.23-.28.559.559 0 0 1 0-.36.511.511 0 0 0 0-.3.5.5 0 0 0-.18-.23c-.35-.18-1 .27-1.4.57-.548.348-1.073.732-1.57 1.15l-.08.01Zm-29.06 4.74a4.358 4.358 0 0 1 1-1.75 4.25 4.25 0 0 1 1.65-1.12 4.06 4.06 0 0 1 4.63 2.11c.74 1.26 1 3-.15 4a3 3 0 0 1-3.21.75 4.49 4.49 0 0 1-1.52-.82h-.22a2.56 2.56 0 0 0 1.43 2.18 8.84 8.84 0 0 1 3 3.38c.14.28.25.49.27.51 1.48 2.77 3.46 4.62 5.76 5.33h.06a.28.28 0 0 0 .15 0 .242.242 0 0 0 .06-.08.17.17 0 0 0 0-.1c-.08-1.82.23-7.51 2-16.17a67.2 67.2 0 0 1 4.11-13.19 8.62 8.62 0 0 0 9.31.09c4.38-2.75 3.15-8 2.8-9.14.55-.1 1.11-.16 1.65-.24a25.857 25.857 0 0 1 7.52-.17 2 2 0 0 0 .77.9 2.75 2.75 0 0 0 1.1.43 4.78 4.78 0 0 1 0 3.49 7.791 7.791 0 0 1-5 4.85c-4.85 1.53-7.85 2.65-8.92 5.29-1.07 2.64-.37 3.81.33 4.68.16.23.44.52.76.9 1.57 1.75 4.47 5 4.34 7.47-.1 2.15-.18 3-.22 3.42a2.52 2.52 0 0 1-1.25-.42 2.71 2.71 0 0 1-.88-1 2.29 2.29 0 0 1-.1-.9 2.24 2.24 0 0 1 .29-.87 1.47 1.47 0 0 0 .18-.82 5 5 0 0 0-2.17-2.8c-.35-.16-.82-.34-1.26-.53l-.29-.01h-.05a7.6 7.6 0 0 1-2.47-1.3.24.24 0 0 0-.14-.1.2.2 0 0 0-.15 0 .29.29 0 0 0-.11.11.19.19 0 0 0 0 .15c0 .1.07.21.08.31l.09.44a7.488 7.488 0 0 1-1.27-1.83.19.19 0 0 0-.09-.11.25.25 0 0 0-.17 0 .22.22 0 0 0-.13.08.26.26 0 0 0-.05.17c.019.333.019.667 0 1l-.65-1.1a10.94 10.94 0 0 1-1.28-4.95.2.2 0 0 0 0-.16.18.18 0 0 0-.07 0 .11.11 0 0 0-.08 0H61.58a.18.18 0 0 0 0 .07.239.239 0 0 0 0 .08 10.26 10.26 0 0 0 1 4.46c.05.13.1.25.16.37a4.89 4.89 0 0 0 .71 2.32 7.77 7.77 0 0 0 5 3.38c.06.36.15.72.24 1.07a5.66 5.66 0 0 0-2.47-.53 9.348 9.348 0 0 0-3.1.57h-.06a.22.22 0 0 0-.13.08.419.419 0 0 0-.06.14.24.24 0 0 0 .22.23c.056.01.114.01.17 0 1.46-.51 5-1.41 7.06 1.45.459.67.731 1.45.79 2.26a4.53 4.53 0 0 1-.43 2.35 7.79 7.79 0 0 1-3.14 3.62l-.65.37c-.537.268-1.11.46-1.7.57h-.09v.19h.09c.6 0 5.77.15 6.41 0 .238-.072.464-.18.67-.32a3.409 3.409 0 0 1 2.59-.65 3.09 3.09 0 0 1 1.95 2 .53.53 0 0 1-.11.47c-.51.42-3.85.49-6.65.3-1.34-.07-3.29 0-5.27 0-1.8 0-3.51.07-4.28 0a1.85 1.85 0 0 1-.91-.27 1.77 1.77 0 0 1-.63-.7 2.079 2.079 0 0 1 .05-1.08 2 2 0 0 1 .6-.9.25.25 0 0 0 .05-.16.24.24 0 0 0-.23-.23 2.77 2.77 0 0 0-1.9 1.43 3.79 3.79 0 0 1-3.49 1.35h-.27a19.646 19.646 0 0 1-3.93-1 15.67 15.67 0 0 1-7.48-5.33 12.331 12.331 0 0 1-2.05-10.33v.01Z" />
        <path fill="#fff"
            d="M68.97 49.56a2 2 0 0 0-.34-1.13 2 2 0 0 0-.92-.75 2 2 0 0 0-2.77 1.53 2 2 0 0 0 .12 1.18c.153.372.414.689.75.91a2 2 0 0 0 1.13.34 2 2 0 0 0 1.43-.6 2.002 2.002 0 0 0 .6-1.48Z" />
        <path fill="#0B1B32"
            d="M68.64 48.21a1.95 1.95 0 0 0-2.47-.6 2 2 0 0 0 .61 1.31 2 2 0 0 0 2.26.36 1.88 1.88 0 0 0-.4-1.07Z" />
        <path fill="#fff"
            d="M84.09 43.3c.13-.19-.06-.54-.43-.82-.37-.28-.78-.32-.9-.14s.06.55.43.83c.37.28.77.34.9.13Z" />
        <path fill="#FFB300" d="M60.79 92.02v12.37h2.89V92.02" />
        <path fill="#0B1B32"
            d="M63.68 104.64h-2.89a.195.195 0 0 1-.14-.06.18.18 0 0 1 0-.07.19.19 0 0 1 0-.08V92.07a.19.19 0 0 1 0-.08.18.18 0 0 1 0-.07h.22a.18.18 0 0 1 .07 0 .162.162 0 0 1 0 .07.19.19 0 0 1 0 .08v12.2h2.47v-12.2a.11.11 0 0 1 0-.08.159.159 0 0 1 0-.07.18.18 0 0 1 .07 0h.15a.26.26 0 0 1 .12.12.193.193 0 0 1 0 .08v12.31a.193.193 0 0 1 0 .08.18.18 0 0 1-.05.07.195.195 0 0 1-.15.06h.13Z" />
        <path fill="#FFB300" d="M53.91 89.96c3.3.68 3.7 2.62 8.24 2.62s4.94-1.94 8.24-2.62" />
        <path fill="#0B1B32"
            d="M62.19 92.76a9.43 9.43 0 0 1-5.33-1.42 10.004 10.004 0 0 0-3-1.21.09.09 0 0 1-.07 0 .089.089 0 0 1-.06-.06v-.22l.06-.06h.14c1.092.244 2.136.666 3.09 1.25a10.34 10.34 0 0 0 10.25 0 10.238 10.238 0 0 1 3.09-1.25.22.22 0 0 1 .16 0 .34.34 0 0 1 .06.06v.07a.22.22 0 0 1 0 .08.172.172 0 0 1 0 .07.09.09 0 0 1-.06.06.109.109 0 0 1-.07 0c-1.06.238-2.072.647-3 1.21a9.37 9.37 0 0 1-5.26 1.42Z" />
        <path fill="#0B1B32"
            d="M77.73 86.37H46.62a1.79 1.79 0 0 0 0 3.57h31.11a1.8 1.8 0 0 0 1.19-3.02 1.77 1.77 0 0 0-1.19-.55Z" />
        <path fill="#FFB300"
            d="M82.61 135.21h-1.79a.558.558 0 0 1-.39-.17.55.55 0 0 1-.16-.38v-3.67a4.001 4.001 0 0 0-.4-1.78 4.142 4.142 0 0 0-1.14-1.42l-13.31-10.58a7.002 7.002 0 0 1-1.86-2.26 7.152 7.152 0 0 1-.77-2.82l2.89-.17a4 4 0 0 0 .45 1.65c.255.505.617.949 1.06 1.3l13.31 10.57a6.92 6.92 0 0 1 1.94 2.48c.456.934.692 1.96.69 3v3.67a.54.54 0 0 1-.15.38.55.55 0 0 1-.37.2ZM41.73 135.21h1.79a.558.558 0 0 0 .39-.17.549.549 0 0 0 .16-.38v-3.67a4 4 0 0 1 1.54-3.2l13.31-10.58a7.005 7.005 0 0 0 2.63-5.08l-2.88-.17a4.112 4.112 0 0 1-.46 1.65 4 4 0 0 1-1.08 1.33l-13.31 10.57a6.943 6.943 0 0 0-1.95 2.48 6.798 6.798 0 0 0-.69 3v3.67c.002.143.06.279.16.38a.52.52 0 0 0 .39.17Z" />
        <path fill="#0B1B32"
            d="M41.19 133.59h2.92v1.1a.592.592 0 0 1-.17.4.537.537 0 0 1-.39.15h-1.81a.53.53 0 0 1-.21 0 .57.57 0 0 1-.18-.12.408.408 0 0 1-.12-.18.573.573 0 0 1 0-.22l-.04-1.13ZM82.61 135.38h-1.79a.748.748 0 0 1-.53-.22.724.724 0 0 1-.23-.53v-3.67a4.08 4.08 0 0 0-.37-1.69 3.87 3.87 0 0 0-1.09-1.35l-13.31-10.58a7.213 7.213 0 0 1-2.7-5.23.14.14 0 0 1 0-.09v-.06h.15l2.88-.17h.15c.022.019.04.043.05.07v.08a3.787 3.787 0 0 0 1.46 2.82l13.31 10.58a7.122 7.122 0 0 1 2 2.51 7 7 0 0 1 .7 3.12v3.67c.02.096.02.194 0 .29a.721.721 0 0 1-.68.45Zm-19.57-23.09a6.788 6.788 0 0 0 2.53 4.72l13.32 10.58c.5.408.907.92 1.19 1.5.284.582.427 1.223.42 1.87v3.67a.41.41 0 0 0 .218.311.316.316 0 0 0 .132.029h1.78a.323.323 0 0 0 .25-.11.385.385 0 0 0 .08-.1.689.689 0 0 0 0-.13v-3.67a6.57 6.57 0 0 0-.67-3 6.68 6.68 0 0 0-1.89-2.36l-13.31-10.59a4.102 4.102 0 0 1-1.09-1.29 4.347 4.347 0 0 1-.51-1.65l-2.45.22Z" />
        <path fill="#0B1B32"
            d="M43.52 135.38h-1.79a.708.708 0 0 1-.29 0 .799.799 0 0 1-.25-.17.656.656 0 0 1-.17-.24.749.749 0 0 1-.06-.29v-3.67a7.168 7.168 0 0 1 2.71-5.63l13.32-10.59c.419-.34.76-.767 1-1.25a3.917 3.917 0 0 0 .43-1.57v-.08a.149.149 0 0 1 .05-.06h.15l2.88.16h.08a.165.165 0 0 1 .07 0 .159.159 0 0 1 0 .07v.08a7.193 7.193 0 0 1-2.7 5.23l-13.29 10.55c-.46.36-.83.822-1.08 1.35a3.94 3.94 0 0 0-.38 1.69v3.67a.717.717 0 0 1-.23.53.75.75 0 0 1-.45.22Zm15.34-23.17a4.149 4.149 0 0 1-.52 1.64c-.269.49-.633.922-1.07 1.27L43.95 125.7a6.67 6.67 0 0 0-2.56 5.31v3.67a.21.21 0 0 0 0 .13.37.37 0 0 0 .32.21h1.79a.348.348 0 0 0 .24-.11.329.329 0 0 0 .1-.23v-3.67a4.44 4.44 0 0 1 .42-1.87 4.102 4.102 0 0 1 1.21-1.5l13.31-10.58a6.792 6.792 0 0 0 2.53-4.72l-2.45-.13Z" />
        <path fill="#FFB300"
            d="M60.79 109.12v25.51a.52.52 0 0 0 0 .21.635.635 0 0 0 .51.34h1.89a.53.53 0 0 0 .38-.17.549.549 0 0 0 .16-.38v-25.51" />
        <path fill="#0B1B32"
            d="M60.79 133.59h2.89v1.1a.71.71 0 0 1 0 .21.572.572 0 0 1-.12.18.366.366 0 0 1-.39.12h-1.8a.538.538 0 0 1-.38-.15.558.558 0 0 1-.13-.18.853.853 0 0 1 0-.22l-.07-1.06Z" />
        <path fill="#0B1B32"
            d="M63.19 135.38h-1.8a.752.752 0 0 1-.75-.75v-25.51a.22.22 0 0 1 0-.08v-.07h.06a.11.11 0 0 1 .08 0 .11.11 0 0 1 .08 0h.07a.249.249 0 0 1 0 .07.239.239 0 0 1 0 .08v25.51a.589.589 0 0 0 0 .13.37.37 0 0 0 .08.1.27.27 0 0 0 .11.08c.043.01.087.01.13 0h1.94c.043.01.087.01.13 0a.272.272 0 0 0 .11-.08.228.228 0 0 0 .07-.1.35.35 0 0 0 0-.13v-25.51a.22.22 0 0 1 0-.08l.05-.07h.07a.104.104 0 0 1 .035-.007c.012 0 .024.003.035.007a.11.11 0 0 1 .08 0h.07a.249.249 0 0 1 0 .07.239.239 0 0 1 0 .08v25.51a.768.768 0 0 1-.65.75Z" />
        <path fill="#FFB300"
            d="M65.34 104.43H59a.386.386 0 0 0-.29.12.45.45 0 0 0-.12.29v8.25a.45.45 0 0 0 .12.29.398.398 0 0 0 .29.12h6.34a.41.41 0 0 0 .41-.41v-8.25a.41.41 0 0 0-.41-.41Z" />
        <path fill="#0B1B32"
            d="M65.34 113.74H59a.615.615 0 0 1-.566-.384.605.605 0 0 1-.044-.236v-8.24a.59.59 0 0 1 .18-.44.582.582 0 0 1 .43-.18h6.34a.57.57 0 0 1 .43.18.593.593 0 0 1 .19.44v8.24a.63.63 0 0 1-.62.62ZM59 104.67h-.08a.151.151 0 0 0-.06 0 .181.181 0 0 0-.05.07.193.193 0 0 0 0 .08v8.24a.2.2 0 0 0 .06.14c.02.004.04.004.06 0h6.57a.239.239 0 0 0 .05-.14v-8.18a.19.19 0 0 0 0-.08.159.159 0 0 0 0-.07h-6.49l-.06-.06ZM60.79 94.46s1.8-1.18 2.89-.29v-1.65c-.96.11-1.93.11-2.89 0v1.94Z" />
        <path fill="#0B1B32"
            d="M60.79 94.66h-.14v-.07a.22.22 0 0 1 0-.08v-2a.14.14 0 0 1 0-.09.152.152 0 0 1 .05-.06.15.15 0 0 1 .09 0h.09c.937.1 1.883.1 2.82 0h.08a.12.12 0 0 1 .08 0 .15.15 0 0 1 .05.06v1.73a.2.2 0 0 1 0 .11l-.09.08h-.12l-.1-.05c-1-.83-2.63.29-2.65.3a.16.16 0 0 1-.16.07Zm.21-1.9v1.34a3.001 3.001 0 0 1 1.2-.42 3 3 0 0 1 1.27.12v-1c-.823.067-1.65.054-2.47-.04Z" />
        <path fill="#fff"
            d="M58.59 105.95a18.993 18.993 0 0 1 7.16-.13c0-.82.36-1.32-.75-1.38-1.11-.06-5.77 0-5.77 0a.615.615 0 0 0-.553.191.615.615 0 0 0-.137.569c.13.82.05.75.05.75Z" />
        <path fill="#0B1B32"
            d="M65.34 113.74H59a.615.615 0 0 1-.566-.384.605.605 0 0 1-.044-.236v-8.24a.59.59 0 0 1 .18-.44.582.582 0 0 1 .43-.18h6.34a.57.57 0 0 1 .43.18.593.593 0 0 1 .19.44v8.24a.63.63 0 0 1-.62.62ZM59 104.67h-.08a.151.151 0 0 0-.06 0 .181.181 0 0 0-.05.07.193.193 0 0 0 0 .08v8.24a.2.2 0 0 0 .06.14c.02.004.04.004.06 0h6.57a.239.239 0 0 0 .05-.14v-8.18a.19.19 0 0 0 0-.08.159.159 0 0 0 0-.07h-6.49l-.06-.06ZM80.27 133.52h2.92v1.11a.509.509 0 0 1 0 .21.558.558 0 0 1-.3.3.53.53 0 0 1-.21 0h-1.8a.557.557 0 0 1-.38-.16.469.469 0 0 1-.13-.18.785.785 0 0 1 0-.21l-.1-1.07Z" />
        <path fill="#0E2138"
            d="M61.39 54.82a2.47 2.47 0 0 0 .09 2.63c-.58 1.64-1.54 5.21.85 6.6 1.33.77 22.9 9.31 32.19 4.26.09.06.16.14.25.19 2.44 1.43 7.87 2.4 9.43-.28 1.56-2.68-2-6.93-4.39-8.35-.09-.06-.2-.08-.29-.13-.19-10.53-18.23-25.14-19.56-25.92-2.38-1.39-5 1.2-6.16 2.51a2.48 2.48 0 0 0-2.34 1.21 2.502 2.502 0 0 0 2.797 3.679 2.498 2.498 0 0 0 1.859-2.285 2.46 2.46 0 0 0-.226-1.154c1.06-1.12 2.35-2.07 2.81-1.8 1.93 1.13 17.8 14.84 18.3 23.51a3.77 3.77 0 0 0-1.7 1.68c-.13.21-.27.44-.4.67-.25.47-.54 1-.82 1.42-.15.23-.27.46-.4.68a3.79 3.79 0 0 0-.62 2.3c-7.79 3.84-27.54-3.22-29.47-4.35-.44-.26-.31-1.76.18-3.33a2.49 2.49 0 1 0-2.38-3.74Zm46.86-23.3a8.747 8.747 0 0 0 .605 9.695 8.747 8.747 0 0 0 13.507.506 8.748 8.748 0 0 0-11.844-12.766 8.767 8.767 0 0 0-2.268 2.565Zm4.32 2.52a3.752 3.752 0 0 1 5.717-.878 3.751 3.751 0 0 1-.221 5.78 3.745 3.745 0 0 1-5.899-2.035 3.76 3.76 0 0 1 .403-2.867Zm-5.67 34.17c-.116.46-.297.902-.54 1.31a4.81 4.81 0 0 1-.67.92c5.56 2.62 14.76 4.69 22.44-8.48 6.23-10.66 1.43-17.69-2.23-21.05-.11.23-.24.49-.37.72-.3.484-.634.945-1 1.38 3.1 3 6.62 8.8 1.43 17.69-6.14 10.51-12.9 10.28-19.06 7.51Z" />
    </g>
    <defs>
        <clipPath id="a">
            <path fill="#fff" d="M0 0h163.44v155.11H0z" />
        </clipPath>
    </defs>
</svg>