<svg xmlns="http://www.w3.org/2000/svg" width="215" height="204" fill="none">
    <g clip-path="url(#a)">
        <path fill="#fff" fill-opacity=".3"
            d="M59.56 202.69c-66.034-2.631-74.181-86.428-39.018-138.517C50.25 20.091 67.935 1.403 100.418.052c54.885-2.267 98.091 62.77 109.853 118.55 17.114 81.072-7.481 89.589-150.71 84.088Z" />
        <path fill="#FFB300" d="M155.261 119.653h-4.083v60.159h4.083v-60.159Z" />
        <path fill="#0B1B32"
            d="M155.262 180.082h-4.063a.25.25 0 0 1-.187-.073.295.295 0 0 1-.073-.177v-60.179a.26.26 0 0 1 .019-.096.261.261 0 0 1 .054-.081.256.256 0 0 1 .187-.083h4.073a.238.238 0 0 1 .177.083.217.217 0 0 1 .073.177v60.159a.164.164 0 0 1 0 .093.231.231 0 0 1 0 .083l-.094.063-.166.031Zm-3.824-.499h3.564v-59.681h-3.533l-.031 59.681Z" />
        <path fill="#FFB300"
            d="M155.626 178.481h-4.873l-26.144 9.785c-4.312 1.102 11.97 4.555 28.347 4.732 16.823.187 33.76-2.922 28.544-4.742l-25.874-9.775Z" />
        <path fill="#fff"
            d="M149.984 178.772s-15.711 7.196-15.14 9.193c.572 1.996 2.255 3.67 6.443 4.44-7.918-.51-17.665-2.641-17.385-3.858 1.86-.666 26.082-9.775 26.082-9.775Z" />
        <path fill="#0B1B32"
            d="M154.452 193.268h-1.475a143.514 143.514 0 0 1-19.92-1.674c-3.439-.572-9.227-1.664-9.352-2.829-.062-.488.624-.676.873-.738l26.113-9.786h5.05l25.863 9.786c.291.114 1.226.437 1.112 1.04-.25 1.383-6.131 2.423-9.622 2.912-6.2.833-12.449 1.25-18.704 1.247l.062.042Zm-30.248-4.555c.478 1.04 13.508 3.858 28.793 4.035 15.587.177 29.002-2.36 29.261-3.733 0-.083-.135-.291-.789-.51l-25.843-9.733h-4.79l-26.081 9.775a1.259 1.259 0 0 0-.551.166ZM151.105 121.504s2.827.478 4.043 4.918c.072-2.225.249-5.116.249-5.116l-4.292.198Z" />
        <path fill="#0B1B32"
            d="m155.033 178.626 19.13 12.916 6.183-1.383-24.409-11.668-.904.135ZM154.587 178.584l16.501 13.28-4.645.551-12.625-13.831h.769ZM193.282 117.677v-3.245h-22.444c-5.31-.249-11.285-.385-17.592-.385-6.307 0-12.293.136-17.602.385h-22.539v3.546h.073c.79 2.08 18.413 3.661 40.057 3.661 22.144 0 40.089-1.706 40.089-3.806a.454.454 0 0 0 0-.156h-.042Z" />
        <path fill="#0B1B32"
            d="M153.236 121.888c-18.433 0-38.53-1.279-40.213-3.681a.21.21 0 0 1-.125-.083.359.359 0 0 1 0-.146v-3.546c0-.033.006-.065.018-.096a.264.264 0 0 1 .055-.081.288.288 0 0 1 .177-.072h22.538c5.486-.25 11.43-.385 17.592-.385 6.162 0 12.105.125 17.602.385h22.445a.25.25 0 0 1 .176.072c.05.046.08.11.083.177v3.203c.01.066.01.132 0 .198 0 .447 0 1.809-11.97 2.943-7.585.707-17.675 1.112-28.378 1.112Zm-39.88-4.086c.022.024.04.052.052.083.654 1.695 16.812 3.504 39.828 3.504 10.703 0 20.782-.395 28.326-1.112 11.191-1.04 11.503-2.299 11.503-2.444a.092.092 0 0 0 0-.052.362.362 0 0 1 0-.104v-2.995h-22.237c-5.507-.25-11.43-.385-17.592-.385-6.162 0-12.084.135-17.581.385h-22.299v3.12Z" />
        <path fill="#FFB300"
            d="M153.215 118.509c22.144 0 40.089-1.706 40.089-3.796s-17.945-3.806-40.089-3.806c-22.143 0-40.088 1.705-40.088 3.806s17.945 3.796 40.088 3.796Z" />
        <path fill="#0B1B32"
            d="M153.215 118.758c-10.713 0-20.782-.395-28.378-1.112-11.96-1.134-11.96-2.496-11.96-2.933 0-.437 0-1.809 11.97-2.943 7.575-.718 17.665-1.113 28.368-1.113 10.702 0 20.782.395 28.378 1.113 11.97 1.134 11.97 2.496 11.97 2.943 0 .447 0 1.799-11.96 2.933-7.596.717-17.665 1.112-28.388 1.112Zm0-7.602c-10.703 0-20.782.396-28.326 1.124-11.191 1.039-11.513 2.287-11.513 2.433 0 .146.322 1.373 11.513 2.433 7.575.718 17.665 1.113 28.326 1.113 10.661 0 20.782-.395 28.326-1.113 11.191-1.04 11.523-2.298 11.523-2.433 0-.135-.322-1.383-11.513-2.433-7.575-.728-17.613-1.103-28.336-1.103v-.021Z" />
        <path fill="#fff"
            d="M137.961 105.78a13.234 13.234 0 0 1-5.05 9.453 1.025 1.025 0 0 0-.312.385c-.081.15-.124.318-.125.488a.71.71 0 0 1 0 .26.62.62 0 0 1-.145.208.687.687 0 0 1-.208.146.551.551 0 0 1-.249 0h-5.622a.584.584 0 0 1-.457-.198.668.668 0 0 1-.198-.468v-.135a1.212 1.212 0 0 0-.104-.478 1.024 1.024 0 0 0-.311-.374 13.198 13.198 0 0 1-4.707-9.36.68.68 0 0 1 0-.291.619.619 0 0 1 .156-.249.708.708 0 0 1 .228-.167.666.666 0 0 1 .281 0h16.106a.888.888 0 0 1 .291 0 .757.757 0 0 1 .228.177c.071.07.124.155.156.25a.96.96 0 0 1 .042.353Z" />
        <path fill="#fff"
            d="M139.924 106.269a7.256 7.256 0 0 0-2.078.717c.088-.385.116-.781.083-1.175 0 0 .239-.904-.956-.811-1.195.094-12.365.083-12.365.083a.877.877 0 0 0-.964.503.862.862 0 0 0-.075.381 9.235 9.235 0 0 0 1.6 4.732 10.515 10.515 0 0 1 1.953 4.357c0 1.446.541 1.633.541 1.633l4.011.083s.8.27.883-.811c.083-1.082.603-.676 1.039-1.248.198-.26.8-.811 1.465-1.602 4.572 1.228 7.274-1.851 7.274-3.951 0-2.101-.987-2.891-2.411-2.891Zm-3.19 5.771a5.784 5.784 0 0 1-.862-.062c.553-.783.99-1.641 1.299-2.548.135-.395.239-.749.322-1.04.503-.085.99-.246 1.444-.478.311-.16.644-.276.987-.343.426 0 1.039 0 1.039 1.622.021 1.133-1.475 2.849-4.229 2.849Z" />
        <path fill="#0B1B32"
            d="M139.925 105.978a4.15 4.15 0 0 0-1.59.478l-.197.094c0-.26.062-.51.072-.77a1.03 1.03 0 0 0-.052-.405 1.05 1.05 0 0 0-.207-.344 1.189 1.189 0 0 0-.323-.239 1.05 1.05 0 0 0-.394-.083h-16.106a1.039 1.039 0 0 0-.385.083 1.041 1.041 0 0 0-.592.967 13.583 13.583 0 0 0 4.811 9.557c.099.08.18.179.239.291a.985.985 0 0 1 .083.354v.135a.964.964 0 0 0 .26.666.933.933 0 0 0 .654.27h5.622a.906.906 0 0 0 .846-.576.944.944 0 0 0 .068-.36.897.897 0 0 1 .083-.364.835.835 0 0 1 .25-.291 12.737 12.737 0 0 0 2.078-2.08h.249a7.783 7.783 0 0 0 1.632.177 5.899 5.899 0 0 0 3.273-.926 4.6 4.6 0 0 0 2.213-3.567c-.01-2.641-1.621-3.067-2.587-3.067Zm-8.105 10.513h-5.622a.384.384 0 0 1-.27-.114.403.403 0 0 1-.114-.281v-.135a1.168 1.168 0 0 0 0-.187h6.453a1.086 1.086 0 0 0 0 .322.409.409 0 0 1-.115.281.395.395 0 0 1-.27.114h-.062Zm.925-1.487a1.132 1.132 0 0 0-.229.219h-6.92a1.497 1.497 0 0 0-.302-.333 12.981 12.981 0 0 1-4.613-9.162.479.479 0 0 1 0-.177.444.444 0 0 1 .093-.145.51.51 0 0 1 .146-.115.52.52 0 0 1 .176 0h16.106a.526.526 0 0 1 .177 0 .555.555 0 0 1 .146.104.555.555 0 0 1 .103.167.37.37 0 0 1 0 .187 12.94 12.94 0 0 1-4.935 9.255h.052Zm4.967-6.416c.46-.101.907-.258 1.33-.468.281-.14.577-.248.883-.322.374 0 .8 0 .8 1.351 0 .936-1.34 2.611-3.99 2.611h-.416a13.47 13.47 0 0 0 1.393-3.12v-.052Zm2.296 3.681a5.525 5.525 0 0 1-3.325.832c.237-.232.428-.507.561-.811 2.587-.208 4.011-1.924 4.011-3.12 0-1.674-.676-1.903-1.33-1.903a3.442 3.442 0 0 0-1.039.375h-.104c.17-.427.467-.79.852-1.04.114-.016.229-.016.343 0 1.351 0 2.078.884 2.078 2.62a4.003 4.003 0 0 1-2.016 3.058l-.031-.011Z" />
        <path fill="#0B1B32"
            d="M191.839 122.98h-79.522a3.19 3.19 0 0 1-3.19-3.192 3.194 3.194 0 0 1 3.19-3.193h79.522a2.98 2.98 0 0 1 2.28.892 2.975 2.975 0 0 1 .838 2.301 3.124 3.124 0 0 1-3.118 3.192Z" />
        <path fill="#FFB300"
            d="M87.856 35.856c0-7.565 3.002-14.82 8.348-20.17a28.492 28.492 0 0 1 20.154-8.355 28.49 28.49 0 0 1 20.154 8.355 28.533 28.533 0 0 1 8.348 20.17" />
        <path fill="#0B1B32"
            d="M145.163 35.856h-.613a28.236 28.236 0 0 0-8.447-19.606 28.188 28.188 0 0 0-39.498 0 28.234 28.234 0 0 0-8.447 19.606h-.613a28.848 28.848 0 0 1 8.629-20.036 28.802 28.802 0 0 1 40.36 0 28.848 28.848 0 0 1 8.629 20.036Z" />
        <path fill="#FFB300" d="M144.923 35.94H87.856v57.07h57.067V35.94Z" />
        <path fill="#0B1B32"
            d="M145.236 93.311H87.545V35.638h57.691V93.31Zm-57.078-.613h56.465V36.303H88.158v56.395Z" />
        <path fill="#0B1B32" d="M145.027 64.007H87.648v.624h57.379v-.624Z" />
        <path fill="#0B1B32" d="M116.702 35.877h-.624v57.3h.624v-57.3Z" />
        <path fill="#FFB300"
            d="M88.302 94.539a6.698 6.698 0 0 0 1.59 2.568s2.192-1.643 2.4-1.82c.208-.176 2.078 1.175 2.078 1.175l2.868 2.267a4.547 4.547 0 0 0 .354 3.619c1.039 1.664 3.481 1.04 3.481 1.04a20.518 20.518 0 0 0-.51-4.055c-.54-2.153-2.95-4.618-2.95-4.618s-2.681-3.442-4.396-4.16c-1.715-.717-4.395 1.124-4.395 1.124a4.547 4.547 0 0 0-.52 2.86Z" />
        <path fill="#fff"
            d="M91.68 90.462c.66.137 1.285.406 1.839.79a28.328 28.328 0 0 1 5.912 7.779 19.92 19.92 0 0 1 .686 4.42l-.073.072c.35.004.698-.031 1.04-.104-.03-1.365-.2-2.725-.51-4.055-.54-2.153-2.94-4.617-2.94-4.617s-2.681-3.442-4.396-4.16a2.772 2.772 0 0 0-1.558-.125Z" />
        <path fill="#FFB300"
            d="M77.538 82.226c-2.327 4.004-4.967 14.268-5.757 17.762-.79 3.494-2.202 13.581-2.202 13.581l-.489 7.342a20.114 20.114 0 0 1-5.465-4.16c-2.557-2.818-3.918-8.694-3.918-8.694s1.507.687 3.325-2.079c1.819-2.767-1.964-9.36-6.858-7.28-4.894 2.08-4.156 9.547-2.327 14.351 1.828 4.804 4.863 7.446 11.264 9.983a19.555 19.555 0 0 0 11.43 1.207c1.278 1.57 7.751.821 7.751.821l4.448.083h2.078l4.156.104s3.855.385 4.27-.925c.417-1.311-.976-2.413-2.483-3.286-1.506-.874-4.862 1.185-4.862 1.185l-3.658-1.518c.769-.645 3.99-3.338 4.021-6.905a6.247 6.247 0 0 0-.706-2.954 6.007 6.007 0 0 0-2.079-2.235c-.79-1.435-1.039-6.053-1.039-6.053.854.254 1.677.603 2.453 1.04a6.347 6.347 0 0 1 1.995 3.037c.208.717-.79.811-.53 2.943s3.273 2.34 3.273 2.34.457.124.301-4.597c-.156-4.721-5.195-9.36-5.195-9.36-3.627-3.639-1.86-6.239-1.86-6.239 0-1.206.914-2.464 3.294-4.16 2.38-1.694 9.081-3.597 9.081-3.597s4.811-2.205 5.58-6.75c.769-4.544-1.589-5.199-1.87-5.365-3.834-1.29-13.04.384-13.04.384-7.067.978-12.054 5.938-14.382 9.994Z" />
        <path fill="#fff"
            d="M70.762 105.385a83.584 83.584 0 0 0-1.205 10.545c.384-3.338 1.486-2.486 2.68-2.954 2.079-.769-.405-7.186.645-8.163 1.05-.978 2.784 1.445 3.959.853 1.694-.853-1.174-3.286-2.63-5.782a9.2 9.2 0 0 1-.716-5.855s-1.746 5.886-2.733 11.356ZM90.702 113.163c.26 1.716-.093 4.587-1.299 6.032l.489-.187a8.323 8.323 0 0 0 2.328-5.262 6.178 6.178 0 0 0-.707-2.943 6.01 6.01 0 0 0-2.078-2.236c0-.104-.104-.208-.146-.312l-.415.177a6.095 6.095 0 0 0-4.78-.718s5.975 1.155 6.608 5.449ZM88.178 93.696s-.82 1.872.073 2.954c.894 1.081 3.117 3.65 4.53 5.49 1.414 1.841 2.349 4.014 2.172 5.938-.177 1.924-.561 3.64.613 3.827.094-.083.405-.645.28-4.596-.134-4.753-5.195-9.36-5.195-9.36a13.539 13.539 0 0 1-1.257-1.518 5.088 5.088 0 0 1-1.216-2.735ZM60.735 102.224a5.795 5.795 0 0 1 .177 5.574l.156.072a5.45 5.45 0 0 0 1.964-1.955c1.818-2.797-2.016-9.286-6.858-7.28a4.871 4.871 0 0 0-1.455.926 5.815 5.815 0 0 1 6.016 2.663ZM91.888 72.264a19.29 19.29 0 0 0-10.204 4.877l7.97-3.12a57.524 57.524 0 0 1 15.659-1.133c.104 0-.104-.895-.385-1.04-3.834-1.29-13.04.384-13.04.384v.032Z" />
        <path fill="#0B1B32"
            d="M86.514 71.66a.632.632 0 0 1-.28-.083.613.613 0 0 1-.291-.332.635.635 0 0 1 0-.437 3.306 3.306 0 0 1 4.156-1.851.614.614 0 0 1 .323.301.562.562 0 0 1 0 .448.438.438 0 0 1-.115.187.478.478 0 0 1-.187.135.518.518 0 0 1-.218 0 .538.538 0 0 1-.218 0 2.077 2.077 0 0 0-2.64 1.279.52.52 0 0 1-.207.24.655.655 0 0 1-.302.103l-.02.01ZM100.917 80.687h.072a.302.302 0 0 1 .187 0 .269.269 0 0 1 .115.145c.01.038.01.078 0 .115a.246.246 0 0 1 0 .114l-.073.094a.189.189 0 0 1-.093.062 1.777 1.777 0 0 1-.468.156l-.457.073a5.003 5.003 0 0 1-.967 0 3.19 3.19 0 0 1-.976-.28 2.08 2.08 0 0 1-.79-.645.281.281 0 0 1 0-.354.29.29 0 0 1 .197-.094.311.311 0 0 1 .208.063c.18.186.4.329.644.416.24.084.487.143.738.176.273.026.548.026.821 0 .135.016.271.016.405 0 .138.016.278.016.416 0l.021-.041Z" />
        <path fill="#0B1B32"
            d="M55.176 116.377a20.39 20.39 0 0 0 9.727 6.926c1.32.481 2.68.85 4.062 1.102.438.096.883.155 1.33.177a18.36 18.36 0 0 0 2.712.177 17.47 17.47 0 0 0 3.377-.302 3.05 3.05 0 0 0 1.923.873c1.039.104 3.17.073 5.476 0 2.307-.072 4.936-.104 6.598 0 0 0 1.891.104 3.886.104 1.996 0 4.292-.124 4.915-.613.158-.138.274-.319.333-.52a1.126 1.126 0 0 0 0-.614 4.406 4.406 0 0 0-2.837-3.026 3.115 3.115 0 0 0-1.486-.073 2.525 2.525 0 0 0-.945-.925 2.612 2.612 0 0 0-1.278-.333 2.948 2.948 0 0 0-1.694.687c-.198.187-.442.32-.707.384h-1.766a10.402 10.402 0 0 0 2.961-3.972 6.494 6.494 0 0 0-.509-6.396 6.246 6.246 0 0 0-1.663-1.643c-.488-.8-.841-3.847-1.039-5.438.54.228 1.04.436 1.434.613a5.643 5.643 0 0 1 2.432 3.12 2.153 2.153 0 0 1-.208.665 3.123 3.123 0 0 0-.229 2.673 3.9 3.9 0 0 0 3.43 2.153.278.278 0 0 0 .176-.063.351.351 0 0 0 .104-.166 37.17 37.17 0 0 0 .332-4.649c.177-3.338-3.584-7.57-5.6-9.827-.104-.104-.208-.239-.312-.333a11.569 11.569 0 0 1 1.819-1.445h.103l.156-.052c.287.072.558.195.8.364l.634.437c.821.561 1.891 1.414 3.117 2.464-.135.645-.52 2.85.582 4.004.322.333.708.598 1.135.777.427.178.886.268 1.349.263a4.17 4.17 0 0 0 1.174-.177.494.494 0 0 0 .135-.114.332.332 0 0 0 0-.177c0-.125-.073-3.567-.842-5.075s-4.24-6.479-6.234-7.654a4.278 4.278 0 0 0-3.814-.073 7.269 7.269 0 0 0-1.174.583.385.385 0 0 0 .073-.146c1.257-3.12 4.936-4.471 10.9-6.343a10.528 10.528 0 0 0 4.094-2.465 10.403 10.403 0 0 0 2.577-4.035 6.802 6.802 0 0 0 .104-4.617c.473-.062.923-.24 1.309-.52a3 3 0 0 0 1.226-2.714 2.868 2.868 0 0 0-.644-1.54 2.487 2.487 0 0 0-1.881-1.029c-.418 0-.83.097-1.205.281-.376.181-.706.444-.966.77a3.485 3.485 0 0 0-.697 1.144 3.572 3.572 0 0 0-.197 1.32 34.106 34.106 0 0 0-9.414.26c-3.253.427-6.495 1.04-9.695 1.768a17.056 17.056 0 0 0-.613-8.777c-1.35-3.369-4.084-2.007-4.24.104-.26 3.671 1.996 7.8 2.941 9.36a5.133 5.133 0 0 0-.468.364c-.457-.905-2.712-5.117-3.377-5.346a4.08 4.08 0 0 0-2.701.177c-.333.343-1.517 1.726-1.798 5.855-.28 4.128 1.642 5.116 2.868 4.575 1.226-.54 1.85-5.969 1.85-5.969l1.89 2.153a34.574 34.574 0 0 0-3.709 6.24 82.654 82.654 0 0 0-5.881 18.208c-2.432 11.803-2.556 18.428-2.556 20.102-3.502-1.258-5.684-4.42-6.91-6.905a25.682 25.682 0 0 1-1.84-5.2 4.46 4.46 0 0 0 2.557-1.289c1.413-1.352 1.538-3.692.311-5.824a5.686 5.686 0 0 0-6.525-2.901 5.798 5.798 0 0 0-3.679 4.024c-1.382 4.108-.332 10.015 2.421 14.029Zm34.665-19.644-.26-.312c-.738-.947-1.434-1.872-.717-4.253a8.126 8.126 0 0 1 1.683-.947 3.603 3.603 0 0 1 3.305 0c1.891 1.04 5.195 5.782 6.089 7.425.495 1.49.751 3.048.758 4.617a2.975 2.975 0 0 1-2.836-.769c-1.04-1.04-.406-3.598-.406-3.619a.398.398 0 0 0 0-.156.332.332 0 0 0-.083-.125s-1.039-.946-2.192-1.82c-.416-.311-.748-.572-1.04-.77a.718.718 0 0 1-.332-.8.655.655 0 0 0 0-.374.582.582 0 0 0-.228-.291c-.437-.23-1.278.332-1.767.717-.69.436-1.35.919-1.974 1.446v.03Zm-36.66 5.979a5.35 5.35 0 0 1 3.284-3.619 5.12 5.12 0 0 1 5.85 2.652c.925 1.591 1.206 3.765-.197 5.106a3.847 3.847 0 0 1-4.042.947 5.905 5.905 0 0 1-1.923-1.04h-.28v.052s-.135 1.497 1.808 2.755a11.205 11.205 0 0 1 3.761 4.254c.177.364.312.624.333.644 1.87 3.494 4.374 5.834 7.274 6.729h.072a.385.385 0 0 0 .187-.052.41.41 0 0 0 .083-.104.523.523 0 0 0 0-.125c-.104-2.288.281-9.474 2.525-20.393a84.5 84.5 0 0 1 5.196-16.639 10.895 10.895 0 0 0 11.742.105c5.528-3.463 3.97-10.067 3.533-11.523.686-.135 1.402-.208 2.078-.312 4.302-.54 7.523-.613 9.487-.208.207.466.547.86.977 1.134a3.32 3.32 0 0 0 1.382.54 6.026 6.026 0 0 1 0 4.41 9.913 9.913 0 0 1-2.442 3.806 10.049 10.049 0 0 1-3.897 2.308c-6.12 1.935-9.902 3.339-11.264 6.677-1.423 3.515-.457 4.804.416 5.906.208.281.561.645.966 1.134 1.974 2.205 5.632 6.312 5.476 9.422-.124 2.714-.228 3.847-.28 4.315a3.235 3.235 0 0 1-2.681-1.778 2.738 2.738 0 0 1 .228-2.236c.178-.316.258-.678.23-1.04a6.24 6.24 0 0 0-2.734-3.525c-.436-.198-1.039-.437-1.59-.666l-.26-.104h-.072a9.75 9.75 0 0 1-3.117-1.643.29.29 0 0 0-.167-.124.317.317 0 0 0-.197 0 .34.34 0 0 0-.135.135.322.322 0 0 0 0 .197c0 .125.083.26.104.385l.104.562a9.375 9.375 0 0 1-1.59-2.309.291.291 0 0 0-.125-.146.354.354 0 0 0-.208 0 .28.28 0 0 0-.166.104.313.313 0 0 0-.062.208c.026.433.026.867 0 1.3l-.821-1.383a13.653 13.653 0 0 1-1.61-6.24.312.312 0 0 0-.063-.207.27.27 0 0 0-.198-.094.26.26 0 0 0-.207.063.25.25 0 0 0-.094.187 12.987 12.987 0 0 0 1.247 5.626c.062.156.135.312.208.457a6.1 6.1 0 0 0 .894 2.933c.82 1.383 2.587 3.286 6.317 4.263.083.458.187.905.312 1.352a7.273 7.273 0 0 0-3.117-.665 11.72 11.72 0 0 0-3.918.717h-.073a.262.262 0 0 0-.166.104.379.379 0 0 0-.072.177c0 .074.03.145.083.198.053.051.123.08.197.083a.484.484 0 0 0 .208-.052c1.84-.634 6.349-1.768 8.905 1.83a5.86 5.86 0 0 1 .457 5.824 9.903 9.903 0 0 1-3.959 4.565l-.82.468a8.294 8.294 0 0 1-2.152.717h-.104v.24h.115c.748 0 7.273.187 8.084 0 .3-.093.583-.229.842-.406a4.352 4.352 0 0 1 3.273-.822 3.89 3.89 0 0 1 2.452 2.569.663.663 0 0 1-.135.582c-.644.541-4.863.624-8.385.385-1.694-.093-4.157 0-6.65 0-2.276.052-4.427.083-5.404 0a2.232 2.232 0 0 1-1.943-1.227 2.549 2.549 0 0 1 .82-2.496.31.31 0 0 0 .063-.208.28.28 0 0 0-.083-.197.327.327 0 0 0-.208-.083 3.484 3.484 0 0 0-2.4 1.799c-.696 1.133-2.411 1.767-4.25 1.695h-.333a24.834 24.834 0 0 1-4.967-1.227 19.748 19.748 0 0 1-9.435-6.729c-2.774-3.556-3.803-9.224-2.577-13.03v.031Z" />
        <path fill="#0B1B32"
            d="M105.468 74.364a.332.332 0 1 0-.568.235.332.332 0 0 0 .568-.235ZM106.362 75.321a.366.366 0 0 0-.364-.364.364.364 0 0 0-.353.364.354.354 0 0 0 .606.25.366.366 0 0 0 .111-.25ZM105.24 76.236a.258.258 0 0 0-.443-.184.266.266 0 0 0-.057.283.261.261 0 0 0 .424.085.259.259 0 0 0 .076-.184ZM102.341 75.498a.354.354 0 0 0-.603-.25.354.354 0 0 0 .5.5.354.354 0 0 0 .103-.25ZM103.391 74.031a.352.352 0 0 0-.353-.354.364.364 0 0 0-.364.354.365.365 0 0 0 .364.364.364.364 0 0 0 .353-.364ZM104.211 75.134a.354.354 0 0 0-.607-.25.365.365 0 0 0-.11.25.362.362 0 0 0 .364.364.364.364 0 0 0 .353-.364ZM103.599 76.756a.336.336 0 0 0-.398-.326.331.331 0 0 0-.242.453.335.335 0 0 0 .307.206.332.332 0 0 0 .333-.333ZM102.342 77.453a.32.32 0 0 0-.02-.119.312.312 0 0 0-.164-.17.3.3 0 0 0-.118-.023.31.31 0 0 0-.256.067.322.322 0 0 0-.083.107.318.318 0 0 0 0 .265.321.321 0 0 0 .204.17.31.31 0 0 0 .135.004.3.3 0 0 0 .302-.301ZM105.261 77.734a.332.332 0 1 0-.568.235.332.332 0 0 0 .568-.235ZM100.679 74.468a.332.332 0 1 0-.568.235.332.332 0 0 0 .568-.235ZM101.095 76.725a.332.332 0 1 0-.568.235.332.332 0 0 0 .568-.235Z" />
        <path fill="#fff"
            d="M89.33 77.474a2.57 2.57 0 0 0-3.067-2.52 2.565 2.565 0 0 0-2.016 2.019 2.57 2.57 0 0 0 2.517 3.07 2.576 2.576 0 0 0 2.566-2.57Z" />
        <path fill="#0B1B32"
            d="M88.916 75.82a2.504 2.504 0 0 0-1.423-.957 2.451 2.451 0 0 0-1.694.208 2.55 2.55 0 0 0 2.431 2.361c.414.013.825-.076 1.195-.26a2.456 2.456 0 0 0-.509-1.352Z" />
        <path fill="#fff"
            d="M108.409 69.58c.155-.239-.084-.686-.551-1.04-.468-.353-.977-.394-1.133-.166-.156.23.083.687.551 1.04.468.354.966.427 1.133.167Z" />
        <path fill="#FFB300" d="M79.014 131.05v15.599h3.647V131.05" />
        <path fill="#0B1B32"
            d="M82.66 146.961h-3.646a.27.27 0 0 1-.238-.158.26.26 0 0 1-.022-.102v-15.599a.26.26 0 0 1 .083-.187.238.238 0 0 1 .08-.056.243.243 0 0 1 .097-.017.25.25 0 0 1 .26.26v15.391h3.117v-15.391a.258.258 0 0 1 .083-.187.237.237 0 0 1 .08-.056.244.244 0 0 1 .096-.017.25.25 0 0 1 .26.26v15.599a.25.25 0 0 1-.072.187.3.3 0 0 1-.188.073h.01Z" />
        <path fill="#FFB300" d="M70.336 128.44c4.156.863 4.665 3.307 10.39 3.307 5.726 0 6.236-2.444 10.392-3.307" />
        <path fill="#0B1B32"
            d="M80.81 131.976a11.93 11.93 0 0 1-6.723-1.789 12.29 12.29 0 0 0-3.751-1.529.137.137 0 0 1-.094 0 .164.164 0 0 1-.072-.073.195.195 0 0 1 0-.093.28.28 0 0 1 0-.094.195.195 0 0 1 0-.093l.072-.073h.177c1.378.306 2.695.841 3.897 1.581a13.056 13.056 0 0 0 12.936 0 12.678 12.678 0 0 1 3.897-1.581.27.27 0 0 1 .198 0 .251.251 0 0 1 .114.166.243.243 0 0 1 0 .187.22.22 0 0 1-.166.115 12.289 12.289 0 0 0-3.752 1.528 11.913 11.913 0 0 1-6.733 1.748Z" />
        <path fill="#0B1B32"
            d="M100.376 123.916H61.129a2.265 2.265 0 0 0-2.111 2.262 2.268 2.268 0 0 0 2.111 2.262h39.247a2.265 2.265 0 0 0 2.112-2.262 2.268 2.268 0 0 0-2.112-2.262Z" />
        <path fill="#FFB300"
            d="M106.54 185.49h-2.255a.704.704 0 0 1-.489-.208.703.703 0 0 1-.207-.489v-4.628a5.127 5.127 0 0 0-1.943-4.035l-16.792-13.352a8.777 8.777 0 0 1-3.315-6.406l3.637-.208c.043.726.238 1.434.571 2.08.332.65.8 1.221 1.372 1.674l16.792 13.342a8.695 8.695 0 0 1 2.452 3.12 8.614 8.614 0 0 1 .873 3.837v4.628a.698.698 0 0 1-.197.489.705.705 0 0 1-.499.156ZM54.968 185.49h2.255a.704.704 0 0 0 .696-.697v-4.628a5.117 5.117 0 0 1 1.943-4.035l16.792-13.352a8.778 8.778 0 0 0 3.315-6.406l-3.637-.208a5.206 5.206 0 0 1-1.943 3.754L57.597 173.26a8.698 8.698 0 0 0-2.453 3.12 8.614 8.614 0 0 0-.872 3.837v4.628c-.001.182.07.358.197.489.14.114.319.17.499.156Z" />
        <path fill="#0B1B32"
            d="M54.272 183.482h3.678v1.394a.699.699 0 0 1-.208.499.7.7 0 0 1-.488.198h-2.286a.673.673 0 0 1-.696-.697v-1.394ZM106.54 185.749h-2.255a.952.952 0 0 1-.956-.956v-4.628a5.022 5.022 0 0 0-.478-2.132 4.86 4.86 0 0 0-1.372-1.705l-16.791-13.342a9.06 9.06 0 0 1-3.409-6.604.355.355 0 0 1 0-.104.233.233 0 0 1 .052-.083.222.222 0 0 1 .083-.062h.104l3.637-.208h.187a.218.218 0 0 1 .063.083.377.377 0 0 1 0 .104c.043.689.227 1.361.54 1.976a4.93 4.93 0 0 0 1.31 1.58l16.791 13.353a8.993 8.993 0 0 1 3.419 7.103v4.627a.94.94 0 0 1-.281.676.945.945 0 0 1-.644.322Zm-24.69-29.138a8.56 8.56 0 0 0 3.19 5.959l16.803 13.352a5.529 5.529 0 0 1 1.507 1.883 5.31 5.31 0 0 1 .53 2.36v4.628a.468.468 0 0 0 .436.437h2.255a.448.448 0 0 0 .312-.136.397.397 0 0 0 .124-.301v-4.628a8.463 8.463 0 0 0-3.231-6.697l-16.792-13.352a5.327 5.327 0 0 1-1.372-1.633 5.505 5.505 0 0 1-.644-2.08l-3.117.208Z" />
        <path fill="#0B1B32"
            d="M57.223 185.75h-2.255a.957.957 0 0 1-.956-.957v-4.628a9.003 9.003 0 0 1 3.419-7.102l16.802-13.353c.539-.43.981-.968 1.299-1.581a5.044 5.044 0 0 0 .54-1.975.313.313 0 0 1 0-.104.222.222 0 0 1 .062-.084h.187l3.637.208h.104a.172.172 0 0 1 .083.063c.023.023.041.052.052.083a.355.355 0 0 1 0 .104 9.112 9.112 0 0 1-3.408 6.603l-16.76 13.301a4.854 4.854 0 0 0-1.372 1.705 5.028 5.028 0 0 0-.478 2.132v4.628a.955.955 0 0 1-.956.957Zm19.348-29.305a5.327 5.327 0 0 1-1.995 3.671l-16.813 13.352a8.473 8.473 0 0 0-3.232 6.697v4.628a.393.393 0 0 0 .125.301.448.448 0 0 0 .312.136h2.255a.469.469 0 0 0 .436-.437v-4.628a5.439 5.439 0 0 1 .53-2.36c.35-.738.87-1.383 1.517-1.883l16.792-13.352a8.502 8.502 0 0 0 3.19-5.959l-3.117-.166Z" />
        <path fill="#FFB300"
            d="M79.014 152.618v32.175a.656.656 0 0 0 .208.489.7.7 0 0 0 .488.208h2.265a.7.7 0 0 0 .686-.697v-32.175" />
        <path fill="#0B1B32"
            d="M79.014 183.482h3.647v1.394a.676.676 0 0 1-.686.697H79.71a.728.728 0 0 1-.488-.198.701.701 0 0 1-.208-.499v-1.394Z" />
        <path fill="#0B1B32"
            d="M81.975 185.75H79.71a1.043 1.043 0 0 1-.675-.281.969.969 0 0 1-.281-.676v-32.175a.26.26 0 0 1 .083-.187.225.225 0 0 1 .177-.073.234.234 0 0 1 .1.017.234.234 0 0 1 .087.056.249.249 0 0 1 .073.187v32.175a.404.404 0 0 0 .135.301.424.424 0 0 0 .301.136h2.265a.424.424 0 0 0 .302-.136.39.39 0 0 0 .124-.301v-32.175a.26.26 0 0 1 .083-.187.223.223 0 0 1 .177-.073.233.233 0 0 1 .101.017.234.234 0 0 1 .086.056.245.245 0 0 1 .073.187v32.175a.928.928 0 0 1-.28.676.945.945 0 0 1-.666.281Z" />
        <path fill="#FFB300"
            d="M84.749 146.701h-7.991a.521.521 0 0 0-.52.52v10.399a.521.521 0 0 0 .52.52h7.99a.521.521 0 0 0 .52-.52v-10.399a.522.522 0 0 0-.52-.52Z" />
        <path fill="#0B1B32"
            d="M84.749 158.441h-7.991a.78.78 0 0 1-.78-.78v-10.399a.778.778 0 0 1 .78-.78h7.99a.78.78 0 0 1 .78.78v10.399a.78.78 0 0 1-.78.78Zm-7.991-11.439a.268.268 0 0 0-.101.017.262.262 0 0 0-.086.056.25.25 0 0 0-.073.187v10.399a.27.27 0 0 0 .158.238.256.256 0 0 0 .102.022h7.99a.257.257 0 0 0 .188-.083.27.27 0 0 0 .072-.177v-10.399a.25.25 0 0 0-.26-.26h-7.99ZM79.014 134.118s2.265-1.487 3.647-.364v-2.08a15.344 15.344 0 0 1-3.647 0v2.444Z" />
        <path fill="#0B1B32"
            d="M79.014 134.378a.243.243 0 0 1-.096-.017.237.237 0 0 1-.08-.056.263.263 0 0 1-.084-.187v-2.465a.267.267 0 0 1 0-.114.264.264 0 0 1 .073-.083.19.19 0 0 1 .104-.052h.124c1.181.132 2.373.132 3.554 0a.168.168 0 0 1 .104 0 .158.158 0 0 1 .094.052c.029.02.05.049.062.083.01.034.01.07 0 .104v2.08a.29.29 0 0 1 0 .135.328.328 0 0 1-.114.093.325.325 0 0 1-.146 0 .28.28 0 0 1-.124-.062c-1.227-1.04-3.326.374-3.346.385a.24.24 0 0 1-.125.104Zm.26-2.402v1.695a3.74 3.74 0 0 1 3.117-.385v-1.31c-1.037.096-2.08.096-3.117 0Z" />
        <path fill="#fff"
            d="M76.239 148.614a23.711 23.711 0 0 1 9.03-.156c0-1.04.456-1.664-.946-1.747-1.403-.083-7.274 0-7.274 0s-1.039-.083-.873.957c.166 1.04.063.946.063.946Z" />
        <path fill="#0B1B32"
            d="M84.749 158.441h-7.991a.78.78 0 0 1-.78-.78v-10.399a.778.778 0 0 1 .78-.78h7.99a.78.78 0 0 1 .78.78v10.399a.78.78 0 0 1-.78.78Zm-7.991-11.439a.268.268 0 0 0-.101.017.262.262 0 0 0-.086.056.25.25 0 0 0-.073.187v10.399a.27.27 0 0 0 .158.238.256.256 0 0 0 .102.022h7.99a.257.257 0 0 0 .188-.083.27.27 0 0 0 .072-.177v-10.399a.25.25 0 0 0-.26-.26h-7.99Z" />
        <path fill="#FFB300"
            d="M174.434 101.756a11.431 11.431 0 0 0-13.66-11.22 11.428 11.428 0 0 0-8.98 8.988 11.448 11.448 0 0 0 4.86 11.743 11.425 11.425 0 0 0 14.433-1.423 11.445 11.445 0 0 0 3.347-8.088Z" />
        <path fill="#FFB300"
            d="M144.414 94.164a.69.69 0 0 1-.052-.29.63.63 0 0 1 .083-.271l.52-.957a.571.571 0 0 1 .259-.26.635.635 0 0 1 .364-.062c3.232.301 4.697 4.16 5.881 8.215l.115.405v.177c.035.11.077.218.124.323v.707c.037 1.402.337 2.785.884 4.076l.083.187a.68.68 0 0 0 .052.136c.156.322.322.644.509.956.076.148.163.291.26.427h-.437a5.59 5.59 0 0 1-1.891-.333c-4.697-1.57-4.707-7.643-4.707-10.233a9.02 9.02 0 0 0 0-1.04 2.15 2.15 0 0 0-.54-1.196 2.082 2.082 0 0 0-1.143-.644.727.727 0 0 1-.25-.136.712.712 0 0 1-.166-.239l.052.052ZM172.147 94.955l.136-.115a6.227 6.227 0 0 1 8.011.045 6.242 6.242 0 0 1 1.704 2.316 5.848 5.848 0 0 1-1.434 6.697 10.688 10.688 0 0 1-7.045 3.016h-.426l.094-.188c.135-.291.259-.592.374-.894.31-.828.519-1.69.623-2.568h-.166c0-.063.052-.136.083-.198H174.569a6.562 6.562 0 0 0 3.314-1.758 2.08 2.08 0 0 0 .665-2.506 2.527 2.527 0 0 0-2.131-1.545 2.522 2.522 0 0 0-2.347 1.192 1.539 1.539 0 0 0-.125.208l-.104.218-.073-.218a11.402 11.402 0 0 0-1.652-3.318l-.114-.156c.042-.166.104-.187.145-.228Z" />
        <path fill="#0B1B32"
            d="M173.894 98.324c.029.082.053.165.073.25l.125-.219c.029.082.053.165.072.25a2.49 2.49 0 0 1 .873-.926 2.668 2.668 0 0 1 1.226-.364 2.447 2.447 0 0 1 2.078 1.466 1.964 1.964 0 0 1-.613 2.299 6.225 6.225 0 0 1-3.179 1.684v.188h-.177v.176h.177a6.766 6.766 0 0 0 3.47-1.82 2.296 2.296 0 0 0 .697-2.714 2.857 2.857 0 0 0-2.494-1.684c-.44.01-.87.124-1.258.332-.383.21-.714.506-.966.864a.707.707 0 0 0-.104.218Zm2.359-1.04a2.43 2.43 0 0 1 2.14 1.487 1.966 1.966 0 0 1-.613 2.298 6.295 6.295 0 0 1-3.179 1.675v.187H174.133c0 .062-.052.135-.083.197h.53a6.803 6.803 0 0 0 3.481-1.82 2.316 2.316 0 0 0 .696-2.714 2.879 2.879 0 0 0-2.504-1.674c-.436.01-.864.125-1.247.333a2.828 2.828 0 0 0-.966.853l-.135.187c0 .083 0 .166.083.239.036-.073.077-.142.124-.208 0 .083.052.166.073.24.209-.375.509-.69.873-.916.365-.23.785-.355 1.216-.364h-.021Zm-2.473 1.248.062.218.177.063a2.409 2.409 0 0 1 .997-1.154c.365-.23.785-.356 1.216-.365a2.43 2.43 0 0 1 2.141 1.467 1.986 1.986 0 0 1-.624 2.298 6.4 6.4 0 0 1-3.179 1.685H174.164c0 .062 0 .124-.072.197-.073.073-.052.135-.084.198h.53a6.784 6.784 0 0 0 3.471-1.82 2.323 2.323 0 0 0 .696-2.714 2.879 2.879 0 0 0-2.504-1.675c-.436.01-.864.125-1.247.333a2.828 2.828 0 0 0-.966.853l-.135.187a1.435 1.435 0 0 0-.073.24v-.011Zm-1.891-3.63.114.157.104.145.145-.125.135-.124a6.079 6.079 0 0 1 3.689-1.404h.25a6.23 6.23 0 0 1 5.486 3.691 5.666 5.666 0 0 1-1.392 6.458 10.388 10.388 0 0 1-6.827 2.964h-.416l-.093.187-.094.187h.426a10.834 10.834 0 0 0 7.274-3.119 6.029 6.029 0 0 0 1.475-6.874 6.57 6.57 0 0 0-6.099-3.91 6.474 6.474 0 0 0-3.897 1.487.73.73 0 0 0-.135.114l-.145.167Zm6.504 3.87a1.966 1.966 0 0 1-.613 2.298 6.295 6.295 0 0 1-3.179 1.674h-.167v.187h-.29c0 .062-.052.135-.084.197h.53a6.8 6.8 0 0 0 3.481-1.82 2.322 2.322 0 0 0 .697-2.714 2.86 2.86 0 0 0-2.505-1.674c-.436.01-.863.125-1.247.333a2.828 2.828 0 0 0-.966.853c-.046.059-.088.121-.125.187a1.444 1.444 0 0 0-.135.228c.026.075.047.152.063.23l.176.062.115-.24c.209-.373.509-.688.872-.915a2.269 2.269 0 0 1 1.948-.246 2.265 2.265 0 0 1 1.409 1.37l.02-.01Zm-4.374-.666a.684.684 0 0 0-.125.208c.029.081.053.165.073.25l.125-.22c.029.082.053.166.072.25a2.49 2.49 0 0 1 .873-.925 2.668 2.668 0 0 1 1.226-.364 2.447 2.447 0 0 1 2.078 1.466 1.965 1.965 0 0 1-.613 2.298 6.234 6.234 0 0 1-3.179 1.685v.187h-.177v.177h.177a6.766 6.766 0 0 0 3.47-1.82 2.323 2.323 0 0 0 .697-2.714 2.892 2.892 0 0 0-2.505-1.685c-.436.01-.863.125-1.247.333-.383.21-.714.505-.966.863l.021.01Z" />
        <path fill="#FFB300"
            d="M174.164 102.858h.062v-.208a1.71 1.71 0 0 1-.062.208Zm.073-.239c-.02.074-.044.147-.073.218h.062v-.208l.011-.01Zm-.385-3.806c.346 1.237.476 2.524.385 3.806 0 .073 0 .145-.073.208a1.059 1.059 0 0 1-.073.197h.302a1.168 1.168 0 0 0 0-.187 9.495 9.495 0 0 0 0-1.04 11.456 11.456 0 0 0-.395-2.912l-.177-.062.031-.01Zm-22.236 2.215v.925a11.6 11.6 0 0 0 1.517 5.616l.239.385a11.247 11.247 0 0 0 3.117 3.223l.27.187c.104.063.198.136.302.188.103.052.446.27.685.395l.374.187c.291.135.582.26.884.374l.322.115c.301.093.592.187.893.26l.375.083c.29.072.585.124.883.156H164.376c.301 0 .592-.083.883-.146l.374-.083a8.9 8.9 0 0 0 .894-.249l.374-.125c.301-.115.592-.229.883-.364l.374-.187c.281-.146.561-.302.821-.468l.104-.063.187-.125.208-.135.218-.145a11.436 11.436 0 0 0 3.491-4.087l.094-.187a.77.77 0 0 0 .083-.188c.125-.26.239-.54.353-.821.314-.861.53-1.754.645-2.662a.974.974 0 0 1 0-.187 1.18 1.18 0 0 0 0-.188 9.495 9.495 0 0 0 0-1.04 11.457 11.457 0 0 0-.406-2.911l-.072-.27c0-.073-.052-.157-.084-.24a11.334 11.334 0 0 0-1.641-3.213l-.115-.156-.104-.146a11.496 11.496 0 0 0-2.597-2.423l-.187-.125-.302-.187a12.076 12.076 0 0 0-1.922-.925 11.422 11.422 0 0 0-9.269.572l-.197.104-.187.114-.229.135-.239.146h-.062l-.229.145h-.052a11.44 11.44 0 0 0-4.239 5.44 12.134 12.134 0 0 0-.551 2.006v.063a12.88 12.88 0 0 0-.135 1.102l.073.125Zm1.693 6.52a9.256 9.256 0 0 1-.488-.957l-.062-.135-.073-.187a11.314 11.314 0 0 1-.883-4.087v-.707c.051-1.195.29-2.374.706-3.494a11.245 11.245 0 0 1 4.396-5.501H160.199h-.125H169.166l.291.208a11.185 11.185 0 0 1 2.369 2.277c.035.051.073.1.114.146l.104.145a11.086 11.086 0 0 1 1.663 3.328l.062.218v.063a11.44 11.44 0 0 1 .395 3.795c0 .073 0 .156-.073.219-.028.064-.053.13-.072.197 0 .073-.052.136-.083.198h.166a11.3 11.3 0 0 1-.624 2.569c-.117.311-.242.613-.374.904l-.093.187-.094.188a11.174 11.174 0 0 1-3.751 4.159h-11.004a26.545 26.545 0 0 0 11.077-3.119 27.01 27.01 0 0 1-12.573 3.015 10.775 10.775 0 0 1-1.756-1.476 10.364 10.364 0 0 1-1.351-1.716c-.094-.135-.177-.281-.26-.427l.01-.01Zm20.928-4.929c-.02.074-.044.147-.073.218h.239a9.495 9.495 0 0 0 0-1.04 11.413 11.413 0 0 0-.405-2.912l-.177-.062c.354 1.236.488 2.524.395 3.806l.021-.01Zm0 0c-.02.074-.044.147-.073.218h.062v-.208l.011-.01Z" />
        <path fill="#fff"
            d="M151.657 101.121c.008-.397.043-.793.104-1.185a.15.15 0 0 1 0-.073 10.544 10.544 0 0 1 4.8-7.404c.076-.051.156-.097.239-.135h.509l.624.072h2.172H156.811a11.379 11.379 0 0 0-5.113 8.996v.707c.038 1.405.338 2.791.884 4.087l.083.187a.963.963 0 0 0 .052.135c.153.331.323.654.509.967.076.148.163.291.26.427.397.611.849 1.186 1.35 1.715l.073.094a.47.47 0 0 1-.291-.062c-.301-.136-.8-.531-1.403-1.737l-.187-.385a21.826 21.826 0 0 1-1.039-3.026 11.251 11.251 0 0 1-.405-2.506c.004-.293.029-.585.073-.874Z" />
        <path fill="#0B1B32"
            d="m173.769 98.532.063.218v.063a11.15 11.15 0 0 1 .384 3.795v.208a1.474 1.474 0 0 0 0 .188 1.167 1.167 0 0 0 0 .187h.187a1.167 1.167 0 0 0 0-.187h.166a.54.54 0 0 0 0-.188 11.854 11.854 0 0 0-.436-4.16 1.659 1.659 0 0 1-.073-.239 1.65 1.65 0 0 0-.125.209c0-.073-.051-.157-.083-.24l-.083.146Zm0 0 .063.218v.063a11.15 11.15 0 0 1 .384 3.795v.208a1.18 1.18 0 0 0 0 .188h.353a.54.54 0 0 0 0-.188 11.854 11.854 0 0 0-.436-4.16 1.659 1.659 0 0 1-.073-.239 1.65 1.65 0 0 0-.125.209c0-.073-.051-.157-.083-.24l-.083.146Zm0 0 .063.218v.063a11.15 11.15 0 0 1 .384 3.795v.208a1.18 1.18 0 0 0 0 .188h.353a.54.54 0 0 0 0-.188 11.854 11.854 0 0 0-.436-4.16 1.659 1.659 0 0 1-.073-.239 1.65 1.65 0 0 0-.125.209c0-.073-.051-.157-.083-.24l-.083.146Zm.468 4.087v.208a1.168 1.168 0 0 0 0 .187h.187v-.187a9.495 9.495 0 0 0 0-1.04 10.867 10.867 0 0 0-.416-2.902l-.176-.072a11.44 11.44 0 0 1 .394 3.795l.011.011Zm-22.86-1.04v.239a11.649 11.649 0 0 0 .862 4.451l.083.187c.024.064.051.127.083.187v.063c.126.292.268.577.426.852.084.156.177.302.26.447a11.426 11.426 0 0 0 3.211 3.38l.187.135c.058.045.121.083.187.115.312.209.639.397.977.561.12.071.245.134.374.188.281.146.573.271.873.374l.374.135c.301.094.592.187.893.26l.375.083c.29.063.592.115.883.156h.374c.294.016.589.016.883 0h1.642c.291 0 .592-.083.883-.135l.374-.083c.301-.073.592-.156.894-.25l.374-.124c.291-.115.592-.229.883-.364l.333-.156c.324-.157.639-.331.945-.52l.187-.125a.939.939 0 0 0 .187-.125 11.434 11.434 0 0 0 3.928-4.461l.094-.187c.032-.061.059-.123.083-.188.117-.249.221-.499.311-.748.33-.893.554-1.821.665-2.766a.598.598 0 0 1 0-.198.974.974 0 0 0 0-.187 11.423 11.423 0 0 0-.436-4.16c0-.073-.052-.156-.073-.24l-.072-.218a12.107 12.107 0 0 0-1.632-3.12l-.114-.145a.805.805 0 0 0-.114-.145 11.337 11.337 0 0 0-2.744-2.527l-.187-.115-.187-.114a11.027 11.027 0 0 0-1.964-.957 11.516 11.516 0 0 0-8.209 0l-.685.291-.416.198-.208.114-.197.104-.457.27-.187.115-.187.125a11.433 11.433 0 0 0-4.406 5.594c-.33.882-.553 1.8-.665 2.736 0 .301-.063.592-.073.883v.208l.125-.093Zm2.171 6.343a4.39 4.39 0 0 1-.239-.416 16.667 16.667 0 0 1-.498-.956l-.063-.136-.072-.187a10.996 10.996 0 0 1-.884-4.076v-.728c.054-1.194.292-2.373.707-3.494a11.297 11.297 0 0 1 4.395-5.501l.239-.146h.063l.135-.083.145-.083.187-.104.624-.312.457-.281a11.12 11.12 0 0 1 8.219-.156c.557.205 1.095.455 1.611.749l.322.187.291.187.291.208c.9.64 1.699 1.41 2.369 2.288.035.05.073.1.114.145l.104.146a11.133 11.133 0 0 1 1.663 3.328l.062.218v.063c.343 1.234.477 2.517.395 3.795v.583a11.304 11.304 0 0 1-.624 2.568c-.117.312-.242.614-.374.905l-.093.187-.094.187a11.277 11.277 0 0 1-3.761 4.16l-.302.187-.187.104-.124.083-.457.25-.375.187-.114.052-.779.322-.364.125a9.622 9.622 0 0 1-.894.26l-.374.083a8.465 8.465 0 0 1-.883.146h-.374a8.886 8.886 0 0 1-.894 0h-.374a8.669 8.669 0 0 1-.883 0h-.374c-.301 0-.592-.094-.883-.156l-.374-.083a12.495 12.495 0 0 1-.894-.271l-.26-.093h-.114a13.206 13.206 0 0 1-.883-.375l-.374-.187-.322-.187-.312-.187-.218-.135h-.073l-.114-.115a10.775 10.775 0 0 1-1.756-1.476 10.364 10.364 0 0 1-1.351-1.716l-.011-.063Zm20.658-5.199a.873.873 0 0 0 0 .177h.363a1.18 1.18 0 0 0 0-.188 11.335 11.335 0 0 0-.436-4.16 1.637 1.637 0 0 0-.114.24l-.177-.073c.354 1.232.488 2.517.395 3.796 0 .177-.011.249-.011.343l-.02-.135Zm-.458-4.295.063.218v.063a11.15 11.15 0 0 1 .384 3.795v.208a1.18 1.18 0 0 0 0 .188h.354a.593.593 0 0 0 0-.188 11.855 11.855 0 0 0-.437-4.16 1.659 1.659 0 0 1-.073-.239 1.642 1.642 0 0 0-.124.209c0-.073-.052-.157-.083-.24l-.084.146Zm0 0 .063.218v.063a11.15 11.15 0 0 1 .384 3.795v.208a1.474 1.474 0 0 0 0 .188 1.167 1.167 0 0 0 0 .187h.187a1.167 1.167 0 0 0 0-.187h.167a.593.593 0 0 0 0-.188 11.855 11.855 0 0 0-.437-4.16 1.659 1.659 0 0 1-.073-.239 1.642 1.642 0 0 0-.124.209c0-.073-.052-.157-.083-.24l-.084.146Z" />
        <path fill="#fff"
            d="M151.771 101.818v.343c.037 1.402.337 2.785.884 4.077l.083.187c.013.047.03.092.052.135.156.322.322.645.509.957.077.148.163.29.26.426.389.618.841 1.193 1.351 1.716a5.494 5.494 0 0 1-.52-1.861c0-.146 0-.292-.052-.448a17.376 17.376 0 0 1 .613-6.738c.149-.493.33-.976.54-1.446a7.865 7.865 0 0 1 3.327-3.851 7.849 7.849 0 0 1 4.986-1.005c5.663.374 5.393-1.602 5.383-1.914H156.936a11.158 11.158 0 0 0-4.406 5.501c-.417 1.121-.655 2.3-.707 3.495v.426h-.052Z" />
        <path fill="#FFB300"
            d="M164.282 86.084a1.48 1.48 0 0 0-1.153-1.964 1.474 1.474 0 0 0-1.708 1.505 1.474 1.474 0 0 0 2.087 1.296 1.479 1.479 0 0 0 .774-.837Z" />
        <path fill="#0B1B32"
            d="M161.33 84.982a1.666 1.666 0 0 0 .883 2.08h.084c.209.076.431.111.654.104a1.88 1.88 0 0 0 .634-.146 1.67 1.67 0 0 0 .873-.946c.166-.41.166-.87 0-1.28-.185-.4-.522-.71-.935-.862a1.53 1.53 0 0 0-.645-.105 1.78 1.78 0 0 0-.852.26 1.733 1.733 0 0 0-.592.666l-.062.156-.042.073Zm1.112 1.799a1.281 1.281 0 0 1-.779-1.602.132.132 0 0 1 0-.062c.053-.163.142-.312.259-.437.119-.123.26-.222.416-.29.167-.078.347-.12.53-.126h.218c.081.015.161.036.239.063a1.406 1.406 0 0 1 .728.676c.102.235.135.495.093.748-.037.253-.15.488-.322.676a1.358 1.358 0 0 1-.655.385 1.308 1.308 0 0 1-.748 0l.021-.031Z" />
        <path fill="#FFB300"
            d="M169.312 115.337a.375.375 0 0 1-.115.27.396.396 0 0 1-.26.104h-12.022a.371.371 0 0 1-.374-.374v-3.869h12.771v3.869Z" />
        <path fill="#0B1B32"
            d="M156.354 111.229v4.108a.568.568 0 0 0 .561.561h12.022a.568.568 0 0 0 .561-.561v-4.056l-13.144-.052Zm.374.375h12.406v3.733a.163.163 0 0 1-.062.135.191.191 0 0 1-.125 0h-12.032a.222.222 0 0 1-.135 0 .194.194 0 0 1-.052-.135v-3.733Z" />
        <path fill="#FFB300"
            d="M163.387 87.571c3.242 0 5.85 2.018 5.85 4.513v.156h-11.7v-.156c0-2.495 2.608-4.513 5.85-4.513Z" />
        <path fill="#0B1B32"
            d="M157.361 92.043v.416h12.054v-.354a.521.521 0 0 0 0-.125v-.499a4.993 4.993 0 0 0-3.398-3.64 8 8 0 0 0-.707-.218 7.327 7.327 0 0 0-1.901-.239c-.393.001-.785.03-1.174.083-2.608.406-4.624 2.08-4.843 4.222a2.18 2.18 0 0 0 0 .229.488.488 0 0 0-.031.125Zm.374 0v-.573c.374-2.079 2.754-3.722 5.612-3.722a7.266 7.266 0 0 1 2.078.312 4.583 4.583 0 0 1 3.553 3.837v.146h-11.243Z" />
        <path fill="#FFB300"
            d="M162.983 87.26c3.45 0 6.234 2.162 6.234 4.835v.166h-12.469v-.166c-.021-2.694 2.775-4.836 6.235-4.836Z" />
        <path fill="#fff"
            d="M156.664 92.178c.863-5.532 6.484-4.804 7.378-4.784a4.26 4.26 0 0 1 2.244.739 8.546 8.546 0 0 0-5.393.821c-2.556 1.28-2.275 3.286-2.275 3.286s-.915.01-1.954-.062Z" />
        <path fill="#0B1B32"
            d="M169.239 108.057c.239-.124.468-.27.696-.405l1.039-.749.198-.156.197-.166a9.079 9.079 0 0 0 2.619-3.37h.166a11.3 11.3 0 0 1-.624 2.569c-.117.312-.242.614-.374.905l-.093.187-.094.187a11.105 11.105 0 0 1-3.751 4.16h-11.056a26.529 26.529 0 0 0 11.077-3.162Z" />
        <path fill="#0B1B32"
            d="M169.239 111.229a11.15 11.15 0 0 0 3.751-4.159l.093-.188c.032-.06.06-.123.083-.187.144-.289.269-.588.374-.894.314-.828.527-1.69.634-2.569h-.166l.073-.197c.029-.064.053-.13.073-.198 0-.083-.001-.145.072-.218.094-.296.167-.599.218-.905a.61.61 0 0 0 0-.135c.022.402.022.804 0 1.206v.187a1.18 1.18 0 0 0 0 .188 11.676 11.676 0 0 1-.935 3.494l-.083.187-.135.177a9.082 9.082 0 0 1-1.372 2.079l-.426.375-1.776 1.591-.219.187-.187.166H158.816l10.423-.187Z" />
        <path fill="#0B1B32"
            d="M167.793 115.701h.374v-4.43h-.374v4.43ZM166.537 115.701h.374v-4.43h-.374v4.43ZM165.279 115.701h.374v-4.43h-.374v4.43ZM164.012 115.701h.374v-4.43h-.374v4.43ZM162.754 115.701h.374v-4.43h-.374v4.43ZM161.486 115.701h.374v-4.43h-.374v4.43ZM160.229 115.701h.374v-4.43h-.374v4.43ZM158.973 115.701h.374v-4.43h-.374v4.43ZM157.703 115.701h.374v-4.43h-.374v4.43ZM156.561 92.074v.385h12.864V91.637a.813.813 0 0 0 0-.156c-.354-2.319-2.775-4.16-5.778-4.367-.2-.01-.402-.01-.602 0a6.548 6.548 0 0 0-.78 0c-3.242.28-5.725 2.391-5.704 4.96Zm.353 0v-.094c.073-2.298 2.359-4.16 5.299-4.482.26-.016.52-.016.78 0a7.351 7.351 0 0 1 2.94.583l.239.114a4.6 4.6 0 0 1 2.889 3.785v.146l-12.147-.052ZM144.446 93.582a.655.655 0 0 0-.073.28c.002.096.02.191.052.281a.9.9 0 0 0 .166.24.79.79 0 0 0 .26.135 2.08 2.08 0 0 1 1.133.644c.304.332.496.75.55 1.196v1.04c0 2.59 0 8.663 4.707 10.233.604.217 1.24.333 1.881.343h.426l-.259-.426h-.427a5.626 5.626 0 0 1-1.496-.302c-4.395-1.476-4.416-7.28-4.416-9.827.021-.374.021-.749 0-1.123a2.58 2.58 0 0 0-2.005-2.194.126.126 0 0 1-.084 0 .222.222 0 0 1 0-.073.232.232 0 0 1-.021-.094c0-.032.008-.064.021-.093l.395-.728.125-.229a.142.142 0 0 1 .093-.083.252.252 0 0 1 .125 0 3.874 3.874 0 0 1 2.39 1.206c1.517 1.529 2.442 4.316 3.252 7.124.053.193.122.381.208.561.05.111.113.216.187.312l.073.083a.647.647 0 0 0 .114.125v-.707c0-.104-.093-.208-.135-.312v-.094a.29.29 0 0 0 0-.093l-.114-.395c-1.185-4.056-2.65-7.924-5.881-8.236a.633.633 0 0 0-.364.072.53.53 0 0 0-.26.26l-.519.947-.104-.073Z" />
    </g>
    <defs>
        <clipPath id="a">
            <path fill="#fff" d="M0 0h215v204H0z" />
        </clipPath>
    </defs>
</svg>