<svg viewBox="0 0 50 34" fill="none" xmlns="http://www.w3.org/2000/svg">
    <g clip-path="url(#clip0_853_9146)">
        <path fill-rule="evenodd" clip-rule="evenodd"
            d="M19.2222 8.1822C19.2222 8.1822 14.0322 5.52001 8.8422 10.8675C3.65219 16.2149 3.9492 19.1849 3.9492 22.7165C3.9492 26.2481 2.08893 28.9719 6.11432 28.9642C10.1397 28.9565 20.1836 28.6641 20.1836 28.6641L19.2222 8.1822Z"
            fill="url(#paint0_linear_853_9146)" />
        <path
            d="M44.7191 2.01172H23.4901C21.4525 2.01172 19.8008 3.63767 19.8008 5.64337V24.8404C19.8008 26.8461 21.4525 28.472 23.4901 28.472H44.7191C46.7566 28.472 48.4084 26.8461 48.4084 24.8404V5.64337C48.4084 3.63767 46.7566 2.01172 44.7191 2.01172Z"
            fill="url(#paint1_linear_853_9146)" />
        <path fill-rule="evenodd" clip-rule="evenodd"
            d="M28.2191 27.3018C27.1153 27.3198 26.0115 27.2762 24.9128 27.171H5.07504V19.0998C5.09105 17.4876 5.74428 15.9449 6.89624 14.7987L11.289 10.867C12.5558 9.74282 14.211 9.13733 15.9162 9.1743H20.5435V6.72755H15.9162C13.5881 6.72421 11.3361 7.54325 9.5694 9.0358L5.20792 12.9368C4.32816 13.732 3.62637 14.6989 3.14728 15.7759C2.66819 16.8529 2.42231 18.0164 2.42532 19.1921V27.3018C2.4261 27.9567 2.69026 28.5847 3.16005 29.0484C3.63496 29.5099 4.27484 29.7696 4.94217 29.7716H26.7652C27.4191 29.7366 28.0368 29.4651 28.4998 29.0093C28.9629 28.5535 29.2386 27.9454 29.2743 27.3018H28.2191Z"
            fill="url(#paint2_linear_853_9146)" />
        <path fill-rule="evenodd" clip-rule="evenodd"
            d="M19.2221 16.8842H11.2886C11.1679 16.8837 11.0504 16.846 10.9525 16.7765C10.8525 16.7084 10.7761 16.6117 10.7337 16.4995C10.6949 16.3846 10.6949 16.2604 10.7337 16.1455C10.7634 16.0307 10.8257 15.9266 10.9134 15.8455L13.696 13.6295C14.5136 12.9619 15.5414 12.5947 16.6037 12.5908H18.9486L19.2143 16.8842H19.2221Z"
            fill="url(#paint3_linear_853_9146)" />
        <path fill-rule="evenodd" clip-rule="evenodd"
            d="M19.2223 17.538H11.2888C11.0151 17.5574 10.7421 17.4929 10.5072 17.3534C10.2699 17.2137 10.0838 17.0036 9.97565 16.7532C9.86212 16.5063 9.83983 16.2282 9.91262 15.9668C9.98541 15.7055 10.1487 15.4774 10.3743 15.3221L13.1491 13.1062C14.0755 12.3429 15.2473 11.9284 16.4554 11.9366H18.8002C19.0075 11.9366 19.2063 12.0177 19.3529 12.162C19.4995 12.3063 19.5819 12.502 19.5819 12.7061C19.5819 12.9101 19.4995 13.1058 19.3529 13.2501C19.2063 13.3944 19.0075 13.4755 18.8002 13.4755H16.5804C15.7356 13.4804 14.9143 13.7499 14.2355 14.2449L11.9532 16.0992H19.3552C19.4594 16.097 19.5631 16.1153 19.66 16.1531C19.7589 16.1918 19.8488 16.2499 19.9241 16.324C19.9993 16.3981 20.0584 16.4866 20.0977 16.5839C20.1361 16.6794 20.1547 16.7814 20.1525 16.884C20.0964 17.0811 19.9755 17.2544 19.8085 17.3764C19.6376 17.4946 19.4307 17.5516 19.2223 17.538Z"
            fill="url(#paint4_linear_853_9146)" />
        <path fill-rule="evenodd" clip-rule="evenodd"
            d="M4.94192 29.249H1.63563C1.42833 29.249 1.22952 29.1679 1.08294 29.0236C0.936353 28.8793 0.854004 28.6836 0.854004 28.4796C0.854004 28.2755 0.936353 28.0798 1.08294 27.9355C1.22952 27.7912 1.42833 27.7101 1.63563 27.7101H4.94192C5.04617 27.7079 5.14981 27.7262 5.24676 27.764C5.34568 27.8027 5.43552 27.8609 5.51079 27.935C5.58606 28.0091 5.64516 28.0975 5.68447 28.1949C5.72019 28.2908 5.73613 28.3929 5.73137 28.495C5.59849 28.8643 5.20768 29.249 4.94192 29.249Z"
            fill="url(#paint5_linear_853_9146)" />
        <path fill-rule="evenodd" clip-rule="evenodd"
            d="M11.953 32.4117C11.0106 32.4128 10.0892 32.1386 9.30533 31.6238C8.52146 31.109 7.91044 30.3768 7.54968 29.5199C7.18892 28.6629 7.09464 27.7199 7.2788 26.8102C7.46295 25.9005 7.91724 25.0651 8.58413 24.4097C9.24731 23.7498 10.0972 23.302 11.0228 23.1248C11.7148 22.9905 12.4285 23.009 13.1124 23.1789C13.7962 23.3489 14.4333 23.6661 14.9776 24.1077C15.5219 24.5493 15.9599 25.1043 16.26 25.7326C16.5601 26.3609 16.7148 27.047 16.7131 27.7413C16.7263 28.3627 16.612 28.9803 16.377 29.5571C16.1417 30.1331 15.7908 30.6565 15.3452 31.096C14.8999 31.5359 14.3679 31.8815 13.782 32.1116C13.1977 32.3396 12.5735 32.452 11.9451 32.4424L11.953 32.4117Z"
            fill="url(#paint6_linear_853_9146)" />
        <path fill-rule="evenodd" clip-rule="evenodd"
            d="M11.9531 24.4319C12.6333 24.4312 13.2979 24.6323 13.8602 25.0089C14.5674 25.4771 15.0728 26.187 15.2784 27.0011C15.4841 27.8152 15.3754 28.6754 14.9734 29.4151C14.5714 30.1548 13.9048 30.7212 13.1027 31.0046C12.3006 31.2879 11.4202 31.2681 10.6321 30.9488C10.1168 30.7361 9.66257 30.4018 9.30939 29.9755C8.95622 29.5492 8.71496 29.044 8.60685 28.5043C8.49875 27.9646 8.52712 27.4071 8.68947 26.8807C8.85182 26.3544 9.14316 25.8754 9.53784 25.486C10.1813 24.8558 11.0457 24.4924 11.9531 24.4703V24.4319ZM11.9531 21.962C10.4891 21.97 9.08044 22.5134 8.00068 23.4865C6.92093 24.4597 6.24718 25.7932 6.11033 27.228C5.97347 28.6628 6.38328 30.0965 7.26014 31.2505C8.13699 32.4045 9.4183 33.1964 10.8552 33.4725C12.292 33.7486 13.7818 33.4892 15.0352 32.7445C16.2886 31.9998 17.216 30.8231 17.6374 29.443C18.0587 28.0629 17.9439 26.5778 17.3152 25.2764C16.6865 23.9749 15.5888 22.95 14.2354 22.4006C13.5119 22.1062 12.7359 21.9571 11.9531 21.962Z"
            fill="url(#paint7_linear_853_9146)" />
        <path fill-rule="evenodd" clip-rule="evenodd"
            d="M43.4214 0.21875H24.5138C22.8312 0.220786 21.218 0.879674 20.0282 2.0509C18.8384 3.22213 18.1691 4.81006 18.167 6.46643V27.1715C18.2148 27.5717 18.3714 27.9518 18.6203 28.2717C18.8753 28.5936 19.2125 28.8432 19.5974 28.995C21.0106 29.4389 22.477 29.6976 23.9589 29.7644C25.0219 29.7644 26.3037 29.8952 28.0624 29.8952C30.9701 29.8952 33.4791 29.7644 33.8777 29.7644H43.1635C44.8458 29.7604 46.4584 29.1022 47.65 27.9332C48.2375 27.3529 48.7048 26.6656 49.0257 25.9096C49.3458 25.1512 49.5105 24.338 49.5103 23.5167V6.46643C49.5385 5.66079 49.4029 4.85772 49.1117 4.10431C48.8174 3.35073 48.3735 2.6625 47.8058 2.07987C47.2381 1.49724 46.558 1.03193 45.8054 0.711177C45.0633 0.399678 44.2671 0.232463 43.4605 0.21875H43.4214ZM47.1263 23.5244C47.1243 24.5258 46.7193 25.4855 46 26.1935C45.2807 26.9016 44.3057 27.3002 43.2885 27.3023H34.0341C34.0341 27.3023 31.9158 27.4331 29.4068 27.4331H28.0859C26.9821 27.4513 25.8783 27.4076 24.7796 27.3023C23.3516 27.2904 21.9299 27.1148 20.5431 26.7791V6.59723C20.5431 6.10148 20.6425 5.61059 20.8354 5.15268C21.0284 4.69476 21.3112 4.2788 21.6677 3.92861C22.0242 3.57841 22.4473 3.30087 22.9129 3.11185C23.3784 2.92284 23.8773 2.82607 24.3809 2.82708H43.2885C43.7922 2.82607 44.291 2.92284 44.7566 3.11185C45.2222 3.30087 45.6453 3.57841 46.0018 3.92861C46.3583 4.2788 46.6411 4.69476 46.834 5.15268C47.027 5.61059 47.1263 6.10148 47.1263 6.59723V23.5244Z"
            fill="url(#paint8_linear_853_9146)" />
        <g opacity="0.18">
            <path fill-rule="evenodd" clip-rule="evenodd"
                d="M45.438 10.8673C45.3479 10.8864 45.2546 10.8864 45.1644 10.8673C45.0795 10.8379 45.0022 10.7907 44.9378 10.7288C44.87 10.6679 44.819 10.5911 44.7893 10.5057C44.7704 10.4221 44.7704 10.3354 44.7893 10.2518V6.6432C44.7893 5.45829 44.5157 5.45829 43.5543 5.45829H37.0746C36.8914 5.45898 36.715 5.39008 36.5822 5.26594C36.4576 5.14204 36.3877 4.97476 36.3877 4.80044C36.3877 4.62611 36.4576 4.45883 36.5822 4.33494C36.715 4.21079 36.8914 4.14189 37.0746 4.14258H43.6324C44.5939 4.14258 46.1024 4.14258 46.1024 6.51239V10.0979C46.1024 10.6211 45.8288 10.8673 45.4224 10.8673H45.438Z"
                fill="white" />
        </g>
        <path fill-rule="evenodd" clip-rule="evenodd"
            d="M34.8314 32.4116C33.8891 32.4127 32.9676 32.1385 32.1837 31.6237C31.3999 31.1089 30.7889 30.3767 30.4281 29.5197C30.0673 28.6628 29.9731 27.7198 30.1572 26.8101C30.3414 25.9004 30.7957 25.0649 31.4626 24.4096C32.1279 23.7529 32.9766 23.3058 33.9007 23.1249C34.8248 22.9441 35.7826 23.0377 36.6526 23.394C37.521 23.7491 38.2634 24.3491 38.7864 25.1185C39.3093 25.8879 39.5894 26.7924 39.5915 27.7181C39.5629 28.9493 39.0501 30.1216 38.1611 30.9881C37.2786 31.8667 36.086 32.3765 34.8314 32.4116Z"
            fill="url(#paint9_linear_853_9146)" />
        <path fill-rule="evenodd" clip-rule="evenodd"
            d="M34.8313 24.4324C35.3396 24.433 35.8415 24.5444 36.3007 24.7588C36.76 24.9732 37.1653 25.2851 37.4875 25.6721C37.8096 26.0591 38.0406 26.5117 38.1639 26.9971C38.2871 27.4825 38.2995 27.9888 38.2001 28.4795C38.0286 29.3013 37.5533 30.0311 36.8663 30.5275C36.1793 31.0238 35.3295 31.2515 34.4817 31.1662C33.6339 31.0809 32.8485 30.6888 32.2776 30.0659C31.7068 29.443 31.3912 28.6336 31.3921 27.7947C31.3851 27.3491 31.4702 26.9067 31.6423 26.4944C31.8263 26.0804 32.092 25.7064 32.4239 25.3941C32.7393 25.0653 33.1196 24.8035 33.5416 24.6247C33.9608 24.4559 34.4096 24.3696 34.8626 24.3708L34.8313 24.4324ZM34.8313 21.9625C33.8013 21.9606 32.7884 22.2216 31.8915 22.7201C30.9946 23.2186 30.2443 23.9375 29.714 24.8067C29.1836 25.6759 28.8913 26.6656 28.8656 27.6792C28.8399 28.6928 29.0817 29.6956 29.5673 30.5898C30.0529 31.4839 30.7658 32.2388 31.6363 32.7807C32.5069 33.3226 33.5053 33.6331 34.5341 33.6817C35.5629 33.7303 36.587 33.5155 37.5062 33.0582C38.4255 32.6009 39.2086 31.9167 39.779 31.0725C40.4384 30.1032 40.787 28.9613 40.7795 27.7947C40.7652 26.2462 40.134 24.765 39.0215 23.67C37.9091 22.5749 36.4044 21.9535 34.8313 21.9395V21.9625Z"
            fill="url(#paint10_linear_853_9146)" />
        <path
            d="M34.0341 6.8584C32.281 6.86043 30.6002 7.54688 29.3606 8.76717C28.1209 9.98745 27.4236 11.6419 27.4215 13.3677C27.4147 14.4151 27.684 15.4464 28.2031 16.3607L28.336 16.4915L30.0712 15.4836L29.9384 15.3528C29.6346 14.7412 29.4541 14.0776 29.4069 13.3985C29.3961 12.2627 29.8167 11.1639 30.5863 10.3177C31.3559 9.47144 32.4189 8.93876 33.5669 8.82412C34.7148 8.70948 35.8648 9.02116 36.7914 9.69802C37.718 10.3749 38.3542 11.3681 38.5754 12.4828C38.7097 13.1436 38.6932 13.8254 38.5271 14.4791C38.3609 15.1327 38.0493 15.7419 37.6147 16.2625C37.1801 16.783 36.6334 17.202 36.0142 17.4892C35.3949 17.7763 34.7186 17.9243 34.0341 17.9226C33.3292 17.9215 32.6331 17.7692 31.994 17.4764C31.3632 17.1869 30.8013 16.7701 30.3448 16.253L30.2119 16.1299L28.4923 17.1686L28.6252 17.2994C29.245 18.104 30.0447 18.7571 30.9625 19.2081C31.8802 19.6592 32.8911 19.8959 33.9168 19.9C35.6623 19.9279 37.3481 19.2751 38.6066 18.0842C39.2352 17.4959 39.7375 16.7895 40.0839 16.0068C40.4347 15.2229 40.6234 14.378 40.6389 13.5216C40.6542 12.6562 40.4975 11.7963 40.1777 10.9902C39.6888 9.77729 38.8409 8.73702 37.744 8.00437C36.6471 7.27172 35.3518 6.8805 34.0263 6.88148L34.0341 6.8584ZM33.9012 19.4846C32.9566 19.4986 32.022 19.293 31.1733 18.8844C30.3244 18.4778 29.5832 17.8825 29.0082 17.1455L30.1963 16.3761C30.6513 16.9405 31.2374 17.3888 31.9054 17.6834C32.5733 17.978 33.3034 18.1102 34.0341 18.0688C34.9981 18.0826 35.9446 17.8149 36.7542 17.2994C37.5606 16.7712 38.189 16.0186 38.5593 15.1375C38.9296 14.2564 39.025 13.2867 38.8333 12.352C38.5966 11.1792 37.9251 10.1349 36.9495 9.42239C35.9739 8.70989 34.7639 8.38011 33.555 8.49719C32.3461 8.61428 31.2246 9.16987 30.4087 10.0559C29.5929 10.9419 29.1411 12.0949 29.1411 13.2907C29.1615 13.9444 29.3046 14.5888 29.5632 15.1912L28.3751 15.9606C27.9383 15.1116 27.7107 14.1732 27.7107 13.2215C27.7107 11.5645 28.3794 9.97538 29.5697 8.80371C30.7599 7.63204 32.3743 6.97381 34.0575 6.97381C35.7408 6.97381 37.3552 7.63204 38.5454 8.80371C39.7357 9.97538 40.4044 11.5645 40.4044 13.2215C40.3406 14.881 39.6335 16.4534 38.4283 17.6154C37.2231 18.7775 35.6114 19.4408 33.9247 19.4692L33.9012 19.4846Z"
            fill="#E89B00" />
        <path
            d="M41.2332 10.3285C40.8365 9.40773 40.2587 8.57335 39.5329 7.87346C38.8072 7.17358 37.9479 6.62201 37.0045 6.25056C35.5928 5.69354 34.0466 5.55408 32.5554 5.84929C31.0643 6.14449 29.6931 6.86153 28.6099 7.91251C27.8958 8.59625 27.329 9.41471 26.9436 10.319C26.5582 11.2232 26.3619 12.1947 26.3666 13.1753V13.2215C26.3469 13.5161 26.3469 13.8117 26.3666 14.1063C26.4545 14.984 26.6951 15.8403 27.0779 16.6377L25.1629 17.8226L24.4672 18.2458C24.3091 18.3469 24.197 18.5045 24.1548 18.6854C24.1125 18.8663 24.1432 19.0563 24.2406 19.2153C24.29 19.2939 24.3548 19.3621 24.4313 19.416C24.5077 19.4698 24.5942 19.5082 24.6857 19.5289C24.7773 19.5497 24.8721 19.5524 24.9648 19.5368C25.0574 19.5213 25.146 19.4878 25.2254 19.4384L25.3974 19.3384L27.8048 17.7995C28.5006 18.6998 29.396 19.4318 30.4227 19.9398C31.4495 20.4478 32.5805 20.7184 33.7295 20.731H33.9953C36.0441 20.7313 38.0112 19.9397 39.4731 18.5266C40.9349 17.1135 41.7747 15.1919 41.8116 13.1753C41.8081 12.1984 41.6117 11.2315 41.2332 10.3285ZM39.9826 15.7683C39.5226 16.7955 38.7973 17.6861 37.8789 18.3515C36.9605 19.0168 35.881 19.4337 34.7479 19.5606C33.6149 19.6875 32.4679 19.5199 31.4211 19.0746C30.3743 18.6292 29.4643 17.9217 28.7818 17.0224L30.2435 16.253C30.6796 16.8163 31.2519 17.2633 31.9083 17.5533C32.5768 17.8508 33.3107 17.9778 34.0422 17.9226C34.9819 17.9198 35.8997 17.6429 36.6795 17.1267C37.4593 16.6106 38.0662 15.8784 38.4234 15.0228C38.7806 14.1672 38.8721 13.2266 38.6863 12.3198C38.5006 11.413 38.0459 10.5808 37.3797 9.92838C36.7135 9.27306 35.8654 8.82627 34.9419 8.64419C34.0185 8.46211 33.0609 8.55286 32.1897 8.90505C31.3225 9.26549 30.5809 9.86713 30.0559 10.6362C29.5402 11.4081 29.2682 12.313 29.2742 13.2369C29.309 13.9598 29.4896 14.6686 29.8058 15.322L28.3519 16.0914C27.8756 15.2075 27.6084 14.229 27.5703 13.2292C27.5705 12.282 27.785 11.3468 28.1982 10.4914C28.6114 9.63603 29.213 8.88198 29.9592 8.284C30.7054 7.68603 31.5775 7.25915 32.5122 7.03436C33.4469 6.80957 34.4207 6.79251 35.363 6.98444C36.3052 7.17636 37.1922 7.57244 37.9595 8.1439C38.7268 8.71537 39.3552 9.44789 39.7991 10.2883C40.243 11.1286 40.4911 12.0558 40.5255 13.0023C40.56 13.9489 40.3798 14.8911 39.9982 15.7606L39.9826 15.7683ZM37.2 14.7142C36.9304 15.3569 36.473 15.9062 35.8857 16.2925C35.2985 16.6789 34.6078 16.8847 33.9015 16.8839C33.4221 16.8842 32.9478 16.7873 32.5081 16.5993C32.0684 16.4114 31.6727 16.1363 31.3456 15.7914L32.3382 15.2066C32.8156 15.4859 33.3491 15.6592 33.9015 15.7144C34.215 15.7137 34.5255 15.6536 34.816 15.5374C35.1062 15.4214 35.3699 15.2492 35.5914 15.0312C35.8129 14.8131 35.9878 14.5536 36.1057 14.2679C36.1816 14.0831 36.2316 13.8889 36.2542 13.6908C36.2329 13.8552 36.1882 14.0158 36.1213 14.1679C35.9614 14.5483 35.6891 14.8726 35.3397 15.0989C34.9907 15.3295 34.5798 15.4527 34.1594 15.4528H34.0656C34.4517 15.43 34.8243 15.305 35.1443 15.0912C35.5149 14.8492 35.8035 14.5035 35.9728 14.0986C36.1468 13.6956 36.1905 13.2497 36.0979 12.8214C36.0379 12.5471 35.9265 12.2862 35.7696 12.052C36.005 12.3202 36.1665 12.6434 36.2386 12.9907C36.1662 12.5809 35.9828 12.1981 35.7076 11.8825C35.4324 11.5669 35.0758 11.3304 34.6753 11.1979L34.5268 11.1518L34.3392 11.0979C34.2104 11.0733 34.0796 11.0604 33.9484 11.0594H33.8311C33.7323 11.0518 33.633 11.0518 33.5341 11.0594H33.3856H33.2449C32.8576 11.163 32.5046 11.3646 32.221 11.6442C31.999 11.8604 31.8231 12.1181 31.7036 12.4022C31.5841 12.6863 31.5235 12.991 31.5253 13.2984C31.5023 13.5246 31.5486 13.7524 31.6582 13.9524L30.5952 14.5988C30.4458 14.2041 30.3613 13.7885 30.3451 13.3677C30.3472 12.6723 30.5564 11.9928 30.9469 11.4134C31.3325 10.8449 31.8748 10.3965 32.5102 10.1207C33.1655 9.8522 33.8873 9.78198 34.5834 9.91902C35.2795 10.0561 35.9183 10.3942 36.4183 10.8902C36.9222 11.3824 37.2657 12.0112 37.4049 12.6964C37.5441 13.3816 37.4727 14.0921 37.2 14.7372V14.7142ZM37.6064 14.7142C37.6915 14.4945 37.7569 14.268 37.8018 14.0371C37.755 14.3001 37.6817 14.5578 37.583 14.8065C37.3427 15.3687 36.9664 15.8646 36.4869 16.2508C36.0073 16.6371 35.439 16.902 34.8316 17.0224C35.0691 16.9693 35.3017 16.8973 35.5273 16.807C35.9976 16.6115 36.4237 16.3257 36.7806 15.9664C37.1376 15.6071 37.4183 15.1814 37.6064 14.7142ZM34.7691 17.0686C34.53 17.1178 34.2865 17.1436 34.0422 17.1455C34.2862 17.1394 34.5293 17.1136 34.7691 17.0686ZM34.0344 17.1455C33.4953 17.1631 32.9597 17.055 32.4711 16.8301C32.4086 16.8301 32.3617 16.7531 32.2991 16.7223L32.4242 16.7916C32.9303 17.0179 33.4786 17.1385 34.0344 17.1455ZM34.3001 13.1061C34.1672 12.8445 33.7686 12.8445 33.5185 12.9753L32.7369 13.4985V13.3677C32.737 13.137 32.8078 12.9118 32.9401 12.7214C33.069 12.5264 33.2541 12.3737 33.4716 12.2828C33.6899 12.197 33.9289 12.1756 34.1594 12.2213C34.39 12.2644 34.6023 12.3742 34.7691 12.5367C34.9334 12.7026 35.0471 12.9105 35.0974 13.1369C35.1451 13.3643 35.1205 13.6007 35.027 13.8139C34.9357 14.0285 34.7838 14.2127 34.5893 14.3448C34.3924 14.4729 34.161 14.5399 33.9249 14.5372C33.6592 14.5372 33.5341 14.4141 33.2684 14.4141L34.05 13.8909C34.433 13.6293 34.433 13.2369 34.3001 13.1061ZM30.4623 14.7988C30.2407 14.3553 30.1513 13.8591 30.2044 13.3677V13.2907C30.235 13.8011 30.3215 14.3067 30.4623 14.7988Z"
            fill="#E89B00" />
        <path
            d="M36.2461 12.96C36.2538 13.0829 36.2538 13.2063 36.2461 13.3293C36.2577 13.2064 36.2577 13.0828 36.2461 12.96Z"
            fill="#E89B00" />
    </g>
    <defs>
        <linearGradient id="paint0_linear_853_9146" x1="3.51931" y1="18.2385" x2="20.1524" y2="18.2385"
            gradientUnits="userSpaceOnUse">
            <stop stop-color="#FFD777" />
            <stop offset="1" stop-color="white" stop-opacity="0.78" />
        </linearGradient>
        <linearGradient id="paint1_linear_853_9146" x1="19.8008" y1="15.238" x2="48.4006" y2="15.238"
            gradientUnits="userSpaceOnUse">
            <stop stop-color="#FFD777" />
            <stop offset="1" stop-color="white" stop-opacity="0.78" />
        </linearGradient>
        <linearGradient id="paint2_linear_853_9146" x1="2.42532" y1="18.2534" x2="29.2743" y2="18.2534"
            gradientUnits="userSpaceOnUse">
            <stop stop-color="#FFB300" />
            <stop offset="1" stop-color="#E3A000" />
        </linearGradient>
        <linearGradient id="paint3_linear_853_9146" x1="10.6946" y1="14.7375" x2="19.2221" y2="14.7375"
            gradientUnits="userSpaceOnUse">
            <stop stop-color="#FFD777" />
            <stop offset="1" stop-color="white" stop-opacity="0.78" />
        </linearGradient>
        <linearGradient id="paint4_linear_853_9146" x1="9.86622" y1="14.7373" x2="20.1525" y2="14.7373"
            gradientUnits="userSpaceOnUse">
            <stop stop-color="#FFB300" />
            <stop offset="1" stop-color="#E3A000" />
        </linearGradient>
        <linearGradient id="paint5_linear_853_9146" x1="0.838371" y1="28.4719" x2="5.73137" y2="28.4719"
            gradientUnits="userSpaceOnUse">
            <stop stop-color="#FFB300" />
            <stop offset="1" stop-color="#E3A000" />
        </linearGradient>
        <linearGradient id="paint6_linear_853_9146" x1="7.18502" y1="27.6874" x2="16.7131" y2="27.6874"
            gradientUnits="userSpaceOnUse">
            <stop stop-color="#FFD777" />
            <stop offset="1" stop-color="white" />
        </linearGradient>
        <linearGradient id="paint7_linear_853_9146" x1="5.99706" y1="27.8173" x2="17.9013" y2="27.8173"
            gradientUnits="userSpaceOnUse">
            <stop stop-color="#FFB300" />
            <stop offset="1" stop-color="#E3A000" />
        </linearGradient>
        <linearGradient id="paint8_linear_853_9146" x1="18.167" y1="15.0608" x2="49.5103" y2="15.0608"
            gradientUnits="userSpaceOnUse">
            <stop stop-color="#FFB300" />
            <stop offset="1" stop-color="#E3A000" />
        </linearGradient>
        <linearGradient id="paint9_linear_853_9146" x1="30.0713" y1="27.6873" x2="39.5915" y2="27.6873"
            gradientUnits="userSpaceOnUse">
            <stop stop-color="#FFD777" />
            <stop offset="1" stop-color="white" />
        </linearGradient>
        <linearGradient id="paint10_linear_853_9146" x1="28.8753" y1="27.8178" x2="40.7795" y2="27.8178"
            gradientUnits="userSpaceOnUse">
            <stop stop-color="#FFB300" />
            <stop offset="1" stop-color="#E3A000" />
        </linearGradient>
        <clipPath id="clip0_853_9146">
            <rect width="48.672" height="33.462" fill="white" transform="translate(0.838379 0.21875)" />
        </clipPath>
    </defs>
</svg>