<svg viewBox="0 0 46 39" fill="none" xmlns="http://www.w3.org/2000/svg">
    <g clip-path="url(#clip0_853_9120)">
        <path
            d="M20.8147 38.2595C24.5225 38.2595 28.147 37.1741 31.2299 35.1404C34.3128 33.1066 36.7156 30.2161 38.1346 26.8341C39.5535 23.4522 39.9247 19.7308 39.2014 16.1406C38.478 12.5504 36.6925 9.25251 34.0707 6.66409C31.449 4.07568 28.1086 2.31294 24.4721 1.5988C20.8355 0.88466 17.0661 1.25118 13.6406 2.65202C10.2151 4.05286 7.28721 6.42511 5.22728 9.46876C3.16735 12.5124 2.06787 16.0908 2.06787 19.7514C2.06787 24.66 4.04298 29.3677 7.55869 32.8386C11.0744 36.3096 15.8427 38.2595 20.8147 38.2595Z"
            fill="url(#paint0_linear_853_9120)" />
        <path fill-rule="evenodd" clip-rule="evenodd"
            d="M21.1803 0.833008C9.92552 0.833008 0.788818 9.50078 0.788818 19.8414C0.788818 30.1821 9.92552 38.858 21.1803 38.858C32.435 38.858 41.5717 30.1903 41.5717 19.8414C41.5717 9.49258 32.4184 0.833008 21.1803 0.833008ZM38.6978 20.1038C38.6978 29.0176 30.724 36.3979 21.0474 36.3979C11.3708 36.3979 3.66273 29.1816 3.66273 20.1038C3.66273 11.026 11.3791 3.70313 21.0474 3.70313C30.7157 3.70313 38.6978 11.1818 38.6978 20.1038Z"
            fill="url(#paint1_linear_853_9120)" />
        <path fill-rule="evenodd" clip-rule="evenodd"
            d="M13.8626 21.9159C13.0978 21.9321 12.3438 21.7361 11.6864 21.3501C11.0268 20.9691 10.4864 20.4158 10.1248 19.7511C9.76848 19.0829 9.60201 18.332 9.64308 17.578C9.68902 16.8243 9.94484 16.0979 10.3823 15.4787C10.8426 14.7994 11.4953 14.2692 12.2591 13.9542C13.0228 13.6391 13.8637 13.5533 14.6766 13.7074C15.4949 13.8678 16.2466 14.2645 16.8362 14.8472C17.4184 15.4308 17.8166 16.1686 17.9824 16.9711C18.1439 17.7759 18.0571 18.6101 17.7332 19.3656C17.4208 20.1211 16.8871 20.7673 16.2006 21.2217C15.514 21.676 14.7057 21.9177 13.8792 21.9159H13.8626ZM13.8626 15.0605C13.499 15.0594 13.1394 15.1349 12.8077 15.2819C12.473 15.4191 12.1705 15.6229 11.9189 15.8805C11.6563 16.1257 11.447 16.4213 11.304 16.7491C11.161 17.077 11.0873 17.4301 11.0873 17.7871C11.0873 18.144 11.161 18.4972 11.304 18.825C11.447 19.1528 11.6563 19.4484 11.9189 19.6936C12.4306 20.1965 13.1161 20.4895 13.8377 20.5137C14.207 20.511 14.5719 20.4328 14.9091 20.2841C15.2426 20.1474 15.5451 19.9465 15.7989 19.693C16.0528 19.4396 16.2529 19.1387 16.3876 18.808C16.6659 18.1437 16.6659 17.3976 16.3876 16.7333C16.2425 16.4224 16.0429 16.1392 15.7979 15.8969C15.544 15.6379 15.2424 15.4291 14.9091 15.2819C14.5778 15.1448 14.2218 15.0751 13.8626 15.0769V15.0605Z"
            fill="#EFA801" />
        <path fill-rule="evenodd" clip-rule="evenodd"
            d="M35.3004 18.16L37.2606 20.3659L38.5647 21.9157L39.3455 22.8178L44.1879 28.2546C44.4532 28.5217 44.6646 28.8362 44.8109 29.1812C44.9526 29.5443 45.0176 29.9322 45.0019 30.3211C44.9819 30.7065 44.8889 31.0847 44.7278 31.4363C44.5514 31.7826 44.3121 32.0939 44.0218 32.3548C43.5738 32.7331 43.0212 32.9702 42.4354 33.0354C41.9494 33.0924 41.4569 33.0242 41.0056 32.8374C40.5543 32.6505 40.1598 32.3515 39.8605 31.9693L35.2921 26.9261L30.6905 21.9157C30.4403 21.636 30.2484 21.3102 30.1258 20.9571C30.0033 20.604 29.9525 20.2305 29.9765 19.858C30.0004 19.4855 30.0985 19.1213 30.2652 18.7863C30.4319 18.4513 30.664 18.1521 30.948 17.9057C31.573 17.3953 32.3734 17.1426 33.1824 17.2005C33.9837 17.2529 34.7376 17.5944 35.3004 18.16Z"
            fill="url(#paint2_linear_853_9120)" />
        <path fill-rule="evenodd" clip-rule="evenodd"
            d="M41.9622 33.8145C41.4592 33.7892 40.967 33.6607 40.5169 33.4373C40.0635 33.219 39.6638 32.9056 39.3458 32.5189L34.7774 27.4757L30.2008 22.4571C29.8735 22.1022 29.6203 21.6872 29.4555 21.2358C29.2907 20.7843 29.2176 20.3052 29.2404 19.8259C29.2631 19.3465 29.3813 18.8763 29.5881 18.4421C29.7949 18.0078 30.0864 17.618 30.4458 17.2949C30.8052 16.9719 31.2256 16.7219 31.6828 16.5592C32.1401 16.3965 32.6254 16.3243 33.1109 16.3468C33.5964 16.3692 34.0727 16.4859 34.5126 16.6901C34.9524 16.8943 35.3473 17.182 35.6745 17.5368L37.5018 19.6033L37.6347 19.7345L39.8524 22.0634V22.1864L44.6949 27.6233C45.0347 27.9848 45.2949 28.412 45.4591 28.8779C45.619 29.3473 45.6812 29.8438 45.6418 30.3376C45.6122 30.8336 45.4822 31.3188 45.2597 31.7644C45.0386 32.2122 44.7211 32.6068 44.3294 32.9207C44.0293 33.2334 43.6631 33.4771 43.2568 33.6344C42.8506 33.7917 42.4143 33.8588 41.9788 33.8309L41.9622 33.8145ZM33.1827 18.0371C32.615 18.0277 32.0612 18.21 31.6128 18.5537C31.4147 18.731 31.2545 18.9457 31.1418 19.1851C31.0291 19.4246 30.9661 19.6839 30.9566 19.9477C30.9427 20.4863 31.1459 21.0083 31.5214 21.3992L36.0981 26.4424L40.6581 31.4774C41.0552 31.8715 41.5511 32.1545 42.0951 32.2975C42.3552 32.3129 42.6156 32.2738 42.8593 32.1827C43.1082 32.094 43.3369 31.9574 43.532 31.7808C43.9122 31.3794 44.1811 30.8879 44.3128 30.354C44.3164 29.7958 44.1356 29.2517 43.7978 28.8041L38.9969 23.3673V23.2443L36.8623 21.0138L36.7377 20.8908L34.7774 18.6849C34.297 18.3687 33.7529 18.1589 33.1827 18.0699V18.0371Z"
            fill="url(#paint3_linear_853_9120)" />
        <path
            d="M31.1062 27.5415C32.9954 27.5415 34.8422 26.9884 36.413 25.9522C37.9838 24.9159 39.2081 23.4431 39.9311 21.7199C40.6541 19.9967 40.8432 18.1006 40.4747 16.2713C40.1061 14.442 39.1964 12.7616 37.8605 11.4428C36.5246 10.1239 34.8226 9.22574 32.9697 8.86187C31.1168 8.498 29.1962 8.68475 27.4508 9.39851C25.7054 10.1123 24.2136 11.321 23.164 12.8718C22.1144 14.4226 21.5542 16.2459 21.5542 18.1111C21.5542 20.6122 22.5606 23.0108 24.3519 24.7794C26.1433 26.5479 28.5729 27.5415 31.1062 27.5415Z"
            fill="url(#paint4_linear_853_9120)" />
        <path fill-rule="evenodd" clip-rule="evenodd"
            d="M30.2005 28.1242C28.0112 27.9924 25.9226 27.1701 24.2422 25.7785C22.5617 24.3868 21.3782 22.4993 20.8659 20.3938C20.3535 18.2883 20.5394 16.076 21.3961 14.0826C22.2528 12.0892 23.7351 10.42 25.6248 9.32067C27.5146 8.22138 29.7118 7.75009 31.8932 7.97617C34.0746 8.20225 36.1248 9.11376 37.7421 10.5765C39.3593 12.0393 40.4582 13.976 40.877 16.1016C41.2957 18.2272 41.0122 20.4294 40.0681 22.384C39.2007 24.211 37.7944 25.7366 36.0336 26.7609C34.2728 27.7852 32.2396 28.2604 30.2005 28.1242ZM31.247 9.50122C29.5203 9.40573 27.8037 9.81876 26.3151 10.6879C24.8265 11.557 23.6329 12.8431 22.8858 14.383C22.1386 15.9229 21.8716 17.6472 22.1186 19.3371C22.3656 21.0271 23.1154 22.6065 24.273 23.875C25.4306 25.1436 26.9438 26.0441 28.6205 26.4623C30.2973 26.8805 32.0621 26.7976 33.6911 26.2241C35.32 25.6506 36.7398 24.6123 37.7701 23.241C38.8005 21.8696 39.395 20.2271 39.4784 18.5216C39.5613 16.2571 38.7487 14.0496 37.2125 12.3661C35.6763 10.6826 33.5369 9.65521 31.247 9.50122Z"
            fill="url(#paint5_linear_853_9120)" />
        <path fill-rule="evenodd" clip-rule="evenodd"
            d="M30.3999 25.2619C29.0018 25.1815 27.6585 24.6967 26.5376 23.8678C25.5638 23.135 24.7957 22.169 24.3058 21.0611C23.816 19.9533 23.6207 18.7404 23.7384 17.5372C23.8707 16.2451 24.365 15.015 25.1661 13.985C25.9671 12.9549 27.043 12.1656 28.2732 11.7057C29.5033 11.2458 30.8389 11.1335 32.1301 11.3814C33.4213 11.6293 34.617 12.2275 35.5829 13.109C36.3506 13.8132 36.9518 14.6757 37.3437 15.6352C37.7356 16.5947 37.9086 17.6276 37.8505 18.6606C37.7916 20.0438 37.3159 21.3782 36.4843 22.4929C35.6527 23.6075 34.503 24.4518 33.1824 24.9175C32.2883 25.218 31.342 25.3379 30.3999 25.2701V25.2619ZM31.2305 12.9614C30.1429 12.9079 29.0637 13.1749 28.1301 13.7285C27.1966 14.2822 26.4509 15.0974 25.9879 16.0705C25.5249 17.0436 25.3655 18.1307 25.5299 19.1935C25.6943 20.2563 26.1752 21.2469 26.9113 22.0392C27.4562 22.633 28.1279 23.0999 28.8778 23.4063C29.6277 23.7127 30.4372 23.8508 31.2478 23.8108C32.0583 23.7708 32.8498 23.5536 33.565 23.1749C34.2802 22.7962 34.9014 22.2654 35.3836 21.6209C36.0288 20.7571 36.4016 19.7245 36.455 18.6524C36.5127 17.2147 36.0002 15.8114 35.0264 14.7409C34.0491 13.6757 32.6843 13.0359 31.2305 12.9614Z"
            fill="url(#paint6_linear_853_9120)" />
        <g opacity="0.18">
            <path opacity="0.18" fill-rule="evenodd" clip-rule="evenodd"
                d="M33.8551 19.0703C33.6535 19.0549 33.4645 18.9675 33.3235 18.8243C33.1725 18.686 33.083 18.4944 33.0744 18.2913C33.0922 17.9915 33.0475 17.6913 32.9432 17.4092C32.8389 17.1272 32.6772 16.8692 32.468 16.6512C32.2586 16.4325 32.0073 16.2569 31.7288 16.1346C31.4662 16.0225 31.1842 15.9613 30.8982 15.9542C30.7939 15.9741 30.6868 15.9741 30.5825 15.9542C30.4822 15.9156 30.3895 15.8601 30.3084 15.7902C30.2307 15.7153 30.1687 15.6262 30.1257 15.5278C30.0812 15.4329 30.0612 15.3287 30.0676 15.2243C30.0669 15.1164 30.0879 15.0094 30.1292 14.9095C30.1705 14.8096 30.2315 14.7187 30.3084 14.6421C30.386 14.5661 30.4781 14.506 30.5793 14.4652C30.6805 14.4244 30.7889 14.4037 30.8982 14.4043C31.4126 14.4372 31.9152 14.571 32.3767 14.7979C32.8403 15.0225 33.2529 15.3378 33.5893 15.7246C33.9311 16.1079 34.1935 16.5537 34.3618 17.0366C34.5026 17.5295 34.5533 18.0432 34.5113 18.5537C34.6442 18.6767 34.2787 19.0703 33.8551 19.0703Z"
                fill="white" />
        </g>
        <path fill-rule="evenodd" clip-rule="evenodd"
            d="M20.7897 32.6499H20.524C16.7364 32.5187 14.12 29.2877 13.8791 29.0253C13.8037 28.927 13.7551 28.8113 13.7379 28.6891C13.713 28.5701 13.713 28.4473 13.7379 28.3283C13.7551 28.2062 13.8037 28.0904 13.8791 27.9921C13.9448 27.8896 14.0327 27.8028 14.1366 27.7379C14.2381 27.6668 14.3545 27.6192 14.4771 27.5985C14.5977 27.5739 14.722 27.5739 14.8426 27.5985C14.9644 27.622 15.0802 27.6694 15.1831 27.7379C15.287 27.8028 15.3749 27.8896 15.4406 27.9921C16.7553 29.5514 18.6187 30.562 20.6568 30.8212C22.4842 30.9524 24.4444 29.9192 26.2801 27.9757C26.3555 27.8823 26.4486 27.8043 26.5542 27.7461C26.6617 27.6883 26.7808 27.6547 26.903 27.6477C27.0236 27.6231 27.1479 27.6231 27.2685 27.6477C27.3824 27.6843 27.4891 27.7397 27.5841 27.8117C27.6748 27.8931 27.7531 27.987 27.8167 28.0905C27.87 28.1993 27.9064 28.3154 27.9247 28.4349C27.9325 28.6755 27.8595 28.912 27.717 29.1073C25.491 31.305 23.1404 32.6007 20.7897 32.6007V32.6499Z"
            fill="#EFA801" />
        <g opacity="0.18">
            <path opacity="0.18" fill-rule="evenodd" clip-rule="evenodd"
                d="M15.1751 10.4353C13.4286 9.99286 11.5769 10.2276 10.0004 11.0914C9.22746 11.5049 8.54537 12.0658 7.9936 12.7414C7.44182 13.4171 7.03133 14.1941 6.7859 15.0275C6.54503 15.4867 6.7859 15.7164 7.26766 15.946C7.74941 16.1756 7.98198 15.946 8.22285 15.4867C8.38951 14.8327 8.68906 14.2189 9.1033 13.6827C9.52213 13.1392 10.0476 12.6846 10.6482 12.346C11.8669 11.6506 13.3127 11.4535 14.6767 11.7966C15.1584 12.0262 15.3993 11.7966 15.6402 11.3374C15.8811 10.8781 15.6485 10.6649 15.1751 10.4353Z"
                fill="#22344E" />
        </g>
        <path fill-rule="evenodd" clip-rule="evenodd"
            d="M15.0867 10.0709C13.3402 9.63016 11.489 9.86484 9.91198 10.727C8.36129 11.5629 7.20648 12.9682 6.69752 14.6385C6.45665 15.0978 6.69753 15.3274 7.17928 15.557C7.66103 15.7866 7.8936 15.557 8.13447 15.0978C8.29959 14.4432 8.59928 13.8291 9.01492 13.2937C9.43555 12.7519 9.96062 12.2976 10.5599 11.957C11.7819 11.2616 13.2324 11.0701 14.5966 11.424C15.0784 11.6536 15.3192 11.424 15.5601 10.9648C15.801 10.5056 15.5684 10.3006 15.0867 10.0709Z"
            fill="#EFA801" />
    </g>
    <defs>
        <linearGradient id="paint0_linear_853_9120" x1="20.8147" y1="1.24316" x2="20.8147" y2="38.2595"
            gradientUnits="userSpaceOnUse">
            <stop offset="0.253125" stop-color="#FFD777" />
            <stop offset="1" stop-color="white" stop-opacity="0.76" />
        </linearGradient>
        <linearGradient id="paint1_linear_853_9120" x1="0.788818" y1="19.8496" x2="41.5717" y2="19.8496"
            gradientUnits="userSpaceOnUse">
            <stop stop-color="#FFB300" />
            <stop offset="1" stop-color="#E3A000" />
        </linearGradient>
        <linearGradient id="paint2_linear_853_9120" x1="29.9762" y1="25.1221" x2="45.0019" y2="25.1221"
            gradientUnits="userSpaceOnUse">
            <stop stop-color="#FFD777" />
            <stop offset="1" stop-color="white" stop-opacity="0.78" />
        </linearGradient>
        <linearGradient id="paint3_linear_853_9120" x1="25.8113" y1="23.0924" x2="32.4702" y2="36.338"
            gradientUnits="userSpaceOnUse">
            <stop stop-color="#FFB300" />
            <stop offset="1" stop-color="#E3A000" />
        </linearGradient>
        <linearGradient id="paint4_linear_853_9120" x1="21.5542" y1="18.1111" x2="40.6582" y2="18.1111"
            gradientUnits="userSpaceOnUse">
            <stop stop-color="#FFD777" />
            <stop offset="0.680208" stop-color="white" />
        </linearGradient>
        <linearGradient id="paint5_linear_853_9120" x1="20.4574" y1="17.9722" x2="41.0565" y2="17.9722"
            gradientUnits="userSpaceOnUse">
            <stop stop-color="#FFB300" />
            <stop offset="1" stop-color="#E3A000" />
        </linearGradient>
        <linearGradient id="paint6_linear_853_9120" x1="23.7052" y1="18.2752" x2="37.8588" y2="18.2752"
            gradientUnits="userSpaceOnUse">
            <stop stop-color="#FFB300" />
            <stop offset="1" stop-color="#E3A000" />
        </linearGradient>
        <clipPath id="clip0_853_9120">
            <rect width="44.8695" height="38.025" fill="white" transform="translate(0.788818 0.833008)" />
        </clipPath>
    </defs>
</svg>