<svg viewBox="0 0 42 39" fill="none" xmlns="http://www.w3.org/2000/svg">
    <g clip-path="url(#clip0_853_9175)">
        <path
            d="M40.9731 10.6961C40.3078 7.39472 38.312 6.02465 37.2442 5.74403C36.5911 5.51157 35.8995 5.40788 35.2073 5.43865C35.5268 4.94681 35.7031 4.3751 35.7166 3.78795C35.691 3.01705 35.3737 2.285 34.8295 1.74109C34.288 1.19669 33.5584 0.883294 32.7926 0.866211H8.30022C7.53884 0.888859 6.81534 1.20509 6.27973 1.74933C5.74662 2.28329 5.43289 2.99924 5.40089 3.75493C5.39661 4.34361 5.57142 4.91955 5.90191 5.40563C5.2128 5.38238 4.52527 5.48588 3.8732 5.71101C2.84236 6.08565 1.942 6.75306 1.28149 7.63217C0.620988 8.51129 0.228777 9.56424 0.152526 10.6631C-0.504546 14.5422 1.43381 18.0335 6.00046 21.4669C7.87928 22.8942 9.89302 24.1327 12.0127 25.1645C13.3574 26.9763 15.2603 28.2908 17.4253 28.9033C17.1915 30.2048 16.7969 31.4719 16.2508 32.6752H14.7067C13.6646 32.6817 12.6673 33.1017 11.9319 33.8437C11.1966 34.5857 10.7828 35.5897 10.7807 36.6368V38.1307H30.3039V36.6368C30.3039 35.589 29.8908 34.5838 29.155 33.8413C28.4192 33.0988 27.4207 32.6795 26.3779 32.6752H24.8256C24.2178 31.4913 23.8229 30.2088 23.6593 28.8868C25.7848 28.2004 27.6656 26.907 29.0719 25.1645C31.223 24.2122 33.2481 22.9951 35.1006 21.5412C39.6015 18.0087 41.6302 14.2781 40.9731 10.6961ZM32.5544 2.34359C32.8642 2.36855 33.1553 2.50306 33.3757 2.72325C33.5949 2.94392 33.7263 3.23741 33.7453 3.5486C33.7556 3.69994 33.7339 3.85175 33.6815 3.99402C33.6291 4.13629 33.5473 4.26578 33.4415 4.37394L33.3265 4.53076C33.2115 4.76186 33.1047 5.00946 32.8501 5.08375H32.7104V5.22405C32.718 5.77655 32.6795 6.3287 32.5955 6.87475L32.5133 7.25442L32.8665 7.10585C33.4106 6.81563 34.0095 6.64407 34.6242 6.60239C35.2397 6.56042 35.8572 6.64466 36.4393 6.84999C37.1908 7.15617 37.8388 7.67293 38.3062 8.33872C38.7736 9.00451 39.0408 9.79129 39.0758 10.6053C39.8972 13.9067 38.3941 16.7459 34.1478 19.9483C32.2554 21.3844 30.1949 22.5818 28.0124 23.5138C26.8118 25.238 25.0524 26.4896 23.0351 27.0545C22.934 27.0644 22.8361 27.0953 22.7476 27.1453H22.649C22.5163 27.1481 22.3853 27.1761 22.263 27.2279H21.762L21.8688 27.7561C22.2057 29.8108 22.7961 31.8154 23.6264 33.7234L23.6839 33.8472H25.9837C26.5471 33.84 27.0925 34.0463 27.5114 34.4249C27.8098 34.597 28.0609 34.8409 28.2424 35.1347C28.4249 35.4279 28.5295 35.7632 28.5462 36.1086L21.0146 36.0013V2.45913L32.5544 2.34359ZM19.7908 36.381H12.5055C12.518 36.2605 12.5514 36.1432 12.604 36.0343V35.9683C12.6696 35.4505 12.9172 34.9734 13.3022 34.623C13.689 34.2771 14.1889 34.0862 14.7067 34.0865H17.0064V33.9792C18.0918 32.0482 18.7553 29.9071 18.953 27.6983V27.4672H18.5423C18.4394 27.402 18.3189 27.3703 18.1974 27.3764H18.0906C18.0234 27.326 17.944 27.2947 17.8606 27.2856C17.2446 27.038 16.5793 26.7822 16.1194 26.5346C14.958 25.7765 13.8933 24.8784 12.949 23.8604C10.8906 22.9051 8.93164 21.7467 7.10107 20.4022L6.5097 19.9153C5.94208 19.4853 5.41427 19.0046 4.93272 18.4792C2.37014 16.0031 1.27777 13.4775 1.787 11.051C1.82438 10.2527 2.08327 9.48078 2.53441 8.82258C2.99021 8.16411 3.62245 7.64898 4.35778 7.33695C5.54141 6.98874 6.81044 7.08254 7.93062 7.60106L8.21808 7.7001V7.40298C8.21524 7.01919 8.18781 6.63598 8.13595 6.25574C8.13595 6.07416 8.13595 5.90084 8.13595 5.72752V5.59546H8.02097C7.80141 5.50232 7.61321 5.34759 7.47888 5.14977C7.33985 4.95316 7.25745 4.72185 7.2407 4.48124V4.39045L7.16677 4.23364C7.06764 4.07654 7.02423 3.89041 7.04357 3.70541C7.06124 3.38942 7.19412 3.09103 7.41683 2.86724C7.63954 2.64344 7.93648 2.50991 8.25094 2.49215H19.7743L19.7908 36.381Z"
            fill="url(#paint0_linear_853_9175)" />
        <path
            d="M9.27751 3.54883H15.1501C15.3295 3.551 15.5008 3.62413 15.6268 3.75237C15.7529 3.8806 15.8236 4.05361 15.8236 4.23387C15.8236 4.41336 15.7526 4.58551 15.6263 4.71243C15.5 4.83935 15.3287 4.91066 15.1501 4.91066H9.27751C9.09889 4.91066 8.92757 4.83935 8.80127 4.71243C8.67496 4.58551 8.604 4.41336 8.604 4.23387C8.60399 4.05361 8.67469 3.8806 8.80077 3.75237C8.92684 3.62413 9.09813 3.551 9.27751 3.54883Z"
            fill="#22344E" fill-opacity="0.12" />
        <path
            d="M40.9731 10.6961C40.3078 7.39472 38.312 6.02465 37.2442 5.74403C36.5911 5.51157 35.8995 5.40788 35.2073 5.43865C35.5268 4.94681 35.7031 4.3751 35.7166 3.78795C35.691 3.01705 35.3737 2.285 34.8295 1.74109C34.288 1.19669 33.5584 0.883294 32.7926 0.866211H8.30022C7.53884 0.888859 6.81534 1.20509 6.27973 1.74933C5.74662 2.28329 5.43289 2.99924 5.40089 3.75493C5.39661 4.34361 5.57142 4.91955 5.90191 5.40563C5.2128 5.38238 4.52527 5.48588 3.8732 5.71101C2.84236 6.08565 1.942 6.75306 1.28149 7.63217C0.620988 8.51129 0.228777 9.56424 0.152526 10.6631C-0.504546 14.5422 1.43381 18.0335 6.00046 21.4669C7.87928 22.8942 9.89302 24.1327 12.0127 25.1645C13.3574 26.9763 15.2603 28.2908 17.4253 28.9033C17.1915 30.2048 16.7969 31.4719 16.2508 32.6752H14.7067C13.6654 32.6817 12.6689 33.102 11.9349 33.8442C11.2008 34.5865 10.7889 35.5904 10.7889 36.6368V38.1307H30.3039V36.6368C30.3039 35.589 29.8908 34.5838 29.155 33.8413C28.4192 33.0988 27.4207 32.6795 26.3779 32.6752H24.8256C24.2178 31.4913 23.8229 30.2088 23.6593 28.8868C25.7848 28.2004 27.6656 26.907 29.0719 25.1645C31.223 24.2122 33.2481 22.9951 35.1006 21.5412C39.6015 18.0087 41.6302 14.2781 40.9731 10.6961ZM9.37617 19.9235C4.65347 16.7542 2.61654 13.8655 3.12577 11.0593C3.41324 9.64793 3.98818 8.74004 4.76845 8.46767C5.11342 8.35213 6.16473 8.00548 9.03942 9.62317L9.63079 9.92029L9.78684 10.6796C10.0941 13.2164 10.6922 15.709 11.5691 18.1078L13.0558 22.2923L9.37617 19.9235ZM31.6838 20.2124L27.9795 22.6059L29.458 18.4296C30.377 15.9864 30.9787 13.4343 31.2485 10.8364L31.3881 10.0771L31.9959 9.77998C34.7145 8.07976 35.8151 8.45942 36.2422 8.59973C37.0635 8.84734 37.6467 9.75522 37.9342 11.1831C38.427 14.014 36.3243 17.0183 31.6838 20.2124Z"
            fill="url(#paint1_linear_853_9175)" />
        <path
            d="M40.9731 10.6961C40.3078 7.39472 38.312 6.02465 37.2442 5.74403C36.5911 5.51157 35.8995 5.40788 35.2073 5.43865C35.5268 4.94681 35.7031 4.3751 35.7166 3.78795C35.691 3.01705 35.3737 2.285 34.8295 1.74109C34.288 1.19669 33.5584 0.883294 32.7926 0.866211H8.30022C7.53884 0.888859 6.81534 1.20509 6.27973 1.74933C5.74662 2.28329 5.43289 2.99924 5.40089 3.75493C5.39661 4.34361 5.57142 4.91955 5.90191 5.40563C5.2128 5.38238 4.52527 5.48588 3.8732 5.71101C2.84236 6.08565 1.942 6.75306 1.28149 7.63217C0.620988 8.51129 0.228777 9.56424 0.152526 10.6631C-0.504546 14.5422 1.43381 18.0335 6.00046 21.4669C7.87928 22.8942 9.89302 24.1327 12.0127 25.1645C13.3574 26.9763 15.2603 28.2908 17.4253 28.9033C17.1915 30.2048 16.7969 31.4719 16.2508 32.6752H14.7067C13.6654 32.6817 12.6689 33.102 11.9349 33.8442C11.2008 34.5865 10.7889 35.5904 10.7889 36.6368V38.1307H30.3039V36.6368C30.3039 35.589 29.8908 34.5838 29.155 33.8413C28.4192 33.0988 27.4207 32.6795 26.3779 32.6752H24.8256C24.2178 31.4913 23.8229 30.2088 23.6593 28.8868C25.7848 28.2004 27.6656 26.907 29.0719 25.1645C31.223 24.2122 33.2481 22.9951 35.1006 21.5412C39.6015 18.0087 41.6302 14.2781 40.9731 10.6961ZM32.5544 2.34359C32.8642 2.36855 33.1553 2.50306 33.3757 2.72325C33.5949 2.94392 33.7263 3.23741 33.7453 3.5486C33.7556 3.69994 33.7339 3.85175 33.6815 3.99402C33.6291 4.13629 33.5473 4.26578 33.4415 4.37394L33.3265 4.53076C33.2115 4.76186 33.1047 5.00946 32.8501 5.08375H32.7104V5.22405C32.718 5.77655 32.6795 6.3287 32.5955 6.87475L32.5133 7.25442L32.8665 7.10585C33.4106 6.81563 34.0095 6.64407 34.6242 6.60239C35.2397 6.56042 35.8572 6.64466 36.4393 6.84999C37.1908 7.15617 37.8388 7.67293 38.3062 8.33872C38.7736 9.00451 39.0408 9.79129 39.0758 10.6053C39.8972 13.9067 38.3941 16.7459 34.1478 19.9483C32.2554 21.3844 30.1949 22.5818 28.0124 23.5138C26.8118 25.238 25.0524 26.4896 23.0351 27.0545C22.934 27.0644 22.8361 27.0953 22.7476 27.1453H22.649C22.5163 27.1481 22.3853 27.1761 22.263 27.2279H21.762L21.8688 27.7561C22.2057 29.8108 22.7961 31.8154 23.6264 33.7234L23.6839 33.8472H25.9837C26.5471 33.84 27.0925 34.0463 27.5114 34.4249C27.8098 34.597 28.0609 34.8409 28.2424 35.1347C28.4249 35.4279 28.5295 35.7632 28.5462 36.1086L21.302 36.0096L21.4745 2.42612L32.5544 2.34359ZM19.7826 36.0756L12.5548 36.1416C12.5548 36.0261 12.5548 36.1416 12.604 36.0343V35.9683C12.6696 35.4505 12.9172 34.9734 13.3022 34.623C13.689 34.2771 14.1889 34.0862 14.7067 34.0865H17.0064V33.9792C18.0918 32.0482 18.7553 29.9071 18.953 27.6983V27.4672H18.5423C18.4394 27.402 18.3189 27.3703 18.1974 27.3764H18.0906C18.0234 27.326 17.944 27.2947 17.8606 27.2856C17.2446 27.038 16.5793 26.7822 16.1194 26.5346C14.958 25.7765 13.8933 24.8784 12.949 23.8604C10.8906 22.9051 8.93164 21.7467 7.10107 20.4022L6.5097 19.9153C5.94208 19.4853 5.41427 19.0046 4.93272 18.4792C2.37014 16.0031 1.27777 13.4775 1.787 11.051C1.82438 10.2527 2.08327 9.48078 2.53441 8.82258C2.99021 8.16411 3.62245 7.64898 4.35778 7.33695C5.54141 6.98874 6.81044 7.08254 7.93062 7.60106L8.21808 7.7001V7.40298C8.21524 7.01919 8.18781 6.63598 8.13595 6.25574C8.13595 6.07416 8.13595 5.90084 8.13595 5.72752V5.59546H8.02097C7.80141 5.50232 7.61321 5.34759 7.47888 5.14977C7.33985 4.95316 7.25745 4.72185 7.2407 4.48124V4.39045L7.16677 4.23364C7.06764 4.07654 7.02423 3.89041 7.04357 3.70541C7.06124 3.38942 7.19412 3.09103 7.41683 2.86724C7.63954 2.64344 7.93648 2.50991 8.25094 2.49215H19.5033L19.7826 36.0756Z"
            fill="url(#paint2_linear_853_9175)" />
        <path
            d="M4.79314 8.46755C3.9718 8.73991 3.41329 9.6478 3.15046 11.0591C2.64123 13.8653 4.67816 16.7541 9.40086 19.9234L13.1051 22.3169L11.6185 18.1324C10.7416 15.7336 10.1435 13.241 9.83617 10.7042L9.68013 9.94492L9.08876 9.6478C6.22229 8.00535 5.13811 8.352 4.79314 8.46755ZM4.93277 11.4223C5.04776 10.696 5.28596 10.2586 5.57343 10.1265C5.67879 10.1019 5.78838 10.1019 5.89375 10.1265C6.76419 10.2628 7.60059 10.5654 8.35777 11.0179C8.35436 11.0611 8.35991 11.1046 8.37406 11.1455C8.38822 11.1865 8.41066 11.224 8.43998 11.2558C8.46931 11.2876 8.50489 11.313 8.54446 11.3303C8.58402 11.3476 8.62673 11.3564 8.66987 11.3563C8.69386 11.3877 8.72478 11.4132 8.76022 11.4306C8.99173 13.8473 9.52997 16.2243 10.3618 18.5038C8.67799 17.7451 7.22626 16.5484 6.15657 15.0373C5.68134 14.5768 5.32068 14.0103 5.10379 13.3837C4.8869 12.7571 4.81987 12.088 4.90813 11.4306L4.93277 11.4223Z"
            fill="url(#paint3_linear_853_9175)" />
        <path
            d="M9.27751 3.54883H15.1501C15.3295 3.551 15.5008 3.62413 15.6268 3.75237C15.7529 3.8806 15.8236 4.05361 15.8236 4.23387C15.8236 4.41336 15.7526 4.58551 15.6263 4.71243C15.5 4.83935 15.3287 4.91066 15.1501 4.91066H9.27751C9.09889 4.91066 8.92757 4.83935 8.80127 4.71243C8.67496 4.58551 8.604 4.41336 8.604 4.23387C8.60399 4.05361 8.67469 3.8806 8.80077 3.75237C8.92684 3.62413 9.09813 3.551 9.27751 3.54883Z"
            fill="white" />
        <path
            d="M37.9258 11.2072C37.6384 9.77936 37.0634 8.87148 36.2339 8.62387C35.8068 8.48356 34.7062 8.1039 31.9875 9.80412L31.3797 10.1012L31.2401 10.8606C30.9704 13.4584 30.3686 16.0105 29.4496 18.4538L27.9712 22.63L31.6836 20.2118C36.3242 17.0177 38.4268 14.0134 37.9258 11.2072ZM30.8623 18.5611C31.6364 16.2595 32.1866 13.8879 32.505 11.4796H32.5707C32.634 11.4545 32.6864 11.4077 32.7185 11.3475C32.7571 11.2919 32.7772 11.2255 32.776 11.1577V11.0174C34.0573 10.192 34.9936 9.89491 35.585 10.192C35.8807 10.2911 36.1024 10.7285 36.2257 11.4796C36.6281 13.576 34.8458 15.9447 30.9444 18.5033L30.8623 18.5611Z"
            fill="url(#paint4_linear_853_9175)" />
    </g>
    <defs>
        <linearGradient id="paint0_linear_853_9175" x1="0.029325" y1="19.4613" x2="41.0963" y2="19.4613"
            gradientUnits="userSpaceOnUse">
            <stop stop-color="#FFB300" />
            <stop offset="1" stop-color="#E3A000" />
        </linearGradient>
        <linearGradient id="paint1_linear_853_9175" x1="0.029325" y1="19.4613" x2="41.0963" y2="19.4613"
            gradientUnits="userSpaceOnUse">
            <stop stop-color="#FFD777" />
            <stop offset="1" stop-color="white" stop-opacity="0.78" />
        </linearGradient>
        <linearGradient id="paint2_linear_853_9175" x1="0.029325" y1="19.4613" x2="41.0963" y2="19.4613"
            gradientUnits="userSpaceOnUse">
            <stop stop-color="#FFB300" />
            <stop offset="1" stop-color="#E3A000" />
        </linearGradient>
        <linearGradient id="paint3_linear_853_9175" x1="3.0519" y1="15.3345" x2="13.0805" y2="15.3345"
            gradientUnits="userSpaceOnUse">
            <stop stop-color="#FFB300" />
            <stop offset="1" stop-color="#E3A000" />
        </linearGradient>
        <linearGradient id="paint4_linear_853_9175" x1="27.9712" y1="15.5568" x2="37.9998" y2="15.5568"
            gradientUnits="userSpaceOnUse">
            <stop stop-color="#FFB300" />
            <stop offset="1" stop-color="#E3A000" />
        </linearGradient>
        <clipPath id="clip0_853_9175">
            <rect width="41.067" height="37.2645" fill="white" transform="translate(0.0292969 0.833008)" />
        </clipPath>
    </defs>
</svg>