<svg viewBox="0 0 54 61" fill="none" xmlns="http://www.w3.org/2000/svg">
    <g clip-path="url(#clip0_853_9195)">
        <path
            d="M12.0981 41.1201C18.1069 41.1201 22.978 36.249 22.978 30.2402C22.978 24.2314 18.1069 19.3604 12.0981 19.3604C6.08935 19.3604 1.21826 24.2314 1.21826 30.2402C1.21826 36.249 6.08935 41.1201 12.0981 41.1201Z"
            fill="url(#paint0_linear_853_9195)" />
        <path
            d="M11.9646 41.6825C9.7335 41.6888 7.55206 41.0238 5.70395 39.7738C3.84164 38.4993 2.39735 36.7031 1.55241 34.6106C0.695238 32.5065 0.47345 30.1974 0.914452 27.9686C1.35546 25.7399 2.43992 23.6892 4.03379 22.0701C5.58894 20.4806 7.58256 19.3908 9.76004 18.9398C11.9485 18.4924 14.2211 18.7186 16.2784 19.5887C18.348 20.4668 20.1114 21.9379 21.3462 23.8166C22.7967 26.0344 23.4473 28.6806 23.1905 31.3182C22.9337 33.9558 21.7848 36.4268 19.9337 38.3231C18.8935 39.3823 17.6536 40.2245 16.2857 40.8012C14.9178 41.3778 13.4491 41.6774 11.9646 41.6825ZM11.9646 20.4954C10.0744 20.4993 8.22902 21.0712 6.66787 22.1369C5.09803 23.2159 3.88 24.7326 3.16531 26.4984C2.44664 28.2742 2.26092 30.2209 2.63086 32.1006C2.99829 33.975 3.90748 35.7005 5.24584 37.0633C6.23701 38.0737 7.44294 38.8481 8.77418 39.3288C10.1054 39.8096 11.5278 39.9845 12.9359 39.8406C14.344 39.6967 15.7016 39.2376 16.908 38.4975C18.1145 37.7573 19.1388 36.755 19.905 35.565C21.1289 33.6928 21.6778 31.4592 21.4609 29.233C21.244 27.0067 20.2743 24.9211 18.7121 23.3203C17.8342 22.4186 16.7852 21.7009 15.6267 21.2093C14.4681 20.7177 13.2232 20.462 11.9646 20.4572V20.4954Z"
            fill="url(#paint1_linear_853_9195)" />
        <path
            d="M15.6009 31.2994C15.1246 31.2984 14.6595 31.1556 14.2648 30.889C13.8774 30.6307 13.5725 30.2662 13.3868 29.8392C13.2046 29.3917 13.1581 28.9004 13.2532 28.4267C13.3415 27.9551 13.5673 27.5201 13.9021 27.1765C14.2398 26.8402 14.6673 26.6082 15.1333 26.5084C15.5987 26.4216 16.0793 26.4713 16.5171 26.6516C16.9577 26.8368 17.3332 27.1491 17.5956 27.5487C17.8552 27.9532 17.9943 28.4232 17.9964 28.9039C17.9993 29.5487 17.7492 30.1689 17.2997 30.6313C17.0785 30.8578 16.8143 31.0377 16.5225 31.1606C16.2308 31.2836 15.9175 31.3469 15.6009 31.3471V31.2994ZM15.6009 27.4819C15.3358 27.4843 15.0771 27.5639 14.8565 27.7109C14.6342 27.8653 14.4616 28.0811 14.3599 28.3319C14.2583 28.5828 14.2318 28.8578 14.2839 29.1234C14.3339 29.3862 14.46 29.6284 14.6465 29.8201C14.8349 30.0098 15.0731 30.1422 15.3337 30.2018C15.5973 30.2501 15.8694 30.2203 16.1163 30.116C16.3635 30.0171 16.5737 29.8436 16.7175 29.6197C16.8676 29.3934 16.9473 29.1277 16.9466 28.8562C16.9448 28.6778 16.9077 28.5016 16.8372 28.3378C16.7668 28.1739 16.6644 28.0257 16.5362 27.9018C16.4113 27.7762 16.2625 27.6768 16.0986 27.6096C15.9347 27.5424 15.759 27.5087 15.5818 27.5105L15.6009 27.4819Z"
            fill="url(#paint2_linear_853_9195)" />
        <path
            d="M4.77786 28.1692H4.68241C4.63413 28.1587 4.58866 28.1379 4.54914 28.1083C4.50961 28.0786 4.47695 28.0408 4.45337 27.9974C4.43198 27.951 4.4209 27.9005 4.4209 27.8494C4.4209 27.7984 4.43198 27.7479 4.45337 27.7015C4.56171 27.1367 4.78593 26.6006 5.11189 26.1268C5.43659 25.6571 5.85596 25.2605 6.34305 24.9625C7.36646 24.4597 8.54079 24.3576 9.63562 24.6761C9.72541 24.7089 9.80009 24.7734 9.84558 24.8575C9.86448 24.9028 9.87421 24.9515 9.87421 25.0006C9.87421 25.0498 9.86448 25.0984 9.84558 25.1438C9.8331 25.1926 9.81031 25.2381 9.77877 25.2774C9.74724 25.3164 9.70833 25.3489 9.66425 25.3728C9.61692 25.3814 9.56843 25.3814 9.5211 25.3728C9.47383 25.3821 9.42522 25.3821 9.37795 25.3728C8.4829 25.1187 7.52583 25.2001 6.68661 25.6019C6.30867 25.854 5.98432 26.1783 5.73223 26.5563C5.46904 26.9453 5.28725 27.3836 5.19778 27.8447C5.1802 27.9285 5.1327 28.0032 5.06416 28.0546C5.02866 28.0947 4.98429 28.1259 4.93458 28.1458C4.88487 28.1657 4.8312 28.1737 4.77786 28.1692Z"
            fill="url(#paint3_linear_853_9195)" />
        <path
            d="M19.3037 28.1689C19.2212 28.1682 19.1411 28.1415 19.0747 28.0926C19.0079 28.0395 18.9609 27.9655 18.9411 27.8826C18.8557 27.4232 18.6735 26.9873 18.4066 26.6037C18.1465 26.2161 17.8044 25.8903 17.4045 25.6494C16.5683 25.2369 15.6071 25.1551 14.7132 25.4203C14.6239 25.4532 14.5257 25.4532 14.4364 25.4203C14.3929 25.4003 14.3542 25.3713 14.3229 25.335C14.2916 25.2988 14.2685 25.2563 14.2551 25.2104C14.2451 25.1599 14.2451 25.1081 14.2551 25.0577C14.2465 25.0103 14.2465 24.9618 14.2551 24.9145C14.2758 24.8683 14.3088 24.8287 14.3505 24.8C14.3863 24.7686 14.4287 24.7458 14.4746 24.7332C15.569 24.4099 16.7451 24.5122 17.7672 25.0195C18.2572 25.3195 18.6798 25.7178 19.0083 26.1892C19.3368 26.6606 19.5641 27.1949 19.676 27.7585C19.7087 27.8512 19.7087 27.9522 19.676 28.0448C19.6259 28.1326 19.5438 28.1976 19.4469 28.2262L19.3037 28.1689Z"
            fill="url(#paint4_linear_853_9195)" />
        <path
            d="M8.49995 31.2806C8.02667 31.2795 7.5646 31.1365 7.17338 30.8702C6.77619 30.6 6.46748 30.2186 6.28585 29.7739C6.10422 29.3292 6.05773 28.8407 6.1522 28.3697C6.24589 27.898 6.47468 27.4636 6.81072 27.1195C7.14298 26.7788 7.56987 26.5458 8.0361 26.4505C8.50233 26.3552 8.98641 26.4021 9.42569 26.585C9.8623 26.7773 10.2336 27.0923 10.4946 27.4917C10.77 27.9036 10.9132 28.3897 10.905 28.8851C10.9019 29.5278 10.6485 30.1439 10.1987 30.603C9.97752 30.8294 9.71331 31.0094 9.42159 31.1323C9.12986 31.2552 8.81651 31.3186 8.49995 31.3187V31.2806ZM8.49995 27.4631C8.23439 27.4626 7.97491 27.5425 7.75554 27.6921C7.58941 27.8068 7.45039 27.9565 7.34822 28.1306C7.24605 28.3047 7.18322 28.4991 7.16412 28.7C7.14502 28.901 7.17012 29.1037 7.23766 29.294C7.30521 29.4842 7.41357 29.6574 7.55513 29.8013C7.74012 29.9935 7.98022 30.1236 8.24228 30.1735C8.50157 30.2301 8.77211 30.2034 9.01532 30.0971C9.2645 29.9927 9.47706 29.8167 9.6261 29.5913C9.7732 29.3636 9.85265 29.0989 9.85517 28.8278C9.84399 28.4673 9.69346 28.1252 9.43525 27.8735C9.17959 27.6258 8.83678 27.4887 8.48087 27.4917L8.49995 27.4631Z"
            fill="url(#paint5_linear_853_9195)" />
        <path
            d="M11.9644 37.2065H11.6685C10.8537 37.0804 10.0741 36.7862 9.3791 36.3426C8.68412 35.899 8.08897 35.3157 7.6315 34.6297C7.59343 34.5728 7.56708 34.509 7.55397 34.4418C7.54086 34.3746 7.54127 34.3055 7.55517 34.2384C7.56502 34.1725 7.58886 34.1095 7.62507 34.0535C7.66128 33.9975 7.70903 33.95 7.76513 33.914C7.82033 33.8762 7.88261 33.8499 7.94821 33.8368C8.01381 33.8237 8.08138 33.8239 8.14687 33.8376C8.2115 33.8475 8.27316 33.8715 8.32757 33.9077C8.38197 33.944 8.42781 33.9917 8.46183 34.0476C8.84599 34.6022 9.33567 35.0757 9.90292 35.441C10.4628 35.8109 11.0932 36.0611 11.7544 36.1758C12.507 36.164 13.2461 35.9743 13.9113 35.6223C14.5873 35.2761 15.1724 34.7759 15.6196 34.1621C15.7144 34.0865 15.8324 34.046 15.9537 34.0476C16.0755 34.0546 16.1908 34.1054 16.2781 34.1907C16.3631 34.2767 16.4197 34.3866 16.4404 34.5057C16.4509 34.6296 16.4207 34.7535 16.3545 34.8588C15.8365 35.5326 15.1872 36.0943 14.4458 36.5099C13.6926 36.9108 12.8633 37.1482 12.0121 37.2065H11.9644Z"
            fill="url(#paint6_linear_853_9195)" />
        <path fill-rule="evenodd" clip-rule="evenodd"
            d="M32.8941 16.0005L31.5485 14.2158L19.9337 23.6928L19.6665 23.96L21.0122 25.8687L33.0468 16.2296L32.8941 16.0005Z"
            fill="url(#paint7_linear_853_9195)" />
        <path
            d="M42.0273 0.472656C44.8486 0.577653 47.5154 1.78767 49.4524 3.8416C51.4072 5.91828 52.4957 8.66276 52.4957 11.5148C52.4957 14.3668 51.4072 17.1113 49.4524 19.1879C47.5144 21.2392 44.8474 22.4459 42.0273 22.5473"
            fill="url(#paint8_linear_853_9195)" />
        <path
            d="M42.6381 22.9869C40.404 22.9927 38.2197 22.3278 36.3678 21.0781C34.507 19.8062 33.0628 18.0135 32.2163 15.9245C31.3569 13.8073 31.1379 11.4844 31.5864 9.24385C32.011 7.02285 33.0837 4.97726 34.669 3.3649C36.245 1.77625 38.2584 0.693102 40.4526 0.253644C42.642 -0.190123 44.9145 0.0394563 46.9709 0.912163C49.0394 1.78786 50.8003 3.2597 52.0291 5.14004C53.4789 7.35636 54.1291 10.001 53.8723 12.6369C53.6155 15.2728 52.467 17.7422 50.6166 19.637C49.5759 20.6973 48.3343 21.5396 46.9644 22.1147C45.5945 22.6899 44.1238 22.9864 42.6381 22.9869ZM42.6381 1.80927C40.7474 1.81022 38.9011 2.38239 37.3413 3.4508C35.7658 4.51963 34.5461 6.03522 33.8387 7.80275C33.1136 9.57659 32.9233 11.5238 33.2913 13.4045C33.6593 15.2851 34.5695 17.017 35.9097 18.3868C37.2337 19.7357 38.9322 20.6561 40.7852 21.0287C42.6382 21.4014 44.5604 21.2091 46.3029 20.4768C48.0492 19.7352 49.5368 18.4932 50.5785 16.9075C51.6238 15.3032 52.1808 13.43 52.1818 11.5153C52.183 8.94841 51.1753 6.48392 49.376 4.65331C48.4995 3.75226 47.4522 3.03498 46.2953 2.54337C45.1384 2.05177 43.8951 1.79572 42.6381 1.79019V1.80927Z"
            fill="url(#paint9_linear_853_9195)" />
        <path
            d="M35.4708 9.53005H35.3753C35.3271 9.51957 35.2816 9.4988 35.2421 9.46915C35.2025 9.4395 35.1699 9.40168 35.1463 9.35826C35.1274 9.3129 35.1177 9.26424 35.1177 9.2151C35.1177 9.16596 35.1274 9.11731 35.1463 9.07195C35.2528 8.50369 35.4772 7.96403 35.8048 7.48769C36.1356 7.01986 36.5576 6.62379 37.0455 6.32335C38.0657 5.82125 39.2369 5.71912 40.3286 6.03704C40.3751 6.05206 40.418 6.07686 40.4542 6.10978C40.4904 6.1427 40.5191 6.18297 40.5385 6.22791C40.5714 6.31724 40.5714 6.41535 40.5385 6.50468C40.5227 6.55405 40.4967 6.59956 40.4622 6.63829C40.4306 6.67732 40.3917 6.70975 40.3476 6.73373C40.3005 6.74472 40.2516 6.74472 40.2045 6.73373C40.1572 6.74299 40.1086 6.74299 40.0613 6.73373C39.164 6.48547 38.2068 6.57372 37.37 6.98186C36.9721 7.22541 36.6306 7.55072 36.3679 7.93624C36.1088 8.32397 35.9273 8.75828 35.8335 9.2151C35.8175 9.29996 35.7738 9.37713 35.7094 9.43461C35.6414 9.48759 35.5569 9.51466 35.4708 9.51096V9.53005Z"
            fill="url(#paint10_linear_853_9195)" />
        <path
            d="M39.2023 12.5938C38.726 12.5929 38.2608 12.45 37.8662 12.1834C37.4718 11.9087 37.166 11.525 36.9863 11.0792C36.8066 10.6334 36.7609 10.1449 36.8545 9.67344C36.944 9.20029 37.174 8.76509 37.5144 8.42461C37.8549 8.08412 38.2901 7.85414 38.7633 7.76469C39.2285 7.6727 39.7106 7.72257 40.1471 7.90784C40.5877 8.09307 40.9632 8.40539 41.2256 8.80496C41.4867 9.20875 41.6259 9.67929 41.6264 10.1602C41.6281 10.4804 41.5666 10.7978 41.4454 11.0943C41.3242 11.3907 41.1457 11.6603 40.9201 11.8876C40.7004 12.1133 40.4378 12.2929 40.1477 12.4158C39.8576 12.5387 39.5459 12.6025 39.2309 12.6034L39.2023 12.5938ZM39.2023 8.77632C38.9325 8.77513 38.6687 8.85563 38.4455 9.00724C38.2224 9.15885 38.0503 9.37447 37.9521 9.62572C37.8552 9.87794 37.8288 10.1518 37.8757 10.4179C37.9294 10.6813 38.0588 10.9234 38.2479 11.1145C38.4362 11.3042 38.6745 11.4366 38.9351 11.4963C39.1987 11.5446 39.4707 11.5147 39.7177 11.4104C39.9676 11.3114 40.1786 11.1339 40.3189 10.9046C40.4698 10.6823 40.5497 10.4193 40.548 10.1506C40.5425 9.79455 40.4027 9.45367 40.1567 9.19625C40.0365 9.05976 39.89 8.94886 39.726 8.87016C39.5621 8.79145 39.384 8.74656 39.2023 8.73815V8.77632Z"
            fill="url(#paint11_linear_853_9195)" />
        <path
            d="M42.6381 18.5107H42.3135C41.4993 18.3843 40.7196 18.092 40.0231 17.6517C39.3281 17.2031 38.7308 16.6188 38.267 15.9339C38.1992 15.8189 38.1723 15.6843 38.1907 15.5521C38.2179 15.4166 38.2965 15.2968 38.4102 15.2181C38.4634 15.18 38.5241 15.1536 38.5882 15.1404C38.6523 15.1272 38.7184 15.1277 38.7824 15.1417C38.9152 15.1693 39.0318 15.2482 39.1069 15.3612C39.4876 15.9154 39.9741 16.389 40.5384 16.7546C41.1009 17.1177 41.7305 17.3643 42.3899 17.4799C43.1449 17.4726 43.8874 17.2861 44.5563 16.936C45.2281 16.5832 45.8094 16.0802 46.2551 15.4662C46.2969 15.4037 46.3524 15.3515 46.4174 15.3135C46.4781 15.2743 46.5464 15.2483 46.6178 15.2372C46.6902 15.2225 46.7649 15.2225 46.8373 15.2372C46.9083 15.2615 46.9733 15.3005 47.0282 15.3517C47.0835 15.4051 47.1259 15.4703 47.1522 15.5426C47.1712 15.6145 47.1712 15.6901 47.1522 15.7621C47.1524 15.8359 47.1326 15.9085 47.095 15.972C47.0671 16.0405 47.0209 16.1 46.9614 16.1438C46.4502 16.824 45.7994 17.387 45.0526 17.7949C44.3068 18.1999 43.4842 18.4438 42.6381 18.5107Z"
            fill="url(#paint12_linear_853_9195)" />
        <path fill-rule="evenodd" clip-rule="evenodd"
            d="M20.3819 35.918L19.9811 35.498L18.769 37.5595L31.9585 48.2867L32.4738 45.4808L20.3819 35.918Z"
            fill="url(#paint13_linear_853_9195)" />
        <path
            d="M42.6475 37.9326C48.116 37.9326 52.5539 42.8667 52.5539 48.9652C52.5539 55.0636 48.116 60.0073 42.6475 60.0073"
            fill="url(#paint14_linear_853_9195)" />
        <path
            d="M42.6476 60.4459C40.4136 60.4512 38.2295 59.7863 36.3774 58.5372C34.5188 57.2628 33.0753 55.4708 32.2258 53.3836C31.3667 51.2857 31.1402 48.9824 31.5744 46.7574C32.0085 44.5324 33.0843 42.4831 34.669 40.8622C36.2316 39.2556 38.2418 38.157 40.4378 37.7093C42.6338 37.2616 44.9136 37.4856 46.9805 38.3522C49.0478 39.2344 50.8078 40.7088 52.0386 42.5896C53.488 44.8054 54.1388 47.4491 53.8837 50.0845C53.6287 52.7199 52.483 55.1897 50.6357 57.0865C49.5951 58.1477 48.3538 58.9912 46.984 59.5679C45.6142 60.1447 44.1434 60.4431 42.6571 60.4459H42.6476ZM42.6476 39.2684C40.7578 39.2659 38.9115 39.8348 37.3508 40.9003C35.7785 41.975 34.5571 43.4885 33.8387 45.2523C33.1217 47.0283 32.9328 48.9737 33.2947 50.8545C33.6599 52.7325 34.5692 54.4617 35.9097 55.8268C37.2289 57.1799 38.9253 58.104 40.7776 58.4785C42.6298 58.8531 44.552 58.6607 46.2933 57.9264C48.0452 57.1898 49.5373 55.9469 50.5784 54.357C51.8023 52.4848 52.3512 50.2512 52.1343 48.025C51.9174 45.7988 50.9477 43.7131 49.3855 42.1124C48.5083 41.2122 47.4609 40.4955 46.3042 40.0039C45.1474 39.5124 43.9044 39.2559 42.6476 39.2493V39.2684Z"
            fill="url(#paint15_linear_853_9195)" />
        <path
            d="M46.2932 50.0618C45.8199 50.0607 45.3578 49.9178 44.9666 49.6514C44.6709 49.4478 44.4234 49.182 44.2412 48.8726C44.0591 48.5633 43.9469 48.2178 43.9123 47.8605C43.8778 47.5032 43.9218 47.1426 44.0412 46.8041C44.1607 46.4655 44.3528 46.1572 44.6039 45.9007C44.9362 45.5601 45.3631 45.327 45.8293 45.2317C46.2955 45.1364 46.7796 45.1833 47.2189 45.3663C47.6577 45.5573 48.0313 45.8721 48.294 46.2721C48.5567 46.6722 48.6972 47.14 48.6982 47.6186C48.6975 48.2646 48.444 48.8846 47.992 49.346C47.7708 49.5725 47.5065 49.7524 47.2148 49.8754C46.9231 49.9983 46.6097 50.0617 46.2932 50.0618ZM46.2932 46.2443C46.0276 46.2439 45.7681 46.3237 45.5488 46.4734C45.3254 46.6245 45.1518 46.8384 45.0499 47.0881C44.9479 47.3378 44.9223 47.612 44.9761 47.8763C45.0253 48.1441 45.1552 48.3906 45.3484 48.5825C45.5356 48.7611 45.7712 48.8806 46.026 48.9261C46.2855 48.9778 46.5546 48.9512 46.799 48.8498C47.0482 48.7453 47.2608 48.5693 47.4098 48.3439C47.5569 48.1163 47.6363 47.8515 47.6388 47.5804C47.6368 47.2218 47.4926 46.8786 47.238 46.6261C47.1162 46.4977 46.9697 46.3952 46.8074 46.3247C46.645 46.2542 46.4702 46.2171 46.2932 46.2157V46.2443Z"
            fill="url(#paint16_linear_853_9195)" />
        <path
            d="M49.9964 47.0181C49.9152 47.0171 49.8372 46.9866 49.7769 46.9322C49.7132 46.8821 49.6692 46.8112 49.6528 46.7318C49.5599 46.2701 49.3749 45.8319 49.1088 45.4434C48.8613 45.0617 48.5361 44.7365 48.1544 44.489C47.3179 44.0788 46.3588 43.9938 45.4631 44.2504C45.4184 44.2717 45.3695 44.2827 45.32 44.2827C45.2704 44.2827 45.2215 44.2717 45.1768 44.2504C45.1351 44.227 45.0984 44.1955 45.069 44.1578C45.0395 44.1202 45.0177 44.077 45.005 44.0309C44.9957 43.9837 44.9957 43.935 45.005 43.8878C45.0007 43.8402 45.0007 43.7922 45.005 43.7446L45.1004 43.6301L45.2245 43.5633C46.3152 43.2358 47.49 43.3382 48.5076 43.8496C49.0011 44.1455 49.4263 44.5426 49.7553 45.0147C50.0843 45.4868 50.3096 46.0232 50.4163 46.5887C50.455 46.6835 50.455 46.7897 50.4163 46.8845C50.3927 46.9279 50.36 46.9658 50.3205 46.9954C50.281 47.025 50.2355 47.0458 50.1872 47.0563L49.9964 47.0181Z"
            fill="url(#paint17_linear_853_9195)" />
        <path
            d="M42.6478 55.9697H42.3138C41.4995 55.8433 40.7199 55.551 40.0233 55.1107C39.3311 54.6619 38.737 54.0775 38.2768 53.3928C38.2018 53.2807 38.1712 53.1446 38.1909 53.0111C38.2181 52.8755 38.2968 52.7558 38.4104 52.6771C38.4636 52.639 38.5243 52.6125 38.5884 52.5994C38.6525 52.5862 38.7187 52.5867 38.7826 52.6007C38.9154 52.6283 39.032 52.7072 39.1071 52.8202C39.4879 53.3744 39.9744 53.8479 40.5386 54.2136C41.1012 54.5766 41.7307 54.8233 42.3901 54.9389C43.1446 54.9273 43.8861 54.7411 44.5566 54.3949C45.2264 54.0394 45.8071 53.5369 46.2553 52.9252C46.3528 52.8318 46.483 52.7804 46.618 52.782C46.6835 52.7809 46.7485 52.793 46.8092 52.8176C46.8698 52.8422 46.9249 52.8788 46.9711 52.9252C47.0199 52.9746 47.0588 53.0329 47.0856 53.097C47.0955 53.1602 47.0955 53.2246 47.0856 53.2879C47.0947 53.3544 47.0947 53.4218 47.0856 53.4883C47.0641 53.5642 47.0285 53.6355 46.9807 53.6982C46.4626 54.3644 45.8128 54.9166 45.0719 55.3207C44.329 55.7215 43.5091 55.9591 42.6669 56.0174L42.6478 55.9697Z"
            fill="url(#paint18_linear_853_9195)" />
    </g>
    <defs>
        <linearGradient id="paint0_linear_853_9195" x1="1.21826" y1="30.2402" x2="22.978" y2="30.2402"
            gradientUnits="userSpaceOnUse">
            <stop stop-color="#FFD777" />
            <stop offset="1" stop-color="white" stop-opacity="0.78" />
        </linearGradient>
        <linearGradient id="paint1_linear_853_9195" x1="0.693478" y1="30.2014" x2="23.2644" y2="30.2014"
            gradientUnits="userSpaceOnUse">
            <stop stop-color="#FFB300" />
            <stop offset="1" stop-color="#E3A000" />
        </linearGradient>
        <linearGradient id="paint2_linear_853_9195" x1="13.2054" y1="28.8562" x2="17.9964" y2="28.8562"
            gradientUnits="userSpaceOnUse">
            <stop stop-color="#FFB300" />
            <stop offset="1" stop-color="#E3A000" />
        </linearGradient>
        <linearGradient id="paint3_linear_853_9195" x1="4.39611" y1="26.3368" x2="9.85513" y2="26.3368"
            gradientUnits="userSpaceOnUse">
            <stop stop-color="#FFB300" />
            <stop offset="1" stop-color="#E3A000" />
        </linearGradient>
        <linearGradient id="paint4_linear_853_9195" x1="14.236" y1="26.3461" x2="19.695" y2="26.3461"
            gradientUnits="userSpaceOnUse">
            <stop stop-color="#FFB300" />
            <stop offset="1" stop-color="#E3A000" />
        </linearGradient>
        <linearGradient id="paint5_linear_853_9195" x1="6.10448" y1="28.8469" x2="10.905" y2="28.8469"
            gradientUnits="userSpaceOnUse">
            <stop stop-color="#FFB300" />
            <stop offset="1" stop-color="#E3A000" />
        </linearGradient>
        <linearGradient id="paint6_linear_853_9195" x1="7.51699" y1="35.5173" x2="16.4118" y2="35.5173"
            gradientUnits="userSpaceOnUse">
            <stop stop-color="#FFB300" />
            <stop offset="1" stop-color="#E3A000" />
        </linearGradient>
        <linearGradient id="paint7_linear_853_9195" x1="19.6665" y1="20.047" x2="33.0468" y2="20.047"
            gradientUnits="userSpaceOnUse">
            <stop stop-color="#FFB300" />
            <stop offset="1" stop-color="#E3A000" />
        </linearGradient>
        <linearGradient id="paint8_linear_853_9195" x1="42.0273" y1="11.5148" x2="52.4968" y2="11.5148"
            gradientUnits="userSpaceOnUse">
            <stop stop-color="#FFD777" />
            <stop offset="1" stop-color="white" stop-opacity="0.78" />
        </linearGradient>
        <linearGradient id="paint9_linear_853_9195" x1="31.3669" y1="11.5057" x2="53.9283" y2="11.5057"
            gradientUnits="userSpaceOnUse">
            <stop stop-color="#FFB300" />
            <stop offset="1" stop-color="#E3A000" />
        </linearGradient>
        <linearGradient id="paint10_linear_853_9195" x1="35.0986" y1="7.69765" x2="40.5481" y2="7.69765"
            gradientUnits="userSpaceOnUse">
            <stop stop-color="#FFB300" />
            <stop offset="1" stop-color="#E3A000" />
        </linearGradient>
        <linearGradient id="paint11_linear_853_9195" x1="36.8068" y1="10.1506" x2="41.5978" y2="10.1506"
            gradientUnits="userSpaceOnUse">
            <stop stop-color="#FFB300" />
            <stop offset="1" stop-color="#E3A000" />
        </linearGradient>
        <linearGradient id="paint12_linear_853_9195" x1="38.1811" y1="16.8214" x2="47.1904" y2="16.8214"
            gradientUnits="userSpaceOnUse">
            <stop stop-color="#FFB300" />
            <stop offset="1" stop-color="#E3A000" />
        </linearGradient>
        <linearGradient id="paint13_linear_853_9195" x1="18.769" y1="41.8924" x2="32.4738" y2="41.8924"
            gradientUnits="userSpaceOnUse">
            <stop stop-color="#FFB300" />
            <stop offset="1" stop-color="#E3A000" />
        </linearGradient>
        <linearGradient id="paint14_linear_853_9195" x1="42.6475" y1="48.9747" x2="52.5539" y2="48.9747"
            gradientUnits="userSpaceOnUse">
            <stop stop-color="#FFD777" />
            <stop offset="1" stop-color="white" stop-opacity="0.78" />
        </linearGradient>
        <linearGradient id="paint15_linear_853_9195" x1="31.3669" y1="48.9648" x2="53.9283" y2="48.9648"
            gradientUnits="userSpaceOnUse">
            <stop stop-color="#FFB300" />
            <stop offset="1" stop-color="#E3A000" />
        </linearGradient>
        <linearGradient id="paint16_linear_853_9195" x1="43.8977" y1="47.6186" x2="48.6982" y2="47.6186"
            gradientUnits="userSpaceOnUse">
            <stop stop-color="#FFB300" />
            <stop offset="1" stop-color="#E3A000" />
        </linearGradient>
        <linearGradient id="paint17_linear_853_9195" x1="44.9477" y1="45.1762" x2="50.4068" y2="45.1762"
            gradientUnits="userSpaceOnUse">
            <stop stop-color="#FFB300" />
            <stop offset="1" stop-color="#E3A000" />
        </linearGradient>
        <linearGradient id="paint18_linear_853_9195" x1="38.1813" y1="54.2804" x2="47.1238" y2="54.2804"
            gradientUnits="userSpaceOnUse">
            <stop stop-color="#FFB300" />
            <stop offset="1" stop-color="#E3A000" />
        </linearGradient>
        <clipPath id="clip0_853_9195">
            <rect width="53.235" height="60.431" fill="white" transform="translate(0.693359 0.0244141)" />
        </clipPath>
    </defs>
</svg>