<svg viewBox="0 0 54 59" fill="none" xmlns="http://www.w3.org/2000/svg">
    <g clip-path="url(#clip0_853_9226)">
        <path d="M31.5981 15.1904L20.8728 23.8076L22.1396 25.3843L32.8649 16.7671L31.5981 15.1904Z"
            fill="url(#paint0_linear_853_9226)" />
        <path d="M33.6801 44.1304L23.0457 35.4014L21.7624 36.9647L32.3969 45.6937L33.6801 44.1304Z"
            fill="url(#paint1_linear_853_9226)" />
        <path
            d="M12.5652 32.2565V23.101C12.5317 22.5887 12.3622 22.0945 12.0742 21.6695C11.7792 21.2251 11.3674 20.8709 10.884 20.6457C10.3997 20.4145 9.86165 20.3196 9.32752 20.371C8.7963 20.4266 8.29005 20.625 7.86264 20.9453C7.53972 21.2354 7.32294 21.625 7.24673 22.0523C6.88712 21.9362 6.5078 21.8938 6.13142 21.9275H5.88173C5.59403 21.9716 5.31389 22.0556 5.04941 22.1772C4.64201 22.4527 4.30549 22.8206 4.06727 23.2509C3.8335 23.6782 3.70242 24.1541 3.68441 24.6408C3.3443 24.679 3.01567 24.7866 2.71892 24.9571C2.42 25.1267 2.15931 25.3563 1.95319 25.6313C1.72932 25.9513 1.57072 26.3122 1.48645 26.6936C1.40219 27.0749 1.39392 27.4691 1.46212 27.8536C1.55933 28.3262 1.75813 28.7721 2.04474 29.1603C1.60937 29.4358 1.25358 29.8202 1.01267 30.2756C0.777362 30.7298 0.665429 31.2378 0.688066 31.7488C0.611915 32.3263 0.732103 32.9126 1.02932 33.4135C1.32457 33.8962 1.76852 34.27 2.29444 34.4788C2.24001 35.0833 2.33431 35.692 2.5691 36.2517C2.81099 36.808 3.1819 37.2987 3.65112 37.6832C4.10365 38.0336 4.62577 38.2833 5.18258 38.4157C5.73128 38.5328 6.29852 38.5328 6.84721 38.4157C7.3903 38.8022 8.03689 39.0167 8.70328 39.0316H9.11944C9.60177 38.9872 10.0695 38.8427 10.4928 38.6071C10.9265 38.3791 11.3089 38.0647 11.6164 37.6832C12.2641 36.6476 12.6074 35.4506 12.6068 34.2291V32.2565H12.5652Z"
            fill="url(#paint2_linear_853_9226)" />
        <path
            d="M11.4913 28.8858H11.3749H10.8839C10.5504 28.8636 10.2199 28.961 9.95166 29.1604C9.67638 29.3616 9.48636 29.6585 9.41898 29.9927C9.32085 30.1335 9.27654 30.3048 9.29413 30.4755C9.2859 30.5251 9.2859 30.5757 9.29413 30.6253C9.31201 30.6727 9.34048 30.7154 9.37736 30.7501C9.41259 30.7845 9.45533 30.8101 9.50221 30.8251C9.55139 30.8374 9.60285 30.8374 9.65203 30.8251H9.90172C10.0298 30.8178 10.151 30.7646 10.243 30.6752C10.3318 30.5862 10.3851 30.4678 10.3928 30.3423C10.38 30.2763 10.38 30.2085 10.3928 30.1426C10.4211 30.0853 10.4608 30.0343 10.5093 29.9927C10.5576 29.9487 10.6142 29.9147 10.6758 29.8929C10.7441 29.8763 10.8155 29.8763 10.8839 29.8929H11.1252C11.3749 30.1342 11.3749 30.8667 11.3749 31.2329V32.9475C11.2811 32.9318 11.1941 32.8883 11.1252 32.8226C10.7992 32.7269 10.4525 32.7269 10.1264 32.8226C9.80637 32.9182 9.51855 33.0995 9.29413 33.347C9.1776 33.4718 9.05276 33.5883 9.05276 33.7132C8.63807 33.4488 8.15453 33.3127 7.66279 33.322C7.28662 33.3714 6.93638 33.5406 6.66401 33.8047C6.397 34.0684 6.22689 34.4145 6.18126 34.7869C6.10002 35.1145 6.12928 35.4598 6.26449 35.769C6.39918 36.0775 6.62977 36.3344 6.92202 36.5015C6.94591 36.5281 6.97403 36.5506 7.00526 36.568C7.03813 36.5755 7.07226 36.5755 7.10513 36.568C7.1408 36.5757 7.17767 36.5757 7.21334 36.568L7.29657 36.5015C7.41309 36.5015 7.53794 36.3766 7.66279 36.2601C7.68942 36.2362 7.71192 36.2081 7.72937 36.1769C7.73786 36.1413 7.73786 36.1042 7.72937 36.0687C7.73686 36.0358 7.73686 36.0016 7.72937 35.9688C7.71192 35.9376 7.68942 35.9094 7.66279 35.8855C7.66279 35.769 7.53794 35.6442 7.41309 35.5193C7.33226 35.4437 7.27698 35.3448 7.25495 35.2363C7.2313 35.1266 7.24599 35.012 7.29657 34.9117C7.31554 34.7555 7.38926 34.611 7.50465 34.5039C7.6138 34.3927 7.75772 34.3222 7.91248 34.3041C8.15431 34.2714 8.3998 34.3276 8.60331 34.4623C8.80967 34.596 8.9605 34.8001 9.02779 35.0366C9.08596 35.1459 9.17213 35.2378 9.27748 35.3029C9.38866 35.3678 9.51497 35.4023 9.6437 35.4028C9.8934 35.278 10.1348 35.0366 10.0182 34.7869C10.001 34.5207 10.0875 34.2582 10.2596 34.0544C10.3873 33.9687 10.5322 33.9119 10.6841 33.888C10.8293 33.8548 10.9801 33.8548 11.1252 33.888C11.1913 33.895 11.2529 33.9244 11.3 33.9712C11.3427 34.0169 11.369 34.0754 11.3749 34.1377C11.5663 34.7756 11.5663 35.4557 11.3749 36.0936C11.233 36.4288 11.069 36.7541 10.8839 37.0674L10.5093 37.4836C10.0988 37.7638 9.61621 37.9198 9.11934 37.933C8.65068 37.983 8.17744 37.8993 7.75434 37.6917C7.62949 37.5668 7.50465 37.5668 7.50465 37.442H6.92202C6.4994 37.5635 6.05315 37.5778 5.62361 37.4836C5.19006 37.4045 4.78517 37.2121 4.45004 36.9259C4.06496 36.5994 3.77704 36.1732 3.61772 35.6941C3.46436 35.2238 3.43851 34.7211 3.54282 34.2376C3.58318 33.994 3.66781 33.7598 3.79251 33.5467C3.92309 33.3386 4.09267 33.1578 4.2919 33.014C4.48767 32.8533 4.71428 32.7343 4.95776 32.6645C5.19193 32.5787 5.44122 32.5419 5.6902 32.5563C5.86608 32.5735 6.04252 32.5294 6.18959 32.4314C6.31443 32.3149 6.31443 32.1901 6.31443 31.9404C6.28186 31.4805 6.36484 31.0199 6.55581 30.6003C6.68065 30.359 6.93035 30.359 7.30489 30.359C8.04565 30.359 8.28703 30.7252 8.28703 31.4576C8.29771 31.5841 8.3539 31.7024 8.44517 31.7905C8.53628 31.8812 8.65797 31.9347 8.78642 31.9404C8.85197 31.9569 8.92062 31.9569 8.98617 31.9404C9.03748 31.9102 9.08265 31.8707 9.11934 31.8238C9.16609 31.7776 9.20044 31.7204 9.21922 31.6574C9.23967 31.5924 9.23967 31.5226 9.21922 31.4576C9.25208 31.1774 9.22369 30.8934 9.13599 30.6253C9.03899 30.3524 8.88588 30.1029 8.68654 29.8929C8.48781 29.6795 8.24299 29.5144 7.97074 29.4101C7.70684 29.3032 7.42284 29.2549 7.13843 29.2686C6.85339 29.2673 6.57078 29.321 6.30611 29.4268C6.04957 29.5308 5.81723 29.6867 5.62361 29.8845C5.42875 30.1302 5.28704 30.4136 5.20745 30.7169C5.14544 30.9987 5.13978 31.2901 5.1908 31.5741C4.67477 31.7289 4.17564 31.9352 3.70096 32.1901C3.27494 32.5099 2.93468 32.9303 2.7105 33.4136C2.46259 33.2333 2.2649 32.9926 2.1362 32.7144C2.00302 32.4375 1.94559 32.1302 1.96974 31.8238C1.97144 31.4138 2.10251 31.0147 2.34428 30.6836C2.5929 30.3542 2.93973 30.1123 3.33474 29.9927C3.57611 29.9927 3.70096 29.743 3.8258 29.6182C3.95065 29.4933 3.8258 29.1354 3.57611 29.1354C3.163 28.8386 2.86818 28.4052 2.74379 27.9119C2.68558 27.6741 2.68558 27.4257 2.74379 27.1878C2.808 26.9527 2.93119 26.7378 3.10169 26.5636C3.37282 26.2977 3.71308 26.1131 4.08382 26.0309C4.45537 25.9391 4.84551 25.9565 5.20745 26.0808C5.47918 26.1334 5.72868 26.2669 5.92324 26.4637C6.12334 26.6583 6.2622 26.9071 6.32276 27.1795C6.32276 27.4209 6.68898 27.6622 6.93867 27.6622C7.18837 27.6622 7.18837 27.5457 7.31321 27.4209C7.35427 27.3704 7.3879 27.3144 7.41309 27.2544C7.42965 27.1889 7.42965 27.1202 7.41309 27.0547C7.33757 26.5612 7.10391 26.1055 6.74724 25.7562C6.38993 25.4028 5.92928 25.1725 5.43218 25.0987H5.06596C5.07935 24.8092 5.15305 24.5257 5.28236 24.2664C5.41152 24.0263 5.5836 23.8119 5.79007 23.6338C6.06371 23.4738 6.38381 23.4122 6.6973 23.459C7.01411 23.4987 7.30783 23.6455 7.52962 23.8752C7.62166 23.934 7.72837 23.9657 7.83757 23.9668C7.94961 23.9673 8.05942 23.9355 8.15385 23.8752C8.27038 23.7504 8.52007 23.509 8.39523 23.2676C8.36864 23.066 8.38857 22.861 8.45349 22.6683C8.52142 22.4809 8.62934 22.3105 8.76977 22.169C9.01511 21.9958 9.3027 21.8923 9.60209 21.8693C9.90664 21.8455 10.2119 21.906 10.4843 22.0441C10.8145 22.1706 11.1028 22.3868 11.3167 22.6683C11.5338 22.9486 11.6718 23.282 11.7162 23.6338C11.7834 24.4129 11.5742 25.1908 11.1252 25.8311C11.0275 26.0496 10.8526 26.2244 10.6342 26.3222C10.4676 26.513 10.2558 26.6589 10.0182 26.7467C9.77797 26.8308 9.52051 26.8537 9.26916 26.8133C9.07701 26.8007 8.89624 26.7178 8.76145 26.5802C8.62577 26.4475 8.54294 26.2701 8.5284 26.0808C8.5284 25.5898 8.65324 25.2485 8.90294 25.0987C9.05548 25.0242 9.22449 24.9899 9.39401 24.9988C9.51885 24.9988 9.51885 25.1237 9.6437 25.1237C9.63418 25.1506 9.63418 25.18 9.6437 25.2069C9.66761 25.2322 9.70047 25.2472 9.73526 25.2485C9.8601 25.4899 10.1015 25.4899 10.3512 25.365C10.4143 25.3628 10.4741 25.3359 10.5176 25.2901C10.5658 25.2475 10.5956 25.1878 10.6009 25.1237V24.7575C10.5325 24.5566 10.4186 24.3742 10.2679 24.2248C10.1159 24.0794 9.93418 23.9686 9.73526 23.9002C9.53669 23.8339 9.32869 23.8001 9.11934 23.8003C8.88398 23.8235 8.65519 23.8913 8.44517 24.0001C8.26157 24.1032 8.10031 24.2419 7.97074 24.4079C7.847 24.578 7.75662 24.7701 7.7044 24.9739C7.53943 25.3595 7.49588 25.7863 7.57956 26.1974C7.62367 26.4985 7.74083 26.7843 7.92081 27.0297C8.09012 27.2642 8.3126 27.4553 8.57001 27.5873C8.81971 27.7039 8.94456 27.7039 9.19425 27.8287C9.6067 27.8927 10.0287 27.8468 10.4178 27.6955C10.8093 27.5475 11.1541 27.2975 11.4165 26.9714L11.6163 26.6635V28.8608L11.4913 28.8858Z"
            fill="url(#paint3_linear_853_9226)" />
        <path
            d="M13.281 32.2567V34.2293C13.2845 35.4502 13.6274 36.6461 14.2715 37.6834C14.5709 38.0652 14.9446 38.3824 15.3701 38.6156C15.7964 38.8511 16.2668 38.9956 16.7518 39.0401H17.118C17.7844 39.0252 18.431 38.8106 18.9741 38.4241C19.5229 38.54 20.0899 38.54 20.6387 38.4241C21.1924 38.2902 21.7115 38.0406 22.1618 37.6917C22.6436 37.3101 23.0238 36.8155 23.2688 36.2518C23.5036 35.6921 23.5979 35.0835 23.5435 34.479C24.0731 34.2637 24.5175 33.8807 24.8086 33.3886C25.1081 32.8885 25.2312 32.3024 25.1582 31.724C25.1783 31.2122 25.0634 30.7042 24.8252 30.2508C24.5903 29.8058 24.2431 29.43 23.8181 29.1605C24.1236 28.7597 24.3368 28.2965 24.4424 27.8038C24.5768 27.0261 24.3972 26.2269 23.943 25.5815C23.7369 25.3065 23.4762 25.0769 23.1773 24.9073C22.8811 24.7355 22.5522 24.6278 22.2118 24.591C22.1938 24.1043 22.0627 23.6284 21.8289 23.2011C21.5907 22.7708 21.2542 22.4029 20.8468 22.1274C20.5823 22.0058 20.3022 21.9218 20.0145 21.8777H19.7731C19.3967 21.8435 19.0173 21.886 18.6578 22.0025C18.5752 21.5756 18.3561 21.1871 18.0335 20.8955C17.607 20.5737 17.1003 20.3751 16.5687 20.3212C16.0345 20.2698 15.4965 20.3647 15.0122 20.5959C14.5119 20.8322 14.088 21.2042 13.7887 21.6696C13.4952 22.0994 13.3201 22.5989 13.281 23.1178V32.2733V32.2567Z"
            fill="url(#paint4_linear_853_9226)" />
        <path
            d="M14.238 28.8858V26.6636L14.4877 26.9049C14.7521 27.229 15.0963 27.4786 15.4865 27.629C15.8783 27.781 16.3032 27.8269 16.7184 27.7622C16.9681 27.6374 17.0846 27.6374 17.3343 27.5208C17.5927 27.3869 17.8175 27.1963 17.9918 26.9632C18.1657 26.7153 18.2797 26.4303 18.3247 26.1309C18.3973 25.7496 18.3538 25.3552 18.1999 24.9989C18.151 24.794 18.0603 24.6013 17.9335 24.4329C17.804 24.2541 17.6362 24.1062 17.4425 24.0001C17.2349 23.8926 17.0091 23.8248 16.7766 23.8004C16.541 23.7836 16.3042 23.809 16.0775 23.8753C15.8786 23.9438 15.6968 24.0545 15.5448 24.1999C15.3941 24.3494 15.2802 24.5317 15.2119 24.7326V25.0988C15.2171 25.1629 15.2469 25.2226 15.2951 25.2653C15.3386 25.3111 15.3984 25.338 15.4616 25.3402C15.7113 25.465 15.9609 25.465 16.0775 25.2237C16.1123 25.2223 16.1451 25.2073 16.169 25.182C16.175 25.169 16.1781 25.1548 16.1781 25.1404C16.1781 25.1261 16.175 25.1119 16.169 25.0988C16.2939 25.0988 16.2939 24.974 16.4187 24.974C16.5931 24.9727 16.7649 25.0157 16.9181 25.0988C17.1595 25.2236 17.2843 25.5899 17.2843 26.0809C17.2738 26.2712 17.1903 26.45 17.0513 26.5803C16.9165 26.7178 16.7357 26.8008 16.5436 26.8134C16.2922 26.8538 16.0348 26.8309 15.7945 26.7468C15.558 26.6569 15.3468 26.5113 15.1786 26.3223C14.9618 26.222 14.7878 26.048 14.6875 25.8312C14.2384 25.1915 14.0346 24.4116 14.1132 23.6339C14.151 23.2819 14.2865 22.9475 14.5044 22.6684C14.7183 22.3869 15.0065 22.1707 15.3367 22.0442C15.61 21.9085 15.9146 21.8481 16.219 21.8694C16.5184 21.8924 16.8059 21.9959 17.0513 22.169C17.1967 22.3081 17.3078 22.4791 17.3759 22.6684C17.438 22.8618 17.4551 23.0668 17.4258 23.2677C17.301 23.5091 17.5507 23.7505 17.6755 23.8753C17.7676 23.9341 17.8743 23.9658 17.9835 23.9669C18.0927 23.9658 18.1994 23.9341 18.2914 23.8753C18.5132 23.6456 18.8069 23.4988 19.1238 23.4591C19.4373 23.4116 19.7576 23.4733 20.031 23.6339C20.2482 23.8156 20.4265 24.0393 20.5553 24.2915C20.6846 24.5508 20.7584 24.8343 20.7717 25.1238H20.4055C19.9089 25.1992 19.4488 25.4293 19.0905 25.7813C18.7338 26.1306 18.5001 26.5862 18.4246 27.0797C18.4122 27.1457 18.4122 27.2135 18.4246 27.2795C18.4497 27.3413 18.4865 27.3978 18.5328 27.4459C18.6577 27.5708 18.6577 27.6873 18.899 27.6873C19.1404 27.6873 19.5233 27.4459 19.5233 27.2046C19.5806 26.9327 19.7166 26.6838 19.9145 26.4888C20.1131 26.293 20.3649 26.1598 20.6386 26.1059C20.9976 25.9813 21.3852 25.9639 21.7539 26.056C22.1253 26.1365 22.466 26.3213 22.736 26.5887C22.9089 26.7624 23.035 26.9772 23.1022 27.2129C23.1604 27.4508 23.1604 27.6991 23.1022 27.937C22.9778 28.4303 22.683 28.8637 22.2699 29.1605C22.0202 29.1605 21.8954 29.5267 22.0202 29.6433C22.1451 29.7598 22.2699 30.0178 22.5196 30.0178C22.9123 30.1373 23.2565 30.3794 23.5017 30.7086C23.7435 31.0398 23.8746 31.4389 23.8763 31.8489C23.8992 32.1543 23.8448 32.4606 23.7181 32.7395C23.5838 33.0165 23.3838 33.2565 23.1355 33.4386C22.9169 32.9519 22.5756 32.5303 22.1451 32.2151C21.6733 31.9604 21.1769 31.754 20.6635 31.5992C20.6969 31.2975 20.6715 30.9923 20.5886 30.7003C20.5025 30.3979 20.3583 30.1152 20.1641 29.868C19.9721 29.6721 19.7429 29.5165 19.49 29.4102C19.2251 29.3052 18.9426 29.2515 18.6577 29.2521C18.3734 29.2402 18.0897 29.2884 17.8253 29.3936C17.5541 29.4999 17.3097 29.6647 17.1095 29.8763C16.9098 30.0846 16.7591 30.3348 16.6684 30.6087C16.5782 30.8763 16.5469 31.1603 16.5769 31.4411C16.568 31.5149 16.5795 31.5897 16.6102 31.6575C16.632 31.721 16.6691 31.7782 16.7184 31.8239C16.7634 31.874 16.8208 31.9113 16.8848 31.9321C16.9504 31.9487 17.019 31.9487 17.0846 31.9321C17.213 31.9264 17.3347 31.873 17.4258 31.7823C17.5171 31.6941 17.5733 31.5758 17.584 31.4494C17.584 30.7169 17.8337 30.3507 18.5744 30.3507C18.9406 30.3507 19.1903 30.3507 19.3152 30.5921C19.5048 31.0123 19.5904 31.4719 19.5649 31.9321C19.5649 32.1818 19.5649 32.3067 19.6897 32.4232C19.8334 32.5219 20.0075 32.5662 20.1808 32.548C20.4298 32.5336 20.6791 32.5704 20.9132 32.6562C21.1472 32.7412 21.3621 32.8712 21.5458 33.0391C21.7446 33.1808 21.9118 33.3622 22.0369 33.5718C22.1651 33.7832 22.25 34.0181 22.2866 34.2626C22.3935 34.7455 22.3706 35.2481 22.22 35.7192C22.0541 36.195 21.7673 36.6195 21.3877 36.951C21.0498 37.233 20.6461 37.4249 20.2141 37.5087C19.7938 37.6028 19.357 37.5942 18.9406 37.4837H18.3247C18.3247 37.6085 18.1999 37.6085 18.075 37.7334C17.6544 37.9395 17.1843 38.0231 16.7184 37.9748C16.2261 37.9431 15.7529 37.7729 15.3534 37.4837L14.9871 37.1175C14.7961 36.8061 14.6291 36.4805 14.4877 36.1437C14.3048 35.5045 14.3048 34.8269 14.4877 34.1877C14.493 34.1236 14.5228 34.0639 14.571 34.0212C14.6137 33.9731 14.6733 33.9433 14.7374 33.938C14.8854 33.9047 15.0389 33.9047 15.1869 33.938C15.3358 33.9634 15.4777 34.0201 15.6031 34.1045C15.7781 34.307 15.8677 34.5696 15.8527 34.8369C15.7279 35.0866 15.9776 35.328 16.219 35.4528C16.348 35.4544 16.4748 35.4198 16.5852 35.353C16.6931 35.2884 16.7821 35.1965 16.8432 35.0866C16.9104 34.8523 17.0577 34.6491 17.2594 34.5123C17.466 34.3778 17.7141 34.3217 17.9585 34.3542C18.1124 34.3753 18.2553 34.4453 18.3663 34.5539C18.4757 34.6655 18.5483 34.8078 18.5744 34.9618C18.6076 35.0674 18.6076 35.1807 18.5744 35.2864C18.5559 35.3961 18.5 35.4961 18.4163 35.5694C18.2914 35.6942 18.1666 35.819 18.1666 35.9356C18.14 35.9595 18.1175 35.9876 18.1 36.0188C18.0925 36.0517 18.0925 36.0858 18.1 36.1187C18.0915 36.1543 18.0915 36.1913 18.1 36.2269C18.1175 36.2581 18.14 36.2862 18.1666 36.3101C18.2914 36.4266 18.4163 36.5515 18.5411 36.5515C18.5631 36.58 18.5917 36.6029 18.6244 36.6181C18.6572 36.6256 18.6914 36.6256 18.7242 36.6181C18.7599 36.6257 18.7968 36.6257 18.8324 36.6181C18.8612 36.6005 18.8865 36.578 18.9074 36.5515C19.2015 36.3868 19.4328 36.1292 19.5649 35.819C19.6988 35.5097 19.7308 35.1657 19.6564 34.8369C19.6054 34.4644 19.4328 34.1191 19.1654 33.8548C18.8951 33.5876 18.5438 33.4178 18.1666 33.372C17.6886 33.3617 17.2178 33.4888 16.8099 33.7383C16.8099 33.6134 16.6851 33.4969 16.5602 33.372C16.3369 33.1233 16.0487 32.9417 15.7279 32.8477C15.4019 32.752 15.0552 32.752 14.7291 32.8477C14.6603 32.9134 14.5733 32.9569 14.4794 32.9725V31.258C14.4794 30.8917 14.4794 30.1593 14.7291 29.9179H14.9788C15.0444 29.9014 15.113 29.9014 15.1786 29.9179C15.2435 29.9378 15.3032 29.9719 15.3534 30.0178C15.3992 30.0679 15.4333 30.1276 15.4532 30.1926C15.4701 30.2581 15.4701 30.3268 15.4532 30.3923C15.4639 30.5188 15.5201 30.6371 15.6114 30.7253C15.7025 30.816 15.8242 30.8694 15.9526 30.8751H16.194C16.2431 30.8878 16.2947 30.8878 16.3438 30.8751C16.3907 30.8602 16.4334 30.8345 16.4687 30.8002C16.5082 30.7677 16.5371 30.7243 16.5519 30.6753C16.5642 30.6262 16.5642 30.5747 16.5519 30.5255C16.5695 30.3548 16.5252 30.1835 16.427 30.0428C16.3633 29.7092 16.1761 29.412 15.9027 29.2105C15.6278 29.0052 15.2874 28.9076 14.9455 28.9358H14.1964L14.238 28.8858Z"
            fill="url(#paint5_linear_853_9226)" />
        <path opacity="0.91"
            d="M5.59879 33.1057C5.14691 33.0991 4.70842 33.2591 4.36696 33.5551C4.02708 33.8501 3.80536 34.2581 3.74273 34.7037C3.74144 34.7684 3.76531 34.8311 3.80931 34.8785C3.83185 34.9022 3.85897 34.921 3.88902 34.9339C3.91906 34.9468 3.95141 34.9534 3.9841 34.9534C4.03886 34.9467 4.08922 34.92 4.12559 34.8785C4.1501 34.8566 4.1695 34.8296 4.18244 34.7994C4.19539 34.7692 4.20155 34.7366 4.2005 34.7037C4.19861 34.5312 4.23559 34.3606 4.3087 34.2043C4.37543 34.0445 4.47794 33.9021 4.60834 33.7882C4.73361 33.6694 4.88455 33.5811 5.04946 33.5301C5.21521 33.4735 5.3913 33.4536 5.5655 33.4719C5.62688 33.4629 5.68454 33.437 5.73196 33.397C5.77695 33.3495 5.80351 33.2875 5.80687 33.2222C5.85681 33.1057 5.73196 33.1057 5.59879 33.1057Z"
            fill="white" />
        <path opacity="0.91"
            d="M19.9395 33.2222C19.9429 33.2875 19.9695 33.3495 20.0144 33.397C20.0611 33.4382 20.1191 33.4643 20.1809 33.4719C20.3551 33.4536 20.5312 33.4735 20.6969 33.5301C20.8619 33.5811 21.0128 33.6694 21.1381 33.7882C21.2685 33.9021 21.371 34.0445 21.4377 34.2043C21.5108 34.3606 21.5478 34.5312 21.5459 34.7037C21.5449 34.7366 21.551 34.7692 21.564 34.7994C21.5769 34.8296 21.5963 34.8566 21.6208 34.8785C21.6427 34.903 21.6697 34.9224 21.6999 34.9354C21.7301 34.9483 21.7628 34.9545 21.7956 34.9534C21.8615 34.9525 21.9243 34.9255 21.9704 34.8785C22.0144 34.8311 22.0383 34.7684 22.037 34.7037C21.9743 34.2581 21.7526 33.8501 21.4127 33.5551C21.0713 33.2591 20.6328 33.0991 20.1809 33.1057C20.0061 33.1057 19.8813 33.1057 19.9395 33.2222Z"
            fill="white" />
        <path
            d="M41.2719 12.0313V2.87578C41.2437 2.34173 41.0742 1.82474 40.7808 1.37761C40.4836 0.935281 40.0724 0.581541 39.5906 0.353861C39.1057 0.125123 38.5675 0.0330351 38.0342 0.0875201C37.5033 0.138524 36.9966 0.334298 36.5693 0.653496C36.2467 0.945079 36.0276 1.33358 35.945 1.76048C35.585 1.65986 35.2076 1.63716 34.8381 1.69389H34.5884C34.3003 1.73153 34.0196 1.81292 33.756 1.93527C33.3486 2.21078 33.0121 2.57868 32.7739 3.00896C32.5389 3.43878 32.4078 3.91765 32.391 4.40725C32.0512 4.44116 31.7223 4.54608 31.4256 4.7152C31.1281 4.8869 30.8678 5.11608 30.6598 5.38938C30.436 5.70936 30.2774 6.07033 30.1931 6.45164C30.1088 6.83296 30.1006 7.22715 30.1688 7.61167C30.2623 8.09461 30.4644 8.54998 30.7597 8.94338C30.3243 9.21881 29.9685 9.6033 29.7276 10.0587C29.4895 10.5151 29.3747 11.0258 29.3947 11.5402C29.3197 12.1186 29.4429 12.7054 29.7443 13.2048C30.0354 13.6969 30.4798 14.0799 31.0094 14.2952C30.9536 14.8997 31.0479 15.5087 31.2841 16.068C31.5207 16.6275 31.8891 17.1215 32.3578 17.5079C32.8086 17.8592 33.3316 18.1065 33.8892 18.232C34.4375 18.3533 35.0056 18.3533 35.5538 18.232C36.096 18.6215 36.7426 18.839 37.4099 18.8563H37.7761C38.2606 18.8093 38.7305 18.6649 39.1578 18.4318C39.5915 18.2038 39.9739 17.8894 40.2814 17.5079C40.9294 16.4693 41.2726 15.2696 41.2719 14.0455V12.0729V12.0313Z"
            fill="url(#paint6_linear_853_9226)" />
        <path
            d="M40.2066 8.66812H40.0816H39.5822C39.2439 8.63646 38.9058 8.73135 38.6334 8.93447C38.3581 9.13564 38.1681 9.43255 38.1007 9.76678C38.002 9.91041 37.9577 10.0845 37.9759 10.2579C37.9631 10.3042 37.9631 10.353 37.9759 10.3993C37.9906 10.4483 38.0196 10.4917 38.0591 10.5242C38.0915 10.5637 38.135 10.5927 38.1839 10.6074C38.2335 10.6157 38.2842 10.6157 38.3338 10.6074H38.5834C38.7099 10.5967 38.8282 10.5405 38.9164 10.4493C39.0089 10.362 39.0654 10.2432 39.0745 10.1164C39.058 10.0508 39.058 9.98216 39.0745 9.9166C39.0923 9.85117 39.1301 9.79296 39.1827 9.75014C39.2277 9.70006 39.2851 9.66274 39.3492 9.64194C39.4152 9.62954 39.4829 9.62954 39.5489 9.64194H39.7986C40.0483 9.89164 40.0483 10.6241 40.0483 10.9903V12.6549C39.9541 12.6462 39.8658 12.605 39.7986 12.5384C39.4736 12.4362 39.1249 12.4362 38.7999 12.5384C38.4783 12.6263 38.1892 12.8055 37.9675 13.0544C37.8427 13.1793 37.7178 13.3041 37.7178 13.429C37.3123 13.1735 36.8404 13.0432 36.3612 13.0544C35.9845 13.102 35.6337 13.2716 35.3624 13.5372C35.1115 13.8138 34.9567 14.1642 34.9213 14.536C34.8469 14.862 34.879 15.2033 35.0128 15.5098C35.1449 15.82 35.3761 16.0776 35.6703 16.2422C35.69 16.2729 35.7193 16.2963 35.7536 16.3088C35.7863 16.3173 35.8207 16.3173 35.8534 16.3088C35.8862 16.3173 35.9206 16.3173 35.9533 16.3088C35.9876 16.2963 36.0169 16.2729 36.0366 16.2422C36.1614 16.2422 36.2863 16.1257 36.4111 16.0008C36.4377 15.977 36.4602 15.9488 36.4777 15.9176C36.4852 15.8847 36.4852 15.8506 36.4777 15.8177C36.4861 15.785 36.4861 15.7506 36.4777 15.7179C36.4625 15.6852 36.4396 15.6566 36.4111 15.6346C36.4111 15.5098 36.2863 15.3932 36.1614 15.2684C36.0791 15.1906 36.0237 15.0885 36.0033 14.9771C35.9706 14.8714 35.9706 14.7582 36.0033 14.6525C36.0295 14.5009 36.1022 14.3613 36.2113 14.253C36.3275 14.1455 36.4718 14.0733 36.6275 14.0449C36.8705 14.0114 37.1172 14.0708 37.3183 14.2114C37.5221 14.3423 37.6703 14.5438 37.7345 14.7773C37.793 14.8913 37.8824 14.9865 37.9925 15.052C38.1051 15.1123 38.231 15.1437 38.3587 15.1436C38.6084 15.0187 38.8498 14.7773 38.7249 14.536C38.7091 14.2686 38.7988 14.0056 38.9746 13.8035C39.0955 13.711 39.2395 13.6534 39.3908 13.6371C39.5417 13.6132 39.6963 13.6275 39.8402 13.6787C39.9025 13.6846 39.961 13.7109 40.0067 13.7536C40.0519 13.7985 40.0811 13.857 40.0899 13.9201C40.2729 14.5592 40.2729 15.2368 40.0899 15.876C39.9486 16.2156 39.7817 16.5439 39.5906 16.8581L39.2243 17.2244C38.8229 17.51 38.3507 17.6799 37.8593 17.7154C37.3927 17.759 36.9232 17.6726 36.5027 17.4657C36.3778 17.3409 36.253 17.3409 36.253 17.2244H35.637C35.2144 17.3585 34.7644 17.3814 34.3303 17.2909C33.8983 17.2071 33.4946 17.0153 33.1567 16.7333C32.7771 16.4018 32.4903 15.9773 32.3244 15.5014C32.1734 15.0304 32.1504 14.5277 32.2578 14.0449C32.2983 13.8039 32.3829 13.5725 32.5075 13.3624C32.6372 13.1539 32.8035 12.9706 32.9986 12.8214C33.1823 12.6535 33.3972 12.5234 33.6312 12.4385C33.8663 12.3567 34.1148 12.32 34.3636 12.3303C34.536 12.3516 34.7102 12.3103 34.8547 12.2138C34.9795 12.089 34.9795 11.9641 34.9795 11.7227C34.9533 11.2598 35.0389 10.7973 35.2292 10.3744C35.3541 10.133 35.6038 10.133 35.97 10.133C36.7107 10.133 36.9604 10.4992 36.9604 11.2317C36.9706 11.3607 37.0267 11.4817 37.1186 11.5729C37.2118 11.6605 37.3323 11.7134 37.4598 11.7227C37.5254 11.7393 37.594 11.7393 37.6596 11.7227C37.725 11.6999 37.7847 11.6629 37.8344 11.6145C37.8817 11.5688 37.9162 11.5114 37.9342 11.4481C37.9508 11.3825 37.9508 11.3139 37.9342 11.2483C37.9639 10.9675 37.9327 10.6836 37.8427 10.416C37.752 10.1421 37.6013 9.89184 37.4016 9.68355C37.2007 9.47279 36.9564 9.30809 36.6858 9.20081C36.4198 9.10208 36.1369 9.05683 35.8534 9.06764C35.5679 9.06075 35.2842 9.11466 35.0211 9.22578C34.765 9.32675 34.5326 9.47979 34.3386 9.67523C34.1454 9.92187 34.0038 10.205 33.9225 10.5075C33.8311 10.8008 33.8055 11.1105 33.8476 11.4148C33.3318 11.5667 32.8326 11.7703 32.3577 12.0224C31.9271 12.3375 31.5858 12.7591 31.3673 13.2459C31.1173 13.0656 30.9169 12.8251 30.7846 12.5467C30.6572 12.2681 30.6028 11.9616 30.6265 11.6561C30.6271 11.2485 30.7584 10.8517 31.001 10.5242C31.2474 10.1944 31.5909 9.94989 31.9832 9.82505C32.2329 9.82505 32.3577 9.58368 32.4826 9.45883C32.5088 9.41125 32.523 9.35797 32.5239 9.30364C32.5248 9.24931 32.5124 9.19558 32.4878 9.14715C32.4632 9.09871 32.4271 9.05704 32.3826 9.02577C32.3382 8.9945 32.2868 8.97459 32.2329 8.96776C31.8198 8.67091 31.5249 8.23752 31.4006 7.74425C31.3381 7.50975 31.3381 7.26297 31.4006 7.02847C31.4611 6.79181 31.5848 6.57605 31.7584 6.40423C32.028 6.13457 32.3686 5.94696 32.7406 5.86322C33.1129 5.77974 33.5008 5.79698 33.8642 5.91316C34.1333 5.97288 34.3809 6.10531 34.58 6.29602C34.7763 6.49221 34.9121 6.74066 34.9712 7.01182C34.9712 7.25319 35.3457 7.50289 35.5954 7.50289C35.8451 7.50289 35.8368 7.37804 35.9616 7.25319C36.0117 7.20818 36.049 7.15076 36.0699 7.08673C36.0823 7.02072 36.0823 6.95297 36.0699 6.88697C35.9926 6.39404 35.7592 5.93892 35.404 5.58855C35.0457 5.23657 34.5855 5.00649 34.0889 4.93102H33.7227C33.7384 4.6419 33.812 4.35887 33.9391 4.09871C34.0679 3.8465 34.2463 3.62286 34.4635 3.44117C34.7383 3.28425 35.0573 3.22278 35.3707 3.26639C35.6882 3.30956 35.9816 3.45922 36.203 3.69087C36.2951 3.74965 36.4018 3.78137 36.511 3.78243C36.6202 3.78137 36.7269 3.74965 36.8189 3.69087C36.9438 3.56602 37.1935 3.32465 37.0686 3.07496C37.0421 2.87612 37.0621 2.67384 37.1269 2.48401C37.1863 2.29013 37.2954 2.11513 37.4432 1.97629C37.6896 1.80533 37.9766 1.70202 38.2755 1.67667C38.5796 1.6596 38.8831 1.71973 39.1577 1.85145C39.4847 1.98373 39.7715 2.19887 39.9901 2.47569C40.2072 2.75596 40.3452 3.08939 40.3896 3.44117C40.4491 4.2271 40.2279 5.00867 39.7653 5.64682C39.6693 5.86451 39.4936 6.03722 39.2743 6.12956C39.1084 6.32113 38.8964 6.46723 38.6584 6.55404C38.4181 6.63815 38.1606 6.66104 37.9093 6.62063C37.7181 6.61108 37.5372 6.53102 37.4016 6.3959C37.262 6.26254 37.1787 6.08094 37.1685 5.88819C37.1685 5.39712 37.2934 5.05587 37.5431 4.90605C37.6926 4.82197 37.8627 4.7816 38.0341 4.78953C38.159 4.78953 38.159 4.90605 38.2838 4.90605C38.2722 4.93547 38.2722 4.96819 38.2838 4.99761C38.3132 5.0092 38.346 5.0092 38.3754 4.99761C38.5002 5.2473 38.7416 5.24731 38.9913 5.12246C39.0554 5.1172 39.1151 5.08738 39.1577 5.03922C39.2059 4.99653 39.2357 4.9369 39.241 4.87276V4.50654C39.1726 4.30809 39.0586 4.12848 38.9081 3.98218C38.7581 3.83407 38.5757 3.72294 38.3754 3.65758C38.1503 3.58311 37.9119 3.55757 37.6762 3.58267C37.4433 3.59907 37.2164 3.6643 37.0104 3.7741C36.8271 3.8813 36.6661 4.02256 36.5359 4.19026C36.4094 4.35871 36.3187 4.55134 36.2696 4.75624C36.0958 5.13956 36.0519 5.5692 36.1448 5.97974C36.1953 6.26378 36.3122 6.53185 36.486 6.76212C36.6553 6.99667 36.8778 7.18778 37.1352 7.31977C37.3849 7.44462 37.5098 7.44462 37.7511 7.56947C38.1989 7.64708 38.6593 7.60104 39.0828 7.4363C39.4759 7.27886 39.8204 7.02046 40.0816 6.68721L40.3313 6.43751V8.64316L40.2066 8.66812Z"
            fill="url(#paint7_linear_853_9226)" />
        <path
            d="M42.0043 12.0307V14.0033C41.9957 15.2416 42.3392 16.4568 42.9948 17.5074C43.2934 17.8725 43.6611 18.1751 44.0768 18.3979C44.5016 18.6298 44.9686 18.7741 45.4501 18.8224H45.8246C46.4919 18.8051 47.1386 18.5876 47.6807 18.1982C48.229 18.3195 48.7971 18.3195 49.3453 18.1982C49.9148 18.0884 50.4523 17.8523 50.9184 17.5074C51.3901 17.1219 51.7614 16.6278 52.0004 16.0675C52.2366 15.5081 52.3309 14.8992 52.2751 14.2946C52.8047 14.0793 53.2491 13.6963 53.5402 13.2043C53.8373 12.7032 53.9602 12.1179 53.8898 11.5397C53.9057 11.0256 53.7911 10.516 53.5569 10.0581C53.316 9.60274 52.9602 9.21826 52.5248 8.94282C52.8325 8.54447 53.0434 8.08001 53.1407 7.58615C53.2089 7.20163 53.2006 6.80744 53.1164 6.42612C53.0321 6.0448 52.8735 5.68384 52.6496 5.36386C52.4417 5.09056 52.1814 4.86138 51.8839 4.68968C51.5865 4.52211 51.2579 4.4173 50.9184 4.38173C50.9017 3.89213 50.7706 3.41325 50.5356 2.98343C50.2973 2.55316 49.9608 2.18526 49.5534 1.90974C49.2899 1.7874 49.0092 1.706 48.7211 1.66837H48.4714C48.0983 1.62779 47.7209 1.66752 47.3644 1.78489C47.2818 1.35799 47.0628 0.969493 46.7402 0.67791C46.3129 0.358712 45.8062 0.162939 45.2753 0.111934C44.7419 0.0574491 44.2038 0.149537 43.7189 0.378275C43.2371 0.605955 42.8258 0.959695 42.5287 1.40203C42.2315 1.84735 42.0617 2.36539 42.0376 2.9002V12.0557L42.0043 12.0307Z"
            fill="url(#paint8_linear_853_9226)" />
        <path
            d="M42.9448 8.66818V6.46255L43.1945 6.71224C43.4588 7.03633 43.803 7.28591 44.1932 7.43636C44.5861 7.58353 45.0098 7.62933 45.4251 7.56952C45.6664 7.44468 45.7913 7.44468 46.041 7.31983C46.2984 7.18784 46.5209 6.99673 46.6902 6.76217C46.864 6.53191 46.9809 6.26383 47.0314 5.9798C47.1201 5.56902 47.0764 5.1407 46.9066 4.75629C46.8575 4.5514 46.7668 4.35877 46.6403 4.19032C46.5101 4.02262 46.3491 3.88136 46.1658 3.77416C45.9598 3.66435 45.7329 3.59913 45.5 3.58272C45.2643 3.55763 45.0259 3.58317 44.8008 3.65763C44.6005 3.72299 44.4181 3.83413 44.2681 3.98224C44.1176 4.12854 44.0036 4.30815 43.9352 4.5066V4.87282C43.9405 4.93696 43.9703 4.99659 44.0185 5.03928C44.0611 5.08744 44.1208 5.11726 44.1849 5.12251C44.4346 5.24736 44.676 5.24736 44.8008 4.99767C44.8302 5.00926 44.863 5.00926 44.8924 4.99767C44.904 4.96825 44.904 4.93553 44.8924 4.90611C45.0172 4.90611 45.0172 4.78959 45.1421 4.78959C45.3135 4.78165 45.4836 4.82203 45.6331 4.90611C45.8828 5.03096 46.0077 5.39718 46.0077 5.88825C45.9975 6.081 45.9142 6.2626 45.7746 6.39596C45.639 6.53108 45.4581 6.61114 45.2669 6.62068C45.0156 6.66109 44.7581 6.63821 44.5178 6.5541C44.2798 6.46728 44.0678 6.32119 43.9019 6.12962C43.6826 6.03728 43.5069 5.86456 43.4109 5.64687C42.9483 5.00873 42.7271 4.22716 42.7866 3.44123C42.842 3.0718 43.0007 2.72556 43.2444 2.44245C43.4629 2.16563 43.7498 1.95049 44.0767 1.81821C44.3363 1.69453 44.6216 1.63461 44.909 1.64343C45.2079 1.66878 45.4949 1.7721 45.7414 1.94306C45.8892 2.0819 45.9982 2.2569 46.0576 2.45078C46.1224 2.64061 46.1424 2.84288 46.1159 3.04172C45.991 3.29142 46.2407 3.53279 46.3656 3.65763C46.4576 3.71641 46.5643 3.74814 46.6735 3.74919C46.7827 3.74814 46.8895 3.71641 46.9815 3.65763C47.2029 3.42598 47.4963 3.27632 47.8138 3.23315C48.1272 3.18955 48.4463 3.25101 48.721 3.40794C48.9383 3.58963 49.1166 3.81326 49.2454 4.06547C49.3725 4.32564 49.4461 4.60866 49.4618 4.89779H49.0956C48.5985 4.97159 48.1378 5.20192 47.7805 5.55532C47.4253 5.90569 47.1919 6.36081 47.1147 6.85373C47.1023 6.91974 47.1023 6.98748 47.1147 7.05349C47.1355 7.11753 47.1728 7.17494 47.2229 7.21995C47.3477 7.3448 47.3477 7.46965 47.5891 7.46965C47.8305 7.46965 48.2133 7.21995 48.2133 6.97858C48.2725 6.70743 48.4082 6.45897 48.6045 6.26279C48.8023 6.07028 49.0504 5.93757 49.3203 5.87992C49.6838 5.76374 50.0716 5.7465 50.4439 5.82998C50.8159 5.91372 51.1565 6.10133 51.4261 6.37099C51.5997 6.54281 51.7234 6.75857 51.784 6.99523C51.8465 7.22973 51.8465 7.47652 51.784 7.71102C51.6596 8.20429 51.3648 8.63767 50.9517 8.93452C50.8977 8.94135 50.8463 8.96127 50.8019 8.99254C50.7575 9.02381 50.7214 9.06548 50.6967 9.11391C50.6721 9.16235 50.6597 9.21608 50.6606 9.2704C50.6615 9.32473 50.6757 9.37801 50.702 9.42559C50.8268 9.55044 50.9517 9.79182 51.193 9.79182C51.5889 9.91408 51.9357 10.1589 52.1835 10.491C52.4262 10.8185 52.5574 11.2152 52.558 11.6229C52.5856 11.9286 52.531 12.236 52.3999 12.5135C52.2735 12.7931 52.0753 13.0343 51.8256 13.2126C51.6044 12.7275 51.2636 12.3064 50.8351 11.9891C50.3602 11.737 49.8611 11.5335 49.3453 11.3815C49.3873 11.0773 49.3617 10.7675 49.2704 10.4743C49.189 10.1717 49.0475 9.88864 48.8542 9.642C48.6806 9.45088 48.4714 9.29539 48.2383 9.18422C47.9752 9.0731 47.6915 9.01919 47.406 9.02608C47.1208 9.02322 46.8379 9.07697 46.5737 9.18422C46.303 9.29151 46.0588 9.45621 45.8579 9.66697C45.6582 9.87525 45.5075 10.1255 45.4167 10.3994C45.3268 10.667 45.2955 10.9509 45.3252 11.2317C45.3047 11.2967 45.3047 11.3665 45.3252 11.4315C45.3433 11.4948 45.3777 11.5522 45.4251 11.5979C45.4747 11.6463 45.5344 11.6833 45.5999 11.7061C45.6654 11.7227 45.7341 11.7227 45.7996 11.7061C45.9272 11.6968 46.0477 11.6439 46.1409 11.5563C46.2327 11.4651 46.2888 11.3441 46.299 11.2151C46.299 10.4826 46.5404 10.1164 47.2895 10.1164C47.6557 10.1164 47.9054 10.1164 48.0302 10.3578C48.2205 10.7807 48.3061 11.2432 48.2799 11.7061C48.2799 11.9475 48.2799 12.0724 48.3964 12.1972C48.5443 12.2929 48.7209 12.3341 48.8958 12.3137C49.1446 12.3035 49.3931 12.3402 49.6283 12.4219C49.8606 12.5049 50.0732 12.6353 50.2525 12.8048C50.4461 12.953 50.6099 13.1366 50.7353 13.3458C50.8599 13.556 50.9445 13.7874 50.9849 14.0283C51.0938 14.5115 51.0679 15.0154 50.91 15.4849C50.7598 15.958 50.487 16.383 50.1193 16.7167C49.7815 16.9987 49.3778 17.1906 48.9458 17.2743C48.5117 17.3648 48.0617 17.3419 47.639 17.2078H47.0231C47.0231 17.3243 46.8983 17.3243 46.7734 17.4491C46.3529 17.656 45.8834 17.7424 45.4167 17.6988C44.9356 17.6638 44.4727 17.4999 44.0767 17.2244L43.7022 16.8582C43.51 16.5317 43.3404 16.1924 43.1945 15.8428C43.0115 15.2036 43.0115 14.526 43.1945 13.8868C43.2034 13.8254 43.2294 13.7678 43.2694 13.7203C43.3191 13.6789 43.3799 13.6529 43.4442 13.6454C43.5881 13.5939 43.7427 13.5796 43.8936 13.6038C44.0449 13.6202 44.1889 13.6778 44.3098 13.7703C44.4826 13.9741 44.5718 14.2358 44.5595 14.5027C44.4346 14.7441 44.676 14.9855 44.9257 15.1103C45.0532 15.1083 45.1784 15.0769 45.2919 15.0188C45.4014 14.9551 45.4886 14.8592 45.5416 14.7441C45.6093 14.51 45.7603 14.3087 45.9661 14.1781C46.1672 14.0376 46.4139 13.9782 46.6569 14.0117C46.8126 14.0401 46.9569 14.1122 47.0731 14.2197C47.1822 14.3281 47.2549 14.4677 47.2811 14.6193C47.3138 14.725 47.3138 14.8381 47.2811 14.9439C47.2607 15.0553 47.2053 15.1573 47.123 15.2352C46.9981 15.36 46.8733 15.4765 46.8733 15.6014C46.8448 15.6234 46.8219 15.6519 46.8067 15.6846C46.7983 15.7174 46.7983 15.7517 46.8067 15.7845C46.7992 15.8174 46.7992 15.8515 46.8067 15.8844C46.8242 15.9156 46.8467 15.9437 46.8733 15.9676C46.9982 16.0925 47.123 16.209 47.2478 16.209C47.2675 16.2397 47.2968 16.2631 47.3311 16.2756C47.3638 16.284 47.3982 16.284 47.431 16.2756C47.4638 16.2831 47.498 16.2831 47.5308 16.2756C47.5651 16.2631 47.5944 16.2397 47.6141 16.209C47.9063 16.0419 48.1369 15.7851 48.2716 15.4765C48.4068 15.1702 48.4361 14.8276 48.3548 14.5027C48.311 14.1273 48.1408 13.778 47.8721 13.5123C47.6008 13.2467 47.25 13.0771 46.8733 13.0295C46.3917 13.0201 45.9177 13.1502 45.5083 13.4041C45.5083 13.2792 45.3918 13.1544 45.2669 13.0295C45.0452 12.7806 44.7561 12.6014 44.4346 12.5135C44.1095 12.4113 43.7609 12.4113 43.4358 12.5135C43.3686 12.5801 43.2804 12.6213 43.1861 12.63V10.9654C43.1861 10.5992 43.1861 9.86672 43.4358 9.61702H43.6772C43.746 9.60435 43.8165 9.60435 43.8853 9.61702C43.9483 9.63997 44.0052 9.67698 44.0517 9.72523C44.1018 9.77024 44.1391 9.82765 44.1599 9.89169C44.1765 9.95724 44.1765 10.0259 44.1599 10.0914C44.1691 10.2183 44.2255 10.3371 44.3181 10.4244C44.4053 10.5169 44.5241 10.5734 44.651 10.5825H44.909C44.9586 10.5907 45.0093 10.5907 45.0589 10.5825C45.1078 10.5678 45.1512 10.5388 45.1837 10.4993C45.2232 10.4668 45.2522 10.4234 45.2669 10.3744C45.2755 10.3277 45.2755 10.2797 45.2669 10.2329C45.2851 10.0596 45.2408 9.8855 45.1421 9.74187C45.0747 9.40764 44.8847 9.11073 44.6094 8.90955C44.3334 8.7073 43.9931 8.61261 43.6522 8.64321H42.9115L42.9448 8.66818Z"
            fill="url(#paint9_linear_853_9226)" />
        <path opacity="0.91"
            d="M34.297 12.8799C33.8471 12.8784 33.412 13.0412 33.0735 13.3377C32.7244 13.6286 32.4935 14.0371 32.4243 14.4863C32.4277 14.5516 32.4542 14.6136 32.4992 14.6611C32.5475 14.7036 32.6096 14.7273 32.674 14.7276C32.7387 14.7289 32.8014 14.7051 32.8488 14.6611C32.8725 14.6385 32.8913 14.6114 32.9042 14.5813C32.9171 14.5513 32.9237 14.519 32.9237 14.4863C32.923 14.3121 32.957 14.1395 33.0236 13.9786C33.0965 13.8201 33.2013 13.6784 33.3315 13.5624C33.4589 13.4465 33.6092 13.3586 33.7727 13.3044C33.9366 13.2524 34.109 13.2326 34.2804 13.2461C34.3457 13.2427 34.4077 13.2162 34.4552 13.1712C34.4964 13.1246 34.5225 13.0665 34.5301 13.0047C34.5634 12.8799 34.4385 12.8799 34.297 12.8799Z"
            fill="white" />
        <path opacity="0.91"
            d="M48.5961 13.0053C48.6029 13.069 48.6325 13.1281 48.6793 13.1718C48.7229 13.2176 48.7826 13.2445 48.8458 13.2467C49.02 13.2325 49.1952 13.2523 49.3618 13.305C49.5244 13.3611 49.6743 13.4488 49.803 13.563C49.9307 13.6793 50.0328 13.8211 50.1026 13.9791C50.1718 14.1396 50.2086 14.3121 50.2108 14.4869C50.2111 14.5513 50.2348 14.6134 50.2774 14.6616C50.3257 14.7042 50.3878 14.7279 50.4522 14.7282C50.5169 14.7295 50.5795 14.7056 50.627 14.6616C50.6506 14.6391 50.6695 14.612 50.6823 14.5819C50.6952 14.5519 50.7019 14.5195 50.7019 14.4869C50.6418 14.0427 50.4194 13.6365 50.0776 13.3466C49.7362 13.0495 49.2984 12.8868 48.8458 12.8888C48.7126 12.8805 48.5878 12.8805 48.5961 13.0053Z"
            fill="white" />
        <path
            d="M41.2719 51.5661V42.4772C41.2437 41.9431 41.0742 41.4262 40.7808 40.979C40.4836 40.5367 40.0724 40.183 39.5906 39.9553C39.1069 39.7228 38.5677 39.6305 38.0342 39.6889C37.5033 39.7399 36.9966 39.9357 36.5693 40.2549C36.2467 40.5465 36.0276 40.935 35.945 41.3619C35.5883 41.2458 35.2117 41.2033 34.8381 41.237H34.5884C34.3007 41.2812 34.0205 41.3652 33.756 41.4867C33.3486 41.7623 33.0121 42.1302 32.7739 42.5604C32.5389 42.9902 32.4078 43.4691 32.391 43.9587C32.0512 43.9926 31.7223 44.0976 31.4256 44.2667C31.1281 44.4384 30.8678 44.6676 30.6598 44.9409C30.436 45.2608 30.2774 45.6218 30.1931 46.0031C30.1088 46.3844 30.1006 46.7786 30.1688 47.1631C30.2673 47.6394 30.469 48.0883 30.7597 48.4782C30.3243 48.7536 29.9685 49.1381 29.7276 49.5935C29.4895 50.0499 29.3747 50.5606 29.3947 51.075C29.3197 51.6535 29.4429 52.2403 29.7443 52.7397C30.0354 53.2317 30.4798 53.6147 31.0094 53.83C30.9536 54.4346 31.0479 55.0435 31.2841 55.6028C31.5231 56.1608 31.8945 56.6522 32.3661 57.0344C32.8165 57.3882 33.3394 57.6383 33.8975 57.7669C34.4458 57.8881 35.0139 57.8881 35.5622 57.7669C36.1026 58.1586 36.7509 58.3737 37.4182 58.3828H37.7845C38.2691 58.3426 38.7399 58.2008 39.1661 57.9666C39.592 57.7304 39.9657 57.4105 40.2648 57.0261C40.9137 55.991 41.2571 54.7937 41.2552 53.572V51.5994L41.2719 51.5661Z"
            fill="url(#paint10_linear_853_9226)" />
        <path
            d="M40.2066 48.2038H40.0816H39.5822C39.2435 48.168 38.904 48.2633 38.6334 48.4701C38.3581 48.6713 38.1681 48.9682 38.1007 49.3025C38.002 49.4461 37.9577 49.6202 37.9759 49.7935C37.9635 49.8399 37.9635 49.8887 37.9759 49.935C37.9906 49.984 38.0196 50.0274 38.0591 50.0599C38.0915 50.0994 38.135 50.1283 38.1839 50.1431C38.2335 50.1513 38.2842 50.1513 38.3338 50.1431H38.5835C38.7099 50.1324 38.8282 50.0762 38.9164 49.985C39.0076 49.8968 39.0638 49.7785 39.0745 49.652C39.058 49.5865 39.058 49.5178 39.0745 49.4523C39.0923 49.3868 39.1301 49.3286 39.1827 49.2858C39.2277 49.2357 39.2851 49.1984 39.3492 49.1776C39.4147 49.161 39.4834 49.161 39.5489 49.1776H39.7986C40.0483 49.419 40.0483 50.1597 40.0483 50.526V52.1906C39.9541 52.1819 39.8658 52.1407 39.7986 52.0741C39.4736 51.9718 39.1249 51.9718 38.7999 52.0741C38.4783 52.162 38.1892 52.3412 37.9675 52.5901C37.8427 52.715 37.7178 52.8398 37.7178 52.9563C37.31 52.7069 36.8391 52.5798 36.3612 52.5901C35.9845 52.6377 35.6337 52.8072 35.3624 53.0729C35.1115 53.3495 34.9567 53.6998 34.9213 54.0716C34.8469 54.3977 34.879 54.739 35.0128 55.0454C35.1449 55.3556 35.3761 55.6132 35.6703 55.7779C35.69 55.8086 35.7193 55.832 35.7536 55.8445C35.7863 55.8529 35.8207 55.8529 35.8534 55.8445C35.8862 55.8529 35.9206 55.8529 35.9533 55.8445C35.9876 55.832 36.0169 55.8086 36.0366 55.7779C36.1614 55.7779 36.2863 55.653 36.4111 55.5365C36.4377 55.5126 36.4602 55.4845 36.4777 55.4533C36.4852 55.4204 36.4852 55.3863 36.4777 55.3534C36.4861 55.3206 36.4861 55.2863 36.4777 55.2535C36.4625 55.2208 36.4397 55.1923 36.4111 55.1703C36.4111 55.0454 36.2863 54.9206 36.1614 54.8041C36.082 54.724 36.0271 54.623 36.0033 54.5128C35.9706 54.407 35.9706 54.2939 36.0033 54.1882C36.0295 54.0366 36.1022 53.897 36.2113 53.7886C36.3241 53.6764 36.47 53.6034 36.6275 53.5806C36.8693 53.5478 37.1148 53.604 37.3183 53.7387C37.521 53.8744 37.6686 54.0781 37.7345 54.313C37.7954 54.4253 37.8843 54.5199 37.9925 54.5877C38.1051 54.6479 38.231 54.6794 38.3587 54.6792C38.6084 54.5544 38.8498 54.313 38.7249 54.0716C38.7105 53.8019 38.7998 53.5368 38.9746 53.3309C39.1 53.2465 39.2418 53.1898 39.3908 53.1644C39.5425 53.1476 39.696 53.1647 39.8402 53.2143C39.9034 53.2166 39.9632 53.2435 40.0067 53.2893C40.0536 53.3329 40.0831 53.392 40.0899 53.4557C40.2729 54.0949 40.2729 54.7725 40.0899 55.4117C39.9486 55.7512 39.7817 56.0795 39.5906 56.3938L39.2243 56.76C38.8241 57.0467 38.3508 57.2141 37.8593 57.2428C37.3934 57.2912 36.9233 57.2075 36.5027 57.0014C36.3778 56.8765 36.253 56.8765 36.253 56.76H35.637C35.2144 56.8941 34.7644 56.9171 34.3303 56.8266C33.8983 56.7428 33.4946 56.551 33.1567 56.2689C32.7771 55.9375 32.4903 55.513 32.3244 55.0371C32.1738 54.566 32.1508 54.0634 32.2578 53.5806C32.2983 53.3396 32.3829 53.1082 32.5075 52.8981C32.6327 52.6862 32.7998 52.5021 32.9986 52.3571C33.1823 52.1892 33.3972 52.0591 33.6312 51.9742C33.8663 51.8924 34.1148 51.8557 34.3636 51.866C34.5357 51.8831 34.7086 51.8421 34.8547 51.7495C34.9795 51.6246 34.9795 51.4998 34.9795 51.2584C34.9533 50.7954 35.0389 50.3329 35.2292 49.91C35.3541 49.6687 35.6038 49.6687 35.97 49.6687C36.7107 49.6687 36.9604 50.0349 36.9604 50.7673C36.9696 50.8942 37.026 51.013 37.1186 51.1003C37.2089 51.1934 37.3304 51.2497 37.4598 51.2584C37.5258 51.2708 37.5936 51.2708 37.6596 51.2584C37.725 51.2355 37.7847 51.1986 37.8344 51.1502C37.8817 51.1045 37.9162 51.047 37.9342 50.9837C37.9508 50.9182 37.9508 50.8495 37.9342 50.784C37.9639 50.5032 37.9327 50.2193 37.8427 49.9517C37.752 49.6777 37.6013 49.4275 37.4016 49.2192C37.2007 49.0085 36.9564 48.8438 36.6858 48.7365C36.4208 48.6339 36.1372 48.5885 35.8534 48.6033C35.5685 48.5935 35.2848 48.6446 35.0211 48.7531C34.7662 48.8602 34.5344 49.0156 34.3386 49.2109C34.1454 49.4575 34.0038 49.7406 33.9225 50.0432C33.8311 50.3364 33.8055 50.6462 33.8476 50.9504C33.3306 51.0989 32.8311 51.3026 32.3577 51.558C31.9271 51.8732 31.5858 52.2948 31.3673 52.7815C31.119 52.5994 30.919 52.3594 30.7846 52.0824C30.6572 51.8038 30.6028 51.4973 30.6265 51.1918C30.6243 50.7475 30.7741 50.3158 31.051 49.9683C31.2978 49.6408 31.6414 49.3991 32.0331 49.2775C32.2828 49.2775 32.4077 49.0278 32.5325 48.9113C32.5587 48.8637 32.5729 48.8104 32.5739 48.7561C32.5748 48.7018 32.5624 48.648 32.5377 48.5996C32.5131 48.5512 32.477 48.5095 32.4326 48.4782C32.3881 48.4469 32.3367 48.427 32.2828 48.4202C31.8697 48.1233 31.5749 47.69 31.4505 47.1967C31.388 46.9622 31.388 46.7154 31.4505 46.4809C31.5094 46.2436 31.6334 46.0274 31.8084 45.8567C32.078 45.587 32.4185 45.3994 32.7905 45.3157C33.1628 45.2322 33.5507 45.2494 33.9141 45.3656C34.1833 45.4253 34.4309 45.5577 34.6299 45.7485C34.8262 45.9446 34.962 46.1931 35.0211 46.4643C35.0211 46.7056 35.3957 46.9553 35.6454 46.9553C35.8951 46.9553 35.8867 46.8305 36.0116 46.7056C36.0617 46.6606 36.099 46.6032 36.1198 46.5392C36.1322 46.4732 36.1322 46.4054 36.1198 46.3394C36.0425 45.8465 35.8092 45.3914 35.4539 45.041C35.0956 44.689 34.6355 44.4589 34.1389 44.3835H33.7727C33.7872 44.0942 33.8609 43.8109 33.9891 43.5511C34.1179 43.2989 34.2962 43.0753 34.5134 42.8936C34.7882 42.7367 35.1072 42.6752 35.4206 42.7188C35.7375 42.7585 36.0312 42.9053 36.253 43.135C36.3385 43.2324 36.4571 43.2947 36.5859 43.3098C36.6965 43.3098 36.8043 43.2748 36.8938 43.2099C37.0187 43.0934 37.2684 42.8437 37.1435 42.6023C37.1171 42.4035 37.137 42.2012 37.2018 42.0114C37.2613 41.8175 37.3703 41.6425 37.5181 41.5036C37.7645 41.3327 38.0515 41.2294 38.3504 41.204C38.6545 41.1869 38.958 41.2471 39.2327 41.3788C39.5596 41.5111 39.8464 41.7262 40.065 42.003C40.2822 42.2833 40.4201 42.6167 40.4645 42.9685C40.5221 43.7517 40.3009 44.5299 39.8402 45.1658C39.7474 45.3877 39.571 45.5641 39.3492 45.6569C39.1833 45.8485 38.9713 45.9946 38.7333 46.0814C38.493 46.1655 38.2355 46.1884 37.9842 46.148C37.793 46.1384 37.6121 46.0584 37.4765 45.9232C37.3369 45.7899 37.2536 45.6083 37.2434 45.4155C37.2434 44.9245 37.3683 44.5832 37.618 44.4334C37.7675 44.3493 37.9377 44.3089 38.109 44.3169C38.2339 44.3169 38.2339 44.4334 38.3587 44.4334C38.3471 44.4628 38.3471 44.4955 38.3587 44.525C38.3887 44.5331 38.4203 44.5331 38.4503 44.525C38.5751 44.7663 38.8165 44.7663 39.0662 44.6498C39.1303 44.6445 39.19 44.6147 39.2327 44.5666C39.2808 44.5239 39.3106 44.4642 39.3159 44.4001V44.0339C39.2493 43.8346 39.135 43.6546 38.983 43.5095C38.8335 43.3589 38.6512 43.2449 38.4503 43.1766C38.2235 43.1103 37.9868 43.0849 37.7511 43.1017C37.5187 43.1261 37.2928 43.1939 37.0853 43.3014C36.8997 43.4053 36.738 43.5471 36.6109 43.7176C36.4843 43.8861 36.3936 44.0787 36.3445 44.2836C36.1707 44.6669 36.1268 45.0965 36.2197 45.5071C36.2702 45.7911 36.3871 46.0592 36.5609 46.2895C36.7302 46.524 36.9527 46.7151 37.2101 46.8471C37.4598 46.972 37.5847 46.972 37.826 47.0885C38.2484 47.1647 38.6837 47.1214 39.0828 46.9636C39.4702 46.812 39.8135 46.5659 40.0816 46.2478L40.3313 45.9982V48.2038H40.2066Z"
            fill="url(#paint11_linear_853_9226)" />
        <path
            d="M42.0042 51.5658V53.5384C42.0023 54.7601 42.3457 55.9575 42.9946 56.9925C43.2888 57.3752 43.6568 57.695 44.0766 57.933C44.5004 58.1659 44.9682 58.3077 45.45 58.3492H45.8245C46.4919 58.3401 47.1402 58.125 47.6806 57.7333C48.2288 57.8546 48.797 57.8546 49.3452 57.7333C49.9033 57.6047 50.4262 57.3546 50.8767 57.0008C51.3483 56.6186 51.7196 56.1273 51.9587 55.5693C52.1948 55.0099 52.2891 54.401 52.2334 53.7964C52.763 53.5811 53.2074 53.1981 53.4985 52.7061C53.7956 52.205 53.9185 51.6197 53.848 51.0415C53.8639 50.5274 53.7494 50.0178 53.5151 49.5599C53.2742 49.1045 52.9184 48.7201 52.483 48.4446C52.7882 48.0447 52.9988 47.5809 53.099 47.088C53.1672 46.7034 53.1589 46.3092 53.0746 45.9279C52.9904 45.5466 52.8318 45.1856 52.6079 44.8657C52.3999 44.5924 52.1396 44.3632 51.8422 44.1915C51.5448 44.0239 51.2162 43.9191 50.8767 43.8835C50.86 43.3939 50.7288 42.9151 50.4938 42.4852C50.2556 42.055 49.9191 41.6871 49.5117 41.4115C49.2472 41.29 48.9671 41.206 48.6794 41.1618H48.4297C48.056 41.1281 47.6794 41.1706 47.3227 41.2867C47.2401 40.8598 47.021 40.4713 46.6984 40.1797C46.2712 39.8605 45.7645 39.6647 45.2336 39.6137C44.7001 39.5553 44.1609 39.6476 43.6771 39.8801C43.1953 40.1078 42.7841 40.4615 42.4869 40.9038C42.1898 41.3492 42.02 41.8672 41.9958 42.402V51.5575L42.0042 51.5658Z"
            fill="url(#paint12_linear_853_9226)" />
        <path
            d="M42.9447 48.2033V45.9977L43.1944 46.2474C43.4625 46.5655 43.8058 46.8115 44.1932 46.9632C44.5839 47.1191 45.0099 47.1652 45.425 47.0964C45.6664 46.9798 45.7912 46.9798 46.0409 46.855C46.2983 46.723 46.5208 46.5319 46.6901 46.2973C46.8639 46.0671 46.9808 45.799 47.0314 45.515C47.12 45.1042 47.0763 44.6759 46.9065 44.2915C46.8574 44.0866 46.7667 43.8939 46.6402 43.7255C46.513 43.555 46.3514 43.4132 46.1658 43.3093C45.9582 43.2018 45.7324 43.134 45.4999 43.1096C45.2642 43.0923 45.0274 43.1177 44.8008 43.1845C44.5999 43.2528 44.4175 43.3668 44.2681 43.5174C44.1161 43.6625 44.0018 43.8425 43.9351 44.0418V44.408C43.9404 44.4721 43.9702 44.5318 44.0184 44.5744C44.0611 44.6226 44.1207 44.6524 44.1848 44.6577C44.4345 44.7742 44.6759 44.7742 44.8008 44.5328C44.8307 44.541 44.8623 44.541 44.8923 44.5328C44.9039 44.5034 44.9039 44.4707 44.8923 44.4413C45.0172 44.4413 45.0172 44.3247 45.142 44.3247C45.3134 44.3168 45.4835 44.3572 45.6331 44.4413C45.8828 44.5661 46.0076 44.9323 46.0076 45.4234C45.9975 45.6162 45.9141 45.7978 45.7746 45.9311C45.6389 46.0662 45.4581 46.1463 45.2669 46.1558C45.0155 46.1963 44.758 46.1734 44.5178 46.0893C44.2797 46.0024 44.0677 45.8563 43.9019 45.6648C43.68 45.5719 43.5036 45.3955 43.4108 45.1737C42.9501 44.5378 42.729 43.7595 42.7865 42.9764C42.8419 42.607 43.0006 42.2607 43.2443 41.9776C43.4629 41.7008 43.7497 41.4857 44.0766 41.3534C44.3362 41.2297 44.6216 41.1698 44.909 41.1786C45.2078 41.2039 45.4948 41.3073 45.7413 41.4782C45.8891 41.6171 45.9981 41.7921 46.0576 41.9859C46.1224 42.1758 46.1423 42.378 46.1158 42.5769C45.991 42.8182 46.2407 43.0679 46.3655 43.1845C46.4551 43.2494 46.5629 43.2844 46.6735 43.2843C46.7841 43.2844 46.8919 43.2494 46.9814 43.1845C47.2032 42.9548 47.4969 42.8079 47.8137 42.7683C48.1272 42.7247 48.4462 42.7862 48.721 42.9431C48.9382 43.1248 49.1165 43.3484 49.2453 43.6006C49.3735 43.8604 49.4472 44.1436 49.4617 44.4329H49.0955C48.5984 44.5068 48.1378 44.7371 47.7805 45.0905C47.4252 45.4408 47.1918 45.896 47.1146 46.3889C47.1022 46.4549 47.1022 46.5226 47.1146 46.5886C47.1354 46.6527 47.1727 46.7101 47.2228 46.7551C47.3476 46.88 47.3476 47.0048 47.589 47.0048C47.8304 47.0048 48.2133 46.7551 48.2133 46.5137C48.2724 46.2426 48.4082 45.9941 48.6044 45.7979C48.8022 45.6054 49.0503 45.4727 49.3202 45.4151C49.6837 45.2989 50.0715 45.2817 50.4439 45.3651C50.8159 45.4489 51.1564 45.6365 51.426 45.9061C51.601 46.0769 51.725 46.2931 51.7839 46.5304C51.8464 46.7649 51.8464 47.0117 51.7839 47.2462C51.6595 47.7394 51.3647 48.1728 50.9516 48.4697C50.8977 48.4765 50.8463 48.4964 50.8018 48.5277C50.7574 48.559 50.7213 48.6006 50.6967 48.6491C50.672 48.6975 50.6596 48.7512 50.6605 48.8056C50.6614 48.8599 50.6756 48.9132 50.7019 48.9608C50.8267 49.0773 50.9516 49.327 51.193 49.327C51.588 49.4465 51.9348 49.6884 52.1834 50.0178C52.4252 50.349 52.5563 50.748 52.558 51.1581C52.5829 51.4645 52.5254 51.772 52.3915 52.0486C52.2628 52.3268 52.0651 52.5675 51.8172 52.7478C51.596 52.2626 51.2552 51.8416 50.8267 51.5243C50.3534 51.2689 49.8539 51.0652 49.3369 50.9167C49.3988 50.6021 49.3874 50.2774 49.3036 49.9679C49.2222 49.6653 49.0807 49.3822 48.8874 49.1355C48.698 48.9586 48.4781 48.8176 48.2382 48.7194C47.9746 48.6109 47.6908 48.5598 47.4059 48.5696C47.1222 48.5548 46.8385 48.6001 46.5736 48.7027C46.3029 48.81 46.0587 48.9747 45.8578 49.1855C45.6581 49.3938 45.5074 49.644 45.4167 49.9179C45.3267 50.1855 45.2955 50.4694 45.3251 50.7502C45.3047 50.8152 45.3047 50.885 45.3251 50.95C45.3432 51.0133 45.3777 51.0707 45.425 51.1165C45.4746 51.1649 45.5343 51.2018 45.5998 51.2247C45.6658 51.2371 45.7335 51.2371 45.7995 51.2247C45.9289 51.216 46.0505 51.1596 46.1408 51.0665C46.2333 50.9793 46.2898 50.8605 46.2989 50.7336C46.2989 50.0011 46.5403 49.6349 47.2894 49.6349C47.6556 49.6349 47.9053 49.6349 48.0301 49.8763C48.2204 50.2992 48.3061 50.7617 48.2798 51.2247C48.2798 51.466 48.2798 51.5909 48.3964 51.7157C48.5464 51.8062 48.7212 51.8469 48.8958 51.8322C49.1445 51.822 49.393 51.8587 49.6282 51.9404C49.8605 52.0235 50.0731 52.1538 50.2524 52.3233C50.4559 52.4656 50.6263 52.6501 50.7518 52.8643C50.8764 53.0745 50.9611 53.3059 51.0015 53.5468C51.11 54.0301 51.084 54.5338 50.9266 55.0034C50.7764 55.4766 50.5036 55.9016 50.1359 56.2352C49.7981 56.5172 49.3944 56.7091 48.9623 56.7929C48.5283 56.8833 48.0782 56.8604 47.6556 56.7263H47.0397C47.0397 56.8428 46.9148 56.8428 46.79 56.9676C46.3694 57.1738 45.8992 57.2574 45.4333 57.209C44.948 57.1886 44.4781 57.0329 44.0766 56.7596L43.7021 56.3933C43.517 56.0771 43.3529 55.749 43.211 55.4112C43.0281 54.7721 43.0281 54.0944 43.211 53.4553C43.2079 53.4005 43.2193 53.3459 43.2443 53.2971C43.2918 53.2521 43.3538 53.2256 43.4191 53.2222C43.5633 53.172 43.7169 53.1549 43.8686 53.1723C44.0175 53.1976 44.1594 53.2544 44.2847 53.3387C44.456 53.5467 44.5448 53.8103 44.5344 54.0795C44.4096 54.3209 44.6509 54.5622 44.9006 54.6871C45.0281 54.685 45.1534 54.6537 45.2669 54.5955C45.3747 54.5299 45.4614 54.4345 45.5165 54.3209C45.5859 54.0854 45.7362 53.8819 45.941 53.7466C46.1445 53.6119 46.39 53.5557 46.6319 53.5884C46.7893 53.6113 46.9352 53.6843 47.048 53.7965C47.1572 53.9049 47.2299 54.0445 47.2561 54.196C47.2888 54.3018 47.2888 54.4149 47.2561 54.5206C47.2322 54.6308 47.1774 54.7319 47.098 54.8119C46.9731 54.9285 46.8483 55.0533 46.8483 55.1782C46.8197 55.2002 46.7969 55.2287 46.7817 55.2614C46.7732 55.2941 46.7732 55.3285 46.7817 55.3613C46.7742 55.3941 46.7742 55.4283 46.7817 55.4611C46.7991 55.4924 46.8216 55.5205 46.8483 55.5444C46.9731 55.6609 47.098 55.7858 47.2228 55.7858C47.2425 55.8165 47.2717 55.8399 47.306 55.8523C47.3388 55.8608 47.3732 55.8608 47.4059 55.8523C47.4388 55.8598 47.4729 55.8598 47.5058 55.8523C47.5401 55.8399 47.5693 55.8165 47.589 55.7858C47.8813 55.6187 48.1119 55.3618 48.2465 55.0533C48.3817 54.747 48.411 54.4043 48.3298 54.0795C48.286 53.7041 48.1157 53.3548 47.847 53.089C47.5757 52.8234 47.2249 52.6539 46.8483 52.6063C46.3678 52.5972 45.8946 52.7241 45.4833 52.9725C45.4833 52.856 45.3667 52.7311 45.2419 52.6063C45.0202 52.3574 44.7311 52.1781 44.4096 52.0903C44.0845 51.988 43.7359 51.988 43.4108 52.0903C43.3436 52.1569 43.2553 52.1981 43.1611 52.2068V50.5422C43.1611 50.1759 43.1611 49.4352 43.4108 49.1938H43.6522C43.7205 49.1769 43.7919 49.1769 43.8602 49.1938C43.9232 49.2168 43.9802 49.2538 44.0267 49.302C44.0768 49.347 44.1141 49.4044 44.1349 49.4685C44.1515 49.534 44.1515 49.6027 44.1349 49.6682C44.1456 49.7947 44.2018 49.913 44.293 50.0011C44.3803 50.0937 44.4991 50.1501 44.626 50.1593H44.909C44.9586 50.1675 45.0092 50.1675 45.0588 50.1593C45.1077 50.1445 45.1512 50.1156 45.1836 50.0761C45.2231 50.0436 45.2521 50.0002 45.2669 49.9512C45.2749 49.9044 45.2749 49.8565 45.2669 49.8097C45.285 49.6364 45.2407 49.4623 45.142 49.3186C45.0746 48.9844 44.8846 48.6875 44.6093 48.4863C44.3351 48.2805 43.9933 48.1854 43.6522 48.22H42.9114L42.9447 48.2033Z"
            fill="url(#paint13_linear_853_9226)" />
        <path opacity="0.91"
            d="M34.297 52.415C33.8471 52.4136 33.412 52.5763 33.0735 52.8728C32.7244 53.1638 32.4935 53.5722 32.4243 54.0214C32.4296 54.0863 32.4559 54.1476 32.4992 54.1962C32.5475 54.2388 32.6096 54.2625 32.674 54.2628C32.7387 54.2641 32.8014 54.2402 32.8488 54.1962C32.8958 54.1501 32.9228 54.0873 32.9237 54.0214C32.923 53.8472 32.957 53.6747 33.0236 53.5137C33.0965 53.3552 33.2013 53.2136 33.3315 53.0975C33.4589 52.9817 33.6092 52.8938 33.7727 52.8395C33.9366 52.7875 34.109 52.7677 34.2804 52.7813C34.3457 52.7779 34.4077 52.7513 34.4552 52.7064C34.4952 52.6589 34.5211 52.6013 34.5301 52.5399C34.5634 52.415 34.4385 52.415 34.297 52.415Z"
            fill="white" />
        <path opacity="0.91"
            d="M48.5961 52.5399C48.6049 52.603 48.6341 52.6615 48.6793 52.7064C48.7229 52.7522 48.7826 52.7791 48.8458 52.7813C49.02 52.7671 49.1952 52.7869 49.3618 52.8395C49.5244 52.8957 49.6743 52.9834 49.803 53.0976C49.9307 53.2139 50.0328 53.3556 50.1026 53.5137C50.1718 53.6742 50.2086 53.8467 50.2108 54.0214C50.2125 54.0856 50.236 54.1472 50.2774 54.1962C50.3257 54.2388 50.3878 54.2625 50.4522 54.2628C50.5169 54.2641 50.5795 54.2402 50.627 54.1962C50.674 54.1501 50.7009 54.0873 50.7019 54.0214C50.6437 53.5743 50.4212 53.1648 50.0776 52.8728C49.7362 52.5758 49.2984 52.4131 48.8458 52.4151C48.7126 52.4151 48.5878 52.4151 48.5961 52.5399Z"
            fill="white" />
    </g>
    <defs>
        <linearGradient id="paint0_linear_853_9226" x1="19.1239" y1="26.2137" x2="20.4229" y2="27.6191"
            gradientUnits="userSpaceOnUse">
            <stop stop-color="#FFB300" />
            <stop offset="1" stop-color="#E3A000" />
        </linearGradient>
        <linearGradient id="paint1_linear_853_9226" x1="20.3319" y1="34.1834" x2="19.223" y2="35.7431"
            gradientUnits="userSpaceOnUse">
            <stop stop-color="#FFB300" />
            <stop offset="1" stop-color="#E3A000" />
        </linearGradient>
        <linearGradient id="paint2_linear_853_9226" x1="-1.82549" y1="27.5623" x2="6.63631" y2="39.0316"
            gradientUnits="userSpaceOnUse">
            <stop stop-color="#FFB300" />
            <stop offset="1" stop-color="#E3A000" />
        </linearGradient>
        <linearGradient id="paint3_linear_853_9226" x1="6.84642" y1="21.8643" x2="6.84642" y2="37.9471"
            gradientUnits="userSpaceOnUse">
            <stop stop-color="#FFD777" />
            <stop offset="1" stop-color="white" stop-opacity="0.78" />
        </linearGradient>
        <linearGradient id="paint4_linear_853_9226" x1="10.7988" y1="27.5349" x2="19.3038" y2="38.9852"
            gradientUnits="userSpaceOnUse">
            <stop stop-color="#FFB300" />
            <stop offset="1" stop-color="#E3A000" />
        </linearGradient>
        <linearGradient id="paint5_linear_853_9226" x1="18.989" y1="21.8652" x2="18.989" y2="37.9881"
            gradientUnits="userSpaceOnUse">
            <stop stop-color="#FFD777" />
            <stop offset="1" stop-color="white" stop-opacity="0.78" />
        </linearGradient>
        <linearGradient id="paint6_linear_853_9226" x1="26.8909" y1="7.31949" x2="35.4258" y2="18.7794"
            gradientUnits="userSpaceOnUse">
            <stop stop-color="#FFB300" />
            <stop offset="1" stop-color="#E3A000" />
        </linearGradient>
        <linearGradient id="paint7_linear_853_9226" x1="35.5101" y1="1.67383" x2="35.5101" y2="17.7264"
            gradientUnits="userSpaceOnUse">
            <stop stop-color="#FFD777" />
            <stop offset="1" stop-color="white" stop-opacity="0.78" />
        </linearGradient>
        <linearGradient id="paint8_linear_853_9226" x1="39.5204" y1="7.32142" x2="48.0199" y2="18.7755"
            gradientUnits="userSpaceOnUse">
            <stop stop-color="#FFB300" />
            <stop offset="1" stop-color="#E3A000" />
        </linearGradient>
        <linearGradient id="paint9_linear_853_9226" x1="47.671" y1="1.64258" x2="47.671" y2="17.7098"
            gradientUnits="userSpaceOnUse">
            <stop stop-color="#FFD777" />
            <stop offset="1" stop-color="white" stop-opacity="0.78" />
        </linearGradient>
        <linearGradient id="paint10_linear_853_9226" x1="26.8909" y1="46.8909" x2="35.3831" y2="58.3379"
            gradientUnits="userSpaceOnUse">
            <stop stop-color="#FFB300" />
            <stop offset="1" stop-color="#E3A000" />
        </linearGradient>
        <linearGradient id="paint11_linear_853_9226" x1="35.5473" y1="41.2012" x2="35.5473" y2="57.2561"
            gradientUnits="userSpaceOnUse">
            <stop stop-color="#FFD777" />
            <stop offset="1" stop-color="white" stop-opacity="0.78" />
        </linearGradient>
        <linearGradient id="paint12_linear_853_9226" x1="39.5191" y1="46.8318" x2="48.0412" y2="58.2676"
            gradientUnits="userSpaceOnUse">
            <stop stop-color="#FFB300" />
            <stop offset="1" stop-color="#E3A000" />
        </linearGradient>
        <linearGradient id="paint13_linear_853_9226" x1="47.6706" y1="41.1777" x2="47.6706" y2="57.2224"
            gradientUnits="userSpaceOnUse">
            <stop stop-color="#FFD777" />
            <stop offset="1" stop-color="white" stop-opacity="0.78" />
        </linearGradient>
        <clipPath id="clip0_853_9226">
            <rect width="53.235" height="58.2539" fill="white" transform="translate(0.671387 0.0957031)" />
        </clipPath>
    </defs>
</svg>