<svg viewBox="0 0 62 40" fill="none" xmlns="http://www.w3.org/2000/svg">
    <g clip-path="url(#clip0_853_9103)">
        <path
            d="M50.2861 39.085L4.35691 39.085C3.89373 39.085 3.44952 38.897 3.12201 38.5624C2.79449 38.2278 2.61049 37.774 2.61049 37.3008L2.61049 13.4815C2.61049 13.0083 2.79449 12.5545 3.12201 12.2199C3.44952 11.8854 3.89373 11.6974 4.35691 11.6974L50.2861 11.6974L50.2861 39.085Z"
            fill="url(#paint0_linear_853_9103)" />
        <path fill-rule="evenodd" clip-rule="evenodd"
            d="M48.8641 38.1555C48.5548 38.1311 48.2558 38.0314 47.9928 37.8651L36.6575 26.4287C36.468 26.1957 36.3713 25.8998 36.3863 25.5988C36.3933 25.3828 36.4607 25.1733 36.5807 24.9944C36.7007 24.8154 36.8684 24.6744 37.0644 24.5877C37.2604 24.5009 37.4767 24.4718 37.6883 24.5039C37.9 24.5359 38.0983 24.6278 38.2604 24.7688L49.5875 36.255C49.6962 36.3629 49.7815 36.4923 49.8381 36.6352C49.8947 36.778 49.9213 36.9312 49.9163 37.0849C49.9199 37.2385 49.8926 37.3913 49.8361 37.5339C49.7795 37.6765 49.695 37.8061 49.5875 37.9149C49.4642 37.8651 49.1518 38.1555 48.8641 38.1555Z"
            fill="#E89B00" />
        <path
            d="M20.2834 27.0093C20.4392 27.024 20.5963 27.0041 20.7437 26.9512C20.8928 26.8966 21.0276 26.8086 21.1383 26.694C21.2517 26.587 21.3366 26.4528 21.3849 26.3039C21.4393 26.1555 21.4617 25.997 21.4506 25.8391C21.4353 25.527 21.3066 25.2315 21.089 25.0092C20.8683 24.789 20.5765 24.6564 20.267 24.6357H2.12556C1.81884 24.6379 1.52529 24.7619 1.3084 24.9809C1.09151 25.1999 0.968705 25.4963 0.966553 25.8059C0.968763 26.1161 1.0895 26.4134 1.30357 26.6359C1.5239 26.852 1.81837 26.9739 2.12556 26.9761L20.2834 27.0093Z"
            fill="url(#paint1_linear_853_9103)" />
        <path
            d="M20.2917 30.9678H8.08505C7.93196 30.9678 7.7804 30.9986 7.63926 31.0584C7.49811 31.1183 7.37022 31.206 7.26305 31.3163C7.15558 31.4255 7.07049 31.555 7.01266 31.6974C6.95483 31.8398 6.92539 31.9924 6.92604 32.1463C6.92825 32.4564 7.04898 32.7537 7.26305 32.9762C7.48241 33.1938 7.77751 33.316 8.08505 33.3165H20.2917C20.4445 33.3187 20.5962 33.29 20.7378 33.2319C20.8794 33.1739 21.0081 33.0878 21.1161 32.9787C21.2242 32.8696 21.3095 32.7397 21.367 32.5967C21.4244 32.4537 21.4529 32.3006 21.4507 32.1463C21.4354 31.8341 21.3066 31.5386 21.089 31.3163C20.8711 31.1106 20.5893 30.9874 20.2917 30.9678Z"
            fill="url(#paint2_linear_853_9103)" />
        <path
            d="M61.0296 1.33987C61.0265 1.13582 60.962 0.937568 60.8445 0.77151C60.727 0.605452 60.5622 0.479472 60.372 0.410349C60.2494 0.258639 60.0801 0.152586 59.891 0.10899C59.7019 0.0653947 59.5038 0.0867488 59.3281 0.16967L48.8641 3.83795C48.5971 3.95718 48.3875 4.17784 48.2805 4.45209C48.1801 4.71944 48.1801 5.01467 48.2805 5.28202C48.5682 6.01235 49.1518 6.45222 49.7354 6.16174L55.8675 4.06203L49.2915 10.9587C48.4757 10.4318 47.5308 10.1445 46.5625 10.1288H3.68733C3.51501 10.1277 3.34417 10.161 3.18465 10.2268C3.02513 10.2927 2.88008 10.3897 2.75785 10.5123C2.63561 10.635 2.53861 10.7808 2.47241 10.9415C2.40622 11.1021 2.37214 11.2744 2.37214 11.4484C2.37431 11.7991 2.51384 12.1347 2.76025 12.382C3.00666 12.6292 3.33994 12.768 3.68733 12.768H46.5379C46.8185 12.7876 47.0951 12.8462 47.3599 12.9422L46.5379 13.7722C46.4204 13.8728 46.3252 13.9972 46.2584 14.1373C46.2549 14.1704 46.2549 14.2038 46.2584 14.2369L35.6382 24.9762C35.3827 25.2623 35.0685 25.4888 34.7176 25.6401C34.3672 25.7911 33.9888 25.8647 33.6079 25.8559C32.8437 25.84 32.1155 25.5245 31.5776 24.9762L26.3415 19.6978C24.9356 18.3268 23.0678 17.544 21.1136 17.5068H9.49061C9.19382 17.5173 8.91214 17.6416 8.70291 17.8543C8.49369 18.0671 8.37266 18.3524 8.36448 18.6521C8.36339 18.8061 8.39262 18.9588 8.45048 19.1013C8.50833 19.2437 8.59366 19.3732 8.70151 19.4821C8.80935 19.5909 8.93755 19.6771 9.07867 19.7355C9.21978 19.7939 9.37098 19.8234 9.52349 19.8223H21.0314C21.7008 19.8148 22.3653 19.9389 22.9877 20.1875C23.6027 20.442 24.1615 20.8172 24.6317 21.2913L29.8678 26.5696C30.8527 27.4981 32.1454 28.022 33.4928 28.0386C34.1743 28.0582 34.8529 27.9426 35.4903 27.6983C36.1393 27.442 36.7315 27.0584 37.2329 26.5696L49.086 14.6104C49.2065 14.9181 49.2786 15.2429 49.2998 15.5731V34.1967C49.2658 34.9252 48.9639 35.6147 48.4531 36.1304C47.9423 36.6461 47.2594 36.9509 46.5379 36.9852H3.43252C3.26116 36.9857 3.0916 37.0204 2.93359 37.0874C2.77559 37.1543 2.63226 37.2522 2.51188 37.3753C2.3896 37.4966 2.29248 37.6412 2.22618 37.8008C2.15988 37.9604 2.12573 38.1317 2.12573 38.3048C2.12573 38.4779 2.15988 38.6492 2.22618 38.8088C2.29248 38.9684 2.3896 39.113 2.51188 39.2343C2.63226 39.3574 2.77559 39.4553 2.93359 39.5222C3.0916 39.5892 3.26116 39.6239 3.43252 39.6244H46.5379C47.2517 39.6288 47.959 39.4877 48.6175 39.2094C49.2695 38.9219 49.8589 38.5073 50.3519 37.9894C50.8406 37.4639 51.218 36.8432 51.4611 36.1654C51.7042 35.4876 51.8078 34.7669 51.7657 34.0473V15.4237C51.7578 14.3924 51.4521 13.3859 50.8862 12.5273L57.2978 5.88787L55.736 11.4982C55.7113 11.7853 55.7842 12.0724 55.9425 12.3122C56.1009 12.552 56.3353 12.7303 56.6073 12.8178C56.8824 12.8885 57.1735 12.8591 57.4293 12.7348C57.6991 12.6003 57.9099 12.3697 58.0211 12.0874L60.8241 2.1366C60.974 1.93302 61.0521 1.68472 61.0461 1.43116C61.0461 1.43116 61.0296 1.37306 61.0296 1.33987Z"
            fill="url(#paint3_linear_853_9103)" />
        <path opacity="0.42" fill-rule="evenodd" clip-rule="evenodd"
            d="M41.7096 15.8449H36.6523C36.3447 15.8434 36.0504 15.7552 35.833 15.5995C35.6155 15.4438 35.4924 15.233 35.4902 15.0128C35.4924 14.7931 35.6158 14.583 35.8335 14.4282C36.0512 14.2734 36.3455 14.1865 36.6523 14.1865H41.7096C42.0178 14.1963 42.3097 14.2883 42.528 14.4444C42.7427 14.6022 42.8706 14.8103 42.888 15.0304C42.8906 15.1412 42.8599 15.2511 42.798 15.3527C42.7433 15.4538 42.6598 15.5456 42.5527 15.6223C42.4456 15.699 42.3173 15.7588 42.1761 15.798C42.0265 15.8356 41.8679 15.8516 41.7096 15.8449Z"
            fill="white" />
    </g>
    <defs>
        <linearGradient id="paint0_linear_853_9103" x1="50.2861" y1="25.387" x2="2.61865" y2="25.387"
            gradientUnits="userSpaceOnUse">
            <stop stop-color="#FFD777" />
            <stop offset="1" stop-color="white" stop-opacity="0.45" />
        </linearGradient>
        <linearGradient id="paint1_linear_853_9103" x1="0.966553" y1="25.8391" x2="21.4506" y2="25.8391"
            gradientUnits="userSpaceOnUse">
            <stop stop-color="#FFB300" />
            <stop offset="1" stop-color="#E3A000" />
        </linearGradient>
        <linearGradient id="paint2_linear_853_9103" x1="6.92604" y1="32.1463" x2="21.4507" y2="32.1463"
            gradientUnits="userSpaceOnUse">
            <stop stop-color="#FFB300" />
            <stop offset="1" stop-color="#E3A000" />
        </linearGradient>
        <linearGradient id="paint3_linear_853_9103" x1="2.08445" y1="19.8555" x2="61.0461" y2="19.8555"
            gradientUnits="userSpaceOnUse">
            <stop stop-color="#FFB300" />
            <stop offset="1" stop-color="#E3A000" />
        </linearGradient>
        <clipPath id="clip0_853_9103">
            <rect width="60.0795" height="39.546" fill="white" transform="translate(0.966553 0.078125)" />
        </clipPath>
    </defs>
</svg>