<svg  viewBox="0 0 477 429" preserveAspectRatio="xMidYMid" fill="none" xmlns="http://www.w3.org/2000/svg">
<path d="M357.159 170.562C357.159 170.562 361.578 192.895 380.093 233.831C388.734 290.527 435.639 298.322 450.081 314.182C464.522 330.042 453.277 352.103 453.277 352.103C453.277 352.103 440.959 374.869 413.297 365.283C327.214 331.191 304.885 219.65 304.885 219.65L357.159 170.562Z" fill="#FFB41D"/>
<path d="M413.186 365.629C393.498 357.835 375.538 345.298 359.788 328.4C346.479 313.842 335.262 297.5 326.461 279.843C316.728 260.771 309.353 240.583 304.502 219.725V219.527L357.381 169.871L357.505 170.501C357.505 170.723 362.133 193.266 380.414 233.683V233.769C386.685 274.717 413.124 290.17 432.429 301.447C439.835 305.795 446.303 309.55 450.303 313.948C464.744 329.796 453.66 352.042 453.549 352.24C453.438 352.437 444.797 367.952 426.208 367.952C421.768 367.911 417.366 367.126 413.186 365.629ZM356.937 171.255L305.267 219.774C310.125 240.498 317.464 260.559 327.127 279.522C342.014 308.809 369.095 347.398 413.433 364.975C440.465 374.325 452.845 352.153 452.932 351.943C453.018 351.733 463.905 329.907 449.796 314.417C445.859 310.106 439.477 306.376 432.084 302.065C412.667 290.713 386.067 275.186 379.735 233.942C363.121 197.145 357.752 175.133 356.937 171.255Z" fill="black"/>
<path d="M433.048 329.462C433.231 329.462 433.406 329.391 433.537 329.264C433.669 329.138 433.746 328.965 433.752 328.782L434.184 313.293L448.367 307.623C448.496 307.575 448.607 307.49 448.687 307.377C448.766 307.265 448.81 307.131 448.811 306.993L449.255 291.034C449.259 290.849 449.189 290.671 449.062 290.537C448.935 290.403 448.761 290.324 448.577 290.318C448.391 290.314 448.211 290.383 448.075 290.51C447.939 290.637 447.858 290.811 447.848 290.997L447.416 306.487L433.258 312.169C433.13 312.221 433.02 312.31 432.941 312.424C432.862 312.538 432.818 312.672 432.814 312.811L432.37 328.758C432.366 328.85 432.381 328.941 432.414 329.027C432.446 329.113 432.496 329.192 432.559 329.258C432.622 329.325 432.698 329.379 432.782 329.416C432.866 329.453 432.957 329.473 433.048 329.474V329.462Z" fill="#57A4DD"/>
<path d="M426.258 323.829C426.347 323.831 426.436 323.815 426.519 323.782C426.602 323.75 426.677 323.701 426.742 323.639C426.806 323.577 426.857 323.503 426.893 323.421C426.928 323.339 426.948 323.251 426.949 323.162L427.727 307.685L441.996 302.435C442.124 302.389 442.236 302.305 442.318 302.196C442.399 302.086 442.446 301.954 442.452 301.817L443.341 285.871C443.353 285.684 443.29 285.5 443.166 285.36C443.042 285.22 442.867 285.135 442.681 285.123C442.494 285.112 442.311 285.175 442.171 285.299C442.031 285.423 441.946 285.598 441.934 285.784L441.07 301.274L426.801 306.524C426.672 306.57 426.56 306.653 426.479 306.763C426.398 306.873 426.351 307.005 426.344 307.141L425.542 323.088C425.537 323.182 425.551 323.275 425.582 323.363C425.614 323.451 425.663 323.532 425.726 323.601C425.789 323.67 425.866 323.726 425.95 323.765C426.035 323.804 426.127 323.826 426.221 323.829H426.258Z" fill="#57A4DD"/>
<path d="M463.633 343.42L395.51 392.322L408.273 410.134L476.396 361.232L463.633 343.42Z" fill="white"/>
<path d="M265.338 194.101L272.598 188.306C274.782 186.743 275.812 184.377 274.248 182.21C273.877 181.691 273.409 181.251 272.868 180.913C272.327 180.576 271.726 180.349 271.097 180.245C270.469 180.141 269.826 180.161 269.206 180.306C268.586 180.451 268 180.716 267.483 181.088L259.138 187.143C256.971 188.706 256.245 191.175 257.818 193.333L258.135 193.514C259.645 195.649 263.163 195.655 265.338 194.101Z" fill="#FFB300"/>
<path d="M300.543 154.708C300.543 154.708 331.223 174.689 322.163 184.77C313.351 194.625 270.762 216.313 250.012 211.278C248.857 210.998 247.684 210.801 246.501 210.686C229.371 209.465 229.845 194.537 237.984 187.427C238.333 187.142 238.655 186.826 238.947 186.483C243.721 180.819 269.768 172.195 273.173 170.572C276.578 168.949 284.038 165.338 284.038 165.338L300.543 154.708Z" fill="#FFBA14"/>
<path d="M232.732 202.622C231.038 197.593 233.091 191.244 237.732 187.189C238.049 186.924 238.346 186.636 238.622 186.328C242.355 181.885 258.795 175.721 267.629 172.4C270.188 171.364 272.201 170.686 272.965 170.322C276.251 168.759 283.405 165.29 283.821 165.08L300.486 154.362L300.653 154.509C301.548 155.1 322.65 168.948 324.039 179.481C324.204 180.486 324.139 181.514 323.849 182.49C323.56 183.466 323.054 184.363 322.369 185.116C313.311 195.231 270.856 216.823 249.866 211.725C248.732 211.443 247.579 211.246 246.416 211.138C245.008 211.045 243.609 210.832 242.237 210.5C237.346 209.251 234.041 206.538 232.732 202.622ZM284.184 165.696C284.135 165.751 276.682 169.336 273.309 170.922C272.511 171.305 270.589 172.029 267.914 173.029C259.148 176.329 242.828 182.45 239.209 186.746C238.9 187.096 238.567 187.424 238.213 187.728C233.787 191.593 231.81 197.632 233.409 202.396C235.008 207.159 239.625 209.877 246.516 210.37C247.714 210.486 248.902 210.686 250.071 210.968C270.421 215.897 313.126 194.377 321.897 184.568C322.511 183.893 322.965 183.087 323.226 182.212C323.487 181.337 323.547 180.415 323.403 179.513C322.091 169.788 302.667 156.595 300.52 155.165L284.184 165.696Z" fill="black"/>
<path d="M272.41 171.002L284.848 205.443L285.51 205.205L273.072 170.763L272.41 171.002Z" fill="black"/>
<path d="M260.597 195.711C261.484 195.924 262.407 195.94 263.301 195.759C264.194 195.577 265.037 195.202 265.77 194.659L275.457 186.595L275.002 186.046L265.341 194.1C264.267 194.927 262.916 195.309 261.568 195.166C260.219 195.023 258.978 194.366 258.1 193.332C258.021 193.198 257.922 193.077 257.806 192.974C255.603 189.701 259.197 187.077 259.348 186.963L266.531 181.891L266.127 181.321L258.952 186.384C258.911 186.431 254.558 189.505 257.247 193.403L257.322 193.468C257.415 193.523 257.497 193.595 257.563 193.681C258.322 194.674 259.389 195.388 260.597 195.711Z" fill="black"/>
<path d="M403.841 203.259C403.841 203.259 394.362 223.986 385.585 268.022C359.664 319.148 393.115 352.807 395.596 374.164C398.077 395.521 376.106 406.848 376.106 406.848C376.106 406.848 352.814 418.2 335.891 394.274C286.11 316.393 332.879 212.696 332.879 212.696L403.841 203.259Z" fill="#FFC01F"/>
<path d="M335.595 394.46C324.215 376.66 316.969 356.007 314.068 333.094C311.757 313.516 312.172 293.711 315.303 274.248C318.521 253.077 324.295 232.376 332.497 212.598L332.583 212.412L404.361 202.827L404.101 203.408C404.003 203.618 394.535 224.617 385.87 268.096V268.183C367.133 305.079 379.587 333.057 388.672 353.487C392.19 361.381 395.226 368.187 395.918 374.128C398.386 395.473 376.464 407.059 376.168 407.17C371.981 408.952 367.474 409.86 362.924 409.838C354.863 409.838 344.347 406.837 335.595 394.46ZM403.262 203.692L333.127 213.067C324.996 232.736 319.269 253.316 316.068 274.359C311.131 306.821 310.526 353.944 336.175 394.065C352.728 417.46 375.674 406.652 375.946 406.54C376.217 406.429 397.67 395.065 395.251 374.202C394.572 368.384 391.548 361.615 388.067 353.772C378.921 333.217 366.392 305.091 385.253 267.911C393.14 228.347 401.694 207.348 403.262 203.692Z" fill="black"/>
<path d="M373.453 376.908C373.561 376.907 373.668 376.881 373.765 376.832C373.861 376.782 373.945 376.711 374.008 376.623L383.39 364.271L398.263 367.977C398.397 368.008 398.536 368 398.665 367.954C398.795 367.908 398.908 367.826 398.992 367.717L408.656 354.958C408.712 354.884 408.753 354.8 408.777 354.71C408.8 354.621 408.806 354.527 408.793 354.435C408.781 354.344 408.75 354.255 408.703 354.175C408.656 354.095 408.594 354.025 408.521 353.97C408.447 353.914 408.363 353.873 408.273 353.849C408.184 353.826 408.091 353.82 407.999 353.833C407.907 353.845 407.819 353.876 407.739 353.923C407.659 353.969 407.589 354.032 407.533 354.105L398.152 366.458L383.278 362.752C383.145 362.721 383.005 362.729 382.876 362.775C382.747 362.821 382.634 362.903 382.55 363.011L372.898 375.685C372.839 375.757 372.796 375.84 372.771 375.93C372.745 376.019 372.738 376.113 372.749 376.205C372.761 376.297 372.791 376.386 372.838 376.467C372.884 376.547 372.947 376.617 373.021 376.673C373.133 376.799 373.286 376.882 373.453 376.908Z" fill="#57A4DD"/>
<path d="M371.242 368.309C371.346 368.31 371.449 368.287 371.544 368.242C371.638 368.197 371.72 368.131 371.785 368.05L381.413 356.006L396.127 360.046C396.258 360.079 396.396 360.075 396.525 360.034C396.654 359.992 396.768 359.915 396.855 359.811L406.865 347.459C406.983 347.312 407.039 347.125 407.021 346.938C407.002 346.751 406.911 346.578 406.767 346.458C406.694 346.399 406.61 346.354 406.521 346.328C406.431 346.301 406.336 346.293 406.243 346.303C406.15 346.313 406.06 346.342 405.978 346.388C405.896 346.434 405.825 346.495 405.767 346.569L396.016 358.563L381.315 354.524C381.182 354.486 381.041 354.488 380.909 354.53C380.777 354.572 380.661 354.651 380.574 354.759L370.699 367.111C370.64 367.183 370.596 367.265 370.57 367.354C370.543 367.443 370.535 367.536 370.545 367.629C370.556 367.721 370.584 367.81 370.63 367.891C370.675 367.972 370.737 368.043 370.81 368.099C370.922 368.221 371.077 368.297 371.242 368.309Z" fill="#57A4DD"/>
<path d="M389.671 405.972H305.908V428.033H389.634L389.671 405.972Z" fill="white"/>
<path d="M407.027 246.702L429.085 151.997C430.118 147.558 429.358 142.89 426.97 139.009C424.583 135.127 420.76 132.346 416.334 131.27L328.004 109.345C325.771 108.78 323.446 108.668 321.169 109.016C318.891 109.363 316.706 110.163 314.741 111.368C312.777 112.573 311.073 114.159 309.73 116.032C308.388 117.906 307.433 120.029 306.922 122.278L284.926 216.809C283.889 221.25 284.647 225.921 287.035 229.806C289.423 233.69 293.248 236.473 297.677 237.549L385.92 259.61C388.153 260.158 390.472 260.258 392.745 259.905C395.017 259.552 397.197 258.753 399.158 257.553C401.12 256.353 402.826 254.776 404.176 252.914C405.527 251.052 406.496 248.94 407.027 246.702Z" fill="white"/>
<path d="M385.772 259.944L297.541 237.883C293.015 236.801 289.103 233.967 286.662 230.003C284.221 226.039 283.45 221.268 284.519 216.736L306.576 122.204C307.103 119.896 308.086 117.716 309.468 115.794C310.851 113.872 312.604 112.246 314.624 111.013C316.625 109.789 318.852 108.98 321.172 108.635C323.492 108.289 325.857 108.413 328.128 109L416.445 130.888C420.971 131.97 424.883 134.804 427.324 138.768C429.765 142.732 430.536 147.503 429.467 152.035L407.373 246.703C406.867 248.973 405.909 251.118 404.556 253.009C403.203 254.9 401.482 256.498 399.498 257.708C397.475 258.98 395.217 259.829 392.858 260.205C390.499 260.581 388.089 260.475 385.772 259.895V259.944ZM314.994 111.619C313.053 112.801 311.369 114.361 310.042 116.207C308.714 118.053 307.771 120.147 307.267 122.365L285.21 216.897C284.689 219.047 284.603 221.28 284.954 223.464C285.306 225.649 286.09 227.741 287.259 229.619C288.415 231.51 289.932 233.152 291.724 234.454C293.516 235.756 295.547 236.69 297.701 237.204L385.932 259.265C388.16 259.816 390.476 259.915 392.743 259.554C395.009 259.193 397.18 258.381 399.127 257.165C401.031 256 402.681 254.463 403.979 252.647C405.277 250.83 406.196 248.771 406.682 246.591L428.739 151.874C429.26 149.724 429.346 147.491 428.995 145.307C428.643 143.122 427.859 141.03 426.69 139.152C425.534 137.262 424.017 135.619 422.225 134.317C420.433 133.015 418.402 132.081 416.248 131.567L327.918 109.692C326.543 109.338 325.129 109.16 323.709 109.16C320.633 109.159 317.617 110.009 314.994 111.619Z" fill="black"/>
<path d="M365.564 180.667C373.81 209.546 349.802 230.286 334.706 249.147C327.176 246.677 318.931 261.117 337.174 269.887C359.763 273.691 372.427 260.4 382.968 250.395C393.51 240.39 400.509 219.514 400.509 219.514C400.509 219.514 406.446 206.582 404.594 182.742C402.743 158.902 379.426 132.505 379.426 132.505C379.426 132.505 368.712 122.5 355.603 130.566C349.308 134.37 347.975 140.448 348.419 145.981C348.834 151.409 351.085 156.532 354.801 160.508C359.982 166.245 363.678 173.167 365.564 180.667Z" fill="#FFBA14"/>
<path d="M337.163 270.233H337.064C326.338 265.082 324.721 257.943 326.498 253.385C327.93 249.802 331.436 247.863 334.62 248.777C336.953 245.862 339.459 242.947 342.1 239.871C356.172 223.505 372.12 204.951 365.22 180.778C363.345 173.365 359.698 166.519 354.592 160.829C350.815 156.802 348.533 151.601 348.124 146.093C347.556 139.04 350.099 133.605 355.468 130.344C368.651 122.241 379.612 132.234 379.748 132.357C379.884 132.481 403.052 159.125 404.99 182.804C406.928 206.483 400.954 219.527 400.954 219.675C400.954 219.824 393.992 240.674 383.327 250.642L381.896 252.013C372.959 260.549 362.146 270.9 344.976 270.9C342.358 270.898 339.744 270.674 337.163 270.233ZM355.826 130.912C350.63 134.062 348.272 139.139 348.828 146.007C349.225 151.357 351.442 156.41 355.11 160.323C360.292 166.099 363.998 173.046 365.911 180.568C372.897 205.075 356.826 223.801 342.644 240.291C339.94 243.429 337.385 246.406 335.015 249.37L334.867 249.568L334.633 249.481C331.707 248.518 328.461 250.297 327.153 253.619C325.437 257.881 327.078 264.6 337.336 269.541C358.702 273.123 371.256 261.142 381.352 251.507L382.784 250.136C393.313 240.254 400.164 219.663 400.238 219.416C400.312 219.169 406.113 206.286 404.287 182.816C402.46 159.347 379.452 133.061 379.242 132.814C375.552 129.722 370.92 127.98 366.108 127.874C362.464 127.9 358.9 128.953 355.826 130.912Z" fill="black"/>
<path d="M353.513 226.789L353.053 227.338L382.027 251.702L382.487 251.153L353.513 226.789Z" fill="#0C0801"/>
<path d="M319.155 25.387C319.97 14.4676 324.512 6.30275 332.054 2.37474C339.596 -1.55328 348.804 -0.565099 358.209 5.01812C367.368 10.3296 375.564 19.5444 381.415 30.7849L378.107 32.5019C366.862 10.8978 347.088 -1.17036 333.806 5.74689C320.525 12.6641 318.994 35.7258 330.35 57.4163L327.042 59.1333C321.117 47.9422 318.34 35.8987 319.155 25.387Z" fill="#F7AA00"/>
<path d="M341.839 58.2069C339.198 41.8031 333.594 29.1421 329.249 29.7967C324.904 30.4514 323.509 44.2736 326.039 60.6774C328.57 77.0811 334.285 89.7545 338.63 89.0875C342.975 88.4205 344.456 74.5366 341.839 58.2069Z" fill="white"/>
<path d="M337.36 42.6674C336.606 40.0924 335.691 37.5676 334.62 35.1078C334.094 33.9098 333.409 32.788 332.583 31.7727C332.187 31.2293 331.677 30.7784 331.09 30.451C330.846 30.2546 330.565 30.1096 330.264 30.0247C329.963 29.9398 329.647 29.9167 329.337 29.9569C328.713 30.1095 328.16 30.4713 327.77 30.9821C327.384 31.5032 327.037 32.0524 326.733 32.625C326.219 33.8663 325.855 35.1641 325.646 36.4913C325.194 39.1633 325 41.8727 325.066 44.582C325.153 47.2377 325.276 49.9675 325.474 52.6603C325.671 55.3531 326.078 58.0336 326.56 60.6893C327.041 63.345 327.486 66.0996 328.078 68.5824C328.655 71.2086 329.372 73.8022 330.226 76.3519C330.999 78.947 332.037 81.4554 333.324 83.8374C333.937 84.9939 334.669 86.0828 335.509 87.086C335.967 87.5696 336.467 88.0119 337.002 88.4077C337.497 88.7563 338.107 88.9021 338.706 88.8153C339.308 88.6877 339.84 88.3397 340.199 87.8395C340.562 87.3114 340.872 86.7487 341.125 86.1596C341.558 84.9334 341.868 83.6673 342.051 82.3798C342.314 79.7452 342.401 77.0959 342.31 74.4497C341.963 69.1477 341.349 63.8666 340.471 58.6265C339.508 53.1297 338.632 47.9912 337.36 42.6674ZM344.26 74.3385C344.099 77.0901 343.72 79.8245 343.125 82.5157C342.792 83.7509 342.335 85.2208 341.89 86.4684C341.587 87.1196 341.197 87.7263 340.73 88.2718C340.264 88.874 339.599 89.2901 338.854 89.4453C338.123 89.5219 337.389 89.3382 336.78 88.9265C336.217 88.5234 335.703 88.0549 335.25 87.5307C334.355 86.4928 333.592 85.3476 332.978 84.1215C331.695 81.7076 330.645 79.1762 329.843 76.5619C328.134 71.4223 326.83 66.1565 325.943 60.8128C325.031 55.4656 324.646 50.0415 324.795 44.619C324.786 41.8957 325.009 39.1766 325.461 36.4913C325.596 35.131 325.946 33.8009 326.498 32.5509C326.81 31.9167 327.161 31.3021 327.547 30.7104C328.001 30.0827 328.668 29.6431 329.424 29.4752C330.174 29.3795 330.934 29.55 331.571 29.9569C332.206 30.2769 332.756 30.7425 333.176 31.3157C334.136 32.3005 334.966 33.4048 335.645 34.6014C337.025 36.9748 338.218 39.4528 339.212 42.0127C341.168 47.134 342.623 52.4333 343.557 57.8359C344.199 63.3118 344.435 68.8278 344.26 74.3385Z" fill="#0B1B32"/>
<path d="M334.791 62.839C338.617 60.3686 341.271 57.5893 340.703 56.7741C340.135 55.9588 336.568 57.0829 332.705 59.5039C328.841 61.925 326.224 64.7536 326.792 65.5689C327.348 66.5818 331.001 65.223 334.791 62.839Z" fill="#0B1B32"/>
<path d="M353.159 54.6121C350.505 38.2083 344.914 25.5349 340.569 26.2019C336.224 26.8689 334.829 40.6911 337.347 57.0825C339.865 73.474 345.593 86.1474 349.95 85.4927C354.307 84.838 355.887 70.9664 353.159 54.6121Z" fill="white"/>
<path d="M348.629 39.184C347.875 36.609 346.96 34.0842 345.889 31.6244C345.363 30.4264 344.678 29.3046 343.852 28.2893C343.424 27.7756 342.921 27.33 342.359 26.9676C341.854 26.5952 341.231 26.4195 340.606 26.4735C340.288 26.5275 339.985 26.6464 339.716 26.8228C339.446 26.9992 339.215 27.2293 339.039 27.4988C338.653 28.0198 338.306 28.569 338.002 29.1416C337.488 30.3829 337.124 31.6807 336.915 33.0079C336.463 35.6799 336.269 38.3893 336.335 41.0986C336.422 43.7543 336.545 46.4841 336.743 49.1769C336.969 51.8699 337.331 54.5497 337.829 57.2059C338.236 59.8863 338.755 62.6162 339.347 65.099C339.924 67.7253 340.641 70.3188 341.495 72.8685C342.317 75.4457 343.354 77.9496 344.593 80.354C345.206 81.5105 345.938 82.5993 346.778 83.6026C347.239 84.0832 347.738 84.5253 348.271 84.9243C348.767 85.2717 349.376 85.4174 349.975 85.3319C350.577 85.2043 351.109 84.8563 351.468 84.3561C351.831 83.8279 352.141 83.2652 352.394 82.6762C352.827 81.45 353.137 80.1839 353.32 78.8964C353.581 76.2617 353.672 73.6128 353.591 70.9663C353.295 65.6178 352.542 60.3187 351.74 55.1431C350.851 49.6093 349.901 44.3102 348.629 39.184ZM355.529 70.8551C355.369 73.6067 354.989 76.3411 354.394 79.0323C354.061 80.2675 353.604 81.7498 353.159 82.985C352.857 83.6362 352.466 84.243 351.999 84.7885C351.533 85.3906 350.868 85.8067 350.123 85.9619C349.392 86.0385 348.658 85.8548 348.049 85.4431C347.49 85.0396 346.98 84.5711 346.531 84.0473C345.628 83.0128 344.861 81.8671 344.247 80.6381C342.964 78.2241 341.914 75.6927 341.112 73.0785C339.409 67.9372 338.104 62.6718 337.212 57.3294C336.298 51.9825 335.917 46.5579 336.076 41.1356C336.069 38.4113 336.3 35.6917 336.767 33.0079C336.9 31.6459 337.254 30.3148 337.817 29.0675C338.125 28.4336 338.471 27.8189 338.853 27.227C339.307 26.5993 339.974 26.1597 340.73 25.9918C341.48 25.8961 342.24 26.0666 342.877 26.4735C343.514 26.7898 344.065 27.2561 344.482 27.8323C345.442 28.8171 346.272 29.9214 346.951 31.118C348.383 33.4843 349.621 35.9629 350.654 38.5293C352.617 43.6483 354.073 48.9482 354.999 54.3525C355.609 59.8308 355.787 65.3489 355.529 70.8551Z" fill="#0B1B32"/>
<path d="M345.544 57.3302C349.371 54.8598 352.012 52.0805 351.457 51.2653C350.901 50.45 347.322 51.5741 343.458 53.9951C339.595 56.4162 336.978 59.2572 337.533 60.0724C338.089 60.8877 341.705 59.7513 345.544 57.3302Z" fill="#0B1B32"/>
<path d="M382.808 50.7332C382.751 50.0228 382.415 49.3638 381.874 48.9007C381.332 48.4376 380.629 48.2082 379.919 48.2628L353.998 50.5603L354.393 55.9459L380.314 53.636C381.026 53.573 381.685 53.2343 382.151 52.692C382.617 52.1498 382.852 51.4469 382.808 50.7332Z" fill="#0B1B32"/>
<path d="M395.694 39.6168C390.621 29.8708 379.03 26.0293 369.773 30.859C360.515 35.6888 357.059 47.4851 362.083 57.1446C367.106 66.804 378.746 70.7321 388.004 65.9023C397.261 61.0726 400.73 49.2762 395.694 39.6168Z" fill="#0B1B32"/>
<path d="M371.552 38.7155C370.96 40.6301 370.466 42.4212 370.022 44.2123C369.618 46.0114 369.435 47.8533 369.479 49.6967C369.509 51.5188 369.904 53.3163 370.639 54.9835C371.403 56.6539 372.489 58.1566 373.836 59.4056L373.453 60.0108C371.613 59.0864 370.037 57.7093 368.874 56.0087L368.133 54.5882C367.9 54.1065 367.706 53.6067 367.553 53.0936C367.269 52.073 367.091 51.0257 367.022 49.9685C366.924 47.8616 367.269 45.7575 368.034 43.7923C368.36 42.8395 368.744 41.9073 369.182 41.0007C369.615 40.0915 370.19 39.2574 370.886 38.5303L371.552 38.7155Z" fill="white"/>
<path d="M18.0605 329.029C17.1799 328.845 16.2719 328.831 15.386 328.988C14.3645 329.276 12.8745 334.237 12.0706 336.914C10.7511 340.518 8.58464 343.757 5.75156 346.361C2.71888 349.115 0.254917 353.253 0.167489 360.278C0.0800588 367.303 2.65057 370.143 3.46419 370.812C4.27781 371.482 6.38717 371.231 6.38717 371.231L18.0605 329.029Z" fill="#1E314C"/>
<path opacity="0.1" d="M6.0695 359.48C6.40577 350.821 10.7574 346.955 13.6073 343.521C14.0946 341.687 14.386 339.808 14.4766 337.913C13.2957 341.292 11.8262 342.927 8.75158 346.429C5.67691 349.93 1.99848 354.332 2.63581 363.178C2.66766 364.705 3.01748 366.21 3.6632 367.596C4.30892 368.982 5.23654 370.221 6.3876 371.233C9.33277 371.531 10.7762 370.926 11.9506 369.296C9.06589 371.688 5.72321 368.129 6.0695 359.48Z" fill="black"/>
<path d="M24.8102 335.322C21.9204 334.732 19.56 332.785 20.0778 330.195C20.5956 327.604 23.3759 326.05 26.2354 326.629C27.5627 326.824 28.7591 327.531 29.5639 328.599C30.3687 329.666 30.7166 331.006 30.5319 332.326C30.0344 334.917 27.7001 335.912 24.8102 335.322Z" fill="white"/>
<path opacity="0.15" d="M24.8153 335.325C26.9142 335.752 28.7108 335.334 29.7368 334.096C27.7346 335.319 23.4892 334.243 23.515 330.574C23.5656 327.279 26.0461 326.7 27.4445 327.045C27.0671 326.878 26.6738 326.75 26.2704 326.663C23.3805 326.083 20.6097 327.678 20.1128 330.228C19.616 332.778 21.9254 334.735 24.8153 335.325Z" fill="black"/>
<path d="M38.0285 330.585C32.3488 331.509 29.4604 330.16 26.1215 329.007C23.5315 327.994 20.6503 328 18.0654 329.025C15.4007 332.321 14.9034 339.542 11.5798 344.02C9.80385 346.409 4.55743 350.251 5.05659 355.506C5.55576 360.761 6 371 6 371C10.5 371 17 363 20.8184 355.111C26.6091 349.599 29.1114 344.956 36.7123 345.437L38.0285 330.585Z" fill="#1E314C"/>
<path d="M11.8938 346.156C15.229 342.244 18.1542 335.889 20.6316 336.18C23.109 336.471 26.7101 333.129 26.7101 333.129C26.7101 333.129 29.7138 330.941 30.5333 339.183C30.9737 343.628 32.1296 345.192 33.0982 345.703C34.2776 345.472 35.4833 345.402 36.6818 345.495L38.0285 330.644C32.3488 331.568 29.4604 330.219 26.1215 329.066C23.5315 328.052 20.6503 328.059 18.0654 329.084C15.4007 332.379 14.9034 339.6 11.5798 344.079C10.8118 345.078 9.37721 346.431 8.06123 348.008C9.51356 347.842 10.8654 347.189 11.8938 346.156Z" fill="#1E314C"/>
<path d="M240.221 203.914C241.424 205.074 243.729 206.345 248.469 207.281C253.21 208.217 261.206 208.837 265.836 207.342C270.465 205.847 272.224 203.518 273.184 200.497C274.145 197.476 273.933 195.991 275.095 193.825C276.813 190.774 276.035 189.136 272.79 190.164C269.545 191.191 265.057 192.686 262.055 192.889C260.129 192.99 258.198 192.833 256.314 192.421C255.545 191.699 260.458 190.723 262.106 188.221C263.753 185.719 262.611 184.376 261.772 184.478C260.933 184.58 259.013 185.861 255.99 186.655C252.968 187.448 248.045 188.689 245.285 189.624C242.526 190.56 240.807 191.659 239.483 196.836C238.159 202.012 238.836 202.582 240.221 203.914Z" fill="#74B7F5"/>
<path opacity="0.8" d="M240.221 203.914C241.424 205.074 243.729 206.345 248.469 207.281C253.21 208.217 261.206 208.837 265.836 207.342C270.465 205.847 272.224 203.518 273.184 200.497C274.145 197.476 273.933 195.991 275.095 193.825C276.813 190.774 276.035 189.136 272.79 190.164C269.545 191.191 265.057 192.686 262.055 192.889C260.129 192.99 258.198 192.833 256.314 192.421C255.545 191.699 260.458 190.723 262.106 188.221C263.753 185.719 262.611 184.376 261.772 184.478C260.933 184.58 259.013 185.861 255.99 186.655C252.968 187.448 248.045 188.689 245.285 189.624C242.526 190.56 240.807 191.659 239.483 196.836C238.159 202.012 238.836 202.582 240.221 203.914Z" fill="white"/>
<path opacity="0.1" d="M273.184 200.486C274.195 197.435 273.932 195.98 275.094 193.814C275.718 192.926 276.012 191.846 275.923 190.763C275.579 192.797 273.78 193 271.435 196.53C268.908 200.344 268.483 202.439 263.823 203.313C260.659 203.903 255.292 203.425 248.054 201.167L239.462 196.947C238.178 202.032 238.846 202.601 240.22 203.924C241.423 205.083 243.728 206.354 248.469 207.29C253.21 208.226 261.205 208.846 265.835 207.351C270.465 205.856 272.223 203.537 273.184 200.486Z" fill="black"/>
<path d="M230.994 202.328C230.994 202.328 242.113 204.474 246.399 204.209C251.009 203.924 253.475 200.405 251.12 197.639C248.765 194.872 243.62 192.94 243.62 192.94L233.875 189.889L230.994 202.328Z" fill="#1E314C"/>
<path d="M190.328 188.404C188.245 192.605 191.439 196.459 198.414 197.873C205.389 199.287 234.612 203.284 234.612 203.284C235.724 203.467 237.079 202.063 238.009 197.588C238.868 193.469 238.009 190.54 236.634 190.265C236.634 190.265 211.505 182.342 208.533 181.163C202.316 178.722 193.178 182.637 190.328 188.404Z" fill="#74B7F5"/>
<path opacity="0.8" d="M190.328 188.404C188.245 192.605 191.439 196.459 198.414 197.873C205.389 199.287 234.612 203.284 234.612 203.284C235.724 203.467 237.079 202.063 238.009 197.588C238.868 193.469 238.009 190.54 236.634 190.265C236.634 190.265 211.505 182.342 208.533 181.163C202.316 178.722 193.178 182.637 190.328 188.404Z" fill="white"/>
<path opacity="0.1" d="M237.251 200.212C228.901 199.072 214.113 196.845 207.158 194.485C197.161 191.088 197.05 188.658 197.868 185.332L198.647 181.538C195.038 182.891 191.824 185.393 190.328 188.414C188.245 192.614 191.439 196.469 198.414 197.883C205.389 199.296 234.612 203.293 234.612 203.293C235.411 203.426 236.412 202.622 237.251 200.212Z" fill="black"/>
<path d="M188.709 184.773L192.156 190.092C192.156 190.092 195.188 192.228 199.697 189.075C204.023 186.024 203.983 182.8 203.983 182.8L200.738 174.928L188.709 184.773Z" fill="#1E314C"/>
<path d="M169.563 130.857C176.588 128.284 180.48 130.857 184.109 136.899C186.99 141.689 201.98 176.432 201.98 176.432C203.153 180.663 192.579 189.654 188.01 185.789C188.01 185.789 167.935 160.363 164.418 152.796C160.02 143.306 163.589 133.044 169.563 130.857Z" fill="white"/>
<path opacity="0.8" d="M169.563 130.857C176.588 128.284 180.48 130.857 184.109 136.899C186.99 141.689 201.98 176.432 201.98 176.432C203.153 180.663 192.579 189.654 188.01 185.789C188.01 185.789 167.935 160.363 164.418 152.796C160.02 143.306 163.589 133.044 169.563 130.857Z" fill="white"/>
<path opacity="0.1" d="M195.541 185.23C192.843 186.796 189.911 187.417 188.011 185.83C188.011 185.83 167.935 160.403 164.418 152.836C164.337 152.663 164.276 152.48 164.195 152.307L167.066 150.67L167.157 151.087C168.512 156.935 172.009 162.376 178.731 156.488C179.217 156.055 179.652 155.567 180.025 155.033C180.52 161.837 193.176 180.714 195.541 185.23Z" fill="black"/>
<path d="M170.625 132.81C173.708 130.257 178.833 131.905 180.511 136.502C181.35 138.79 184.605 151.29 178.732 156.436C172.01 162.335 168.512 156.894 167.158 151.046C165.803 145.198 164.873 136.41 170.625 132.81Z" fill="white"/>
<path d="M176.184 152.857C173.677 155.074 169.998 152.694 168.097 147.771C166.197 142.849 169.795 136.156 172.363 134.651C175.224 132.983 178.135 134.855 179.227 141.608C180.379 148.9 178.671 152.898 176.184 152.857Z" fill="#1E314C"/>
<path opacity="0.8" d="M150.358 307.34C146.708 307.127 144.586 312.1 144.09 325.699C143.646 337.792 149.519 385.513 150.155 389.001C150.641 391.666 164.944 391.554 165.146 388.218C165.47 382.655 171.504 323.756 172.06 317.023C172.616 310.29 172.94 308.815 169.523 307.737C166.106 306.659 150.358 307.34 150.358 307.34Z" fill="white"/>
<path opacity="0.1" d="M169.534 307.727C166.118 306.659 150.328 307.34 150.328 307.34C146.679 307.127 144.556 312.1 144.061 325.698C143.616 337.791 149.489 385.513 150.126 389.001C150.278 389.825 151.723 390.374 153.674 390.659C152.835 380.153 150.894 354.889 150.894 345.542C150.894 333.611 150.642 313.768 157.283 319.596C163.479 325.017 169.1 322.912 171.829 319.271C171.92 318.253 171.991 317.501 172.031 317.013C172.638 310.269 172.951 308.805 169.534 307.727Z" fill="black"/>
<path d="M148.699 297.567L149.599 309.232C149.659 311.094 153.299 314.582 161.517 314.44C168.593 314.318 170.452 310.372 170.452 310.372L172.676 294.007L148.699 297.567Z" fill="#1E314C"/>
<path d="M173.375 197.761C175.872 202.907 178.258 210.413 178.136 245.848C178.015 281.283 173.375 300.994 173.375 300.994C171.354 307.544 148.974 306.995 147.811 301.553L134.579 230.602C132.942 213.892 160.699 171.642 173.375 197.761Z" fill="white"/>
<path opacity="0.8" d="M173.375 197.761C175.872 202.907 178.258 210.413 178.136 245.848C178.015 281.283 173.375 300.994 173.375 300.994C171.354 307.544 148.974 306.995 147.811 301.553L134.579 230.602C132.942 213.892 160.699 171.642 173.375 197.761Z" fill="white"/>
<path opacity="0.1" d="M134.567 230.602L147.799 301.553C148.669 305.621 161.547 306.964 168.744 304.604C168.744 304.482 168.744 304.36 168.673 304.248C166.894 298.095 160.192 304.401 159.151 302.631C158.11 300.862 156.664 266.698 155.654 255.276C154.329 240.193 164.195 232.819 167.541 218.285C169.286 210.009 170.224 201.582 170.341 193.123C156.816 177.663 133.071 215.112 134.567 230.602Z" fill="black"/>
<path d="M166.076 193.428C169.998 194.323 174.355 202.205 173.637 212.915C172.919 223.625 167.309 239.135 154.936 236.084C142.564 233.033 148.204 188.607 166.076 193.428Z" fill="white"/>
<path d="M164.5 203.182C167.836 203.955 172.001 206.579 169.554 217.218C167.533 226.117 164.783 230.44 157.667 228.843C147.094 226.473 149.287 199.083 164.5 203.182Z" fill="#1E314C"/>
<path d="M157.635 408.468C161.89 408.784 163.7 408.946 167.844 411.275C171.989 413.605 175.041 406.973 181.541 407.258C184.174 407.975 186.69 409.071 189.011 410.513C190.699 411.662 191.326 413.096 191.033 416.046C190.038 417.212 188.815 418.159 187.438 418.825C186.062 419.492 184.564 419.865 183.037 419.921C174.202 420.694 169.724 417.073 166.197 414.062C162.669 411.052 161.031 409.597 157.635 408.468Z" fill="#74B7F5"/>
<path opacity="0.8" d="M157.635 408.468C161.89 408.784 163.7 408.946 167.844 411.275C171.989 413.605 175.041 406.973 181.541 407.258C184.174 407.975 186.69 409.071 189.011 410.513C190.699 411.662 191.326 413.096 191.033 416.046C190.038 417.212 188.815 418.159 187.438 418.825C186.062 419.492 184.564 419.865 183.037 419.921C174.202 420.694 169.724 417.073 166.197 414.062C162.669 411.052 161.031 409.597 157.635 408.468Z" fill="white"/>
<path d="M154.887 398.177C154.341 401.075 152.431 403.465 149.833 402.987C147.235 402.509 145.638 399.753 146.174 396.885C146.348 395.555 147.037 394.347 148.092 393.526C149.146 392.705 150.481 392.337 151.804 392.501C154.402 392.959 155.433 395.278 154.887 398.177Z" fill="white"/>
<path opacity="0.15" d="M154.89 398.171C155.284 396.066 154.84 394.275 153.586 393.269C154.84 395.252 153.829 399.513 150.159 399.544C146.864 399.544 146.247 397.072 146.571 395.669C146.41 396.049 146.288 396.444 146.207 396.849C145.671 399.747 147.309 402.493 149.866 402.951C152.424 403.409 154.344 401.07 154.89 398.171Z" fill="black"/>
<path d="M149.948 385.032C150.958 390.697 149.654 393.606 148.553 396.963C147.579 399.568 147.63 402.449 148.694 405.018C152.03 407.632 159.257 408.018 163.786 411.273C166.202 413.012 170.124 418.199 175.37 417.619C180.616 417.04 185.64 409.808 185.64 409.808C181.613 407.753 177.932 405.073 174.733 401.865C169.133 396.159 164.453 393.728 164.817 386.12L149.948 385.032Z" fill="#1E314C"/>
<path d="M165.917 410.927C161.954 407.652 155.556 404.825 155.808 402.343C156.061 399.861 152.665 396.312 152.665 396.312C152.665 396.312 150.431 393.342 158.659 392.396C163.097 391.887 164.643 390.708 165.138 389.731C164.889 388.555 164.801 387.351 164.876 386.151L150.006 385.032C151.017 390.697 149.713 393.606 148.611 396.963C147.638 399.568 147.688 402.449 148.753 405.018C152.089 407.632 159.316 408.018 163.845 411.273C164.855 412.025 166.23 413.439 167.827 414.731C167.639 413.281 166.965 411.939 165.917 410.927Z" fill="#1E314C"/>
<path d="M148.698 405.022C148.528 405.906 148.528 406.814 148.698 407.697C149.001 408.714 153.985 410.128 156.674 410.891C160.298 412.155 163.569 414.272 166.216 417.065C169.016 420.055 173.191 422.455 180.216 422.435C187.241 422.414 190.041 419.801 190.698 418.977C191.356 418.153 191.073 416.048 191.073 416.048L148.698 405.022Z" fill="#1E314C"/>
<path opacity="0.1" d="M179.331 416.544C170.668 416.341 166.736 412.049 163.259 409.252C161.418 408.793 159.534 408.53 157.639 408.469C161.035 409.598 162.693 411.042 166.241 414.063C169.789 417.083 174.247 420.694 183.081 419.921C184.608 419.866 186.107 419.493 187.483 418.826C188.859 418.159 190.083 417.212 191.077 416.046C191.33 413.096 190.703 411.662 189.056 410.513C191.492 413.361 187.984 416.758 179.331 416.544Z" fill="black"/>
<path d="M159.031 310.33C159.394 304.614 162.518 299.539 167.572 299.864C172.626 300.19 176.437 305.092 176.073 310.808C175.709 316.524 171.322 320.908 166.258 320.582C161.194 320.257 158.667 316.087 159.031 310.33Z" fill="white"/>
<path opacity="0.15" d="M166.349 315.864C160.941 311.704 163.013 302.865 166.288 299.946C161.992 300.485 159.354 305.144 159.03 310.361C158.667 316.087 161.204 320.298 166.258 320.613C167.926 320.679 169.58 320.279 171.036 319.457C172.492 318.634 173.693 317.422 174.506 315.955C173.355 316.912 171.904 317.428 170.411 317.412C168.918 317.395 167.479 316.846 166.349 315.864Z" fill="black"/>
<path d="M166.35 200.598C166.35 200.598 169.493 210.281 164.328 222.841C158.748 236.328 152.026 240.62 145.223 239.939C138.42 239.257 130.657 232.331 127.483 226.015C122.914 216.932 123.743 211.145 124.632 206.934C125.464 203.331 126.705 199.837 128.332 196.52L166.35 200.598Z" fill="#74B7F5"/>
<path opacity="0.7" d="M166.35 200.598C166.35 200.598 169.493 210.281 164.328 222.841C158.748 236.328 152.026 240.62 145.223 239.939C138.42 239.257 130.657 232.331 127.483 226.015C122.914 216.932 123.743 211.145 124.632 206.934C125.464 203.331 126.705 199.837 128.332 196.52L166.35 200.598Z" fill="white"/>
<path d="M159.396 232.016C156.585 233.694 152.956 234.335 148.276 233.399C139.634 231.69 136.369 218.753 135.6 213.057C134.832 207.362 134.175 201.503 140.018 199.469L141.403 197.893L128.262 196.489C126.635 199.806 125.393 203.301 124.562 206.904C123.673 211.115 122.844 216.902 127.413 225.984C130.587 232.301 138.309 239.206 145.153 239.908C150.126 240.427 154.968 238.311 159.396 232.016Z" fill="white"/>
<path d="M126.723 179.901C129.199 184.631 130.099 191.832 128.31 196.52C128.31 196.52 141.046 209.244 153.166 208.532C155.844 208.434 158.454 207.654 160.751 206.267C163.049 204.88 164.961 202.93 166.307 200.599L169.714 168.571C169.714 168.571 164.144 152.43 153.742 153.101C143.341 153.773 126.723 179.901 126.723 179.901Z" fill="#1E314C"/>
<path d="M130.848 198.798C135.154 202.419 144.322 209.05 153.167 208.532C155.213 208.42 157.223 207.941 159.101 207.118C153.299 207.352 146.395 204.25 143.878 200.954C141.229 197.496 140.148 193.204 140.481 187.061C140.603 185.688 142.21 164.055 143.514 159.051C136.337 165.702 129.362 175.934 127.34 179.006V179.057L127.017 179.555L126.946 179.667L126.865 179.789C127.679 181.373 128.291 183.054 128.685 184.793C128.949 185.884 129.138 186.992 129.251 188.109C129.371 189.209 129.412 190.318 129.372 191.424C129.334 192.801 129.127 194.167 128.755 195.493C128.665 195.798 128.563 196.103 128.452 196.398C128.311 196.52 129.251 197.435 130.848 198.798Z" fill="#1E314C"/>
<path d="M153.783 153.101C151.81 153.342 149.928 154.073 148.305 155.227C153.298 155.431 154.531 163.425 156.311 170.015C158.332 177.674 158.272 175.925 167.288 177.521L168.703 178.416L169.714 168.571C169.714 168.571 164.185 152.43 153.783 153.101Z" fill="#1E314C"/>
<path d="M122.248 127.989C112.493 130.247 107.672 131.976 108.763 142.157C109.855 152.338 117.285 170.361 122.248 177.033C127.373 183.908 127.08 185.047 132.953 183.4C140.392 181.294 149.227 176.911 150.137 174.307C151.047 171.703 150.481 157.413 154.736 157.332C158.992 157.251 159.477 171.866 160.447 173.92C161.418 175.975 168.413 179.809 169.899 178.945C171.385 178.08 176.975 163.475 177.126 150.69C177.258 135.434 174.539 131.885 164.845 129.179L122.248 127.989Z" fill="white"/>
<path opacity="0.7" d="M122.248 127.989C112.493 130.247 107.672 131.976 108.763 142.157C109.855 152.338 117.285 170.361 122.248 177.033C127.373 183.908 127.08 185.047 132.953 183.4C140.392 181.294 149.227 176.911 150.137 174.307C151.047 171.703 150.481 157.413 154.736 157.332C158.992 157.251 159.477 171.866 160.447 173.92C161.418 175.975 168.413 179.809 169.899 178.945C171.385 178.08 176.975 163.475 177.126 150.69C177.258 135.434 174.539 131.885 164.845 129.179L122.248 127.989Z" fill="white"/>
<path opacity="0.1" d="M128.697 128.172L122.248 127.989C112.493 130.247 107.672 131.976 108.763 142.157C109.855 152.338 117.285 170.361 122.248 177.033C127.373 183.908 127.08 185.047 132.953 183.4C135.652 182.624 138.296 181.666 140.868 180.531C136.127 180.684 131.578 180.531 125.867 169.028C120.155 157.525 118.71 147.924 119.033 140.408C119.337 133.532 121.945 130.654 128.697 128.172Z" fill="black"/>
<path d="M112.502 132.993C116.869 129.941 120.508 132.657 122.762 141.597C124.389 148.066 123.49 157.626 118.961 159.386C114.685 161.054 112.815 155.745 110.43 148.391C109.105 144.302 108.145 135.993 112.502 132.993Z" fill="white"/>
<path d="M153.288 135.129L152.277 135.353C153.775 142.583 154.557 149.946 154.612 157.332H154.683C155.014 157.324 155.341 157.412 155.623 157.586C155.595 150.04 154.813 142.517 153.288 135.129Z" fill="#E5E5E5"/>
<path d="M131.03 108.35C131.03 108.35 132.274 124.053 132.274 124.755C132.274 125.457 122.246 127.989 122.246 127.989C122.246 127.989 129.585 127.654 139.936 132.2C143.506 133.888 146.829 136.061 149.812 138.658C150.231 139.018 150.72 139.283 151.248 139.439C151.777 139.594 152.332 139.635 152.877 139.559C153.422 139.483 153.945 139.292 154.411 138.998C154.878 138.705 155.277 138.315 155.584 137.855C156.21 136.919 156.888 135.943 157.545 135.089C159.596 132.692 162.061 130.69 164.823 129.179C164.823 129.179 151.682 124.094 151.682 123.606L150.903 113.516L131.03 108.35Z" fill="#1E314C"/>
<path d="M141.493 236.084C143.879 234.863 143.181 223.736 141.301 217.136C138.42 207.077 133.214 202.49 129.312 203.222C125.411 203.954 125.471 214.115 126.341 217.888C127.806 224.316 135.064 236.582 141.493 236.084Z" fill="white"/>
<path d="M167.848 92.8553C171.165 78.7178 162.462 64.5521 148.412 61.2153C134.361 57.8786 120.282 66.6343 116.966 80.7719C113.649 94.9094 122.351 109.075 136.402 112.412C150.453 115.749 164.532 106.993 167.848 92.8553Z" fill="#E0E0E0"/>
<path d="M151.328 119.547L150.995 115.224L150.732 109.529C150.732 109.529 145.385 107.861 131.688 103.142C121.65 99.6733 116.596 89.2585 117.627 78.5283C115.625 84.6186 115.901 91.2346 118.402 97.1351C120.903 103.036 125.458 107.815 131.213 110.576C131.546 114.93 132.274 124.226 132.274 124.754C132.274 124.754 134.073 123.595 138.228 123.971C142.382 124.348 146.315 127.714 144.586 122.659C143.05 118.204 149.711 119.232 151.328 119.547Z" fill="#0B1B32" fill-opacity="0.37"/>
<path d="M150.942 62.0117C139.247 62.0117 132.95 69.8432 130.928 80.5632C129.614 87.4793 130.2 103.641 136.376 111.411C139.631 115.479 154.693 120.331 161.01 118.531C167.995 116.558 169.097 107.343 169.724 98.0874C170.214 91.2478 169.572 84.3737 167.823 77.7459C165.64 68.1549 157.584 62.5406 150.942 62.0117Z" fill="white"/>
<path opacity="0.8" d="M150.942 62.0117C139.247 62.0117 132.95 69.8432 130.928 80.5632C129.614 87.4793 130.2 103.641 136.376 111.411C139.631 115.479 154.693 120.331 161.01 118.531C167.995 116.558 169.097 107.343 169.724 98.0874C170.214 91.2478 169.572 84.3737 167.823 77.7459C165.64 68.1549 157.584 62.5406 150.942 62.0117Z" fill="white"/>
<path d="M169.757 97.4565C169.282 97.8488 168.767 98.1897 168.221 98.4736C160.134 97.7514 158.112 91.8727 158.041 91.5676C158.041 90.9777 157.465 81.9054 155.706 77.2573C156.344 77.0723 156.971 76.8551 157.587 76.6064C160.942 75.2639 163.106 73.3314 164.026 70.8396C164.135 70.53 164.226 70.2142 164.298 69.8937L163.884 69.375C163.81 69.8144 163.698 70.2465 163.55 70.6667C162.681 73.0161 160.609 74.8469 157.405 76.1386C147.296 80.2069 137.491 75.63 133.852 71.9177C133.761 72.0703 133.69 72.233 133.609 72.3856C136.369 75.1113 142.272 78.2236 149.186 78.2236C151.236 78.2303 153.277 77.9531 155.251 77.3997C156.97 81.9257 157.536 91.1099 157.566 91.5778C156.97 93.8764 153.361 100.04 143.627 101.667C140.397 100.144 137.63 97.7809 135.611 94.8223L135.186 95.0867C137.258 98.1381 140.107 100.573 143.435 102.135C143.667 102.44 145.264 104.657 145.79 109.722C145.79 110.078 145.871 110.434 145.901 110.739C145.95 112.907 146.353 115.051 147.094 117.086L147.791 117.3C146.841 115.784 146.589 113.313 146.346 110.811C146.346 110.455 146.275 110.099 146.235 109.743C145.77 105.268 144.506 102.969 143.97 102.166C152.947 100.559 156.758 95.107 157.779 92.4118C158.557 94.1001 161.215 98.5142 168.221 99.0533H168.322H168.382C168.848 98.8047 169.291 98.5154 169.706 98.1888V98.1074L169.757 97.4565Z" fill="#E4E4E4"/>
<path opacity="0.1" d="M161.01 118.551C161.5 118.408 161.976 118.224 162.436 118.002C156.371 119.08 149.295 116.985 142.724 113.12C136.154 109.255 134.82 104.811 133.253 95.2907C131.686 85.7708 133.596 72.5082 138.135 66.5176C134.375 69.8434 132.07 74.7762 130.928 80.5634C129.614 87.4795 130.2 103.641 136.376 111.411C139.631 115.51 154.693 120.331 161.01 118.551Z" fill="black"/>
<path d="M137.297 98.8705C137.297 94.6293 134.346 90.1643 130.696 88.8929C129.918 88.5708 129.067 88.4641 128.234 88.5839C127.4 88.7037 126.614 89.0457 125.956 89.5744C124.278 90.3779 123.176 92.2696 123.176 94.853C123.176 99.0942 126.138 103.559 129.787 104.831C130.563 105.152 131.411 105.26 132.243 105.142C133.074 105.024 133.859 104.684 134.517 104.159C136.195 103.346 137.297 101.454 137.297 98.8705Z" fill="#EAEAEA"/>
<path d="M129.787 89.4829C133.436 90.7543 136.387 95.2192 136.387 99.4604C136.387 103.702 133.436 106.102 129.787 104.831C126.138 103.559 123.176 99.0943 123.176 94.8531C123.176 90.6119 126.138 88.2116 129.787 89.4829Z" fill="white"/>
<path opacity="0.15" d="M131.687 103.142C131.262 103.135 130.842 103.055 130.444 102.908C127.603 101.891 125.197 98.2294 125.197 94.8527C125.197 92.6151 126.208 91.1709 127.886 91.1709C128.307 91.1792 128.724 91.2583 129.119 91.4048C131.97 92.4219 134.366 96.0834 134.366 99.4601C134.366 101.698 133.314 103.142 131.687 103.142Z" fill="black"/>
<path opacity="0.15" d="M129.119 91.4051C128.724 91.2586 128.307 91.1795 127.886 91.1712C127.802 91.1656 127.717 91.1656 127.633 91.1712C127.199 91.9235 126.986 92.7837 127.017 93.6528C127.017 97.0295 129.422 100.772 132.263 101.708C132.662 101.853 133.082 101.928 133.506 101.932H133.759C134.183 101.176 134.393 100.318 134.365 99.4502C134.365 96.0837 131.929 92.3917 129.119 91.4051Z" fill="black"/>
<path d="M145.14 85.3332C142.765 85.1704 141.097 84.9162 140.268 85.679C139.136 86.6961 139.47 88.2624 140.046 91.5475C140.369 93.4291 140.743 95.2802 142.431 96.5719C144.352 98.0365 148.547 99.318 154.389 99.318C160.97 99.318 166.429 98.0466 169.876 92.7782C169.959 88.8532 169.548 84.9333 168.652 81.1123C166.34 82.7131 163.747 83.8588 161.011 84.489C155.178 85.8214 151.67 85.7502 145.14 85.3332Z" fill="#1E314C"/>
<path d="M149.533 95.0102C150.656 94.8588 151.421 93.6438 151.242 92.2965C151.063 90.9492 150.007 89.9797 148.883 90.1311C147.76 90.2825 146.995 91.4975 147.174 92.8448C147.354 94.1921 148.41 95.1616 149.533 95.0102Z" fill="white"/>
<path d="M167.611 90.2563C167.561 90.6234 167.408 90.9685 167.17 91.2513C166.932 91.5341 166.619 91.7429 166.267 91.8534C165.916 91.9638 165.54 91.9713 165.184 91.875C164.829 91.7787 164.508 91.5825 164.259 91.3094C164.01 91.0364 163.843 90.6976 163.778 90.3328C163.714 89.968 163.753 89.5922 163.893 89.2493C164.032 88.9063 164.266 88.6104 164.567 88.3961C164.867 88.1818 165.222 88.058 165.59 88.0391C166.147 88.0706 166.671 88.32 167.049 88.7342C167.426 89.1484 167.628 89.6945 167.611 90.2563Z" fill="white"/>
<path d="M90.6574 283.785C88.4234 280.886 83.3086 282.544 72.7959 291.108C63.4557 298.726 41.0353 324.244 38.5588 326.777C36.9415 328.504 35.6814 330.536 34.8519 332.757C34.0224 334.978 33.64 337.343 33.7269 339.714C33.8179 345.684 38.4274 347.21 40.0144 346.274C46.0794 342.684 92.295 310.616 97.703 306.608C103.111 302.601 104.425 301.879 102.98 298.584C101.534 295.288 90.6574 283.785 90.6574 283.785Z" fill="#74B7F5"/>
<path opacity="0.8" d="M90.6574 283.785C88.4234 280.886 83.3086 282.544 72.7959 291.108C63.4557 298.726 41.0353 324.244 38.5588 326.777C36.9415 328.504 35.6814 330.536 34.8519 332.757C34.0224 334.978 33.64 337.343 33.7269 339.714C33.8179 345.684 38.4274 347.21 40.0144 346.274C46.0794 342.684 92.295 310.616 97.703 306.608C103.111 302.601 104.425 301.879 102.98 298.584C101.534 295.288 90.6574 283.785 90.6574 283.785Z" fill="white"/>
<path opacity="0.1" d="M84.5616 291.077C85.3602 296.488 91.3443 300.322 72.2799 314.826C60.6249 323.674 44.7447 334.944 34.1309 342.368C35.3034 346.121 38.6999 347.057 40.014 346.274C46.079 342.684 92.2946 310.615 97.7025 306.608C103.111 302.601 104.425 301.879 102.979 298.583C101.756 295.796 93.7805 287.131 91.3544 284.537L89.727 283.744C84.1674 283.429 83.7631 285.656 84.5616 291.077Z" fill="black"/>
<path d="M92.5078 278.028L86.9886 284.456C85.907 285.901 86.4023 289.542 90.7186 294.627C95.0348 299.712 100.483 301.747 101.929 300.455L110.319 292.013L92.5078 278.028Z" fill="#1E314C"/>
<path d="M125.309 210.911C127.758 209.868 130.266 208.968 132.819 208.216C135.397 207.565 137.176 213.464 137.873 215.417C140.057 221.519 140.481 229.168 139.622 229.992C137.499 232.026 132.951 233.297 132.951 233.297L125.309 210.911Z" fill="#1E314C"/>
<path d="M121.043 191.831C126.956 191.831 136.074 216.119 137.095 226.646C138.116 237.172 139.874 243.834 129.311 264.766C118.192 286.877 109.155 294.668 109.155 294.668C105.031 297.068 88.6654 283.775 89.7874 277.988C89.7874 277.988 98.9557 246.692 102.534 232.382C106.112 218.072 111.227 190.57 121.043 191.831Z" fill="white"/>
<path opacity="0.8" d="M121.043 191.831C126.956 191.831 136.074 216.119 137.095 226.646C138.116 237.172 139.874 243.834 129.311 264.766C118.192 286.877 109.155 294.668 109.155 294.668C105.031 297.068 88.6654 283.775 89.7874 277.988C89.7874 277.988 98.9557 246.692 102.534 232.382C106.112 218.072 111.227 190.57 121.043 191.831Z" fill="white"/>
<path opacity="0.1" d="M130.403 204.138C127.371 197.283 123.843 191.831 121.043 191.831C111.228 190.57 106.113 218.072 102.535 232.382C98.9563 246.692 89.788 277.988 89.788 277.988C88.7771 282.981 100.907 293.579 106.861 294.83C108.216 293.305 109.257 291.667 109.317 290.182C109.479 285.697 100.038 285.829 99.5325 283.52C99.0271 281.212 107.872 253.679 113.482 231.344C119.092 209.009 125.38 198.513 130.403 204.138Z" fill="black"/>
<path d="M95.1256 292.806C98.613 288.27 104.011 285.819 108.024 288.931C112.037 292.043 112.472 298.248 109.035 302.794C105.598 307.34 99.4823 308.49 95.4693 305.377C91.4562 302.265 91.6483 297.353 95.1256 292.806Z" fill="white"/>
<path opacity="0.15" d="M98.4093 301.553C96.0743 297.027 98.4093 289.419 105.869 287.822C102.22 286.724 98.0151 289.043 95.1241 292.806C91.6468 297.352 91.4143 302.265 95.4273 305.377C98.9552 308.113 104.08 307.544 107.628 304.279C105.455 304.94 100.734 306.079 98.4093 301.553Z" fill="black"/>
<path d="M65.6295 228.497C64.8107 229.961 64.1638 232.565 64.4266 237.376C64.6894 242.186 66.0642 250.181 68.6519 254.32C71.2397 258.46 73.9184 259.599 77.0621 259.792C80.2058 259.985 81.5906 259.416 83.9661 260.016C87.3625 260.921 88.707 259.772 86.9077 256.863C85.1084 253.954 82.5712 249.947 81.6412 247.068C81.0534 245.217 80.7134 243.295 80.6304 241.352C81.1459 240.427 83.299 244.983 86.1091 245.96C88.9192 246.936 89.9402 245.512 89.6369 244.719C89.3337 243.926 87.6152 242.359 86.1091 239.634C84.6029 236.908 82.2174 232.382 80.6101 229.931C79.0029 227.48 77.5776 226.056 72.2303 226.056C66.8829 226.056 66.5797 226.829 65.6295 228.497Z" fill="#74B7F5"/>
<path opacity="0.8" d="M65.6295 228.497C64.8107 229.961 64.1638 232.565 64.4266 237.376C64.6894 242.186 66.0642 250.181 68.6519 254.32C71.2397 258.46 73.9184 259.599 77.0621 259.792C80.2058 259.985 81.5906 259.416 83.9661 260.016C87.3625 260.921 88.707 259.772 86.9077 256.863C85.1084 253.954 82.5712 249.947 81.6412 247.068C81.0534 245.217 80.7134 243.295 80.6304 241.352C81.1459 240.427 83.299 244.983 86.1091 245.96C88.9192 246.936 89.9402 245.512 89.6369 244.719C89.3337 243.926 87.6152 242.359 86.1091 239.634C84.6029 236.908 82.2174 232.382 80.6101 229.931C79.0029 227.48 77.5776 226.056 72.2303 226.056C66.8829 226.056 66.5797 226.829 65.6295 228.497Z" fill="white"/>
<path opacity="0.1" d="M68.6512 254.321C71.239 258.46 73.9177 259.599 77.0614 259.792C80.2051 259.986 81.5899 259.416 83.9654 260.016C85.8456 260.515 87.099 260.382 87.5337 259.67C86.068 260.688 84.4102 259.274 82.7726 257.769C81.1351 256.263 76.4549 256.599 75.0195 255.785C73.1292 254.707 70.5415 253.517 69.1869 246.204C67.8324 238.892 70.8346 238.068 72.9169 231.874L72.7451 226.046H72.2902C66.9631 226.046 66.5992 226.839 65.649 228.507C64.8302 229.972 64.1833 232.576 64.4461 237.386C64.7089 242.197 66.0635 250.181 68.6512 254.321Z" fill="black"/>
<path d="M113.734 135.963C116.706 134.417 119.041 138.394 119.729 143.612C120.416 148.829 120.042 152.45 117.343 153.66C113.35 155.44 108.154 153.142 107.113 147.68C106.214 143.012 108.953 138.77 113.734 135.963Z" fill="#1E314C"/>
<path d="M64.8809 219.14C64.8809 219.14 65.5581 230.46 66.9025 234.63C68.3177 239.054 72.3106 240.57 74.3929 237.6C76.4752 234.63 77.0716 229.138 77.0716 229.138L77.5871 218.886L64.8809 219.14Z" fill="#1E314C"/>
<path d="M68.2475 176.077C63.6785 175.059 60.7572 179.128 61.111 186.247C61.4648 193.367 64.6185 222.862 64.6185 222.862C64.7702 223.879 67.0749 224.744 71.2193 224.611C75.3638 224.479 77.6887 222.577 77.7594 221.692C77.7594 221.692 79.3061 195.147 79.7003 191.953C80.5393 185.322 74.5147 177.378 68.2475 176.077Z" fill="#74B7F5"/>
<path opacity="0.8" d="M68.2475 176.077C63.6785 175.059 60.7572 179.128 61.111 186.247C61.4648 193.367 64.6185 222.862 64.6185 222.862C64.7702 223.879 67.0749 224.744 71.2193 224.611C75.3638 224.479 77.6887 222.577 77.7594 221.692C77.7594 221.692 79.3061 195.147 79.7003 191.953C80.5393 185.322 74.5147 177.378 68.2475 176.077Z" fill="white"/>
<path opacity="0.1" d="M79.7404 189.96C79.336 183.857 73.8977 177.246 68.2572 176.026C63.6883 175.009 60.7669 179.077 61.1207 186.197C61.4745 193.316 64.6283 222.811 64.6283 222.811C64.7597 223.716 66.5186 224.459 69.6825 224.561C69.2579 220.299 69.1164 214.583 68.8031 209.549C68.0753 197.628 65.7706 187.458 71.219 190.468C75.2623 192.736 78.7194 192.035 79.7404 189.96Z" fill="black"/>
<path d="M71.3512 173.555L67.0854 178.223C67.0854 178.223 65.7713 181.712 69.936 185.343C73.9793 188.811 77.0118 187.967 77.0118 187.967L83.7845 182.881L71.3512 173.555Z" fill="#1E314C"/>
<path d="M112.562 134.641C117.333 138.862 118.91 153.558 115.311 157.84C111.713 162.122 82.3985 184.956 82.3985 184.956C78.6078 187.132 67.3976 179.036 69.9449 173.636C69.9449 173.636 90.566 148.931 95.8931 142.493C101.22 136.055 107.791 130.42 112.562 134.641Z" fill="white"/>
<path opacity="0.8" d="M112.562 134.641C117.333 138.862 118.91 153.558 115.311 157.84C111.713 162.122 82.3985 184.956 82.3985 184.956C78.6078 187.132 67.3976 179.036 69.9449 173.636C69.9449 173.636 90.566 148.931 95.8931 142.493C101.22 136.055 107.791 130.42 112.562 134.641Z" fill="white"/>
<path opacity="0.1" d="M112.561 134.641C107.79 130.42 101.22 136.045 95.8924 142.493C90.5653 148.941 69.9442 173.636 69.9442 173.636C69.0142 175.67 69.9442 177.948 71.6424 180.013C73.5428 177.206 78.1219 171.083 88.0685 160.231C99.4405 147.823 108.902 138.781 114.644 137.479C114.128 136.412 113.422 135.451 112.561 134.641Z" fill="black"/>
<path d="M265.314 194.037L272.925 188.455C275.207 186.958 276.351 184.598 274.852 182.333C274.498 181.791 274.04 181.325 273.505 180.96C272.97 180.595 272.369 180.34 271.735 180.208C271.101 180.076 270.448 180.071 269.812 180.192C269.176 180.313 268.571 180.558 268.031 180.914L259.307 186.716C257.043 188.213 256.203 190.69 257.71 192.946L258.025 193.143C259.47 195.374 263.041 195.525 265.314 194.037Z" fill="#FFBA14"/>
</svg>
