<svg viewBox="0 0 458 530" preserveAspectRatio="xMidYMid" fill="none" xmlns="http://www.w3.org/2000/svg">
<path d="M113.953 530C165.897 530 208.007 487.811 208.007 435.768C208.007 383.725 165.897 341.536 113.953 341.536C62.0079 341.536 19.8984 383.725 19.8984 435.768C19.8984 487.811 62.0079 530 113.953 530Z" fill="#FFB300"/>
<path d="M291.913 447.452C383.544 447.452 457.825 373.03 457.825 281.226C457.825 189.422 383.544 115 291.913 115C200.282 115 126 189.422 126 281.226C126 373.03 200.282 447.452 291.913 447.452Z" fill="#FFB300"/>
<path d="M86.5647 146.599L81.712 147.953C72.7635 116.033 49.8515 94.7432 30.3458 100.269C10.8402 105.794 2.62158 136.076 11.6107 167.807L6.77148 169.162C2.09446 152.653 1.59432 135.954 5.67658 122.208C9.7318 107.975 17.8422 98.4404 28.94 95.2984C40.0378 92.1564 52.0413 95.9756 62.9634 105.97C73.561 115.626 82.0093 130.063 86.5647 146.599Z" fill="#F7AA00"/>
<path d="M102.962 186.876C107.855 183.49 101.719 165.694 88.9852 147.181C76.2518 128.668 62.0585 116.357 57.1787 119.757C52.2989 123.156 58.5305 140.83 71.1557 159.438C83.781 178.046 98.0688 190.248 102.962 186.876Z" fill="white"/>
<path d="M72.8854 158.585C76.8866 164.553 81.1806 170.318 85.7675 175.879C88.1366 178.566 90.6788 181.095 93.3778 183.45C94.7497 184.551 96.2308 185.509 97.798 186.307C98.5919 186.648 99.4154 186.916 100.258 187.106C101.077 187.258 101.924 187.104 102.637 186.673C103.324 186.211 103.808 185.504 103.989 184.696C104.138 183.8 104.22 182.895 104.232 181.987C104.121 180.22 103.831 178.468 103.367 176.76C102.422 173.216 101.113 169.78 99.4607 166.507C97.9267 163.206 96.2211 159.988 94.3511 156.865C92.6343 153.872 90.5121 150.743 88.5251 147.683C86.5537 144.599 84.424 141.62 82.1448 138.758C79.8333 135.928 77.4272 133.124 75.0482 130.429C72.5907 127.694 69.8745 125.204 66.9377 122.994C65.4991 121.886 63.9336 120.954 62.2743 120.218C61.4444 119.935 60.5951 119.713 59.733 119.554C58.873 119.421 57.9932 119.578 57.2322 120.001C56.8949 120.255 56.6102 120.572 56.3941 120.935C56.1754 121.3 56.0328 121.706 55.9751 122.127C55.7023 123.002 55.6193 123.926 55.7318 124.836C55.8656 126.606 56.2338 128.35 56.8267 130.023C58.0541 133.437 59.4943 136.771 61.1388 140.004C64.829 146.396 68.7356 152.274 72.8854 158.585ZM83.6993 177.545C78.4153 172.284 73.5309 166.634 69.087 160.643C64.9903 154.456 61.5044 147.884 58.6786 141.02C57.2769 137.574 56.147 134.024 55.2992 130.402C54.8605 128.594 54.6561 126.737 54.6909 124.876C54.57 123.922 54.6766 122.952 55.0019 122.046C55.1009 121.538 55.3012 121.055 55.591 120.626C55.8807 120.197 56.2539 119.832 56.6881 119.551C57.1223 119.27 57.6086 119.08 58.1179 118.992C58.6272 118.904 59.1489 118.92 59.6519 119.039C60.5672 119.271 61.4696 119.552 62.3554 119.879C64.0603 120.598 65.6393 121.585 67.0323 122.804C69.9691 125.025 72.7097 127.494 75.2239 130.185C80.4351 135.415 85.117 141.15 89.2009 147.304C93.3013 153.388 96.9171 159.787 100.015 166.44C101.655 169.759 102.972 173.228 103.948 176.8C104.484 178.56 104.797 180.38 104.881 182.217C104.925 183.157 104.852 184.099 104.665 185.021C104.452 185.993 103.901 186.857 103.11 187.458C102.234 187.998 101.193 188.205 100.177 188.041C99.2118 187.946 98.265 187.713 97.3654 187.35C95.7704 186.538 93.959 185.508 92.4856 184.642C89.4047 182.541 86.4939 180.199 83.7804 177.64L83.6993 177.545Z" fill="#112A49"/>
<path d="M92.7835 152.721C92.5807 151.366 87.3765 151.028 81.3342 152.233C75.2919 153.438 70.7501 155.659 70.9393 156.987C71.1285 158.314 76.3463 158.585 82.3886 157.461C88.4309 156.337 93.1755 154.224 92.7835 152.721Z" fill="#0B1B32"/>
<path d="M88.4989 193.85C93.3922 190.451 87.2689 172.642 74.5355 154.156C61.8021 135.669 47.6088 123.359 42.7155 126.731C37.8222 130.103 44.0672 147.79 56.6925 166.425C69.3178 185.061 83.6056 197.263 88.4989 193.85Z" fill="white"/>
<path d="M58.585 165.627C62.6403 171.464 66.7766 177.382 71.4401 182.935C73.8174 185.615 76.3639 188.139 79.0639 190.492C80.4552 191.593 81.9542 192.551 83.5382 193.349C84.3345 193.697 85.1631 193.964 86.0119 194.148C86.8268 194.301 87.6691 194.146 88.3775 193.715C89.068 193.258 89.553 192.548 89.7292 191.738C89.8785 190.842 89.9599 189.937 89.9725 189.029C89.8104 187.278 89.4661 185.549 88.9452 183.869C87.935 180.347 86.6281 176.918 85.0386 173.617C83.5202 170.306 81.8189 167.083 79.9426 163.961C78.2259 160.968 76.1983 157.799 74.1166 154.779C72.1406 151.703 70.0111 148.729 67.7364 145.868C65.4384 143.024 63.0188 140.22 60.6397 137.525C58.1794 134.793 55.4635 132.303 52.5293 130.09C51.0888 128.981 49.5236 128.045 47.8657 127.3C47.0376 127.015 46.1877 126.798 45.3245 126.65C44.9016 126.556 44.4632 126.556 44.0404 126.65C43.6711 126.697 43.3136 126.812 42.986 126.989C42.2744 127.511 41.7904 128.286 41.6342 129.156C41.4161 130.041 41.3341 130.954 41.3909 131.864C41.5247 133.634 41.8929 135.379 42.4858 137.051C43.7179 140.47 45.1626 143.808 46.8114 147.046C50.3395 153.249 54.3271 159.343 58.585 165.627ZM69.399 184.587C64.0119 179.402 59.0401 173.801 54.5298 167.835C50.4332 161.647 46.9473 155.075 44.1215 148.211C42.7575 144.724 41.6771 141.132 40.8908 137.471C40.4477 135.659 40.2387 133.798 40.269 131.932C40.1465 130.976 40.2579 130.005 40.5934 129.102C40.8432 128.111 41.4315 127.239 42.2561 126.637C43.1515 126.094 44.2167 125.906 45.2434 126.109C46.1602 126.341 47.0629 126.625 47.9468 126.962C49.6559 127.669 51.2399 128.647 52.6374 129.86C55.5858 132.071 58.3357 134.537 60.856 137.227C66.0901 142.427 70.7907 148.139 74.887 154.278C78.9821 160.366 82.5977 166.764 85.701 173.414C87.3353 176.736 88.6524 180.205 89.6346 183.775C90.1609 185.535 90.4652 187.355 90.5402 189.192C90.5755 190.133 90.4938 191.074 90.2969 191.995C90.0823 192.966 89.5316 193.83 88.7424 194.433C87.8648 194.97 86.8264 195.181 85.8091 195.029C84.8398 194.924 83.8893 194.687 82.984 194.325C81.4025 193.526 79.5776 192.483 78.1042 191.616C75.0253 189.523 72.1188 187.186 69.4125 184.628L69.399 184.587Z" fill="#112A49"/>
<path d="M77.1161 157.271C76.9133 155.916 71.7092 155.591 65.6534 156.797C59.5976 158.002 55.0557 160.223 55.2585 161.537C55.4612 162.85 60.6654 163.148 66.6942 162.024C72.7229 160.9 77.3324 158.598 77.1161 157.271Z" fill="#0B1B32"/>
<path d="M23.9534 190.153C24.5653 190.909 25.4484 191.395 26.4136 191.507C26.8936 191.56 27.3795 191.519 27.8434 191.384C28.3073 191.249 28.74 191.024 29.1171 190.722L55.9356 169.554L52.4481 163.419L24.5077 185.088C24.1321 185.387 23.8193 185.757 23.5873 186.178C23.3553 186.599 23.2087 187.061 23.1559 187.539C23.0965 188.02 23.1353 188.508 23.2701 188.974C23.4049 189.44 23.6327 189.873 23.9399 190.248L23.9534 190.153Z" fill="#112A49"/>
<path d="M33.023 209.913C46.5404 206.067 54.4075 191.386 50.3793 177.193C46.3511 163 32.0092 154.603 18.4377 158.45C4.86622 162.296 -2.97391 176.854 1.08131 191.169C5.13653 205.484 19.438 213.759 33.023 209.913Z" fill="#112A49"/>
<path d="M24.3441 167.062C25.7048 167.13 27.0462 167.413 28.3182 167.902C29.59 168.391 30.8313 168.957 32.0355 169.595C35.9518 171.401 39.1536 174.466 41.1327 178.303C41.456 178.949 41.7271 179.619 41.9437 180.308L42.5385 182.407C42.9585 185.138 42.689 187.932 41.7545 190.532L40.8083 190.289C40.9935 187.817 40.6704 185.334 39.8589 182.993C39.0475 180.652 37.7649 178.502 36.0907 176.678C34.4179 174.825 32.5301 173.179 30.4675 171.775C28.3723 170.421 26.223 169.067 23.8574 167.794L24.3441 167.062Z" fill="white"/>
<path d="M138.256 323.362C138.256 323.362 292.841 290.344 383.745 381.597C411.213 411.554 389.031 439.831 389.031 439.831C389.031 439.831 367.078 466.375 338.895 456.679C310.711 446.982 274.93 391.32 197.84 411.567C135.431 410.497 104.57 417.174 104.57 417.174L138.256 323.362Z" fill="#0B1B32"/>
<path d="M384.124 381.149C388.338 385.668 391.765 390.864 394.262 396.52C404.508 420.275 389.477 439.858 389.288 440.129C389.098 440.4 366.822 466.822 338.651 457.112C330.838 454.403 322.43 448.241 312.86 441.171C287.839 422.726 253.559 397.455 197.868 412.041H197.759C136.134 410.984 108.18 414.045 107.896 414.18L105.26 414.857L137.891 322.847L138.148 322.725C167.425 317.42 197.239 315.705 226.93 317.619C254.296 319.125 281.32 324.44 307.223 333.41C337.462 344.245 363.348 360.252 384.124 381.108V381.149ZM197.719 411.079C253.816 396.412 288.286 421.832 313.455 440.386C323.025 447.455 331.298 453.55 338.962 456.204C366.497 465.684 388.341 439.736 388.558 439.506C388.774 439.275 410.253 411.214 383.435 381.826C336.583 334.873 272.443 321.547 226.889 318.689C197.376 316.806 167.743 318.498 138.634 323.727L109.45 413.693C114.844 412.596 141.662 410.145 197.719 411.079Z" fill="white"/>
<mask id="path-15-inside-1_2557_9316" fill="white">
<path d="M348.952 426.491C348.892 426.379 348.82 426.275 348.736 426.18C348.641 426.096 348.531 426.032 348.411 425.99C348.286 425.971 348.158 425.971 348.033 425.99C347.906 425.999 347.783 426.031 347.668 426.085L327.567 435.457C327.391 435.541 327.242 435.672 327.135 435.836C327.039 436 326.987 436.187 326.986 436.378L327.54 457.613L308.021 466.714C307.79 466.828 307.611 467.027 307.521 467.269C307.433 467.51 307.433 467.773 307.521 468.014C307.639 468.243 307.836 468.421 308.075 468.515C308.193 468.565 308.319 468.591 308.447 468.591C308.575 468.591 308.701 468.565 308.819 468.515L328.933 459.143C329.105 459.059 329.25 458.927 329.352 458.764C329.45 458.601 329.497 458.412 329.487 458.222L328.906 436.973L348.479 427.778C348.707 427.665 348.885 427.472 348.979 427.236C349.074 427.002 349.074 426.739 348.979 426.505L348.952 426.491Z"/>
</mask>
<path d="M348.952 426.491C348.892 426.379 348.82 426.275 348.736 426.18C348.641 426.096 348.531 426.032 348.411 425.99C348.286 425.971 348.158 425.971 348.033 425.99C347.906 425.999 347.783 426.031 347.668 426.085L327.567 435.457C327.391 435.541 327.242 435.672 327.135 435.836C327.039 436 326.987 436.187 326.986 436.378L327.54 457.613L308.021 466.714C307.79 466.828 307.611 467.027 307.521 467.269C307.433 467.51 307.433 467.773 307.521 468.014C307.639 468.243 307.836 468.421 308.075 468.515C308.193 468.565 308.319 468.591 308.447 468.591C308.575 468.591 308.701 468.565 308.819 468.515L328.933 459.143C329.105 459.059 329.25 458.927 329.352 458.764C329.45 458.601 329.497 458.412 329.487 458.222L328.906 436.973L348.479 427.778C348.707 427.665 348.885 427.472 348.979 427.236C349.074 427.002 349.074 426.739 348.979 426.505L348.952 426.491Z" fill="#57A4DD"/>
<path d="M348.952 426.491L347.186 427.431L347.486 427.994L348.056 428.279L348.952 426.491ZM348.736 426.18L350.233 424.854L350.151 424.762L350.059 424.68L348.736 426.18ZM348.411 425.99L349.068 424.101L348.896 424.041L348.716 424.013L348.411 425.99ZM348.033 425.99L348.176 427.985L348.257 427.979L348.338 427.967L348.033 425.99ZM347.668 426.085L348.513 427.898L348.513 427.897L347.668 426.085ZM327.567 435.457L326.722 433.644L326.712 433.649L326.703 433.653L327.567 435.457ZM327.135 435.836L325.46 434.742L325.434 434.783L325.409 434.825L327.135 435.836ZM326.986 436.378L324.986 436.365L324.986 436.398L324.987 436.43L326.986 436.378ZM327.54 457.613L328.385 459.426L329.574 458.871L329.54 457.561L327.54 457.613ZM308.021 466.714L307.176 464.901L307.154 464.911L307.133 464.922L308.021 466.714ZM307.521 467.269L305.647 466.571L305.642 466.583L307.521 467.269ZM307.521 468.014L305.642 468.7L305.685 468.817L305.741 468.927L307.521 468.014ZM308.075 468.515L308.862 466.676L308.833 466.664L308.804 466.652L308.075 468.515ZM308.447 468.591V470.591V468.591ZM308.819 468.515L309.606 470.354L309.635 470.341L309.663 470.328L308.819 468.515ZM328.933 459.143L329.777 460.956L329.796 460.947L329.815 460.938L328.933 459.143ZM329.352 458.764L331.049 459.821L331.057 459.809L331.064 459.798L329.352 458.764ZM329.487 458.222L327.488 458.277L327.488 458.304L327.49 458.33L329.487 458.222ZM328.906 436.973L328.055 435.163L326.87 435.72L326.906 437.028L328.906 436.973ZM348.479 427.778L349.329 429.588L349.347 429.58L349.364 429.571L348.479 427.778ZM348.979 427.236L347.124 426.487L347.121 426.496L348.979 427.236ZM348.979 426.505L350.833 425.756L350.55 425.055L349.875 424.717L348.979 426.505ZM350.717 425.552C350.584 425.301 350.421 425.067 350.233 424.854L347.238 427.506C347.218 427.483 347.2 427.457 347.186 427.431L350.717 425.552ZM350.059 424.68C349.77 424.425 349.433 424.228 349.068 424.101L347.755 427.879C347.628 427.835 347.512 427.767 347.412 427.679L350.059 424.68ZM348.716 424.013C348.389 423.963 348.055 423.963 347.728 424.013L348.338 427.967C348.261 427.979 348.183 427.979 348.106 427.967L348.716 424.013ZM347.889 423.995C347.519 424.022 347.158 424.116 346.822 424.272L348.513 427.897C348.407 427.947 348.293 427.977 348.176 427.985L347.889 423.995ZM346.823 424.272L326.722 433.644L328.412 437.269L348.513 427.898L346.823 424.272ZM326.703 433.653C326.197 433.896 325.767 434.273 325.46 434.742L328.809 436.93C328.716 437.072 328.586 437.186 328.432 437.26L326.703 433.653ZM325.409 434.825C325.135 435.292 324.989 435.824 324.986 436.365L328.986 436.39C328.985 436.551 328.942 436.708 328.861 436.847L325.409 434.825ZM324.987 436.43L325.541 457.665L329.54 457.561L328.985 436.325L324.987 436.43ZM326.695 455.8L307.176 464.901L308.866 468.526L328.385 459.426L326.695 455.8ZM307.133 464.922C306.445 465.263 305.914 465.853 305.647 466.571L309.395 467.967C309.308 468.201 309.135 468.394 308.91 468.506L307.133 464.922ZM305.642 466.583C305.393 467.266 305.393 468.017 305.642 468.7L309.4 467.328C309.474 467.53 309.474 467.753 309.4 467.955L305.642 466.583ZM305.741 468.927C306.081 469.589 306.652 470.106 307.346 470.377L308.804 466.652C309.019 466.737 309.196 466.897 309.3 467.101L305.741 468.927ZM307.288 470.354C307.654 470.51 308.049 470.591 308.447 470.591V466.591C308.59 466.591 308.731 466.62 308.862 466.676L307.288 470.354ZM308.447 470.591C308.845 470.591 309.239 470.51 309.606 470.354L308.032 466.676C308.163 466.62 308.304 466.591 308.447 466.591V470.591ZM309.663 470.328L329.777 460.956L328.088 457.33L307.974 466.702L309.663 470.328ZM329.815 460.938C330.323 460.688 330.75 460.301 331.049 459.821L327.654 457.707C327.75 457.553 327.887 457.429 328.05 457.348L329.815 460.938ZM331.064 459.798C331.369 459.292 331.516 458.705 331.484 458.115L327.49 458.33C327.478 458.12 327.53 457.911 327.639 457.731L331.064 459.798ZM331.486 458.168L330.905 436.919L326.906 437.028L327.488 458.277L331.486 458.168ZM329.756 438.784L349.329 429.588L347.628 425.968L328.055 435.163L329.756 438.784ZM349.364 429.571C350.036 429.24 350.56 428.671 350.837 427.976L347.121 426.496C347.209 426.273 347.378 426.091 347.594 425.984L349.364 429.571ZM350.833 427.985C351.122 427.27 351.122 426.471 350.833 425.756L347.124 427.254C347.025 427.008 347.025 426.733 347.124 426.487L350.833 427.985ZM349.875 424.717L349.848 424.703L348.056 428.279L348.083 428.293L349.875 424.717Z" fill="#57A4DD" mask="url(#path-15-inside-1_2557_9316)"/>
<path d="M298.195 463.802C298.317 463.842 298.445 463.857 298.573 463.845C298.701 463.833 298.825 463.796 298.938 463.735L318.795 453.808M298.195 463.802L298.49 462.937L298.491 462.937L298.492 462.932L298.5 462.929L298.5 462.929L298.501 462.929L298.529 462.917L298.547 462.909C298.549 462.915 298.551 462.922 298.551 462.929C298.551 462.936 298.549 462.942 298.547 462.949L298.562 462.913L298.575 462.876L298.575 462.875L298.575 462.875L317.85 453.226L318.355 452.973L318.795 453.808M298.195 463.802L298.476 462.939L298.437 462.956L297.627 463.301M298.195 463.802C298.072 463.76 297.958 463.695 297.861 463.609C297.763 463.523 297.684 463.418 297.627 463.301M318.795 453.808L318.373 452.964M318.795 453.808C318.964 453.719 319.104 453.584 319.2 453.418C319.295 453.253 319.343 453.064 319.336 452.873M318.373 452.964L318.173 431.746L319.336 452.873M318.373 452.964L318.395 452.953L318.438 452.932L318.437 452.923M318.373 452.964L318.437 452.923M319.336 452.873L318.437 452.923M319.336 452.873L318.436 452.905L318.401 452.276L317.261 431.796L317.227 431.178C317.227 431.176 317.227 431.174 317.228 431.172L317.762 430.908L337.025 421.389L337.032 421.404C337.041 421.425 337.046 421.447 337.049 421.47L337.097 421.465L337.115 421.464L337.124 421.471L318.437 452.923M298.113 461.988L298.543 462.814L317.825 453.175L318.33 452.922C318.332 452.921 318.333 452.92 318.334 452.918C318.335 452.915 318.336 452.913 318.336 452.911L316.227 431.205L317.403 452.332L298.113 461.988ZM298.113 461.988C297.884 462.107 297.71 462.311 297.627 462.556C297.577 462.674 297.551 462.801 297.551 462.929C297.551 463.057 297.577 463.184 297.627 463.301M298.113 461.988L298.53 462.82L298.491 462.84L298.482 462.845L298.476 462.848L298.461 462.856C298.468 462.852 298.475 462.85 298.483 462.849C298.487 462.849 298.491 462.849 298.496 462.85C298.496 462.85 298.497 462.85 298.498 462.85C298.5 462.85 298.503 462.851 298.505 462.852L298.505 462.852L298.502 462.862L298.497 462.876L298.486 462.882L298.486 462.882L298.478 462.886L298.441 462.904L298.389 462.929L297.627 463.301M316.767 430.284L317.18 431.118L316.362 430.663C316.458 430.5 316.599 430.369 316.767 430.284ZM298.515 462.867L298.514 462.868L298.518 462.857L298.518 462.856C298.519 462.857 298.52 462.857 298.521 462.858C298.522 462.858 298.522 462.858 298.523 462.859C298.524 462.86 298.525 462.861 298.525 462.862L298.515 462.867Z" fill="#57A4DD" stroke="#57A4DD" stroke-width="2"/>
<path d="M413.361 464.371L438.22 350.312L408.482 343.839L383.623 457.884L413.361 464.371Z" fill="white"/>
<path d="M115.398 348.429C115.398 348.429 246.315 259.953 364.551 309.886C401.251 327.492 391.181 362.067 391.181 362.067C391.181 362.067 380.84 394.841 351.034 396.466C321.228 398.091 267.375 360.13 203.464 407.68C145.258 430.066 117.399 402.005 117.399 402.005L115.398 348.429Z" fill="#0B1B32"/>
<path d="M392.18 343.284C393.273 349.517 393.089 355.908 391.639 362.068C391.558 362.501 380.826 395.275 351.087 396.914C342.801 397.361 332.771 394.801 321.146 391.835C291.056 384.17 249.855 373.674 203.775 408.087H203.653C146.19 430.175 113.708 400.056 113.451 400.232L121.859 399.825L114.965 348.118L115.195 347.956C140.323 332.041 167.284 319.235 195.488 309.819C221.385 300.953 248.384 295.73 275.714 294.299C307.75 292.944 337.705 297.969 364.726 309.385C383.718 318.527 390.288 332.246 392.18 343.284ZM203.234 407.247C249.68 372.658 291.097 383.222 321.362 390.928C332.92 393.866 342.882 396.413 351.006 395.979C380.123 394.395 390.639 362.311 390.72 361.919C390.801 361.526 400.182 327.52 364.321 310.334C303.411 284.602 239.082 296.493 195.826 310.902C167.787 320.225 140.977 332.912 115.979 348.687L114.952 404.105C119.575 401.098 150.948 427.358 203.234 407.247Z" fill="white"/>
<path d="M348.554 365.723L348.634 365.771L348.643 365.803L334.04 381.469L333.592 381.951L333.856 382.553L342.363 401.955C342.362 401.961 342.361 401.967 342.36 401.972L342.352 402.005L342.346 402.035L342.341 402.04L327.186 418.265C327.185 418.261 327.185 418.257 327.185 418.253L327.184 418.249L341.816 402.552L342.264 402.071L342 401.468L333.455 381.979C333.455 381.978 333.454 381.976 333.454 381.974L348.522 365.727L348.525 365.724L348.527 365.723L348.554 365.723Z" fill="#57A4DD" stroke="#57A4DD" stroke-width="2"/>
<path d="M316.376 417.588C316.376 417.588 316.376 417.588 316.377 417.587L316.376 417.588ZM316.414 417.627L316.414 417.626L316.414 417.627ZM316.417 417.625L316.417 417.624L316.417 417.625L316.827 418.476L316.417 417.625Z" fill="#57A4DD" stroke="#57A4DD" stroke-width="2"/>
<path d="M423.339 375.623L403.698 260.86L373.514 266.034L393.168 380.864L423.339 375.623Z" fill="white"/>
<path d="M253.586 287.486L253.924 287.12C255.06 283.694 253.1 280.809 249.666 279.685L236.419 275.338C235.6 275.074 234.735 274.977 233.878 275.054C233.02 275.125 232.184 275.365 231.418 275.758C230.652 276.153 229.972 276.696 229.417 277.356C228.865 278.015 228.443 278.773 228.174 279.591C227.065 283.031 229.363 285.658 232.824 286.768L244.57 291.238C248.004 292.335 252.505 290.858 253.586 287.486Z" fill="#FFB300"/>
<path d="M208.601 261.903C208.601 261.903 219.699 263.461 224.822 264.138C229.945 264.815 266.955 265.154 275.444 270.476C275.961 270.801 276.509 271.073 277.08 271.289C290.489 277.085 297.275 296.14 275.728 304.807C274.255 305.448 272.827 306.19 271.457 307.029C246.842 322.115 183.066 311.809 167.643 302.749C151.814 293.513 183.026 255.037 183.026 255.037L208.601 261.903Z" fill="#FFB300"/>
<path d="M281.08 302.803C279.453 303.805 277.738 304.657 275.957 305.35C274.506 305.972 273.105 306.706 271.767 307.544C246.868 322.82 183.295 312.568 167.453 303.277C166.26 302.593 165.237 301.647 164.462 300.509C163.687 299.371 163.18 298.072 162.979 296.709C160.41 282.557 181.903 255.958 182.741 254.821L182.89 254.563L208.776 261.47C209.397 261.579 220.036 263.082 224.915 263.732C226.051 263.881 228.971 263.922 232.634 264.206C245.381 264.829 269.131 265.953 275.727 270.138C276.211 270.418 276.712 270.667 277.228 270.883C284.879 274.187 290.15 281.514 290.042 288.705C289.988 294.299 286.852 299.16 281.08 302.803ZM183.187 255.647C181.011 258.356 161.465 283.451 163.803 296.533C164 297.755 164.466 298.918 165.167 299.937C165.868 300.956 166.788 301.806 167.858 302.424C183.214 311.43 247.07 321.479 271.212 306.69C272.582 305.83 274.01 305.066 275.484 304.402C284.149 300.907 289.001 295.49 289.001 288.678C289.001 281.866 284.054 274.905 276.755 271.763C276.172 271.52 275.607 271.234 275.065 270.91C268.631 266.847 245.097 265.736 232.444 265.113C228.592 264.937 225.821 264.802 224.631 264.639C219.644 263.989 208.573 262.459 208.411 262.405L183.187 255.647Z" fill="black"/>
<path d="M224.956 264.355L223.199 313.882H224.145L225.903 264.328L224.956 264.355Z" fill="black"/>
<path d="M254.397 287.473C254.448 287.336 254.521 287.207 254.613 287.094L254.68 286.985C256.532 280.837 249.666 278.683 249.584 278.643L238.257 275.081L237.973 275.988L249.314 279.55C249.557 279.631 255.275 281.527 253.788 286.66C253.684 286.842 253.607 287.038 253.559 287.243C252.86 288.942 251.534 290.305 249.857 291.049C248.18 291.794 246.281 291.861 244.556 291.238L228.795 284.846L228.43 285.753L244.232 292.132C245.4 292.526 246.641 292.66 247.866 292.524C249.092 292.388 250.274 291.986 251.328 291.346C252.749 290.429 253.827 289.067 254.397 287.473Z" fill="black"/>
<path d="M83.9828 417.769C85.5992 420.416 87.7215 422.717 90.2279 424.541C92.7381 426.372 95.58 427.697 98.5952 428.441C101.618 429.171 104.755 429.295 107.827 428.807C110.898 428.319 113.843 427.228 116.492 425.597L220.914 360.591C226.173 357.367 229.948 352.193 231.417 346.194C232.885 340.195 231.928 333.857 228.754 328.562L161.343 215.79C159.753 213.103 157.644 210.761 155.139 208.901C152.635 207.041 149.786 205.699 146.758 204.955C143.733 204.219 140.592 204.095 137.519 204.591C134.446 205.086 131.502 206.191 128.861 207.84L24.2629 272.724C19.0112 275.947 15.2415 281.117 13.7734 287.11C12.3053 293.102 13.2574 299.433 16.4228 304.726L84.0098 417.688L83.9828 417.769Z" fill="white"/>
<path d="M116.789 425.976C114.048 427.681 110.991 428.814 107.802 429.308C104.613 429.801 101.357 429.645 98.23 428.847C95.1733 428.109 92.2966 426.76 89.772 424.883C87.2474 423.005 85.1266 420.636 83.5366 417.918L15.9496 305.024C12.7011 299.626 11.7193 293.158 13.219 287.036C14.7188 280.914 18.5778 275.637 23.9519 272.359L128.55 207.528C131.235 205.835 134.232 204.698 137.363 204.183C140.508 203.656 143.728 203.776 146.825 204.535C149.936 205.285 152.864 206.653 155.437 208.558C158.01 210.464 160.175 212.868 161.802 215.627L229.295 328.359C232.543 333.757 233.525 340.225 232.025 346.347C230.526 352.469 226.667 357.746 221.292 361.024L116.871 426.03L116.789 425.976ZM146.541 205.538C142.502 204.548 138.268 204.698 134.308 205.971C132.483 206.563 130.739 207.382 129.117 208.409L24.4926 273.212C21.9327 274.769 19.705 276.817 17.9374 279.238C16.1698 281.66 14.8971 284.408 14.1923 287.324C13.4647 290.23 13.3219 293.252 13.7721 296.215C14.2224 299.177 15.2566 302.02 16.8147 304.577L84.4017 417.553C85.9238 420.163 87.9559 422.438 90.3764 424.243C92.7997 426.043 95.5569 427.342 98.4869 428.062C101.493 428.83 104.622 428.987 107.689 428.521C110.756 428.056 113.699 426.979 116.343 425.353L220.765 360.347C223.325 358.801 225.55 356.756 227.308 354.334C230.876 349.444 232.376 343.342 231.485 337.351C231.028 334.391 229.99 331.551 228.43 328.995L160.937 216.25C159.38 213.586 157.302 211.265 154.829 209.424C152.355 207.584 149.536 206.262 146.541 205.538Z" fill="black"/>
<path d="M110.031 315.453C109.356 305.002 111.245 294.545 115.533 284.995C118.678 278.331 119.456 270.791 117.736 263.624C116.019 256.311 111.802 249.025 102.123 246.722C81.8472 241.766 72.2633 259.101 72.2633 259.101C72.2633 259.101 53.1768 302.804 60.6519 334.305C68.1271 365.805 81.1307 380.026 81.1307 380.026C81.1307 380.026 98.7034 404.037 116.479 412.529C134.254 421.02 155.977 432.938 183.471 418.677C203.315 399.812 186.729 384.603 178.064 390.914C150.84 372.848 111.356 356.068 110.031 315.412V315.453Z" fill="#FFB300"/>
<path d="M183.566 419.165C180.429 420.794 177.16 422.153 173.793 423.228C151.692 430.351 133.498 421.481 118.466 414.181L116.06 413.003C98.2173 404.579 80.6311 380.581 80.5635 380.378C80.4959 380.175 67.4246 365.846 60.1252 334.521C52.8258 303.196 71.615 259.236 71.7367 259.019C71.8584 258.803 81.8342 241.414 102.151 246.357C110.41 248.334 115.925 254.293 118.115 263.624C119.867 270.89 119.08 278.538 115.885 285.293C111.669 294.749 109.814 305.091 110.478 315.426C111.599 349.446 139.797 366.767 164.669 382.03C169.346 384.901 173.78 387.623 177.983 390.413C181.701 387.921 187.013 388.964 190.338 392.986C194.515 398.133 195.38 408.005 183.715 419.097H183.58L183.566 419.165ZM101.921 247.264C97.1546 246.014 92.1334 246.131 87.4304 247.603C81.2767 249.736 76.0322 253.906 72.5612 259.426C72.399 259.832 53.6369 303.251 61.0174 334.264C68.3979 365.277 81.1718 379.497 81.3611 379.782C81.5503 380.066 98.9337 403.78 116.506 412.15L118.926 413.328C135.904 421.562 157.004 431.814 183.025 418.339C194.177 407.721 193.515 398.376 189.541 393.596C186.486 389.844 181.566 388.896 178.2 391.348L177.943 391.564L177.673 391.375C173.388 388.531 168.873 385.754 164.088 382.829C139.026 367.444 110.599 349.96 109.45 315.466C108.801 304.977 110.693 294.485 114.965 284.886C118.07 278.321 118.834 270.888 117.128 263.827C115.006 254.74 109.869 249.174 101.881 247.264H101.921Z" fill="black"/>
<path d="M117.412 413.341L118.223 413.855L145.434 370.436L144.609 369.922L117.412 413.341Z" fill="#0C0801"/>
<path d="M253.574 286.959L253.898 286.579C254.912 283.045 252.803 280.201 249.275 279.212L235.649 275.339C234.379 274.991 233.034 275.026 231.784 275.441C230.534 275.855 229.433 276.63 228.62 277.668C228.083 278.36 227.687 279.152 227.458 279.998C226.458 283.546 228.904 286.105 232.459 287.094L244.625 291.157C248.112 292.118 252.641 290.439 253.574 286.959Z" fill="#FFB300"/>
<path fill-rule="evenodd" clip-rule="evenodd" d="M353.467 1.1256L273.666 39.8691C272.767 40.3851 272.034 41.1137 271.561 41.9618C271.087 42.8099 270.894 43.7389 271.007 44.6301L281.926 115.608C281.956 115.978 282.09 116.326 282.314 116.622C282.538 116.918 282.847 117.152 283.213 117.305C283.578 117.457 283.99 117.522 284.411 117.495C284.832 117.468 285.25 117.349 285.629 117.149L367.507 84.9779C368.431 84.4874 369.185 83.7619 369.661 82.9067C370.137 82.0515 370.31 81.111 370.154 80.2218L357.209 2.6526C357.191 2.27729 357.066 1.92205 356.846 1.61986C356.626 1.31767 356.317 1.07834 355.949 0.924053C355.581 0.769769 355.165 0.705561 354.74 0.73737C354.315 0.769175 353.895 0.895957 353.518 1.10598" fill="#112A49"/>
<path fill-rule="evenodd" clip-rule="evenodd" d="M367.461 85.0196C368.385 84.5291 369.139 83.8036 369.615 82.9484C370.091 82.0932 370.264 81.1528 370.108 80.2635L357.162 2.69433C357.145 2.31902 357.02 1.96378 356.8 1.66159C356.579 1.3594 356.271 1.12003 355.903 0.965751C355.535 0.811467 355.119 0.747258 354.694 0.779065C354.269 0.810872 353.849 0.937685 353.472 1.14771L367.47 85.0412" fill="#071423"/>
<path fill-rule="evenodd" clip-rule="evenodd" d="M295.01 130.024L293.682 132.838L233.613 152.244L231.913 149.178L285.561 117.137L367.439 84.9657L368.274 86.4796L295.01 130.024Z" fill="#112A49"/>
<path fill-rule="evenodd" clip-rule="evenodd" d="M367.45 85.0238L291.997 129.804L293.684 132.838L369.137 88.0575L367.45 85.0238Z" fill="#0B1B32"/>
<path fill-rule="evenodd" clip-rule="evenodd" d="M348.662 10.0747L279.288 43.8569C278.516 44.2833 277.879 44.892 277.457 45.6064C277.036 46.3207 276.848 47.1088 276.919 47.8716L284.667 106.441C284.851 107.885 286.237 108.316 287.824 107.698L358.792 79.3217C359.584 78.9171 360.239 78.3131 360.665 77.5948C361.09 76.8766 361.266 76.0802 361.166 75.3178L351.82 11.3318C351.813 11.008 351.71 10.7004 351.521 10.4401C351.332 10.1797 351.065 9.9756 350.745 9.84826C350.425 9.72092 350.064 9.67481 349.699 9.71456C349.333 9.75432 348.976 9.87853 348.662 10.0747Z" fill="white"/>
<path fill-rule="evenodd" clip-rule="evenodd" d="M291.851 133.637L231.782 153.043L230.082 149.977L290.159 130.555L291.847 133.626" fill="#0B1B32"/>
</svg>
