<svg  viewBox="0 0 571 575" preserveAspectRatio="xMidYMid" fill="none" xmlns="http://www.w3.org/2000/svg">
<path d="M190.235 568.508H432.361C440.962 568.508 447.934 561.531 447.934 552.925L447.934 126.177C447.934 117.57 440.962 110.593 432.361 110.593L190.235 110.593C181.635 110.593 174.663 117.57 174.663 126.177L174.663 552.925C174.663 561.531 181.635 568.508 190.235 568.508Z" fill="#132642"/>
<path d="M174.653 568.497H447.924V515.826H174.653V568.497Z" fill="#132642"/>
<path d="M432.363 110.549C436.493 110.549 440.454 112.191 443.375 115.113C446.295 118.036 447.936 121.999 447.936 126.132V552.925C447.936 557.058 446.295 561.022 443.375 563.944C440.454 566.867 436.493 568.508 432.363 568.508H190.226C186.096 568.508 182.135 566.867 179.215 563.944C176.295 561.022 174.654 557.058 174.654 552.925V126.177C174.648 124.127 175.046 122.096 175.826 120.2C176.606 118.304 177.752 116.581 179.199 115.129C180.646 113.677 182.364 112.525 184.256 111.74C186.149 110.954 188.177 110.549 190.226 110.549H432.363ZM432.363 104.201H190.226C184.416 104.207 178.845 106.52 174.736 110.631C170.627 114.743 168.316 120.318 168.311 126.132V552.925C168.314 558.742 170.623 564.319 174.732 568.434C178.841 572.548 184.414 574.862 190.226 574.868H432.363C438.175 574.859 443.746 572.544 447.854 568.43C451.963 564.317 454.273 558.741 454.279 552.925V126.177C454.27 120.364 451.958 114.79 447.85 110.679C443.742 106.568 438.173 104.255 432.363 104.246V104.201Z" fill="white"/>
<path d="M168.219 119.538C174.094 119.529 179.924 120.555 185.442 122.571C182.241 124.471 179.589 127.173 177.746 130.409C175.904 133.645 174.934 137.306 174.933 141.031V219.531C172.7 219.834 170.45 219.987 168.197 219.992C154.884 219.992 142.116 214.699 132.702 205.279C123.289 195.859 118 183.082 118 169.759C118 156.437 123.289 143.66 132.702 134.239C142.116 124.819 154.884 119.526 168.197 119.526L168.219 119.538Z" fill="#132642"/>
<path d="M174.936 141.019C174.937 137.294 175.906 133.634 177.748 130.397C179.591 127.161 182.243 124.46 185.444 122.56C193.68 125.575 200.982 130.696 206.625 137.414C212.267 144.131 216.052 152.211 217.604 160.848C219.155 169.485 218.418 178.379 215.466 186.642C212.515 194.906 207.451 202.251 200.781 207.947L207.865 240.53L188.565 215.621C184.232 217.568 179.642 218.885 174.936 219.531V141.019Z" fill="#EAEFF3"/>
<path d="M318.777 91.4493C318.785 82.9242 320.654 74.5039 324.255 66.7776C327.855 59.0513 333.099 52.2058 339.62 46.7202C346.141 41.2346 353.782 37.2415 362.006 35.0204C370.231 32.7993 378.842 32.4039 387.235 33.8618C395.629 35.3198 403.602 38.5958 410.598 43.4606C417.594 48.3255 423.442 54.6616 427.735 62.0254C432.027 69.3892 434.659 77.6029 435.447 86.0914C436.235 94.5799 435.159 103.138 432.296 111.167H322.202C319.929 104.842 318.771 98.1706 318.777 91.4493Z" fill="#132642"/>
<path d="M377.283 149.962C369.127 149.943 361.064 148.229 353.605 144.929L331.151 173.938L339.403 135.963C331.63 129.336 325.727 120.787 322.281 111.167H432.297C428.237 122.517 420.774 132.335 410.927 139.279C401.08 146.223 389.33 149.954 377.283 149.962Z" fill="#EAEFF3"/>
<path d="M325.1 334.535C325.1 334.535 329.119 354.848 345.96 392.082C353.819 443.652 396.483 450.741 409.618 465.167C422.754 479.593 412.526 499.659 412.526 499.659C412.526 499.659 401.322 520.366 376.161 511.647C297.863 480.638 277.553 379.184 277.553 379.184L325.1 334.535Z" fill="#FFB41D"/>
<path d="M376.059 511.961C358.151 504.872 341.816 493.468 327.49 478.098C315.384 464.857 305.181 449.992 297.176 433.933C288.323 416.585 281.616 398.222 277.203 379.251V379.071L325.301 333.905L325.413 334.478C325.413 334.681 329.623 355.185 346.251 391.946V392.025C351.954 429.27 376.003 443.325 393.562 453.583C400.298 457.538 406.181 460.953 409.819 464.953C422.955 479.368 412.873 499.603 412.772 499.782C412.671 499.962 404.812 514.073 387.904 514.073C383.865 514.037 379.861 513.323 376.059 511.961ZM324.896 335.164L277.899 379.296C282.317 398.145 288.993 416.392 297.783 433.64C311.323 460.279 335.955 495.378 376.283 511.366C400.871 519.871 412.132 499.704 412.21 499.513C412.289 499.322 422.191 479.469 409.359 465.38C405.777 461.459 399.973 458.066 393.248 454.145C375.587 443.82 351.393 429.697 345.633 392.182C330.521 358.713 325.637 338.692 324.896 335.164Z" fill="black"/>
<path d="M394.124 479.065C394.29 479.065 394.449 479 394.568 478.885C394.688 478.77 394.758 478.613 394.764 478.447L395.157 464.358L408.057 459.201C408.174 459.157 408.276 459.079 408.348 458.977C408.42 458.875 408.46 458.753 408.461 458.628L408.865 444.112C408.868 443.944 408.805 443.781 408.69 443.659C408.574 443.538 408.415 443.466 408.248 443.46C408.079 443.457 407.915 443.52 407.792 443.635C407.668 443.75 407.594 443.909 407.585 444.078L407.192 458.167L394.315 463.335C394.198 463.383 394.098 463.464 394.026 463.567C393.954 463.671 393.914 463.793 393.91 463.919L393.506 478.424C393.503 478.508 393.517 478.591 393.546 478.669C393.576 478.747 393.621 478.819 393.678 478.88C393.736 478.94 393.805 478.989 393.881 479.023C393.958 479.056 394.04 479.074 394.124 479.076V479.065Z" fill="#57A4DD"/>
<path d="M387.949 473.941C388.03 473.943 388.111 473.928 388.186 473.898C388.262 473.869 388.331 473.825 388.389 473.768C388.447 473.712 388.494 473.645 388.526 473.57C388.559 473.496 388.576 473.416 388.578 473.334L389.285 459.257L402.264 454.482C402.381 454.44 402.483 454.364 402.556 454.264C402.63 454.164 402.673 454.044 402.679 453.92L403.487 439.415C403.498 439.245 403.44 439.078 403.328 438.951C403.215 438.823 403.056 438.746 402.887 438.736C402.717 438.725 402.55 438.783 402.423 438.895C402.295 439.008 402.218 439.167 402.208 439.337L401.422 453.426L388.443 458.201C388.326 458.243 388.224 458.318 388.15 458.418C388.076 458.518 388.034 458.638 388.028 458.762L387.298 473.267C387.293 473.352 387.306 473.437 387.334 473.517C387.363 473.597 387.408 473.671 387.465 473.734C387.523 473.797 387.592 473.847 387.669 473.883C387.747 473.918 387.83 473.938 387.915 473.941H387.949Z" fill="#57A4DD"/>
<path d="M421.943 491.761L359.98 536.241L371.589 552.442L433.552 507.962L421.943 491.761Z" fill="white"/>
<path d="M289.709 302.447C289.709 302.447 294.514 335.4 282.187 335.276C270.163 335.186 229.756 319.154 220.718 301.964C220.215 301.007 219.644 300.087 219.011 299.211C209.547 286.785 220.022 278.134 229.767 279.415C230.171 279.482 230.581 279.512 230.991 279.505C237.727 279.358 259.272 291.953 262.427 293.301C265.582 294.65 272.532 297.571 272.532 297.571L289.709 302.447Z" fill="#FFB300"/>
<path d="M216.241 284.965C218.655 280.785 224.224 278.37 229.781 279.1C230.153 279.157 230.528 279.187 230.904 279.19C236.181 279.066 250.271 286.583 257.849 290.616C260.095 291.74 261.768 292.706 262.475 293.009C265.518 294.313 272.187 297.11 272.579 297.267L289.914 302.2V302.402C290.049 303.368 293.282 326.097 286.928 333.378C286.341 334.094 285.6 334.668 284.76 335.057C283.92 335.446 283.003 335.64 282.078 335.625C269.728 335.523 229.467 319.524 220.328 302.132C219.839 301.189 219.28 300.284 218.655 299.425C217.871 298.408 217.176 297.325 216.578 296.189C214.49 292.099 214.355 288.212 216.241 284.965ZM272.377 297.885C272.31 297.885 265.383 294.953 262.273 293.605C261.532 293.29 259.882 292.414 257.591 291.189C250.069 287.189 236.08 279.729 230.971 279.842C230.547 279.841 230.123 279.811 229.703 279.752C224.403 279.055 219.093 281.336 216.803 285.291C214.512 289.246 215.433 294.032 219.239 299.031C219.88 299.918 220.458 300.849 220.968 301.818C229.837 318.671 270.199 334.883 282.168 334.973C282.998 334.986 283.821 334.812 284.575 334.464C285.329 334.116 285.995 333.603 286.524 332.962C292.373 326.221 289.701 305.031 289.387 302.705L272.377 297.885Z" fill="black"/>
<path d="M261.678 293.04L245.646 322.234L246.207 322.543L262.239 293.348L261.678 293.04Z" fill="black"/>
<path d="M236.159 325.024L252.425 316.536C254.757 315.319 255.661 312.442 254.445 310.109L232.606 268.198C231.391 265.865 228.516 264.961 226.184 266.177L209.918 274.665C207.587 275.882 206.682 278.759 207.898 281.092L229.737 323.003C230.953 325.335 233.828 326.24 236.159 325.024Z" fill="white"/>
<path d="M227.567 320.648L208.683 284.403C206.438 280.055 207.56 274.943 211.31 273L223.963 266.393C227.679 264.461 232.541 266.393 234.809 270.764L253.704 307.009C255.95 311.357 254.827 316.48 251.066 318.412L238.424 325.019C234.697 326.94 229.835 324.974 227.567 320.648ZM212.175 274.662C209.244 276.19 208.313 280.28 210.109 283.651L228.993 319.895C230.778 323.322 234.607 324.873 237.548 323.345L250.201 316.738C253.132 315.21 254.063 311.177 252.278 307.75L233.383 271.505C231.598 268.079 227.769 266.528 224.828 268.067L212.175 274.662Z" fill="black"/>
<path d="M241.658 302.099L249.978 303.571C252.358 304.121 254.592 303.402 255.131 301.031C255.262 300.467 255.281 299.882 255.186 299.311C255.091 298.739 254.885 298.192 254.578 297.7C254.271 297.208 253.871 296.782 253.399 296.446C252.928 296.109 252.395 295.869 251.83 295.74L242.68 293.684C240.311 293.144 238.189 294.133 237.661 296.504L237.729 296.829C237.179 299.144 239.289 301.548 241.658 302.099Z" fill="#FFB300"/>
<path d="M237.706 299.829C238.095 300.563 238.638 301.202 239.3 301.703C239.961 302.204 240.724 302.554 241.535 302.728L252.863 304.492L252.964 303.851L241.658 302.099C240.448 301.863 239.376 301.17 238.663 300.164C237.95 299.158 237.651 297.915 237.83 296.695C237.874 296.56 237.897 296.42 237.897 296.279C238.807 292.807 242.759 293.683 242.927 293.717L250.708 295.571L250.854 294.953L243.084 293.099C243.028 293.099 238.313 291.976 237.269 296.155V296.245C237.288 296.342 237.288 296.441 237.269 296.537C237.047 297.653 237.201 298.81 237.706 299.829Z" fill="black"/>
<path d="M367.56 364.274C367.56 364.274 358.938 383.127 350.955 423.181C327.378 469.683 357.804 500.299 360.06 519.725C362.317 539.151 342.333 549.454 342.333 549.454C342.333 549.454 321.147 559.779 305.754 538.016C260.475 467.178 303.015 372.858 303.015 372.858L367.56 364.274Z" fill="#FFB300"/>
<path d="M305.486 538.184C295.135 521.994 288.544 503.209 285.906 482.368C283.803 464.56 284.181 446.547 287.029 428.843C289.956 409.587 295.208 390.758 302.668 372.768L302.747 372.599L368.033 363.881L367.797 364.409C367.708 364.6 359.096 383.7 351.215 423.248V423.326C334.172 456.886 345.5 482.334 353.763 500.917C356.963 508.096 359.725 514.287 360.354 519.691C362.599 539.105 342.66 549.644 342.39 549.745C338.581 551.366 334.482 552.192 330.343 552.172C323.012 552.172 313.446 549.442 305.486 538.184ZM367.034 364.667L303.241 373.195C295.846 391.085 290.636 409.804 287.725 428.944C283.234 458.47 282.684 501.333 306.014 537.825C321.07 559.104 341.941 549.273 342.188 549.172C342.435 549.071 361.948 538.735 359.747 519.758C359.13 514.467 356.379 508.31 353.213 501.175C344.894 482.48 333.498 456.897 350.653 423.079C357.828 387.093 365.608 367.993 367.034 364.667Z" fill="black"/>
<path d="M339.92 522.22C340.019 522.219 340.116 522.196 340.204 522.151C340.291 522.106 340.367 522.041 340.425 521.961L348.958 510.726L362.487 514.097C362.608 514.125 362.735 514.118 362.853 514.076C362.97 514.034 363.073 513.959 363.149 513.861L371.94 502.255C371.991 502.188 372.028 502.111 372.05 502.03C372.071 501.948 372.076 501.863 372.064 501.78C372.053 501.696 372.025 501.616 371.983 501.543C371.94 501.47 371.884 501.407 371.817 501.356C371.75 501.305 371.673 501.268 371.592 501.247C371.51 501.225 371.425 501.22 371.342 501.232C371.259 501.243 371.178 501.271 371.106 501.313C371.033 501.356 370.969 501.412 370.919 501.48L362.386 512.715L348.857 509.344C348.736 509.316 348.609 509.323 348.491 509.365C348.374 509.407 348.271 509.481 348.195 509.58L339.415 521.107C339.362 521.173 339.323 521.249 339.299 521.33C339.276 521.412 339.27 521.497 339.28 521.581C339.291 521.665 339.318 521.746 339.36 521.819C339.403 521.892 339.46 521.956 339.527 522.006C339.63 522.121 339.768 522.196 339.92 522.22Z" fill="#57A4DD"/>
<path d="M337.907 514.4C338.002 514.4 338.096 514.379 338.181 514.338C338.267 514.298 338.342 514.238 338.401 514.164L347.159 503.21L360.541 506.883C360.661 506.914 360.786 506.91 360.904 506.873C361.021 506.835 361.125 506.765 361.204 506.67L370.309 495.435C370.416 495.302 370.467 495.132 370.451 494.961C370.434 494.791 370.351 494.634 370.219 494.525C370.153 494.471 370.077 494.43 369.995 494.406C369.914 494.382 369.828 494.374 369.743 494.384C369.659 494.393 369.577 494.42 369.502 494.461C369.428 494.503 369.362 494.559 369.31 494.626L360.44 505.535L347.069 501.861C346.948 501.827 346.82 501.829 346.7 501.867C346.58 501.905 346.474 501.977 346.395 502.075L337.413 513.31C337.36 513.375 337.32 513.45 337.296 513.531C337.272 513.612 337.264 513.697 337.273 513.781C337.283 513.865 337.309 513.946 337.35 514.019C337.392 514.093 337.448 514.157 337.514 514.209C337.616 514.32 337.757 514.388 337.907 514.4Z" fill="#57A4DD"/>
<path d="M354.67 548.656H278.482V568.722H354.637L354.67 548.656Z" fill="white"/>
<path d="M370.456 403.789L390.519 317.648C391.459 313.61 390.768 309.365 388.596 305.834C386.424 302.304 382.947 299.774 378.922 298.795L298.58 278.853C296.548 278.339 294.434 278.238 292.362 278.554C290.29 278.87 288.303 279.597 286.516 280.693C284.729 281.789 283.18 283.232 281.958 284.936C280.737 286.64 279.868 288.571 279.404 290.616L259.397 376.599C258.454 380.639 259.143 384.887 261.315 388.42C263.487 391.953 266.966 394.485 270.994 395.463L351.258 415.53C353.289 416.028 355.399 416.119 357.465 415.798C359.532 415.477 361.515 414.75 363.299 413.658C365.084 412.567 366.635 411.133 367.863 409.439C369.092 407.745 369.973 405.825 370.456 403.789Z" fill="white"/>
<path d="M351.124 415.833L270.872 395.767C266.755 394.782 263.197 392.205 260.976 388.599C258.756 384.994 258.055 380.654 259.027 376.532L279.09 290.549C279.569 288.449 280.463 286.466 281.72 284.718C282.978 282.97 284.572 281.491 286.41 280.37C288.23 279.257 290.256 278.521 292.366 278.206C294.476 277.892 296.627 278.005 298.693 278.538L379.023 298.447C383.14 299.431 386.698 302.009 388.918 305.615C391.139 309.22 391.84 313.56 390.868 317.682L370.771 403.789C370.311 405.854 369.44 407.804 368.209 409.525C366.979 411.245 365.414 412.699 363.608 413.799C361.769 414.956 359.715 415.728 357.569 416.07C355.424 416.412 353.231 416.316 351.124 415.788V415.833ZM286.747 280.92C284.981 281.996 283.449 283.415 282.242 285.094C281.035 286.773 280.176 288.678 279.719 290.695L259.656 376.678C259.182 378.634 259.103 380.665 259.423 382.652C259.743 384.639 260.456 386.542 261.519 388.25C262.571 389.97 263.951 391.464 265.581 392.648C267.211 393.832 269.058 394.682 271.018 395.149L351.27 415.215C353.296 415.717 355.403 415.806 357.464 415.478C359.526 415.15 361.501 414.411 363.272 413.305C365.003 412.245 366.504 410.848 367.684 409.195C368.865 407.543 369.701 405.67 370.143 403.688L390.206 317.536C390.679 315.58 390.758 313.549 390.438 311.562C390.118 309.575 389.405 307.672 388.342 305.964C387.291 304.244 385.91 302.75 384.28 301.566C382.65 300.382 380.803 299.532 378.844 299.065L298.502 279.168C297.251 278.846 295.965 278.684 294.673 278.684C291.875 278.683 289.132 279.457 286.747 280.92Z" fill="black"/>
<path d="M332.743 343.726C340.243 369.994 318.406 388.858 304.675 406.014C297.826 403.767 290.327 416.901 306.92 424.878C327.466 428.338 338.985 416.249 348.573 407.149C358.161 398.048 364.527 379.061 364.527 379.061C364.527 379.061 369.927 367.297 368.243 345.613C366.559 323.929 345.351 299.92 345.351 299.92C345.351 299.92 335.606 290.819 323.683 298.156C317.957 301.616 316.744 307.144 317.148 312.177C317.526 317.114 319.573 321.774 322.953 325.39C327.666 330.608 331.027 336.904 332.743 343.726Z" fill="#FFB300"/>
<path d="M306.912 425.192H306.822C297.066 420.507 295.595 414.013 297.212 409.867C298.514 406.609 301.703 404.845 304.599 405.677C306.721 403.025 309 400.374 311.403 397.576C324.202 382.689 338.708 365.814 332.432 343.827C330.727 337.084 327.409 330.857 322.765 325.682C319.33 322.019 317.254 317.288 316.882 312.278C316.365 305.863 318.678 300.919 323.562 297.953C335.553 290.583 345.523 299.672 345.646 299.784C345.77 299.897 366.843 324.131 368.606 345.669C370.368 367.207 364.934 379.072 364.934 379.206C364.934 379.341 358.602 398.306 348.902 407.373L347.6 408.62C339.471 416.384 329.636 425.799 314.019 425.799C311.637 425.797 309.26 425.594 306.912 425.192ZM323.888 298.47C319.161 301.335 317.017 305.953 317.522 312.199C317.883 317.066 319.9 321.662 323.236 325.221C327.95 330.475 331.321 336.793 333.06 343.636C339.415 365.926 324.797 382.959 311.897 397.958C309.438 400.812 307.114 403.519 304.959 406.216L304.824 406.396L304.611 406.317C301.95 405.441 298.997 407.058 297.807 410.081C296.246 413.957 297.74 420.069 307.069 424.563C326.504 427.821 337.922 416.923 347.106 408.16L348.408 406.912C357.985 397.924 364.216 379.195 364.283 378.97C364.351 378.746 369.627 367.027 367.966 345.68C366.304 324.333 345.377 300.425 345.186 300.2C341.83 297.388 337.616 295.803 333.24 295.706C329.925 295.73 326.684 296.688 323.888 298.47Z" fill="black"/>
<path d="M321.782 385.677L321.363 386.176L347.717 408.336L348.136 407.838L321.782 385.677Z" fill="#0C0801"/>
<path d="M290.533 202.488C291.274 192.556 295.406 185.129 302.265 181.556C309.125 177.984 317.501 178.882 326.056 183.961C334.386 188.792 341.841 197.173 347.163 207.398L344.154 208.959C333.926 189.309 315.94 178.332 303.86 184.624C291.779 190.915 290.387 211.892 300.716 231.621L297.707 233.182C292.318 223.003 289.792 212.049 290.533 202.488Z" fill="#F7AA00"/>
<path d="M311.166 232.339C308.763 217.418 303.666 205.902 299.714 206.498C295.762 207.093 294.493 219.665 296.795 234.586C299.096 249.506 304.295 261.034 308.247 260.427C312.199 259.82 313.546 247.192 311.166 232.339Z" fill="white"/>
<path d="M307.09 218.204C306.405 215.862 305.572 213.566 304.598 211.329C304.119 210.239 303.496 209.219 302.745 208.295C302.385 207.801 301.921 207.391 301.387 207.093C301.165 206.914 300.91 206.782 300.636 206.705C300.362 206.628 300.075 206.607 299.793 206.643C299.225 206.782 298.722 207.111 298.367 207.576C298.016 208.05 297.701 208.549 297.424 209.07C296.957 210.199 296.625 211.38 296.436 212.587C296.025 215.017 295.848 217.482 295.908 219.946C295.987 222.362 296.099 224.844 296.279 227.294C296.458 229.743 296.829 232.181 297.267 234.597C297.704 237.012 298.109 239.518 298.648 241.776C299.173 244.165 299.825 246.524 300.601 248.843C301.304 251.203 302.248 253.485 303.419 255.652C303.976 256.703 304.642 257.694 305.406 258.606C305.823 259.046 306.278 259.449 306.765 259.809C307.215 260.126 307.769 260.258 308.314 260.179C308.862 260.063 309.346 259.747 309.673 259.292C310.003 258.811 310.285 258.3 310.515 257.764C310.908 256.648 311.19 255.497 311.357 254.326C311.596 251.929 311.675 249.52 311.592 247.113C311.277 242.29 310.719 237.487 309.92 232.72C309.044 227.721 308.247 223.047 307.09 218.204ZM313.366 247.012C313.22 249.514 312.875 252.001 312.334 254.449C312.03 255.573 311.615 256.91 311.211 258.045C310.935 258.637 310.58 259.189 310.155 259.685C309.732 260.233 309.127 260.611 308.449 260.752C307.784 260.822 307.116 260.655 306.563 260.28C306.05 259.914 305.583 259.488 305.171 259.011C304.356 258.067 303.662 257.025 303.105 255.91C301.937 253.714 300.982 251.412 300.253 249.034C298.698 244.359 297.512 239.569 296.705 234.709C295.876 229.845 295.526 224.912 295.661 219.98C295.653 217.503 295.856 215.029 296.267 212.587C296.39 211.35 296.708 210.14 297.21 209.003C297.494 208.426 297.813 207.867 298.165 207.329C298.577 206.758 299.184 206.358 299.871 206.205C300.554 206.118 301.245 206.273 301.825 206.643C302.402 206.934 302.902 207.358 303.284 207.879C304.158 208.775 304.912 209.78 305.53 210.868C306.786 213.027 307.87 215.281 308.774 217.609C310.554 222.267 311.878 227.087 312.726 232.001C313.311 236.982 313.525 241.999 313.366 247.012Z" fill="#0B1B32"/>
<path d="M304.756 236.552C308.236 234.305 310.65 231.777 310.134 231.035C309.617 230.294 306.373 231.316 302.858 233.518C299.344 235.721 296.964 238.293 297.481 239.035C297.986 239.956 301.309 238.72 304.756 236.552Z" fill="#0B1B32"/>
<path d="M321.46 229.07C319.046 214.15 313.96 202.622 310.008 203.229C306.056 203.836 304.788 216.408 307.078 231.317C309.368 246.226 314.578 257.754 318.541 257.158C322.504 256.563 323.941 243.945 321.46 229.07Z" fill="white"/>
<path d="M317.339 215.037C316.653 212.694 315.821 210.398 314.846 208.161C314.367 207.071 313.744 206.051 312.994 205.127C312.604 204.66 312.146 204.254 311.635 203.925C311.176 203.586 310.609 203.426 310.041 203.475C309.752 203.525 309.476 203.633 309.231 203.793C308.986 203.954 308.776 204.163 308.615 204.408C308.264 204.882 307.949 205.381 307.672 205.902C307.205 207.031 306.874 208.212 306.684 209.419C306.273 211.849 306.096 214.314 306.156 216.778C306.235 219.194 306.347 221.677 306.527 224.126C306.732 226.575 307.062 229.013 307.515 231.429C307.885 233.867 308.357 236.35 308.896 238.608C309.421 240.997 310.073 243.356 310.849 245.675C311.598 248.019 312.54 250.297 313.667 252.484C314.225 253.535 314.891 254.526 315.655 255.438C316.074 255.876 316.528 256.278 317.013 256.641C317.464 256.957 318.018 257.089 318.562 257.011C319.11 256.895 319.594 256.579 319.921 256.124C320.251 255.643 320.533 255.132 320.763 254.596C321.157 253.48 321.439 252.329 321.605 251.158C321.843 248.761 321.925 246.352 321.852 243.945C321.583 239.08 320.898 234.26 320.168 229.552C319.36 224.519 318.495 219.699 317.339 215.037ZM323.615 243.844C323.468 246.346 323.123 248.834 322.582 251.281C322.279 252.405 321.863 253.753 321.459 254.877C321.184 255.469 320.828 256.021 320.404 256.517C319.98 257.065 319.375 257.443 318.697 257.584C318.033 257.654 317.365 257.487 316.811 257.112C316.302 256.745 315.839 256.319 315.43 255.843C314.609 254.902 313.911 253.86 313.353 252.742C312.185 250.546 311.23 248.244 310.501 245.866C308.952 241.19 307.766 236.4 306.953 231.541C306.122 226.678 305.776 221.744 305.921 216.812C305.914 214.334 306.124 211.86 306.549 209.419C306.67 208.18 306.992 206.969 307.504 205.835C307.784 205.258 308.099 204.699 308.447 204.161C308.859 203.59 309.466 203.19 310.153 203.037C310.836 202.95 311.527 203.105 312.107 203.475C312.686 203.763 313.187 204.187 313.566 204.711C314.44 205.607 315.194 206.612 315.812 207.7C317.114 209.852 318.241 212.107 319.18 214.441C320.966 219.097 322.29 223.918 323.132 228.833C323.687 233.816 323.849 238.835 323.615 243.844Z" fill="#0B1B32"/>
<path d="M314.534 231.541C318.014 229.294 320.417 226.766 319.912 226.025C319.406 225.283 316.15 226.306 312.636 228.508C309.122 230.71 306.742 233.294 307.247 234.035C307.752 234.777 311.042 233.743 314.534 231.541Z" fill="#0B1B32"/>
<path d="M348.431 225.542C348.379 224.896 348.074 224.297 347.581 223.875C347.089 223.454 346.45 223.246 345.804 223.295L322.227 225.385L322.586 230.284L346.163 228.183C346.81 228.125 347.41 227.817 347.833 227.324C348.257 226.831 348.471 226.191 348.431 225.542Z" fill="#0B1B32"/>
<path d="M360.149 215.431C355.534 206.566 344.992 203.072 336.572 207.465C328.151 211.858 325.008 222.587 329.577 231.373C334.147 240.159 344.734 243.732 353.154 239.339C361.575 234.946 364.729 224.216 360.149 215.431Z" fill="#0A1B33"/>
<path d="M338.192 214.61C337.653 216.351 337.204 217.981 336.8 219.61C336.432 221.246 336.266 222.921 336.306 224.598C336.334 226.255 336.692 227.89 337.361 229.407C338.056 230.926 339.044 232.293 340.269 233.429L339.921 233.979C338.247 233.139 336.814 231.886 335.756 230.339L335.082 229.047C334.87 228.609 334.693 228.154 334.554 227.688C334.296 226.76 334.134 225.807 334.072 224.845C333.982 222.929 334.296 221.015 334.992 219.228C335.289 218.361 335.637 217.513 336.036 216.688C336.429 215.861 336.953 215.103 337.586 214.441L338.192 214.61Z" fill="white"/>
<path d="M448.058 112.963C448.058 112.963 -53.6773 80.4014 76.8432 172.89C207.364 265.378 636.848 135.837 460.81 246.213C284.773 356.589 -13.1946 391.428 129.884 432.026C272.963 472.625 648.089 364.997 448.857 440.612" stroke="white" stroke-opacity="0.24" stroke-width="2" stroke-miterlimit="10"/>
</svg>
