<svg  viewBox="0 0 676 645" preserveAspectRatio="xMidYMid" fill="none" xmlns="http://www.w3.org/2000/svg">
<path d="M512.655 515.981C512 516 512 516 511.864 515.893C512.827 516 339.378 498.998 229.23 487.367L226.724 487.089C117.148 474.926 80.8896 400.295 79.2101 395.651C77.7476 391.566 79.2391 386.639 82.5521 384.59C85.8651 382.541 89.6388 384.121 91.163 388.057C91.609 389.063 127.706 457.258 231.397 468.148C341.59 479.776 512.276 498.309 514 498.5C514.524 498.558 550.202 504.157 570.096 477.058C572.617 473.634 576.768 473.271 579.369 476.259C581.97 479.247 582.063 484.405 579.537 487.875C556.319 519.4 518.751 516.658 512.655 515.981Z" fill="#FFE248"/>
<path d="M198.024 538.303C208.465 521.683 207.394 503.339 195.632 497.331C183.869 491.323 165.87 499.925 155.429 516.545C144.988 533.165 146.059 551.509 157.821 557.517C169.584 563.525 187.583 554.923 198.024 538.303Z" fill="#FFE248"/>
<path d="M167.405 545.3C165.953 544.839 164.64 544.074 163.58 543.071C157.891 537.745 159.076 526.315 166.221 517.59C173.367 508.864 183.788 506.103 189.483 511.44C192.306 514.083 193.546 518.252 192.93 523.167C192.264 528.165 190.17 532.896 186.845 536.913C183.46 541.061 179.223 544.007 174.919 545.218C172.516 545.977 169.875 546.006 167.405 545.3ZM184.086 513.362C179.718 511.99 173.599 514.619 169.012 520.214C163.425 527.03 162.257 535.765 166.387 539.641C168.317 541.456 171.16 541.997 174.414 541.039C177.845 540.077 181.263 537.68 184.037 534.283C186.748 531.048 188.465 527.231 189.028 523.192C189.445 519.63 188.61 516.676 186.671 514.859C185.954 514.184 185.067 513.67 184.086 513.362Z" fill="white"/>
<path d="M454.528 570.712C473.013 564.744 485.3 550.525 481.971 538.953C478.641 527.381 460.957 522.838 442.471 528.806C423.985 534.773 411.699 548.992 415.028 560.564C418.358 572.136 436.042 576.68 454.528 570.712Z" fill="#FFE248"/>
<path d="M428.872 554.687C428.656 553.282 428.761 551.839 429.18 550.475C431.407 542.935 441.872 536.455 452.522 536.03C463.172 535.606 469.993 541.407 467.816 548.981C466.717 552.721 463.637 556.28 459.066 559.041C454.604 561.703 449.6 563.208 444.486 563.428C439.433 563.628 435.055 562.45 432.168 560.115C430.44 558.813 429.262 556.873 428.872 554.687ZM463.821 546.273C463.161 542.249 458.258 539.469 451.429 539.745C443.083 540.078 434.981 544.817 433.368 550.315C432.991 551.541 433.001 552.855 433.396 554.064C433.792 555.272 434.552 556.311 435.565 557.03C437.868 558.893 441.409 559.83 445.557 559.674C449.691 559.505 453.738 558.3 457.351 556.161C460.623 554.162 462.855 551.672 463.636 549.136C463.916 548.215 463.984 547.242 463.835 546.296L463.821 546.273Z" fill="white"/>
<path d="M483.964 397.487C483.964 397.487 485.113 372.722 500.862 364.173C516.611 355.624 537.315 349.606 554.023 357.665C570.731 365.724 607.024 395.747 604.15 421.811C601.275 447.875 573.35 447.618 573.35 447.618C573.35 447.618 557.295 445.345 551.273 433.935C545.25 422.524 545.413 420.06 545.413 420.06L483.964 397.487Z" fill="white" stroke="black" stroke-miterlimit="10"/>
<path d="M536.519 456.763L548.88 450.069L548.078 436.293L560.396 429.576" stroke="#74B7F5" stroke-width="2" stroke-linecap="round" stroke-linejoin="round"/>
<path d="M632.489 413.501L617.945 402.358L578.064 454.651L592.639 465.752L632.489 413.501Z" fill="#74B7F5"/>
<path d="M543.56 458.415L556.09 452.036L555.65 438.171L568.157 431.827" stroke="#74B7F5" stroke-width="2" stroke-linecap="round" stroke-linejoin="round"/>
<path d="M504.895 307.919C504.895 307.919 553.25 390.87 533.647 466.389C523.024 490.093 500.846 484.307 500.846 484.307C500.846 484.307 479.77 478.263 478.252 459.277C476.733 440.292 483.854 401.892 468.589 365.165C453.324 328.438 441.527 312.053 441.527 312.053L504.895 307.919Z" fill="white" stroke="black" stroke-miterlimit="10"/>
<path d="M464.363 454.744L474.966 463.968L487.618 458.326L498.195 467.538" stroke="#74B7F5" stroke-width="2" stroke-linecap="round" stroke-linejoin="round"/>
<path d="M464.412 447.879L475.302 456.774L487.785 450.816L498.628 459.706" stroke="#74B7F5" stroke-width="2" stroke-linecap="round" stroke-linejoin="round"/>
<path d="M465.439 493.471L539.298 501.318L542.269 479.052L469.643 471.351L465.439 493.471Z" fill="#74B7F5"/>
<path d="M326.753 250.325C326.753 250.325 328.939 275.71 319.528 275.072C310.346 274.461 280.245 260.396 274.151 246.884C273.826 246.135 273.435 245.416 272.983 244.736C266.347 234.85 274.76 228.727 282.006 230.115C282.308 230.17 282.613 230.204 282.92 230.216C288.034 230.395 303.921 241.012 306.288 242.191C308.655 243.371 313.83 245.908 313.83 245.908L326.753 250.325Z" fill="white" stroke="black" stroke-miterlimit="10"/>
<path d="M292.415 263.496L305.994 242.001" stroke="black" stroke-miterlimit="10"/>
<path d="M289.755 249.06L284.17 247.709C283.189 247.434 282.357 246.782 281.854 245.896C281.352 245.009 281.219 243.959 281.486 242.975L281.585 242.662C282.538 239.582 285.756 240.588 285.756 240.588L291.399 242.335" stroke="#22344E" stroke-miterlimit="10"/>
<path d="M182.113 229.306C182.113 229.306 174.886 230.494 171.528 230.992C168.171 231.49 143.84 232.188 138.391 235.778C138.074 235.994 137.743 236.189 137.401 236.362C128.779 240.286 124.543 252.863 138.727 258.253C139.698 258.625 140.631 259.088 141.515 259.637C157.815 269.197 199.484 261.636 209.5 255.488C219.769 249.219 198.798 224.407 198.798 224.407L182.113 229.306Z" fill="white" stroke="black" stroke-miterlimit="10"/>
<path d="M155.785 243.32L148.633 245.665C148.633 245.665 144.536 246.998 145.813 250.908L145.936 251.302C146.385 252.523 147.296 253.517 148.472 254.071C149.648 254.624 150.995 254.692 152.221 254.259L158.998 251.539" fill="white"/>
<path d="M155.785 243.32L148.633 245.665C148.633 245.665 144.536 246.998 145.813 250.908L145.936 251.302C146.385 252.523 147.296 253.517 148.472 254.071C149.648 254.624 150.995 254.692 152.221 254.259L158.998 251.539" stroke="#22344E" stroke-miterlimit="10"/>
<path d="M176.248 229.979L177.934 262.374" stroke="black" stroke-miterlimit="10"/>
<path d="M211.438 272.779C211.438 272.779 160.698 354.315 178.119 430.36C188.045 454.354 210.382 449.203 210.382 449.203C210.382 449.203 231.628 443.801 233.696 424.834C235.764 405.867 229.748 367.323 246.077 331.048C262.406 294.772 274.68 278.697 274.68 278.697L211.438 272.779Z" fill="white" stroke="black" stroke-miterlimit="10"/>
<path d="M248.186 410.208L237.301 419.187L224.797 413.168L213.974 422.089" stroke="#74B7F5" stroke-width="2" stroke-linecap="round" stroke-linejoin="round"/>
<path d="M248.335 403.363L237.208 411.943L224.894 405.632L213.767 414.203" stroke="#74B7F5" stroke-width="2" stroke-linecap="round" stroke-linejoin="round"/>
<path d="M240.152 470.5L166.331 462.306L168.482 442.922L242.303 451.116L240.152 470.5Z" fill="#74B7F5"/>
<path d="M233.423 262.894C233.423 262.894 138.124 251.944 76.9525 300.291C59.5687 319.568 73.7394 337.569 73.7394 337.569C73.7394 337.569 87.708 354.473 105.71 348.211C123.712 341.949 155.924 319.994 195.61 319.213C235.296 318.433 255.076 322.647 255.076 322.647L233.423 262.894Z" fill="white" stroke="black" stroke-miterlimit="10"/>
<path d="M125.084 355.075L112.416 349.039L112.487 335.156L99.8008 329.191" stroke="#74B7F5" stroke-width="2" stroke-linecap="round" stroke-linejoin="round"/>
<path d="M131.344 352.26L118.826 345.861L119.253 332.018L106.768 325.668" stroke="#74B7F5" stroke-width="2" stroke-linecap="round" stroke-linejoin="round"/>
<path d="M67.2552 373.64L43.0526 303.352L61.4637 296.987L85.6663 367.275L67.2552 373.64Z" fill="#74B7F5"/>
<path d="M229.416 129.987L228.95 129.935L229.002 129.469C230.246 118.263 234.166 107.947 240.025 100.494C246.153 92.7843 253.611 88.9355 261.222 89.7804C268.833 90.6253 275.329 96.023 279.544 104.881C283.69 113.444 285.244 124.368 284 135.574L283.948 136.04L279.681 135.567L279.733 135.1C280.918 124.425 279.367 114.483 275.913 107.015C272.459 99.5474 267.104 94.7116 260.781 94.0098C254.457 93.3079 248.161 96.8687 243.091 103.372C238.022 109.875 234.359 119.21 233.169 129.931L233.117 130.398L229.37 129.982L229.416 129.987Z" fill="#74B7F5" stroke="#22344E"/>
<path d="M223.392 157.424C219.874 155.783 221.961 143.652 228.116 130.287C234.27 116.923 242.136 107.479 245.713 109.09C249.289 110.7 247.144 122.861 240.989 136.226C234.834 149.591 226.911 159.056 223.392 157.424Z" fill="white"/>
<path d="M245.212 122.601C245.937 120.351 246.501 118.052 246.901 115.722C247.098 114.564 247.155 113.385 247.068 112.213C247.029 111.639 246.902 111.075 246.689 110.541C246.51 110.013 246.14 109.573 245.652 109.305C245.137 109.089 244.562 109.065 244.031 109.236C243.469 109.418 242.932 109.67 242.431 109.985C241.443 110.644 240.533 111.413 239.716 112.276C238.081 114.019 236.597 115.899 235.282 117.896C233.988 119.882 232.754 121.921 231.622 124.037C230.49 126.152 229.419 128.293 228.446 130.481C227.472 132.67 226.494 134.895 225.633 137.068C224.772 139.242 224.029 141.52 223.367 143.818C222.688 146.11 222.222 148.461 221.977 150.84C221.836 152.012 221.838 153.197 221.983 154.369C222.035 154.948 222.181 155.515 222.416 156.047C222.6 156.557 222.97 156.979 223.451 157.227C223.956 157.424 224.516 157.427 225.023 157.235C225.554 157.056 226.056 156.8 226.513 156.474C227.45 155.787 228.308 154.997 229.069 154.118C230.595 152.311 231.972 150.383 233.187 148.353C235.563 144.278 237.732 140.087 239.687 135.795C241.654 131.401 243.541 127.073 245.212 122.601ZM234.676 149.351C233.19 151.29 231.562 153.115 229.806 154.811C228.905 155.638 227.94 156.392 226.919 157.065C226.398 157.406 225.823 157.656 225.219 157.803C224.577 158.002 223.887 157.968 223.268 157.707C222.685 157.401 222.238 156.889 222.012 156.271C221.817 155.693 221.678 155.098 221.599 154.493C221.463 153.284 221.465 152.063 221.605 150.854C221.869 148.459 222.321 146.088 222.957 143.763C225.475 134.473 229.544 125.675 234.993 117.744C236.326 115.744 237.828 113.863 239.484 112.121C240.283 111.21 241.2 110.408 242.209 109.738C242.734 109.412 243.288 109.135 243.864 108.912C244.483 108.706 245.154 108.719 245.766 108.947C246.355 109.235 246.82 109.728 247.073 110.333C247.328 110.907 247.503 111.512 247.595 112.132C247.787 113.341 247.84 114.568 247.753 115.789C247.577 118.22 247.232 120.635 246.719 123.018C245.677 127.768 244.131 132.392 242.108 136.813C240.046 141.226 237.557 145.426 234.676 149.351Z" fill="#22344E"/>
<path d="M227.573 130.931C227.537 130.001 230.774 129.092 234.813 128.956C238.852 128.821 242.156 129.466 242.161 130.42C242.166 131.375 238.96 132.26 234.931 132.396C230.901 132.532 227.605 131.888 227.573 130.931Z" fill="#22344E"/>
<path d="M233.505 160.398C229.988 158.758 232.073 146.636 238.229 133.262C244.385 119.888 252.248 110.463 255.826 112.064C259.404 113.665 257.258 125.827 251.093 139.2C244.928 152.573 237.006 162.028 233.505 160.398Z" fill="white"/>
<path d="M255.306 125.573C256.025 123.322 256.589 121.024 256.995 118.695C257.189 117.536 257.245 116.358 257.162 115.186C257.123 114.612 256.996 114.048 256.783 113.514C256.604 112.986 256.234 112.545 255.746 112.278C255.234 112.062 254.662 112.038 254.135 112.21C253.57 112.388 253.032 112.639 252.534 112.959C251.544 113.614 250.631 114.38 249.811 115.24C248.173 116.985 246.689 118.868 245.376 120.869C244.092 122.847 242.857 124.895 241.725 127.011C240.592 129.126 239.514 131.257 238.54 133.454C237.565 135.652 236.597 137.869 235.737 140.033C234.877 142.197 234.115 144.483 233.471 146.782C232.809 149.063 232.357 151.4 232.123 153.763C231.982 154.935 231.984 156.12 232.129 157.292C232.183 157.87 232.326 158.435 232.553 158.969C232.637 159.229 232.775 159.468 232.956 159.671C233.136 159.876 233.358 160.039 233.606 160.151C233.853 160.262 234.121 160.32 234.392 160.321C234.662 160.323 234.93 160.268 235.177 160.159C235.706 159.979 236.205 159.722 236.659 159.397C237.601 158.716 238.458 157.925 239.214 157.041C240.739 155.233 242.116 153.305 243.332 151.276C245.711 147.201 247.878 143.006 249.824 138.707C251.757 134.375 253.635 130.046 255.306 125.573ZM244.715 152.318C243.222 154.248 241.598 156.073 239.854 157.779C238.95 158.606 237.982 159.36 236.958 160.032C236.432 160.37 235.855 160.618 235.249 160.768C234.607 160.965 233.916 160.928 233.299 160.663C232.722 160.362 232.279 159.853 232.061 159.238C231.864 158.66 231.722 158.065 231.638 157.46C231.505 156.248 231.51 155.024 231.655 153.813C231.911 151.42 232.36 149.051 232.996 146.73C235.517 137.442 239.583 128.645 245.023 120.709C246.362 118.714 247.865 116.833 249.514 115.087C250.319 114.178 251.238 113.377 252.248 112.705C252.773 112.373 253.33 112.097 253.912 111.88C254.53 111.666 255.204 111.678 255.814 111.915C256.407 112.194 256.872 112.69 257.112 113.3C257.379 113.868 257.561 114.471 257.653 115.092C257.842 116.304 257.891 117.534 257.802 118.757C257.67 121.191 257.346 123.61 256.832 125.993C255.786 130.742 254.237 135.367 252.211 139.787C250.151 144.212 247.639 148.411 244.715 152.318Z" fill="#22344E"/>
<path d="M237.684 133.923C237.648 132.993 240.885 132.084 244.915 131.948C248.944 131.812 252.258 132.458 252.273 133.404C252.288 134.35 249.071 135.252 245.042 135.379C241.014 135.506 237.716 134.881 237.684 133.923Z" fill="#22344E"/>
<path d="M271.512 151.829L251.331 140.726L253.644 136.556L273.825 147.659C274.102 147.808 274.344 148.015 274.535 148.265C274.731 148.509 274.876 148.79 274.961 149.091C275.052 149.393 275.076 149.712 275.033 150.025C274.999 150.339 274.902 150.643 274.749 150.919C274.599 151.194 274.396 151.436 274.152 151.631C273.908 151.826 273.628 151.971 273.327 152.058C273.024 152.143 272.707 152.168 272.394 152.13C272.083 152.089 271.783 151.987 271.512 151.829Z" fill="#22344E"/>
<path d="M300.856 219.589C302.523 223.127 302.733 227.18 301.44 230.872C301.44 230.872 301.44 230.872 301.44 230.872L272.675 312.179C272.014 314.043 270.991 315.756 269.663 317.221L269.662 317.223C268.346 318.688 266.748 319.872 264.964 320.704L264.963 320.704C263.18 321.542 261.251 322.018 259.284 322.108C257.318 322.197 255.353 321.897 253.502 321.224L252.905 321.007L252.898 321.068L177.83 293.322L177.828 293.322C174.152 291.98 171.152 289.243 169.477 285.704C167.802 282.165 167.585 278.107 168.874 274.409C168.874 274.409 168.874 274.408 168.874 274.408L197.63 193.1L197.631 193.098C198.281 191.227 199.299 189.504 200.623 188.032C201.947 186.559 203.552 185.366 205.342 184.523C207.133 183.679 209.074 183.202 211.051 183.12C213.028 183.037 215.001 183.351 216.856 184.042L216.857 184.042L292.531 211.964L292.531 211.964C296.198 213.313 299.189 216.052 300.856 219.589Z" fill="#74B7F5" stroke="white"/>
<path d="M244.76 248.251C241.862 244.388 240.37 239.648 240.535 234.818C240.716 230.022 242.493 224.682 248.357 221.934C260.767 215.968 269.245 225.836 269.245 225.836C269.245 225.836 287.261 251.284 286.67 272.517C286.08 293.751 279.609 304.552 279.609 304.552C279.609 304.552 271.565 322.18 261.192 330.049C250.819 337.917 238.505 348.357 218.903 342.949C203.674 333.48 212.253 321.523 218.65 324.4C233.722 309.192 256.731 293.16 252.246 266.899C251.325 260.16 248.754 253.754 244.76 248.251Z" fill="white" stroke="#0C0801" stroke-miterlimit="10"/>
<path d="M237.016 306.594L260.229 330.794" stroke="#0C0801" stroke-width="1.02" stroke-miterlimit="10"/>
<path d="M271.028 164.767C261.79 163.742 255.174 155.099 256.243 145.466C257.312 135.834 265.709 128.857 274.901 129.878C284.093 130.898 290.764 139.547 289.695 149.18C288.626 158.812 280.266 165.792 271.028 164.767Z" fill="#74B7F5"/>
<path d="M272.08 136.122C271.223 136.368 270.397 136.712 269.617 137.145C267.198 138.413 265.152 140.293 263.684 142.598C263.169 143.391 262.763 144.249 262.475 145.149C262.324 145.595 262.218 146.055 262.157 146.522L262.002 147.912C261.929 149.753 262.388 151.576 263.325 153.161L263.859 152.934C263.5 151.328 263.436 149.67 263.671 148.042C263.911 146.452 264.502 144.935 265.403 143.604C266.284 142.239 267.324 140.983 268.501 139.864C269.694 138.7 270.999 137.613 272.349 136.531L272.08 136.122Z" fill="white"/>
<path d="M329.31 172.191L329.764 172.102L329.685 171.649C327.864 161.39 328.759 151.664 331.655 144.234C334.552 136.805 339.432 131.762 345.528 130.67C351.625 129.578 357.916 132.648 363.146 138.618C368.375 144.588 372.603 153.419 374.396 163.684L374.475 164.138L374.928 164.058L378.126 163.487L378.58 163.408L378.5 162.955C376.588 152.185 372.156 142.442 365.938 135.631C359.565 128.543 352.044 125.3 344.74 126.61C337.435 127.92 331.51 133.541 327.918 142.403C324.49 150.958 323.665 161.637 325.577 172.406L325.657 172.859L326.109 172.78L329.31 172.191Z" fill="white" fill-opacity="0.77"/>
<path d="M391.533 349.963C391.533 349.963 393.469 348.52 405.914 347.401C418.36 346.282 428.703 358.182 428.703 358.182C428.703 358.182 443.704 380.785 424.041 396.928C404.378 413.072 360.728 399.402 345.33 390.043C329.931 380.685 323.899 360.614 322.474 343.287C321.049 325.96 342.283 296.906 342.283 296.906L391.533 349.963Z" fill="white" stroke="black" stroke-miterlimit="10"/>
<path d="M413.518 361.228L412.043 347.683L423.567 340.693L422.107 327.103" stroke="#74B7F5" stroke-width="2" stroke-linecap="round" stroke-linejoin="round"/>
<path d="M407.045 357.213L405.981 343.631L417.655 336.962L416.614 323.336" stroke="#74B7F5" stroke-width="2" stroke-linecap="round" stroke-linejoin="round"/>
<path d="M457 381L435.454 369.942L404.142 437.364L428.5 448.5L457 381Z" fill="#74B7F5"/>
<path d="M399.034 293.13C399.034 293.13 394.15 312.128 393.314 350.743C392.478 389.359 412.459 421.516 417.807 439.251C423.155 456.986 406.202 469.884 406.202 469.884C406.202 469.884 388.191 482.979 370.211 465.296C325.82 403.963 340.256 311.831 340.256 311.831L399.034 293.13Z" fill="white" stroke="black" stroke-miterlimit="10"/>
<path d="M399.126 444.29L405.425 432.209L418.885 432.778L425.233 420.675" stroke="#FFE248" stroke-width="2" stroke-linecap="round" stroke-linejoin="round"/>
<path d="M395.985 437.347L402.682 425.506L416.081 426.465L422.776 414.568" stroke="#FFE248" stroke-width="2" stroke-linecap="round" stroke-linejoin="round"/>
<path d="M416.917 470.685L345.212 462.929L343.178 481.752L414.883 489.508L416.917 470.685Z" fill="#74B7F5"/>
<path d="M338.546 175.411C340.629 161.316 339.274 149.433 335.515 148.886C331.755 148.339 327.031 159.316 324.949 173.411C322.866 187.505 324.219 199.398 327.979 199.945C331.738 200.492 336.462 189.515 338.546 175.411Z" fill="white"/>
<path d="M338.793 161.519C338.86 159.224 338.766 156.927 338.511 154.645C338.378 153.509 338.107 152.394 337.705 151.323C337.508 150.802 337.235 150.313 336.894 149.872C336.579 149.432 336.112 149.126 335.584 149.013C335.047 148.95 334.507 149.084 334.062 149.391C333.586 149.701 333.152 150.074 332.773 150.498C332.026 151.376 331.385 152.34 330.864 153.37C329.832 155.444 328.974 157.601 328.298 159.817C327.646 162.023 327.05 164.309 326.579 166.553C326.108 168.798 325.688 171.085 325.382 173.421C325.076 175.758 324.769 178.03 324.615 180.328C324.462 182.626 324.336 184.927 324.357 187.235C324.351 189.56 324.561 191.881 324.985 194.167C325.172 195.297 325.497 196.4 325.952 197.451C326.163 197.971 326.452 198.456 326.81 198.889C327.122 199.318 327.585 199.611 328.106 199.709C328.63 199.754 329.153 199.601 329.569 199.278C330.015 198.961 330.41 198.577 330.741 198.14C331.431 197.243 332.017 196.27 332.487 195.241C333.407 193.14 334.158 190.969 334.734 188.748C335.832 184.299 336.705 179.797 337.351 175.259C337.895 170.689 338.465 166.141 338.793 161.519ZM336.308 189.321C335.454 191.534 334.44 193.68 333.273 195.745C332.657 196.759 331.966 197.726 331.204 198.636C330.809 199.103 330.34 199.502 329.815 199.815C329.271 200.173 328.619 200.329 327.972 200.259C327.35 200.138 326.797 199.785 326.425 199.272C326.078 198.787 325.783 198.267 325.543 197.72C325.084 196.629 324.751 195.489 324.551 194.323C324.138 192.023 323.911 189.694 323.872 187.357C323.745 182.693 324.037 178.027 324.745 173.415C325.408 168.799 326.479 164.251 327.946 159.825C328.646 157.599 329.53 155.436 330.587 153.358C331.087 152.291 331.724 151.294 332.48 150.391C332.877 149.937 333.32 149.523 333.801 149.158C334.32 148.792 334.952 148.622 335.584 148.68C336.212 148.775 336.78 149.107 337.174 149.607C337.575 150.064 337.908 150.579 338.16 151.133C338.687 152.221 339.081 153.369 339.335 154.551C339.835 156.863 340.178 159.206 340.361 161.564C340.68 166.273 340.505 171.002 339.839 175.674C339.107 180.327 337.924 184.898 336.308 189.321Z" fill="#22344E"/>
<path d="M331.909 173.461C335.617 172.215 338.391 170.476 338.098 169.62C337.804 168.763 334.554 169.041 330.846 170.278C327.139 171.515 324.355 173.262 324.648 174.118C324.942 174.975 328.192 174.697 331.909 173.461Z" fill="#22344E"/>
<path d="M348.767 175.407C350.85 161.312 349.496 149.429 345.745 148.883C341.995 148.337 337.262 159.313 335.179 173.408C333.096 187.502 334.451 199.386 338.2 199.941C341.949 200.496 346.684 189.511 348.767 175.407Z" fill="white"/>
<path d="M349.016 161.506C349.078 159.214 348.984 156.92 348.733 154.641C348.596 153.506 348.325 152.391 347.927 151.319C347.744 150.802 347.487 150.315 347.162 149.873C347.017 149.645 346.825 149.45 346.6 149.3C346.374 149.151 346.12 149.05 345.853 149.005C345.586 148.959 345.313 148.97 345.051 149.037C344.788 149.104 344.543 149.225 344.33 149.392C343.853 149.703 343.42 150.075 343.042 150.499C342.296 151.376 341.655 152.336 341.133 153.362C340.101 155.439 339.242 157.599 338.566 159.818C337.914 162.024 337.318 164.31 336.847 166.554C336.376 168.799 335.955 171.086 335.651 173.413C335.346 175.741 335.037 178.031 334.838 180.324C334.639 182.617 334.558 184.923 334.579 187.231C334.571 189.553 334.778 191.87 335.199 194.153C335.389 195.286 335.717 196.393 336.174 197.447C336.386 197.967 336.675 198.452 337.032 198.885C337.345 199.311 337.81 199.601 338.33 199.696C338.852 199.74 339.372 199.59 339.792 199.274C340.233 198.952 340.628 198.568 340.964 198.136C341.655 197.241 342.237 196.267 342.701 195.236C343.629 193.134 344.384 190.96 344.958 188.735C346.057 184.289 346.927 179.79 347.564 175.254C348.117 170.686 348.679 166.127 349.016 161.506ZM346.473 189.33C345.621 191.539 344.607 193.683 343.44 195.744C342.829 196.765 342.137 197.735 341.37 198.644C340.973 199.109 340.504 199.507 339.98 199.823C339.437 200.181 338.784 200.335 338.138 200.258C337.517 200.135 336.965 199.783 336.591 199.271C336.244 198.789 335.948 198.272 335.708 197.728C335.25 196.638 334.92 195.498 334.726 194.332C334.307 192.032 334.077 189.703 334.037 187.366C333.909 182.699 334.205 178.029 334.92 173.416C335.581 168.8 336.65 164.251 338.112 159.824C338.814 157.602 339.697 155.442 340.753 153.366C341.253 152.296 341.89 151.296 342.647 150.391C343.046 149.941 343.488 149.531 343.966 149.166C344.485 148.8 345.117 148.63 345.749 148.688C346.379 148.783 346.95 149.111 347.349 149.607C347.743 150.072 348.072 150.588 348.326 151.141C348.841 152.212 349.228 153.34 349.479 154.501C350.026 156.804 350.385 159.148 350.551 161.51C350.88 166.216 350.705 170.943 350.031 175.612C349.318 180.294 348.126 184.891 346.473 189.33Z" fill="#22344E"/>
<path d="M342.137 173.467C345.854 172.231 348.629 170.484 348.335 169.636C348.04 168.788 344.792 169.048 341.074 170.293C337.356 171.538 334.592 173.278 334.886 174.125C335.181 174.973 338.428 174.713 342.137 173.467Z" fill="#22344E"/>
<path d="M374.078 179.8C374.145 179.503 374.153 179.195 374.102 178.895C374.05 178.594 373.94 178.307 373.776 178.049C373.613 177.792 373.4 177.569 373.151 177.395C372.901 177.22 372.62 177.096 372.322 177.031L350.479 172.235L349.469 176.754L371.312 181.549C371.608 181.617 371.915 181.625 372.215 181.574C372.514 181.522 372.801 181.412 373.058 181.25C373.315 181.087 373.537 180.875 373.712 180.627C373.887 180.378 374.011 180.097 374.078 179.8Z" fill="#22344E"/>
<path d="M320.3 228.488L320.298 228.488C318.35 228.349 316.393 228.601 314.543 229.227C312.693 229.853 310.986 230.842 309.522 232.136C308.057 233.43 306.865 235.003 306.014 236.763C305.163 238.524 304.671 240.436 304.567 242.388L304.567 242.388L299.964 327.601C299.964 327.601 299.964 327.601 299.964 327.602C299.758 331.474 301.085 335.271 303.657 338.17C306.229 341.069 309.838 342.837 313.703 343.09L313.704 343.09L393.349 348.458C393.349 348.458 393.35 348.458 393.351 348.458C395.297 348.578 397.247 348.311 399.09 347.674C400.934 347.036 402.634 346.04 404.092 344.742C405.549 343.445 406.737 341.871 407.585 340.113C408.434 338.355 408.927 336.446 409.036 334.497L320.3 228.488ZM320.3 228.488L399.934 233.8C399.934 233.8 399.934 233.8 399.935 233.8C403.791 234.064 407.39 235.834 409.955 238.728C412.52 241.623 413.846 245.41 413.649 249.276C413.649 249.276 413.649 249.276 413.649 249.277L409.036 334.496L320.3 228.488Z" fill="#F7F4F4" stroke="#5C6E85"/>
<path d="M305.056 251.454C279.301 250.151 268.967 224.917 257.786 207.396C261.916 201.937 252.398 191.277 240.194 203.721C230.859 221.15 238.149 235.053 243.385 246.553C248.62 258.052 263.591 269.428 263.591 269.428C263.591 269.428 272.437 277.818 292.406 282.915C312.375 288.012 340.318 276.278 340.318 276.278C340.318 276.278 351.457 270.338 348.454 257.308C347.07 251.117 342.424 248.305 337.917 247.156C333.391 245.984 328.599 246.397 324.338 248.325C318.268 250.948 311.642 252.023 305.056 251.454Z" fill="white" stroke="#0C0801" stroke-miterlimit="10"/>
<path d="M242.923 245.539L270.778 228.674" stroke="#0C0801" stroke-width="1.02" stroke-miterlimit="10"/>
<path d="M387.507 174.058C385.863 164.791 377.333 158.556 368.444 160.135C359.555 161.713 353.692 170.536 355.329 179.784C356.967 189.031 365.514 195.277 374.394 193.698C383.273 192.118 389.152 183.325 387.507 174.058Z" fill="#74B7F5"/>
<path d="M367.917 167.049C366.951 168.424 366.04 169.795 365.245 171.207C364.458 172.577 363.83 174.033 363.376 175.546C362.913 177.028 362.777 178.593 362.978 180.132C363.204 181.716 363.717 183.245 364.493 184.644L364.057 184.993C362.752 183.775 361.825 182.206 361.386 180.474L361.154 179.143C361.076 178.694 361.05 178.237 361.074 177.782C361.088 176.857 361.224 175.938 361.479 175.049C362.227 172.507 363.614 170.199 365.507 168.347C366.123 167.732 366.804 167.187 367.538 166.72L367.917 167.049Z" fill="white"/>
<path d="M455.809 216.561L476.3 206.037L474.107 201.802L453.616 212.317C453.09 212.627 452.703 213.128 452.534 213.716C452.365 214.304 452.426 214.934 452.707 215.477C452.988 216.021 453.466 216.436 454.043 216.637C454.619 216.839 455.251 216.811 455.809 216.561Z" fill="#22344E"/>
<path d="M539.82 303.285C539.82 303.285 546.773 305.567 550.006 306.611C553.238 307.655 577.147 312.096 581.994 316.505C582.29 316.768 582.603 317.01 582.932 317.23C590.842 322.46 593.053 335.54 578.204 338.652C577.189 338.867 576.198 339.179 575.243 339.583C557.651 346.483 517.67 332.507 508.729 324.884C499.551 317.077 524.153 295.851 524.153 295.851L539.82 303.285Z" fill="white" stroke="black" stroke-miterlimit="10"/>
<path d="M563.654 321.229L570.358 324.659C570.358 324.659 574.193 326.612 572.325 330.276L572.136 330.644C571.504 331.787 570.445 332.634 569.191 332.998C567.937 333.362 566.591 333.214 565.446 332.587L559.146 328.841" stroke="#22344E" stroke-miterlimit="10"/>
<path d="M550.606 307.946L543.893 339.668" stroke="black" stroke-miterlimit="10"/>
<path d="M563.654 321.229L570.358 324.659C570.358 324.659 574.193 326.612 572.325 330.276L572.136 330.644C571.504 331.787 570.445 332.634 569.191 332.998C567.937 333.362 566.591 333.214 565.446 332.587L559.146 328.841" fill="white"/>
<path d="M498.465 195.941L498.941 195.901L498.901 195.433C497.981 184.219 494.376 173.78 488.719 166.161C482.823 158.283 475.475 154.226 467.849 154.852C460.222 155.478 453.549 160.673 449.089 169.438C444.683 177.886 442.82 188.745 443.738 199.978L443.778 200.455L448.053 200.105L448.013 199.629C447.138 188.928 448.986 179.039 452.653 171.668C456.32 164.296 461.806 159.626 468.154 159.099C474.503 158.573 480.679 162.342 485.513 168.963C490.346 175.583 493.783 185.04 494.661 195.796L494.702 196.264L498.436 195.956L498.465 195.941Z" fill="white"/>
<path d="M503.73 223.51C507.332 221.974 505.564 209.823 499.813 196.22C494.061 182.617 486.448 173.039 482.838 174.564C479.227 176.09 481.013 188.253 486.773 201.857C492.534 215.461 500.189 225.08 503.73 223.51Z" fill="white"/>
<path d="M488.05 201.35C489.872 205.693 491.917 209.938 494.177 214.069C495.341 216.134 496.669 218.102 498.148 219.955C498.882 220.863 499.723 221.678 500.654 222.382C501.096 222.731 501.589 223.011 502.116 223.211C502.359 223.334 502.626 223.401 502.898 223.409C503.173 223.422 503.447 223.373 503.701 223.266C503.952 223.161 504.177 223.002 504.359 222.8C504.542 222.597 504.677 222.357 504.755 222.096C504.997 221.573 505.162 221.017 505.244 220.446C505.415 219.272 505.448 218.083 505.342 216.901C505.165 214.519 504.764 212.158 504.145 209.851C503.568 207.546 502.878 205.256 502.08 203.028C501.282 200.8 500.429 198.576 499.462 196.366C498.496 194.157 497.552 191.996 496.486 189.85C495.42 187.704 494.246 185.61 493.027 183.595C491.762 181.564 490.332 179.64 488.754 177.842C487.967 176.955 487.076 176.166 486.101 175.492C485.613 175.171 485.084 174.916 484.529 174.734C484.009 174.539 483.435 174.545 482.918 174.75C482.43 175.014 482.054 175.446 481.858 175.965C481.641 176.492 481.498 177.047 481.435 177.613C481.32 178.784 481.344 179.965 481.507 181.131C481.851 183.47 482.358 185.782 483.023 188.05C484.47 192.6 486.241 196.982 488.05 201.35ZM485.613 202.386C483.721 197.907 482.311 193.24 481.405 188.463C480.966 186.063 480.695 183.634 480.593 181.196C480.527 179.965 480.612 178.73 480.844 177.52C480.957 176.9 481.155 176.299 481.431 175.733C481.688 175.129 482.169 174.648 482.773 174.391C483.388 174.162 484.064 174.165 484.677 174.398C485.248 174.637 485.795 174.93 486.31 175.274C487.299 175.98 488.195 176.808 488.978 177.737C490.574 179.528 492.019 181.448 493.299 183.477C495.915 187.501 498.171 191.749 500.039 196.171C501.96 200.581 503.477 205.157 504.571 209.843C505.137 212.178 505.517 214.555 505.706 216.951C505.814 218.166 505.784 219.39 505.615 220.599C505.522 221.214 505.362 221.817 505.138 222.398C504.907 223.011 504.451 223.513 503.863 223.803C503.235 224.039 502.544 224.054 501.906 223.845C501.303 223.664 500.732 223.391 500.211 223.036C499.214 222.329 498.274 221.543 497.401 220.687C495.694 218.939 494.118 217.068 492.685 215.089C489.922 211.099 487.557 206.847 485.621 202.396L485.613 202.386Z" fill="#22344E"/>
<path d="M500.327 196.916C500.383 195.997 497.175 194.983 493.171 194.724C489.166 194.464 485.83 195.02 485.78 195.978C485.729 196.935 488.922 197.919 492.936 198.17C496.95 198.421 500.259 197.863 500.327 196.916Z" fill="#22344E"/>
<path d="M493.59 226.2C497.192 224.664 495.415 212.512 489.654 198.908C483.894 185.304 476.3 175.719 472.679 177.253C469.059 178.786 470.855 190.941 476.615 204.545C482.375 218.149 489.994 227.764 493.59 226.2Z" fill="white"/>
<path d="M477.876 204.092C479.706 208.433 481.753 212.678 484.012 216.812C485.178 218.876 486.506 220.844 487.983 222.698C488.717 223.603 489.559 224.415 490.49 225.115C490.932 225.466 491.425 225.749 491.951 225.953C492.455 226.159 493.016 226.172 493.529 225.99C494.013 225.753 494.389 225.341 494.582 224.838C494.826 224.312 494.987 223.752 495.062 223.178C495.235 222.008 495.27 220.821 495.167 219.643C494.991 217.26 494.591 214.899 493.971 212.592C493.394 210.287 492.705 207.998 491.953 205.775C491.2 203.552 490.301 201.323 489.343 199.114C488.386 196.906 487.414 194.742 486.367 192.598C485.319 190.453 484.118 188.357 482.889 186.341C481.63 184.308 480.204 182.384 478.625 180.589C477.832 179.708 476.942 178.92 475.973 178.239C475.481 177.917 474.95 177.659 474.393 177.47C473.867 177.283 473.292 177.292 472.771 177.494C472.282 177.757 471.905 178.189 471.711 178.71C471.486 179.234 471.343 179.79 471.288 180.358C471.167 181.528 471.185 182.708 471.342 183.873C471.691 186.212 472.198 188.523 472.859 190.793C474.303 195.278 476.055 199.667 477.876 204.092ZM475.439 205.127C473.544 200.65 472.133 195.983 471.231 191.205C470.783 188.808 470.527 186.38 470.465 183.943C470.411 182.712 470.501 181.479 470.734 180.268C470.84 179.648 471.034 179.046 471.311 178.48C471.571 177.881 472.051 177.403 472.653 177.148C473.268 176.921 473.943 176.92 474.558 177.146C475.129 177.386 475.675 177.68 476.191 178.022C477.181 178.726 478.078 179.554 478.859 180.485C480.453 182.278 481.898 184.197 483.18 186.225C485.798 190.251 488.053 194.502 489.919 198.928C491.836 203.336 493.35 207.908 494.443 212.589C495.024 214.925 495.407 217.307 495.586 219.708C495.699 220.92 495.669 222.141 495.496 223.346C495.403 223.962 495.243 224.565 495.019 225.146C494.789 225.757 494.329 226.255 493.737 226.531C493.113 226.774 492.425 226.796 491.788 226.593C491.185 226.414 490.616 226.138 490.102 225.776C489.102 225.071 488.159 224.289 487.282 223.435C485.576 221.689 484.003 219.818 482.575 217.838C479.764 213.842 477.372 209.567 475.435 205.08L475.439 205.127Z" fill="#22344E"/>
<path d="M490.13 199.618C490.232 198.703 486.978 197.684 482.974 197.425C478.97 197.166 475.633 197.721 475.582 198.679C475.532 199.636 478.727 200.602 482.739 200.871C486.751 201.141 490.071 200.565 490.13 199.618Z" fill="#22344E"/>
<path d="M543.657 362.385L468.303 391.257C466.454 391.96 464.484 392.289 462.507 392.225C460.53 392.16 458.584 391.708 456.781 390.895C454.98 390.072 453.36 388.902 452.013 387.451C450.666 386 449.619 384.297 448.932 382.439L419.225 301.492C417.878 297.802 418.037 293.728 419.668 290.153C421.3 286.579 424.271 283.791 427.94 282.392L503.288 253.576C505.135 252.857 507.106 252.515 509.087 252.568C511.067 252.622 513.016 253.071 514.821 253.889C516.625 254.707 518.248 255.877 519.595 257.331C520.942 258.785 521.985 260.494 522.664 262.357L552.354 343.283C553.701 346.974 553.542 351.048 551.911 354.622C550.279 358.197 547.308 360.985 543.639 362.383L543.657 362.385Z" fill="#0B1B32" stroke="white"/>
<path d="M473.435 317.938C478.136 316.887 482.34 314.268 485.359 310.511C488.339 306.748 490.458 301.575 487.79 295.612C482.222 283.02 469.384 285.012 469.384 285.012C469.384 285.012 439.16 292.64 425.82 309.152C412.48 325.664 410.388 338.091 410.388 338.091C410.388 338.091 405.054 356.733 407.831 369.46C410.609 382.186 413.195 398.133 431.62 406.725C449.356 409.444 450.596 394.774 443.847 392.821C442.268 371.467 435.19 344.317 455.647 327.271C460.717 322.739 466.828 319.533 473.435 317.938Z" fill="white" stroke="#0C0801" stroke-miterlimit="10"/>
<path d="M455.887 229.534C465.156 228.776 472.023 220.324 471.228 210.66C470.432 200.997 462.251 193.782 453.027 194.546C443.804 195.309 436.901 203.748 437.687 213.42C438.472 223.091 446.649 230.259 455.887 229.534Z" fill="#112A49"/>
<path d="M455.69 200.805C456.542 201.073 457.361 201.437 458.131 201.891C458.905 202.326 459.638 202.829 460.323 203.394C461.759 204.527 462.972 205.918 463.901 207.495C464.381 208.305 464.754 209.175 465.01 210.081C465.157 210.53 465.251 210.994 465.292 211.465L465.407 212.848C465.414 214.691 464.892 216.497 463.904 218.052L463.383 217.828C463.784 216.227 463.892 214.567 463.705 212.928C463.501 211.344 462.957 209.824 462.109 208.472C461.259 207.084 460.254 205.798 459.112 204.639C457.949 203.454 456.687 202.314 455.359 201.203L455.69 200.805Z" fill="white"/>
<path d="M464 158C464 158 24.9998 -170 193.132 172.107C435.883 454.259 697.607 414.051 567.603 354.426C437.6 294.802 28.5903 145.398 166.194 337.833C303.798 530.268 439.332 652.824 485.39 622.246C531.448 591.669 159.305 331.759 46.5619 440.626" stroke="white" stroke-opacity="0.45" stroke-width="2" stroke-miterlimit="10"/>
</svg>
