<svg  viewBox="0 0 224 493" preserveAspectRatio="xMidYMid" fill="none" xmlns="http://www.w3.org/2000/svg">
<path d="M46.4048 297.13C46.4048 297.13 13.802 391.975 49.2946 465.331C65.0032 487.412 86.4913 476.964 86.4913 476.964C86.4913 476.964 106.868 466.516 104.497 446.733C102.2 426.949 93.4565 403.089 93.4565 359.446C93.4565 317.878 112.055 288.461 112.055 288.461L46.4048 297.13Z" fill="white" stroke="black" stroke-miterlimit="10"/>
<path d="M168.222 296.686C168.222 296.686 199.121 386.64 165.48 456.217C150.587 477.186 130.136 467.257 130.136 467.257C130.136 467.257 110.797 457.328 113.02 438.582C115.242 419.835 123.541 397.162 123.541 355.815C123.541 316.396 105.906 288.461 105.906 288.461L168.222 296.686Z" fill="white" stroke="black" stroke-miterlimit="10"/>
<path d="M155.352 425.648L165.867 412.85L181.429 418.521L191.898 405.735" stroke="#FFC01F" stroke-width="2" stroke-miterlimit="10" stroke-linecap="round" stroke-linejoin="round"/>
<path d="M156.457 433.543L167.337 421.054L182.729 427.172L193.563 414.694" stroke="#FFC01F" stroke-width="2" stroke-miterlimit="10" stroke-linecap="round" stroke-linejoin="round"/>
<path d="M18.3829 438.037L32.9552 445.91L45.2191 434.777L59.7442 442.657" stroke="#FFC01F" stroke-width="2" stroke-miterlimit="10" stroke-linecap="round" stroke-linejoin="round"/>
<path d="M16.4215 430.309L31.2151 437.759L43.1525 426.277L57.899 433.734" stroke="#FFC01F" stroke-width="2" stroke-miterlimit="10" stroke-linecap="round" stroke-linejoin="round"/>
<path d="M20.1758 290.831V137.154C20.1758 129.448 26.3999 123.224 34.106 123.224H187.71C195.416 123.224 201.64 129.448 201.64 137.154V290.757C201.64 298.463 195.416 304.688 187.71 304.688H34.106C26.3999 304.688 20.1758 298.463 20.1758 290.831Z" fill="#FFC01F"/>
<path d="M103.832 482.966L52.1858 492.821C46.7026 493.858 41.4417 490.301 40.4043 484.818C39.367 479.335 42.9236 474.074 48.4068 473.037L100.053 463.182C105.536 462.144 110.797 465.701 111.834 471.184C112.797 476.667 109.241 481.928 103.832 482.966Z" fill="#FFC01F"/>
<path d="M157.849 477.631L108.5 461.7C103.98 460.218 101.535 455.402 103.017 450.956C104.499 446.436 109.315 443.991 113.761 445.473L163.11 461.404C167.629 462.886 170.075 467.702 168.593 472.148C167.185 476.594 162.369 479.039 157.849 477.631Z" fill="#FFC01F"/>
<path d="M151.327 330.991L117.539 240.445C116.946 238.889 117.761 237.184 119.243 236.592L177.483 214.14C179.039 213.547 180.743 214.288 181.262 215.844L215.05 306.391C215.643 307.947 214.828 309.651 213.346 310.244L155.106 332.696C153.624 333.288 151.92 332.548 151.327 330.991Z" fill="white" stroke="#505889" stroke-width="1.2226" stroke-miterlimit="10"/>
<path d="M182.003 217.623L118.205 242.223" stroke="#686D8C" stroke-width="1.2226" stroke-miterlimit="10"/>
<path opacity="0.66" d="M166.072 279.939C170.042 279.939 173.26 276.721 173.26 272.752C173.26 268.782 170.042 265.564 166.072 265.564C162.103 265.564 158.885 268.782 158.885 272.752C158.885 276.721 162.103 279.939 166.072 279.939Z" fill="black"/>
<path d="M172.52 196.654C168.889 191.615 166.518 185.317 166.222 178.574C165.851 171.831 167.185 164.199 173.409 159.383C186.525 149.231 197.12 161.754 197.12 161.754C197.12 161.754 220.239 194.653 222.091 224.366C223.944 254.079 218.016 270.158 218.016 270.158C218.016 270.158 211.125 296.018 200.529 308.54C189.933 321.063 177.411 337.512 154.959 332.77C136.879 321.804 144.956 303.798 152.44 306.91C167.408 283.421 191.193 257.561 183.042 221.55C183.042 221.624 181.115 208.583 172.52 196.654Z" fill="white" stroke="#0C0801" stroke-width="1.1855" stroke-miterlimit="10"/>
<path d="M170.891 279.198L199.64 309.578" stroke="#0C0801" stroke-width="1.2118" stroke-miterlimit="10"/>
<path d="M9.50448 308.541L42.1072 217.549C42.6259 215.993 44.3302 215.178 45.8862 215.771L104.868 236.222C106.424 236.741 107.239 238.445 106.646 240.001L74.0431 330.992C73.5244 332.548 71.8202 333.363 70.2642 332.771L11.2828 312.32C9.72677 311.727 8.9117 310.097 9.50448 308.541Z" fill="black" stroke="white" stroke-width="1.2226" stroke-miterlimit="10"/>
<path d="M106.054 241.705L41.4414 219.328" stroke="white" stroke-width="1.2226" stroke-miterlimit="10"/>
<path opacity="0.66" d="M58.2597 280.755C62.2292 280.755 65.4471 277.537 65.4471 273.567C65.4471 269.598 62.2292 266.38 58.2597 266.38C54.2902 266.38 51.0723 269.598 51.0723 273.567C51.0723 277.537 54.2902 280.755 58.2597 280.755Z" fill="white"/>
<path d="M50.9257 196.654C54.5564 191.615 56.9276 185.317 57.2239 178.574C57.5944 171.831 56.2607 164.199 50.0365 159.383C36.9213 149.231 26.3254 161.754 26.3254 161.754C26.3254 161.754 3.2071 194.579 1.35467 224.366C-0.497757 254.153 5.43002 270.158 5.43002 270.158C5.43002 270.158 12.3211 296.018 22.917 308.54C33.5128 321.063 46.0353 337.512 68.4867 332.77C86.5664 321.804 78.4898 303.798 71.006 306.91C56.0384 283.421 32.2532 257.561 40.4039 221.55C40.4039 221.624 42.3304 208.583 50.9257 196.654Z" fill="white" stroke="#0C0801" stroke-width="1.1855" stroke-miterlimit="10"/>
<path d="M52.5563 279.198L23.8066 309.578" stroke="#0C0801" stroke-width="1.2118" stroke-miterlimit="10"/>
<path d="M73.5989 47.4222H68.4121C68.4121 35.048 72.7097 23.2665 80.49 14.1526C88.1961 5.11271 98.5697 0 108.943 0C130.876 0 149.4 21.4882 149.4 46.9776H144.214C144.214 24.3039 128.06 5.1868 108.943 5.1868C90.1226 5.1868 73.5989 24.8967 73.5989 47.4222Z" fill="#FFC01F"/>
<path d="M148.957 39.3454C143.547 39.0491 142.214 56.9065 141.991 60.4631C141.769 64.0198 140.954 81.9513 146.437 82.3218C151.846 82.6182 153.18 64.7608 153.402 61.2041C153.551 57.5733 154.366 39.6418 148.957 39.3454Z" fill="#0C0801"/>
<path d="M149.698 41.8643C150.588 44.4577 151.18 47.1252 151.625 49.7927C151.847 51.1264 151.995 52.4602 152.069 53.7939L152.144 55.7945V57.7952C152.144 58.462 152.069 59.1289 151.995 59.7958L151.921 60.8331L151.773 61.8705C151.625 62.5374 151.625 63.2042 151.403 63.8711L150.884 65.8717C150.069 68.4651 148.809 70.9845 147.031 73.2074L146.809 73.0592C148.365 70.7622 149.476 68.2429 150.143 65.7235C150.81 63.1301 151.106 60.4626 151.18 57.8692C151.254 55.2017 151.106 52.5343 150.736 49.8668C150.662 49.1999 150.588 48.533 150.513 47.8661C150.439 47.1993 150.291 46.5324 150.217 45.8655C149.995 44.5318 149.698 43.198 149.402 41.8643H149.698Z" fill="white"/>
<path d="M69.2277 39.4932C74.7109 38.7522 77.3043 56.5356 77.7488 60.0922C78.1934 63.6489 80.2681 81.5063 74.7849 82.1732C69.3018 82.9142 66.7084 65.1308 66.2638 61.5742C65.8192 58.0175 63.7445 40.2342 69.2277 39.4932Z" fill="#0C0801"/>
<path d="M68.6342 42.0869C67.8932 44.7544 67.5227 47.4219 67.2263 50.1635C67.0781 51.4973 67.0781 52.831 67.0781 54.2388V56.2395L67.2263 58.2401C67.3004 58.907 67.3745 59.5739 67.5227 60.2407L67.6709 61.204L67.9673 62.2413C68.1155 62.9082 68.2637 63.5751 68.486 64.242L69.1528 66.1685C70.1902 68.6878 71.598 71.133 73.5987 73.2077L73.821 73.0595C72.0426 70.9107 70.783 68.4655 69.8938 65.9462C69.0787 63.4269 68.5601 60.8335 68.2637 58.166C67.9673 55.4985 67.9673 52.831 68.1155 50.1635C68.1155 49.4966 68.1896 48.8298 68.2637 48.1629C68.3378 47.496 68.3378 46.8291 68.486 46.1623C68.6342 44.8285 68.7824 43.4948 69.0047 42.161L68.6342 42.0869Z" fill="white"/>
<path d="M105.685 196.06C104.203 177.017 127.395 154.714 141.696 133.745C155.997 112.775 146.957 79.3574 146.957 79.3574" stroke="black" stroke-width="2" stroke-miterlimit="10"/>
<path d="M73.8216 79.3574C73.8216 79.3574 63.0775 90.9907 77.6746 108.848C92.2718 126.706 89.0856 131.892 81.4536 145.823C73.8216 159.753 93.6796 184.501 110.203 200.506C116.65 206.73 142.139 211.028 149.178 226.218" stroke="black" stroke-width="2" stroke-miterlimit="10"/>
<path d="M140.435 62.2408C140.435 80.9874 133.692 96.1773 125.393 96.1773C117.094 96.1773 110.352 80.9874 110.352 62.2408C110.352 43.4942 117.243 29.8604 125.541 29.8604C133.84 29.8604 140.435 43.4942 140.435 62.2408Z" fill="white"/>
<path d="M142.584 62.2409C142.362 68.9837 141.473 75.6525 139.324 82.0989C138.212 85.2851 136.879 88.4713 134.878 91.287C133.915 92.6948 132.729 94.1027 131.321 95.2141C129.913 96.3256 128.135 97.2148 126.209 97.363C124.282 97.5112 122.356 96.9184 120.8 95.9551C119.243 94.9919 117.984 93.6581 116.946 92.3244C114.872 89.5828 113.464 86.4707 112.352 83.2845C110.204 76.9121 109.24 70.2434 109.092 63.5747C108.944 56.9059 109.611 50.1631 111.537 43.7166C112.501 40.4563 113.834 37.3442 115.835 34.4545C116.798 33.0466 118.058 31.6388 119.466 30.5273C120.207 30.0086 121.022 29.4899 121.911 29.1195C122.8 28.749 123.763 28.4526 124.727 28.3785C126.727 28.1562 128.728 28.6749 130.432 29.564C132.136 30.5273 133.47 31.787 134.582 33.1948C136.804 36.0105 138.286 39.1967 139.398 42.3829C140.509 45.6431 141.25 48.9034 141.769 52.2378C142.288 55.4981 142.584 58.9065 142.584 62.2409ZM138.361 62.2409C138.361 55.8685 137.768 49.4221 135.915 43.4943C134.952 40.5304 133.692 37.6406 131.914 35.2695C130.136 32.8984 127.691 31.1942 125.023 31.4906C124.356 31.5647 123.763 31.7129 123.097 31.9352C122.504 32.2315 121.911 32.5279 121.318 32.9725C120.207 33.8617 119.169 34.899 118.28 36.1587C116.502 38.678 115.242 41.5678 114.279 44.5317C112.352 50.6076 111.686 57.0541 111.76 63.5006C111.834 69.947 112.649 76.3935 114.649 82.4694C115.687 85.5074 116.946 88.3972 118.799 90.9165C119.762 92.1021 120.8 93.2135 122.059 93.9545C123.245 94.6955 124.653 95.1401 125.986 94.9178C127.32 94.7696 128.58 94.1027 129.691 93.1394C130.803 92.1762 131.766 90.9906 132.581 89.731C134.211 87.1376 135.397 84.1737 136.212 81.1357C137.99 75.0597 138.509 68.6133 138.361 62.2409Z" fill="black"/>
<path d="M125.69 54.6094C118.354 54.6094 110.574 57.0546 110.574 61.5745C110.574 66.0944 118.354 68.5396 125.69 68.5396C133.026 68.5396 140.806 66.0944 140.806 61.5745C140.806 57.0546 133.026 54.6094 125.69 54.6094Z" fill="black"/>
<path d="M78.4902 62.2408C78.4902 80.9874 85.2331 96.1773 93.532 96.1773C101.831 96.1773 108.574 80.9874 108.574 62.2408C108.574 43.4942 102.053 30.4531 93.7543 30.4531C85.4554 30.4531 78.4902 43.4942 78.4902 62.2408Z" fill="white"/>
<path d="M80.5655 62.241C80.4173 68.5392 81.01 74.9857 82.6402 81.0616C83.4552 84.0996 84.6408 87.0635 86.1968 89.6569C87.0119 90.9166 87.9752 92.1762 89.0866 93.0654C90.1981 94.0286 91.4577 94.6955 92.7915 94.9178C94.1252 95.1401 95.459 94.7696 96.7186 94.1027C97.9783 93.3618 99.0157 92.3244 99.9789 91.1389C101.905 88.7677 103.165 85.8039 104.202 82.84C106.203 76.8381 107.092 70.3916 107.166 64.0193C107.24 57.6469 106.648 51.2005 104.869 45.1245C103.98 42.0865 102.721 39.1967 101.016 36.7515C99.312 34.3063 96.9409 32.3057 94.3475 32.0834C91.7541 31.787 89.2348 33.4172 87.3824 35.6401C85.53 37.9371 84.1962 40.7528 83.1589 43.6426C81.1582 49.5703 80.5655 55.9427 80.5655 62.241ZM76.416 62.241C76.416 58.9066 76.7124 55.5722 77.2311 52.2378C77.7498 48.9035 78.5648 45.6432 79.7504 42.457C80.9359 39.2708 82.492 36.1588 84.8631 33.4172C86.0486 32.0834 87.4565 30.8238 89.1607 30.0087C89.9758 29.5641 90.9391 29.2677 91.9023 29.0454C92.8656 28.8972 93.8288 28.8231 94.7921 28.8972C96.7186 29.1195 98.5711 29.9346 99.9789 31.0461C101.461 32.1575 102.646 33.5654 103.61 34.9732C105.536 37.863 106.796 41.0492 107.759 44.3094C109.612 50.7559 110.13 57.4246 109.908 64.0934C109.686 70.688 108.722 77.2827 106.499 83.655C105.388 86.7671 103.98 89.8792 101.831 92.6208C100.794 93.9545 99.5343 95.2142 97.9042 96.1775C96.3482 97.1407 94.3475 97.6594 92.4951 97.363C90.5686 97.1407 88.8643 96.1775 87.4565 95.066C86.0486 93.9546 84.9372 92.5467 83.9739 91.1389C82.0474 88.3232 80.7136 85.137 79.6022 81.9508C77.5275 75.5784 76.6383 68.9097 76.416 62.241Z" fill="black"/>
<path d="M93.3092 54.6094C85.9736 54.6094 78.1934 57.0546 78.1934 61.5745C78.1934 66.0944 85.9736 68.5396 93.3092 68.5396C100.645 68.5396 108.425 66.0944 108.425 61.5745C108.425 57.0546 100.645 54.6094 93.3092 54.6094Z" fill="black"/>
</svg>
