<svg  viewBox="0 0 605 475" preserveAspectRatio="xMidYMid" fill="none" xmlns="http://www.w3.org/2000/svg">
<path d="M453.676 115.2V191.8" stroke="#57A4DD" stroke-width="5" stroke-miterlimit="10"/>
<path d="M481.953 37V192.073" stroke="white" stroke-width="5" stroke-miterlimit="10"/>
<path d="M510.625 115.473V192.073" stroke="#57A4DD" stroke-width="3" stroke-miterlimit="10"/>
<path d="M541.818 76.166V193.002" stroke="white" stroke-width="4" stroke-miterlimit="10"/>
<path d="M571.746 37V192.073" stroke="#57A4DD" stroke-width="3" stroke-miterlimit="10"/>
<path d="M602.723 76.166V192.074" stroke="white" stroke-width="3" stroke-miterlimit="10"/>
<path d="M604.533 195.96H450" stroke="white" stroke-width="5" stroke-miterlimit="10"/>
<path d="M470.522 210.29L470.598 209.897C470.027 207.073 467.53 205.857 464.704 206.439L453.791 208.669C453.112 208.807 452.47 209.083 451.902 209.479C451.333 209.866 450.846 210.361 450.47 210.936C450.099 211.516 449.841 212.161 449.709 212.836C449.576 213.509 449.576 214.202 449.709 214.875C450.292 217.713 452.929 218.612 455.768 218.017L465.692 216.459C468.557 215.851 471.092 213.051 470.522 210.29Z" fill="#FFB300"/>
<path d="M429.136 210.379L441.241 205.54C445.043 204.007 470.913 189.542 478.911 189.871C479.398 189.884 479.886 189.859 480.369 189.795C491.979 188.528 504.236 199.004 492.701 213.545C491.928 214.571 491.229 215.65 490.61 216.775C479.481 236.979 431.038 255.092 416.804 254.928C402.151 254.788 408.616 215.775 408.616 215.775L429.136 210.379Z" fill="#12243E"/>
<path d="M495.669 210.012C494.935 211.349 494.087 212.621 493.134 213.812C492.374 214.817 491.688 215.875 491.081 216.979C479.825 237.423 431.623 255.511 416.945 255.347C415.844 255.343 414.757 255.091 413.767 254.608C412.777 254.125 411.909 253.425 411.229 252.56C403.852 243.782 408.212 216.865 408.389 215.712V215.472L429.1 210.012C429.569 209.835 437.554 206.668 441.205 205.186C442.054 204.844 444.057 203.73 446.757 202.45C455.844 197.839 472.765 189.239 479.027 189.505C479.476 189.507 479.925 189.478 480.37 189.416C486.987 188.681 493.552 191.671 496.315 196.687C498.483 200.588 498.242 205.199 495.669 210.012ZM408.985 216.092C408.567 218.841 404.904 243.959 411.697 252.079C412.31 252.855 413.09 253.483 413.979 253.915C414.87 254.342 415.843 254.567 416.831 254.574C431.052 254.739 479.382 236.41 490.346 216.574C490.973 215.436 491.681 214.344 492.462 213.306C497.101 207.454 498.305 201.791 495.669 197.041C493.033 192.291 486.796 189.441 480.459 190.163C479.959 190.224 479.455 190.254 478.951 190.252C472.879 189.999 456.136 198.536 447.061 203.109C444.31 204.515 442.333 205.516 441.446 205.87C437.719 207.403 429.417 210.734 429.341 210.722L408.985 216.092Z" fill="white"/>
<path d="M441.469 205.591L459.847 240.627L460.532 240.273L442.141 205.236L441.469 205.591Z" fill="white"/>
<path d="M471.092 209.949C471.066 209.836 471.066 209.719 471.092 209.607V209.505C469.938 204.515 464.311 205.705 464.247 205.705L454.969 207.719L455.134 208.467L464.425 206.44C464.627 206.44 469.342 205.452 470.344 209.594C470.311 209.757 470.311 209.925 470.344 210.088C470.535 211.542 470.154 213.014 469.279 214.192C468.405 215.37 467.112 216.168 465.667 216.421L452.193 218.245L452.307 219.005L465.857 217.257C466.84 217.042 467.763 216.609 468.557 215.991C469.354 215.409 470.015 214.661 470.496 213.799C471.109 212.615 471.318 211.263 471.092 209.949Z" fill="white"/>
<path d="M469.767 210.102L469.841 209.734C469.16 207.162 466.633 206.129 463.845 206.772L453.105 209.241C452.442 209.392 451.818 209.665 451.271 210.044C450.727 210.428 450.265 210.903 449.909 211.445C449.562 211.992 449.335 212.597 449.24 213.225C449.143 213.853 449.176 214.492 449.339 215.108C450.045 217.68 452.696 218.415 455.533 217.76L465.307 215.957C468.07 215.292 470.547 212.616 469.767 210.102Z" fill="#12243E"/>
<path d="M371.858 140.484H367.84C367.447 114.036 354.113 92.9329 337.927 93.199C321.741 93.465 309.168 115.112 309.612 141.421L305.593 141.485C305.353 127.805 308.395 114.884 314.365 105.068C320.423 94.9343 328.662 89.2469 337.864 89.0949C347.066 88.9429 355.609 94.3516 361.946 104.295C368.157 113.934 371.731 126.804 371.858 140.484Z" fill="white"/>
<path d="M376.282 174.886C380.757 173.29 379.654 158.306 373.608 141.433C367.562 124.561 359.121 112.135 354.596 113.757C350.071 115.378 351.338 130.223 357.27 147.222C363.202 164.221 371.808 176.495 376.282 174.886Z" fill="white"/>
<path d="M358.841 146.906C360.7 152.336 362.812 157.664 365.178 162.891C366.457 165.45 367.906 167.922 369.513 170.289C370.35 171.414 371.297 172.454 372.34 173.392C372.884 173.824 373.47 174.202 374.089 174.519C374.689 174.809 375.377 174.864 376.015 174.671C376.63 174.447 377.135 173.993 377.422 173.405C377.723 172.755 377.969 172.081 378.157 171.391C378.438 170.002 378.574 168.589 378.563 167.173C378.551 164.249 378.245 161.333 377.65 158.471C377.143 155.61 376.487 152.777 375.686 149.984C374.963 147.324 373.974 144.474 373.062 141.712C372.176 138.931 371.139 136.199 369.957 133.53C368.689 130.87 367.422 128.21 366.154 125.638C364.822 123.032 363.243 120.559 361.439 118.253C360.555 117.104 359.538 116.062 358.41 115.15C357.83 114.759 357.22 114.416 356.584 114.124C355.949 113.833 355.233 113.77 354.557 113.947C354.247 114.077 353.964 114.261 353.72 114.491C353.475 114.729 353.281 115.013 353.15 115.327C352.757 115.935 352.506 116.624 352.415 117.341C352.147 118.731 352.074 120.15 352.199 121.56C352.43 124.447 352.854 127.316 353.466 130.148C355.114 135.86 356.927 141.256 358.841 146.906ZM363.353 163.778C360.348 158.638 357.73 153.282 355.52 147.754C353.623 142.143 352.273 136.361 351.489 130.49C351.118 127.549 350.974 124.585 351.058 121.623C351.094 120.136 351.315 118.659 351.717 117.227C351.818 116.466 352.1 115.741 352.541 115.112C352.936 114.399 353.568 113.848 354.328 113.554C355.133 113.321 355.995 113.393 356.749 113.757C357.422 114.144 358.074 114.567 358.701 115.023C359.868 115.933 360.885 117.019 361.718 118.241C363.531 120.556 365.142 123.023 366.534 125.613C369.47 130.687 371.898 136.037 373.784 141.586C375.696 147.115 377.171 152.786 378.195 158.547C378.777 161.441 379.083 164.385 379.108 167.337C379.157 168.818 379.021 170.299 378.702 171.745C378.548 172.479 378.301 173.189 377.967 173.861C377.607 174.567 377.004 175.121 376.269 175.419C375.483 175.658 374.638 175.609 373.886 175.279C373.161 174.996 372.475 174.622 371.845 174.165C370.78 173.202 369.589 172.049 368.638 171.036C366.686 168.788 364.919 166.386 363.353 163.854V163.778Z" fill="#112A49"/>
<path d="M375.419 146.463C375.533 145.399 371.617 144.056 366.674 143.752C361.731 143.448 357.801 144.208 357.662 145.272C357.522 146.336 361.464 147.615 366.407 147.983C371.351 148.35 375.407 147.704 375.419 146.463Z" fill="#0B1B32"/>
<path d="M363.67 177.306C368.157 175.685 367.066 160.7 361.02 143.84C354.974 126.981 346.52 114.568 342.008 116.164C337.496 117.76 338.751 132.63 344.683 149.629C350.614 166.628 359.195 178.927 363.67 177.306Z" fill="white"/>
<path d="M346.343 149.401C348.244 154.734 350.26 160.155 352.68 165.387C353.969 167.943 355.421 170.414 357.028 172.784C357.861 173.912 358.808 174.952 359.854 175.887C360.396 176.317 360.978 176.694 361.591 177.015C362.193 177.298 362.878 177.352 363.517 177.167C364.129 176.936 364.631 176.484 364.924 175.9C365.227 175.247 365.473 174.569 365.66 173.873C365.947 172.49 366.083 171.08 366.065 169.668C366.002 166.747 365.697 163.836 365.152 160.966C364.657 158.103 364.001 155.269 363.188 152.479C362.478 149.819 361.566 146.956 360.564 144.208C359.674 141.423 358.638 138.688 357.459 136.012C356.267 133.365 354.924 130.705 353.656 128.134C352.32 125.527 350.736 123.054 348.929 120.749C348.049 119.595 347.036 118.55 345.912 117.633C345.322 117.251 344.708 116.909 344.074 116.607C343.766 116.447 343.431 116.348 343.085 116.316C342.738 116.287 342.389 116.33 342.059 116.442C341.436 116.714 340.935 117.205 340.652 117.823C340.302 118.453 340.05 119.132 339.904 119.837C339.649 121.228 339.577 122.646 339.689 124.055C339.933 126.941 340.356 129.809 340.956 132.643C342.502 138.166 344.34 143.688 346.343 149.401ZM350.83 166.273C347.75 161.179 345.076 155.851 342.832 150.339C340.933 144.728 339.587 138.946 338.814 133.074C338.472 130.102 338.37 127.107 338.51 124.118C338.539 122.635 338.76 121.162 339.169 119.736C339.261 118.972 339.545 118.245 339.993 117.62C340.393 116.9 341.035 116.343 341.805 116.05C342.611 115.822 343.473 115.898 344.226 116.265C344.898 116.64 345.542 117.063 346.153 117.532C347.332 118.426 348.355 119.509 349.182 120.736C351.007 123.047 352.631 125.509 354.036 128.096C356.976 133.169 359.408 138.519 361.299 144.068C363.2 149.6 364.671 155.271 365.698 161.029C366.29 163.923 366.6 166.867 366.623 169.82C366.674 171.305 366.533 172.791 366.204 174.241C366.052 174.969 365.809 175.675 365.482 176.343C365.116 177.045 364.515 177.597 363.784 177.901C362.994 178.142 362.144 178.093 361.388 177.762C360.666 177.482 359.984 177.107 359.36 176.647C358.295 175.697 357.104 174.519 356.153 173.519C354.197 171.271 352.425 168.869 350.855 166.337L350.83 166.273Z" fill="#112A49"/>
<path d="M362.377 146.767C362.491 145.715 358.575 144.36 353.619 144.056C348.663 143.752 344.747 144.512 344.607 145.576C344.468 146.64 348.41 147.919 353.353 148.287C358.296 148.654 362.276 147.831 362.377 146.767Z" fill="#0B1B32"/>
<path d="M314.543 161.219C314.872 161.917 315.458 162.461 316.178 162.739C316.893 163.03 317.694 163.03 318.409 162.739L343.467 151.909L342.035 146.5L316.013 157.431C315.322 157.75 314.782 158.324 314.508 159.034C314.233 159.743 314.246 160.531 314.543 161.231V161.219Z" fill="#112A49"/>
<path d="M317.509 178.307C328.79 178.13 337.789 168.402 337.624 156.647C337.459 144.892 328.067 135.455 316.774 135.645C305.48 135.835 296.494 145.437 296.658 157.306C296.823 169.174 306.228 178.484 317.509 178.307Z" fill="#112A49"/>
<path d="M319.586 143.486C320.624 143.814 321.6 144.31 322.476 144.956C323.363 145.59 324.21 146.28 325.011 147.02C326.748 148.493 328.156 150.314 329.143 152.366C329.622 153.402 329.995 154.485 330.258 155.596C330.374 156.164 330.446 156.74 330.474 157.318V159.054C330.246 161.268 329.456 163.386 328.18 165.21L327.508 164.83C328.146 162.953 328.404 160.968 328.268 158.99C328.107 157.027 327.555 155.115 326.646 153.366C325.743 151.593 324.623 149.937 323.312 148.439C321.956 146.97 320.575 145.526 319.016 144.006L319.586 143.486Z" fill="white"/>
<path d="M375.61 287.317C375.61 287.317 501.853 293.575 553.427 382.546C568.498 411.35 545.493 428.603 545.493 428.603C545.493 428.603 523.058 444.575 503.298 431.326C483.538 418.077 467.25 367.815 403.521 367.612C355.495 353.97 330.234 352.779 330.234 352.779L375.61 287.317Z" fill="#0B1B32"/>
<path d="M553.796 382.356C556.117 386.709 557.698 391.418 558.473 396.29C561.527 416.696 545.887 428.729 545.684 428.881C545.481 429.033 522.869 444.854 503.071 431.592C497.582 427.919 492.398 421.459 486.403 414.011C470.851 394.656 449.532 368.144 403.509 367.954H403.408C355.991 354.502 333.759 351.12 333.518 351.158H331.338L375.409 286.925H375.637C399.369 288.83 422.78 293.624 445.349 301.2C466.196 307.967 485.996 317.611 504.174 329.853C525.328 344.381 542.046 362.051 553.847 382.394L553.796 382.356ZM403.585 367.156C449.95 367.359 471.371 394.035 487.024 413.504C492.982 420.914 498.128 427.311 503.502 430.933C522.844 443.892 545.05 428.4 545.266 428.235C545.481 428.071 567.814 410.869 553.111 382.711C526.494 336.895 479.685 313.474 445.057 301.922C422.633 294.413 399.384 289.632 375.814 287.685L334.823 351.019C339.272 351.348 360.427 354.958 403.585 367.182V367.156Z" fill="white"/>
<path d="M517.316 410.097C517.293 409.998 517.255 409.904 517.202 409.818C517.147 409.727 517.074 409.65 516.986 409.59C516.907 409.534 516.816 409.495 516.72 409.476C516.62 409.457 516.517 409.457 516.416 409.476L498.975 412.567C498.824 412.595 498.683 412.665 498.57 412.769C498.456 412.875 498.377 413.011 498.342 413.162L494.412 429.629L477.428 432.656C477.328 432.676 477.233 432.715 477.148 432.772C477.063 432.828 476.99 432.901 476.934 432.986C476.817 433.156 476.771 433.365 476.807 433.568C476.843 433.768 476.957 433.946 477.124 434.062C477.295 434.178 477.503 434.224 477.707 434.189L495.173 431.086C495.325 431.068 495.467 431.001 495.579 430.896C495.682 430.784 495.755 430.649 495.794 430.503L499.698 414.036L516.657 411.021C516.855 410.979 517.03 410.867 517.151 410.705C517.209 410.623 517.25 410.53 517.272 410.432C517.294 410.335 517.295 410.233 517.278 410.135L517.316 410.097Z" fill="#57A4DD"/>
<path d="M509.989 403.522C509.965 403.421 509.926 403.323 509.876 403.231C509.81 403.153 509.738 403.081 509.66 403.016C509.574 402.954 509.474 402.915 509.368 402.902C509.269 402.877 509.164 402.877 509.064 402.902L491.661 406.385C491.516 406.426 491.382 406.5 491.268 406.6C491.162 406.707 491.091 406.844 491.066 406.993L487.631 423.523L470.748 427.007C470.545 427.053 470.369 427.176 470.254 427.349C470.141 427.525 470.1 427.738 470.139 427.944C470.186 428.146 470.309 428.323 470.482 428.438C470.66 428.546 470.873 428.582 471.077 428.539L488.455 424.993C488.606 424.968 488.745 424.892 488.848 424.777C488.958 424.671 489.033 424.534 489.063 424.385L492.485 407.854L509.368 404.472C509.467 404.458 509.562 404.423 509.647 404.371C509.728 404.313 509.8 404.245 509.863 404.168C509.923 404.085 509.966 403.99 509.989 403.89C510.009 403.794 510.009 403.695 509.989 403.598V403.522Z" fill="#57A4DD"/>
<path d="M559.312 452.504L601.9 369.676L580.238 358.58L537.65 441.459L559.312 452.504Z" fill="white"/>
<path d="M352.797 301.998C352.797 301.998 472.107 260.641 553.264 323.405C578.031 344.483 563.151 369.094 563.151 369.094C563.151 369.094 548.448 392.236 525.126 387.372C501.804 382.508 467.873 342.19 408.77 365.738C359.198 371.058 343.418 343.71 343.418 343.71L352.797 301.998Z" fill="#0B1B32"/>
<path d="M567.777 354.818C567.342 359.85 565.889 364.741 563.505 369.195C563.353 369.499 548.359 392.578 524.999 387.726C518.509 386.371 511.284 382.33 502.906 377.593C481.219 365.521 451.522 348.979 408.858 366.015H408.769C359.831 371.259 340.895 341.379 340.654 341.455L347.233 342.873L352.505 301.592L352.721 301.516C375.408 294.424 398.871 290.103 422.598 288.647C444.43 287.131 466.368 288.644 487.785 293.143C512.831 298.628 534.948 308.698 553.492 323.037C566.306 333.994 568.575 345.913 567.777 354.818ZM408.63 365.369C451.611 348.231 481.46 364.863 503.274 377.023C511.601 381.646 518.788 385.662 525.151 386.992C547.965 391.742 562.681 369.169 562.833 368.878C562.985 368.587 577.219 344.317 552.998 323.696C511.17 291.357 459.026 287.329 422.648 289.559C399.076 291.007 375.764 295.285 353.215 302.302L341.072 344.824C345.23 343.456 364.09 370.145 408.63 365.369Z" fill="white"/>
<path d="M530.308 363.178C530.295 362.99 530.219 362.811 530.092 362.671C530.042 362.585 529.972 362.512 529.889 362.456C529.805 362.396 529.711 362.353 529.61 362.329C529.506 362.304 529.398 362.304 529.294 362.329C529.192 362.343 529.096 362.382 529.015 362.443L514.046 371.792C513.919 371.88 513.815 371.997 513.741 372.134C513.683 372.274 513.661 372.426 513.678 372.577L516.302 389.373L501.7 398.518C501.617 398.572 501.544 398.641 501.485 398.721C501.425 398.805 501.381 398.9 501.358 399C501.339 399.1 501.339 399.203 501.358 399.304C501.383 399.406 501.421 399.504 501.472 399.595C501.529 399.676 501.598 399.748 501.675 399.81C501.759 399.871 501.854 399.914 501.954 399.937C502.055 399.963 502.16 399.967 502.262 399.949C502.365 399.932 502.463 399.893 502.55 399.836L517.62 390.424C517.749 390.347 517.85 390.232 517.911 390.095C517.977 389.957 517.999 389.803 517.975 389.652L515.364 372.843L529.953 363.71C530.055 363.646 530.142 363.559 530.206 363.457C530.274 363.36 530.313 363.246 530.32 363.127L530.308 363.178Z" fill="#57A4DD"/>
<path d="M520.84 359.379C520.788 359.289 520.714 359.215 520.624 359.163C520.541 359.103 520.446 359.06 520.346 359.036C520.245 359.024 520.142 359.024 520.041 359.036C519.94 359.058 519.845 359.101 519.762 359.163L505.11 368.841C504.984 368.923 504.887 369.043 504.831 369.183C504.788 369.331 504.788 369.49 504.831 369.639L507.835 386.283L493.551 395.859C493.464 395.914 493.39 395.987 493.335 396.074C493.275 396.162 493.232 396.261 493.208 396.365C493.183 396.465 493.183 396.57 493.208 396.67C493.233 396.771 493.272 396.869 493.323 396.961C493.449 397.125 493.628 397.241 493.829 397.29C494.037 397.326 494.25 397.28 494.425 397.164L509.077 387.334C509.203 387.251 509.301 387.132 509.356 386.992C509.4 386.848 509.4 386.693 509.356 386.549L506.365 369.892L520.637 360.455C520.733 360.387 520.814 360.301 520.878 360.202C520.93 360.099 520.965 359.987 520.979 359.873C520.994 359.696 520.944 359.521 520.84 359.379Z" fill="#57A4DD"/>
<path d="M585.231 386.143L593.571 293.676L569.185 291.472L560.832 384.028L585.231 386.143Z" fill="white"/>
<path d="M314.303 348.991C315.001 351.377 316.164 353.601 317.725 355.535C319.287 357.469 321.216 359.075 323.402 360.261C325.587 361.447 327.986 362.188 330.46 362.443C332.934 362.698 335.433 362.462 337.815 361.747L431.8 333.069C436.521 331.659 440.494 328.444 442.856 324.122C445.218 319.801 445.777 314.722 444.411 309.99L415.411 209.213C414.737 206.817 413.59 204.579 412.037 202.633C410.484 200.686 408.557 199.069 406.37 197.878C404.182 196.687 401.778 195.946 399.299 195.698C396.821 195.449 394.318 195.699 391.937 196.433L297.8 224.996C293.068 226.39 289.08 229.597 286.705 233.918C284.331 238.24 283.763 243.324 285.125 248.062L314.303 348.991Z" fill="white"/>
<path d="M338.004 362.063C335.537 362.824 332.941 363.075 330.374 362.801C327.807 362.527 325.323 361.733 323.073 360.467C320.864 359.279 318.918 357.656 317.352 355.697C315.786 353.738 314.632 351.483 313.96 349.067L284.808 248.164C283.402 243.335 283.969 238.146 286.386 233.734C288.802 229.322 292.87 226.048 297.698 224.629L391.822 196.116C394.242 195.358 396.789 195.09 399.313 195.331C401.837 195.571 404.286 196.321 406.512 197.535C408.764 198.752 410.749 200.408 412.349 202.406C413.949 204.403 415.132 206.701 415.828 209.163L444.879 309.927C446.286 314.754 445.72 319.942 443.306 324.353C440.892 328.764 436.827 332.04 432.001 333.462L338.004 362.114V362.063ZM406.183 198.168C403.265 196.573 399.96 195.823 396.639 196.002C395.106 196.076 393.589 196.349 392.126 196.813L297.977 225.313C295.666 225.978 293.511 227.098 291.639 228.606C289.784 230.116 288.239 231.97 287.089 234.066C285.932 236.158 285.204 238.46 284.947 240.838C284.69 243.215 284.91 245.619 285.593 247.91L314.657 348.877C315.302 351.201 316.409 353.371 317.911 355.258C319.414 357.145 321.281 358.71 323.403 359.859C325.571 361.063 327.959 361.821 330.425 362.089C332.893 362.353 335.389 362.116 337.763 361.392L431.799 332.702C434.099 332.033 436.244 330.916 438.111 329.417C439.978 327.917 441.53 326.063 442.678 323.963C443.827 321.862 444.548 319.555 444.802 317.174C445.056 314.794 444.837 312.387 444.157 310.092L415.093 209.327C414.428 206.964 413.294 204.758 411.759 202.841C410.224 200.924 408.319 199.335 406.157 198.168H406.183Z" fill="black"/>
<path d="M375.891 269.457C368.526 265.513 362.242 259.824 357.588 252.889C354.396 247.949 349.618 244.241 344.039 242.375C338.36 240.45 331.63 240.247 325.989 245.846C314.075 257.462 321.743 271.319 321.743 271.319C321.743 271.319 343.291 302.695 367.791 310.903C392.292 319.111 407.426 316.299 407.426 316.299C407.426 316.299 431.153 314.449 444.424 306.039C457.695 297.628 474.958 287.849 476.91 263.187C472.512 241.767 455.21 246.606 455.819 255.144C432.066 265.999 404.004 285.696 375.891 269.457Z" fill="#12243E"/>
<path d="M477.276 263.262C477.059 266.082 476.606 268.879 475.92 271.623C471.395 289.609 457.693 298.223 446.4 305.342L444.588 306.482C431.33 315.032 407.627 316.843 407.475 316.805C407.323 316.767 392.075 319.592 367.752 311.333C343.429 303.074 321.603 271.787 321.501 271.623C321.4 271.458 313.82 257.334 325.785 245.643C330.615 240.88 336.99 239.639 344.227 242.096C349.89 243.967 354.743 247.717 357.98 252.724C362.593 259.598 368.809 265.249 376.092 269.191C399.63 282.782 423.281 270.951 444.144 260.514C448.06 258.55 451.749 256.714 455.45 255.016C455.323 251.444 458.276 248.278 462.408 247.72C467.656 247.062 474.716 250.634 477.301 263.224V263.326L477.276 263.262ZM326.292 246.175C323.427 248.877 321.385 252.332 320.399 256.144C319.246 261.214 319.853 266.525 322.122 271.205C322.325 271.496 343.822 302.517 367.955 310.598C392.088 318.68 407.108 315.994 407.387 315.982C407.665 315.969 431.063 314.208 444.144 305.772L445.956 304.632C458.72 296.589 474.589 286.595 476.452 263.262C473.917 251.216 467.352 247.72 462.434 248.404C458.631 248.898 455.893 251.837 456.096 255.156V255.422L455.855 255.523C452.053 257.233 448.326 259.12 444.321 261.134C423.306 271.648 399.439 283.567 375.585 269.799C368.2 265.816 361.889 260.105 357.194 253.154C354.06 248.281 349.349 244.629 343.847 242.806C336.787 240.424 330.842 241.539 326.178 246.175H326.292Z" fill="white"/>
<path d="M445.335 305.735L446.033 305.393L428.123 268.659L427.426 268.989L445.335 305.735Z" fill="white"/>
<path d="M266.811 109.59C272.235 99.0762 280.208 92.8821 289.372 92.1475C298.536 91.4128 307.282 96.3022 314.278 105.815C321.148 114.96 325.419 127.589 326.497 141.282L322.479 141.599C320.4 115.366 305.824 95.0228 289.689 96.3022C273.553 97.5815 262.286 119.85 264.491 146.209L260.473 146.526C259.244 132.896 261.563 119.723 266.811 109.59Z" fill="white"/>
<path d="M275.531 151.846C279.828 134.417 279.6 119.457 274.999 118.279C270.398 117.101 263.224 130.25 258.762 147.59C254.301 164.931 254.694 179.992 259.295 181.157C263.896 182.323 271.234 169.187 275.531 151.846Z" fill="white"/>
<path d="M277.635 134.505C277.969 131.625 278.125 128.727 278.104 125.828C278.082 124.413 277.873 123.008 277.483 121.648C277.319 120.942 277.003 120.281 276.557 119.71C276.399 119.409 276.179 119.146 275.911 118.937C275.644 118.725 275.338 118.566 275.011 118.468C274.325 118.366 273.625 118.496 273.021 118.836C272.418 119.19 271.842 119.588 271.297 120.026C270.263 121.043 269.352 122.178 268.585 123.408C267.005 125.874 265.668 128.487 264.592 131.211C263.553 133.897 262.526 136.658 261.588 139.419C260.667 142.192 259.897 145.012 259.281 147.868C258.635 150.705 257.913 153.631 257.456 156.355C256.923 159.212 256.543 162.096 256.316 164.993C255.986 167.896 255.961 170.825 256.239 173.734C256.351 175.144 256.619 176.537 257.038 177.888C257.29 178.564 257.599 179.217 257.963 179.839C258.306 180.397 258.851 180.801 259.484 180.966C260.139 181.091 260.816 180.969 261.386 180.624C261.965 180.249 262.512 179.825 263.021 179.358C263.973 178.319 264.822 177.191 265.556 175.988C266.936 173.481 268.143 170.883 269.168 168.211C271.058 162.807 272.674 157.311 274.01 151.744C275.353 145.816 276.646 140.331 277.635 134.505ZM271.133 168.908C269.804 171.556 268.27 174.098 266.544 176.508C265.695 177.597 264.618 178.864 263.642 179.915C263.066 180.424 262.422 180.851 261.728 181.182C261.014 181.59 260.176 181.725 259.37 181.562C258.607 181.332 257.951 180.838 257.52 180.168C257.135 179.53 256.824 178.85 256.594 178.142C256.138 176.729 255.861 175.266 255.771 173.784C255.509 170.833 255.534 167.864 255.846 164.917C256.316 159.087 257.241 153.302 258.61 147.615C259.97 141.947 261.876 136.424 264.301 131.123C265.442 128.41 266.811 125.8 268.395 123.32C269.107 122.025 270.018 120.849 271.094 119.836C271.678 119.344 272.287 118.883 272.92 118.456C273.635 118.027 274.481 117.869 275.303 118.012C276.089 118.242 276.774 118.734 277.242 119.406C277.739 119.991 278.09 120.686 278.269 121.432C278.806 122.817 279.163 124.264 279.333 125.739C279.7 128.68 279.84 131.644 279.752 134.606C279.538 140.525 278.748 146.409 277.394 152.175C275.721 157.89 273.628 163.474 271.133 168.882V168.908Z" fill="#112A49"/>
<path d="M266.556 153.48C271.41 152.631 275.225 150.946 274.997 149.933C274.769 148.92 270.764 148.502 265.897 149.274C261.03 150.047 257.227 151.808 257.442 152.821C257.569 154.062 261.777 154.252 266.556 153.48Z" fill="#0B1B32"/>
<path d="M288.306 153.049C292.591 135.607 292.388 120.647 287.774 119.482C283.161 118.317 275.898 131.465 271.538 148.856C267.177 166.248 267.469 181.233 272.082 182.423C276.696 183.614 284.124 170.466 288.306 153.049Z" fill="white"/>
<path d="M290.32 135.797C290.655 132.917 290.808 130.019 290.776 127.12C290.765 125.705 290.56 124.299 290.168 122.94C289.954 122.251 289.638 121.597 289.23 121.002C288.894 120.404 288.347 119.952 287.696 119.735C287.357 119.665 287.008 119.665 286.669 119.735C286.324 119.796 285.995 119.93 285.706 120.128C285.101 120.479 284.525 120.877 283.982 121.318C282.944 122.332 282.033 123.467 281.27 124.7C279.69 127.166 278.353 129.779 277.277 132.503C276.238 135.189 275.211 137.95 274.273 140.711C273.335 143.473 272.587 146.31 271.954 149.16C271.32 152.01 270.597 154.923 270.141 157.647C269.599 160.499 269.214 163.379 268.988 166.273C268.722 169.183 268.696 172.111 268.912 175.026C269.035 176.435 269.307 177.828 269.723 179.18C269.974 179.856 270.284 180.509 270.648 181.131C270.993 181.684 271.538 182.083 272.169 182.246C272.822 182.375 273.499 182.258 274.071 181.916C274.648 181.544 275.191 181.12 275.693 180.65C276.649 179.614 277.498 178.485 278.228 177.28C279.601 174.769 280.807 172.171 281.84 169.503C283.805 164.056 285.3 158.47 286.682 153.036C288.127 147.095 289.42 141.421 290.32 135.797ZM283.805 170.2C282.485 172.851 280.955 175.392 279.229 177.8C278.38 178.889 277.29 180.168 276.327 181.207C275.751 181.716 275.107 182.143 274.413 182.474C273.696 182.874 272.861 183.008 272.055 182.854C271.294 182.62 270.639 182.127 270.205 181.46C269.82 180.822 269.509 180.142 269.279 179.434C268.821 178.022 268.544 176.558 268.455 175.076C268.169 172.128 268.169 169.158 268.455 166.21C268.936 160.379 269.864 154.595 271.231 148.907C272.601 143.223 274.533 137.69 276.999 132.389C278.141 129.673 279.519 127.062 281.118 124.586C281.827 123.29 282.743 122.118 283.83 121.116C284.405 120.62 285.006 120.155 285.63 119.722C286.349 119.293 287.201 119.139 288.026 119.292C288.813 119.512 289.499 120.001 289.965 120.672C290.463 121.256 290.811 121.951 290.979 122.699C291.52 124.083 291.882 125.53 292.056 127.006C292.478 129.967 292.66 132.958 292.601 135.949C292.399 141.868 291.61 147.754 290.244 153.517C288.542 159.223 286.389 164.784 283.805 170.149V170.2Z" fill="#112A49"/>
<path d="M279.586 152.529C284.44 151.693 288.243 149.996 288.028 148.995C287.812 147.995 283.781 147.564 278.914 148.337C274.047 149.109 270.244 150.87 270.46 151.883C270.675 152.897 274.744 153.327 279.586 152.529Z" fill="#0B1B32"/>
<path d="M319.449 161.7C319.694 160.971 319.639 160.175 319.297 159.486C318.955 158.797 318.353 158.272 317.623 158.027L290.676 149.616L289.764 155.152L315.747 163.537C316.485 163.769 317.283 163.71 317.978 163.372C318.665 163.025 319.192 162.426 319.449 161.7Z" fill="#112A49"/>
<path d="M336.888 156.102C335.95 144.271 326.038 135.556 314.783 136.455C303.527 137.355 295.111 147.627 296.036 159.344C296.962 171.061 306.874 179.89 318.129 179.003C329.384 178.116 337.813 167.856 336.888 156.102Z" fill="#112A49"/>
<path d="M313.326 145.057C311.931 146.716 310.677 148.287 309.523 149.883C308.358 151.498 307.396 153.251 306.659 155.101C305.923 156.928 305.557 158.883 305.581 160.852C305.625 162.833 306.055 164.787 306.849 166.603L306.215 167.046C304.771 165.351 303.785 163.314 303.35 161.131L303.211 159.408C303.167 158.83 303.167 158.25 303.211 157.673C303.363 156.539 303.626 155.423 303.997 154.341C304.793 152.205 306.028 150.259 307.622 148.629C308.344 147.814 309.119 147.048 309.942 146.336C310.752 145.61 311.677 145.024 312.679 144.601L313.326 145.057Z" fill="white"/>
<path d="M322.124 353.869C322.124 353.869 297.079 357.479 250.549 375.592C187.174 381.926 175.767 433.441 157.299 448.528C138.832 463.614 115.041 449.858 115.041 449.858C115.041 449.858 90.4896 434.873 102.746 404.764C145.588 311.283 270.664 293.018 270.664 293.018L322.124 353.869Z" fill="white"/>
<path d="M102.402 404.637C112.2 383.268 127.156 364.104 146.828 347.637C163.74 333.707 182.51 322.196 202.597 313.436C224.33 303.756 247.161 296.755 270.586 292.587H270.801L320.804 352.336L318.649 352.564C318.396 352.564 296.582 358.023 250.674 375.947H250.572C204.778 380.507 186.082 408.881 172.444 429.679C167.196 437.647 162.646 444.601 157.538 448.768C139.109 463.867 115.064 450.276 114.862 450.149C114.659 450.022 97.9278 439.522 99.0178 418.913C99.3245 413.989 100.451 409.152 102.352 404.599L102.402 404.637ZM317.382 352.64L270.484 293.461C247.208 297.641 224.52 304.611 202.914 314.222C169.554 329.029 125.153 356.807 103.061 404.954C91.1086 434.391 114.988 449.402 115.216 449.516C115.445 449.63 139.033 462.968 157.044 448.249C162.114 444.132 166.563 437.28 171.785 429.325C185.512 408.45 204.296 379.861 250.37 375.238C292.273 358.936 313.034 353.324 317.382 352.64Z" fill="#0B1B32"/>
<path d="M141.38 428.792C141.372 428.891 141.385 428.991 141.418 429.085C141.451 429.178 141.502 429.264 141.57 429.337C141.634 429.414 141.713 429.477 141.803 429.523C141.892 429.569 141.989 429.596 142.089 429.603L159.251 430.984L164.714 447.045C164.761 447.19 164.849 447.318 164.968 447.413C165.087 447.509 165.233 447.567 165.386 447.577L183.131 448.996C183.333 449.007 183.532 448.939 183.686 448.807C183.839 448.674 183.935 448.488 183.955 448.287C183.973 448.081 183.909 447.876 183.777 447.717C183.64 447.562 183.45 447.463 183.245 447.438L166.083 446.057L160.557 430.059C160.507 429.916 160.414 429.792 160.291 429.704C160.172 429.608 160.025 429.55 159.872 429.54L142.204 428.108H141.899C141.798 428.134 141.706 428.186 141.633 428.26C141.557 428.324 141.492 428.402 141.443 428.488C141.401 428.581 141.376 428.679 141.367 428.78L141.38 428.792Z" fill="#57A4DD"/>
<path d="M148.02 421.572C148.007 421.669 148.007 421.767 148.02 421.863C148.059 421.955 148.11 422.04 148.172 422.117C148.233 422.193 148.312 422.254 148.4 422.294C148.491 422.342 148.59 422.372 148.692 422.383L165.816 424.143L170.81 440.268C170.847 440.414 170.932 440.544 171.051 440.636C171.169 440.735 171.315 440.797 171.469 440.813L189.113 442.726C189.317 442.747 189.522 442.687 189.683 442.56C189.844 442.432 189.949 442.246 189.974 442.042C189.989 441.938 189.982 441.833 189.954 441.733C189.925 441.632 189.876 441.539 189.81 441.459C189.747 441.378 189.668 441.311 189.579 441.261C189.49 441.211 189.391 441.179 189.29 441.168L172.153 439.306L167.159 423.181C167.114 423.035 167.026 422.907 166.906 422.813C166.791 422.717 166.65 422.655 166.5 422.636L148.844 420.825C148.744 420.806 148.641 420.806 148.54 420.825C148.442 420.85 148.351 420.898 148.274 420.964C148.193 421.032 148.124 421.113 148.071 421.205C148.03 421.302 148 421.404 147.982 421.509L148.02 421.572Z" fill="#57A4DD"/>
<path d="M124.101 461.878L73.8071 383.483L53.2988 396.606L103.593 474.988L124.101 461.878Z" fill="#FFB300"/>
<path d="M308.18 346.104C308.18 346.104 295.074 374.832 245.236 374.275C184.143 356.465 154.255 399.824 131.466 406.892C108.676 413.96 91.8186 392.325 91.8186 392.325C91.8186 392.325 74.6568 369.246 97.3069 345.901C172.089 275.689 294.82 305.481 294.82 305.481L308.18 346.104Z" fill="white"/>
<path d="M97.0417 345.61C114.14 329.561 135.193 317.439 159.593 309.598C180.483 303.075 202.178 299.477 224.058 298.908C247.816 298.085 271.586 300.148 294.847 305.051H295.063L304.252 345.648L310.665 343.609C310.424 343.609 294.429 375.098 245.212 374.541H245.11C201.027 361.646 173.041 380.95 152.583 395.036C144.687 400.482 137.893 405.169 131.543 407.158C108.728 414.213 91.6296 392.68 91.4521 392.376C88.6452 388.163 86.7302 383.422 85.8245 378.442C84.2021 369.766 85.33 357.694 97.0417 345.61ZM310.614 346.991L294.467 305.836C271.34 300.984 247.711 298.947 224.095 299.769C187.668 301.036 136.119 309.991 97.5996 346.167C75.4565 368.968 91.9465 391.768 92.1239 392.084C92.3014 392.401 109.083 413.428 131.353 406.524C137.564 404.599 144.332 399.912 152.178 394.516C172.736 380.33 200.862 360.924 245.288 373.882C290.069 374.402 306.318 346.028 310.614 346.991Z" fill="#0B1B32"/>
<path d="M123.938 383.306C123.964 383.426 124.016 383.538 124.089 383.636C124.165 383.728 124.26 383.801 124.368 383.851L139.768 391.565L138.767 408.539C138.755 408.689 138.79 408.84 138.868 408.969C138.945 409.101 139.06 409.207 139.198 409.273L155.092 417.203C155.183 417.251 155.282 417.281 155.384 417.291C155.485 417.305 155.587 417.305 155.688 417.291C155.785 417.256 155.875 417.205 155.954 417.139C156.028 417.068 156.092 416.987 156.144 416.899C156.193 416.805 156.22 416.701 156.221 416.595C156.245 416.495 156.245 416.391 156.221 416.291C156.192 416.198 156.144 416.111 156.081 416.037C156.015 415.953 155.927 415.887 155.828 415.847L140.44 408.146L141.441 391.16C141.442 391.009 141.403 390.86 141.327 390.729C141.251 390.597 141.136 390.491 140.998 390.425L125.205 382.496C125.116 382.443 125.016 382.413 124.913 382.407C124.808 382.388 124.701 382.388 124.596 382.407C124.501 382.445 124.411 382.496 124.33 382.559C124.253 382.625 124.193 382.707 124.153 382.8C124.039 382.949 123.976 383.131 123.975 383.319L123.938 383.306Z" fill="#57A4DD"/>
<path d="M132.873 379.138C132.89 379.252 132.934 379.36 133 379.455C133.076 379.544 133.166 379.621 133.266 379.683L148.374 387.713L146.98 404.586C146.967 404.736 146.999 404.887 147.071 405.02C147.143 405.153 147.252 405.262 147.386 405.333L162.913 413.718C163.002 413.769 163.101 413.801 163.204 413.812C163.306 413.823 163.41 413.813 163.508 413.782C163.608 413.753 163.701 413.705 163.781 413.639C163.862 413.574 163.928 413.493 163.977 413.402C164.03 413.312 164.064 413.213 164.079 413.11C164.097 413.01 164.097 412.907 164.079 412.806C164.05 412.705 164.003 412.611 163.939 412.528C163.868 412.454 163.787 412.39 163.698 412.338L148.615 404.155L150.009 387.308C150.027 387.155 149.996 387 149.921 386.865C149.853 386.727 149.742 386.616 149.604 386.548L134.102 378.302C134.014 378.248 133.914 378.218 133.811 378.213C133.71 378.195 133.607 378.195 133.506 378.213C133.406 378.239 133.314 378.291 133.24 378.365C133.164 378.429 133.099 378.506 133.05 378.593C132.985 378.667 132.935 378.753 132.904 378.847C132.873 378.941 132.863 379.04 132.873 379.138Z" fill="#57A4DD"/>
<path d="M95.5471 406.929L78.4105 315.602L54.3281 320.111L71.452 411.4L95.5471 406.929Z" fill="#FFB300"/>
<path d="M182.103 298.603L189.707 292.003C191.989 290.205 192.99 287.608 191.19 285.341C190.759 284.826 190.234 284.396 189.644 284.074C189.043 283.732 188.379 283.517 187.692 283.441C187.013 283.352 186.323 283.404 185.664 283.593C185.001 283.779 184.381 284.093 183.839 284.517L175.106 291.459C172.85 293.245 172.178 295.943 173.978 298.197L174.333 298.375C176.019 300.541 179.808 300.389 182.103 298.603Z" fill="#FFB300"/>
<path d="M218.227 254.408C218.227 254.408 252.31 274.51 243.007 285.822C233.969 296.88 189.011 322.315 166.361 317.869C165.106 317.625 163.836 317.468 162.559 317.4C144.003 316.893 143.8 300.769 152.254 292.7C152.623 292.38 152.958 292.023 153.255 291.636C158.135 285.302 185.855 274.751 189.455 272.838C193.055 270.926 200.938 266.67 200.938 266.67L218.227 254.408Z" fill="white"/>
<path d="M147.285 309.358C145.219 304.012 147.133 297.058 151.95 292.46C152.276 292.157 152.581 291.831 152.862 291.485C156.665 286.519 174.144 279.084 183.523 275.018C186.248 273.751 188.39 272.953 189.189 272.485C192.662 270.648 200.229 266.557 200.596 266.316L218.087 253.953L218.278 254.105C219.266 254.7 242.715 268.634 244.717 279.933C244.951 281.01 244.934 282.126 244.668 283.195C244.402 284.265 243.894 285.259 243.184 286.101C233.893 297.502 189.074 322.835 166.158 318.275C164.904 318.022 163.633 317.865 162.356 317.806C160.828 317.769 159.306 317.603 157.805 317.312C152.583 316.286 148.882 313.525 147.285 309.358ZM201.09 267.051C201.09 267.051 193.156 271.332 189.594 273.207C188.745 273.663 186.704 274.473 183.865 275.74C174.562 279.717 157.248 287.14 153.521 291.915C153.206 292.307 152.862 292.675 152.494 293.017C147.893 297.4 146.056 304.012 148.008 309.079C149.96 314.146 155.08 316.856 162.533 317.059C163.836 317.124 165.133 317.285 166.412 317.54C188.618 321.885 233.716 296.628 242.715 285.62C243.343 284.861 243.793 283.971 244.032 283.015C244.271 282.06 244.293 281.063 244.096 280.097C242.22 269.66 220.61 256.347 218.227 254.903L201.09 267.051Z" fill="black"/>
<path d="M188.631 273.333L203.651 309.915L204.348 309.624L189.328 272.991L188.631 273.333Z" fill="black"/>
<path d="M177.032 300.566C178.001 300.756 179.001 300.73 179.96 300.49C180.911 300.259 181.801 299.827 182.571 299.223L192.647 290.053L192.128 289.483L182.076 298.641C180.956 299.585 179.514 300.062 178.051 299.972C176.588 299.883 175.215 299.233 174.218 298.159C174.126 298.018 174.015 297.891 173.888 297.779C171.353 294.359 175.156 291.357 175.27 291.218L182.786 285.404L182.317 284.809L174.814 290.623C174.814 290.623 170.213 294.195 173.305 298.223H173.394C173.493 298.28 173.583 298.353 173.66 298.438C174.514 299.505 175.701 300.254 177.032 300.566Z" fill="black"/>
<path d="M337.612 348.624L356.916 245.352C357.817 240.514 356.774 235.517 354.012 231.443C351.25 227.369 346.992 224.547 342.162 223.59L245.719 204.147C243.28 203.653 240.768 203.653 238.329 204.147C234.645 204.871 231.265 206.691 228.633 209.367C226 212.043 224.238 215.451 223.576 219.144L204.322 322.214C203.436 327.046 204.488 332.032 207.251 336.095C210.014 340.158 214.267 342.97 219.089 343.925L315.418 363.533C317.857 364.02 320.368 364.02 322.806 363.531C325.245 363.043 327.562 362.076 329.624 360.688C331.687 359.299 333.454 357.516 334.823 355.441C336.191 353.366 337.135 351.04 337.599 348.599L337.612 348.624Z" fill="#0B1B32"/>
<path d="M315.292 363.925L218.962 344.317C214.021 343.363 209.66 340.49 206.835 336.327C204.01 332.165 202.951 327.053 203.891 322.112L223.208 219.043C223.665 216.525 224.623 214.124 226.025 211.983C227.427 209.842 229.245 208.004 231.371 206.579C233.474 205.163 235.84 204.184 238.329 203.701C240.817 203.218 243.378 203.24 245.858 203.767L342.277 223.172C347.218 224.126 351.579 227 354.404 231.162C357.229 235.324 358.287 240.436 357.347 245.377L338.005 348.599C337.562 351.072 336.628 353.432 335.256 355.538C333.884 357.644 332.104 359.454 330.02 360.86C327.895 362.324 325.497 363.345 322.969 363.863C320.441 364.381 317.834 364.385 315.304 363.875L315.292 363.925ZM231.776 207.212C229.74 208.587 227.998 210.353 226.653 212.409C225.308 214.464 224.387 216.767 223.943 219.182L204.639 322.252C203.732 326.996 204.746 331.907 207.457 335.906C210.168 339.904 214.356 342.665 219.101 343.583L315.431 363.178C319.06 363.9 322.823 363.525 326.238 362.101C329.653 360.678 332.567 358.27 334.608 355.185C335.924 353.16 336.817 350.889 337.232 348.51L356.536 245.238C357.44 240.497 356.426 235.591 353.718 231.596C351.01 227.6 346.827 224.84 342.086 223.919L245.643 204.59C244.143 204.274 242.611 204.146 241.08 204.21C237.756 204.358 234.537 205.419 231.776 207.275V207.212Z" fill="white"/>
<path d="M289.687 279.324C299.966 310.104 275.035 333.626 259.622 354.704C251.383 352.398 243.145 368.371 263.285 376.972C287.862 379.999 300.905 365.053 311.805 353.754C322.706 342.455 329.271 319.554 329.271 319.554C329.271 319.554 335.076 305.303 331.933 279.666C328.789 254.028 302.362 226.655 302.362 226.655C302.362 226.655 290.308 216.357 276.543 225.693C269.927 230.101 268.774 236.725 269.521 242.666C270.226 248.509 272.91 253.935 277.126 258.044C282.997 263.989 287.319 271.283 289.712 279.286L289.687 279.324Z" fill="white"/>
<path d="M263.286 377.34H263.223C251.385 372.273 249.281 364.673 251.005 359.607C252.386 355.667 256.075 353.413 259.56 354.249C261.93 350.993 264.503 347.725 267.165 344.28C281.589 325.938 297.927 305.165 289.321 279.401C286.942 271.488 282.675 264.272 276.887 258.374C272.614 254.209 269.903 248.704 269.206 242.781C268.255 235.181 270.739 229.215 276.379 225.44C290.233 216.067 302.553 226.327 302.705 226.453C302.857 226.58 329.145 254.232 332.365 279.654C335.584 305.076 329.754 319.478 329.767 319.643C329.779 319.808 323.251 342.633 312.212 353.843L310.729 355.401C301.489 365.041 290.297 376.719 271.753 377.543C268.926 377.659 266.094 377.54 263.286 377.188V377.34ZM276.798 226.124C271.335 229.772 269.028 235.358 269.954 242.743C270.627 248.517 273.268 253.884 277.432 257.943C283.319 263.926 287.668 271.245 290.107 279.274C298.827 305.393 282.362 326.369 267.824 344.85C265.061 348.359 262.437 351.69 260.029 354.983L259.877 355.199L259.611 355.123C256.404 354.223 252.994 356.288 251.739 359.936C250.079 364.623 252.183 371.792 263.489 376.643C286.735 379.481 299.727 365.953 310.171 355.11L311.641 353.552C322.542 342.392 328.968 319.846 329.031 319.567C329.095 319.288 334.748 305.114 331.655 279.882C328.562 254.65 302.503 227.365 302.224 227.112C298.095 223.907 292.989 222.217 287.762 222.324C283.821 222.53 280.02 223.848 276.798 226.124Z" fill="black"/>
<path d="M278.875 329.675L278.406 330.295L310.854 355.211L311.323 354.59L278.875 329.675Z" fill="#0C0801"/>
<path d="M182.104 298.54L190.051 292.206C192.446 290.484 193.562 287.887 191.838 285.506C191.427 284.943 190.91 284.465 190.317 284.1C189.725 283.728 189.064 283.478 188.374 283.365C187.684 283.252 186.979 283.278 186.299 283.441C185.619 283.602 184.977 283.894 184.41 284.302L175.259 290.978C172.889 292.7 172.103 295.424 173.839 297.78L174.182 297.983C175.766 300.25 179.683 300.25 182.104 298.54Z" fill="white"/>
<path d="M120.578 180.498C150.021 180.498 173.889 156.646 173.889 127.222C173.889 97.798 150.021 73.9453 120.578 73.9453C91.1356 73.9453 67.2676 97.798 67.2676 127.222C67.2676 156.646 91.1356 180.498 120.578 180.498Z" fill="#FFB300"/>
<path d="M120.577 127.222L111.704 74.6801C125.639 72.3988 139.911 75.7072 151.418 83.8858C162.925 92.0645 170.736 104.452 173.153 118.355C175.435 132.279 172.124 146.541 163.94 158.038C155.756 169.536 143.36 177.339 129.449 179.751C115.52 182.025 101.256 178.715 89.7554 170.54C78.2545 162.365 70.4463 149.984 68.0266 136.089C66.6696 127.997 67.1899 119.703 69.5476 111.844L120.577 127.222Z" fill="#E0E9F5"/>
<path d="M63.2891 235.206L129.833 210.151L148.021 237.854L114.242 250.964L80.4636 264.074L63.2891 235.206Z" fill="#112A49"/>
<path d="M126.79 237.904C131.529 237.904 135.371 234.064 135.371 229.328C135.371 224.592 131.529 220.753 126.79 220.753C122.051 220.753 118.209 224.592 118.209 229.328C118.209 234.064 122.051 237.904 126.79 237.904Z" fill="#F5CE02"/>
<path d="M73.0605 239.943L109.095 226.896" stroke="white" stroke-miterlimit="10"/>
<path d="M77.3203 246.277L100.592 237.854" stroke="white" stroke-miterlimit="10"/>
<path d="M81.8184 253.522L97.3198 247.898" stroke="white" stroke-miterlimit="10"/>
<path d="M465.678 157.775C465.678 157.775 27.3743 -88.5759 105.058 51.263C182.741 191.102 626.006 260.047 419.548 283.433C213.089 306.82 -70.6381 209.367 40.8097 307.851C152.258 406.335 537.034 471.529 324.696 453.542" stroke="white" stroke-opacity="0.24" stroke-width="2" stroke-miterlimit="10"/>
</svg>
